<svg height="50" viewBox="0 0 50 50" width="50" xmlns="http://www.w3.org/2000/svg"><g fill="#fff" fill-rule="evenodd" transform="translate(10 5)"><path d="m2.593625 25.12625c.006875-6.718125 5.45125-12.161875 12.16875-12.16875 6.720625 0 12.16875 5.448125 12.16875 12.16875s-5.448125 12.16875-12.16875 12.16875-12.16875-5.448125-12.16875-12.16875m-2.59375 0c.006875 8.15 6.6125 14.755625 14.7625 14.7625 8.153125 0 14.7625-6.609375 14.7625-14.7625s-6.609375-14.7625-14.7625-14.7625c-2.1275 0-4.1475.453125-5.975 1.26375v-4.795c0-2.29375 2.75-4.225 6.00625-4.225 1.679375-.038125 3.31875.51 4.6375 1.55l1.6875-1.975c-1.786875-1.44625-4.025625-2.21875-6.325-2.18125-4.74375 0-8.60625 3.05625-8.60625 6.81875l.005625 6.289375c-3.7475 2.6775-6.193125 7.06-6.193125 12.016875"/><path d="m14.7625 22.344875c1.539375 0 2.7875 1.248125 2.7875 2.7875 0 1.0675-.606875 1.98375-1.4875 2.451875v5.304375h-2.59375v-5.300625c-.884375-.4675-1.49375-1.385625-1.49375-2.455625 0-1.539375 1.248125-2.7875 2.7875-2.7875"/><path d="m14.7625 22.344875c1.539375 0 2.7875 1.248125 2.7875 2.7875 0 1.0675-.606875 1.98375-1.4875 2.451875v5.304375h-2.59375v-5.300625c-.884375-.4675-1.49375-1.385625-1.49375-2.455625 0-1.539375 1.248125-2.7875 2.7875-2.7875"/></g></svg>