<svg height="50" viewBox="0 0 50 50" width="50" xmlns="http://www.w3.org/2000/svg"><g fill="#fff" fill-rule="evenodd" transform="translate(13 4)"><path d="m2.0749 20.101c.0055-5.3745 4.361-9.7295 9.735-9.735 5.3765 0 9.735 4.3585 9.735 9.735s-4.3585 9.735-9.735 9.735-9.735-4.3585-9.735-9.735m-2.075 0c.0055 6.52 5.29 11.8045 11.81 11.81 6.5225 0 11.81-5.2875 11.81-11.81s-5.2875-11.81-11.81-11.81c-1.702 0-3.318.3625-4.78 1.011v-3.836c0-1.835 2.2-3.38 4.805-3.38 1.3435-.0305 2.655.408 3.71 1.24l1.35-1.58c-1.4295-1.157-3.2205-1.775-5.06-1.745-3.795 0-6.885 2.445-6.885 5.455l.0045 5.0315c-2.998 2.142-4.9545 5.648-4.9545 9.6135"/><path d="m11.81 17.8759c1.2315 0 2.23.9985 2.23 2.23 0 .854-.4855 1.587-1.19 1.9615v4.2435h-2.075v-4.2405c-.7075-.374-1.195-1.1085-1.195-1.9645 0-1.2315.9985-2.23 2.23-2.23"/><circle cx="3" cy="40" r="2"/><circle cx="9" cy="40" r="2"/><circle cx="15" cy="40" r="2"/><circle cx="21" cy="40" r="2"/></g></svg>