<svg enable-background="new 0 0 50 50" height="50" viewBox="0 0 50 50" width="50" xmlns="http://www.w3.org/2000/svg"><g><g fill="#fff"><path d="m0 10.329v2.329h2.185v5.668h3.052v-5.668h2.185v-2.329zm9.875 0-3.093 7.997h3.088l1.681-4.838 1.689 4.838h3.08l-3.086-7.997zm5.811 0v2.329h2.178v5.668h3.047v-5.668h2.191v-2.329zm9.874 0-3.104 7.997h3.1l1.675-4.838 1.691 4.838h3.086l-3.086-7.997z"/><path d="m0 30.347c0-5.414 2.792-8.021 7.659-8.021 2.965 0 4.901 1.099 5.903 2.466.195.273.269.507.269.757 0 .659-.586 1.206-1.32 1.206-.343 0-.687-.131-1.006-.459-1.001-1.021-2.058-1.594-3.846-1.594-3.252 0-4.718 1.878-4.718 5.645 0 3.991 1.466 5.615 4.718 5.615 1.812 0 2.794-.391 3.97-1.514.393-.363.709-.495 1.053-.495.733 0 1.319.544 1.319 1.228 0 .273-.098.495-.244.684-1.172 1.465-3.476 2.466-6.099 2.466-4.866-.001-7.658-2.399-7.658-7.984"/><path d="m23.392 35.229c.75 0 1.278.537 1.278 1.221 0 .691-.528 1.221-1.278 1.221h-6.754c-.757 0-1.302-.541-1.302-1.27v-12.765c0-.724.594-1.31 1.327-1.31.729 0 1.318.586 1.318 1.31v11.593z"/><path d="m30.671 36.33c0 .737-.752 1.341-1.672 1.341-.915 0-1.667-.604-1.667-1.341v-8.669c0-.732.752-1.329 1.667-1.329.92 0 1.672.597 1.672 1.329z"/><path d="m48.615 39.671c-.358 0-.707-.145-.973-.408l-1.863-1.87-.54.327c-.115.082-.234.146-.338.195l-.044.026c-.204.114-.421.215-.644.303-.634.257-1.294.452-1.972.554-.419.07-.831.098-1.251.098-.684 0-1.367-.079-2.063-.248-1.042-.275-2.007-.732-2.879-1.367-.879-.643-1.602-1.434-2.165-2.344-.149-.244-.28-.488-.412-.732-.323-.685-.549-1.416-.685-2.193l-.005-.068c-.01-.033-.017-.069-.022-.087l-.021-.142c-.049-.375-.068-.735-.068-1.093 0-.519.052-1.046.149-1.556.032-.184.065-.33.11-.477.259-1.025.736-2.002 1.391-2.869.664-.879 1.45-1.605 2.373-2.158.354-.227.733-.426 1.14-.591.618-.253 1.276-.444 1.965-.547.411-.065.815-.097 1.236-.097.707 0 1.421.098 2.104.278l.025.008c.078.024.17.044.248.072l.021.008c1.708.537 3.226 1.643 4.283 3.125.121.182.232.347.319.508.426.701.752 1.461.955 2.245.072.312.144.653.184.998.117 1.054.055 2.084-.176 3.07-.195.778-.515 1.532-.943 2.253l-.326.541 1.857 1.875c.551.555.551 1.402 0 1.955-.244.263-.589.408-.97.408m-7.56-15.074c-.305 0-.601.024-.896.073-.517.075-1.017.22-1.473.415-.282.12-.568.255-.819.412l-.012.005c-.7.447-1.258.963-1.708 1.573-.478.631-.819 1.324-1.015 2.1-.209.777-.251 1.572-.132 2.338.132.814.39 1.537.815 2.206.395.668.94 1.257 1.564 1.706 1.071.781 2.306 1.199 3.611 1.199.293 0 .597-.027.904-.076.48-.062.951-.195 1.397-.391 1.018-.412 1.882-1.111 2.529-2.002.442-.593.777-1.302.975-2.082.188-.799.223-1.58.106-2.361-.248-1.595-1.078-2.986-2.327-3.933-1.014-.767-2.228-1.182-3.519-1.182"/></g><path d="m30.249 23.192c.561.566.561 1.479 0 2.043-.571.569-1.483.569-2.051 0l-1.769-1.77c-.575-.564-.575-1.481 0-2.043.556-.566 1.476-.566 2.043 0z" fill="#ee2849"/></g></svg>