<svg enable-background="new 0 0 128 128" height="128" viewBox="0 0 128 128" width="128" xmlns="http://www.w3.org/2000/svg"><path d="m104.724 40.342c-2.807 1.245-5.822 2.087-8.989 2.465 3.231-1.937 5.713-5.004 6.881-8.658-3.024 1.793-6.373 3.096-9.938 3.797-2.855-3.042-6.922-4.942-11.423-4.942-8.644 0-15.651 7.007-15.651 15.65 0 1.227.138 2.42.405 3.566-13.006-.652-24.538-6.883-32.257-16.352-1.347 2.312-2.119 5-2.119 7.868 0 5.43 2.763 10.22 6.962 13.026-2.565-.081-4.979-.785-7.089-1.957-.001.064-.001.13-.001.196 0 7.583 5.395 13.909 12.554 15.346-1.313.357-2.696.549-4.123.549-1.008 0-1.989-.098-2.944-.281 1.991 6.218 7.771 10.742 14.62 10.869-5.356 4.197-12.104 6.699-19.437 6.699-1.264 0-2.509-.073-3.733-.219 6.926 4.44 15.152 7.031 23.99 7.031 28.787 0 44.528-23.848 44.528-44.528 0-.679-.015-1.354-.045-2.024 3.058-2.206 5.711-4.962 7.809-8.101z" fill="#48c0eb"/></svg>