<svg height="37" viewBox="0 0 37 37" width="37" xmlns="http://www.w3.org/2000/svg"><g fill="#ff1744" fill-rule="evenodd"><path d="m18.2706944 33.4843056c-8.38902773 0-15.21513884-6.8261112-15.21513884-15.2151389 0-8.38902781 6.82611111-15.21361114 15.21513884-15.21361114 8.3890278 0 15.2151389 6.82458333 15.2151389 15.21361114 0 8.3890277-6.8261111 15.2151389-15.2151389 15.2151389m0-33.4843056c-10.07416662 0-18.2706944 8.195-18.2706944 18.2691667 0 10.0741666 8.19652778 18.2706944 18.2706944 18.2706944 10.0741667 0 18.2706945-8.1965278 18.2706945-18.2706944 0-10.0741667-8.1965278-18.2691667-18.2706945-18.2691667"/><path d="m22.6182917 16.9338889c1.3704166 0 2.4826389-1.1122222 2.4826389-2.4826389s-1.1122223-2.4826389-2.4826389-2.4826389c-1.3704167 0-2.4826389 1.1122222-2.4826389 2.4826389s1.1122222 2.4826389 2.4826389 2.4826389"/><path d="m13.9230972 16.9338889c1.3704167 0 2.4826389-1.1122222 2.4826389-2.4826389s-1.1122222-2.4826389-2.4826389-2.4826389c-1.3704166 0-2.4826389 1.1122222-2.4826389 2.4826389s1.1122223 2.4826389 2.4826389 2.4826389"/><path d="m23.5760556 20.9472083c-1.3108334 1.5858334-3.2434723 2.4963889-5.2998612 2.4963889-2.0609722 0-3.9966666-.9151389-5.3075-2.5101389-.5377777-.6508333-1.49875-.7455555-2.1526388-.2093055-.6493056.5377778-.7440278 1.5002778-.2077778 2.1526389 1.8959722 2.3023611 4.6902778 3.6223611 7.6679166 3.6223611 2.9715278 0 5.76125-1.3154167 7.6541667-3.6070834.5393056-.6493055.4461111-1.6118055-.2047222-2.1495833-.6538889-.5393055-1.6133333-.4461111-2.1495833.2047222"/></g></svg>