<svg height="23" viewBox="0 0 34 23" width="34" xmlns="http://www.w3.org/2000/svg"><g fill="none" fill-rule="evenodd" transform="translate(1 1)"><g stroke="#020303" stroke-width="1.4"><path d="m26 18h.9478673c1.12891 0 2.0521327-.9232227 2.0521327-2.0521327v-.9478673" stroke-linecap="round"/><path d="m5 2h-.94816688c-1.12831858 0-2.05183312.92322275-2.05183312 2.0521327v.9478673" stroke-linecap="round"/><path d="m26 2h.9478673c1.12891 0 2.0521327.92322275 2.0521327 2.0521327v.9478673" stroke-linecap="round"/><path d="m5 18h-.94816688c-1.12831858 0-2.05183312-.9232227-2.05183312-2.0521327v-.9478673" stroke-linecap="round"/><path d="m29.8221845 21h-27.6433626c-1.19759726 0-2.1788219-.9733974-2.1788219-2.1636606v-16.67267881c0-1.19026317.98122464-2.16366059 2.1788219-2.16366059h27.6433626c1.1975972 0 2.1778155.97339742 2.1778155 2.16366059v16.67267881c0 1.1902632-.9802183 2.1636606-2.1778155 2.1636606z"/></g><path d="m15.5833812 7.41849437c-.2561711-.71230982-.9473307-1.21122308-1.7399541-1.21122308h-1.8434271v-1.20727129h7v1.20727129h-2.7023536c.2200057.28749259.3857635.61153922.4892365.95830863.0442021.14720411.1717853.25291445.3274971.25291445h1.88562v1.20727129h-1.8846154c-.1557118 0-.2842996.10669828-.3285017.25390239-.3797359 1.26062045-1.5641504 2.16459195-2.9434558 2.16459195h-.2923364l2.5416188 3.2137918-.9694317.7419482-3.0499426-3.8559573c-.0472158-.0612527-.0733352-.1343608-.0733352-.2104327v-1.09662126h1.8434271c.7926234 0 1.483783-.49891326 1.7399541-1.21122308h-3.5833812v-1.20727129z" fill="#231f20"/></g></svg>