<svg height="23" viewBox="0 0 34 23" width="34" xmlns="http://www.w3.org/2000/svg"><g fill="none" fill-rule="evenodd"><path d="m10.0895 10.8205v-.026c0-.512-.128-.922-.384-1.23s-.604-.462-1.048-.462c-.442 0-.789.154-1.041.462-.251.308-.377.718-.377 1.23v.026zm-3.729 3.279c-.567-.555-.869-1.344-.904-2.368l-.013-.326c0-1.084.285-1.939.853-2.563.568-.625 1.355-.937 2.361-.937 1.034 0 1.829.312 2.389.937.56.624.839 1.457.839 2.499v.272c0 .087-.03.161-.091.222-.06.061-.139.091-.234.091h-4.321v.104c.018.486.15.887.397 1.204.248.316.588.475 1.021.475.495 0 .899-.2 1.211-.599.078-.095.139-.154.182-.175.044-.022.117-.033.222-.033h1.144c.078 0 .146.022.202.065.057.043.085.104.085.182 0 .209-.124.454-.371.735-.247.283-.6.527-1.06.736-.46.208-.995.312-1.601.312-.972 0-1.742-.278-2.311-.833z" fill="#231f20"/><g stroke="#020303" stroke-width="1.4"><path d="m32.4967 14.8025h-6.507c-1.19 0-2.165-.974-2.165-2.165v-2.863c0-1.19.975-2.164 2.165-2.164h6.507"/><path d="m30.3327 21.7126h-27.468c-1.19 0-2.165-.974-2.165-2.165v-16.683c0-1.191.975-2.165 2.165-2.165h27.468c1.19 0 2.164.974 2.164 2.165v16.683c0 1.191-.974 2.165-2.164 2.165z"/><path d="m28.1608 11.2063c0-.597-.483-1.082-1.081-1.082s-1.081.485-1.081 1.082.483 1.082 1.081 1.082 1.081-.485 1.081-1.082z"/></g><path d="m14.2672 11.824h8.665c.493 0 .893-.33.893-.736s-.399-.736-.893-.736h-8.665c-.493 0-.893.33-.893.736s.4.736.893.736" fill="#020303"/><path d="m.987 11.824h2.134c.402 0 .727-.33.727-.736s-.325-.736-.727-.736h-2.134c-.401 0-.727.33-.727.736s.326.736.727.736" fill="#020303"/></g></svg>