<svg xmlns="http://www.w3.org/2000/svg" width="32" height="32" viewBox="0 0 32 32">
    <g fill="none" fill-rule="evenodd">
        <path fill="#FFF" d="M0 0h32v32H0z" fill-opacity="0"/>
        <g fill-rule="nonzero">
            <g stroke="#4A4A4A" stroke-linejoin="round" stroke-width=".722">
                <path d="M23.06 19.07v-8.138l-7.227 2.41v9.637l5.806-1.935a2.08 2.08 0 0 0 1.422-1.973z"/>
                <path fill="#FFF" d="M24.543 13.393l-1.453-2.46-7.11 2.409 1.562 2.648a.52.52 0 0 0 .615.228l6.105-2.068a.52.52 0 0 0 .28-.757z"/>
                <path d="M8.604 19.07v-8.138l7.229 2.41v9.637l-5.806-1.935a2.08 2.08 0 0 1-1.423-1.973z"/>
                <path fill="#FFF" d="M7.123 13.393l1.452-2.46 7.111 2.409-1.563 2.648a.52.52 0 0 1-.614.228L7.404 14.15a.52.52 0 0 1-.281-.757z"/>
                <path d="M8.604 10.932l5.913-1.97a4.16 4.16 0 0 1 2.631 0l5.913 1.97-7.228 2.41-7.229-2.41z"/>
            </g>
            <path fill="#4A4A4A" d="M3.722 16.611l.11.065 1.853 1.388a.578.578 0 0 1-.592.986l-.1-.06-.484-.362c1.37 5.059 6.043 8.706 11.497 8.706 5.526 0 10.287-3.751 11.567-8.983a.578.578 0 1 1 1.123.275c-1.406 5.748-6.63 9.864-12.69 9.864-6.088 0-11.293-4.147-12.69-9.862l-.455.815a.578.578 0 0 1-1.056-.457l.046-.107 1.13-2.022a.578.578 0 0 1 .74-.246zM16.006 2.667c6.137 0 11.37 4.213 12.72 9.988l.413-.74a.578.578 0 0 1 1.056.457l-.046.107-1.13 2.022a.578.578 0 0 1-.74.245l-.11-.065-1.854-1.387a.578.578 0 0 1 .592-.986l.1.06.562.42c-1.277-5.19-6.013-8.965-11.563-8.965-5.563 0-10.346 3.8-11.59 9.078a.578.578 0 1 1-1.126-.265c1.367-5.8 6.616-9.97 12.716-9.97z"/>
        </g>
    </g>
</svg>
