<svg xmlns="http://www.w3.org/2000/svg" xmlns:xlink="http://www.w3.org/1999/xlink" width="154" height="100" viewBox="0 0 154 100">
    <defs>
        <path id="prefix__a" d="M0 0.15L153.553 0.15 153.553 99.232 0 99.232z"/>
    </defs>
    <g fill="none" fill-rule="evenodd">
        <g transform="translate(0 .667)">
            <mask id="prefix__b" fill="#fff">
                <use xlink:href="#prefix__a"/>
            </mask>
            <path fill="#FFF8FC" d="M10.785 21.376C.1 32.438-16.351 64.666 39.813 91.626c56.932 23.173 102.93-11.017 112.035-43.362 5.124-18.203-1.265-37.052-19.638-44.279-16.934-6.66-36.857-3.502-53.92.855-6.564 1.676-13.036 3.704-19.423 5.963-5.16 1.825-11.018 5.874-16.304 6.684-5.35.82-11.504-2.012-16.949-2.099-5.753-.091-10.822 1.768-14.829 5.988" mask="url(#prefix__b)"/>
        </g>
        <path fill="#A5A8B0" d="M94.58 28c2.218-.035 3.48 1.067 4.288 2.815.69 1.49 2.047 3.11 1.807 4.44-.162.896-2.65 1.279-3.983 2.082-2.148 1.296-4.55 2.007-6.765 3.128-3.849 1.945-5.013 5.447-3.003 9.3 1.176 2.256 1.494 4.972 4.43 6.26 2.026.889 3.719.89 5.522.08 3.326-1.49 6.614-3.07 9.875-4.698 1.043-.522 1.8-.868 2.127.656.067.314.26.61.435.89 3.364 5.336 1.434 7.692-3.465 9.786-5.103 2.182-10.07 4.683-15.094 7.048-6.072 2.857-12.134 5.736-18.218 8.57-2.88 1.34-4.963.604-6.387-2.38-3.888-8.145-7.727-16.314-11.53-24.5-1.249-2.689-.621-4.676 1.994-5.915 12.134-5.748 24.31-11.405 36.446-17.148.584-.277 1.148-.238 1.522-.413"/>
        <path fill="#8C8B8B" d="M84 30.242c-5.948 2.883-11.454 5.548-16.957 8.22-3.025 1.47-6.04 2.96-9.07 4.42-1.145.551-5.99-.944-6.67-2.08-.285-.476-.432-.912-.156-1.648 1.9-5.082 3.636-10.228 5.455-15.342.394-1.108 1.048-2.147 2.41-1.71C67.197 24.731 75.36 27.42 84 30.242"/>
        <path fill="#827F7F" d="M95.213 49.954c1.66-.104 2.617-1.178 2.633-2.686.016-1.642-1.306-2.334-2.764-2.31-1.329.022-2.286 1.056-2.234 2.268.056 1.324.539 2.814 2.365 2.728m12.633-4.778c-.061 3.025-1.428 4.114-3.01 4.939-2.836 1.477-5.706 2.882-8.577 4.28-2.505 1.219-4.755.432-6.047-2.136-.76-1.514-1.53-3.043-2.086-4.646-.744-2.14.05-4.373 1.713-5.148 3.563-1.66 6.887-3.848 10.599-5.188 1.987-.717 3.483-.235 4.471 1.5 1.28 2.248 2.666 4.504 2.937 6.399"/>
        <path fill="#4D4D4D" d="M80 27l-19-5.793c1.96-1.699 3.657-2.892 4.979-4.418.8-.923 1.648-.976 2.228-.47C72.031 19.665 75.754 23.129 80 27"/>
    </g>
</svg>
