<svg xmlns="http://www.w3.org/2000/svg" xmlns:xlink="http://www.w3.org/1999/xlink" width="154" height="104" viewBox="0 0 154 104">
    <defs>
        <path id="ro2skyjl5a" d="M72.859 10.07c-17.464 6.053-33.646 12.11-45.111 8.407C14.747 14.28 4.16 23.525.98 37.005.348 39.68.009 42.52 0 45.458v.235c.04 13.22 6.78 28.32 23.759 38.763C121.1 144.329 177.727 40.043 143.3 10.506 134.773 3.194 125.053.53 114.84.53c-13.67 0-28.223 4.77-41.981 9.54"/>
        <path id="n9nu86v7kc" d="M72.859 10.07c-17.464 6.053-33.646 12.11-45.111 8.407C14.747 14.28 4.16 23.525.98 37.005.348 39.68.009 42.52 0 45.458v.235c.04 13.22 6.78 28.32 23.759 38.763C121.1 144.329 177.727 40.043 143.3 10.506 134.773 3.194 125.053.53 114.84.53c-13.67 0-28.223 4.77-41.981 9.54"/>
        <path id="9w8zyoynce" d="M72.859 10.07c-17.464 6.053-33.646 12.11-45.111 8.407C14.747 14.28 4.16 23.525.98 37.005.348 39.68.009 42.52 0 45.458v.235c.04 13.22 6.78 28.32 23.759 38.763C121.1 144.329 177.727 40.043 143.3 10.506 134.773 3.194 125.053.53 114.84.53c-13.67 0-28.223 4.77-41.981 9.54"/>
        <path id="b7crojg7ng" d="M72.859 10.07c-17.464 6.053-33.646 12.11-45.111 8.407C14.747 14.28 4.16 23.525.98 37.005.348 39.68.009 42.52 0 45.458v.235c.04 13.22 6.78 28.32 23.759 38.763C121.1 144.329 177.727 40.043 143.3 10.506 134.773 3.194 125.053.53 114.84.53c-13.67 0-28.223 4.77-41.981 9.54"/>
        <path id="fbvvkykv1i" d="M72.859 10.07c-17.464 6.053-33.646 12.11-45.111 8.407C14.747 14.28 4.16 23.525.98 37.005.348 39.68.009 42.52 0 45.458v.235c.04 13.22 6.78 28.32 23.759 38.763C121.1 144.329 177.727 40.043 143.3 10.506 134.773 3.194 125.053.53 114.84.53c-13.67 0-28.223 4.77-41.981 9.54"/>
        <path id="fx6oww6o7k" d="M72.859 10.07c-17.464 6.053-33.646 12.11-45.111 8.407C14.747 14.28 4.16 23.525.98 37.005.348 39.68.009 42.52 0 45.458v.235c.04 13.22 6.78 28.32 23.759 38.763C121.1 144.329 177.727 40.043 143.3 10.506 134.773 3.194 125.053.53 114.84.53c-13.67 0-28.223 4.77-41.981 9.54"/>
        <path id="3p9oeqrjim" d="M72.859 10.07c-17.464 6.053-33.646 12.11-45.111 8.407C14.747 14.28 4.16 23.525.98 37.005.348 39.68.009 42.52 0 45.458v.235c.04 13.22 6.78 28.32 23.759 38.763C121.1 144.329 177.727 40.043 143.3 10.506 134.773 3.194 125.053.53 114.84.53c-13.67 0-28.223 4.77-41.981 9.54"/>
        <path id="nj5c7yisjo" d="M72.859 10.07c-17.464 6.053-33.646 12.11-45.111 8.407C14.747 14.28 4.16 23.525.98 37.005.348 39.68.009 42.52 0 45.458v.235c.04 13.22 6.78 28.32 23.759 38.763C121.1 144.329 177.727 40.043 143.3 10.506 134.773 3.194 125.053.53 114.84.53c-13.67 0-28.223 4.77-41.981 9.54"/>
    </defs>
    <g fill="none" fill-rule="evenodd">
        <g>
            <g>
                <g>
                    <g fill="#FFF8FB" fill-rule="nonzero">
                        <path d="M143.3 10.24c-34.427-29.533-88.305 16.767-115.552 7.97C14.747 14.012 4.16 23.257.98 36.737-2.504 51.506 2.902 71.36 23.76 84.188c97.342 59.873 153.968-44.413 119.54-73.947" transform="translate(-606 -275) translate(364 242) translate(242 33) translate(0 .667)"/>
                        <path d="M143.3 10.24c-34.427-29.533-88.305 16.767-115.552 7.97C14.747 14.012 4.16 23.257.98 36.737-2.504 51.506 2.902 71.36 23.76 84.188c97.342 59.873 153.968-44.413 119.54-73.947" transform="translate(-606 -275) translate(364 242) translate(242 33) translate(0 .667)"/>
                    </g>
                    <g>
                        <g transform="translate(-606 -275) translate(364 242) translate(242 33) translate(0 .4)">
                            <mask id="b8n3mf5feb" fill="#fff">
                                <use xlink:href="#ro2skyjl5a"/>
                            </mask>
                            <path fill="#B8B8B8" fill-rule="nonzero" d="M98.387 168.159c-.62-10.54-1.16-21.091-1.94-31.622-.874-11.768-2.187-23.525-4.78-35.052-.276-1.225-2.36-1.368-2.645-.106-.387-.265-.88-.426-1.443-.44-2.324-.06-4.99 2.07-6.868 3.223-2.253 1.383-4.4 2.922-6.47 4.562-1.715-.851-4.43-2.119-6.01-.752-.371.32-.594.712-.734 1.137-.754-.074-1.611.434-1.63 1.349v.119c-.545-1.351-2.869-1.244-2.666.382 1.554 12.44 3.11 24.884 5.056 37.27.974 6.191 2.044 12.367 3.262 18.515.598 3.01 1.23 6.014 1.903 9.01.25 1.116.267 2.385 1.219 3.13.77.603 1.708.772 2.663.64 5.327-.735 4.098-7.338 3.778-11.037-.56-6.472-.57-12.926-.449-19.418l.355-18.589.073-3.839c1.048 3.772 1.944 7.586 2.85 11.394 2.474 10.412 4.806 20.858 6.991 31.334.605 2.9.758 10.006 5.226 9.699 1.516-.104 2.472-1.304 2.651-2.743.324-2.605-.237-5.549-.392-8.166" mask="url(#b8n3mf5feb)"/>
                        </g>
                        <g transform="translate(-606 -275) translate(364 242) translate(242 33) translate(0 .4)">
                            <mask id="zro18ik2qd" fill="#fff">
                                <use xlink:href="#n9nu86v7kc"/>
                            </mask>
                            <path fill="#CC997D" fill-rule="nonzero" d="M103.745 75.106c-.127-.736-.275-1.465-.454-2.187-.196-.878-.416-1.751-.668-2.614-.36-1.228-.912-2.41-2.386-2.206-.398.054-.841.215-1.287.453-.195.007-.371.1-.465.275-.436.284-.861.634-1.238 1.026-.24.04-.442.226-.46.532-.514.664-.864 1.4-.903 2.114-.213.13-.36.377-.275.684C96.877 77.72 98 82.33 99.451 86.812c.16.492.346 1.337.651 2.084.42 4.174.277 8.431.7 12.61.335 3.304.82 6.587 1.431 9.848-.55 1.647-2.093 2.956-2.76 4.56-.409.98-1.239 3.033-.776 4.055.412.914 1.057.778 1.706.254-.106.477-.156.958.09 1.409.615 1.14 2.57 1.312 3.663.927 1.54-.544 1.641-2.494 1.739-3.887.155-2.195-.245-4.35-.888-6.437 1.142-4.613 2.249-11.098 2.418-15.826.154-4.307-3.1-19.546-3.68-21.303" mask="url(#zro18ik2qd)"/>
                        </g>
                        <g transform="translate(-606 -275) translate(364 242) translate(242 33) translate(0 .4)">
                            <mask id="ei0gtcv7ff" fill="#fff">
                                <use xlink:href="#9w8zyoynce"/>
                            </mask>
                            <path fill="#CC997D" fill-rule="nonzero" d="M83.712 27.883c-.638-.636-1.293-.966-1.953-1.082-.993-.396-2.038-.52-3.101.026-.706.363-1.234.991-1.816 1.509-.577.515-2.114 1.2-2.335 1.289-5.347 2.156-11.026 3.027-16.662 4.083-3.3.62-7.935.67-10.808 2.95-.656.52-1.066 1.773-1 2.747-.046.108-.05.239.012.388 3.704 8.844 9.461 16.617 16.888 22.687.446.364 1.04-.031 1.04-.454.099-.073.178-.173.217-.302.637-2.14 1.127-4.311 1.424-6.527.098-.736.182-1.571-.323-2.013-.554-1.336-1.581-2.235-2.627-3.28-1.623-1.623-2.898-3.513-4.109-5.451-.338-.543-.691-1.186-1.07-1.86 1.514-.359 3.019-1 3.967-1.364 2.142-.821 11.777-5.893 12.167-6.218.008-.007.012-.014.019-.021l2.479-1.868c.222-.169.281-.417.236-.638l1.126-.853c.161-.124.234-.288.247-.455.505-.32 1.023-.622 1.555-.902l3.074-1.359c.155-.067.242-.186.276-.322.12.073.238.146.357.222.573.367 1.193-.46.72-.932" mask="url(#ei0gtcv7ff)"/>
                        </g>
                        <g transform="translate(-606 -275) translate(364 242) translate(242 33) translate(0 .4)">
                            <mask id="9am9lrq0ih" fill="#fff">
                                <use xlink:href="#b7crojg7ng"/>
                            </mask>
                            <path fill="#DDA783" fill-rule="nonzero" d="M89.04 33.653c-2.093-4.085-7.54-6.302-11.462-3.288-3.347 2.57-4.157 7.892-3.445 11.937.078 2.441.684 4.809 2.097 6.663.605.795 1.309 1.366 2.067 1.75-.291 1.53-.106 7.931.225 9.236.49 1.931 1.927-2.35 3.627-2.394.485.072.972.11 1.417.144 1.868.146 3.375 4.542 3.792 2.646.533-2.422.357-10.191.17-12.674 2.77-3.878 3.72-9.708 1.511-14.02" mask="url(#9am9lrq0ih)"/>
                        </g>
                        <g transform="translate(-606 -275) translate(364 242) translate(242 33) translate(0 .4)">
                            <mask id="a26vpfy8rj" fill="#fff">
                                <use xlink:href="#fbvvkykv1i"/>
                            </mask>
                            <path fill="#DDA783" fill-rule="nonzero" d="M87.745 56.571c-1.586-.186-7.622-.653-11.4-.617.754 3.145 3.794 5.07 7.122 4.912 2.887-.137 5.422-1.68 6.954-3.997-.9-.109-1.801-.196-2.676-.298" mask="url(#a26vpfy8rj)"/>
                        </g>
                        <g transform="translate(-606 -275) translate(364 242) translate(242 33) translate(0 .4)">
                            <mask id="e23b8hgazl" fill="#fff">
                                <use xlink:href="#fx6oww6o7k"/>
                            </mask>
                            <path fill="#CDE1F9" fill-rule="nonzero" d="M105.277 74.3l-3.314-7.144c-1.686-3.633-3.044-7.883-7.157-9.357-1.404-.504-2.922-.752-4.438-.936-1.533 2.3-4.06 3.834-6.935 3.969-3.316.158-6.346-1.753-7.112-4.877-1.22.012-2.204.076-2.72.222-1.47-.35-2.88-.936-4.162-1.746-1.609-1.018-2.78-2.589-4.415-3.555-3.59-2.12-4.549 3.343-5.563 5.628-.376.847-.792 1.679-1.281 2.466-.47.753-1.187 1.382-1.608 2.15-.835 1.521.047 2.727 1.23 3.667 2.507 1.992 5.286 3.59 8.205 4.888-.682 8.886-3.8 17.298-5.715 25.963-1.025 4.64-4.863 20.616 4.121 19.65 2.122-.228 4.16-1.186 6.253-1.616 2.36-.483 4.755-.76 7.133-1.145 4.206-.681 8.474-1.771 11.9-4.426 3.5-2.712 5.367-6.798 6.431-10.998 1.24-4.896 1.827-10.016 2.308-15.047.731-.09 1.46-.219 2.182-.393 1.673-.406 4.435-1.116 5.581-2.512 1.209-1.472-.274-3.45-.924-4.85" mask="url(#e23b8hgazl)"/>
                        </g>
                        <g transform="translate(-606 -275) translate(364 242) translate(242 33) translate(0 .4)">
                            <mask id="5hfvh8srrn" fill="#fff">
                                <use xlink:href="#3p9oeqrjim"/>
                            </mask>
                            <path fill="#2D304D" fill-rule="nonzero" d="M84.47 26.047c-2.446-.113-5.206.408-7.413 1.608-.182.072-2.925 1.852-2.916 2.292.044 2.274 3.008 3.02 4.96 3.372 1.435.258 2.848.188 4.296.174 1.387-.015 3.148.03 3.692 1.676.357 1.075-.463 1.696-.726 2.612-.262.913.165 1.14.536 1.946.941 2.049-.312 3.684-.948 5.586-.338 1.01-.9 4.27 1.272 3.792 1.992-.438 3.61-3.814 4.434-5.332 1.42-2.617 2.588-5.498 2.517-8.487-.127-5.351-4.143-8.98-9.703-9.239" mask="url(#5hfvh8srrn)"/>
                        </g>
                        <g transform="translate(-606 -275) translate(364 242) translate(242 33) translate(0 .4)">
                            <mask id="zzkva9wo6p" fill="#fff">
                                <use xlink:href="#nj5c7yisjo"/>
                            </mask>
                            <path fill="#0D1D38" fill-rule="nonzero" d="M94.633 57.648C87.614 67.79 76.767 74.814 64.706 77.201c-.487-.017-.983.076-1.464.269l-.029.004c.002.001.002.003.002.005-.063.027-.128.046-.19.074-.873.413-.206 1.582.609 1.447.425-.07.849-.146 1.271-.227.364.083.667.308.887.617-.204 1.093.072 2.445.309 3.35.375 1.437 1.22 2.72 2.677 3.226 1.756.609 3.845-.022 5.573-.456 1.83-.46 3.7-1.071 5.267-2.151 1.869-1.287 2.782-2.974 3.103-4.84 1.151-2.08.48-4.7-.172-6.824-.01-.036-.027-.067-.042-.1 5.26-3.456 9.868-7.91 13.492-13.148.58-.838-.79-1.63-1.367-.799" mask="url(#zzkva9wo6p)"/>
                        </g>
                    </g>
                </g>
            </g>
        </g>
    </g>
</svg>
