<svg height="50" viewBox="0 0 50 50" width="50" xmlns="http://www.w3.org/2000/svg"><g fill="#b2b2b2"><path d="m25 45.814c-11.478 0-20.82-9.337-20.82-20.815s9.342-20.819 20.82-20.819c11.479 0 20.815 9.341 20.815 20.819 0 11.479-9.336 20.815-20.815 20.815m0-45.814c-13.787 0-25 11.212-25 24.999 0 13.782 11.213 25 25 25 13.781 0 25-11.218 25-25 0-13.787-11.219-24.999-25-24.999"/><path d="m14.797 27.361c-.959 0-1.835.584-2.246 1.499-.411.918-.277 1.996.333 2.776 3.075 3.925 7.606 6.191 12.439 6.191 4.816 0 9.347-2.246 12.423-6.171.618-.767.736-1.857.334-2.764-.417-.916-1.279-1.502-2.243-1.502z"/><path d="m30.951 23.171c1.87 0 3.391-1.52 3.391-3.396s-1.521-3.396-3.391-3.396c-1.883 0-3.402 1.52-3.402 3.396s1.519 3.396 3.402 3.396"/><path d="m19.049 23.171c1.876 0 3.396-1.52 3.396-3.396s-1.52-3.396-3.396-3.396c-1.87 0-3.396 1.52-3.396 3.396s1.526 3.396 3.396 3.396"/></g></svg>