<svg height="20" viewBox="0 0 20 20" width="20" xmlns="http://www.w3.org/2000/svg"><g fill="#000" fill-rule="evenodd"><path d="m13 2.79350279c-.2082323.00451428-.4123628.02595163-.6111111.06301197v-2.23593638h-9.77777779v13.21925032l4.88858333 5.2562989 4.88919446-5.2562989v-3.3539083c.1987483.0370603.4028788.0584977.6111111.063012v3.5372659l-5.50030556 5.9138017-5.49969444-5.9138017v-14.0861983h11z" fill-rule="nonzero"/><path d="m13 10.8c-2.209139 0-4-1.79086105-4-4.00000005s1.790861-4 4-4 4 1.790861 4 4-1.790861 4.00000005-4 4.00000005zm0-.5c1.9329966 0 3.5-1.56700342 3.5-3.50000005 0-1.93299662-1.5670034-3.5-3.5-3.5s-3.5 1.56700338-3.5 3.5c0 1.93299663 1.5670034 3.50000005 3.5 3.50000005z" fill-rule="nonzero"/><path d="m13.2 6.8h1.8v.4h-1.8v1.8h-.4v-1.8h-1.8v-.4h1.8v-1.8h.4z"/></g></svg>