<svg xmlns="http://www.w3.org/2000/svg" width="20" height="20" viewBox="0 0 20 20">
    <g fill="none" fill-rule="evenodd">
        <g fill-rule="nonzero">
            <g>
                <g>
                    <g>
                        <path stroke="#00B081" stroke-width=".578" d="M17.993 8.85C17.821 3.952 13.92.095 9.001.001 4.032-.094.095 4.176 0 9c-.095 4.968 4.175 8.905 9 8.998 4.916.095 8.82-4.085 8.992-8.846.005-.049.008-.099.007-.152 0-.052-.002-.102-.007-.15z" transform="translate(-35 -316) translate(28 308) translate(8 9)"/>
                        <path fill="#00B081" d="M8.88 13.538c.046.054.096.08.15.08.093 0 .183-.04.27-.12.246-.2.536-.56.87-1.08l.28.16c-.814 1.413-1.677 2.12-2.59 2.12-.347 0-.623-.099-.83-.295-.206-.196-.31-.445-.31-.745 0-.2.047-.453.14-.76L7.98 9.05c.107-.367.16-.643.16-.83 0-.12-.052-.226-.155-.32-.103-.093-.241-.14-.414-.14-.087 0-.184.004-.29.01l.1-.32 2.729-.44h.48L8.94 12.73c-.087.327-.13.543-.13.65 0 .053.023.106.07.16zM10.93 5.327c-.234.23-.514.344-.84.344-.32 0-.595-.115-.825-.344-.23-.23-.345-.509-.345-.835 0-.326.113-.607.34-.84.226-.233.503-.35.83-.35.332 0 .614.117.844.35.23.233.345.513.345.84 0 .326-.117.604-.35.835z" transform="translate(-35 -316) translate(28 308) translate(8 9)"/>
                    </g>
                </g>
            </g>
        </g>
    </g>
</svg>
