<svg height="28" viewBox="0 0 21 28" width="21" xmlns="http://www.w3.org/2000/svg" xmlns:xlink="http://www.w3.org/1999/xlink"><mask id="a" fill="#fff"><path d="m.00213559.03099871h20.96408641v27.96683359h-20.96408641z" fill="#fff" fill-rule="evenodd"/></mask><g fill="none" fill-rule="evenodd"><path d="m9.15165664 13c-.37832148 0-.69649466 0-1.15165664 0 .07680528-.8335148.04387867-1.6718436.25358773-2.4522056.26855437-.99928152 1.42711327-1.64030376 2.45991717-1.5368863 1.2315609.12333735 2.1457938.92507995 2.2560891 2.0579244.0612752.6294687.0109873 1.2685322.0109873 1.9277811-.3420846 0-.6600113 0-1.0497074 0 0-.5016494-.0315532-1.0060543.0067966-1.5056785.0718399-.9360691-.7156519-1.4689263-1.3845376-1.4743379-.68888805-.0056107-1.48557118.535646-1.40813201 1.4970466.03824417.4746579.00665575.9542958.00665575 1.4863562" fill="#9b9b9b"/><path d="m7 13v5.2567283c0 .7998435 1.61620504 1.7432717 3.5 1.7432717 1.883795 0 3.5-.9434282 3.5-1.7432717v-5.2567283z" fill="#9b9b9b"/><path d="m10.787522 16.7471432c.2603644-.1184309.4424238-.3826064.4424238-.6909677 0-.4186632-.3343627-.7580955-.7468526-.7580955-.4124542 0-.74685252.3394323-.74685252.7580955 0 .3192361.19465932.591938.46983052.7036851l-.28310849 1.532702h1.09360169l-.2290068-1.5454194z" fill="#fff" mask="url(#a)"/><path d="m19.804922 17.40592c-.8978745 5.52944-8.0316101 8.7788852-9.3218288 9.3238916-1.29018303-.5450064-8.42391862-3.7944516-9.3217932-9.3238916v-11.27511226c1.69423729-.04075355 6.50341525-.47744516 9.2981593-3.96201806 2.7946729 3.48612645 7.6509407 3.92126451 9.3454627 3.96201806zm.5558238-12.45450839c-.0916526.00368516-6.5710424.21269162-9.385256-4.14732387l-.4910084-.77308903-.49378479.77308903c-2.81417797 4.36001549-9.2935678 4.15100903-9.38522034 4.14732387l-.60547627-.02630193v12.57452902l.00715424.0457394c1.0541644 6.7582606 9.88829491 10.2242993 10.26380336 10.3685264l.2188271.0860955.2054797-.0860955c.3755085-.1442271 9.209639-3.6102658 10.2638034-10.3685264l.0071542-.0457394v-12.57452902z" fill="#9b9b9b" mask="url(#a)"/></g></svg>