<?xml version="1.0" encoding="UTF-8"?>
<svg width="21px" height="28px" viewBox="0 0 21 28" version="1.1" xmlns="http://www.w3.org/2000/svg" xmlns:xlink="http://www.w3.org/1999/xlink">
    <!-- Generator: Sketch 48.2 (47327) - http://www.bohemiancoding.com/sketch -->
    <title>shutterstock_663176800</title>
    <desc>Created with Sketch.</desc>
    <defs>
        <polygon id="path-1" points="0.00213559322 0.0309987097 20.966222 0.0309987097 20.966222 27.9978323 0.00213559322 27.9978323"></polygon>
    </defs>
    <g id="01-My-Bag-without-pincode-Copy-10" stroke="none" stroke-width="1" fill="none" fill-rule="evenodd" transform="translate(-36.000000, -881.000000)">
        <g id="shutterstock_663176800" transform="translate(36.000000, 881.000000)">
            <path d="M9.15165664,13 C8.77333516,13 8.45516198,13 8,13 C8.07680528,12.1664852 8.04387867,11.3281564 8.25358773,10.5477944 C8.5221421,9.54851288 9.680701,8.90749064 10.7135049,9.0109081 C11.9450658,9.13424545 12.8592987,9.93598805 12.969594,11.0688325 C13.0308692,11.6983012 12.9805813,12.3373647 12.9805813,12.9966136 C12.6384967,12.9966136 12.32057,12.9966136 11.9308739,12.9966136 C11.9308739,12.4949642 11.8993207,11.9905593 11.9376705,11.4909351 C12.0095104,10.554866 11.2220186,10.0220088 10.5531329,10.0165972 C9.86424485,10.0109865 9.06756172,10.5522432 9.14500089,11.5136438 C9.18324506,11.9883017 9.15165664,12.4679396 9.15165664,13" id="Fill-1" fill="#9B9B9B"></path>
            <path d="M7,13 L7,18.2567283 C7,19.0565718 8.61620504,20 10.5,20 C12.383795,20 14,19.0565718 14,18.2567283 L14,13 L7,13" id="Fill-2" fill="#9B9B9B"></path>
            <g id="Group-6">
                <mask id="mask-2" fill="white">
                    <use xlink:href="#path-1"></use>
                </mask>
                <g id="Clip-4"></g>
                <path d="M10.787522,16.7471432 C11.0478864,16.6287123 11.2299458,16.3645368 11.2299458,16.0561755 C11.2299458,15.6375123 10.8955831,15.29808 10.4830932,15.29808 C10.070639,15.29808 9.73624068,15.6375123 9.73624068,16.0561755 C9.73624068,16.3754116 9.9309,16.6481135 10.2060712,16.7598606 L9.92296271,18.2925626 L11.0165644,18.2925626 L10.7875576,16.7471432 L10.787522,16.7471432" id="Fill-3" fill="#FFFFFF" mask="url(#mask-2)"></path>
                <path d="M19.804922,17.40592 C18.9070475,22.93536 11.7733119,26.1848052 10.4830932,26.7298116 C9.19291017,26.1848052 2.05917458,22.93536 1.1613,17.40592 L1.1613,6.13080774 C2.85553729,6.09005419 7.66471525,5.65336258 10.4594593,2.16878968 C13.2541322,5.65491613 18.1104,6.09005419 19.804922,6.13080774 L19.804922,17.40592 Z M20.3607458,4.95141161 C20.2690932,4.95509677 13.7897034,5.16410323 10.9754898,0.804087742 L10.4844814,0.0309987097 L9.99069661,0.804087742 C7.17651864,5.16410323 0.697128814,4.95509677 0.605476271,4.95141161 L0,4.92510968 L0,17.4996387 L0.00715423729,17.5453781 C1.06131864,24.3036387 9.89544915,27.7696774 10.2709576,27.9139045 L10.4897847,28 L10.6952644,27.9139045 C11.0707729,27.7696774 19.9049034,24.3036387 20.9590678,17.5453781 L20.966222,17.4996387 L20.966222,4.92510968 L20.3607458,4.95141161 Z" id="Fill-5" fill="#9B9B9B" mask="url(#mask-2)"></path>
            </g>
        </g>
    </g>
</svg>