<svg height="50" viewBox="0 0 50 50" width="50" xmlns="http://www.w3.org/2000/svg"><g fill="#b2b2b2"><path d="m24.999333 45.815c-11.478 0-20.82-9.338-20.82-20.816s9.342-20.819 20.82-20.819c11.479 0 20.816 9.341 20.816 20.819s-9.338 20.816-20.816 20.816m0-45.815c-13.788 0-24.999 11.212-24.999 24.999 0 13.782 11.211 25.001 24.999 25.001 13.781 0 25.001-11.219 25.001-25.001 0-13.787-11.22-24.999-25.001-24.999"/><path d="m16.428333 24.264c.852 0 1.704-.329 2.349-.974l3.53-3.521c1.297-1.303 1.297-3.407 0-4.704-1.303-1.297-3.405-1.297-4.704 0l-1.175 1.175-1.174-1.175c-1.307-1.297-3.409-1.297-4.704 0-1.296 1.297-1.296 3.401 0 4.704l3.529 3.521c.646.645 1.498.974 2.349.974"/><path d="m35.196333 14.77-1.213 1.206-1.218-1.206c-1.335-1.341-3.513-1.341-4.844 0-1.35 1.34-1.35 3.513 0 4.854l3.632 3.637c.673.667 1.549 1.004 2.43 1.004.879 0 1.755-.337 2.429-1.004l3.633-3.637c1.347-1.343 1.347-3.514 0-4.854-1.337-1.341-3.515-1.341-4.849 0"/><path d="m16.132333 29.981c-.816 0-1.553.473-1.896 1.203-.345.732-.239 1.589.282 2.217 2.591 3.155 6.413 4.962 10.488 4.962 4.06 0 7.889-1.801 10.479-4.933.51-.626.614-1.496.271-2.229-.346-.73-1.08-1.206-1.882-1.206z"/></g></svg>