<svg height="43" viewBox="0 0 66 43" width="66" xmlns="http://www.w3.org/2000/svg"><g fill="none" fill-rule="evenodd"><path d="m4 0h58c2.209139 0 4 1.790861 4 4v35c0 2.209139-1.790861 4-4 4h-58c-2.209139 0-4-1.790861-4-4v-35c0-2.209139 1.790861-4 4-4z" fill="#fff"/><g transform="translate(12.352941 10)"><path d="m26.9042695.18982727c-2.951514 0-5.6633867.95709091-7.8103423 2.55595455 2.9112353 2.16809091 4.7813173 5.51822727 4.7813173 9.28104548 0 3.7625-1.870082 7.1129545-4.7813173 9.2810454 2.1469556 1.5985455 4.8588283 2.5556364 7.8103423 2.5556364 6.9543356 0 12.5919981-5.2993182 12.5919981-11.8366818 0-6.53736366-5.6376625-11.83700003-12.5919981-11.83700003" fill="#f59f00"/><path d="m16.2680143 12.0267318c0-3.76281816 1.8697435-7.11295453 4.7813172-9.28104544-2.1466171-1.59854545-4.8588283-2.55595454-7.8103423-2.55595454-6.95433558 0-12.59199807 5.29963636-12.59199807 11.83699998 0 6.5373637 5.63766249 11.837 12.59199807 11.837 2.951514 0 5.6637252-.9574091 7.8103423-2.5559545-2.9115737-2.1680909-4.7813172-5.5182273-4.7813172-9.2810455" fill="#e30e17"/><path d="m15.4940484 12.0681818c0 4.0266613 1.8448993 7.6117041 4.7177855 9.9318182 2.8728862-2.3201141 4.7177855-5.9051569 4.7177855-9.9318182 0-4.02666123-1.8448993-7.61170403-4.7177855-9.93181816-2.8728862 2.32011413-4.7177855 5.90515693-4.7177855 9.93181816" fill="#ea600a"/></g></g></svg>