<svg enable-background="new 0 0 50 50" height="50" viewBox="0 0 50 50" width="50" xmlns="http://www.w3.org/2000/svg"><g><g fill="none" stroke="#040505" stroke-width="1.4"><path d="m46.294 41.186h-42.587c-1.772 0-3.207-1.436-3.207-3.207v-2.447h49v2.447c0 1.771-1.435 3.207-3.206 3.207z"/><path d="m3.107 36.307v-24.16c0-1.837 1.504-3.341 3.333-3.341h37.122c1.829 0 3.34 1.503 3.34 3.341v24.159"/><path d="m21.46 36.827h7.08" stroke-linecap="round"/></g><path d="m25.125 19.072c-.39-1.107-1.447-1.889-2.665-1.889h-2.826v-1.877h10.732v1.877h-4.14c.341.45.589.955.743 1.499.078.225.271.391.512.391h2.885v1.886h-2.884c-.241 0-.436.166-.514.399-.578 1.965-2.396 3.376-4.509 3.376h-.45l3.899 5.008-1.486 1.154-4.683-6.012c-.072-.096-.107-.203-.107-.322v-1.715h2.826c1.218 0 2.275-.774 2.665-1.889h-5.491v-1.886z" fill="#231f20"/></g></svg>