<?xml version="1.0" encoding="UTF-8"?>
<svg width="178px" height="140px" viewBox="0 0 178 140" version="1.1" xmlns="http://www.w3.org/2000/svg" xmlns:xlink="http://www.w3.org/1999/xlink">
    <!-- Generator: Sketch 51.3 (57544) - http://www.bohemiancoding.com/sketch -->
    <title>success (1)</title>
    <desc>Created with Sketch.</desc>
    <defs></defs>
    <g id="QuiQ-PiQ-Journey" stroke="none" stroke-width="1" fill="none" fill-rule="evenodd">
        <g id="success-(1)" transform="translate(1.000000, 1.000000)" stroke="#FF1744">
            <g id="Group" stroke-linecap="round" stroke-linejoin="round" transform="translate(49.000000, 38.000000)" stroke-width="6">
                <circle id="Oval" cx="45" cy="45" r="45"></circle>
                <polyline id="Path-11" points="22 48.6373412 37 64 68 30"></polyline>
            </g>
            <g id="Group-2" stroke-linecap="round" stroke-linejoin="round" transform="translate(139.000000, 27.000000)" stroke-width="2">
                <path d="M-8.8817842e-16,4.5 L10,4.5" id="Path-16"></path>
                <path d="M-0.5,4 L9.5,4" id="Path-16" transform="translate(4.500000, 5.000000) rotate(90.000000) translate(-4.500000, -5.000000) "></path>
            </g>
            <g id="Group-2-Copy" stroke-linecap="round" stroke-linejoin="round" transform="translate(33.000000, 16.000000)" stroke-width="2">
                <path d="M-8.8817842e-16,4.5 L10,4.5" id="Path-16"></path>
                <path d="M-0.5,4 L9.5,4" id="Path-16" transform="translate(4.500000, 5.000000) rotate(90.000000) translate(-4.500000, -5.000000) "></path>
            </g>
            <g id="Group-2-Copy-2" stroke-linecap="round" stroke-linejoin="round" transform="translate(11.000000, 64.000000)" stroke-width="2">
                <path d="M-8.8817842e-16,5.5 L10,5.5" id="Path-16"></path>
                <path d="M5,0.5 L5,10.5 L5,0.5 Z" id="Path-16"></path>
            </g>
            <g id="Group-2-Copy-3" stroke-linecap="round" stroke-linejoin="round" transform="translate(169.000000, 120.000000)" stroke-width="2">
                <path d="M-8.8817842e-16,4.5 L7,4.5" id="Path-16"></path>
                <path d="M-0.181818181,3 L6.18181818,3" id="Path-16" transform="translate(3.000000, 4.000000) rotate(90.000000) translate(-3.000000, -4.000000) "></path>
            </g>
            <g id="Group-2-Copy-4" stroke-linecap="round" stroke-linejoin="round" transform="translate(79.000000, 0.000000)" stroke-width="2">
                <path d="M-8.8817842e-16,4.5 L7,4.5" id="Path-16"></path>
                <path d="M-0.181818181,3 L6.18181818,3" id="Path-16" transform="translate(3.000000, 4.000000) rotate(90.000000) translate(-3.000000, -4.000000) "></path>
            </g>
            <g id="Group-2-Copy-5" stroke-linecap="round" stroke-linejoin="round" transform="translate(11.000000, 130.000000)" stroke-width="2">
                <path d="M-8.8817842e-16,4.5 L7,4.5" id="Path-16"></path>
                <path d="M-0.181818181,3 L6.18181818,3" id="Path-16" transform="translate(3.000000, 4.000000) rotate(90.000000) translate(-3.000000, -4.000000) "></path>
            </g>
            <circle id="Oval" cx="65.5" cy="17.5" r="2.5"></circle>
            <circle id="Oval-Copy" cx="24.5" cy="118.5" r="2.5"></circle>
            <circle id="Oval-Copy-3" cx="2.5" cy="92.5" r="2.5"></circle>
            <circle id="Oval-Copy-4" cx="154.5" cy="135.5" r="2.5"></circle>
            <circle id="Oval-Copy-5" cx="161.5" cy="95.5" r="2.5"></circle>
            <circle id="Oval-Copy-2" cx="166.5" cy="15.5" r="2.5"></circle>
        </g>
    </g>
</svg>