<svg xmlns="http://www.w3.org/2000/svg" width="34" height="23" viewBox="0 0 34 23">
    <g fill="none" fill-rule="evenodd">
        <path stroke="#020303" stroke-width="1.4" d="M30.417 21.713H2.78A2.08 2.08 0 0 1 .7 19.632v-1.59h31.797v1.59a2.08 2.08 0 0 1-2.08 2.08z"/>
        <path stroke="#020303" stroke-width="1.4" d="M2 18.848V3.165C2 1.974 2.974 1 4.165 1H28.25a2.17 2.17 0 0 1 2.164 2.165v15.683"/>
        <path fill="#030104" fill-rule="nonzero" d="M20.77 6.172c.173.324.258.726.258 1.208 0 1.096-.461 1.979-1.384 2.65-.922.672-2.211 1.007-3.867 1.007h-.388a.697.697 0 0 0-.648.508l-.466 1.984a.696.696 0 0 1-.648.51h-.847l-.076.324c-.066.281.119.51.41.51h1.358c.292 0 .584-.229.648-.51l.466-1.984a.697.697 0 0 1 .648-.508h.388c1.656 0 2.945-.335 3.868-1.006.922-.672 1.384-1.555 1.384-2.65 0-.483-.086-.885-.258-1.209a2.045 2.045 0 0 0-.746-.786c-.035-.02-.063-.029-.1-.048zm-7.34 6.523l.466-1.984a.697.697 0 0 1 .648-.509h.387c1.657 0 2.946-.335 3.868-1.006.922-.671 1.384-1.555 1.384-2.65 0-.482-.085-.884-.258-1.209a2.042 2.042 0 0 0-.746-.786 3.408 3.408 0 0 0-1.177-.428A9.073 9.073 0 0 0 16.405 4h-2.83a.697.697 0 0 0-.65.508l-1.912 8.187c-.065.28.12.51.41.51h1.359a.696.696 0 0 0 .648-.51zm1.11-4.75l.408-1.738a.698.698 0 0 1 .648-.508h.444c.519 0 .912.087 1.175.26.263.172.395.437.395.796 0 .544-.205.964-.613 1.258-.408.294-.976.442-1.71.442h-.336c-.291 0-.476-.23-.412-.51z"/>
        <path stroke="#020303" stroke-linecap="round" stroke-width="1.4" d="M14.302 18.884h4.594"/>
    </g>
</svg>
