<?xml version="1.0" encoding="UTF-8"?>
<svg width="1190px" height="669px" viewBox="0 0 1190 669" version="1.1" xmlns="http://www.w3.org/2000/svg" xmlns:xlink="http://www.w3.org/1999/xlink">
    <!-- Generator: Sketch 52.5 (67469) - http://www.bohemiancoding.com/sketch -->
    <title>Artboard</title>
    <desc>Created with Sketch.</desc>
    <defs>
        <linearGradient x1="0%" y1="0%" x2="98.0169802%" y2="98.0169802%" id="linearGradient-1">
            <stop stop-color="#FF878B" offset="0%"></stop>
            <stop stop-color="#9538AE" offset="100%"></stop>
        </linearGradient>
        <path d="M4,0.000436568092 L1186,0.000436568092 C1188.20914,0.000436568092 1190,1.79129757 1190,4.00043657 L1190,665.000437 C1190,667.209576 1188.20914,669.000437 1186,669.000437 L4,669.000437 C1.790861,669.000437 2.705415e-16,667.209576 0,665.000437 L0,4.00043657 C-2.705415e-16,1.79129757 1.790861,0.000436568092 4,0.000436568092 Z" id="path-2"></path>
    </defs>
    <g id="Artboard" stroke="none" stroke-width="1" fill="none" fill-rule="evenodd">
        <g id="Tick-Copy-2">
            <mask id="mask-3" fill="white">
                <use xlink:href="#path-2"></use>
            </mask>
            <use id="Mask" fill="url(#linearGradient-1)" xlink:href="#path-2"></use>
            <g opacity="0.143598414" mask="url(#mask-3)" fill="#FFFFFF" fill-rule="nonzero" id="Shape">
                <g transform="translate(560.000000, -3.000000)">
                    <path d="M342.5,692 C531.525316,692 685,536.956962 685,346 C685,155.043038 531.525316,0 342.5,0 C153.474684,0 0,155.043038 0,346 C0,536.956962 153.474684,692 342.5,692 Z M342.5,61.3164557 C497.708861,61.3164557 624.303797,189.205063 624.303797,346 C624.303797,502.794937 497.708861,630.683544 342.5,630.683544 C187.291139,630.683544 60.6962025,502.794937 60.6962025,346 C60.6962025,189.205063 187.291139,61.3164557 342.5,61.3164557 Z"></path>
                    <path d="M279.558374,439.011686 C285.756907,445.303506 293.72645,448 301.695994,448 C309.665537,448 316.749575,445.303506 322.948108,439.011686 L506.247598,261.941909 C518.644665,250.257101 519.53017,230.482812 507.133103,217.899173 C495.621541,205.315534 476.140435,204.416702 463.743369,217.000341 L301.695994,372.498166 L217.573039,287.109187 C205.175972,274.525548 185.694867,274.525548 173.2978,287.109187 C160.900733,299.692826 160.900733,319.467116 173.2978,332.050755 L279.558374,439.011686 Z"></path>
                </g>
            </g>
        </g>
    </g>
</svg>