<svg height="50" viewBox="0 0 50 50" width="50" xmlns="http://www.w3.org/2000/svg"><g fill="#ff1744"><path d="m25 45.814c-11.478 0-20.82-9.337-20.82-20.815s9.342-20.819 20.82-20.819c11.479 0 20.815 9.341 20.815 20.819 0 11.479-9.336 20.815-20.815 20.815m0-45.814c-13.787 0-25 11.212-25 24.999 0 13.782 11.213 25 25 25 13.781 0 25-11.218 25-25 0-13.787-11.219-24.999-25-24.999"/><path d="m30.951 23.171c1.87 0 3.391-1.52 3.391-3.396s-1.521-3.396-3.391-3.396c-1.883 0-3.402 1.52-3.402 3.396s1.519 3.396 3.402 3.396"/><path d="m19.049 23.171c1.876 0 3.396-1.52 3.396-3.396s-1.52-3.396-3.396-3.396c-1.87 0-3.396 1.52-3.396 3.396s1.526 3.396 3.396 3.396"/><path d="m24.994 27.883c-4.067 0-7.884 1.801-10.474 4.933-.735.888-.612 2.205.276 2.939.894.736 2.211.618 2.946-.269 1.792-2.178 4.433-3.417 7.251-3.417 2.824 0 5.469 1.243 7.268 3.431.408.496 1.002.765 1.614.765.462 0 .935-.164 1.325-.479.887-.732 1.02-2.05.288-2.938-2.592-3.159-6.425-4.965-10.494-4.965"/></g></svg>