<svg height="65" width="92" xmlns="http://www.w3.org/2000/svg"><g transform="matrix(.19583543 0 0 .19583543 5.08318928075 -48.56004351329)"><path d="m275.56283 471.4646c-.34823-.90748.47442-5.5684 1.82811-10.35761l2.46126-8.70766 5.90432-.5c8.9691-.75954 8.8339-.0377 6.58919-35.1803-1.03002-16.12584-1.68799-29.6572-1.46214-30.0697.22584-.4125 5.78407-.75 12.35161-.75h11.94098l.0291 16.25.0291 16.25 6.40288-12c3.52159-6.6 7.54742-13.9125 8.94629-16.25l2.54339-4.25h11.02462c8.71372 0 11.02462.28964 11.02462 1.38176 0 2.06311-40.3459 71.11401-44.54685 76.24072-5.77079 7.04249-9.99931 8.71804-23.19324 9.19037-9.75714.34929-11.32362.18469-11.87324-1.24758zm19.68472-1.57881c10.88959-2.06517 12.65959-4.33221 38.9963-49.94697 9.03777-15.65328 16.7637-29.28845 17.16872-30.30038.68516-1.71182.11328-1.82726-8.21671-1.65872l-8.95313.18115-2.95703 5.61923c-10.05874 19.11458-16.00386 29.584-16.9852 29.91112-.80464.26821-1.12434-4.73386-1.12434-17.59164v-17.96641l-10-.15713c-8.99484-.14134-10.00192.0228-10.0191 1.63308-.0105.98461.74113 14.22449 1.6703 29.42195 1.93597 31.66435 1.74898 33.10719-4.5162 34.84743-1.99925.55532-4.77839 1.01219-6.17588 1.01525-2.2782.005-2.71756.66866-4.25 6.41971-.94001 3.52778-1.70912 6.86978-1.70912 7.42668 0 2.13837 8.74297 2.7251 17.07139 1.14565zm44.90753-6.82494c-.0116-.36384 5.47956-20.57402 12.20256-44.91152 12.76848-46.22237 13.46694-47.95967 16.68149-41.4922.74963 1.50821 2.64995 5.6672 4.22294 9.2422s2.87216 5.65413 2.88704 4.62029c.0611-4.24872 4.40186-17.69326 5.62139-17.41124 1.6998.39309 23.6088 43.47256 23.21634 45.65009-.35326 1.96009-45.12148 44.46811-47.35498 44.96418-1.98061.43992-1.85647-2.35744.43073-9.70624l1.88643-6.06111-8.42458 7.66898c-7.56709 6.88839-11.30884 9.33583-11.36936 7.43657zm19.02108-18.37371c0-.4333.51404-.78781 1.14231-.78781.62826 0 4.79076-3.51942 9.25-7.82092 14.95605-14.42706 17.99928-17.17908 18.99686-17.17908.97154 0-19.91598 20.23064-23.54723 22.8067-1.01307.71869-1.84194 1.93905-1.84194 2.71191s-1.10322 4.87927-2.4516 9.12535l-2.45161 7.72015 9.20161-9.01586c14.12144-13.83638 28.85185-27.82958 32.41227-30.79012l3.21066-2.66972-10.00845-19.91472c-5.50465-10.9531-10.35322-20.1278-10.77461-20.38823s-1.74954 3.2759-2.95145 7.85852l-2.18529 8.33203 6.02474 11.612c3.31361 6.38659 5.62982 11.61199 5.14713 11.61199-.48268 0-3.65136-5.5125-7.0415-12.25s-8.12503-16.02421-10.52198-20.63713l-4.35809-8.38714-1.5651 4.88714c-.8608 2.68792-5.90506 20.59423-11.20947 39.79179-5.3044 19.19757-10.05729 35.99074-10.56198 37.31817-.63131 1.66046 1.73486-.0141 7.58355-5.36685 4.67565-4.2792 8.50117-8.13488 8.50117-8.56817zm-136.58481 4.85852c-6.97739-3.19118-9.46323-9.87175-7.07555-19.01517 3.43712-13.16218 10.60666-17.72651 33.08486-21.06272 7.12489-1.05747 10.47864-2.02714 11.88894-3.43744 5.301-5.301-3.77104-7.30216-9.66066-2.131-3.32878 2.92271-3.68521 3-13.8348 3-6.08571 0-10.86427-.44629-11.49118-1.0732-.76427-.76427-1.72324-.0214-3.33136 2.58058-3.12123 5.05026-10.92878 10.97651-17.22496 13.07446-3.10495 1.0346-9.98735 1.99489-16.75039 2.33717l-11.47991.58099-3.0884 11.05151c-1.69862 6.07833-3.42172 11.59083-3.82911 12.25-1.0078 1.63066-25.29217 1.68999-25.83446.0631-.20815-.62446 4.25671-17.83696 9.92192-38.25 5.6652-20.41305 10.76535-38.80213 11.33366-40.86463l1.0333-3.75h22.27995c17.42863 0 23.46264.34644 27.71146 1.59106 11.96232 3.50415 16.14839 13.17873 12.2922 28.40894-.59352 2.34416-.39074 2.27285 3.25316-1.14398 5.04756-4.73301 10.44785-7.37404 18.19463-8.89813 8.50613-1.67347 22.51185-.80064 28.23713 1.75973 10.60127 4.74094 11.02448 8.89072 3.6037 35.33604-3.01781 10.75452-5.41096 21.10452-5.31812 23l.1688 3.44636-11.83513.28247c-11.2528.26857-11.8618.18046-12.37732-1.79089-.29821-1.14035-.8224-1.91949-1.16487-1.73143-9.51204 5.2234-22.52855 7.21218-28.70749 4.38618zm23.58481-4.9068c7.89492-3.79834 8.26874-3.83718 8.95492-.93051.29979 1.26996.88258 2.28246 1.29508 2.25.4125-.0325 4.575-.059 9.25-.059h8.5v-2.73003c0-1.50152 2.53938-12.01438 5.64307-23.36191 3.5826-13.09853 5.41565-21.53795 5.02025-23.11335-.91732-3.65493-5.36211-7.62577-10.04719-8.97585-2.26387-.6524-8.61613-1.17208-14.11613-1.15488-11.05658.0346-18.9895 2.18377-25.00977 6.77565-3.83809 2.92746-7.91436 9.06507-7.0015 10.54211.34612.56003 4.39313 1.01824 8.99336 1.01824 7.96007 0 8.50897-.1449 11.36406-3 2.53422-2.53421 3.77717-3 8.0055-3 6.87218 0 9.50051 2.60495 7.11871 7.05539-1.61692 3.02124-5.89671 4.70542-15.02742 5.91358-17.18026 2.27327-24.3445 5.44735-28.57014 12.65786-3.53612 6.03395-4.42766 15.86228-1.73809 19.16073 4.82128 5.91275 16.22932 6.30961 27.36529.95197zm-6.8-9.93953c-1.95899-1.95899-1.37284-5.73531 1.27044-8.18502 3.26988-3.03043 17.51439-7.25756 18.59026-5.51676 1.54929 2.5068-3.09437 11.35071-7.02797 13.38485-3.50401 1.812-11.14886 2.0008-12.83273.31693zm13.34319-3.84057c1.29063-1.21249 2.80696-3.52512 3.36963-5.13918.89276-2.56098.80428-2.87129-.6949-2.43698-.94485.27373-3.68215 1.00575-6.08287 1.62671-2.40073.62096-5.47761 2.24167-6.83753 3.60159-2.08115 2.08115-2.2674 2.71979-1.17654 4.0342 1.78441 2.15009 8.37411 1.1772 11.42221-1.68634zm-83.67602 11.79057c.56226-1.7875 2.03519-7.075 3.27319-11.75 1.23801-4.675 2.60341-8.7457 3.03422-9.046.43082-.3003 5.99456-.66722 12.36388-.81536 15.05649-.35021 21.83837-2.64323 28.69442-9.70189 7.74268-7.97147 12.86987-22.62773 10.71517-30.62967-1.61977-6.01537-3.50212-8.36614-8.75997-10.93984-4.38212-2.14503-6.1664-2.31959-27.3399-2.67468l-22.65181-.37987-1.53688 5.34365c-.84529 2.93901-5.63364 20.19366-10.64078 38.34366s-9.2956 33.5625-9.52992 34.25c-.32363.94956 2.19165 1.25 10.46504 1.25h10.89107zm11.82514-39.43884c-.32401-.52426.44475-4.74624 1.70837-9.38218l2.29748-8.42898 7.48313-.28904c12.23245-.4725 15.34935 2.04979 12.6189 10.21155-1.99584 5.96588-5.12186 7.6941-15.03585 8.31262-4.91565.30667-8.73066.12838-9.07203-.42397zm19.38461-5.23424c3.94207-3.94206 4.05499-8.69607.24101-10.14614-1.47514-.56085-5.14355-.88721-8.15203-.72525l-5.46996.29447-1.81284 6.5c-.99706 3.575-1.82864 6.6125-1.84797 6.75-.0193.1375 3.14949.25 7.04179.25 6.48853 0 7.31996-.24303 10-2.92308zm-113.78938 50.29359c-3.62543-1.78758-7.2916-8.30171-7.280534-12.93623.01071-4.48698 10.556014-45.30019 12.529834-48.49389.68914-1.11505 23.1323-1.28475 23.81502-.18008.25845.41817-1.76021 8.84345-4.4859 18.72285s-4.82308 19.09976-4.66088 20.48969c.60425 5.17783 9.09171 3.26915 12.14979-2.73227.76807-1.50732 3.26823-9.49058 5.55592-17.74058 6.03089-21.749 4.00475-19.5 17.56777-19.5 11.34186 0 11.52144.0357 11.52144 2.2905 0 2.66905-14.57796 56.0524-16.06622 58.83323-.88387 1.65153-2.25763 1.87627-11.46896 1.87627h-10.46482v-2.5c0-1.375-.1125-2.4943-.25-2.48733-.1375.007-2.90091 1.35696-6.14092 3-4.79919 2.4337-7.11575 2.98311-12.5 2.96456-3.96824-.0137-7.89271-.65568-9.82154-1.60672zm16.93893-1.41659c2.04956-.56922 5.76595-2.59171 8.25865-4.49443 6.53862-4.99104 8.68161-4.65843 6.52542 1.0128l-.98947 2.60248 9.11753-.28738 9.11752-.28739 7.82853-28c4.30568-15.4 7.84806-28.3375 7.87194-28.75.0239-.4125-4.24124-.75-9.47803-.75-11.26375 0-9.69213-1.97496-15.51748 19.5-2.23791 8.25-5.16272 16.66736-6.49957 18.70523-2.92379 4.457-8.37371 6.55633-12.71151 4.89652-2.4601-.94132-2.75-1.54719-2.75-5.74726 0-3.71929 3.59413-18.58866 8.57522-35.47677.4153-1.40805-.77943-1.64573-9.0471-1.79984-9.0654-.16899-9.57362-.0665-10.51998 2.12228-.54692 1.26491-3.26292 10.62484-6.03556 20.79984-5.4351 19.94571-6.25952 27.38693-3.50073 31.59738 3.16212 4.82601 11.46841 6.65782 19.75462 4.35654zm-102.46383028.834c-.232914-.69874.36485598-3.97438 1.32837998-7.27918.963523-3.30481 5.671261-20.18374 10.4616393-37.50874 4.790379-17.325 9.130955-32.99536 9.645726-34.82302l.935947-3.32302 26.182834.32302c24.957209.3079 26.381093.42895 30.418209 2.58588 7.615465 4.06877 9.641505 10.31406 6.863605 21.15724-1.91838 7.48816-5.64218 13.36702-11.107319 17.53538l-3.991661 3.04452 2.75 2.68623c3.450848 3.37082 3.626215 8.60106.697874 20.81377-1.120963 4.675-1.773433 9.55554-1.449934 10.84565 1.123618 4.48098-.72518 5.15435-14.15177 5.15435-10.203373 0-12.513054-.27132-12.994708-1.52649-.322172-.83956.370065-5.67706 1.538305-10.75 3.440915-14.94173 3.091937-15.72351-7.018809-15.72351h-6.729041l-1.473854 5.25c-.81062 2.8875-2.530051 9.075-3.820959 13.75l-2.347104 8.5-12.656939.27918c-9.5456853.21056-12.7610373-.0331-13.08042128-.99126zm27.24621828-14.03792c4.471674-16.4367 4.018178-15.75 10.401326-15.75 7.984855 0 11.540193.99463 13.332362 3.72983 1.492508 2.27785 1.450881 3.10576-.583825 11.61145-3.273855 13.68572-3.991147 12.65872 8.841279 12.65872h11v-3.92104c0-2.15658.926683-7.82288 2.059296-12.59179 2.403355-10.11941 1.945432-13.68447-2.146305-16.70962-1.602145-1.18452-2.912991-2.70128-2.912991-3.37059 0-.6693 2.035076-2.40955 4.522392-3.86721 7.244049-4.2453 12.461668-14.03018 12.702568-23.82182.14233-5.78498-2.12304-9.33824-7.789494-12.21793-3.547465-1.80282-6.315737-2.03348-28.078357-2.33956l-24.14289-.33956-1.054511 3.33956c-.579981 1.83676-5.375958 18.99961-10.657726 38.13968-5.2817683 19.14006-9.8535823 35.45256-10.1595873 36.25-.465122 1.21208 1.238736 1.44988 10.3887123 1.44988h10.945085zm10.004726-34c.0075-1.2375.820601-4.95 1.806954-8.25l1.79337-6 8.686226-.28883c10.496309-.34903 12.699866.56658 12.699866 5.27696 0 8.67802-4.049539 11.51187-16.45034 11.51187-8.203672 0-8.54911-.091-8.536076-2.25zm20.163696-2.7206c1.016449-1.25527 2.133738-3.42041 2.482864-4.81144.958641-3.81953-1.764864-5.21796-10.162224-5.21796h-7.119821l-1.331489 5.25c-.732319 2.8875-1.564321 5.87448-1.848893 6.63774-.423976 1.13715.985763 1.30072 7.807035.90584 7.134539-.41301 8.588607-.80812 10.172528-2.76418zm350.20102-19.46632c-4.27875-1.86222-6.3783-5.22261-6.3783-10.20866 0-8.02047 7.97685-12.59492 16.387-9.39738 7.67163 2.91675 7.04353 16.29382-.9213 19.62174-4.12895 1.72518-5.09124 1.72352-9.0874-.0157zm9.18057-4.03128c1.81907-1.37587 1.70533-1.47019-1.80887-1.5-2.23233-.0189-3.75-.51745-3.75-1.2318 0-.93333-.26667-.93333-1.2 0-2.13443 2.13443-3.8 1.34547-3.8-1.8 0-1.65-.49878-3-1.10841-3-1.73695 0-.0981 5.25309 2.26184 7.25 2.52202 2.13406 6.78756 2.26187 9.40544.2818zm3.71416-3.65877c-.74447-.74447-.82076-1.9324-.22475-3.5.56723-1.49195.54012-2.37303-.073-2.37303-.53639 0-.97525.9-.97525 2 0 1.21157-.66667 2-1.69113 2-1.47465 0-1.44265.18794.25 1.4682 2.2862 1.72919 4.34571 2.03638 2.71416.40483zm-17.61075-3.12303c-.27741-.6875-.50439-.125-.50439 1.25s.22698 1.9375.50439 1.25.27741-1.8125 0-2.5zm11.33772 2.25c0-.55-.45-1-1-1s-1 .45-1 1 .45 1 1 1 1-.45 1-1zm-3.33772-3.25c-.27741-.6875-.50439-.125-.50439 1.25s.22698 1.9375.50439 1.25.27741-1.8125 0-2.5zm4.5445-4.5c-2.09805-1.65041-5.24669-1.53439-7.64791.2818-1.80883 1.36813-1.66276 1.4682 2.14301 1.4682 2.95087 0 4.28235.48559 4.79847 1.75.65525 1.60529.7797 1.58461 1.50489-.25.54195-1.37104.29085-2.3931-.79846-3.25zm-2.47581-2.94299c-.97297-.25354-2.32297-.23687-3 .037-.67703.27393.11903.48137 1.76903.46099 1.65-.0204 2.20394-.2445 1.23097-.49804z" fill="none"/><g fill="#2a2c83"><path d="m4.334678 445.02442c-.4008943-.26366 2.3550823-10.88076 8.926149-34.38702 5.228359-18.70308 10.145503-36.19844 10.926988-38.87859l1.42088-4.873 20.543546.37507c24.015833.43848 27.712739.75581 31.576034 2.71046 6.849006 3.46528 8.734437 8.797 6.374221 18.02535-2.010209 7.85984-5.850592 13.20899-13.276199 18.49201-1.408314 1.00196-2.638589 2.22684-2.733945 2.72197-.105838.54957.771781 1.76039 2.25307 3.10848 1.33454 1.21454 2.753108 2.83997 3.152381 3.61207 1.074332 2.07753.88779 6.24017-.602953 13.45467-.730892 3.53717-1.466098 8.59226-1.63379 11.23354l-.304892 4.80231h-9.943687c-7.041757 0-10.125507-.18181-10.566695-.623-.970286-.97029-.750821-3.44536.934505-10.53914 1.875567-7.89452 1.989071-10.99263.473329-12.91959-2.002294-2.5455-3.818226-3.09593-11.006886-3.33628-5.800054-.19393-6.767152-.10674-7.646867.68939-1.367861 1.2379-2.478182 4.43481-5.721937 16.47503l-2.762421 10.25359-9.900436-.008c-5.4452403-.004-10.161418-.1796-10.480395-.38938zm52.267091-44.04859c4.721217-1.40206 6.710098-4.4813 6.71652-10.39873.0021-1.78035-.299405-3.03324-.90565-3.76546-1.433068-1.73086-5.749494-2.31844-13.845935-1.88479l-7.038141.37695-1.024885 3.45155c-1.582557 5.32963-2.692401 10.48273-2.519163 11.6967.113348.79429.661829 1.19893 1.974051 1.45635 2.874564.5639 13.634186-.039 16.643203-.93257z" opacity=".9375"/><path d="m89.900604 446.54707c-3.144454-1.12449-5.616616-3.22373-6.655341-5.65138-1.974549-4.61482-.159012-14.87197 7.049193-39.82545 1.726203-5.9758 3.138551-10.92367 3.138551-10.99527s.367127-.4973.815837-.94601c.665938-.66594 2.18598-.81584 8.272916-.81584 4.10139 0 8.03778.22078 8.74754.49064l1.29048.49063-1.28751 4.57127c-3.15717 11.20949-6.43162 24.80692-6.99768 29.05856-.51416 3.86177-.49445 4.88835.11843 6.16709 1.39421 2.90896 6.45554 3.5242 10.76295 1.30832 5.05339-2.59965 6.00127-4.82467 14.12453-33.15575 1.19107-4.15403 2.09956-6.31276 3.11347-7.39816l1.43167-1.5326h8.1147c6.27549 0 8.1748.15659 8.37983.69089.20307.52919-10.10921 38.92385-14.45583 53.82189l-.68162 2.33626-8.67524.25958c-4.77139.14278-8.67486.11374-8.67438-.0645.00048-.17826.35468-1.32694.78713-2.55262 1.75434-4.97234-.43297-5.28427-6.82216-.97289-6.31333 4.26019-8.96019 5.26943-14.42605 5.50058-3.695213.15626-5.314608-.0139-7.471416-.78523z" opacity=".9375"/><path d="m147.57873 445.00757c-.46134-.29321 2.20965-10.5969 10.12524-39.05954l10.75188-38.66127 18.16949.1521c22.66593.18973 27.30019.59186 31.68228 2.74915 3.60316 1.77383 5.31864 3.36013 6.92253 6.40121 2.69453 5.10901 2.64956 11.03489-.14544 19.16644-4.29604 12.49853-12.31512 20.71651-22.88573 23.45334-1.71326.44358-7.08666 1.04371-11.94089 1.33362-16.03663.95775-15.07237.77748-15.93133 2.97855-.41049 1.05191-2.01243 6.40986-3.55985 11.90656l-2.81349 9.99401-9.87403-.008c-5.43071-.004-10.15601-.18718-10.50066-.40623zm46.75361-41.61148c5.28453-.68101 8.06078-2.31102 9.8242-5.76801 1.8949-3.71476 2.39502-7.75865 1.18746-9.60162-1.64564-2.51156-3.89894-3.06028-12.38935-3.01703-4.22775.0215-7.89469.24801-8.14876.50329-.58132.58408-4.15244 14.69966-4.15244 16.41336 0 .69844.15575 1.42564.34612 1.616.49201.49201 9.11463.39759 13.33277-.14599z" opacity=".9375"/><path d="m224.00409 446.76111c-6.11365-2.5609-7.6977-6.79312-5.7054-15.24349 2.78502-11.81267 8.92012-15.76304 29.98151-19.30501 12.7169-2.13865 15.89161-3.70174 16.80619-8.27466.67659-3.38295-2.22272-5.23268-8.21104-5.23855-3.73838-.004-5.1407.54138-8.38378 3.25859l-2.6136 2.18979-6.73342.17263c-7.80433.20009-10.20835-.11049-10.20835-1.31883 0-1.40788 3.06082-5.70897 5.92244-8.32228 3.07325-2.80655 7.14034-4.95712 11.54396-6.10412 9.24901-2.40906 25.16885-2.12901 30.64003.539 2.92853 1.42808 5.53161 3.79984 6.77129 6.16955 1.17342 2.24305.75387 4.57057-4.77548 26.49272-2.71398 10.76009-4.93451 20.48214-4.93451 21.60455v2.04074h-6.41715c-3.52944 0-7.49607.14788-8.81474.32863l-2.39758.32862-1.0546-2.46029c-1.23908-2.89064-1.38439-2.88978-7.91278.0467-7.09023 3.18916-9.68835 3.90001-15.19628 4.15769-4.68684.21927-5.4946.116-8.30671-1.06194v-.00001zm27.90408-12.13046c3.58008-1.58364 7.62398-8.065 7.64762-12.25722l.0114-2.02196-3.29876.30804c-3.64915.34076-11.36764 2.83001-14.19681 4.57853-2.38869 1.4763-3.78792 3.85457-3.78048 6.42572.007 2.46591.36997 3.14045 2.08144 3.86957 1.95418.83253 8.82905.29455 11.53559-.90268z" opacity=".9375"/><path d="m280.50146 470.01529c-2.07955-.46896-2.1593-1.24527-.71319-6.94179 1.93796-7.63398 1.81056-7.47516 6.59299-8.21868 5.16218-.80254 7.46722-1.93692 8.61843-4.24138 1.2751-2.55246 1.18361-12.57532-.36016-39.45687-.85908-14.95911-1.0728-21.74391-.69909-22.19449.39374-.47475 3.02135-.64896 9.78794-.64896h9.24971l.16156 17.36692c.11023 11.84813.34499 17.55012.73876 17.94341.94494.94377 4.41861-4.93053 18.65445-31.54635l2.01322-3.76398h8.16682c4.49175 0 8.27734.17884 8.41244.39742.26.4207-12.11497 22.48025-24.53278 43.73197-17.64933 30.20491-20.96902 34.36743-29.24853 36.67428-2.70325.75319-14.65879 1.39098-16.84257.8985z" opacity=".9375"/></g></g><g transform="matrix(.19583543 0 0 .19583543 .03981164333 3.23254032117)"><path d="m382.77062 198.61758 24.27117-88.90775 23.10303 45.94648z" fill="#097a44"/><path d="m367.75125 198.94138 24.27117-88.90775 23.10303 45.94648z" fill="#f46f20"/></g><path d="m289.30078 66.708095v-13.554687h-5.15625v-2.363281h13.00781v2.363281h-5.19531v13.554687zm9.62891 0v-15.917968h3.90625l4.02343 12.714843 3.88672-12.714843h3.82813v15.917968h-2.42188v-13.359375l-4.10156 13.359375h-2.40234l-4.27735-13.554687v13.554687z" transform="matrix(.08754767085 0 0 .08754767085 59.82806291906 18.55164404411)"/><path d="m339.94216 81.240189c0 10.542908-8.54671 19.089621-19.08962 19.089621s-19.08963-8.546713-19.08963-19.089621c0-10.542909 8.54672-19.089625 19.08963-19.089625s19.08962 8.546716 19.08962 19.089625z" fill="none" opacity=".9375" stroke="#000" stroke-width="2.142183" transform="matrix(.10129854932 0 0 .10129854932 53.63248204584 15.4400268428)"/></svg>