<svg enable-background="new 0 0 50 50" height="50" viewBox="0 0 50 50" width="50" xmlns="http://www.w3.org/2000/svg"><g fill="#040505"><path d="m11.541 10.206c-2.408 0-4.365 1.854-4.582 4.202l-.03.31c-.001.035-.014.074-.014.109v.387l.014 1.553h-2.804c-.519 0-.945.425-.945.954 0 .524.426.955.945.955h9.813c.52 0 .939-.431.939-.955 0-.528-.42-.954-.939-.954h-5.124v-2.419c.228-1.303 1.362-2.291 2.727-2.291h33.834c1.536 0 2.775 1.244 2.775 2.77v20.341c0 1.537-1.239 2.775-2.775 2.775h-33.834c-1.365 0-2.5-.989-2.727-2.295v-5.468c0-.528-.421-.947-.946-.947h-5.948c-.525 0-.946.418-.946.947 0 .53.42.959.946.959h5.008v2.988l-.014 1.04c0 2.546 2.074 4.626 4.626 4.626h15.033 3.701 14.794.306c2.558 0 4.625-2.08 4.625-4.626v-15.1-5.241c.002-2.545-2.067-4.621-4.625-4.621h-33.833z"/><path d="m34.508 29.932c0-1.021.786-1.851 1.76-1.851.15 0 .299.027.444.06-.29.554-.444 1.16-.444 1.791 0 .63.154 1.237.444 1.791-1.072.303-2.204-.615-2.204-1.791m5.631-1.851c1.021 0 1.851.83 1.851 1.851 0 1.02-.829 1.852-1.851 1.852s-1.851-.831-1.851-1.852.829-1.851 1.851-1.851m-1.993 4.962c.578.363 1.258.591 1.992.591 2.042 0 3.701-1.659 3.701-3.702s-1.659-3.7-3.701-3.7c-.734 0-1.416.225-1.992.59-.56-.374-1.216-.59-1.879-.59-1.945 0-3.521 1.657-3.521 3.7s1.576 3.702 3.521 3.702c.664 0 1.32-.219 1.879-.591"/><path d="m7.87 20.07c-.52 0-.941.431-.941.955v4.005h-3.468c-.524 0-.946.429-.946.954 0 .529.421.958.946.958h6.374c.52 0 .941-.429.941-.958 0-.525-.42-.954-.941-.954h-1.02v-4.005c0-.524-.421-.955-.945-.955"/><path d="m1.92 21.978h2.765c.52 0 .945-.425.945-.954 0-.523-.426-.954-.945-.954h-2.765c-.525 0-.946.431-.946.954.001.529.421.954.946.954"/><path d="m1.951 25.983c0-.523-.421-.954-.946-.954h-.06c-.525.001-.945.431-.945.954 0 .529.42.96.945.96h.06c.524 0 .946-.43.946-.96"/><path d="m14.876 31.58h13.334c.499 0 .902-.414.902-.912 0-.5-.403-.913-.902-.913h-13.334c-.499 0-.906.413-.906.913 0 .498.408.912.906.912"/><path d="m14.876 27.144h6.175c.503 0 .913-.403.913-.912 0-.5-.409-.908-.913-.908h-6.175c-.499 0-.906.408-.906.908 0 .508.408.912.906.912"/></g></svg>