<svg xmlns="http://www.w3.org/2000/svg" width="44" height="44" viewBox="0 0 44 44">
    <defs>
        <radialGradient id="jz7dga9lna" cx="50%" cy="50%" r="93.599%" fx="50%" fy="50%">
            <stop offset="0%" stop-color="#00B081"/>
            <stop offset="100%" stop-color="#00552B"/>
        </radialGradient>
    </defs>
    <g fill="none" fill-rule="evenodd">
        <path fill-rule="nonzero" stroke="#008256" stroke-dasharray="1 8" stroke-linejoin="round" stroke-width="4" d="M20 40c11.038 0 20-8.962 20-20S31.038 0 20 0 0 8.962 0 20s8.962 20 20 20z" transform="translate(2 2)"/>
        <g>
            <path fill="url(#jz7dga9lna)" fill-rule="nonzero" d="M12.683 25.366c7 0 12.683-5.683 12.683-12.683S19.683 0 12.683 0 0 5.683 0 12.683s5.683 12.683 12.683 12.683z" transform="translate(2 2) translate(7.805 7.805)"/>
            <g stroke="#FFF" stroke-linecap="round" stroke-linejoin="bevel" stroke-width="2">
                <path d="M14.106 0.082L5.404 8.767" transform="translate(2 2) translate(7.805 7.805) translate(5.493 8.78)"/>
                <path d="M5.339 4.338L0.976 8.832" transform="translate(2 2) translate(7.805 7.805) translate(5.493 8.78) rotate(-90 3.157 6.585)"/>
            </g>
        </g>
    </g>
</svg>
