<svg xmlns="http://www.w3.org/2000/svg" width="25" height="8" viewBox="0 0 25 8">
    <g fill="none" fill-rule="evenodd">
        <path fill="#097939" d="M21.774 7.532L25 4.362 23.472 1.08z"/>
        <path fill="#ED752E" d="M20.161 7.532l3.226-3.17L21.86 1.08z"/>
        <path fill="#747474" d="M3.097.346L1.592 5.993l5.342.04L8.402.345h1.354l-1.76 6.61c-.067.253-.323.458-.572.458H.576c-.415 0-.661-.342-.549-.763L1.705.346h1.392zm16.516-.04h1.355l-1.881 7.108h-1.393l1.92-7.108zM9.907 3.268l6.772-.04.452-1.5h-6.886L10.66.344l7.337-.07c.457-.005.729.367.609.832l-.692 2.662c-.12.465-.589.841-1.045.841H10.81l-.714 2.922H8.778l1.129-4.264z"/>
    </g>
</svg>
