<?xml version="1.0" encoding="UTF-8"?>
<svg width="302px" height="60px" viewBox="0 0 302 60" version="1.1" xmlns="http://www.w3.org/2000/svg" xmlns:xlink="http://www.w3.org/1999/xlink">
    <!-- Generator: Sketch 61.2 (89653) - https://sketch.com -->
    <title>Group 4</title>
    <desc>Created with Sketch.</desc>
    <g id="App-/-M-Site-(Marketplace)" stroke="none" stroke-width="1" fill="none" fill-rule="evenodd">
        <g id="Group-4">
            <rect id="Rectangle" fill="#FFFFFF" x="0" y="0" width="302" height="60"></rect>
            <text id="All-popular-UPI-apps" font-family="Rubik-Light, Rubik" font-size="10" font-weight="300" fill="#212121">
                <tspan x="81.44" y="51">All popular UPI apps supported</tspan>
            </text>
            <g id="Group-9" transform="translate(1.000000, 0.000000)" stroke="#E7E7E7" stroke-linecap="square">
                <line x1="0.5" y1="37" x2="299.5" y2="37" id="Line-3"></line>
                <line x1="0.5" y1="0.5" x2="299.5" y2="0.5" id="Line-3-Copy"></line>
                <line x1="0.5" y1="59" x2="299.5" y2="59" id="Line-3"></line>
                <line x1="78" y1="7.5" x2="78" y2="29.5" id="Line-2"></line>
                <line x1="122" y1="7.5" x2="122" y2="29.5" id="Line-2-Copy-2"></line>
                <line x1="183" y1="7.5" x2="183" y2="29.5" id="Line-2-Copy-3"></line>
                <line x1="227" y1="7.5" x2="227" y2="29.5" id="Line-2-Copy-4"></line>
            </g>
            <g id="Group-6" transform="translate(11.000000, 7.000000)">
                <g id="Group" transform="translate(185.000000, 0.000000)" fill-rule="nonzero">
                    <path d="M10.9857857,0.515309524 C4.91871429,0.515309524 0.000547619048,5.43347619 0.000547619048,11.5 C0.000547619048,17.5670714 4.91871429,22.4846905 10.9852381,22.4846905 C17.0517619,22.4846905 21.9704762,17.5670714 21.9704762,11.5 C21.9704762,5.43347619 17.0523095,0.515309524 10.9857857,0.515309524 Z" id="Path" fill="#673AB7"></path>
                    <path d="M16.0085476,8.52369048 L16.0085476,8.89935714 C16.0085476,9.00997619 15.980619,9.09266667 15.9253095,9.14797619 C15.87,9.20328571 15.7873095,9.23121429 15.6766905,9.23121429 L15.1005952,9.23121429 L14.5245,9.23121429 C14.4604286,9.23121429 14.4127857,9.24819048 14.3804762,9.2832381 C14.3487143,9.31828571 14.3328333,9.37085714 14.3328333,9.44040476 L14.3328333,13.9095238 L14.3328333,18.3775476 C14.3328333,18.4881667 14.3049048,18.5714048 14.2501429,18.6261667 C14.1948333,18.6814762 14.1115952,18.7094048 14.0009762,18.7094048 L13.5382381,18.7094048 L13.0760476,18.7094048 C12.9654286,18.7094048 12.8821905,18.6814762 12.826881,18.6261667 C12.772119,18.5714048 12.7441905,18.4887143 12.7441905,18.3775476 L12.7441905,16.762619 L12.7441905,15.1482381 L12.7102381,15.1482381 L12.6751905,15.1482381 C12.535,15.3924762 12.3312857,15.575381 12.0635,15.6980476 C11.7962619,15.8201667 11.4649524,15.8809524 11.0684762,15.8809524 L10.8154762,15.8809524 L10.5624762,15.8809524 C10.1610714,15.8809524 9.79964286,15.8218095 9.47819048,15.7040714 C9.15619048,15.586881 8.87471429,15.41 8.63321429,15.1739762 C8.39171429,14.9390476 8.211,14.6597619 8.08997619,14.3388571 C7.9695,14.0168571 7.90871429,13.6521429 7.90871429,13.2458095 L7.90871429,11.3428333 L7.90871429,9.44040476 C7.90871429,9.37688095 7.89557143,9.32704762 7.86928571,9.292 C7.84354762,9.25695238 7.80411905,9.23669048 7.75154762,9.23121429 L7.245,9.23121429 L6.739,9.23121429 C6.62838095,9.23121429 6.54569048,9.20164286 6.49038095,9.14359524 C6.43507143,9.08554762 6.40714286,8.99902381 6.40714286,8.88183333 L6.40714286,8.51547619 L6.40714286,8.14857143 C6.40714286,8.04397619 6.43507143,7.96511905 6.49038095,7.91364286 C6.54569048,7.86107143 6.62838095,7.83478571 6.739,7.83478571 L9.31007143,7.83478571 L11.8811429,7.83478571 C11.5093095,7.44761905 11.1489762,7.038 10.8006905,6.60483333 C10.4524048,6.17111905 10.1167143,5.71495238 9.79361905,5.23414286 L9.30459524,4.50909524 L8.81666667,3.78514286 C8.79366667,3.74516667 8.77669048,3.70245238 8.76464286,3.65919048 C8.75314286,3.61538095 8.74657143,3.57047619 8.74657143,3.52392857 C8.74657143,3.43685714 8.76847619,3.37114286 8.81228571,3.32733333 C8.85554762,3.28407143 8.9212619,3.26216667 9.00833333,3.26216667 L9.54061905,3.26216667 L10.0729048,3.26216667 C10.1775,3.26216667 10.2678571,3.28407143 10.3439762,3.32733333 C10.4195476,3.37114286 10.480881,3.43685714 10.5274286,3.52392857 L11.7754524,5.5315 L13.0234762,7.53852381 C13.0880952,7.63764286 13.1576429,7.71211905 13.2337619,7.76085714 C13.3093333,7.81014286 13.3909286,7.83478571 13.478,7.83478571 L13.5218095,7.83478571 L13.565619,7.83478571 L14.6214286,7.83478571 L15.6772381,7.83478571 C15.7878571,7.83478571 15.8705476,7.86052381 15.9258571,7.91364286 C15.9811667,7.96566667 16.0090952,8.04397619 16.0090952,8.14857143 L16.0090952,8.52369048 L16.0085476,8.52369048 Z" id="Path" fill="#FFFFFF"></path>
                    <path d="M12.5525238,9.23066667 L11.1210476,9.23066667 L9.68957143,9.23066667 C9.62495238,9.23066667 9.5767619,9.24764286 9.545,9.28269048 C9.5132381,9.3177381 9.49735714,9.37030952 9.49735714,9.43985714 L9.49735714,11.2645238 L9.49735714,13.0880952 C9.49735714,13.5420714 9.60797619,13.8821429 9.82921429,14.1088571 C10.0504524,14.336119 10.3823095,14.4494762 10.8242381,14.4494762 L11.0597143,14.4494762 L11.2951905,14.4494762 C11.5399762,14.4494762 11.753,14.4182619 11.9342619,14.3558333 C12.1160714,14.2934048 12.2666667,14.1992143 12.3855,14.0743571 C12.504881,13.9489524 12.5946905,13.8016429 12.654381,13.631881 C12.7140714,13.4610238 12.7441905,13.2688095 12.7441905,13.0535952 L12.7441905,11.247 L12.7441905,9.44040476 C12.7441905,9.37085714 12.7283095,9.3177381 12.696,9.2832381 C12.6642381,9.24764286 12.6165952,9.23066667 12.5525238,9.23066667 Z" id="Path" fill="#673AB7"></path>
                </g>
                <g id="iconfinder_paytm_1220356" transform="translate(123.000000, 5.000000)" fill-rule="nonzero">
                    <path d="M31.3656051,2.80700637 C31.5312102,2.67452229 31.6140127,2.60828025 31.6968153,2.54203822 C32.8477707,1.56496815 34.3216561,1.67261146 35.3070064,2.83184713 C35.4063694,2.9477707 35.456051,2.95605096 35.555414,2.8566879 C35.6216561,2.78216561 35.6961783,2.72420382 35.7624204,2.64968153 C36.5324841,1.89617834 37.5509554,1.67261146 38.5031847,2.09490446 C39.5050955,2.54203822 40.0433121,3.32866242 40.0515924,4.42993631 C40.0681529,6.80636943 40.0598726,9.17452229 40.0598726,11.5509554 C40.0598726,12.3955414 39.5382166,12.9254777 38.7019108,12.9254777 C38.3707006,12.9254777 38.0394904,12.9006369 37.7082803,12.933758 C37.3687898,12.966879 37.2694268,12.8592357 37.2694268,12.5031847 C37.2859873,10.1847134 37.277707,7.86624204 37.277707,5.5477707 C37.277707,5.44840764 37.277707,5.35732484 37.277707,5.25796178 C37.2694268,4.71974522 37.0541401,4.49617834 36.5407643,4.47133758 C36.0770701,4.44649682 35.7541401,4.72802548 35.7044586,5.2 C35.6961783,5.30764331 35.7044586,5.42356688 35.7044586,5.53121019 C35.7044586,7.53503185 35.7044586,9.53057325 35.7044586,11.5343949 C35.7044586,12.4121019 35.1993631,12.9254777 34.3216561,12.9171975 C33.8745223,12.9089172 33.2700637,13.1159236 33.0133758,12.8261146 C32.7898089,12.577707 32.9388535,11.9898089 32.9388535,11.5509554 C32.9388535,9.49745223 32.9388535,7.43566879 32.9388535,5.38216561 C32.9388535,4.65350318 32.466879,4.28089172 31.8541401,4.52929936 C31.4732484,4.6866242 31.3490446,4.99299363 31.3490446,5.39044586 C31.3573248,7.31146497 31.3490446,9.22420382 31.3490446,11.1452229 C31.3490446,11.2942675 31.3490446,11.4515924 31.3490446,11.6006369 C31.3242038,12.4038217 30.810828,12.9089172 30.0159236,12.9171975 C29.6847134,12.9254777 29.3535032,12.8923567 29.022293,12.9254777 C28.666242,12.9585987 28.5585987,12.8592357 28.566879,12.4783439 C28.5834395,9.22420382 28.5751592,5.97006369 28.5751592,2.70764331 C28.5751592,2.56687898 28.5834395,2.4343949 28.5751592,2.29363057 C28.5585987,2.11146497 28.633121,2.05350318 28.8152866,2.05350318 C29.5770701,2.06178344 30.3305732,2.06178344 31.0923567,2.05350318 C31.2828025,2.05350318 31.3738854,2.10318471 31.3573248,2.31019108 C31.3407643,2.45923567 31.3573248,2.59171975 31.3656051,2.80700637 Z" id="Path" fill="#02B9EF"></path>
                    <path d="M13.811465,7.29490446 C13.811465,8.42929936 13.811465,9.55541401 13.811465,10.6898089 C13.8031847,12.1636943 13.033121,12.9254777 11.5592357,12.933758 C10.9133758,12.933758 10.2592357,12.9420382 9.6133758,12.933758 C8.30509554,12.9171975 7.34458599,12.0477707 7.27834395,10.7394904 C7.22866242,9.80382166 7.22038217,8.85987261 7.27006369,7.92420382 C7.33630573,6.58280255 8.36305732,5.6388535 9.72101911,5.62229299 C10.0770701,5.61401274 10.4414013,5.62229299 10.7974522,5.62229299 C11.1452229,5.61401274 11.277707,5.41528662 11.2694268,5.08407643 C11.2694268,4.75286624 11.1203822,4.60382166 10.789172,4.62038217 C10.4165605,4.62866242 10.043949,4.62866242 9.67133758,4.62038217 C8.76050955,4.60382166 8.25541401,4.10700637 8.26369427,3.21273885 C8.26369427,2.84840764 8.09808917,2.35987261 8.33821656,2.14458599 C8.54522293,1.96242038 9.01719745,2.07834395 9.37324841,2.07834395 C10.3006369,2.07006369 11.2197452,2.07834395 12.1471338,2.07834395 C13.1324841,2.07834395 13.8031847,2.74904459 13.811465,3.74267516 C13.8197452,4.91847134 13.811465,6.11082803 13.811465,7.29490446 Z M11.277707,9.17452229 C11.277707,9.03375796 11.277707,8.90127389 11.277707,8.76050955 C11.277707,7.91592357 11.277707,7.91592357 10.433121,7.94904459 C10.010828,7.9656051 9.77898089,8.18089172 9.77070064,8.61974522 C9.76242038,8.96751592 9.76242038,9.30700637 9.77070064,9.65477707 C9.77898089,10.2509554 10.043949,10.4082803 10.9050955,10.433121 C11.5426752,10.4496815 11.2197452,10.0025478 11.277707,9.75414013 C11.310828,9.57197452 11.2694268,9.36496815 11.277707,9.17452229 Z" id="Shape" fill="#06306F"></path>
                    <path d="M21.1808917,6.39235669 C21.1808917,7.65923567 21.1974522,8.9343949 21.1726115,10.2012739 C21.156051,11.1783439 20.9242038,12.0643312 19.9802548,12.5859873 C19.5993631,12.7929936 19.1853503,12.9089172 18.7547771,12.9171975 C17.8025478,12.933758 16.8503185,12.9171975 15.8980892,12.933758 C15.666242,12.933758 15.6165605,12.8509554 15.6248408,12.643949 C15.6414013,12.2961783 15.6165605,11.9566879 15.633121,11.6089172 C15.6496815,10.9464968 16.1547771,10.4414013 16.8171975,10.4165605 C17.2477707,10.4 17.6700637,10.4082803 18.1006369,10.4165605 C18.4484076,10.4165605 18.6388535,10.2757962 18.6388535,9.90318471 C18.6388535,9.52229299 18.4566879,9.38980892 18.1089172,9.38152866 C17.5292994,9.36496815 16.9496815,9.4477707 16.3783439,9.28216561 C15.3929936,8.99235669 14.6726115,8.17261146 14.6477707,7.15414013 C14.5980892,5.53949045 14.6312102,3.92484076 14.6229299,2.31019108 C14.6229299,2.12802548 14.6808917,2.07006369 14.8630573,2.07834395 C15.5420382,2.0866242 16.2127389,2.09490446 16.8917197,2.07834395 C17.1898089,2.07006369 17.1484076,2.23566879 17.1484076,2.41783439 C17.1484076,3.63503185 17.1484076,4.84394904 17.1484076,6.0611465 C17.1484076,6.5910828 17.3968153,6.87261146 17.8605096,6.88917197 C18.4070064,6.90573248 18.6471338,6.68216561 18.6471338,6.12738854 C18.6471338,4.90191083 18.655414,3.66815287 18.6388535,2.44267516 C18.6388535,2.15286624 18.7133758,2.07006369 19.0031847,2.07834395 C19.6076433,2.10318471 20.2203822,2.11146497 20.8248408,2.07834395 C21.156051,2.06178344 21.2057325,2.18598726 21.1974522,2.47579618 C21.1726115,3.77579618 21.1808917,5.08407643 21.1808917,6.39235669 Z" id="Path" fill="#06306F"></path>
                    <path d="M0.0828025478,8.27197452 C0.0828025478,6.92229299 0.0828025478,5.56433121 0.0828025478,4.21464968 C0.0828025478,2.88980892 0.894267516,2.06178344 2.22738854,2.07834395 C3.09681529,2.0866242 3.96624204,1.97898089 4.82738854,2.14458599 C5.92866242,2.35987261 6.62420382,3.21273885 6.63248408,4.34713376 C6.64076433,5.5477707 6.63248408,6.74840764 6.63248408,7.94904459 C6.63248408,9.45605096 5.74649682,10.3751592 4.23949045,10.4165605 C3.78407643,10.433121 3.32866242,10.4248408 2.87324841,10.4165605 C2.66624204,10.4082803 2.57515924,10.4745223 2.58343949,10.6980892 C2.6,11.0292994 2.59171975,11.3605096 2.58343949,11.6917197 C2.56687898,12.4038217 2.06178344,12.9171975 1.35796178,12.9254777 C0.943949045,12.933758 0.422292994,13.0993631 0.157324841,12.8592357 C-0.0910828025,12.6356688 0.0910828025,12.1057325 0.0828025478,11.7082803 C0.074522293,10.5656051 0.0828025478,9.41464968 0.0828025478,8.27197452 Z M2.58343949,6.2433121 C2.58343949,6.50828025 2.58343949,6.76496815 2.58343949,7.02993631 C2.58343949,7.9656051 2.58343949,7.9656051 3.51910828,7.88280255 C3.92484076,7.84968153 4.11528662,7.65095541 4.12356688,7.24522293 C4.13184713,6.78152866 4.10700637,6.30955414 4.13184713,5.84585987 C4.18152866,4.5044586 3.93312102,4.63694268 2.84012739,4.62866242 C2.64140127,4.62866242 2.57515924,4.6866242 2.57515924,4.88535032 C2.59171975,5.33248408 2.58343949,5.78789809 2.58343949,6.2433121 Z" id="Shape" fill="#06306F"></path>
                    <path d="M23.5242038,8.28853503 C23.5242038,7.18726115 23.5159236,6.07770701 23.5324841,4.97643312 C23.5324841,4.71974522 23.4745223,4.61210191 23.1929936,4.62038217 C22.8203822,4.63694268 22.3235669,4.74458599 22.1165605,4.56242038 C21.8598726,4.32229299 22.0585987,3.8089172 22.0254777,3.41146497 C22.0254777,3.3866242 22.0254777,3.35350318 22.0254777,3.32866242 C22.0254777,2.93949045 21.9012739,2.48407643 22.066879,2.19426752 C22.2324841,1.9044586 22.7375796,2.0866242 23.0936306,1.9955414 C23.7974522,1.8133758 24.3273885,1.40764331 24.7579618,0.844585987 C25.056051,0.463694268 25.4286624,0.19044586 25.9089172,0.0993630573 C26.1656051,0.0496815287 26.3229299,0.0828025478 26.3063694,0.414012739 C26.2815287,0.877707006 26.3063694,1.34968153 26.2980892,1.82165605 C26.2898089,2.02038217 26.3643312,2.0866242 26.5630573,2.07834395 C26.8942675,2.07006369 27.2254777,2.0866242 27.5566879,2.07006369 C27.755414,2.06178344 27.8216561,2.13630573 27.8133758,2.33503185 C27.8050955,3.01401274 27.8050955,3.68471338 27.8133758,4.36369427 C27.8133758,4.55414013 27.7636943,4.65350318 27.5566879,4.62866242 C27.5152866,4.62038217 27.4738854,4.62866242 27.4324841,4.62866242 C27.0681529,4.66178344 26.5630573,4.46305732 26.3726115,4.71146497 C26.1904459,4.9433121 26.3063694,5.42356688 26.3063694,5.79617834 C26.3063694,8.04840764 26.2980892,10.2923567 26.3146497,12.544586 C26.3146497,12.8592357 26.2318471,12.9585987 25.9171975,12.933758 C25.6191083,12.9089172 25.3127389,12.933758 25.0063694,12.9254777 C24.1121019,12.8923567 23.5242038,12.2878981 23.5242038,11.3936306 C23.5242038,10.3585987 23.5242038,9.32356688 23.5242038,8.28853503 Z" id="Path" fill="#02B9EF"></path>
                </g>
                <g id="amazon-pay-seeklogo.com" transform="translate(225.000000, 6.000000)">
                    <path d="M21.703,8.47794444 C19.6701389,9.97791667 16.7236667,10.7757222 14.1860278,10.7757222 C10.6296667,10.7757222 7.42713889,9.46122222 5.00377778,7.27283333 C4.81372222,7.10111111 4.98330556,6.86644444 5.21216667,6.99936111 C7.8265,8.52072222 11.0601944,9.43708333 14.3996111,9.43708333 C16.6524722,9.43708333 19.1286944,8.96958333 21.4075278,8.00311111 C21.7509722,7.85736111 22.0391111,8.22952778 21.703,8.47794444" id="Fill-1" fill="#EC912D"></path>
                    <path d="M22.5487778,7.51238889 C22.28875,7.17963889 20.8303333,7.35472222 20.1749167,7.43325 C19.9766111,7.45677778 19.94575,7.28352778 20.1245,7.15794444 C21.2883611,6.34058333 23.1947222,6.57647222 23.4159444,6.85025 C23.6393056,7.12616667 23.3572778,9.03772222 22.2673611,9.94980556 C22.0993056,10.08975 21.9398056,10.0151944 22.0143611,9.83002778 C22.2597222,9.21708333 22.8091111,7.84544444 22.5487778,7.51238889" id="Fill-2" fill="#EC912D"></path>
                    <path d="M20.2210556,1.38477778 L20.2210556,0.590944444 C20.2219722,0.469944444 20.3127222,0.389277778 20.4224167,0.389888889 L23.9815278,0.389277778 C24.0951944,0.389277778 24.1865556,0.472083333 24.1865556,0.589722222 L24.1865556,1.27080556 C24.1856389,1.38508333 24.0893889,1.53388889 23.9188889,1.77069444 L22.0751667,4.40275 C22.7593056,4.38686111 23.4831667,4.48952778 24.1052778,4.83877778 C24.2452222,4.91761111 24.2828056,5.03433333 24.2941111,5.14891667 L24.2941111,5.99591667 C24.2941111,6.11263889 24.1660833,6.24769444 24.0316389,6.17741667 C22.9365278,5.60358333 21.4826944,5.54094444 20.2714722,6.18475 C20.1474167,6.25044444 20.0181667,6.11722222 20.0181667,6.0005 L20.0181667,5.19505556 C20.0181667,5.06611111 20.0206111,4.84580556 20.1507778,4.64933333 L22.2866111,1.58491667 L20.427,1.58491667 C20.3130278,1.58491667 20.2219722,1.50394444 20.2210556,1.38477778" id="Fill-3" fill="#333E47"></path>
                    <path d="M7.23922222,6.34455556 L6.15633333,6.34455556 C6.05336111,6.33783333 5.97116667,6.26022222 5.96261111,6.16152778 L5.96352778,0.604388889 C5.96352778,0.493166667 6.05702778,0.404555556 6.17252778,0.404555556 L7.18086111,0.40425 C7.28627778,0.409444444 7.37091667,0.489194444 7.37763889,0.590944444 L7.37763889,1.31633333 L7.39811111,1.31633333 C7.66058333,0.614472222 8.15588889,0.287222222 8.82291667,0.287222222 C9.50002778,0.287222222 9.92444444,0.614472222 10.2278611,1.31633333 C10.4906389,0.614472222 11.0870833,0.287222222 11.7235556,0.287222222 C12.1785278,0.287222222 12.6735278,0.474222222 12.9769444,0.895277778 C13.3203889,1.36308333 13.2501111,2.04111111 13.2501111,2.63755556 L13.2488889,6.14441667 C13.2488889,6.25533333 13.1556944,6.34455556 13.0398889,6.34455556 L11.9585278,6.34455556 C11.84975,6.33752778 11.7645,6.25136111 11.7645,6.14502778 L11.7641944,3.19886111 C11.7641944,2.96511111 11.7843611,2.38058333 11.7336389,2.15844444 C11.6529722,1.78383333 11.4103611,1.67872222 11.0971667,1.67872222 C10.8340833,1.67872222 10.5612222,1.85411111 10.45,2.13461111 C10.3390833,2.41541667 10.3488611,2.88291667 10.3488611,3.19886111 L10.3488611,6.14441667 C10.3488611,6.25533333 10.2556667,6.34455556 10.1404722,6.34455556 L9.05880556,6.34455556 C8.95002778,6.33752778 8.86447222,6.25136111 8.86447222,6.14502778 L8.86325,3.19886111 C8.86325,2.57919444 8.96438889,1.66711111 8.19622222,1.66711111 C7.41797222,1.66711111 7.44852778,2.55566667 7.44852778,3.19886111 L7.44791667,6.14441667 C7.44791667,6.25533333 7.35441667,6.34455556 7.23922222,6.34455556" id="Fill-4" fill="#333E47"></path>
                    <path d="M27.2601389,1.42144444 C26.4620278,1.42144444 26.4116057,2.50891667 26.4116057,3.18725 C26.4116057,3.86527778 26.4015278,5.31544444 27.2503611,5.31544444 C28.0894167,5.31544444 28.12975,4.14608333 28.12975,3.43291667 C28.12975,2.96511111 28.1095833,2.40380556 27.9678056,1.95952778 C27.8465,1.57330556 27.6038889,1.42144444 27.2601389,1.42144444 Z M27.2503611,0.287222222 C28.8575833,0.287222222 29.7265833,1.66711111 29.7265833,3.42130556 C29.7265833,5.11652778 28.7665278,6.46158333 27.2503611,6.46158333 C25.6736944,6.46158333 24.8144722,5.08138889 24.8144722,3.36263889 C24.8144722,1.63197222 25.6837778,0.287222222 27.2503611,0.287222222 L27.2503611,0.287222222 Z" id="Fill-5" fill="#333E47"></path>
                    <path d="M31.8104722,6.34455556 L30.7318611,6.34455556 C30.6233889,6.33752778 30.5375278,6.25136111 30.5375278,6.14502778 L30.5356944,0.58575 C30.5448611,0.484 30.6346944,0.404555556 30.7437778,0.404555556 L31.7478333,0.40425 C31.8425556,0.409138889 31.9204722,0.473611111 31.9406389,0.559777778 L31.9406389,1.40983333 L31.9608056,1.40983333 C32.2642222,0.649305556 32.6883333,0.287222222 33.4363333,0.287222222 C33.9215556,0.287222222 34.3966944,0.462305556 34.6998056,0.942027778 C34.98275,1.38630556 34.98275,2.13461111 34.98275,2.67269444 L34.98275,6.16947222 C34.9708333,6.26786111 34.8822222,6.34455556 34.7752778,6.34455556 L33.6899444,6.34455556 C33.5897222,6.33813889 33.50875,6.26419444 33.4971389,6.16947222 L33.4971389,3.15241667 C33.4971389,2.54405556 33.5680278,1.6555 32.8200278,1.6555 C32.55725,1.6555 32.3146389,1.83088889 32.1933333,2.09947222 C32.0417778,2.43894444 32.0213056,2.77780556 32.0213056,3.15241667 L32.0213056,6.14441667 C32.0194722,6.25533333 31.9259722,6.34455556 31.8104722,6.34455556" id="Fill-6" fill="#333E47"></path>
                    <path d="M18.4754167,6.3305 C18.4039167,6.39497222 18.3006389,6.39925 18.2199722,6.35586111 C17.8603333,6.05702778 17.7958611,5.91891667 17.5990833,5.63413889 C17.0047778,6.23975 16.5840278,6.42125 15.8140278,6.42125 C14.9025556,6.42125 14.1936667,5.85872222 14.1936667,4.73366667 C14.1936667,3.85488889 14.6697222,3.25722222 15.3480556,2.96419444 C15.9356389,2.70630556 16.7560556,2.65955556 17.3842778,2.58897222 L17.3842778,2.44841667 C17.3842778,2.19052778 17.4044444,1.88588889 17.2525833,1.66313889 C17.1205833,1.46391667 16.8675833,1.38202778 16.6448333,1.38202778 C16.2317222,1.38202778 15.86475,1.59347222 15.7743056,2.03194444 C15.7556667,2.12972222 15.6844722,2.22627778 15.5863889,2.23116667 L14.5371111,2.1175 C14.4481944,2.09733333 14.3498056,2.02644444 14.3751667,1.89108333 C14.6135,0.635555556 15.7345833,0.244444444 16.7536111,0.23375 L16.8339722,0.23375 C17.3555556,0.240166667 18.0216667,0.383166667 18.4274444,0.77275 C18.9542222,1.26469444 18.9031944,1.92102778 18.9031944,2.63633333 L18.9031944,4.32269444 C18.9031944,4.83022222 19.1143333,5.05266667 19.3120278,5.32613889 C19.3813889,5.42483333 19.3966667,5.54186111 19.3083611,5.61397222 C19.0874444,5.79944444 18.6945,6.14044444 18.4784722,6.33294444 L18.4754167,6.3305 Z M17.3842778,3.69080556 C17.3842778,4.11277778 17.3940556,4.46416667 17.1813889,4.83938889 C17.0093611,5.14372222 16.7355833,5.33133333 16.4318611,5.33133333 C16.0169167,5.33133333 15.7736944,5.01508333 15.7736944,4.54605556 C15.7736944,3.62388889 16.6008333,3.45644444 17.3842778,3.45644444 L17.3842778,3.69080556 L17.3842778,3.69080556 Z" id="Fill-7" fill="#333E47"></path>
                    <path d="M4.28205556,6.3305 C4.21055556,6.39497222 4.10697222,6.39925 4.02630556,6.35586111 C3.66636111,6.05702778 3.60188889,5.91891667 3.40572222,5.63413889 C2.81111111,6.23975 2.39036111,6.42125 1.62066667,6.42125 C0.708888889,6.42125 0,5.85872222 0,4.73366667 C0,3.85488889 0.476055556,3.25722222 1.15469444,2.96419444 C1.74197222,2.70630556 2.56269444,2.65955556 3.19030556,2.58897222 L3.19030556,2.44841667 C3.19030556,2.19052778 3.21077778,1.88588889 3.05891667,1.66313889 C2.92691667,1.46391667 2.67391667,1.38202778 2.45116667,1.38202778 C2.03805556,1.38202778 1.67077778,1.59347222 1.58094444,2.03194444 C1.56230556,2.12972222 1.49080556,2.22627778 1.39272222,2.23116667 L0.343444444,2.1175 C0.254527778,2.09733333 0.156138889,2.02644444 0.181805556,1.89108333 C0.419527778,0.635555556 1.54061111,0.244444444 2.55994444,0.23375 L2.64030556,0.23375 C3.16188889,0.240166667 3.82830556,0.383166667 4.23377778,0.77275 C4.76025,1.26469444 4.70983333,1.92102778 4.70983333,2.63633333 L4.70983333,4.32269444 C4.70983333,4.83022222 4.92036111,5.05266667 5.11836111,5.32613889 C5.18741667,5.42483333 5.20330556,5.54186111 5.115,5.61397222 C4.89377778,5.79944444 4.50052778,6.14044444 4.2845,6.33294444 L4.28205556,6.3305 Z M3.19030556,3.69080556 C3.19030556,4.11277778 3.20069444,4.46416667 2.98772222,4.83938889 C2.81569444,5.14372222 2.54222222,5.33133333 2.23819444,5.33133333 C1.82325,5.33133333 1.58002778,5.01508333 1.58002778,4.54605556 C1.58002778,3.62388889 2.40747222,3.45644444 3.19030556,3.45644444 L3.19030556,3.69080556 L3.19030556,3.69080556 Z" id="Fill-8" fill="#333E47"></path>
                    <path d="M49.78325,8.338 C49.78325,8.19713889 49.78325,8.07063889 49.78325,7.92977778 C49.78325,7.81366667 49.8403889,7.73330556 49.9616944,7.74063889 C50.1881111,7.77272222 50.5080278,7.8045 50.7350556,7.75775 C51.03175,7.69633333 51.2444167,7.48580556 51.3703056,7.19766667 C51.5478333,6.79188889 51.6651667,6.46494444 51.7394167,6.25013889 L49.4868611,0.670388889 C49.4486667,0.575666667 49.4376667,0.399666667 49.6268056,0.399666667 L50.4139167,0.399666667 C50.56425,0.399666667 50.6253611,0.495305556 50.6589722,0.5885 L52.2918611,5.12111111 L53.8508056,0.5885 C53.8828889,0.495916667 53.9464444,0.399666667 54.0955556,0.399666667 L54.8380556,0.399666667 C55.0256667,0.399666667 55.0152778,0.575055556 54.978,0.670388889 L52.7437778,6.42430556 C52.4544167,7.19033333 52.0694167,8.41011111 51.2019444,8.62216667 C50.7668333,8.73552778 50.2180556,8.69458333 49.896,8.55952778 C49.8144167,8.51888889 49.78325,8.41011111 49.78325,8.338" id="Fill-9" fill="#333E47"></path>
                    <path d="M48.7330556,6.00416667 C48.7330556,6.10805556 48.6478056,6.19330556 48.5436111,6.19330556 L47.9884167,6.19330556 C47.8686389,6.19330556 47.7864444,6.10652778 47.7714722,6.00416667 L47.7155556,5.62619444 C47.4601111,5.84252778 47.1472222,6.03197222 46.8074444,6.16427778 C46.1544722,6.41788889 45.4015833,6.45975 44.7635833,6.06802778 C44.3018889,5.78447222 44.0571389,5.23111111 44.0571389,4.66002778 C44.0571389,4.21819444 44.1934167,3.78002778 44.4953056,3.46163889 C44.8980278,3.02713889 45.4819444,2.81386111 46.1871667,2.81386111 C46.6131111,2.81386111 47.2223889,2.86397222 47.6660556,3.00880556 L47.6660556,2.24827778 C47.6660556,1.47491667 47.3403333,1.14002778 46.4817222,1.14002778 C45.8256944,1.14002778 45.3236667,1.23933333 44.6248611,1.45627778 C44.5133333,1.46025 44.4476389,1.37530556 44.4476389,1.27111111 L44.4476389,0.837833333 C44.4476389,0.733638889 44.5368611,0.633111111 44.6328056,0.60225 C45.1317778,0.385 45.8382222,0.249333333 46.5898889,0.224277778 C47.5688889,0.224277778 48.7330556,0.445194444 48.7330556,1.95158333 L48.7330556,6.00416667 Z M47.6660556,4.89377778 L47.6660556,3.74611111 C47.2932778,3.64436111 46.6763611,3.60219444 46.4380278,3.60219444 C46.0606667,3.60219444 45.6478611,3.69111111 45.43275,3.92333333 C45.2711111,4.09352778 45.1983889,4.33766667 45.1983889,4.57386111 C45.1983889,4.87941667 45.3041111,5.18558333 45.5506944,5.33683333 C45.8373056,5.53177778 46.2821944,5.50794444 46.7001944,5.38938889 C47.1016944,5.27541667 47.4784444,5.07375 47.6660556,4.89377778 L47.6660556,4.89377778 Z" id="Fill-10" fill="#333E47"></path>
                    <path d="M40.546,1.15713889 C41.778,1.15713889 42.1138056,2.12605556 42.1138056,3.23522222 C42.1205278,3.98322222 41.9833333,4.64963889 41.5958889,5.03158333 C41.3059167,5.31727778 40.9823333,5.39519444 40.4952778,5.39519444 C40.0613889,5.39519444 39.4909167,5.16908333 39.0643611,4.85405556 L39.0643611,1.68238889 C39.5083333,1.34138889 40.0742222,1.15713889 40.546,1.15713889 Z M38.8758333,8.53691667 L38.1318056,8.53691667 C38.0279167,8.53691667 37.9429722,8.45197222 37.9429722,8.34808333 C37.9429722,5.76491667 37.9429722,3.18175 37.9429722,0.598888889 C37.9429722,0.494694444 38.0279167,0.40975 38.1318056,0.40975 L38.7010556,0.40975 C38.8208333,0.40975 38.9027222,0.496527778 38.918,0.598888889 L38.9778889,1.00466667 C39.5110833,0.531361111 40.1973611,0.227944444 40.8515556,0.227944444 C42.6830556,0.227944444 43.2856111,1.73708333 43.2856111,3.30672222 C43.2856111,4.98575 42.3640556,6.33508333 40.8060278,6.33508333 C40.1496944,6.33508333 39.5364444,6.09277778 39.0643611,5.67202778 L39.0643611,8.34808333 C39.0643611,8.45197222 38.9794167,8.53691667 38.8758333,8.53691667 L38.8758333,8.53691667 Z" id="Fill-11" fill="#333E47"></path>
                </g>
                <g id="BHIM-UPI" transform="translate(0.000000, 6.000000)">
                    <polyline id="Fill-4" fill="#168243" points="56.4423177 0.243775785 59.3799731 5.61920307 53.2034132 10.991713 56.4423177 0.243775785"></polyline>
                    <polyline id="Fill-5" fill="#E2712B" points="54.3816464 0.243775785 57.3189212 5.61920307 51.1391903 10.991713 54.3816464 0.243775785"></polyline>
                    <path d="M12.575868,8.041754 C12.3485676,8.47885074 11.8932056,8.79519411 11.3499423,8.85785394 L3.05246124,8.85785394 L3.71939526,6.66032031 L12.0981819,6.66032031 C12.4031095,6.72906855 12.6414452,6.95281742 12.7114619,7.2336451 C12.7216092,7.29643177 12.7280782,7.36061371 12.7280782,7.42555669 C12.7280782,7.45980397 12.7245266,7.49316336 12.722624,7.52512748 C12.7216092,7.53920692 12.7216092,7.55366688 12.7199603,7.5664779 L12.575868,8.041754 Z M5.023836,2.36114542 L13.4182242,2.36114542 C13.6479347,2.41315054 13.8407341,2.55166176 13.9521012,2.73647021 C13.9920564,2.86572197 14.0161563,3.00207687 14.0161563,3.14274439 C14.0161563,3.21859577 14.0086726,3.292164 13.9972569,3.36319539 L13.973918,3.43422678 L13.8935003,3.70325817 C13.6778693,4.17016272 13.2013248,4.51136707 12.631171,4.57516848 L4.35195516,4.57516848 L5.023836,2.36114542 Z M13.7658975,10.6385855 C14.0561115,10.4334824 14.2452325,10.1811941 14.3359244,9.88159385 L15.3145086,6.66032031 C15.403171,6.36769635 15.3644843,6.12251121 15.1975605,5.92336963 C15.0313978,5.72562332 14.7849443,5.62605253 14.4603562,5.62605253 C14.7849443,5.62605253 15.0922819,5.52407175 15.3814811,5.32023703 C15.6691582,5.11665599 15.8576451,4.86779244 15.9460538,4.57516848 L16.923877,1.35858808 C17.018501,1.0455426 16.9867905,0.787546445 16.8269699,0.583838565 C16.668925,0.378735426 16.4199347,0.277008328 16.0839308,0.277008328 L3.33912364,0.277008328 L0.10021909,10.9433863 L12.8455336,10.9433863 C13.1708828,10.9433863 13.4782204,10.8420397 13.7658975,10.6385855 L13.7658975,10.6385855 Z" id="Fill-6" fill="#686A67"></path>
                    <polyline id="Fill-7" fill="#686A67" points="30.2740999 0.285379885 28.9928712 4.56933376 19.7998873 4.56933376 21.0798475 0.285379885 18.7935247 0.285379885 15.6138552 10.9170032 17.9008123 10.9170032 19.1773479 6.65106086 28.3714734 6.65106086 27.0944305 10.9170032 29.3812607 10.9170032 32.5609302 0.285379885 30.2740999 0.285379885"></polyline>
                    <polyline id="Fill-8" fill="#686A67" points="33.2264689 10.9513773 30.9245445 10.9513773 34.1245086 0.322163997 36.4261794 0.322163997 33.2264689 10.9513773"></polyline>
                    <polyline id="Fill-9" fill="#686A67" points="52.4303126 0.312650865 42.8806496 7.75509161 38.0127162 0.312650865 37.9692095 0.312650865 34.7889058 10.9110416 37.0752287 10.9110416 38.7962178 5.17462268 42.4435529 10.9251211 48.48046 5.8345804 46.9662229 10.9110416 49.2536874 10.9110416 52.433991 0.312650865 52.4303126 0.312650865"></polyline>
                </g>
                <g id="google-pay-or-tez" transform="translate(79.000000, 1.000000)" fill-rule="nonzero">
                    <circle id="Oval" fill="#FFFFFF" cx="10.9936108" cy="10.9936108" r="10.9936108"></circle>
                    <path d="M10.9936108,21.9872351 C8.95014521,21.9904163 6.94714424,21.4217812 5.21035818,20.3452081 L12.5749274,0.112875121 C13.8783156,0.300290416 15.1380445,0.721974831 16.2912875,1.35769603 C21.613456,4.27754114 23.5621491,10.9584705 20.642304,16.2817038 C18.7106486,19.8042594 15.0113262,21.9914811 10.9936108,21.9872351 Z" id="Path" fill="#6E7BF2"></path>
                    <path d="M7.26447241,10.9456922 C7.26766699,10.7604066 7.24849952,10.575121 7.20803485,10.3951597 L4.67792836,10.3951597 L4.67792836,11.3950629 L6.16340755,11.3950629 C6.10696999,11.7496612 5.90784124,12.0648596 5.61287512,12.2693127 L5.60755082,12.3023233 L6.40726041,12.9220716 L6.46263311,12.9273959 C6.97057115,12.4577928 7.26447241,11.7666989 7.26447241,10.9456922" id="Path" fill="#4285F4"></path>
                    <path d="M4.67792836,13.5801564 C5.40522749,13.5801564 6.01645692,13.3405615 6.46263311,12.9273959 L5.61287512,12.2682478 C5.33707648,12.4535334 5.01016457,12.547241 4.67899322,12.5376573 C3.9804453,12.5333979 3.36282672,12.0818974 3.14559535,11.417425 L3.11364956,11.4206196 L2.28199419,12.0637948 L2.2713456,12.0936108 C2.72710552,13.0061955 3.6588577,13.5812197 4.67792836,13.5801564" id="Path" fill="#34A853"></path>
                    <path d="M3.14453049,11.4184898 C3.08596321,11.2470474 3.05508228,11.0670862 3.05508228,10.8849952 C3.05614714,10.703969 3.08596321,10.5240077 3.14240077,10.3515005 L3.14133591,10.3163601 L2.29903195,9.6625363 L2.2713456,9.67531462 C1.88799613,10.4366893 1.88799613,11.3333011 2.2713456,12.0946757 L3.14453049,11.4184898" id="Path" fill="#FBBC05"></path>
                    <path d="M4.67792836,9.23339787 C5.06447241,9.22700871 5.43717328,9.37076476 5.71936108,9.63484995 L6.47967086,8.89264279 C5.99196515,8.43475315 5.34559535,8.18451113 4.6768635,8.19196515 C3.65779284,8.19196515 2.72604066,8.76592449 2.26921588,9.67744434 L3.14027106,10.3536302 C3.35963214,9.68915779 3.97831559,9.23765731 4.67792836,9.23339787" id="Path" fill="#EB4335"></path>
                    <path d="M11.5058083,11.1852856 L11.5058083,13.1435624 L10.8796709,13.1435624 L10.8796709,8.30590513 L12.539787,8.30590513 C12.9391094,8.29738625 13.3267183,8.44753146 13.6152953,8.72439497 C14.1807357,9.24511133 14.2169409,10.1268151 13.6951597,10.6922556 C13.6696031,10.7199419 13.6429816,10.7465634 13.6152953,10.77212 C13.3256534,11.0468538 12.9391094,11.1948693 12.539787,11.1842207 L11.5058083,11.1852856 L11.5058083,11.1852856 Z M11.5058083,8.90116167 L11.5058083,10.590029 L12.5546951,10.590029 C12.7868345,10.5974831 13.0115198,10.50697 13.1733785,10.339787 C13.5002904,10.0256534 13.5098742,9.5070668 13.1957406,9.18015489 C13.1936108,9.17802517 13.1914811,9.17589545 13.1893514,9.17376573 C13.1840271,9.16844143 13.1787028,9.16205227 13.1733785,9.15779284 C13.0125847,8.9874153 12.7878993,8.89477251 12.5546951,8.90116167 L11.5058083,8.90116167 Z M15.5054211,9.72536302 C15.968635,9.72536302 16.3338819,9.84782188 16.6011617,10.0938045 C16.8684414,10.3387222 17.0026137,10.6752178 17.0026137,11.1032914 L17.0026137,13.1435624 L16.4041626,13.1435624 L16.4041626,12.6835431 L16.3775411,12.6835431 C16.1187803,13.0615682 15.7737657,13.2511133 15.3424976,13.2511133 C15.0060019,13.2617619 14.6769603,13.146757 14.421394,12.9263311 C14.1818006,12.7261375 14.0454985,12.4279768 14.0508228,12.1159729 C14.0401742,11.796515 14.18606,11.4909003 14.4416263,11.2992256 C14.7025169,11.0969022 15.050726,10.9957406 15.4862536,10.9957406 C15.8046467,10.9840271 16.12091,11.053243 16.4041626,11.1980639 L16.4041626,11.0553727 C16.4052275,10.8424008 16.310455,10.6400774 16.1454017,10.5059051 C15.9792836,10.3578896 15.764182,10.2769603 15.5416263,10.2801549 C15.2072604,10.2727009 14.8931268,10.438819 14.7121007,10.7188771 L14.1615682,10.3738625 C14.4618587,9.94152953 14.9101646,9.72536302 15.5054211,9.72536302 L15.5054211,9.72536302 Z M14.6950521,12.1298161 C14.6939981,12.2906099 14.7717328,12.4418199 14.9016457,12.5355276 C15.0400774,12.6441433 15.2125847,12.7005808 15.3882865,12.6973863 C15.6523717,12.6973863 15.9047435,12.59303 16.0921588,12.4066796 C16.2891578,12.2352372 16.4030978,11.98606 16.4030978,11.7241045 C16.2071636,11.5696999 15.9356244,11.4919652 15.5863504,11.4919652 C15.3606002,11.4834463 15.1369797,11.5473379 14.9506292,11.6740561 C14.7940949,11.774153 14.6982575,11.9445305 14.6950521,12.1298161 L14.6950521,12.1298161 Z M20.4389158,9.8339787 L18.3496612,14.6024201 L17.7032914,14.6024201 L18.4785092,12.9337851 L17.1037754,9.83291384 L17.7842207,9.83291384 L18.7777348,12.2107454 L18.7915779,12.2107454 L19.7574056,9.83291384 L20.4389158,9.8339787 Z" id="Shape" fill="#FFFFFF"></path>
                </g>
            </g>
        </g>
    </g>
</svg>