<svg height="43" viewBox="0 0 66 43" width="66" xmlns="http://www.w3.org/2000/svg"><g fill="none" fill-rule="evenodd"><path d="m4 0h58c2.209139 0 4 1.790861 4 4v35c0 2.209139-1.790861 4-4 4h-58c-2.209139 0-4-1.790861-4-4v-35c0-2.209139 1.790861-4 4-4z" fill="#fff"/><g transform="translate(12 15)"><g fill="#00579f"><path d="m16.7081514 0-2.3081514 11.8181818h3.6902919l2.3097081-11.8181818z"/><path d="m30.4843875.55553333c-.6727159-.2547037-1.7267727-.5277037-3.0433295-.5277037-3.3549887 0-5.7186819 1.70444444-5.7387273 4.14724074-.0188523 1.8057963 1.6873977 2.8132963 2.9753182 3.41442593 1.3215681.61581481 1.7659091 1.0087037 1.7597045 1.55879629-.0083523.84235185-1.0554886 1.22729631-2.0315114 1.22729631-1.359034 0-2.080909-.1904259-3.1960568-.65962964l-.4376591-.19981482-.4765568 2.81329626c.7932273.3507593 2.2596477.6548149 3.7823864.670463 3.5692841 0 5.8864432-1.6849444 5.9129318-4.29361111.0126477-1.42951852-.8920227-2.51766666-2.8509886-3.41442592-1.1867387-.58138889-1.913625-.96946297-1.9059887-1.55807408 0-.5224074.6152046-1.08092592 1.9444091-1.08092592 1.1106137-.01733334 1.9148182.22677777 2.5414773.48148148l.3042614.14492592z"/><path d="m35.0044943 8.3584463c.280875-.72414815 1.3528296-3.51312963 1.3528296-3.51312963-.0200455.03346296.2787272-.72751852.4503068-1.19937037l.2295682 1.08357407s.6500454 2.99987037.7860681 3.62892593zm4.1871137-8.10020371h-2.6238069c-.8127954 0-1.4210795.22364815-1.7780795 1.04216667l-5.0428636 11.51703704h3.5654659s.5832272-1.5484444.7149545-1.8883704c.3896932 0 3.8535.0052963 4.3486705.0052963.1016591.4398334.4130795 1.8830741.4130795 1.8830741h3.1507159z"/><path d="m11.9270455.25530556-3.32444323 8.57012963-.35413636-1.74175926c-.61878409-2.00777778-2.54696591-4.18287037-4.70280682-5.27174074l3.03975 10.99077781 3.59267041-.0040926 5.3456932-12.54331484z"/></g><path d="m5.51870455.2475537h-5.47527273l-.04343182.26144445c4.25989773 1.04024074 7.07843182 3.55429629 8.24846591 6.57462963l-1.19055682-5.77512963c-.20570454-.79564815-.80181818-1.03325926-1.53920454-1.06094445" fill="#f9a51a"/></g></g></svg>