<svg height="17" viewBox="0 0 16 17" width="16" xmlns="http://www.w3.org/2000/svg"><g fill="none" fill-rule="evenodd"><rect fill="#11248a" height="16.61" rx="2" width="16"/><g fill="#29c24c"><path d="m3 12h2v4.61h-2z"/><path d="m11 12h2v4.61h-2z"/><path d="m7 12h2v4.61h-2z"/></g><path d="m4.92382812 10.234375c.06640659-.46875234.09960938-1.16991721.09960938-2.10351562 0-1.8593843-.08300698-3.21874571-.24902344-4.078125-.16601645-.8593793-.43066224-1.2890625-.79394531-1.2890625-.23437617 0-.46093641.12304564-.6796875.36914062s-.35546848.53124838-.41015625.85546875c-.16015705-.03515643-.24023438-.10546822-.24023438-.2109375 0-.39843949.19238089-.8134744.57714844-1.24511719.38476755-.43164278.75488104-.64746094 1.11035156-.64746094.3593768 0 .63183501.13769394.81738282.41308594.1855478.275392.346679.78222287.48339844 1.52050782.20703228 1.09766173.31054687 2.36327408.31054687 3.796875l.00585937.41015624.84375-1.640625.375-.72070312.54492188-1.07226562c.31250156-.60937805.52148385-1.09765442.62695312-1.46484376l.89648438-.85546874c-.02734389.29687648-.04101562.55078019-.04101562.76171874 0 .66406583.13476427 1.72460209.40429687 3.18164063l.0703125.38085937.1171875.609375c.07812539.41797084.15624961.86913821.23437505 1.35351563.1132818-.21093855.1835936-.34765594.2109374-.41015625l.4746094-.984375.5742188-1.16601562c.4765649-.9882862.7148437-1.75976286.7148437-2.31445313 0-.37500188-.1542953-.66015527-.4628906-.85546875l.8613281-.94335938c.3984395.26172006.5976563.57617004.5976563.94335938 0 .48828369-.4101522 1.53905443-1.2304688 3.15234375-.1367194.2695326-.3007803.59765432-.4921875.984375l-.2519531.515625-.2578125.59179687-.3398438.76171876c-.0273438.06640658-.0898432.22265501-.1875.46875l-.9023437.95507812-.0234375-.2578125c-.07812539-.8203166-.2246083-1.79101002-.43945312-2.91210938l-.0703125-.3515625-.09960938-.52148437c-.07421912-.37890814-.12304676-.65624912-.14648438-.83203125l-.11132812-.80273438c-.00781254-.05859404-.02734359-.19531142-.05859375-.41015624l-.79101563 1.5703125-.32226562.63867187c-.5898467 1.15625578-1.04101406 2.11913678-1.35351562 2.88867187z" fill="#fff"/></g></svg>