<svg xmlns="http://www.w3.org/2000/svg" width="19" height="14" viewBox="0 0 19 14">
    <g fill="none" fill-rule="evenodd">
        <g fill="#212121" fill-rule="nonzero">
            <g>
                <g>
                    <path d="M298.5 19c2.676 0 5.018 1.27 7.01 3.357.684.717 1.278 1.483 1.782 2.249.304.463.513.828.624 1.046.112.22.112.477 0 .696-.11.218-.32.583-.624 1.046-.504.766-1.098 1.532-1.782 2.25C303.518 31.73 301.176 33 298.5 33s-5.018-1.27-7.01-3.357c-.684-.717-1.278-1.483-1.782-2.249-.304-.463-.513-.828-.624-1.046-.112-.22-.112-.477 0-.696.11-.218.32-.583.624-1.046.504-.766 1.098-1.532 1.782-2.25C293.482 20.27 295.824 19 298.5 19zm0 1.556c-2.173 0-4.136 1.063-5.855 2.865-.614.644-1.152 1.337-1.607 2.029-.13.196-.244.38-.343.55.1.17.214.354.343.55.455.692.993 1.385 1.607 2.03 1.72 1.8 3.682 2.864 5.855 2.864 2.173 0 4.136-1.063 5.855-2.865.614-.644 1.152-1.337 1.607-2.029.13-.196.244-.38.343-.55-.1-.17-.214-.354-.343-.55-.455-.692-.993-1.385-1.607-2.03-1.72-1.8-3.682-2.864-5.855-2.864zm0 2.333c1.749 0 3.167 1.393 3.167 3.111 0 1.718-1.418 3.111-3.167 3.111-1.749 0-3.167-1.393-3.167-3.111 0-1.718 1.418-3.111 3.167-3.111zm0 1.555c-.874 0-1.583.697-1.583 1.556 0 .86.709 1.556 1.583 1.556s1.583-.697 1.583-1.556c0-.86-.709-1.556-1.583-1.556z" transform="translate(-846 -396) translate(485 184) translate(72 88) translate(0 105)"/>
                </g>
            </g>
        </g>
    </g>
</svg>
