<svg xmlns="http://www.w3.org/2000/svg" width="19" height="19" viewBox="0 0 19 19">
    <g fill="none" fill-rule="evenodd">
        <g fill="#000">
            <g>
                <g>
                    <path d="M289.232 16.232c.309-.31.81-.31 1.12 0l17.416 17.417c.31.309.31.81 0 1.12-.309.308-.81.308-1.12 0l-3.536-3.537c-1.37.881-2.963 1.366-4.612 1.393-2.676 0-5.018-1.292-7.01-3.417-.684-.73-1.278-1.51-1.782-2.289-.304-.471-.513-.842-.624-1.065-.115-.23-.112-.502.01-.728.896-1.67 2.09-3.157 3.522-4.39l-3.384-3.385c-.31-.309-.31-.81 0-1.12zm4.508 5.627c-1.217 1.03-2.247 2.262-3.044 3.644.1.171.214.358.342.557.455.705.993 1.41 1.607 2.065 1.72 1.834 3.682 2.917 5.842 2.917 1.226-.02 2.42-.353 3.473-.961l-1.838-1.838c-.724.454-1.614.602-2.465.384-1.122-.286-1.998-1.162-2.284-2.284-.218-.851-.07-1.74.384-2.465zm4.76-3.484c2.676 0 5.018 1.292 7.01 3.417.684.73 1.278 1.51 1.782 2.289.304.471.513.842.624 1.065.115.23.112.5-.01.727-.506.948-1.11 1.84-1.802 2.662-.281.335-.78.378-1.115.096-.335-.281-.378-.78-.096-1.115.53-.63 1.002-1.305 1.411-2.018-.1-.172-.213-.359-.342-.558-.455-.705-.993-1.41-1.607-2.065-1.72-1.834-3.682-2.917-5.857-2.917-.498 0-.995.056-1.48.17-.426.1-.852-.165-.951-.59-.1-.427.164-.853.59-.952.605-.142 1.224-.212 1.843-.211zm-1.561 6.684c-.095.283-.109.592-.032.892.143.561.581 1 1.142 1.142.3.077.609.063.892-.032z" transform="translate(-846 -393) translate(485 184) translate(72 88) translate(0 105)"/>
                </g>
            </g>
        </g>
    </g>
</svg>
