<svg xmlns="http://www.w3.org/2000/svg" width="387" height="206" viewBox="0 0 387 206">
    <g fill="none" fill-rule="evenodd">
        <g>
            <g>
                <g>
                    <path fill="#FFEFB1" d="M201.587 187.483c53.72 7.869 122.254 17.077 154.527-8.199 23.956-18.762 41.17-45.203 21.393-84.853-15.672-31.42-85.457-11.557-122.2-31.69-31.015-16.993-102.877-54.496-146.3-59.31C25.765-5.799-20.218 63.801 8.633 115.083c16.22 28.83-.134 53.955 39.539 81.328 39.673 27.373 105.263-15.982 153.415-8.928z" transform="translate(-526 -301) translate(478 253) translate(48 48) matrix(-1 0 0 1 386.138 0)"/>
                    <g>
                        <path fill="#E92C47" fill-rule="nonzero" d="M231.856 107.878c2.136-2.71 4.606-5.115 6.958-7.624 3.265-3.545 6.764-6.867 10.471-9.943 3.074-2.511 5.981-5.24 9.247-7.512.907-.63 1.736-1.4 2.856-1.659.32-.075.466-.355.662-.57.916-.996 1.94-1.831 3.27-2.192.382-.138.718-.381.97-.701.763-.817 1.72-1.425 2.781-1.766.611-.19 1.164-.417 1.552-1.028.37.589.553 1.277.523 1.973-.029 2.494-.438 4.932-.875 7.388-.366 2.065-.87 4.104-1.178 6.177-.158 1.072-.264 2.146-.822 3.091-.39.66-.044 1.432-.34 2.058-1.09 2.31-1.17 4.93-2.378 7.237-.618 1.184-.586 2.74-1.144 4.026-1.94 4.436-3.52 9.013-5.85 13.295-1.598 2.935-2.96 6.031-4.563 8.988-.491.96-1.119 1.841-1.862 2.619-.257.266-.452.587-.572.938-.917 2.482-2.766 4.399-4.122 6.615-.667 1.144-1.395 2.25-2.182 3.313-1.374 1.788-2.722 3.583-4.228 5.279-1.05 1.179-2.027 2.508-2.994 3.8-1.76 2.35-3.525 4.667-5.916 6.42-.317.244-.383.617-.55 1.02.589.103.989-.16 1.365-.513.322-.305.61-.702.996-.87 1.375-.601 2.604-1.503 3.923-2.121 1.399-.655 2.64-1.542 4.008-2.217 6.356-3.142 12.83-6.007 19.562-8.267 3.853-1.293 7.715-2.577 11.681-3.398 3.3-.682 6.546-1.62 9.902-2.056 1.736-.226 3.518-.54 5.205-.601 1.94-.071 3.88-1.036 5.858-.31.383.141.654-.312 1.03-.316v1.337c-.253.89-.664 1.728-1.212 2.472-1.571 2.287-3.336 4.424-5.002 6.638-1.141 1.487-2.362 2.91-3.656 4.265-1.367 1.461-2.514 3.166-4.28 4.294-.942.595-1.42 1.79-2.32 2.514-3.132 2.526-5.961 5.41-9.39 7.592-1.345.858-2.61 1.917-3.907 2.894-1.714 1.294-3.412 2.609-5.463 3.352-.377.155-.72.385-1.006.677-.216.205-.405.487-.674.575-1.854.655-3.326 2.027-5.125 2.777-1.372.57-2.538 1.503-3.891 2.126-1.417.684-2.885 1.254-4.391 1.705 4.563.083 9.162.042 13.761.526 3.152.334 6.32.67 9.436 1.255 3.727.699 7.47 1.413 11.1 2.55 2.271.714 4.528 1.486 6.802 2.193.677.214 1.212.701 1.87.974.506.21.453.628.273 1.03-.27.576-.701 1.061-1.24 1.396-1.237.811-2.544 1.5-3.839 2.217-1.418.784-2.975 1.288-4.315 2.214-.922.633-2.013.974-3.024 1.347-1.512.562-2.909 1.425-4.536 1.705-.505.112-.994.29-1.454.528-1.324.666-2.737 1.137-4.195 1.399-1.576.243-3.008 1.047-4.594 1.252-3.394.44-6.667 1.653-10.103 1.86-2.424.147-4.817.42-7.224.624-.941.078-1.909-.105-2.864.03h-1.103c-1.01.065-2.032-.137-3.038.114h-.22c-.667-.363-1.334-.159-1.998 0h-1.11c-.379-.21-.781-.124-1.184-.122-1.915 0-3.835-.207-5.736-.227-1.748-.017-3.43-.392-5.132-.557-1.702-.166-3.443-.244-5.133-.595-4.636-.925-9.31-1.705-13.82-3.166-2.2-.707-4.528-1.111-6.606-2.049-2.616-1.179-5.453-1.892-7.848-3.561-.206-.21-.434-.419-.174-.73.725-.289 1.397-.695 1.99-1.204.347-.27.645-.611.82-.677-.357.175-.941.487-1.535.794-.38.16-.728.431-1.178.395-.408-.186-.35-.446-.117-.731.128-.118.232-.258.308-.414-.097.085-.136.219-.242.297-.206.156-.383.168-.505-.102-.126-1.067.364-2.032.51-3.055.473-3.385.36-6.826-.333-10.172-.165-.816-.295-1.413-1.287-.848-.14.065-.306.024-.4-.1-.468-1.269-.565-2.62-.616-3.933-.145-3.74-.562-7.493-.216-11.22.243-2.584-.014-5.186.415-7.74.26-1.533.344-3.087.664-4.602.18-.838-.162-1.705.243-2.521.218-.46.448-.921.242-1.462-.087-.601.078-1.181.184-1.76 1.31-7.245 3.193-14.33 6.086-21.105.982-2.3 1.973-4.61 3.152-6.82.266-.571.609-1.103 1.018-1.581.485-1.157 1.273-2.143 1.804-3.26.376-.76.857-1.462 1.43-2.087.485-.543.866-.428 1.314-.026.392.342.7.77.904 1.25.822 1.948 1.266 4.02 1.748 6.072.219.935.529 1.841.728 2.784.53 2.385.77 4.813 1.166 7.215.47 2.881.727 5.814.4 8.769-.107.955.15 1.917.14 2.886-.002 1.67-.165 3.334-.484 4.972-.214 1.047.155 2.192-.485 3.2 2.05-3.234 3.704-6.674 5.576-9.987 1.055-1.875 1.988-3.821 3.484-5.41.321-.36.569-.782.727-1.24.058-.256.155-.502.286-.73 1.528-1.898 2.5-4.18 4.122-6.014.504-.541.919-1.16 1.23-1.832.702-1.62 1.847-2.962 2.933-4.316 2.342-2.923 4.398-6.07 7.001-8.77.34-.362.582-.815 1.094-.913z" transform="translate(-526 -301) translate(478 253) translate(48 48) translate(20.8 .459)"/>
                        <path fill="#F9D12B" fill-rule="nonzero" d="M100.898.783c1.463.527 3.033.503 4.555.642 4.388.4 8.777.873 13.053 2.023 2.977.8 5.925 1.65 8.587 3.26 1.083.654 2.336.676 3.52.953 1.304.28 2.566.728 3.753 1.333.38-.146.62.075.85.32.681 1.258 1.261 2.568 1.97 3.813.108.228.19.467.245.713.521 1.424 1.477 2.64 1.97 4.082.121.355.275.88.809.742.534-.139 1.41-.358 1.477-.837.086-.605-.243-1.335-.6-1.928-.563-.973-.975-1.989-1.489-2.976-.095-.187-.244-.387-.03-.598 2.595.527 4.862 1.731 6.932 3.338.261.202.47.486.822.545.104.024.18.113.188.219.797.964 1.805 1.732 2.947 2.246 1.068.462 2.114 1.012 2.943 1.87-.263.328-.612.178-.931.156-2.003-.138-4.015.02-5.971.471-.698.134-1.362.407-1.95.805-.33.242-.69.438-1.071.584-4.464 1.626-6.583 5.176-7.314 9.526-.364 2.162.473 4.377 1.402 6.434.136.304.329.58.46.887.054.288.054.583 0 .87-.005.348-.028.694-.07 1.039-.561 1.524.063 2.995.214 4.486.1.416.234.823.403 1.216.431 1.278 1.462 2.202 2.03 3.404.14.266.367.476.644.593.82.374 1.463.972 2.112 1.57.216.12.442.222.675.304.342.194.7.356 1.07.487.24.075.485.136.732.185.35.092.704.165 1.058.243.358.101.73.14 1.102.116.168-.006.337 0 .504.015.291 0 .563.14.732.377.37.992.4 2.023.344 3.063.031.23.046.463.044.696-.066.841-.178 1.68-.256 2.519-.196 2.09-1.4 3.477-3.27 4.34-2.26.824-4.654.654-6.987.931-.842.1-1.675.229-2.512.36-.687.11-1.39.243-2.043-.156-.341-.452-.285-.984-.285-1.497 0-4.18-.13-8.37.039-12.544.122-2.96.244-5.916.154-8.87-.093-3.076-.473-6.113-1.951-8.919-.758-1.43-2.05-2.314-3.08-3.464-.114-.562-.487-.82-1.004-1.05-2.604-1.21-5.457-1.794-8.328-1.703-3.15.105-6.305.2-9.46.027-3.343-.182-6.683.197-10.023.058-4.632-.19-9.265.061-13.917-.026-5.12-.098-10.24.1-15.36.034-2.962-.04-5.929 0-8.896-.083-3.657-.092-7.349-.35-10.986.287-4.07.715-7.314 2.616-9.365 6.404-.753 1.396-1.37 2.775-1.655 4.314-.118.436-.412.804-.812 1.016-1.417.73-1.975 2.047-2.39 3.45-.65 2.189-.604 4.457-.487 6.709.142 1.914.46 3.811.95 5.667.279 1.143.954 1.855 1.795 2.529.115.354.165.725.149 1.097.058 3.182.078 6.367.158 9.553.08 3.063.103 6.141.105 9.212 0 5.632-.044 11.26-.051 16.89 0 7.216-.085 14.437-.276 21.639-.148 5.634-.021 11.262-.156 16.891.025.48-.012.963-.11 1.435-.202.55-.56.425-.843.121-.71-.754-1.55-1.378-2.097-2.293-.654-1.13-1.594-2.071-2.725-2.728-.161-.092-.376-.172-.437-.333-.522-1.354-1.845-1.998-2.78-2.959-.89-.917-1.799-1.945-3.032-2.516-.268-.133-.514-.304-.732-.509-1.523-1.359-3.037-2.764-4.79-3.86-.649-.407-1.41-.852-2.066-.36-.548.413-.592 1.31-.475 1.957.463 2.55.393 5.164.875 7.693.29 1.532.395 3.16 1.195 4.576.063.093.099.201.102.313-.122 1.912.673 3.609 1.17 5.388.927 3.322 2.141 6.522 3.377 9.726 1.07 2.777 2.482 5.381 3.619 8.116.211.6.6 1.122 1.114 1.498.06.041.144.088.16.148.51 1.763 1.795 3.161 2.3 4.934.04.083.046.18.013.267-.032.087-.098.158-.184.195-.244.112-.62.146-.731-.063-.632-1.185-2.173-1.216-2.868-2.325-.394-.637-1.126-.948-1.765-1.33-1.584-.94-3.328-1.612-4.756-2.823-.661-.559-1.541-.73-2.295-1.113-.682-1.002-.885-2.189-1.3-3.3-2.379-6.358-4.7-12.738-5.85-19.466-.225-1.308-.522-2.619-.264-3.968.11-.567-.127-1.094-.331-1.614-.94-2.408-1.546-4.888-1.376-7.49.154-2.331-.536-4.553-.768-6.837-.414-4.201-.48-8.43-.197-12.643.112-1.748.268-3.453.836-5.128.312-.917-.05-1.918-.16-2.862-.335-2.832.114-5.543 1.082-8.181.392-.962.574-1.997.534-3.035-.235-3.424.49-6.846 2.092-9.884.225-.389.343-.83.343-1.279-.129-2.842.705-5.507 1.578-8.145 1.48-4.469 2.926-8.955 5.5-12.974.683-1.072 1.014-2.305 1.4-3.504.556-1.696 1.423-3.275 2.557-4.656 1.154-1.407 2.116-2.96 2.86-4.62 1.087-2.463 2.584-4.67 4.74-6.365.489-.4.89-.897 1.177-1.46 1.541-2.817 3.572-5.18 6.3-6.926.82-.525 1.434-1.282 2.058-2.023 1.782-2.12 3.745-4.036 6.354-5.126 1.506-.632 2.628-1.743 3.871-2.737 2.592-2.072 5.54-3.599 8.556-4.973 3.12-1.403 6.375-2.49 9.713-3.246 1.95-.454 3.73-1.459 5.722-1.84C81.703 1.768 85.711.98 89.812.93c1.302-.05 2.605-.012 3.901.112 1.534.185 3.019-.054 4.516-.26h.221c.733.19 1.501.19 2.234 0h.214z" transform="translate(-526 -301) translate(478 253) translate(48 48) translate(20.8 .459)"/>
                        <path fill="#4EA9B7" fill-rule="nonzero" d="M0 151.143c.836.242 1.753.242 2.446.892.105.091.245.13.382.107 1.587-.656 2.932.263 4.398.524 1.13.201 2.11 1.038 3.326.774.067-.014.178-.017.21.022.792.967 2.277.285 3.05 1.3.176.243.454.18.724.175.27-.005.587-.053.75.08 1.617 1.352 4.003 1.093 5.51 2.66 1.297.384 2.5 1.035 3.531 1.91.804.64 1.872 1.003 2.804 1.528 1.123.631 2.333 1.125 2.949 2.37.145.297.408.27.662.285.577-.014 1.088.37 1.236.929.167.61.585.556 1.123.546-.454-.607-.9-1.175-.78-1.949.034-.23-.1-.45-.319-.527-.766-.347-1.204-1.166-1.07-1.997.025-.227 0-.45-.241-.559-.828-.358-1.125-1.15-1.45-1.879-1.822-4.125-3.776-8.18-5.225-12.48-.966-2.855-1.725-5.762-2.657-8.615-.162-.493-.203-1.018-.118-1.53.029-.177.12-.407.043-.525-1.017-1.591-.937-3.48-1.427-5.214-.225-.795-.391-1.661.024-2.483.15-.298-.058-.484-.203-.692-.514-.613-.591-1.482-.193-2.176.034-.065.109-.17.09-.193-.928-1.156-.341-2.491-.394-3.816 2.248-.84 3.651.824 5.153 2.106.469.401 1.092.684 1.425 1.054.95 1.052 2.367 1.512 3.14 2.69.19.29.312.529.686.61.63.137 1.141.597 1.343 1.21.11.356.391.633.748.74.658.175 1.162.706 1.302 1.373.017.26.172.49.406.605 1.536.638 2.5 1.879 3.328 3.247.558.924 1.548 1.43 2.159 2.295.464.058.7.423.877.764 1.026 2.002 2.622 3.58 3.907 5.385.568.8 1.135 1.63 1.297 2.646.078.402.32.753.67.967.442.275.742.73.823 1.245.045.4 0 .835.417 1.088.322.242.672.506.81.893.78 2.176 2.361 3.932 2.977 6.246.32 1.209.843 2.575 1.826 3.607-.437-1.131-.19-2.275-.188-3.421 0-2.396.287-4.769.536-7.131.215-2.029.647-4.058.949-6.086.442-2.958 1.664-5.695 2.152-8.626.094-.505.261-.994.497-1.45.807-1.63 1.362-3.36 2.036-5.042.674-1.683 1.964-1.833 3.328-.639.43.412.748.926.923 1.495.724 2.03 1.644 3.975 2.485 5.948.9 2.118 1.531 4.326 2.152 6.498.591 2.074 1.18 4.22 1.277 6.458.058 1.323.413 2.672.679 4 .176.878.275 1.748 0 2.623-.108.357-.083.74.072 1.079.1.242.242.484.206.74-.35 1.959.101 3.9.145 5.85.019.887-.418 1.692-.392 2.543.37.12.483-.123.566-.295.724-1.584 1.864-2.902 2.675-4.432.766-1.451 1.884-2.629 2.829-3.935 1.635-2.26 3.68-4.188 5.554-6.262.978-1.091 2.157-1.974 3.319-2.861.226-.187.428-.4.603-.636.484-.642 1.33-.892 2.085-.617.765.242 1.159.762 1.333 1.587.309 1.45-.16 2.843-.242 4.258-.06 1.56-.236 3.112-.529 4.645-.352 1.669-.212 3.429-.997 5.02-.391.796-.242 1.739-.587 2.573-.256.604-.792 1.088-.782 1.804-.59 1.562-.87 3.209-1.867 4.667-.518.773-.9 1.63-1.13 2.531-.133.54-.346 1.106-1.124.76-.533-.953-.582-2.044-.83-3.076-.462-1.893-.918-3.787-1.45-5.724-.483.206-.618.605-.823.922-2.773 4.24-4.48 8.947-5.946 13.751-1.022 3.352-1.758 6.77-2.463 10.205-.03.145.012-.034-.017.108-.092.43-.14 1.076-.619 1.045-.524-.036-.422-.694-.42-1.11.034-6.074-1.403-11.834-3.748-17.384-.98-2.427-2.217-4.742-3.693-6.903-.483 1.4-.925 2.621-1.256 3.869-.848 3.281-1.38 6.637-1.586 10.02-.367 5.468.29 10.8 1.632 16.076.2.788.418 1.57 1.017 2.176-.178.094-.346.205-.502.331.297.687-.039.554-.447.37-.314-.14-.469 0-.568.307-.04.129 0 .598-.306.242-.307-.355-1.259.242-1.039-.638.135-.535-.034-.59-.405-.755-3.69-1.632-7.487-3.015-11.221-4.519-2.01-.796-3.976-1.695-5.893-2.694-1.746-.919-3.523-1.801-5.24-2.778-2.382-1.354-4.7-2.822-7.045-4.246-.528-.272-.956-.705-1.222-1.236-.101-.286-.37-.479-.672-.484-.71 0-1.207-.314-1.403-1.01-.05-.265-.297-.443-.563-.407-.777.025-1.222-.399-1.449-1.12-.05-.17-.118-.367-.338-.386-1.475-.119-2.173-1.369-3.214-2.14-1.69-1.253-3.14-2.778-4.657-4.203-1.5-1.404-2.924-2.889-4.262-4.449-.73-.875-1.495-1.722-2.179-2.619-1.632-2.12-3.14-4.333-4.695-6.529-.241-.355-.483-.74-.413-1.22.062-.265-.098-.53-.36-.598-.658-.223-1.049-.902-.91-1.584.017-.128 0-.363-.075-.387-1.37-.498-1.19-1.92-1.75-2.901L0 151.143z" transform="translate(-526 -301) translate(478 253) translate(48 48) translate(20.8 .459)"/>
                        <path fill="#F38795" fill-rule="nonzero" d="M236.6 203.707c.83-.45 1.696-.139 2.546-.192.05.046.066.092.046.133-.02.042-.04.059-.058.059H236.6z" transform="translate(-526 -301) translate(478 253) translate(48 48) translate(20.8 .459)"/>
                        <path fill="#FCE4E6" fill-rule="nonzero" d="M234 203.785c.865-.309 1.732-.73 2.6 0H234z" transform="translate(-526 -301) translate(478 253) translate(48 48) translate(20.8 .459)"/>
                        <path fill="#F7CD81" fill-rule="nonzero" d="M101.4.651c-.818.35-1.782.35-2.6 0h2.6z" transform="translate(-526 -301) translate(478 253) translate(48 48) translate(20.8 .459)"/>
                        <path fill="#F7B9C1" fill-rule="nonzero" d="M239.2 203.679c-.002-.065.003-.129.018-.192h1.282c-.012.06-.019.123-.02.185l-1.28.007z" transform="translate(-526 -301) translate(478 253) translate(48 48) translate(20.8 .459)"/>
                        <path fill="#382918" fill-rule="nonzero" d="M137.357 39.665c-1.39-1.598-1.455-3.671-1.989-5.585-1.028-3.783 2.869-9.835 6.046-11.348 3.118-1.483 6.305-2.797 9.891-2.366.485.056.948.117 1.424.176 1.314.521 2.667.945 4.001 1.37 1.6.51 3.378 1.383 4.544 2.575 1.742 1.779 4.101 2.839 5.479 5.004 1.377 2.166 3.334 3.69 5.11 5.424 3.152 3.07 6.886 4.786 11.31 5.254 3.152.335 6.081-.304 9.016-1.224.6-.19 1.193-.401 1.835-.36.11 0 .274.047.323 0 1.038-1.164 2.638-1.238 3.846-2.014 1.634-1.092 3.437-1.903 5.335-2.398 1.15-.276 2.136-.864 3.196-1.133 1.65-.416 3.41-.81 5.068-.812 1.35-.005 2.7.094 4.036.296 2 .308 3.763 1.223 5.533 2.347 1.645 1.03 2.877 2.447 4.397 3.546.058.041.143.066.182.124 1.154 1.819 2.966 3.226 3.363 5.519.026.256.113.503.255.717.883 1.062 1.326 2.202.931 3.615-.162.582.485.942.6 1.51.254 1.41.46 2.846.169 4.228-.524 2.494-.63 5.09-1.71 7.457-.031.066-.034.15-.07.21-1.94 3.339-3.584 6.892-6.586 9.486-.79.683-1.574 1.356-2.615 1.62-.357.103-.661.341-.848.666-.228.335-.468.756-.803.905-1.576.705-3.029 1.728-4.608 2.31-1.29.49-2.512 1.1-3.79 1.589-1.477.863-3.106 1.079-4.772 1.128-.294 0-.6-.09-.883 0-2.364.78-4.82.38-7.231.57-.74.049-1.484-.055-2.183-.306-.58-.245-.572-.817-.706-1.307-.807-2.958-1.787-5.839-3.637-8.337-1.202-1.623-2.818-2.886-4.675-3.654-3.223-1.366-6.572-2.227-10.115-2.093-2.357.089-4.724-.166-7.076.194-.408.061-.824-.006-1.191-.194-1.615-.827-3.298-1.497-4.974-2.18-.24-.098-.458-.247-.638-.436-3.557-2.976-4.428-7.442-6.183-11.411-1.09-2.467-2.306-4.814-4.365-6.62-1.237-1.084-2.695-1.48-4.28-1.542-1.657-.063-3.318.128-4.97-.159-1.697-.296-3.19-.905-4.253-2.342-.15-.056-.153-.45-.441-.186-.076.09-.182.15-.298.167z" transform="translate(-526 -301) translate(478 253) translate(48 48) translate(20.8 .459)"/>
                        <path fill="#F9D12B" fill-rule="nonzero" d="M195.36 79.955c1.829.204 3.642.119 5.487.043 3.258-.142 6.499-.548 9.69-1.215 7.973 5.61 13.73 13.072 18.079 21.707 1.167 2.322 1.908 4.811 2.784 7.247-3.399 3.89-6.508 8.037-9.613 12.175-.556.744-1.1 1.49-1.357 2.4-.012.074-.044.144-.092.202-1.7 1.434-2.387 3.59-3.76 5.248-.622.75-1.202 1.488-1.518 2.431-.113.43-.314.83-.59 1.177-2.116 2.249-3.335 5.052-4.799 7.697-1.588 2.866-3.083 5.781-4.823 8.616-.243-.538-.29-1 .024-1.488.167-.245.26-.534.264-.832-.128-2.499.617-4.925.486-7.441-.177-3.52.148-7.082-.503-10.558-.456-2.432-.662-4.887-1.242-7.294-.697-2.917-1.394-5.815-2.326-8.66-.235-.748-.741-1.382-1.42-1.774-.362.659-1.29.902-1.457 1.629-.318 1.473-1.86 2.307-1.92 3.89 0 .06-.175.116-.267.175-.245-.237-.363-.576-.318-.914.07-1.676-.204-3.329-.243-4.994.029-.482-.005-.966-.102-1.44-.452-1.493-.491-3.082-.114-4.596.326-1.338.102-2.655-.22-3.958-.274-.969-.304-1.99-.086-2.974.423-1.701.229-3.388-.201-5.054-.257-.893-.27-1.84-.039-2.74.641-2.392.046-4.791 0-7.186.005-.542-.204-1.062.197-1.52z" transform="translate(-526 -301) translate(478 253) translate(48 48) translate(20.8 .459)"/>
                        <path fill="#E92D47" fill-rule="nonzero" d="M146.68 16.383l-.187-.221c-.167-3.925-.281-7.872-.793-11.775-.075-.57.216-1.158-.087-1.717-.017-.034-.017-.075 0-.108.684-.7 1.583-.231 2.36-.444.579-.162.596.272.598.645.022 2.105.3 4.195.323 6.304.014 1.553.242 3.106.45 4.65.088.693-.109 1.39.127 2.077.138.405-.243.385-.485.41-.76.068-1.533.117-2.306.179z" transform="translate(-526 -301) translate(478 253) translate(48 48) translate(20.8 .459)"/>
                        <path fill="#E92C44" fill-rule="nonzero" d="M140.105 12.52c.692 1.524 1.89 2.843 2.224 4.51.071.36 1.075.464.488.9-.68.467-1.45.818-2.27 1.033-.424.13-.584-.403-.704-.695-.59-1.455-1.706-2.713-2.152-4.235.217-.304.033-.464-.256-.605-.83-1.183-1.532-2.435-2.098-3.74.033-.4-.495-.3-.615-.562-.256-.505 0-1.186-.695-1.534-.076-.04-.155-.231-.117-.278.551-.73 1.532-.82 2.297-1.244.498-.275.567.165.69.438.86 1.904 2.2 3.607 2.851 5.6.059.152.238.275.357.412z" transform="translate(-526 -301) translate(478 253) translate(48 48) translate(20.8 .459)"/>
                        <path fill="#E92D47" fill-rule="nonzero" d="M155.897 15.066c-.235-.757.3-1.355.58-1.916.878-1.767 1.402-3.662 2.113-5.487.19-.195.472-.354.27-.705 0-.772.824-1.236.742-2.044 0-.03.032-.078.062-.094.962-.49 1.593.477 2.427.581.433.053.495.379.312.74-1.064 2.05-1.623 4.308-2.573 6.414-.483 1.075-1.005 2.221-1.223 3.435-.18.207-.455.376-.275.727-.03.785-.853 1.262-.777 2.09-.003.04-.027.076-.062.094-.942.346-1.578-.505-2.405-.644-.468-.073-.45-.444-.272-.742.247-.42.22-.96.601-1.308.126-.393.512-.674.48-1.14z" transform="translate(-526 -301) translate(478 253) translate(48 48) translate(20.8 .459)"/>
                        <path fill="#F17D8C" fill-rule="nonzero" d="M156.92 15.083c1.14.831-.622.863-.915 1.3-.05-.501.29-.987.915-1.3z" transform="translate(-526 -301) translate(478 253) translate(48 48) translate(20.8 .459)"/>
                        <path fill="#F38E9D" fill-rule="nonzero" d="M158.63 16.383c-.18-.077-.381-.163-.318-.614.075-.537.318-.677.588-.686l-.27 1.3z" transform="translate(-526 -301) translate(478 253) translate(48 48) translate(20.8 .459)"/>
                        <path fill="#F59F93" fill-rule="nonzero" d="M134.017 9.586c.534.095 1.55-.075 1.047.593l-1.164-.36c.035-.077.074-.155.117-.233z" transform="translate(-526 -301) translate(478 253) translate(48 48) translate(20.8 .459)"/>
                        <path fill="#F38D9D" fill-rule="nonzero" d="M159.865 7.283c.177.069.389.128.323.602-.073.48-.329.776-.588.68l.265-1.282z" transform="translate(-526 -301) translate(478 253) translate(48 48) translate(20.8 .459)"/>
                        <path fill="#4EA9B7" fill-rule="nonzero" d="M196.446 79.578c.22 2.672.801 5.377.223 8.014-.41 1.871.335 3.547.289 5.302-.081 3-.184 5.983.326 8.944.041.332.002.668-.115.982-.87 2.497.468 4.897.31 7.37-.095 1.5.072 3.013.121 4.521-.85.982-1.492 2.122-1.887 3.353-.373 1.133-.851 2.23-1.43 3.276-1.014 1.791-1.617 3.689-2.367 5.56-1.076 2.774-1.981 5.61-2.71 8.492-.807 3.02-1.417 6.075-2.025 9.133-.08.394-.095.8-.142 1.21-.735 1.109-1.917 1.691-2.983 2.417-1.51 1-3.07 1.948-4.656 2.816-1.191.655-2.38 1.477-3.807 1.692-.323-.276-.193-.689-.333-1.073-1.47.836-2.421 2.226-3.728 3.217-3.308 1.48-6.585 3.032-9.936 4.417-.46.191-.916.52-1.47.32-.454-.697-.346-1.403-.13-2.09-1.348 1.224-2.311 2.923-3.87 4.06-5.247 2.318-10.73 4.027-16.075 6.094-2.812 1.088-5.638 2.175-8.478 3.16-1.133.389-2.36.422-3.512.094-.236-1.458-.564-2.9-.98-4.318-.26-.805-.86-1.45-.981-2.304.449-.998 1.429-1.392 2.304-1.832 3.223-1.622 6.397-3.334 9.63-4.94 3.864-1.919 7.639-4.024 11.345-6.236 2.169-1.291 4.394-2.488 6.617-3.665 5.916-3.155 11.635-6.657 17.127-10.487 1.53-1.059 3.054-2.086 4.306-3.5 1.929-2.176 2.532-4.746 2.814-7.52.188-1.874.154-3.748.2-5.612.037-1.477.145-2.985-.08-4.494-.194-1.293-.025-2.628-.093-3.952-.267-5.154-.373-10.313-.26-15.472.056-2.5-.228-4.985-.368-7.477-.166-2.957-.453-5.91-.343-8.88-.088 3.24.17 6.46.397 9.69.22 2.567.302 5.145.245 7.721-.176 4.791.02 9.585.272 14.367.089 1.68.16 3.384.211 5.052.071 2.362.113 4.755-.198 7.125-.155 1.165-.155 2.347-.263 3.52-.26 2.847-1.6 5.127-3.676 6.98-3.093 2.754-6.777 4.698-10.2 6.997-3.24 2.176-6.69 4.03-10.12 5.906-3.848 2.098-7.708 4.182-11.493 6.39-3.784 2.206-7.744 4.053-11.632 6.081-.338.177-.801.564-1.073-.137.093-.68.537-1.21.794-1.82.667-1.648 1.043-3.396 1.11-5.17.177-3.492.35-6.985.52-10.479.336-7.107.353-14.224.174-21.329-.38-14.923-.064-29.846-.172-44.768-.02-2.87.314-5.737.226-8.611-.012-.404 0-.82.336-1.134 3.867-.583 7.81-.549 11.646-1.38.085.122.107.276.062.418-.608 2.47 1.208 4.402 3.774 4.271 1.478-.093 2.95-.263 4.411-.507 1.513-.242 2.711-1.064 4.032-1.693.735-.345 1.36-.838 2.064-1.208 1.767-.907 2.58-2.246 2.407-4.163-.026-.146.017-.296.117-.406 1.93.788 3.922 1.47 5.757 2.439.434.227.858.176 1.307.143 5.19-.387 10.338-.484 15.396 1.158 4.902 1.59 7.814 4.943 9.38 9.623.478 1.448.892 2.896 1.336 4.332z" transform="translate(-526 -301) translate(478 253) translate(48 48) translate(20.8 .459)"/>
                        <path fill="#F9D12B" fill-rule="nonzero" d="M155.352 161.144l3.687-4.236c.322.84.087 1.653.226 2.423.177.236.267.528.254.825-.393 4.102-.703 8.22-1.936 12.187 3.316-5.775 6.852-11.368 11.117-16.45.441-.698 1.137-1.107 1.746-1.617l3.26-3.993.519.409c.261.514.103 1.112.218 1.656.154.187.232.427.218.671-.183 4.136-.692 8.25-1.52 12.302-.878 4.149-2 8.24-3.36 12.25 2.035-2.751 4.062-5.373 6.447-7.686.823-.795 1.73-1.495 2.703-2.087.792-.49 1.053-.36 1.305.568.058.178.091.363.101.55.094 4.556.103 9.106-1.18 13.538-.048.153-.106.303-.173.448 1.38-1.814 2.885-3.525 4.505-5.118.34-.326.703-.664 1.214-.708 1.509-1.139 1.456-1.13 1.854.777.962 4.468.843 9.109-.347 13.52-.166 1.357-.54 1.731-1.8 1.81l-.283-.03c-.24-.32-.628-.272-.942-.409l-2.438-.44c-.923.154-1.787-.346-2.706-.246l-.304-.027c-.576-.465-1.308-.19-1.934-.416-.708.135-1.355-.284-2.053-.245-.912-.177-1.85-.125-2.76-.331-.55-.14-1.122-.155-1.678-.044-.43-.134-.877-.205-1.327-.21-.408-.126-.825-.06-1.238-.082-1.2-.225-2.399-.188-3.598-.411l-3.09-.123c-.436-.06-.879-.04-1.308.059-1.331.118-2.653-.054-3.977-.122h-2.219c-.48.066-.99.049-1.478.154-1.174-.004-2.347.058-3.514.186-1.147-.333-2.277-.105-3.4.123-.995.203-1.24.027-1.144-1.03.089-.952.24-1.9.348-2.849.043-2.999 1.154-5.713 2.085-8.487 1.2-3.587 2.994-6.86 4.862-10.106 1.169-2.026 2.625-3.854 3.855-5.836.32-.47.797-.747 1.183-1.117z" transform="translate(-526 -301) translate(478 253) translate(48 48) translate(20.8 .459)"/>
                        <path fill="#4EA9B7" fill-rule="nonzero" d="M185.152 177.57c-2.419 1.914-4.346 4.278-6.424 6.513 1.725-5.135 1.8-10.35 1.432-15.793-4.91 2.534-7.66 6.839-11.16 10.485.36-1.029.751-2.048 1.079-3.084 1.166-3.654 2.326-7.313 2.974-11.086.518-3.013 1.252-6.007 1.109-9.093-.023-.46.163-.929.25-1.393.804-.878 1.973-1.197 3.004-1.725 2.466-1.278 4.862-2.674 7.18-4.183.383-.24.728-.675 1.304-.479-.11 1.591-.553 3.156-.443 4.764.052.793-.516 1.436-.523 2.216-.023 1.883-.078 3.776-.153 5.645-.068 1.69-.235 3.39-.25 5.1-.037 4.045.17 8.09.62 12.112z" transform="translate(-526 -301) translate(478 253) translate(48 48) translate(20.8 .459)"/>
                        <path fill="#E3D0C6" fill-rule="nonzero" d="M186.83 147.524c-3.208 2.224-6.548 4.249-10 6.062-.43.225-.885.4-1.33.597 0-.25 0-.5.02-.75 4.007-2.034 7.846-4.392 11.478-7.05.336.432.235.809-.168 1.14z" transform="translate(-526 -301) translate(478 253) translate(48 48) translate(20.8 .459)"/>
                        <path fill="#60A8B5" fill-rule="nonzero" d="M184.6 193.94c1.17-.084 1.47-1.028 1.911-1.832l.461-.225c.087.037.128.084.118.146-.01.062-.028.1-.051.1 0 .227-.403.416-.072.679.332.262.28.604.026.92-.017.057-.029.116-.036.175 0 .033.03.067.046.1-.048.413-.255.557-.688.44-.578-.16-1.19-.185-1.715-.503z" transform="translate(-526 -301) translate(478 253) translate(48 48) translate(20.8 .459)"/>
                        <path fill="#FDF8F8" fill-rule="nonzero" d="M187.231 193.18c0-.266-.022-.533-.031-.798.441-.217.948-.364 1.483-.43.194-.074.425-.09.637-.043.212.047.386.152.48.29-.774.433-1.413 1.025-2.569.982z" transform="translate(-526 -301) translate(478 253) translate(48 48) translate(20.8 .459)"/>
                        <path fill="#F09D1E" fill-rule="nonzero" d="M189.41 191.883l-.91-.228 2.6-1.072c-.356.64-1.07.934-1.69 1.3z" transform="translate(-526 -301) translate(478 253) translate(48 48) translate(20.8 .459)"/>
                        <path fill="#ED6121" fill-rule="nonzero" d="M187.07 191.883c-.023-.134-.042-.268-.064-.405.005-.392.148-.743.365-.895.094.591-.117.94-.302 1.3z" transform="translate(-526 -301) translate(478 253) translate(48 48) translate(20.8 .459)"/>
                        <path fill="#FEFEFE" fill-rule="nonzero" d="M134.97 66.441l-.23 21.516c-.112 10.058-.08 20.115.093 30.171.122 6.473.186 12.942.069 19.412-.105 5.653-.308 11.305-.816 16.941-.192 2.121-.79 4.133-2.196 5.818-.151.594-.732.674-1.154.921-1.291.764-2.585 1.53-4.07 1.881-.489.095-.94.293-1.443.223-.369-.077-.51-.388-.69-.662-.198-.355-.445-.681-.733-.97-.366-.317-.815-1.003-1.242-.615-.527.485.388.672.561 1.057.213.485 1.125.887.1 1.454-2.709.129-5.422.037-8.126.286-1.665.076-3.341-.184-4.996.17-.291.064-.59.091-.888.082-4.17-.123-8.33.228-12.495.28-3.085.038-6.17.193-9.259.169-.547 0-1.127.09-1.591-.337-.142-.31-.244-.582.078-.89.769-.744.922-1.757 1.01-2.741.033-.396.144-.782.327-1.135.44-.872.72-1.806.447-2.773-.11-.271-.021-.583.217-.756.13-.121.322-.368.28-.446-.526-.97.189-1.883.245-2.788.056-.853.156-1.873.256-2.76.163-1.438.62-2.91.23-4.403-.168-.632-.727-1.084-1.384-1.117-.62-.041-1.496-.063-1.682.868-.083.42-.273.528-.668.535-.222.007-.433.1-.586.26-1.125 1.474-2.826 2.36-3.946 3.827-1.64 2.153-3.66 3.98-5.2 6.237-.977 1.418-1.85 2.921-2.954 4.257-.382.452-.686.964-.9 1.515-.328.867-.87 1.638-1.574 2.245-.29-.662-.527-1.227-.078-1.952.26-.42.275-1.11.15-1.619-.353-1.454.374-2.986-.46-4.363-.147-.243.127-.388.217-.575.132-.266.315-.555.202-.84-.761-1.94.147-4.013-.605-5.962-.766-1.987-.154-4.256-1.22-6.227-.337-.618.015-1.454-.244-2.181-.259-.728-.356-1.455-.925-1.98-.214-.156-.284-.442-.163-.677.078-.199.178-.502.085-.635-.564-.815-.644-1.775-.947-2.667-.429-1.282-.954-2.53-1.572-3.735-.788-1.505-1.076-3.246-2.196-4.581-.527-.626-1.493-.888-1.872-.6-.488.379-1.464.755-1.24 1.72.171.505-.07 1.056-.558 1.277-.14.08-.31.32-.281.446.273 1.183-.774 1.869-1.044 2.836-.437 1.549-1.045 3.057-1.047 4.712 0 .485-.662.752-.752 1.3-.366 2.247-.947 4.452-1.291 6.712-.32 2.075-.566 4.152-.764 6.234-.198 2.124-.268 4.257-.368 6.387-.049.373.052.75.28 1.05.464.51.1.77-.293 1.067-.466-.97-.912-1.94-1.413-2.83-.959-1.696-1.076-3.78-2.384-5.201-.976-1.05-.859-2.667-2.133-3.457-.295-.446-.146-.955-.207-1.432-.093-.472-.132-.953-.117-1.433-.096-9.211.18-18.403.302-27.602.083-6.28-.102-12.569.183-18.842.327-7.134.283-14.268.132-21.392-.19-8.908-.188-17.814-.124-26.717.026-3.828.126-7.692 1.042-11.456 1.01-4.145 3.621-6.751 7.748-7.917 2-.56 4.065-.861 6.142-.897 2.717-.049 5.426-.213 8.137-.3 6.845-.226 13.69-.19 20.536-.202 1.22 0 2.455 0 3.683.017 7.701.117 15.399-.313 23.1-.274 3.244.017 6.47.02 9.667.567.888.153 1.882.211 2.44 1.125 3.632 2.233 4.664 5.84 5.125 9.696.432 3.566.244 7.141.095 10.72-.178 4.985-.134 9.967-.058 14.948z" transform="translate(-526 -301) translate(478 253) translate(48 48) translate(20.8 .459)"/>
                        <g>
                            <path fill="#212121" d="M0 0v1.874h1.801v4.563h2.51V1.874h1.8V0H0zm8.134 0L5.587 6.437h2.54L9.51 2.54l1.39 3.896h2.537L10.898 0H8.134zm4.783 0v1.874h1.795v4.563h2.508V1.874h1.803V0h-6.106zm8.125 0l-2.55 6.437h2.547l1.388-3.896 1.385 3.896h2.541L23.812 0h-2.77zM0 15.605c0-4.519 2.221-6.693 6.1-6.693 2.359 0 3.899.916 4.698 2.06.156.228.215.42.215.628 0 .554-.469 1.01-1.053 1.01-.273 0-.546-.113-.8-.38-.797-.858-1.637-1.334-3.06-1.334-2.592 0-3.761 1.563-3.761 4.71 0 3.336 1.17 4.69 3.762 4.69 1.441 0 2.222-.323 3.157-1.258.312-.305.565-.42.838-.42.586 0 1.054.46 1.054 1.03 0 .228-.079.42-.196.573-.935 1.22-2.768 2.06-4.853 2.06C2.22 22.28 0 20.279 0 15.605M20.196 20.24c.653 0 1.11.452 1.11 1.02 0 .587-.457 1.02-1.11 1.02h-5.87c-.654 0-1.13-.453-1.13-1.058l-.02-11.214c0-.604.516-1.096 1.15-1.096.635 0 1.15.492 1.15 1.096l.02 10.232h4.7zM25.341 21.174c0 .61-.567 1.107-1.268 1.107-.698 0-1.266-.497-1.266-1.107V13.93c0-.61.568-1.108 1.266-1.108.7 0 1.268.497 1.268 1.108v7.244zM39.122 22.568L37.6 21.076l-.442.262c-.101.06-.193.112-.277.157l-.037.017c-.172.087-.349.167-.526.24-.519.211-1.064.363-1.62.45-.336.052-.68.079-1.024.079-.554 0-1.123-.068-1.69-.204-.849-.219-1.642-.587-2.358-1.098-.72-.514-1.314-1.143-1.768-1.873-.12-.19-.232-.386-.331-.581-.27-.55-.46-1.138-.565-1.75l-.011-.063c-.005-.029-.01-.05-.012-.072l-.015-.108c-.04-.298-.061-.593-.061-.876 0-.413.041-.83.122-1.245.03-.148.057-.267.087-.379.22-.822.606-1.595 1.144-2.297.538-.699 1.191-1.279 1.944-1.724.29-.18.604-.337.933-.471.503-.206 1.043-.354 1.605-.441.332-.048.671-.073 1.008-.073.585 0 1.167.075 1.729.221l.02.005c.07.02.137.036.202.058l.022.006c1.4.428 2.642 1.316 3.5 2.501.104.145.192.278.266.404.35.565.611 1.169.775 1.796.066.252.118.523.153.805.094.836.044 1.658-.148 2.445-.157.622-.415 1.232-.769 1.812l-.264.432 1.526 1.494c.447.439.447 1.125 0 1.563-.213.207-.495.322-.797.322-.302 0-.585-.115-.798-.322zm-5.395-11.84c-.246 0-.496.019-.741.056-.416.063-.823.174-1.204.33-.234.096-.457.207-.666.33l-.015.008c-.568.356-1.025.768-1.397 1.26-.389.495-.667 1.06-.827 1.677-.175.615-.211 1.26-.106 1.863.101.655.32 1.236.666 1.775.327.525.772.996 1.285 1.358.865.627 1.885.959 2.949.959.244 0 .494-.018.742-.054.395-.058.782-.164 1.15-.314.82-.335 1.532-.89 2.059-1.603.368-.482.637-1.042.798-1.666.156-.636.188-1.27.098-1.884-.212-1.28-.89-2.399-1.91-3.151-.834-.617-1.83-.944-2.88-.944" transform="translate(-526 -301) translate(478 253) translate(48 48) translate(20.8 .459) translate(70.2 76.183)"/>
                            <path fill="#FF1744" d="M25.074 10.514c.429.42.429 1.101 0 1.52-.43.42-1.126.42-1.556 0l-1.348-1.317c-.43-.419-.43-1.1 0-1.52.43-.419 1.127-.419 1.555 0l1.349 1.317z" transform="translate(-526 -301) translate(478 253) translate(48 48) translate(20.8 .459) translate(70.2 76.183)"/>
                        </g>
                        <path fill="#382918" fill-rule="nonzero" d="M129.804 31.08c-2.323-1.06-4.838-1.326-7.312-1.324-14.965.028-29.93.125-44.898.291-5.856.074-11.719.152-17.565.611-1.413.11-2.813.355-4.179.733-4.957 1.379-7.27 4.922-7.833 9.775-.892 7.605-.847 15.249-.698 22.885.465 23.513-.059 47.02-.336 70.527-.048 4.283-.092 8.568-.13 12.854-.092.137-.146.34-.386.208-.01-.11-.043-.218-.096-.315-1.858-2.248-2.714-5.193-4.808-7.221-1.135-1.095-1.468-2.59-2.558-3.63.015-4.913-.054-9.833.076-14.747.115-4.399.059-8.797.194-13.196.23-7.485.127-14.972.2-22.46.052-5.503.125-11.011-.058-16.51-.123-3.577-.103-7.152-.216-10.727.394-2.28-.245-4.792 1.604-6.747.509-.543.734-1.303.979-2.001.3-.866.82-1.396 1.735-1.523.186-.025.366-.077.537-.154.32-.142.866-.188.692-.682-.149-.427-.575-.115-.883-.06-.527.092-1.163.442-1.413-.353-.25-.794.105-1.297.867-1.559.318-.11.639-.207.952-.332.313-.125.683-.26.548-.697-.134-.437-.506-.317-.832-.21-.142.047.037 0-.105.042-.517.193-1.065.545-1.418-.23-.303-.67-.053-1.642.522-1.996.382-.232.832-.328 1.224-.565.18-.08.27-.281.213-.469-.096-.279-.318-.274-.549-.188-.384.142-.754.322-1.135.474-.49.19-.89.12-1.151-.354-.262-.475-.132-.841.245-1.193.514-.472 1.143-.684 1.772-.919.355-.132.779-.337.556-.794-.206-.42-.595-.103-.889 0-.756.232-1.37.748-2.083 1.073-.32.146-.593.506-1.009.244-.006-1.377.402-2.725 1.17-3.868.613-.87 1.012-1.87 1.697-2.671.654-.763 1.33-1.552 2.145-2.114 2.13-1.437 4.58-2.336 7.136-2.617 1.713-.218 3.449-.389 5.109-.22 2.203.222 4.37-.171 6.583.137 1.43.173 2.88.155 4.306-.054 1.224-.169 2.487 0 3.733 0 1.422 0 2.847-.061 4.265 0 2.448.117 4.908-.23 7.363.078.75.093 1.53-.046 2.294-.11 1.469-.12 2.91.279 4.338.15 1.082-.098 2.203-.245 3.236-.138 2.204.223 4.387-.029 6.588.103 2.637.157 5.34-.151 8.008-.149 1.65 0 3.317-.12 4.996.142.666.102 1.55 0 2.323-.032 4.747-.19 9.53-.506 13.935 1.88.38.2.876.341.399.923z" transform="translate(-526 -301) translate(478 253) translate(48 48) translate(20.8 .459)"/>
                        <path fill="#E92C47" fill-rule="nonzero" d="M162.312 61.565c.651 1.948-.443 4.038-2.452 4.686-.252.06-.448.253-.505.498-.036.182-.149.342-.312.44-.162.099-.36.127-.546.079-.421-.098-.623 0-.739.39-.057.173-.19.313-.362.384-2.465.68-4.833 1.666-7.51 1.64-1.628-.014-3.003-.08-4.105-1.397-1.19-1.429-1.3-1.905-.426-3.5 1.814-1.081 3.036-2.498 2.98-4.703-.015-.598.152-1.202.246-1.802.175-.195.175-.485 0-.68-.064-.93-.13-1.863-.197-2.794.032-.777-.414-.393-.74-.288h-.438c-.34-.303-.799.061-1.149-.189-.337-.03-.714.086-.985-.219-.26-.19-.588-.271-.91-.223-.44.066-.682-.262-.986-.458-.219-.145-.418-.35-.739-.238-2.262-1.395-4.056-3.174-4.98-5.667-.091-.373-.08-.78-.367-1.092-.284-1.522-1.03-3.022-.232-4.593.266-.331.123-.667.02-1.003-.037-.231.02-.467.157-.66l.126-.238c.161-.132.377-.184.584-.14 1.26 1.517 2.935 2.286 4.904 2.443 1.156.109 2.32.134 3.48.076 3.314-.219 5.692 1.114 7.607 3.698 1.5 2.026 2.339 4.307 3.379 6.52.907 1.935 1.493 4.004 2.651 5.837.59.934 1.161 1.865 2.152 2.462.261.155.413.436.394.731zM40.302 39.09c1.184-.61 2.3-1.344 3.57-1.798.394-.142.724-.24.8.331.055.397.455.82-.277 1.06-.81.268-1.63.51-2.343 1.027-.397.286-.298.52-.147.821.174.346.422.492.82.295.332-.171.677-.319 1.032-.441.375-.125.772-.76 1.147.062.307.682.146.936-.598 1.136-.884.24-1.817.518-1.527 1.817.13.574.31.68.802.48.313-.13.608-.295.923-.415.395-.151.72-.168.824.372.08.408.457.84-.248 1.069-.454.178-.92.326-1.395.444-.777.146-1.067.65-.831 1.265.235.615.799.156 1.213.063.497-.11 1.082-.742 1.318.357.152.692-.216.769-.682.82-1.611.175-2.5 1.053-2.892 2.552-.13.567-.421 1.089-.841 1.505-1.095.96-1.134 2.16-1.107 3.4.04.916-.147 1.829-.546 2.66-1.375.132-1.47-1.008-1.713-1.789-1.168-3.695-1.491-7.591-.948-11.419.17-1.152.541-2.269 1.097-3.301.365-.69.844-1.29 1.656-1.554.424-.137.633-.509.893-.819z" transform="translate(-526 -301) translate(478 253) translate(48 48) translate(20.8 .459)"/>
                        <path fill="#737891" fill-rule="nonzero" d="M148.2 54.876c.303-.663.657-1.16 1.143-.436.38.58-.014.746-.286.943-.154-.633-.554-.389-.857-.507z" transform="translate(-526 -301) translate(478 253) translate(48 48) translate(20.8 .459)"/>
                        <path fill="#986C88" fill-rule="nonzero" d="M137.586 46.283c.73.198.287.85.363 1.3-.24-.376-.366-.833-.363-1.3z" transform="translate(-526 -301) translate(478 253) translate(48 48) translate(20.8 .459)"/>
                        <path fill="#9A736F" fill-rule="nonzero" d="M137.636 41.083c.243.438.654.883-.02 1.3.02-.43.02-.868.02-1.3z" transform="translate(-526 -301) translate(478 253) translate(48 48) translate(20.8 .459)"/>
                        <path fill="#EB3927" fill-rule="nonzero" d="M136.21 13.977c.187-.127.377-.423.525.127.148.55-.02.805-.287.979-.078-.369-.158-.737-.238-1.106z" transform="translate(-526 -301) translate(478 253) translate(48 48) translate(20.8 .459)"/>
                        <path fill="#8B7987" fill-rule="nonzero" d="M146.9 54.027c.438.048.968-.382 1.3.192-.446.012-.915.126-1.3-.192z" transform="translate(-526 -301) translate(478 253) translate(48 48) translate(20.8 .459)"/>
                        <path fill="#6685A1" fill-rule="nonzero" d="M144.3 54.059c.595-.362 1-.212 1.3.228-.461.067-.941-.017-1.3-.228z" transform="translate(-526 -301) translate(478 253) translate(48 48) translate(20.8 .459)"/>
                        <path fill="#7E7783" fill-rule="nonzero" d="M149.301 57.983c.387.458.66.874 0 1.3-.002-.43 0-.865 0-1.3z" transform="translate(-526 -301) translate(478 253) translate(48 48) translate(20.8 .459)"/>
                        <path fill="#6A879D" fill-rule="nonzero" d="M143 52.742c.637-.267 1.148-.323 1.3.244-.572.128-.875-.159-1.3-.244z" transform="translate(-526 -301) translate(478 253) translate(48 48) translate(20.8 .459)"/>
                        <path fill="#E92C47" fill-rule="nonzero" d="M61.622 197.291c-.875.044-.915-.613-1.096-1.221-1.438-4.904-2.117-9.997-2.016-15.104.05-5.779 1.155-11.5 3.264-16.885 5.212 8.121 7.978 16.755 8.037 26.266 2.085-9.388 4.216-18.758 10.043-27.064 1.062 3.434 1.759 6.646 2.419 9.865.358.317.46.752.542 1.192.79 4.315 1.253 8.658 1.115 13.052-.032.443-.09.883-.174 1.319-.019.07-.032.14-.039.212 0 .074-.061.176-.04.2.067.084.06.057.04-.063-.02-.12 0 .042 0-.112.437-2.443 1.538-4.658 2.51-6.905 1.435-3.35 3.21-6.547 5.294-9.54.26-.369.4-.909 1.008-.904.118 3.97 1.175 7.755 2.296 11.526.198.522.296 1.076.29 1.634-.01 1.82-.152 3.637-.428 5.437-.056.43-.144.88-.368 1.082.327-.733.766-1.583 1.246-2.416.246-.435.412-.977 1.048-1.05 1.648 2.596 3.188 5.251 4.787 8.016-2.247.31-4.434.635-6.622.909-6.975.862-13.96 1.614-21.004 1.646-4.075-.003-8.142-.368-12.152-1.092z" transform="translate(-526 -301) translate(478 253) translate(48 48) translate(20.8 .459)"/>
                        <path fill="#F9D12B" fill-rule="nonzero" d="M83.22 189.226c.235-5.387-.295-10.707-1.32-16.002.136-.058.375-.097.388-.177.19-1.056 1.15-1.801 1.21-2.906 0-.143-.035-.365.041-.416 1.64-1.095 1.378-3.085 2.222-4.548 7.617.024 15.224-.355 22.835-.487h1.682c.617-.143 1.26-.143 1.876 0 .02.03.062.069.054.09-.698 2.122.924 2.896 2.287 3.811.493.336 1.014.635 1.116 1.297.078 1.106.047 2.217-.094 3.317-.14 1.51-.122 3.03.056 4.536.097.786.336 1.618-.286 2.33-1.06-1.578-2.187-3.124-3.866-4.102-.78-.455-1.272-1.24-1.914-1.645-1.508-.951-2.646-2.433-4.424-2.98-.528-.159-1.062-.295-1.787-.487.156.465.346.918.57 1.355.395.635.592 1.263.232 1.971-.02.033-.026.072-.02.11.608 1.606.348 3.377.968 4.978.119.307.35.572.289.932-.193 1.168.183 2.266.353 3.456-1.205-.847-1.513-2.405-2.597-3.344-.208-.372-.225-.925-.864-.888-2.776-2.937-6.173-5.2-9.071-7.989-.119-.207-.163-.486-.494-.465-.753-.129-.23.487-.425.701-3.162 4.137-5.444 8.76-7.374 13.552-.524 1.304-.941 2.65-1.408 3.978-.02.044-.062.074-.11.078-.049.005-.096-.017-.124-.056z" transform="translate(-526 -301) translate(478 253) translate(48 48) translate(20.8 .459)"/>
                        <path fill="#4EA9B7" fill-rule="nonzero" d="M114.53 180.287c-.198-3.527-.17-7.064.083-10.588.475-.35.845.027 1.217.215 2.829 1.414 5.843 2.114 8.967 2.371.822.067 1.62-.126 2.434-.133 1.478.597 2.9.3 4.34-.202 5.055-1.77 9.997-3.847 15.034-5.676 2.4-.87 4.728-1.973 7.148-2.793.307-.106.604-.325.947-.1-.316 1.073-1.113 1.842-1.726 2.713-2.218 3.155-4.136 6.515-5.729 10.035-1.202 2.782-2.221 5.641-3.05 8.56-.321 1.078-.139 2.262-.677 3.294-.806-1.772-1.003-3.758-1.926-5.498-.428-.804-.73-.952-1.404-.261-1.047 1.073-2.469 1.855-2.664 3.689.159-4.153-2.325-7.509-2.987-11.735-1.168 1.727-2.108 3.168-2.593 4.865-.642 2.268-1.704 4.41-1.947 6.798-.015.158.05.432-.207.42-.202 0-.463-.092-.468-.385-.026-1.767-1.217-2.93-2.147-4.217-.636-.865-1.356-1.663-2.15-2.381-2.247-2.07-4.172-4.577-7.164-5.957.119 1.246-.2 2.446.372 3.573.175.346.085.647-.039.972-.325.778-.248 1.668.205 2.376.213.316.213.731 0 1.047-.324.624-.456 1.332-.117 1.954.487.886.411 1.695-.056 2.52-.687-2.185-2.062-3.922-3.696-5.476z" transform="translate(-526 -301) translate(478 253) translate(48 48) translate(20.8 .459)"/>
                        <path fill="#F0A418" fill-rule="nonzero" d="M96.2 187.603c-.996 1.224-1.502 2.74-2.6 4.28.533-3.004.783-6.05.747-9.1.89 1.498 1.126 3.252 1.853 4.82z" transform="translate(-526 -301) translate(478 253) translate(48 48) translate(20.8 .459)"/>
                        <path fill="#66A8B0" fill-rule="nonzero" d="M171.435 191.344c.942-.039 1.88.144 2.765.539-3.362-.134-6.716-.477-10.049-1.026-.127-.051-.245-.128-.351-.227 1.238-.152 2.459.097 3.684.255.37.235.795 0 1.179.204.414-.1.843.003 1.195.286.515-.172 1.058-.183 1.577-.031z" transform="translate(-526 -301) translate(478 253) translate(48 48) translate(20.8 .459)"/>
                        <path fill="#679B9E" fill-rule="nonzero" d="M154.7 190.435c1.266-.099 2.537-.11 3.805-.031.076.03.106.068.091.114s-.037.08-.059.08c-1.3.428-2.573.134-3.837-.163z" transform="translate(-526 -301) translate(478 253) translate(48 48) translate(20.8 .459)"/>
                        <path fill="#57A8B3" fill-rule="nonzero" d="M148.2 190.739c1.242-.275 2.49-.503 3.779-.362.156.08.143.192.065.313-1.278.229-2.561.131-3.844.049z" transform="translate(-526 -301) translate(478 253) translate(48 48) translate(20.8 .459)"/>
                        <path fill="#5DA2AA" fill-rule="nonzero" d="M178.1 193.081c.922-.432 1.738.102 2.6.243-.897.268-1.754.071-2.6-.243z" transform="translate(-526 -301) translate(478 253) translate(48 48) translate(20.8 .459)"/>
                        <path fill="#EB3FA2" fill-rule="nonzero" d="M101.4 179.28c.364-.089.635-.563 1.002-.337.507.31.221.816.187 1.24l-1.189-.903z" transform="translate(-526 -301) translate(478 253) translate(48 48) translate(20.8 .459)"/>
                        <path fill="#959481" fill-rule="nonzero" d="M152.152 190.74l-.052-.314 1.3.024c-.396.224-.825.236-1.248.29z" transform="translate(-526 -301) translate(478 253) translate(48 48) translate(20.8 .459)"/>
                        <path fill="#6DADB4" fill-rule="nonzero" d="M175.5 191.686c.887.058 1.88-.243 2.6.413-.865-.146-1.784-.1-2.6-.413z" transform="translate(-526 -301) translate(478 253) translate(48 48) translate(20.8 .459)"/>
                        <path fill="#EB3A2A" fill-rule="nonzero" d="M92.049 170.923c.698-.418.454.177.486.464-.216-.086-.39-.252-.486-.464z" transform="translate(-526 -301) translate(478 253) translate(48 48) translate(20.8 .459)"/>
                        <path fill="#949176" fill-rule="nonzero" d="M159.943 190.705c-.02-.064-.034-.129-.043-.194.434-.091.89-.058 1.3.094l-1.257.1z" transform="translate(-526 -301) translate(478 253) translate(48 48) translate(20.8 .459)"/>
                        <path fill="#9CA69E" fill-rule="nonzero" d="M183.3 192.987c.506 0 1.098-.131 1.3.406-.46-.093-.94-.144-1.3-.406z" transform="translate(-526 -301) translate(478 253) translate(48 48) translate(20.8 .459)"/>
                        <path fill="#4B433B" fill-rule="nonzero" d="M46.63 146.582l.385-.2v1.3c-.71-.177-.309-.717-.384-1.1z" transform="translate(-526 -301) translate(478 253) translate(48 48) translate(20.8 .459)"/>
                        <path fill="#59778B" fill-rule="nonzero" d="M138.088 39.893l-.576.143c.112-.16 0-.474.26-.505.187-.022.26.194.316.362z" transform="translate(-526 -301) translate(478 253) translate(48 48) translate(20.8 .459)"/>
                        <path fill="#E92C47" fill-rule="nonzero" d="M126.82 172.187c-3.73.645-7.203-.391-10.61-1.8-.687-.288-1.352-.64-2.024-.962-.963-.771-1.92-1.522-2.886-2.278-.966-.756-1.051-1.82-.289-2.684 1.042-.702 2.2-.157 3.295-.352 2.608.162 5.213 0 7.821-.103.244 0 .44-.051.526-.316-.176-.787-.827-1.121-1.345-1.592-.227-.208-.733-.444-.244-.89.322-.292.545-.858 1.163-.272.79.747 1.471 1.614 2.019 2.571.271.218.517.468.733.746.203.206.47.355.555.668 1.317 2.04 2.038 4.255 1.83 6.752-.026.352-.273.445-.544.512z" transform="translate(-526 -301) translate(478 253) translate(48 48) translate(20.8 .459)"/>
                        <path fill="#E6D2C6" fill-rule="nonzero" d="M125.424 164.583l-.624-.424c.066-.413.353-.756.747-.891.243-.095.197-.17.13-.324 1.873-.534 3.46-1.647 5.153-2.543 1.248-.35 2.299-1.13 3.47-1.656 1.979-.884 3.82-2.066 5.75-3.067 2.912-1.512 5.673-3.295 8.559-4.851 2.67-1.438 5.273-2.965 7.911-4.443 3.774-2.114 7.501-4.304 11.044-6.805 1.716-1.218 3.548-2.263 5.269-3.47 2.58-1.81 4.664-4.115 5.392-7.232.466-1.995.383-4.124.514-6.194.34-5.395-.182-10.773-.356-16.158-.112-3.41-.093-6.82-.034-10.249.024-1.461-.068-2.952-.15-4.428-.243-4.14-.68-8.28-.576-12.421 0-.268-.1-.687.371-.64.425.04.318.445.311.713-.066 2.64.092 5.275.289 7.901.485 6.452.323 12.909.439 19.373.036 2.1.296 4.228.299 6.332 0 2.908.138 5.817.021 8.734-.077 1.92-.199 3.832-.325 5.748-.226 3.41-1.92 6.038-4.499 7.987-3.792 2.905-7.763 5.565-11.891 7.964-1.98 1.135-3.849 2.506-5.885 3.546-4.368 2.227-8.552 4.774-12.818 7.178-2.987 1.68-5.99 3.334-9.045 4.871-2.737 1.381-5.4 2.899-8.102 4.338-.541.25-1.01.631-1.364 1.11z" transform="translate(-526 -301) translate(478 253) translate(48 48) translate(20.8 .459)"/>
                        <path fill="#E4D1C6" fill-rule="nonzero" d="M127.4 171.906l.536-.485c1.468.209 2.802-.031 4.238-.485 3.47-1.112 6.799-2.58 10.222-3.796 3.206-1.142 6.41-2.333 9.58-3.584 1.34-.526 2.639-1.159 4.024-1.573-.202.456-.535.844-.957 1.115-7.787 2.992-15.571 5.996-23.436 8.782-1.385.48-2.797.826-4.207.026z" transform="translate(-526 -301) translate(478 253) translate(48 48) translate(20.8 .459)"/>
                        <path fill="#E3D0C6" fill-rule="nonzero" d="M171.6 154.183l-1.548 1.786c-.686.599-1.521.897-2.297 1.314-2.128 1.154-4.4 1.965-6.555 3.063-.394.202-.813.465-1.3.266v-.955c3.995-1.59 7.795-3.648 11.7-5.474z" transform="translate(-526 -301) translate(478 253) translate(48 48) translate(20.8 .459)"/>
                        <path fill="#4EA9B7" fill-rule="nonzero" d="M159.302 160.99l8.768-3.907c.304-.117.614-.218.93-.3-1.77 2.323-3.618 4.59-5.289 6.973-1.596 2.263-3.064 4.613-4.397 7.041-.542 1-1.312 1.89-2.014 2.886 1.13-4.175 1.573-8.433 2.002-12.692z" transform="translate(-526 -301) translate(478 253) translate(48 48) translate(20.8 .459)"/>
                        <path fill="#68A4A9" fill-rule="nonzero" d="M171.6 191.987h-1.3c.432-.367.862-.17 1.3 0z" transform="translate(-526 -301) translate(478 253) translate(48 48) translate(20.8 .459)"/>
                        <path fill="#C79C3F" fill-rule="nonzero" d="M168.835 180.504c-.098-.33.09-.501.35-.642.04.268-.103.53-.35.642z" transform="translate(-526 -301) translate(478 253) translate(48 48) translate(20.8 .459)"/>
                        <path fill="#66A5AC" fill-rule="nonzero" d="M169 190.664c-.434-.022-.902.17-1.3-.173.442-.061.894-.001 1.3.173z" transform="translate(-526 -301) translate(478 253) translate(48 48) translate(20.8 .459)"/>
                        <path fill="#5BA4B4" fill-rule="nonzero" d="M123.305 163.283c.47.82-.02 1.105-.31 1.101-2.827-.047-5.665.606-8.485-.23-.152-.145-.147-.265.02-.359l8.775-.512z" transform="translate(-526 -301) translate(478 253) translate(48 48) translate(20.8 .459)"/>
                        <path fill="#F09E1C" fill-rule="nonzero" d="M114.4 164.364c-.003.069-.01.137-.02.204-1.082.158-2.195-.104-3.264.244-.585-.465-1.286-.11-1.916-.244 1.725-.313 3.465-.184 5.2-.204z" transform="translate(-526 -301) translate(478 253) translate(48 48) translate(20.8 .459)"/>
                        <path fill="#5DACB9" fill-rule="nonzero" d="M125.882 163.283c.065.094.343.028.152.315-.245.35-.503.678-.772.985-.304-.164-.388-.566-.462-.98l1.082-.32z" transform="translate(-526 -301) translate(478 253) translate(48 48) translate(20.8 .459)"/>
                        <path fill="#AA7616" fill-rule="nonzero" d="M93.6 29.26c-.481.379-.821.2-1.3.243.457-.404.8-.17 1.3-.243z" transform="translate(-526 -301) translate(478 253) translate(48 48) translate(20.8 .459)"/>
                        <path fill="#EC4925" fill-rule="nonzero" d="M83.193 189.04l.223-.015c0 .229-.058.569-.274.508-.287-.082-.13-.338.05-.493z" transform="translate(-526 -301) translate(478 253) translate(48 48) translate(20.8 .459)"/>
                    </g>
                </g>
            </g>
        </g>
    </g>
</svg>
