<svg height="50" viewBox="0 0 50 50" width="50" xmlns="http://www.w3.org/2000/svg" xmlns:xlink="http://www.w3.org/1999/xlink"><linearGradient id="a" gradientTransform="matrix(24 0 0 -24 -295.5938 829.0156)" gradientUnits="userSpaceOnUse" x1="12.3164" x2="14.3999" y1="33.502" y2="33.502"><stop offset="0" stop-color="#5e9fd6"/><stop offset="1" stop-color="#48c3d2"/></linearGradient><mask id="b" height="33.323" maskUnits="userSpaceOnUse" width="33.334" x="4.329" y="4.335"><path d="m4.329 37.658v-33.329h33.329v33.329z" fill="#fff"/></mask><g><path d="m25 0c13.813 0 25 11.187 25 25s-11.188 25-25 25c-13.813 0-25-11.187-25-25s11.187-25 25-25z" fill="url(#a)"/><path d="m34.182 23.394c-1.801.003-3.456.924-4.389 2.392-1.665 2.629-4.653 4.383-8.096 4.389-1.717.002-3.313-.434-4.705-1.177l-2.508 2.405c-.979.965-2.59.967-3.572.006-.995-.936-.998-2.492-.019-3.43l2.495-2.432c-.861-1.434-1.327-3.146-1.248-4.964.219-4.685 4.151-8.495 9.026-8.738 3.638-.175 6.861 1.608 8.621 4.347.924 1.438 2.529 2.34 4.259 2.337h.127c2.548-.017 4.21-2.585 3.091-4.801-2.889-5.74-9.127-9.643-16.26-9.381-9.351.339-16.777 7.859-16.674 16.848.117 9.136 7.876 16.503 17.399 16.463 6.889-.011 12.838-3.908 15.59-9.521 1.108-2.203-.596-4.747-3.137-4.743" fill="#fff" mask="url(#b)" transform="translate(4 4)"/></g></svg>