<?xml version="1.0" encoding="UTF-8"?>
<svg width="128px" height="128px" viewBox="0 0 128 128" version="1.1" xmlns="http://www.w3.org/2000/svg" xmlns:xlink="http://www.w3.org/1999/xlink">
    <!-- Generator: Sketch 51.2 (57519) - http://www.bohemiancoding.com/sketch -->
    <title>timer-2</title>
    <desc>Created with Sketch.</desc>
    <defs>
        <linearGradient x1="50%" y1="0%" x2="50%" y2="100%" id="linearGradient-1">
            <stop stop-color="#FF1744" offset="0%"></stop>
            <stop stop-color="#FF00B4" offset="100%"></stop>
        </linearGradient>
    </defs>
    <g id="timer-2" stroke="none" stroke-width="1" fill="none" fill-rule="evenodd">
        <g id="Group" fill-rule="nonzero">
            <path d="M64,128 C28.653776,128 0,99.346224 0,64 C0,28.653776 28.653776,0 64,0 C99.346224,0 128,28.653776 128,64 C128,99.346224 99.346224,128 64,128 Z M64,125.538462 C97.9867538,125.538462 125.538462,97.9867538 125.538462,64 C125.538462,30.0132462 97.9867538,2.46153846 64,2.46153846 C30.0132462,2.46153846 2.46153846,30.0132462 2.46153846,64 C2.46153846,97.9867538 30.0132462,125.538462 64,125.538462 Z" id="Oval" fill="#000000"></path>
            <path d="M64,0 C64.6797351,0 65.2307692,0.551034154 65.2307692,1.23076923 C65.2307692,1.91050431 64.6797351,2.46153846 64,2.46153846 C30.0132462,2.46153846 2.46153846,30.0132462 2.46153846,64 C2.46153846,97.9867538 30.0132462,125.538462 64,125.538462 C97.9867538,125.538462 125.538462,97.9867538 125.538462,64 C125.538462,63.3202649 126.089496,62.7692308 126.769231,62.7692308 C127.448966,62.7692308 128,63.3202649 128,64 C128,99.346224 99.346224,128 64,128 C28.653776,128 0,99.346224 0,64 C0,28.653776 28.653776,0 64,0 Z" id="Oval-Copy" fill="url(#linearGradient-1)"></path>
        </g>
    </g>
</svg>