<?xml version="1.0" encoding="UTF-8"?>
<svg width="128px" height="128px" viewBox="0 0 128 128" version="1.1" xmlns="http://www.w3.org/2000/svg" xmlns:xlink="http://www.w3.org/1999/xlink">
    <!-- Generator: Sketch 51.2 (57519) - http://www.bohemiancoding.com/sketch -->
    <title>timer1</title>
    <desc>Created with Sketch.</desc>
    <defs>
        <linearGradient x1="50%" y1="0%" x2="50%" y2="100%" id="linearGradient-1">
            <stop stop-color="#FF1744" offset="0%"></stop>
            <stop stop-color="#FF00B4" offset="100%"></stop>
        </linearGradient>
    </defs>
    <g id="timer1" stroke="none" stroke-width="1" fill="none" fill-rule="evenodd">
        <g id="Group" fill-rule="nonzero">
            <path d="M64,128 C28.653776,128 0,99.346224 0,64 C0,28.653776 28.653776,0 64,0 C99.346224,0 128,28.653776 128,64 C128,99.346224 99.346224,128 64,128 Z M64,125.538462 C97.9867538,125.538462 125.538462,97.9867538 125.538462,64 C125.538462,30.0132462 97.9867538,2.46153846 64,2.46153846 C30.0132462,2.46153846 2.46153846,30.0132462 2.46153846,64 C2.46153846,97.9867538 30.0132462,125.538462 64,125.538462 Z" id="Oval" fill="#000000"></path>
            <path d="M64,128 C63.3202649,128 62.7692308,127.448966 62.7692308,126.769231 C62.7692308,126.089496 63.3202649,125.538462 64,125.538462 C71.4875885,125.538462 78.7892008,124.201346 85.6488105,121.622952 C109.449691,112.676664 125.538462,89.851896 125.538462,64 C125.538462,30.0132462 97.9867538,2.46153846 64,2.46153846 C30.0132462,2.46153846 2.46153846,30.0132462 2.46153846,64 C2.46153846,79.1324411 7.94173966,93.4116914 17.7158423,104.556898 C18.1640232,105.06795 18.1130566,105.845561 17.6020051,106.293742 C17.0909537,106.741923 16.3133422,106.690957 15.8651612,106.179905 C5.70097424,94.5898931 0,79.735395 0,64 C0,28.653776 28.653776,0 64,0 C99.346224,0 128,28.653776 128,64 C128,90.8855879 111.268008,114.62288 86.5148929,123.927095 C79.3794356,126.609175 71.7845271,128 64,128 Z" id="Oval-Copy" fill="url(#linearGradient-1)" transform="translate(64.000000, 64.000000) rotate(-180.000000) translate(-64.000000, -64.000000) "></path>
        </g>
    </g>
</svg>