<svg enable-background="new 0 0 50 50" height="50" viewBox="0 0 50 50" width="50" xmlns="http://www.w3.org/2000/svg"><path d="m23.018 0h-18.255c-.973 0-1.763.79-1.763 1.763v18.255c0 .974.79 1.763 1.763 1.763h18.255c.974 0 1.763-.789 1.763-1.763v-18.255c0-.973-.789-1.763-1.763-1.763zm-1.765 18.253h-14.725v-14.725h14.726v14.725zm29.983-18.253h-18.256c-.971 0-1.764.79-1.764 1.763v18.255c0 .974.793 1.763 1.764 1.763h18.256c.975 0 1.764-.789 1.764-1.763v-18.255c0-.973-.789-1.763-1.764-1.763zm-1.762 18.253h-14.728v-14.725h14.728zm-26.456 9.964h-18.255c-.973 0-1.763.793-1.763 1.763v18.256c0 .975.79 1.764 1.763 1.764h18.255c.974 0 1.763-.789 1.763-1.764v-18.256c0-.97-.789-1.763-1.763-1.763zm-1.765 18.257h-14.725v-14.728h14.726v14.728zm29.983-18.257h-18.256c-.971 0-1.764.793-1.764 1.764v18.256c0 .975.793 1.764 1.764 1.764h18.256c.975-.001 1.764-.79 1.764-1.765v-18.256c0-.97-.789-1.763-1.764-1.763zm-1.762 18.257h-14.728v-14.728h14.728z" transform="translate(-3)"/></svg>