<svg height="50" viewBox="0 0 50 50" width="50" xmlns="http://www.w3.org/2000/svg"><g fill="#fff" stroke="#fff" stroke-width=".4"><path d="m8.21 50.045h38.016c.702 0 1.273-.571 1.273-1.272v-47.545c0-.686-.571-1.257-1.273-1.257h-38.016c-.701 0-1.272.571-1.272 1.257v5.074h-3.166c-.701 0-1.272.572-1.272 1.272 0 .686.571 1.257 1.272 1.257h3.166v4.438h-3.166c-.702 0-1.272.571-1.272 1.272s.571 1.273 1.272 1.273h3.166v4.438h-3.166c-.702 0-1.272.571-1.272 1.257 0 .701.571 1.272 1.272 1.272h3.166v4.426h-3.166c-.702 0-1.272.569-1.272 1.269 0 .702.571 1.273 1.272 1.273h3.166v4.437h-3.166c-.702 0-1.272.571-1.272 1.273 0 .701.571 1.272 1.272 1.272h3.166v4.438h-3.166c-.702 0-1.272.57-1.272 1.271 0 .67.571 1.24 1.272 1.24h3.166v5.091c0 .703.571 1.274 1.272 1.274zm1.257-6.363h4.438c.702 0 1.273-.57 1.273-1.24 0-.701-.571-1.271-1.273-1.271h-4.438v-4.438h4.438c.702 0 1.273-.571 1.273-1.272 0-.702-.571-1.273-1.273-1.273h-4.438v-4.437h4.438c.702 0 1.273-.571 1.273-1.273 0-.699-.571-1.269-1.273-1.269h-4.438v-4.426h4.438c.702 0 1.273-.571 1.273-1.272 0-.686-.571-1.257-1.273-1.257h-4.438v-4.438h4.438c.702 0 1.273-.571 1.273-1.273s-.571-1.272-1.273-1.272h-4.438v-4.44h4.438c.702 0 1.273-.571 1.273-1.257 0-.701-.571-1.272-1.273-1.272h-4.438v-3.801h35.488v44.998h-35.488z"/><path d="m37.352 6.613h-16.48c-.686 0-1.257.571-1.257 1.271v11.406c0 .702.571 1.273 1.257 1.273h16.479c.7 0 1.271-.571 1.271-1.273v-11.405c.001-.7-.57-1.272-1.27-1.272zm-1.273 11.42h-13.934v-8.875h13.934z"/><path d="m37.352 23.107h-16.48c-.686 0-1.257.571-1.257 1.257 0 .701.571 1.271 1.257 1.271h16.479c.7 0 1.271-.571 1.271-1.271.001-.685-.57-1.257-1.27-1.257z"/></g></svg>