<svg height="50" viewBox="0 0 50 50" width="50" xmlns="http://www.w3.org/2000/svg"><path d="m49 24.7275184c0-.5048767-.3053479-1.1752457-.6151685-1.5005573l-17.4543571-18.54598393c-.8149155-.8425158-2.1351442-.94015294-3.0852245-.08509159-.849334.76440608-.8704978 2.2552543-.0850916 3.08533363l14.0112024 14.86402729h-38.58952516c-1.20502777 0-2.18183554.9768078-2.18183554 2.1818356 0 1.2050277.97680777 2.1819446 2.18183554 2.1819446h38.58952516l-14.0112024 14.8639728c-.7852971.8299702-.7295512 2.2841636.0850916 3.0852245.8601887.8456795 2.2827454.7704062 3.0852245-.0850916l17.4543571-18.5458202c.5128404-.5030222.6065502-.9874988.6151685-1.4997938z" transform="matrix(-1 0 0 1 50 0)"/></svg>