<svg height="29" viewBox="0 0 29 29" width="29" xmlns="http://www.w3.org/2000/svg"><g fill="none" fill-rule="evenodd"><circle cx="14.5" cy="14.5" fill="#f5f5f5" opacity=".347" r="14.5"/><path d="m10.739 8.88a.89.89 0 0 1 -.24.62l-3.625 3.655h18.399a.85.85 0 0 1 .855.862.85.85 0 0 1 -.855.862h-18.399l3.626 3.621c.171.172.24.38.24.62a.835.835 0 0 1 -.24.621c-.342.345-.889.345-1.197 0l-5.061-5.103c-.034-.035-.068-.104-.103-.138a.826.826 0 0 1 -.068-.793.752.752 0 0 1 .171-.276l5.061-5.172c.342-.345.89-.345 1.197 0 .171.172.24.379.24.62z" fill="#212121" fill-rule="nonzero"/></g></svg>