<svg xmlns="http://www.w3.org/2000/svg" width="22" height="22" viewBox="0 0 22 22">
    <g fill="none" fill-rule="evenodd">
        <g fill="#212121" fill-rule="nonzero">
            <g>
                <g>
                    <g>
                        <path d="M20.25 9.797h-3.132c.014-.043.024-5.499.024-5.499 0-.258-.219-.467-.49-.467h-4.75v-.477C11.902 1.504 10.325 0 8.386 0H6.77c-1.94 0-3.517 1.505-3.517 3.354v.477H.49c-.27 0-.49.209-.49.467v16.711c0 .258.219.468.49.468h17.862c1.317 0 2.387-1.022 2.387-2.278v-8.934c0-.259-.219-.468-.49-.468zm-4.064 0h-1.1V4.765h1.077V9.66c0 .049.01.094.023.137zM4.232 3.355c0-1.335 1.138-2.42 2.537-2.42h1.617c1.399 0 2.537 1.085 2.537 2.42v.476H4.232v-.476zM.979 4.765h2.273v2.063c-.3.164-.506.47-.506.823 0 .524.447.95.996.95.55 0 .997-.426.997-.95 0-.354-.206-.66-.507-.823V4.765h6.691v2.063c-.3.164-.506.47-.506.823 0 .524.447.95.995.95.55 0 .997-.426.997-.95 0-.354-.206-.66-.507-.823V4.765h2.205v5.032h-3.679c-.27 0-.49.21-.49.468v10.277H.98V4.765zM19.76 19.2c0 .74-.632 1.343-1.408 1.343h-7.434v-9.81h8.842v8.467z" transform="translate(-1051 -873) translate(800 788) translate(246 80) translate(5 5)"/>
                        <path d="M12.541 13.256v.752c0 1.217 1.038 2.207 2.313 2.207h.975c1.275 0 2.313-.99 2.313-2.207v-.752c.3-.164.507-.469.507-.822 0-.525-.447-.951-.996-.951-.55 0-.997.426-.997.95 0 .354.206.66.507.823v.752c0 .702-.599 1.273-1.335 1.273h-.974c-.736 0-1.334-.571-1.334-1.273v-.752c.3-.164.507-.469.507-.822 0-.525-.447-.951-.996-.951-.55 0-.997.426-.997.95 0 .354.206.66.507.823z" transform="translate(-1051 -873) translate(800 788) translate(246 80) translate(5 5)"/>
                    </g>
                </g>
            </g>
        </g>
    </g>
</svg>
