<svg height="50" viewBox="0 0 50 50" width="50" xmlns="http://www.w3.org/2000/svg"><g fill="#fff"><path d="m23.536 0-19.018.464c-2.251.071-3.983 1.858-4.054 4.054l-.464 19.018c0 1.125.394 2.268 1.196 3.064l20.679 20.669c1.732 1.747 4.054 2.731 6.502 2.731 2.479 0 4.817-.929 6.533-2.731l12.358-12.304c1.748-1.716 2.732-4.054 2.732-6.501 0-2.464-.929-4.787-2.731-6.518l-20.669-20.75c-.797-.802-1.938-1.196-3.064-1.196zm22.465 28.464c0 1.378-.534 2.731-1.52 3.715l-12.302 12.302c-.983.985-2.337 1.52-3.715 1.52-1.409 0-2.732-.534-3.731-1.52l-20.679-20.677c-.07-.071-.07-.071-.07-.126l.464-19.018c0-.071.07-.212.212-.212l19.017-.464c.055 0 .055 0 .126.07l20.678 20.679c.986.999 1.52 2.322 1.52 3.731z"/><path d="m11.619 11.596c-2.785 2.787-2.785 7.346 0 10.133 1.349 1.366 3.228 2.077 5.053 2.077 1.81 0 3.619-.71 5.054-2.077 2.784-2.787 2.784-7.346 0-10.133-2.785-2.803-7.324-2.732-10.107 0zm7.377 7.401c-1.224 1.242-3.298 1.242-4.593 0-1.24-1.225-1.24-3.302 0-4.614.639-.64 1.49-.976 2.27-.976.834 0 1.685.336 2.269.976 1.294 1.242 1.294 3.318.054 4.614z"/></g></svg>