<svg height="50" viewBox="0 0 50 50" width="50" xmlns="http://www.w3.org/2000/svg"><g fill="#fff"><path d="m41.268 6.396h-32.551c-4.816 0-8.717 3.902-8.717 8.718v19.758c0 4.831 3.901 8.731 8.717 8.731h32.55c4.83 0 8.732-3.9 8.732-8.731v-19.758c.001-4.816-3.901-8.718-8.731-8.718zm-32.551 3.491h32.55c2.921 0 5.256 2.322 5.256 5.227v1.752h-43.033v-1.752c0-2.906 2.322-5.227 5.227-5.227zm32.551 30.241h-32.551c-2.905 0-5.227-2.335-5.227-5.256v-14.53h43.033v14.53c0 2.921-2.335 5.256-5.255 5.256z"/><path d="m9.13 28.477h11.159c.996 0 1.752-.742 1.752-1.728 0-.993-.756-1.749-1.752-1.749h-11.159c-.996 0-1.752.756-1.752 1.749 0 .985.756 1.728 1.752 1.728z"/><path d="m34.316 31.979h-25.186c-.996 0-1.752.743-1.752 1.753 0 .982.756 1.724 1.752 1.724h25.187c.98 0 1.723-.741 1.723-1.724-.001-1.009-.743-1.753-1.724-1.753z"/></g></svg>