<svg height="29" viewBox="0 0 29 29" width="29" xmlns="http://www.w3.org/2000/svg"><g fill="none" fill-rule="evenodd"><circle cx="14.5" cy="14.5" fill="#f5f5f5" opacity=".343" r="14.5"/><path d="m21.059 9.216c0-.237-.235-.427-.47-.427h-2.4c-.237-2.131-2.026-3.789-4.189-3.789-2.165 0-3.953 1.658-4.188 3.79h-2.4c-.236 0-.47.189-.47.426l-.942 13.263c0 .256.185.521.47.521h15.06c.265 0 .47-.218.47-.521zm-7.059-3.269c1.647 0 3.012 1.232 3.247 2.842h-6.494c.235-1.61 1.6-2.842 3.247-2.842zm-6.165 3.79h1.93v2.368c0 .284.188.474.47.474.283 0 .47-.19.47-.474v-2.368h6.59v2.368c0 .284.187.474.47.474.282 0 .47-.19.47-.474v-2.368h1.93l.659 9h-13.6zm-.847 12.316.188-2.369h13.695l.188 2.369h-14.07z" fill="#212121" fill-rule="nonzero" stroke="#212121" stroke-width=".4"/></g></svg>