<svg xmlns="http://www.w3.org/2000/svg" width="27" height="31" viewBox="0 0 27 31">
    <g fill="none" fill-rule="evenodd">
        <g stroke="#4A4A4A">
            <path d="M2.487 7.5a.5.5 0 0 0-.5.465l-1.5 21.5-.001.036a.5.5 0 0 0 .5.5H25.57l.035-.002a.5.5 0 0 0 .464-.533l-1.49-21.5a.5.5 0 0 0-.5-.466H2.488z"/>
            <path stroke-linecap="round" d="M1.2 25.6h24.362M7.2 10.129V7a6 6 0 1 1 12 0v3.075"/>
        </g>
        <path fill="#DA1C5C" stroke="#DA1C5C" stroke-linecap="round" stroke-linejoin="round" stroke-width=".3" d="M12.492 11.8L10.8 17.015h1.692l-1.38 5.124 4.229-6.254h-1.693l1.974-4.085z"/>
    </g>
</svg>
