<svg height="50" viewBox="0 0 50 50" width="50" xmlns="http://www.w3.org/2000/svg"><path d="m49 25c0 13.2546017-10.7453628 24-24 24s-24-10.7453983-24-24c0-13.2551697 10.7448303-24 24-24s24 10.7448303 24 24zm-3.978836 0c0-11.0577192-8.9634448-20.02116402-20.021164-20.02116402s-20.02116402 8.96344482-20.02116402 20.02116402c0 11.0571542 8.96398022 20.021164 20.02116402 20.021164s20.021164-8.9640098 20.021164-20.021164zm-22.010582-13.2063492c0-1.0987252.8906928-1.989418 1.989418-1.989418s1.989418.8906928 1.989418 1.989418v26.4126984c0 1.0987252-.8906928 1.989418-1.989418 1.989418s-1.989418-.8906928-1.989418-1.989418zm-11.2169312 15.1957672c-1.0987252 0-1.989418-.8906928-1.989418-1.989418s.8906928-1.989418 1.989418-1.989418h26.4126984c1.0987252 0 1.989418.8906928 1.989418 1.989418s-.8906928 1.989418-1.989418 1.989418z" fill="#181818"/></svg>