<svg height="25" viewBox="0 0 18 25" width="18" xmlns="http://www.w3.org/2000/svg"><g fill="none" fill-rule="evenodd" transform="translate(0 1)"><rect height="17.467354" rx="1.18" stroke="#fff" stroke-width="1.77" width="16.23" x=".885" y="5.647646"/><path d="m9.07102884 11.6315353c-.21954369-.5983403-.81188119-1.0174274-1.4911752-1.0174274h-1.57985364v-1.0141079h6v1.0141079h-2.31683168c.18854929.2414938.33060698.5136929.42014638.8049792.037882.1236515.1472234.2124482.2806715.2124482h1.6160138v1.0141079h-1.6151528c-.1343091 0-.2445114.0896265-.2823935.213278-.32458026 1.0589211-1.34050794 1.8182572-2.52260006 1.8182572h-.2505381l2.17821782 2.6995851-.83082221.6232365-2.61386139-3.2390041c-.04046491-.0514523-.06284976-.1128631-.06284976-.1767635v-.9211619h1.57985364c.67929401 0 1.27163151-.4190871 1.4911752-1.0174273h-3.07102884v-1.0141079z" fill="#fff"/><g stroke="#fff" stroke-width="1.77"><path d="m5.43888159 4.77941682v-2.33431884c.35093911-.71959342.67310888-1.20083184.96650931-1.44371526 1.28880872-1.0669046 2.3871738-.96312787 2.62496073-.96312787"/><path d="m8.96062072 4.77941682v-2.33431884c.35093911-.71959342.67310888-1.20083184.96650931-1.44371526 1.28880867-1.0669046 2.38717377-.96312787 2.62496077-.96312787" transform="matrix(-1 0 0 1 21.512712 0)"/></g></g></svg>