<svg enable-background="new 0 0 50 50" height="50" viewBox="0 0 50 50" width="50" xmlns="http://www.w3.org/2000/svg"><g fill="#010101"><path d="m46.918 22.689h-6.953c.036-.105.049-12.791.049-12.791 0-.593-.471-1.083-1.082-1.083h-10.528v-1.103c0-4.306-3.5-7.797-7.805-7.797h-3.59c-4.297 0-7.798 3.491-7.798 7.797v1.104h-6.128c-.594 0-1.083.49-1.083 1.083v38.841c0 .611.489 1.102 1.083 1.102h39.62c2.919 0 5.297-2.379 5.297-5.299v-20.771c0-.602-.489-1.083-1.082-1.083zm-9.02 0h-2.436v-11.698h2.387v11.373c.001.113.012.221.049.325zm-26.511-14.977c0-3.101 2.521-5.63 5.623-5.63h3.59c3.101 0 5.627 2.529 5.627 5.63v1.105h-14.84zm-7.213 3.279h5.038v4.791c-.669.381-1.123 1.094-1.123 1.911 0 1.225.99 2.215 2.215 2.215 1.217 0 2.208-.99 2.208-2.215 0-.817-.454-1.531-1.124-1.911v-4.791h14.839v4.791c-.665.381-1.119 1.094-1.119 1.911 0 1.225.987 2.215 2.215 2.215 1.216 0 2.206-.99 2.206-2.215 0-.817-.453-1.531-1.124-1.911v-4.791h4.894v11.698h-8.167c-.602 0-1.091.48-1.091 1.083v23.886h-19.867zm41.659 33.552c0 1.717-1.415 3.115-3.13 3.115h-16.488v-22.803h19.618z"/><path d="m30.089 30.344v1.75c0 2.83 2.315 5.127 5.145 5.127h2.158c2.831 0 5.128-2.316 5.128-5.127v-1.75c.67-.391 1.124-1.102 1.124-1.92 0-1.217-.99-2.205-2.206-2.205-1.217 0-2.207.988-2.207 2.205 0 .816.454 1.531 1.123 1.92v1.75c0 1.625-1.335 2.941-2.962 2.941h-2.158c-1.645 0-2.961-1.316-2.961-2.941v-1.75c.669-.391 1.123-1.102 1.123-1.92 0-1.217-.99-2.205-2.206-2.205-1.235 0-2.225.988-2.225 2.205.001.816.472 1.531 1.124 1.92z"/></g></svg>