<svg enable-background="new 0 0 50 50" height="50" viewBox="0 0 50 50" width="50" xmlns="http://www.w3.org/2000/svg"><g transform="translate(1 1)"><g fill="none" stroke="#040505" stroke-width="1.4"><path d="m44.728 39.75h-41.463c-1.793 0-3.265-1.458-3.265-3.242v-25.016c0-1.784 1.472-3.242 3.265-3.242h41.463c1.807 0 3.272 1.458 3.272 3.242v25.016c0 1.784-1.465 3.242-3.272 3.242z"/><path d="m6 27.75h3" stroke-linecap="round"/><path d="m12 27.75h3" stroke-linecap="round"/><path d="m18 27.75h3" stroke-linecap="round"/><path d="m6 32.25h13.5" stroke-linecap="round"/></g><path d="m31.91 30c0-1.033.85-1.875 1.895-1.875.172 0 .326.015.494.059-.318.555-.494 1.172-.494 1.816s.176 1.262.494 1.816c-1.164.302-2.389-.629-2.389-1.816m6.096-1.875c1.095 0 1.988.842 1.988 1.875s-.894 1.875-1.988 1.875c-1.111 0-2.006-.842-2.006-1.875s.895-1.875 2.006-1.875m-2.154 5.021c.619.377 1.359.604 2.154.604 2.203 0 3.994-1.684 3.994-3.75s-1.791-3.75-3.994-3.75c-.795 0-1.537.227-2.154.604-.61-.383-1.313-.604-2.047-.604-2.104 0-3.805 1.684-3.805 3.75s1.701 3.75 3.805 3.75c.734 0 1.436-.221 2.047-.604" fill="#040505"/></g></svg>