<svg height="28" viewBox="0 0 26 28" width="26" xmlns="http://www.w3.org/2000/svg" xmlns:xlink="http://www.w3.org/1999/xlink"><defs><rect id="a" height="22" rx="11" width="22"/><filter id="b" height="154.5%" width="154.5%" x="-27.3%" y="-18.2%"><feOffset dy="2" in="SourceAlpha" result="shadowOffsetOuter1"/><feGaussianBlur in="shadowOffsetOuter1" result="shadowBlurOuter1" stdDeviation="1"/><feColorMatrix in="shadowBlurOuter1" result="shadowMatrixOuter1" values="0 0 0 0 0 0 0 0 0 0 0 0 0 0 0 0 0 0 0.24 0"/><feOffset in="SourceAlpha" result="shadowOffsetOuter2"/><feGaussianBlur in="shadowOffsetOuter2" result="shadowBlurOuter2" stdDeviation="1"/><feColorMatrix in="shadowBlurOuter2" result="shadowMatrixOuter2" values="0 0 0 0 0 0 0 0 0 0 0 0 0 0 0 0 0 0 0.12 0"/><feMerge><feMergeNode in="shadowMatrixOuter1"/><feMergeNode in="shadowMatrixOuter2"/></feMerge></filter></defs><g fill="none" fill-rule="evenodd"><g transform="translate(2 2)"><use fill="#000" filter="url(#b)" xlink:href="#a"/><use fill="#ff1744" xlink:href="#a"/></g><path d="m14.473 13.5 4.325-4.326a.688.688 0 1 0 -.972-.972l-4.326 4.325-4.326-4.325a.688.688 0 1 0 -.972.972l4.325 4.326-4.325 4.326a.688.688 0 1 0 .972.972l4.326-4.325 4.326 4.325a.686.686 0 0 0 .972 0 .688.688 0 0 0 0-.972z" fill="#fff" fill-rule="nonzero"/></g></svg>