<svg xmlns="http://www.w3.org/2000/svg" width="12" height="12" viewBox="0 0 12 12">
    <g fill="none" fill-rule="nonzero" stroke="#4A4A4A" stroke-width=".5">
        <path d="M5.525 1.125c.239 0 .452.087.616.25l4.525 4.5a.887.887 0 0 1 .264.625c0 .237-.088.45-.264.612l-3.52 3.5a.868.868 0 0 1-1.231.013l-4.525-4.5a.887.887 0 0 1-.264-.625V2c0-.488.39-.875.88-.875h3.519zm0-.125h-3.52C1.454 1 1 1.45 1 2v3.5a1 1 0 0 0 .302.713l4.525 4.5A1 1 0 0 0 6.53 11a.96.96 0 0 0 .703-.3l3.52-3.5a.95.95 0 0 0 .302-.7 1 1 0 0 0-.302-.713l-4.525-4.5A1 1 0 0 0 5.525 1z"/>
        <path d="M3.765 3.125a.62.62 0 0 1 .629.625.62.62 0 0 1-.629.625.62.62 0 0 1-.628-.625.62.62 0 0 1 .628-.625zm0-.125a.754.754 0 0 0-.754.75.754.754 0 0 0 1.508 0c0-.413-.339-.75-.754-.75z"/>
    </g>
</svg>
