<svg height="46" viewBox="0 0 48 46" width="48" xmlns="http://www.w3.org/2000/svg"><path d="m37.9221102 45.8928563c.5097393-.0508779.9407618-.294708 1.2604289-.7103712.2879883-.416623.4223828-.8975635.3321465-1.4063428l-2.3451848-14.2957395 10.269663-10.1919061c.5078193-.4751807.6921318-1.2018712.4646211-1.8757638-.196792-.6585333-.7919679-1.1481134-1.4591408-1.2460294l-14.3322179-2.1819914-6.4739771-12.95851377c-.3139073-.62973443-.9417218-1.02619833-1.6415334-1.02619833-.7007715 0-1.3353057.3964639-1.6415333 1.02619833l-6.4902964 12.95851377-14.31685862 2.1819914c-.68157232.097916-1.2460294.5874961-1.45818078 1.2460294-.21215139.6738926-.04415821 1.3996231.44830179 1.8757638l10.28598231 10.1919061-2.34518478 14.2957395c-.11711525.6998115.16607325 1.4005831.72957038 1.7864874.5634971.418543 1.3141866.4665411 1.9429611.1391943l12.8452383-6.6563696 12.8442784 6.6563696c.3302266.1833526.7055714.2380704 1.0809161.1910323zm-2.6293332-5.1559506-10.4501356-5.3959409c-.5202989-.2803086-1.1701925-.2803086-1.6904914 0l-10.4501356 5.3959409 1.9199221-11.5886494c.0950361-.6038155-.0950362-1.2105109-.518379-1.6309738l-8.36702021-8.2767839 11.60688861-1.7567286c.6038155-.0758369 1.1020353-.4502217 1.380424-.9877999l5.2730658-10.52597254 5.2903452 10.52501254c.2447901.5385382.7593292.911963 1.3631446.9877999l11.6222481 1.7567287-8.3823796 8.2767839c-.4223829.4204629-.6134151 1.0271582-.517419 1.6309737z" fill="#d7d7d7"/></svg>