<?xml version="1.0" encoding="UTF-8"?>
<svg width="20px" height="20px" viewBox="0 0 20 20" version="1.1" xmlns="http://www.w3.org/2000/svg" xmlns:xlink="http://www.w3.org/1999/xlink">
    <!-- Generator: Sketch 61.2 (89653) - https://sketch.com -->
    <title>Shape Copy</title>
    <desc>Created with Sketch.</desc>
    <g id="App-/-PWA-Designs" stroke="none" stroke-width="1" fill="none" fill-rule="evenodd">
        <path d="M15.8008793,19.1220235 C16.0132706,19.1008243 16.1928633,18.9992285 16.326058,18.8260355 C16.4460531,18.6524425 16.5020508,18.4520507 16.4644523,18.2400593 L15.487292,12.2835012 L19.7663183,8.03687363 C19.9779096,7.83888167 20.0547065,7.53609396 19.9599104,7.25530537 C19.8779137,6.9809165 19.6299238,6.77692479 19.351935,6.73612646 L13.3801776,5.82696337 L10.6826871,0.427582637 C10.5518924,0.165193292 10.290303,0 9.99871488,0 C9.70672675,0 9.4423375,0.165193292 9.31474267,0.427582637 L6.6104525,5.82696337 L0.645094742,6.73612646 C0.361106276,6.77692479 0.125915826,6.9809165 0.0375194174,7.25530537 C-0.0508769951,7.53609396 0.0191201632,7.83848167 0.22431183,8.03687363 L4.51013779,12.2835012 L3.53297747,18.2400593 C3.48417945,18.5316474 3.60217465,18.8236356 3.83696513,18.984429 C4.07175558,19.158822 4.38454288,19.1788212 4.64653225,19.0424267 L9.99871488,16.2689393 L15.3504975,19.0424267 C15.488092,19.1188236 15.6444856,19.1416227 15.8008793,19.1220235 Z M14.7053238,16.9737107 L10.3511006,14.725402 C10.1343094,14.6086067 9.86352038,14.6086067 9.64672917,14.725402 L5.292506,16.9737107 L6.09247354,12.1451068 C6.13207192,11.893517 6.05287513,11.6407272 5.87648229,11.4655344 L2.39022387,8.01687442 L7.22642746,7.28490417 C7.47801725,7.25330546 7.68560883,7.09731179 7.80160413,6.87332087 L9.99871488,2.48749898 L12.2030254,6.87292087 C12.3050213,7.09731179 12.5194125,7.25290546 12.7710023,7.28450417 L17.6136057,8.01647446 L14.1209475,11.4651344 C13.9449546,11.6403273 13.8653579,11.893117 13.9053563,12.1447068 L14.7053238,16.9737107 Z" id="Shape-Copy" fill="#A6A6A6" fill-rule="nonzero"></path>
    </g>
</svg>