<svg xmlns="http://www.w3.org/2000/svg" width="18" height="18" viewBox="0 0 18 18">
    <g fill="none" fill-rule="evenodd">
        <path fill="#F8F8F8" d="M0 0H18V18H0z"/>
        <g fill-rule="nonzero">
            <g stroke="#4A4A4A" stroke-linejoin="round" stroke-width=".5">
                <path d="M9.148 5.739V1.355h0L5.082 2.711v5.42l3.082-1.026c.588-.196.984-.747.984-1.366z" transform="translate(1 1.5) translate(2.824 3.294)"/>
                <path fill="#FFF" d="M9.94 2.668l-.775-1.313h0l-4 1.356.851 1.442c.087.147.264.213.426.158l3.303-1.12c.188-.063.29-.268.225-.456-.008-.023-.018-.046-.03-.067z" transform="translate(1 1.5) translate(2.824 3.294)"/>
                <path d="M1.016 5.739V1.355h0l4.066 1.356v5.42l-3.08-1.026c-.589-.196-.986-.747-.986-1.366z" transform="translate(1 1.5) translate(2.824 3.294)"/>
                <path fill="#FFF" d="M.225 2.668L1 1.355h0l4 1.356-.851 1.442c-.087.147-.265.213-.426.158L.42 3.19c-.188-.063-.29-.268-.226-.456.008-.023.019-.046.031-.067z" transform="translate(1 1.5) translate(2.824 3.294)"/>
                <path d="M1.016 1.355L4.172.304c.59-.197 1.23-.197 1.821 0l3.155 1.051h0L5.082 2.711 1.016 1.355z" transform="translate(1 1.5) translate(2.824 3.294)"/>
            </g>
            <path fill="#4A4A4A" d="M1.093 7.844l.062.036 1.043.78c.144.109.173.312.066.456-.095.126-.262.164-.4.1l-.056-.034-.271-.203c.77 2.845 3.399 4.896 6.466 4.896 3.109 0 5.787-2.11 6.507-5.052.043-.175.219-.282.393-.239.175.043.281.219.239.393-.792 3.233-3.73 5.549-7.139 5.549-3.425 0-6.353-2.334-7.138-5.548l-.256.459c-.087.156-.286.212-.442.125-.138-.077-.198-.238-.152-.382l.026-.06.635-1.138c.084-.15.267-.206.417-.138zM8.003 0c3.453 0 6.397 2.37 7.156 5.619l.232-.417c.087-.157.286-.213.442-.125.138.077.198.238.152.382l-.026.06-.635 1.138c-.084.15-.267.205-.417.138l-.062-.037-1.043-.78c-.144-.108-.173-.312-.066-.455.095-.126.262-.164.4-.1l.056.034.315.235C13.79 2.774 11.125.65 8.003.65c-3.129 0-5.82 2.138-6.52 5.107-.04.175-.216.283-.39.242-.175-.042-.284-.217-.242-.391C1.62 2.346 4.572 0 8.003 0z" transform="translate(1 1.5)"/>
        </g>
    </g>
</svg>
