<svg enable-background="new 0 0 50 50" height="50" viewBox="0 0 50 50" width="50" xmlns="http://www.w3.org/2000/svg"><g><path d="m49.815 25.077-6.446-10.5c-.204-.344-.586-.559-.983-.559h-9.082c-.104-.961-.484-2.644-1.724-3.954-1.152-1.176-2.715-1.769-4.665-1.769h-17.202c-.649 0-1.167.521-1.167 1.175v2.888h-3.463c-.639 0-1.156.531-1.156 1.185 0 .643.516 1.174 1.156 1.174h12.106c.639 0 1.167-.531 1.167-1.174 0-.654-.528-1.185-1.167-1.185h-6.32v-1.714h16.045c1.303 0 2.29.36 2.973 1.052 1.159 1.187 1.129 3.026 1.128 3.072v19.205s-8.527.01-8.61.022c-.817-2.122-2.854-3.664-5.26-3.664-2.376 0-4.419 1.511-5.232 3.642h-1.045v-5.064c0-.642-.516-1.174-1.156-1.174h-7.345c-.639 0-1.167.532-1.167 1.174 0 .644.528 1.176 1.167 1.176h6.179v5.064c0 .644.517 1.176 1.167 1.176h1.833c.15 2.986 2.608 5.379 5.6 5.379 3.002 0 5.461-2.393 5.611-5.379h11.27c.149 2.986 2.598 5.379 5.61 5.379 2.99 0 5.438-2.393 5.589-5.379h3.606c.64 0 1.168-.532 1.168-1.176v-9.446c0-.219-.055-.435-.185-.626zm-32.669 14.277c-1.813 0-3.285-1.503-3.285-3.326 0-1.845 1.473-3.326 3.285-3.326 1.823 0 3.308 1.481 3.308 3.326-.001 1.824-1.485 3.326-3.308 3.326zm22.491 0c-1.834 0-3.307-1.503-3.307-3.326 0-1.845 1.473-3.326 3.307-3.326 1.813 0 3.284 1.481 3.284 3.326 0 1.824-1.472 3.326-3.284 3.326zm5.229-5.38c-.822-2.133-2.865-3.644-5.229-3.644-2.387 0-4.43 1.511-5.252 3.644h-1.034v-17.596h8.394l4.683 7.618h-8.379v-3.42h1.938c.639 0 1.167-.531 1.167-1.185 0-.644-.528-1.175-1.167-1.175h-3.083c-.662 0-1.168.531-1.168 1.175v5.78c0 .654.506 1.18 1.168 1.18h10.762v7.623z"/><path d="m9.713 16.436c-.649 0-1.167.532-1.167 1.186v4.937h-4.277c-.649 0-1.167.532-1.167 1.175 0 .654.517 1.174 1.167 1.174h9.457c.65 0 1.167-.521 1.167-1.175 0-.644-.517-1.175-1.167-1.175h-2.856v-4.937c0-.653-.517-1.185-1.157-1.185z"/><path d="m2.367 18.796h3.416c.64 0 1.157-.531 1.157-1.175 0-.654-.517-1.186-1.157-1.186h-3.416c-.639 0-1.167.531-1.167 1.186 0 .644.528 1.175 1.167 1.175z"/><path d="m2.399 23.733c0-.644-.516-1.175-1.156-1.175h-.076c-.65 0-1.167.532-1.167 1.175 0 .654.517 1.175 1.167 1.175h.076c.64 0 1.156-.521 1.156-1.175z"/></g></svg>