<svg height="20" viewBox="0 0 29 20" width="29" xmlns="http://www.w3.org/2000/svg"><g fill="none" fill-rule="evenodd" stroke="#fff" stroke-width="1.4" transform="translate(1 1)"><path d="m24.8173364 17.7647727h-22.47381822c-.97363636 0-1.77054545-.7969091-1.77054545-1.7713636v-13.64972728c0-.97445455.79690909-1.77136364 1.77054545-1.77136364h22.47381822c.9736363 0 1.7713636.79690909 1.7713636 1.77136364v13.64972728c0 .9744545-.7977273 1.7713636-1.7713636 1.7713636z"/><path d="m9.23432727.39837273v17.19245457"/><path d="m.57305455 9.0612h26.01572725"/><path d="m10.0844182 4.3407c-1.09390911 1.09390909-.68072729 4.644-.68072729 4.644s3.54927269.41318182 4.64399999-.68154545c1.0947273-1.0939091 1.0947273-2.86854546 0-3.96245455s-2.8685454-1.09390909-3.9632727 0z"/><path d="m9.59547273 9.56659091c-.21763637 1.53245459 1.65599997 4.04999999 3.18845457 4.26681819" stroke-linecap="round"/><path d="m8.79725455 9.56659091c.21681818 1.53245459-1.4269091 4.04999999-2.95936364 4.26681819" stroke-linecap="round"/><path d="m8.38333636 4.3407c1.09472728 1.09390909.68072728 4.644.68072728 4.644s-3.54927273.41318182-4.644-.68154545c-1.09390909-1.0939091-1.09390909-2.86854546 0-3.96245455 1.09472727-1.09390909 2.86854545-1.09390909 3.96327272 0z"/></g></svg>