<svg enable-background="new 0 0 50 50" height="50" viewBox="0 0 50 50" width="50" xmlns="http://www.w3.org/2000/svg"><path d="m45.743 31c-3.001 0-5.414 2.444-5.414 5.415 0 1.059.316 2.077.871 2.915h-7.924c-.781.068-1.277.627-1.275 1.288v11.531c0 .708.581 1.288 1.275 1.288h2.577v26.289c0 .695.568 1.275 1.275 1.275h39.745c.695 0 1.276-.58 1.276-1.275v-26.928c.003-.463-.241-.898-.636-1.124-.396-.239-.886-.239-1.28 0-.396.226-.639.661-.636 1.124v25.651h-17.322v-25.013h22.449c.695 0 1.275-.58 1.275-1.288v-11.531c0-.708-.58-1.288-1.275-1.288h-7.911c.541-.838.846-1.855.846-2.915 0-2.97-2.401-5.415-5.391-5.415-3.159 0-5.416 1.487-7.174 3.17-1.502 1.419-2.728 2.979-4.095 4.158-1.367-1.179-2.593-2.739-4.082-4.158-1.757-1.682-4.026-3.169-7.174-3.169zm0 2.564c2.375 0 3.84.996 5.393 2.465 1.01.976 2.004 2.168 3.157 3.3h-8.868c-.121-.058-.246-.105-.386-.131-1.243-.356-2.146-1.487-2.146-2.784 0-1.626 1.196-2.85 2.85-2.85zm22.526 0c1.63 0 2.839 1.224 2.839 2.851 0 1.297-.917 2.427-2.146 2.784-.14.025-.252.073-.386.131h-8.88c1.165-1.132 2.146-2.325 3.169-3.3 1.552-1.47 3.017-2.466 5.404-2.466zm-33.705 8.329h21.161v8.98h-21.161zm23.711 0h21.174v8.98h-21.174zm-19.859 11.543h17.309v25.013h-17.309z" fill="#010101" transform="translate(-32 -31)"/></svg>