<svg height="50" viewBox="0 0 50 50" width="50" xmlns="http://www.w3.org/2000/svg"><g fill="#fff" fill-rule="evenodd" transform="translate(1 4)"><path d="m46.0139273 18.1610422c1.5812219 1.8460716 1.5812219 4.6010748 0 6.4471464-7.7049481 8.9618301-15.3278948 12.507196-22.0139533 12.507196-6.6860586 0-14.30900534-3.5453659-22.01437018-12.5076817-1.58080509-1.8455859-1.58080509-4.6005891.00041675-6.4466607 7.70494809-8.96183009 15.32789483-12.50719605 22.01395343-12.50719605 6.6860585 0 14.3090052 3.54536596 22.0139533 12.50719605zm-2.4351634 4.2733998c.514191-.6003918.514191-1.4992615 0-2.0996532-5.6339405-6.5476902-12.4905812-11.38283967-19.5787639-11.38283967s-13.9448234 4.83514947-19.57824357 11.38223347c-.51471131.6009979-.51471131 1.4998676-.00052034 2.1002594 5.63394051 6.5476902 12.49058121 11.3828396 19.57876391 11.3828396s13.9448234-4.8351494 19.5787639-11.3828396z" fill-rule="nonzero"/><path d="m24.2987162 12.9231101c2.2191869-.0059207 4.3489379.8780893 5.9216365 2.4575527 1.5726986 1.5794635 2.4595163 3.7249976 2.4653627 5.9655224-.0000644 4.6461202-3.7263556 8.4147934-8.3282209 8.4229443-4.6018653.0081508-8.3412307-3.747299-8.3574416-8.3933904s3.6968553-8.4280464 8.2986633-8.452629zm.0042806 14.0170945c1.4743776.0064117 2.891727-.5797136 3.9387112-1.6292147 1.0469842-1.049501 1.6376726-2.4762404 1.641891-3.9648024-.0000791-3.0842339-2.4726975-5.5865134-5.5275491-5.5938565s-5.5392436 2.483021-5.5538689 5.5672196c-.0146253 3.0841985 2.4460346 5.5984653 5.5008158 5.620654z" fill-rule="nonzero"/><rect height="48.461539" rx="1.8" transform="matrix(.81915204 .57357644 -.57357644 .81915204 16.421626 -10.082743)" width="3.6" x="22.4" y="-3.230769"/></g></svg>