<svg enable-background="new 0 0 50 50" height="50" viewBox="0 0 50 50" width="50" xmlns="http://www.w3.org/2000/svg"><g fill="#212121"><path d="m13.899 21.289c-.028.017-.049.028-.059.047-.019.007-.04.009-.051.024-.343.214-.555.583-.555.979v11.201c0 .443.262.844.665 1.038l10.586 5.015c.165.068.339.109.512.109.168 0 .326-.047.486-.109.006 0 .013.004.026 0l10.581-5.015c.418-.194.673-.595.673-1.038v-11.171c0-.006.003-.012.003-.026 0-.443-.255-.853-.673-1.047l-10.58-5.007c-.321-.15-.702-.151-1.023 0zm18.962 1.052-1.512.713-6.352 3.002-2.568-1.219 7.858-3.713zm-17.266 1.847 8.225 3.89v8.63l-8.225-3.896zm10.579 12.521v-8.631l5.647-2.667 2.588-1.221v8.62zm1.404-16.867-7.873 3.713-2.57-1.219 7.865-3.712z"/><path d="m22.81 29.789-3.35-1.715c-.633-.327-1.388-.043-1.687.632-.3.675-.042 1.472.589 1.801l3.35 1.715c.183.093.364.138.551.138.469 0 .925-.285 1.143-.77.301-.674.034-1.471-.596-1.801z"/><path d="m49.467 20.343-6.645-4.384c-.008-.013-.016-.018-.039-.023l-17.149-11.334c-.385-.254-.878-.254-1.264-.004l-17.167 11.342c-.005.003-.009.006-.021.009l-6.649 4.393c-.538.36-.698 1.093-.343 1.639.346.553 1.062.707 1.6.356l4.892-3.226v24.103h-3.553c-.64 0-1.157.533-1.157 1.182 0 .665.518 1.197 1.157 1.197h44.367c.641 0 1.15-.532 1.15-1.197 0-.648-.51-1.182-1.15-1.182h-4.178v-24.102l4.885 3.226c.195.127.422.192.631.192.385 0 .764-.193.977-.541.346-.553.195-1.287-.344-1.646zm-8.463 22.873h-32v-25.639l15.998-10.569 16.002 10.568z"/></g></svg>