<svg height="50" viewBox="0 0 50 50" width="50" xmlns="http://www.w3.org/2000/svg"><path d="m25 12.5c-1.731 0-3.125 1.395-3.125 3.125s1.394 3.125 3.125 3.125c1.721 0 3.125-1.394 3.125-3.125s-1.404-3.125-3.125-3.125zm0 9.375c-1.731 0-3.125 1.394-3.125 3.125v9.375c0 1.714 1.394 3.125 3.125 3.125 1.721 0 3.125-1.411 3.125-3.125v-9.375c0-1.73-1.404-3.125-3.125-3.125zm0-21.875c-13.791 0-25 11.209-25 25 0 13.774 11.209 25 25 25 13.774 0 25-11.226 25-25 0-13.791-11.226-25-25-25zm0 46.875c-12.062 0-21.875-9.814-21.875-21.875s9.813-21.875 21.875-21.875c12.061 0 21.875 9.814 21.875 21.875s-9.814 21.875-21.875 21.875z" fill="#4a4a4a"/></svg>