<svg xmlns="http://www.w3.org/2000/svg" width="12" height="12" viewBox="0 0 12 12">
    <g fill="none" fill-rule="evenodd">
        <g fill-rule="nonzero">
            <g>
                <g>
                    <path fill="#6DBF31" d="M11.995 5.9C11.881 2.634 9.28.063 6 0 2.688-.063.063 2.784.001 6.001c-.064 3.311 2.783 5.936 6 5.998 3.277.063 5.88-2.724 5.994-5.898.004-.032.005-.066.005-.1 0-.036-.001-.07-.005-.102z" transform="translate(-522 -667) translate(395 667) translate(127)"/>
                    <path fill="#FFF" d="M5.92 9.025c.03.036.064.054.1.054.062 0 .122-.027.18-.08.164-.134.357-.373.58-.72l.186.107c-.542.942-1.117 1.413-1.726 1.413-.231 0-.415-.066-.553-.197-.138-.13-.207-.297-.207-.497 0-.133.031-.302.094-.506l.746-2.566c.071-.244.107-.428.107-.553 0-.08-.035-.15-.103-.213-.07-.062-.162-.093-.277-.093-.058 0-.122.002-.193.006l.066-.213 1.82-.293h.32l-1.1 3.812c-.058.218-.087.362-.087.433 0 .036.016.071.047.106zM7.286 3.551c-.155.153-.342.23-.56.23-.213 0-.396-.077-.55-.23-.153-.153-.23-.339-.23-.556 0-.218.076-.405.227-.56.151-.156.336-.234.553-.234.222 0 .41.078.563.234.154.155.23.342.23.56 0 .217-.077.403-.233.556z" transform="translate(-522 -667) translate(395 667) translate(127)"/>
                </g>
            </g>
        </g>
    </g>
</svg>
