<svg xmlns="http://www.w3.org/2000/svg" width="16" height="16" viewBox="0 0 16 16">
    <g fill="none">
        <path fill="#FFF" stroke="#212121" stroke-width=".622" d="M13.995 6.883C13.86 3.074 10.825.075 7 0 3.136-.073.074 3.248.001 7.001c-.074 3.863 3.247 6.925 7 6.998 3.823.073 6.86-3.178 6.994-6.88C13.998 7.08 14 7.04 14 7c0-.04-.002-.08-.005-.117z" transform="translate(1 1)"/>
        <path fill="#000" d="M6.906 10.53c.037.042.075.062.117.062.073 0 .143-.031.21-.094.192-.155.417-.435.677-.84l.217.125c-.632 1.1-1.304 1.649-2.014 1.649-.27 0-.484-.077-.645-.23-.16-.152-.24-.346-.24-.58 0-.155.035-.352.108-.59l.87-2.993c.084-.285.125-.5.125-.646 0-.093-.04-.175-.12-.249-.08-.072-.188-.108-.323-.108-.067 0-.143.002-.225.007l.077-.248 2.123-.342h.373L6.953 9.9c-.067.254-.1.422-.1.505 0 .042.017.083.053.125zM8.5 4.143c-.18.179-.399.268-.653.268-.248 0-.462-.09-.641-.268-.179-.179-.268-.395-.268-.65 0-.253.088-.471.264-.653.176-.18.391-.272.645-.272.26 0 .478.091.657.272.179.182.269.4.269.654s-.091.47-.273.649z" transform="translate(1 1)"/>
    </g>
</svg>
