<svg height="25" viewBox="0 0 25 25" width="25" xmlns="http://www.w3.org/2000/svg" xmlns:xlink="http://www.w3.org/1999/xlink"><mask id="a" fill="#fff"><path d="m11.5 23c-6.342424 0-11.5-5.157576-11.5-11.5 0-6.34242 5.157576-11.5 11.5-11.5 6.34242 0 11.5 5.15758 11.5 11.5 0 6.342424-5.15758 11.5-11.5 11.5zm0-22.30303c-5.959091 0-10.80303 4.84394-10.80303 10.80303 0 5.959091 4.843939 10.80303 10.80303 10.80303 5.95909 0 10.80303-4.843939 10.80303-10.80303 0-5.95909-4.84394-10.80303-10.80303-10.80303z" fill="#fff" fill-rule="evenodd"/></mask><mask id="b" fill="#fff"><path d="m.08182.01515h.87121v8.23485h-.87121z" fill="#fff" fill-rule="evenodd"/></mask><mask id="c" fill="#fff"><path d="m.08182.75h.87121v1.2197h-.87121z" fill="#fff" fill-rule="evenodd"/></mask><g fill="none" fill-rule="evenodd"><path d="m-5 28h33v-33h-33z" fill="#000" mask="url(#a)" transform="translate(1 1)"/><path d="m12.5 24c6.34242 0 11.5-5.15758 11.5-11.5 0-6.342424-5.15758-11.5-11.5-11.5-6.342424 0-11.5 5.157576-11.5 11.5 0 6.34242 5.157576 11.5 11.5 11.5zm0-22.3030303c5.95909 0 10.80303 4.8439393 10.80303 10.8030303 0 5.95909-4.84394 10.80303-10.80303 10.80303-5.959091 0-10.8030303-4.84394-10.8030303-10.80303 0-5.959091 4.8439393-10.8030303 10.8030303-10.8030303z" stroke="#4a4a4a" stroke-width=".5"/><path d="m-4.918182 13.25h10.87121v-18.23485h-10.87121z" fill="#000" mask="url(#b)" transform="translate(12 10)"/><path d="m12.08182 10.01515h.8712121v8.234848h-.8712121z" stroke="#4a4a4a" stroke-width=".5"/><path d="m-4.918182 6.9697h10.87121v-11.2197h-10.87121z" fill="#000" mask="url(#c)" transform="translate(12 6)"/><path d="m12.08182 6.75h.8712121v1.219697h-.8712121z" stroke="#4a4a4a" stroke-width=".5"/></g></svg>