<svg height="50" viewBox="0 0 50 50" width="50" xmlns="http://www.w3.org/2000/svg"><path d="m43.9998154 39.4485878c0 .461671-.1802355.9044331-.5010568 1.2308838s-.7559483.5098488-1.2096581.5098488h-34.57838562c-.94480174 0-1.71071488-.7793525-1.71071488-1.7407326 0-.96138.76591314-1.7407325 1.71071488-1.7407325h.83291366v-15.4686673c.00747279-7.6013531 5.04505396-14.24428329 12.26926706-16.17917035.3591005-2.34466019 1.6658273-4.06001765 4.1645683-4.06001765s3.8054678 1.73058252 4.1645683 4.06001765c7.2440067 1.91551207 12.3057209 8.56324255 12.3191421 16.17917035v15.4432921h.8528637c.4537253.0066811.8862532.1965181 1.2024081.5277383.3161549.3312203.4900315.7766841.4833693 1.2383694zm-18.997414 8.5514122c2.9894665.0000013 5.4136798-2.464478 5.4164326-5.5063989h-10.8328651c.0027527 3.0419209 2.4269661 5.5064002 5.4164325 5.5063989z" fill="#2d2d2d" stroke="#fff" stroke-width="2.52175"/></svg>