<?xml version="1.0" encoding="UTF-8"?>
<svg width="16px" height="15px" viewBox="0 0 16 15" version="1.1" xmlns="http://www.w3.org/2000/svg" xmlns:xlink="http://www.w3.org/1999/xlink">
    <!-- Generator: Sketch 61.2 (89653) - https://sketch.com -->
    <title>Group 13 Copy</title>
    <desc>Created with Sketch.</desc>
    <defs>
        <rect id="path-1" x="0" y="0" width="6" height="15"></rect>
    </defs>
    <g id="App-/-PWA-Designs" stroke="none" stroke-width="1" fill="none" fill-rule="evenodd">
        <g id="Group-13-Copy">
            <path d="M12.3303918,14.5021748 L12.3431556,14.5007374 C12.3730713,14.4977571 12.3880839,14.4894484 12.3927617,14.4826514 C12.4186968,14.4449673 12.4252234,14.4186061 12.419788,14.3874518 L11.611636,9.46113174 L11.7945708,9.27959896 L15.1616845,5.938595 C15.184763,5.91699978 15.1927476,5.88493126 15.1755821,5.8331865 C15.1686521,5.80988266 15.136445,5.78267221 15.1028683,5.77772967 L10.1741565,5.02565113 L10.0582004,4.79471413 L7.93111852,0.558433466 C7.91221333,0.520507452 7.87951488,0.5 7.84213405,0.5 C7.80457238,0.5 7.77162993,0.520590767 7.75272461,0.559283981 L5.51573462,5.02565404 L5.25989909,5.0646452 L0.576764497,5.77836981 C0.546117984,5.78277255 0.517006236,5.80777684 0.506352813,5.8408096 C0.492621967,5.88442523 0.501828597,5.92328811 0.527863432,5.9485124 L4.07267043,9.4608984 L4.0309115,9.7154518 L3.26421725,14.3890384 C3.25744333,14.4295153 3.27134071,14.4636786 3.30764346,14.4889623 C3.33546817,14.5096294 3.37510722,14.5123841 3.4144272,14.4919147 L7.84213405,12.1973168 L8.07219385,12.3165421 L12.283035,14.499005 C12.2899934,14.5028798 12.3048398,14.5053852 12.3303918,14.5021748 Z" id="Path-Copy-5" stroke="#A6A6A6" fill-rule="nonzero"></path>
            <g id="Path-Copy-2">
                <mask id="mask-2" fill="white">
                    <use xlink:href="#path-1"></use>
                </mask>
                <g id="Mask"></g>
                <path d="M12.3927223,14.9982745 C12.5596243,14.9816471 12.7111537,14.9019608 12.8046439,14.7661176 C12.8981341,14.6302745 12.9423693,14.4727843 12.9131929,14.3065098 L12.1467615,9.6345098 L15.5033105,6.30368627 C15.6692713,6.14839216 15.7295066,5.91090196 15.6548399,5.69066667 C15.5908399,5.47545098 15.3960164,5.31545098 15.1782909,5.28345098 L10.505036,4.57035294 L8.37860464,0.335372549 C8.27601641,0.129568627 8.07115366,0 7.84213405,0 C7.61342817,0 7.40605562,0.129568627 7.30566347,0.335372549 L5.18456543,4.57035294 L0.505663482,5.28345098 C0.282918384,5.31545098 0.0987615214,5.47545098 0.029428188,5.69066667 C-0.0399051453,5.91090196 0.0149968155,6.14807843 0.175937992,6.30368627 L3.5375066,9.6345098 L2.77107525,14.3065098 C2.73280074,14.5352157 2.82503603,14.7642353 3.00950662,14.8903529 C3.19366347,15.0271373 3.4389968,15.0428235 3.644487,14.9358431 L7.84213405,12.7604706 L12.0397811,14.9358431 C12.147389,14.9957647 12.2703693,15.0136471 12.3927223,14.9982745 Z" fill="#F5A623" fill-rule="nonzero" mask="url(#mask-2)"></path>
            </g>
        </g>
    </g>
</svg>