<svg height="50" viewBox="0 0 50 50" width="50" xmlns="http://www.w3.org/2000/svg"><path d="m25 0c-13.7853659 0-25 11.2146531-25 25.0000122 0 13.7852981 11.2146341 24.9999878 25 24.9999878s25-11.2146897 25-24.9999878c0-13.7853591-11.2146341-25.0000122-25-25.0000122zm0 1.89393939c12.7843853 0 23.1060606 10.32164301 23.1060606 23.10607381 0 12.784378-10.3216753 23.1060474-23.1060606 23.1060474s-23.10606061-10.3216694-23.10606061-23.1060474c0-12.7844308 10.32167531-23.10607381 23.10606061-23.10607381zm-6.4786585 11.59812411c-1.4096342.0318903-2.6316464 1.1706021-2.667683 2.7980945v17.6891378c.0481708 2.1698918 2.2023781 3.4861039 4.0968293 2.4531025l15.2439024-8.8733009c.8296342-.4846717 1.3909757-1.374228 1.3909757-2.4147727 0-1.0405448-.5612805-1.9301624-1.3909757-2.4147728l-15.2439024-8.873356c-.4736585-.2582504-.9592683-.3747727-1.4291463-.3641324z" fill="#fff"/></svg>