<?xml version="1.0" encoding="UTF-8"?>
<svg width="29px" height="30px" viewBox="0 0 29 30" version="1.1" xmlns="http://www.w3.org/2000/svg" xmlns:xlink="http://www.w3.org/1999/xlink">
    <!-- Generator: Sketch 62 (91390) - https://sketch.com -->
    <title>Pick from store</title>
    <desc>Created with Sketch.</desc>
    <defs>
        <path d="M27.5441875,13.4434 C27.91215,13.4434 28.2103,13.7303875 28.2103,14.084575 L28.2103,26.343975 C28.2103,28.0675375 26.75395,29.4693719 24.9633625,29.4693719 L0.66611675,29.4693719 C0.29781325,29.4693719 0,29.1823821 0,28.8281899 L0,5.897575 C0,5.5433875 0.2981505,5.2563875 0.66611675,5.2563875 L4.42369,5.2563875 L4.42369,4.602875 C4.42369,2.0644375 6.56976625,0 9.206915,0 L11.4072925,0 C14.044775,0 16.188825,2.0644375 16.188825,4.602875 L16.188825,5.2563875 L22.65135,5.2563875 C23.0193125,5.2563875 23.3174625,5.5433875 23.3174625,5.897575 C23.3174625,5.897575 23.3036375,13.3836625 23.2844125,13.4434 L27.5441875,13.4434 Z M22.0172625,13.4434 C21.998375,13.3839875 21.9855625,13.321975 21.985225,13.255425 L21.985225,6.5387625 L20.52045,6.5387625 L20.52045,13.4434 L22.0172625,13.4434 Z M5.75626125,4.6032 L5.75626125,5.2567125 L14.85795,5.2567125 L14.85795,4.6032 C14.85795,2.77185 13.3098625,1.2823625 11.4072925,1.2823625 L9.206915,1.2823625 C7.30435,1.2823625 5.75626125,2.77185 5.75626125,4.6032 Z M1.33189625,6.5387625 L1.33189625,28.1873325 L13.518625,28.1873325 L13.518625,14.084575 C13.518625,13.7300625 13.816775,13.4434 14.18475,13.4434 L19.189225,13.4434 L19.189225,6.5387625 L16.1891625,6.5387625 L16.1891625,9.369375 C16.598625,9.593375 16.8785625,10.012825 16.8785625,10.498175 C16.8785625,11.217275 16.2707875,11.8022875 15.5233875,11.8022875 C14.777,11.8022875 14.1692375,11.217275 14.1692375,10.498175 C14.1692375,10.012825 14.449175,9.594025 14.8582875,9.369375 L14.8582875,6.5387625 L5.75659875,6.5387625 L5.75659875,9.369375 C6.1657125,9.593375 6.4459875,10.012825 6.4459875,10.498175 C6.4459875,11.217275 5.83821875,11.8022875 5.0898075,11.8022875 C4.34274375,11.8022875 3.73497625,11.217275 3.73497625,10.498175 C3.73497625,10.012825 4.01491375,9.594025 4.42369,9.369375 L4.42369,6.5387625 L1.33189625,6.5387625 Z M26.8780625,26.343975 L26.8780625,14.7254375 L14.850525,14.7254375 L14.850525,28.1873325 L24.963025,28.1873325 C26.0186875,28.1873325 26.8780625,27.3601263 26.8780625,26.343975 Z" id="path-1"></path>
        <path d="M0.8091125,3.1898725 C0.3996625,2.965215 0.119725,2.5460925 0.11905,2.0607375 C0.11905,1.34165 0.7268125,0.7563 1.47455,0.7563 C2.2216125,0.7563 2.8293875,1.34165 2.8293875,2.0607375 C2.8293875,2.5464175 2.54945,2.96489 2.140675,3.1898725 L2.140675,4.2212825 C2.140675,5.18386625 2.9538375,5.96757 3.9545375,5.96757 L5.2803625,5.96757 C6.28105,5.96757 7.0955625,5.18386625 7.0955625,4.2212825 L7.0955625,3.1898725 C6.6861125,2.965215 6.406175,2.5460925 6.406175,2.0607375 C6.406175,1.34165 7.01395,0.7563 7.7616875,0.7563 C8.50875,0.7563 9.1165125,1.34165 9.1165125,2.0607375 C9.1165125,2.5464175 8.836575,2.96489 8.4278,3.1898725 L8.4278,4.2212825 C8.4278,5.8909525 7.015975,7.24928375 5.2807,7.24928375 L3.9548625,7.24928375 C2.2206,7.24928375 0.8091125,5.8912775 0.8091125,4.2212825 L0.8091125,3.1898725 Z" id="path-3"></path>
    </defs>
    <g id="phase-1" stroke="none" stroke-width="1" fill="none" fill-rule="evenodd">
        <g id="new-5.5" transform="translate(-594.000000, -505.000000)">
            <g id="Group-7" transform="translate(594.000000, 503.000000)">
                <g id="Group-13-Copy-2" transform="translate(0.000000, 2.000000)">
                    <g id="Pick-from-store">
                        <g id="Group-3">
                            <mask id="mask-2" fill="white">
                                <use xlink:href="#path-1"></use>
                            </mask>
                            <g id="Clip-2"></g>
                            <polygon id="Fill-1" fill="#4A4A4A" mask="url(#mask-2)" points="-6.25 35.7193725 34.4603 35.7193725 34.4603 -6.2500025 -6.25 -6.2500025"></polygon>
                        </g>
                        <g id="Group-6" transform="translate(16.250000, 15.000000)">
                            <mask id="mask-4" fill="white">
                                <use xlink:href="#path-3"></use>
                            </mask>
                            <g id="Clip-5"></g>
                            <polygon id="Fill-4" fill="#4A4A4A" mask="url(#mask-4)" points="-6.1309525 13.4992837 15.36651 13.4992837 15.36651 -5.49370375 -6.1309525 -5.49370375"></polygon>
                        </g>
                    </g>
                </g>
            </g>
        </g>
    </g>
</svg>