<svg height="29" viewBox="0 0 29 29" width="29" xmlns="http://www.w3.org/2000/svg"><g fill="none" fill-rule="evenodd"><circle cx="14.5" cy="14.5" fill="#f5f5f5" opacity=".343" r="14.5"/><g fill-rule="nonzero"><path d="m8 6.833v15.333c0 .258.054.507.162.741.102.223.247.421.431.589.358.325.824.504 1.315.504.42 0 .819-.13 1.155-.377l3.437-2.526 3.437 2.526c.336.247.735.377 1.155.377.49 0 .957-.18 1.315-.504.184-.168.33-.366.431-.589.108-.234.162-.483.162-.741v-15.333c0-1.01-.855-1.833-1.906-1.833h-9.188c-1.051 0-1.906.822-1.906 1.833zm11.596 0v15.333a.493.493 0 0 1 -.504.483.507.507 0 0 1 -.302-.1l-3.986-2.928a.514.514 0 0 0 -.608 0l-3.986 2.928c-.093.069-.199.1-.302.1a.493.493 0 0 1 -.504-.483v-15.333c0-.266.225-.482.502-.482h9.188c.277 0 .502.216.502.482z" fill="#212121"/><path d="m9.92 24c-.494 0-.964-.18-1.323-.508a1.83 1.83 0 0 1 -.434-.592 1.78 1.78 0 0 1 -.163-.747v-15.307c0-1.018.86-1.846 1.917-1.846h9.166c1.057 0 1.917.828 1.917 1.846v15.307c0 .26-.055.511-.163.747a1.83 1.83 0 0 1 -.434.592c-.36.328-.829.508-1.323.508-.422 0-.823-.131-1.161-.38l-3.419-2.514-3.419 2.514c-.338.249-.74.38-1.161.38zm-.003-18.969c-1.039 0-1.884.815-1.884 1.815v15.307c0 .255.053.502.16.734.1.22.244.416.427.583.353.321.814.499 1.3.499.414 0 .81-.13 1.141-.374l3.439-2.529.01.008 3.429 2.521c.332.244.727.374 1.141.374.486 0 .947-.178 1.3-.5.183-.166.327-.362.428-.582a1.75 1.75 0 0 0 .16-.734v-15.307c0-1-.846-1.815-1.885-1.815zm9.163 17.62a.523.523 0 0 1 -.311-.103l-3.975-2.923a.492.492 0 0 0 -.294-.096.492.492 0 0 0 -.294.096l-3.975 2.923a.522.522 0 0 1 -.311.103c-.25 0-.52-.19-.52-.498v-15.307c0-.274.233-.497.517-.497h9.166c.285 0 .516.223.516.497v15.307c0 .308-.269.498-.519.498zm-4.58-3.153c.114 0 .223.035.314.102l3.975 2.923a.49.49 0 0 0 .291.097c.234 0 .487-.179.487-.467v-15.307a.476.476 0 0 0 -.484-.466h-9.166a.476.476 0 0 0 -.484.466v15.307c0 .288.253.467.487.467a.49.49 0 0 0 .291-.097l3.975-2.923c.091-.067.2-.102.314-.102z" fill="#fff"/></g></g></svg>