<svg xmlns="http://www.w3.org/2000/svg" width="89" height="44" viewBox="0 0 89 44">
    <defs>
        <filter id="a" width="132.9%" height="176.5%" x="-16.5%" y="-38.2%" filterUnits="objectBoundingBox">
            <feOffset dy="2" in="SourceAlpha" result="shadowOffsetOuter1"/>
            <feGaussianBlur in="shadowOffsetOuter1" result="shadowBlurOuter1" stdDeviation="2"/>
            <feColorMatrix in="shadowBlurOuter1" result="shadowMatrixOuter1" values="0 0 0 0 0 0 0 0 0 0 0 0 0 0 0 0 0 0 0.2 0"/>
            <feMerge>
                <feMergeNode in="shadowMatrixOuter1"/>
                <feMergeNode in="SourceGraphic"/>
            </feMerge>
        </filter>
    </defs>
    <g fill="none" fill-rule="evenodd" filter="url(#a)" transform="translate(5 3)">
        <rect width="52" height="34" x="27" fill="#FFF" stroke="#FF1744" rx="4"/>
        <g fill="#D8D8D8" stroke="#4A4A4A" stroke-linecap="round" stroke-linejoin="round" stroke-width="1.5">
            <path d="M47 18.5h23M47 22.5h23M47 26.5h14"/>
        </g>
        <path fill="#D8D8D8" stroke="#4A4A4A" stroke-linecap="round" stroke-linejoin="round" d="M30 12.5h46M38.5 3v29"/>
        <path stroke="#4A4A4A" d="M38.473 12.295c1.987-.173 3.273-.554 3.858-1.145.878-.885.98-2.217.227-2.976-.752-.759-2.073-.656-2.95.229-.585.59-.963 1.887-1.135 3.892zM38.473 12.545c.172 2.005.55 3.303 1.135 3.893.877.885 2.198.987 2.95.229.753-.76.651-2.092-.227-2.977-.585-.59-1.87-.972-3.858-1.145zM37.744 12.295c-1.988-.173-3.274-.554-3.859-1.145-.877-.885-.979-2.217-.227-2.976.752-.759 2.073-.656 2.95.229.586.59.964 1.887 1.136 3.892zM37.744 12.545c-.172 2.005-.55 3.303-1.135 3.893-.878.885-2.199.987-2.95.229-.753-.76-.651-2.092.226-2.977.585-.59 1.871-.972 3.859-1.145z"/>
        <path fill="#D8D8D8" stroke="#4A4A4A" stroke-linecap="round" stroke-linejoin="round" stroke-width="1.5" d="M23 5.5H0M23 27.5h-9M23 20.5H9M23 12.5H6.5" opacity=".6"/>
    </g>
</svg>
