<svg height="20" viewBox="0 0 20 20" width="20" xmlns="http://www.w3.org/2000/svg"><g fill="#fff"><path d="m19.45 8.0772-2.846-.8128 1.4376-2.5876c.1344-.242.092-.5444-.104-.7404l-1.8748-1.8744c-.196-.196-.498-.238-.74-.1036l-2.588 1.4376-.8132-2.8464c-.076-.2664-.3196-.45-.5964-.45h-2.6512c-.2768 0-.5204.1836-.5964.45l-.8132 2.8464-2.5876-1.4376c-.242-.1344-.544-.0924-.7404.1036l-1.8744 1.8744c-.196.196-.2384.498-.1036.7404l1.4372 2.5876-2.846.8128c-.2664.076-.45.3196-.45.5964v2.6516c0 .2768.1836.5204.45.5964l2.8464.8132-1.4376 2.5876c-.1344.242-.0924.544.1036.74l1.8744 1.8752c.196.1956.498.238.7404.1036l2.5876-1.4376.8132 2.8456c.076.2664.3196.45.5964.45h2.6512c.2768 0 .5204-.1836.5964-.45l.8132-2.8456 2.588 1.4376c.2416.1348.544.092.74-.1036l1.8752-1.8752c.1956-.1956.238-.4976.1036-.74l-1.438-2.5876 2.8464-.8132c.266-.076.45-.3196.45-.5964v-2.6516c0-.2768-.184-.52-.45-.5964zm-.7912 2.7804-3.1476.8996c-.182.052-.3304.184-.4028.3584-.0724.1752-.0608.3736.0308.5392l1.59 2.8616-1.2128 1.2132-2.8616-1.59c-.1656-.092-.364-.1036-.5392-.0312-.1748.0728-.3068.2212-.3588.4032l-.8992 3.1468h-1.7152l-.8992-3.1468c-.052-.182-.184-.3304-.3588-.4032-.1752-.0724-.3736-.0608-.5388.0312l-2.8616 1.59-1.2132-1.2132 1.59-2.8616c.0916-.1656.1032-.364.0308-.5392-.0724-.1748-.2204-.3068-.4024-.3584l-3.1476-.8996v-1.7156l3.1472-.8992c.182-.052.3304-.1844.4028-.3592s.0612-.3732-.0308-.5384l-1.59-2.8616 1.2128-1.2128 2.862 1.59c.1652.092.3636.1036.5388.0308.1748-.0724.3068-.2204.3588-.4024l.8992-3.1476h1.7152l.8992 3.1476c.052.182.1844.33.3588.4024.1752.0728.3736.0612.5392-.0308l2.8616-1.59 1.2128 1.2128-1.5896 2.8616c-.092.1652-.1036.3636-.0312.5384.0728.1748.2208.3072.4028.3592l3.1476.8992z"/><path d="m12.8872 7.1128c-.7712-.7712-1.7964-1.196-2.8872-1.196-2.2516 0-4.0832 1.832-4.0832 4.0836 0 2.2512 1.832 4.0824 4.0832 4.0824 1.0908 0 2.116-.4248 2.8872-1.1952.7716-.7712 1.196-1.7964 1.196-2.8872s-.4248-2.1164-1.196-2.8876zm-2.8872 5.7292c-1.5672 0-2.8428-1.2752-2.8428-2.8416 0-1.5676 1.2752-2.8428 2.8428-2.8428s2.842 1.2752 2.842 2.8428c0 1.5668-1.2744 2.8416-2.842 2.8416z"/></g></svg>