<svg xmlns="http://www.w3.org/2000/svg" xmlns:xlink="http://www.w3.org/1999/xlink" width="432" height="359" viewBox="0 0 432 359">
    <defs>
        <path id="prefix__a" d="M206.18 28.247c-49.148 17.044-94.684 34.081-126.95 23.661C35.399 37.758 1.32 77.886 1.135 127.76v.83c.14 37.186 19.115 79.63 66.868 109 59.036 36.314 112.76 51.17 159.737 51.297h1.211c126.266-.325 203.495-107.155 203.983-188.84v-1.534c-.166-27.785-9.305-52.548-28.516-69.031C380.42 8.897 353.06 1.404 324.322 1.4c-38.472 0-79.425 13.427-118.143 26.847z"/>
    </defs>
    <g fill="none" fill-rule="evenodd">
        <g transform="translate(-1 -2) translate(0 1.384)">
            <mask id="prefix__b" fill="#fff">
                <use xlink:href="#prefix__a"/>
            </mask>
            <path fill="#F0F7FC" d="M-13.274 303.299L447.343 303.299 447.343 -13.009 -13.274 -13.009z" mask="url(#prefix__b)"/>
        </g>
        <g transform="translate(-1 -2) translate(148.67 141.236)">
            <path fill="#53575B" d="M40.77 117.795s-40.647-3.58-39.382 7.373C2.649 136.119 75.1 154.862 75.1 154.862s61.706-24.64 56.652-30.959c-5.055-6.319-26.747-8.279-32.434-6.667-5.687 1.613-58.549.56-58.549.56"/>
            <path fill="#FFAFCE" d="M69.232 29.832s-4.008-5.647-4.697 2.12c-.685 7.771-3.057 12.34-3.057 12.34l7.64 7.43-.007.405.211-.204.21.204-.002-.405 7.636-7.43s-2.368-4.569-3.057-12.34c-.69-7.767-4.693-2.12-4.693-2.12"/>
            <path fill="#F9C5DB" d="M80.458 16.759c0 5.328-5.024 17.96-11.226 17.96-6.199 0-11.226-12.632-11.226-17.96 0-5.329 5.027-9.647 11.226-9.647 6.202 0 11.226 4.318 11.226 9.647"/>
            <path fill="#DA1C5C" d="M61.142 36.132s3.027 4.843 6.657 4.358c3.633-.485 4.85 83.62 4.85 83.62s-26.777 1.529-31.878-6.315c0 0 9.433-20.509 5.07-36.709 0 0-6.643 37.207-20.765 45.289-14.12 8.082-6.229-25.352 3.532-33.243 9.758-7.891-4.95-36.341 10.922-42.573 15.865-6.229 19.157-6.021 19.157-6.021s3.746-2.221 2.455-8.406"/>
            <path fill="#DA1C5C" d="M78.41 36.132s-3.028 4.843-6.657 4.358c-3.633-.485-4.85 83.62-4.85 83.62s26.777 1.529 31.878-6.315c0 0-9.433-20.509-5.071-36.709 0 0 6.643 37.207 20.766 45.289 14.12 8.082 6.229-25.352-3.532-33.243-9.758-7.891 4.95-36.341-10.922-42.573-15.866-6.229-19.157-6.021-19.157-6.021s-3.747-2.221-2.455-8.406"/>
            <path fill="#4A4A4A" d="M61.478 21.179s-2.114-3.048-2.7-1.466c-.581 1.58 1.884 2.85 1.884 2.85s.93 3.215.816 3.69c-.113.478-2.786.502-4.76-3.496-1.973-4-3.7-14.039-1.482-15.19 2.222-1.154 3.576-1.154 3.576-1.154s3.824-7.382 17.753-4.15c0 0 4.087.324 3.893-.82-.197-1.144 2.683.518 1.9 2.087-.783 1.566-1.602 8.533-18.739 7.266 0 0-3.944 1.501-3.696 3 .244 1.499 2.371 5.998 1.555 7.383"/>
            <path fill="#4A4A4A" d="M83.182 6.709c-2.221-1.234-3.576-1.234-3.576-1.234s-.287-.572-.957-1.335c-.367 2.382-4.746 5.201-2.783 6.526 1.967 1.328 2.794 1.646 2.633 2.7-.248 1.602-2.375 6.409-1.559 7.887 0 0 2.114-3.255 2.7-1.565.582 1.689-1.884 3.047-1.884 3.047s-.926 3.432-.816 3.944c.114.508 2.79.535 4.764-3.737 1.97-4.278 3.696-14.999 1.478-16.233"/>
            <path fill="#676B71" d="M52.735 152.085l3.141 5.82s79.058-9.399 78.241-31.483c-.816-22.08-81.382 25.663-81.382 25.663"/>
            <path fill="#E4E4E4" d="M60.278 156.923s-5.295-.408-5.018-4.853c.281-4.446-8.907 1.308-8.907 1.308l11.456 27.252s5.279 2.15 4.83-1.91c-.45-4.061-2.274-5.747-2.274-5.747l-.087-16.05z"/>
            <path fill="#5A5D60" d="M83.143 146.323l-2.68 6.048S.916 149.163.009 127.082c-.91-22.077 83.135 19.24 83.135 19.24"/>
            <path fill="#E4E4E4" d="M74.01 151.764s5.21-1.04 4.398-5.42c-.81-4.378 9.002.231 9.002.231l-8.109 28.43s-4.984 2.766-5.024-1.318c-.04-4.084 1.569-5.978 1.569-5.978l-1.837-15.945z"/>
            <path fill="#F9C5DB" d="M122.75 117.573c1.732.853 2.77 1.656 3.518 2.472.509.549 3.228 3.807 3.041 4.218-.13.278-1.104.696-1.746.509-.876-.251-1.208-1.315-2.124-2.01-.93-.707-2.372-.125-2.291 1.04 0 0 .398 1.32.652 1.702.425.639 1.91 1.703 2.104 1.63.227-.084.916-1.044 1.248-1.463.595-.746 1.987-1.294 2.528-.903.582.422-2.144 4.65-3.17 4.95-1.208.355-5.129-2.635-5.129-2.635l2.258 4.372 2.532 2.582c.783.883.897 2.329.419 2.797-.475.468-.96.107-1.429-.371l-3.676-3.917-2.716-4.503 1.542 3.606 1.83 3.057c.491.897.378 2.104-.181 2.476-.649.425-1.385-.703-1.753-1.265l-2.14-3.361-1.914-3.553.796 2.171 1.087 2.228c.301.813.288 2.067-.297 2.392-.582.324-1.389-.706-1.713-1.288l-1.308-2.382-.82-2.231s-1.732-3.807-2.341-6.687c-.398-1.877.107-3.472.425-4.225.12-.287 2.08-2.973 6.121-2.629 4.044.348 3.506.659 4.646 1.221M18.773 117.573c-1.733.853-2.77 1.656-3.519 2.472-.508.549-3.228 3.807-3.04 4.218.13.278 1.103.696 1.746.509.876-.251 1.204-1.315 2.124-2.01.93-.707 2.371-.125 2.291 1.04 0 0-.401 1.32-.652 1.702-.425.639-1.91 1.703-2.104 1.63-.228-.084-.917-1.044-1.248-1.463-.595-.746-1.987-1.294-2.529-.903-.582.422 2.144 4.65 3.171 4.95 1.205.355 5.125-2.635 5.125-2.635l-2.255 4.372-2.532 2.582c-.783.883-.896 2.329-.418 2.797.475.468.96.107 1.428-.371l3.677-3.917 2.716-4.503-1.542 3.606-1.833 3.057c-.489.897-.375 2.104.184 2.476.649.425 1.384-.703 1.75-1.265l2.143-3.361 1.914-3.553-.796 2.171-1.091 2.228c-.298.813-.284 2.067.301 2.392.582.324 1.388-.706 1.713-1.288l1.308-2.382.82-2.231s1.732-3.807 2.34-6.687c.399-1.877-.106-3.472-.424-4.225-.12-.287-2.08-2.973-6.122-2.629-4.044.348-3.505.659-4.646 1.221"/>
            <ellipse cx="67.83" cy="212.783" fill="#D8D8D8" rx="54.822" ry="6.504"/>
        </g>
    </g>
</svg>
