<svg xmlns="http://www.w3.org/2000/svg" xmlns:xlink="http://www.w3.org/1999/xlink" width="389" height="259" viewBox="0 0 389 259">
    <defs>
        <path id="prefix__a" d="M0 1.652L388.286 1.652 388.286 260.171 0 260.171z"/>
        <path id="prefix__c" d="M290.35 1.652c-34.52.06-71.243 12.101-105.97 24.144C140.187 41.116 99.24 56.44 70.224 47.07 37.318 36.45 10.528 59.842 2.48 93.96.88 100.73.02 107.92 0 115.35v.597c.101 33.458 17.158 71.666 60.126 98.097 196.513 120.87 327.459-22.627 328.161-123.569v-1.623c-.174-24.939-8.392-47.15-25.643-61.949C341.156 8.47 316.668 1.708 290.94 1.652"/>
        <path id="prefix__e" d="M290.35 1.652c-34.52.06-71.243 12.101-105.97 24.144C140.187 41.116 99.24 56.44 70.224 47.07 37.318 36.45 10.528 59.842 2.48 93.96.88 100.73.02 107.92 0 115.35v.597c.101 33.458 17.158 71.666 60.126 98.097 196.513 120.87 327.459-22.627 328.161-123.569v-1.623c-.174-24.939-8.392-47.15-25.643-61.949C341.156 8.47 316.668 1.708 290.94 1.652"/>
        <path id="prefix__g" d="M290.35 1.652c-34.52.06-71.243 12.101-105.97 24.144C140.187 41.116 99.24 56.44 70.224 47.07 37.318 36.45 10.528 59.842 2.48 93.96.88 100.73.02 107.92 0 115.35v.597c.101 33.458 17.158 71.666 60.126 98.097 196.513 120.87 327.459-22.627 328.161-123.569v-1.623c-.174-24.939-8.392-47.15-25.643-61.949C341.156 8.47 316.668 1.708 290.94 1.652"/>
        <path id="prefix__i" d="M290.35 1.652c-34.52.06-71.243 12.101-105.97 24.144C140.187 41.116 99.24 56.44 70.224 47.07 37.318 36.45 10.528 59.842 2.48 93.96.88 100.73.02 107.92 0 115.35v.597c.101 33.458 17.158 71.666 60.126 98.097 196.513 120.87 327.459-22.627 328.161-123.569v-1.623c-.174-24.939-8.392-47.15-25.643-61.949C341.156 8.47 316.668 1.708 290.94 1.652h-.59z"/>
        <path id="prefix__k" d="M290.35 1.652c-34.52.06-71.243 12.101-105.97 24.144C140.187 41.116 99.24 56.44 70.224 47.07 37.318 36.45 10.528 59.842 2.48 93.96.88 100.73.02 107.92 0 115.35v.597c.101 33.458 17.158 71.666 60.126 98.097 196.513 120.87 327.459-22.627 328.161-123.569v-1.623c-.174-24.939-8.392-47.15-25.643-61.949C341.156 8.47 316.668 1.708 290.94 1.652"/>
        <path id="prefix__m" d="M290.35 1.652c-34.52.06-71.243 12.101-105.97 24.144C140.187 41.116 99.24 56.44 70.224 47.07 37.318 36.45 10.528 59.842 2.48 93.96.88 100.73.02 107.92 0 115.35v.597c.101 33.458 17.158 71.666 60.126 98.097 196.513 120.87 327.459-22.627 328.161-123.569v-1.623c-.174-24.939-8.392-47.15-25.643-61.949C341.156 8.47 316.668 1.708 290.94 1.652"/>
        <path id="prefix__o" d="M290.35 1.652c-34.52.06-71.243 12.101-105.97 24.144C140.187 41.116 99.24 56.44 70.224 47.07 37.318 36.45 10.528 59.842 2.48 93.96.88 100.73.02 107.92 0 115.35v.597c.101 33.458 17.158 71.666 60.126 98.097 196.513 120.87 327.459-22.627 328.161-123.569v-1.623c-.174-24.939-8.392-47.15-25.643-61.949C341.156 8.47 316.668 1.708 290.94 1.652"/>
        <path id="prefix__q" d="M290.35 1.652c-34.52.06-71.243 12.101-105.97 24.144C140.187 41.116 99.24 56.44 70.224 47.07 37.318 36.45 10.528 59.842 2.48 93.96.88 100.73.02 107.92 0 115.35v.597c.101 33.458 17.158 71.666 60.126 98.097 196.513 120.87 327.459-22.627 328.161-123.569v-1.623c-.174-24.939-8.392-47.15-25.643-61.949C341.156 8.47 316.668 1.708 290.94 1.652"/>
        <path id="prefix__s" d="M290.35 1.652c-34.52.06-71.243 12.101-105.97 24.144C140.187 41.116 99.24 56.44 70.224 47.07 37.318 36.45 10.528 59.842 2.48 93.96.88 100.73.02 107.92 0 115.35v.597c.101 33.458 17.158 71.666 60.126 98.097 196.513 120.87 327.459-22.627 328.161-123.569v-1.623c-.174-24.939-8.392-47.15-25.643-61.949C341.156 8.47 316.668 1.708 290.94 1.652"/>
        <path id="prefix__u" d="M290.35 1.652c-34.52.06-71.243 12.101-105.97 24.144C140.187 41.116 99.24 56.44 70.224 47.07 37.318 36.45 10.528 59.842 2.48 93.96.88 100.73.02 107.92 0 115.35v.597c.101 33.458 17.158 71.666 60.126 98.097 196.513 120.87 327.459-22.627 328.161-123.569v-1.623c-.174-24.939-8.392-47.15-25.643-61.949C341.156 8.47 316.668 1.708 290.94 1.652"/>
        <path id="prefix__w" d="M290.35 1.652c-34.52.06-71.243 12.101-105.97 24.144C140.187 41.116 99.24 56.44 70.224 47.07 37.318 36.45 10.528 59.842 2.48 93.96.88 100.73.02 107.92 0 115.35v.597c.101 33.458 17.158 71.666 60.126 98.097 196.513 120.87 327.459-22.627 328.161-123.569v-1.623c-.174-24.939-8.392-47.15-25.643-61.949C341.156 8.47 316.668 1.708 290.94 1.652"/>
        <path id="prefix__y" d="M290.35 1.652c-34.52.06-71.243 12.101-105.97 24.144C140.187 41.116 99.24 56.44 70.224 47.07 37.318 36.45 10.528 59.842 2.48 93.96.88 100.73.02 107.92 0 115.35v.597c.101 33.458 17.158 71.666 60.126 98.097 196.513 120.87 327.459-22.627 328.161-123.569v-1.623c-.174-24.939-8.392-47.15-25.643-61.949C341.156 8.47 316.668 1.708 290.94 1.652"/>
        <path id="prefix__A" d="M290.35 1.652c-34.52.06-71.243 12.101-105.97 24.144C140.187 41.116 99.24 56.44 70.224 47.07 37.318 36.45 10.528 59.842 2.48 93.96.88 100.73.02 107.92 0 115.35v.597c.101 33.458 17.158 71.666 60.126 98.097 196.513 120.87 327.459-22.627 328.161-123.569v-1.623c-.174-24.939-8.392-47.15-25.643-61.949C341.156 8.47 316.668 1.708 290.94 1.652"/>
        <path id="prefix__C" d="M290.35 1.652c-34.52.06-71.243 12.101-105.97 24.144C140.187 41.116 99.24 56.44 70.224 47.07 37.318 36.45 10.528 59.842 2.48 93.96.88 100.73.02 107.92 0 115.35v.597c.101 33.458 17.158 71.666 60.126 98.097 196.513 120.87 327.459-22.627 328.161-123.569v-1.623c-.174-24.939-8.392-47.15-25.643-61.949C341.156 8.47 316.668 1.708 290.94 1.652"/>
        <path id="prefix__E" d="M290.35 1.652c-34.52.06-71.243 12.101-105.97 24.144C140.187 41.116 99.24 56.44 70.224 47.07 37.318 36.45 10.528 59.842 2.48 93.96.88 100.73.02 107.92 0 115.35v.597c.101 33.458 17.158 71.666 60.126 98.097 196.513 120.87 327.459-22.627 328.161-123.569v-1.623c-.174-24.939-8.392-47.15-25.643-61.949C341.156 8.47 316.668 1.708 290.94 1.652"/>
        <path id="prefix__G" d="M290.35 1.652c-34.52.06-71.243 12.101-105.97 24.144C140.187 41.116 99.24 56.44 70.224 47.07 37.318 36.45 10.528 59.842 2.48 93.96.88 100.73.02 107.92 0 115.35v.597c.101 33.458 17.158 71.666 60.126 98.097 196.513 120.87 327.459-22.627 328.161-123.569v-1.623c-.174-24.939-8.392-47.15-25.643-61.949C341.156 8.47 316.668 1.708 290.94 1.652"/>
        <path id="prefix__I" d="M290.35 1.652c-34.52.06-71.243 12.101-105.97 24.144C140.187 41.116 99.24 56.44 70.224 47.07 37.318 36.45 10.528 59.842 2.48 93.96.88 100.73.02 107.92 0 115.35v.597c.101 33.458 17.158 71.666 60.126 98.097 196.513 120.87 327.459-22.627 328.161-123.569v-1.623c-.174-24.939-8.392-47.15-25.643-61.949C341.156 8.47 316.668 1.708 290.94 1.652"/>
        <path id="prefix__K" d="M290.35 1.652c-34.52.06-71.243 12.101-105.97 24.144C140.187 41.116 99.24 56.44 70.224 47.07 37.318 36.45 10.528 59.842 2.48 93.96.88 100.73.02 107.92 0 115.35v.597c.101 33.458 17.158 71.666 60.126 98.097 196.513 120.87 327.459-22.627 328.161-123.569v-1.623c-.174-24.939-8.392-47.15-25.643-61.949C341.156 8.47 316.668 1.708 290.94 1.652"/>
        <path id="prefix__M" d="M290.35 1.652c-34.52.06-71.243 12.101-105.97 24.144C140.187 41.116 99.24 56.44 70.224 47.07 37.318 36.45 10.528 59.842 2.48 93.96.88 100.73.02 107.92 0 115.35v.597c.101 33.458 17.158 71.666 60.126 98.097 196.513 120.87 327.459-22.627 328.161-123.569v-1.623c-.174-24.939-8.392-47.15-25.643-61.949C341.156 8.47 316.668 1.708 290.94 1.652"/>
        <path id="prefix__O" d="M290.35 1.652c-34.52.06-71.243 12.101-105.97 24.144C140.187 41.116 99.24 56.44 70.224 47.07 37.318 36.45 10.528 59.842 2.48 93.96.88 100.73.02 107.92 0 115.35v.597c.101 33.458 17.158 71.666 60.126 98.097 196.513 120.87 327.459-22.627 328.161-123.569v-1.623c-.174-24.939-8.392-47.15-25.643-61.949C341.156 8.47 316.668 1.708 290.94 1.652"/>
        <path id="prefix__Q" d="M290.35 1.652c-34.52.06-71.243 12.101-105.97 24.144C140.187 41.116 99.24 56.44 70.224 47.07 37.318 36.45 10.528 59.842 2.48 93.96.88 100.73.02 107.92 0 115.35v.597c.101 33.458 17.158 71.666 60.126 98.097 196.513 120.87 327.459-22.627 328.161-123.569v-1.623c-.174-24.939-8.392-47.15-25.643-61.949C341.156 8.47 316.668 1.708 290.94 1.652"/>
        <path id="prefix__S" d="M290.35 1.652c-34.52.06-71.243 12.101-105.97 24.144C140.187 41.116 99.24 56.44 70.224 47.07 37.318 36.45 10.528 59.842 2.48 93.96.88 100.73.02 107.92 0 115.35v.597c.101 33.458 17.158 71.666 60.126 98.097 196.513 120.87 327.459-22.627 328.161-123.569v-1.623c-.174-24.939-8.392-47.15-25.643-61.949C341.156 8.47 316.668 1.708 290.94 1.652h-.59z"/>
        <path id="prefix__U" d="M290.35 1.652c-34.52.06-71.243 12.101-105.97 24.144C140.187 41.116 99.24 56.44 70.224 47.07 37.318 36.45 10.528 59.842 2.48 93.96.88 100.73.02 107.92 0 115.35v.597c.101 33.458 17.158 71.666 60.126 98.097 196.513 120.87 327.459-22.627 328.161-123.569v-1.623c-.174-24.939-8.392-47.15-25.643-61.949C341.156 8.47 316.668 1.708 290.94 1.652"/>
        <path id="prefix__W" d="M290.35 1.652c-34.52.06-71.243 12.101-105.97 24.144C140.187 41.116 99.24 56.44 70.224 47.07 37.318 36.45 10.528 59.842 2.48 93.96.88 100.73.02 107.92 0 115.35v.597c.101 33.458 17.158 71.666 60.126 98.097 196.513 120.87 327.459-22.627 328.161-123.569v-1.623c-.174-24.939-8.392-47.15-25.643-61.949C341.156 8.47 316.668 1.708 290.94 1.652"/>
        <path id="prefix__Y" d="M290.35 1.652c-34.52.06-71.243 12.101-105.97 24.144C140.187 41.116 99.24 56.44 70.224 47.07 37.318 36.45 10.528 59.842 2.48 93.96.88 100.73.02 107.92 0 115.35v.597c.101 33.458 17.158 71.666 60.126 98.097 196.513 120.87 327.459-22.627 328.161-123.569v-1.623c-.174-24.939-8.392-47.15-25.643-61.949C341.156 8.47 316.668 1.708 290.94 1.652"/>
        <path id="prefix__aa" d="M290.35 1.652c-34.52.06-71.243 12.101-105.97 24.144C140.187 41.116 99.24 56.44 70.224 47.07 37.318 36.45 10.528 59.842 2.48 93.96.88 100.73.02 107.92 0 115.35v.597c.101 33.458 17.158 71.666 60.126 98.097 196.513 120.87 327.459-22.627 328.161-123.569v-1.623c-.174-24.939-8.392-47.15-25.643-61.949C341.156 8.47 316.668 1.708 290.94 1.652"/>
        <path id="prefix__ac" d="M290.35 1.652c-34.52.06-71.243 12.101-105.97 24.144C140.187 41.116 99.24 56.44 70.224 47.07 37.318 36.45 10.528 59.842 2.48 93.96.88 100.73.02 107.92 0 115.35v.597c.101 33.458 17.158 71.666 60.126 98.097 196.513 120.87 327.459-22.627 328.161-123.569v-1.623c-.174-24.939-8.392-47.15-25.643-61.949C341.156 8.47 316.668 1.708 290.94 1.652"/>
        <path id="prefix__ae" d="M290.35 1.652c-34.52.06-71.243 12.101-105.97 24.144C140.187 41.116 99.24 56.44 70.224 47.07 37.318 36.45 10.528 59.842 2.48 93.96.88 100.73.02 107.92 0 115.35v.597c.101 33.458 17.158 71.666 60.126 98.097 196.513 120.87 327.459-22.627 328.161-123.569v-1.623c-.174-24.939-8.392-47.15-25.643-61.949C341.156 8.47 316.668 1.708 290.94 1.652"/>
        <path id="prefix__ag" d="M290.35 1.652c-34.52.06-71.243 12.101-105.97 24.144C140.187 41.116 99.24 56.44 70.224 47.07 37.318 36.45 10.528 59.842 2.48 93.96.88 100.73.02 107.92 0 115.35v.597c.101 33.458 17.158 71.666 60.126 98.097 196.513 120.87 327.459-22.627 328.161-123.569v-1.623c-.174-24.939-8.392-47.15-25.643-61.949C341.156 8.47 316.668 1.708 290.94 1.652"/>
    </defs>
    <g fill="none" fill-rule="evenodd">
        <g transform="translate(0 -2) translate(0 .698)">
            <mask id="prefix__b" fill="#fff">
                <use xlink:href="#prefix__a"/>
            </mask>
            <path fill="#FFF8FB" d="M362.643 26.903c-87.122-74.742-223.47 42.43-292.42 20.167C37.318 36.446 10.527 59.844 2.478 93.96c-8.817 37.373 4.864 87.615 57.648 120.082 246.34 151.517 389.642-112.396 302.517-187.14" mask="url(#prefix__b)"/>
        </g>
        <g transform="translate(0 -2) translate(0 .698)">
            <mask id="prefix__d" fill="#fff">
                <use xlink:href="#prefix__c"/>
            </mask>
            <path fill="#F5BC8E" d="M66.72 123.077c-1.9-1.727-4.125-2.366-6.571-2.986-2.76-.703-5.481-2.244-8.354-2.347-1.473-.052-3.149.453-2.935 2.26.259 2.168 3.67 2.779 5.265 3.362 1.687.615 3.388 1.205 5.02 1.96 1.208.556 2.402 1.554 3.659 1.951 1.379.435 2.946-.06 2.932-1.764-.002-.186-.03-.364-.07-.538.981.188 1.966-1.067 1.054-1.898" mask="url(#prefix__d)"/>
            <mask id="prefix__f" fill="#fff">
                <use xlink:href="#prefix__e"/>
            </mask>
            <path fill="#F5BC8E" d="M107.207 111.672c-1.9-1.727-4.125-2.366-6.571-2.987-2.76-.702-5.481-2.243-8.357-2.347-1.47-.051-3.146.454-2.932 2.26.259 2.171 3.67 2.782 5.265 3.363 1.687.615 3.388 1.207 5.018 1.959 1.21.557 2.404 1.558 3.66 1.952 1.378.437 2.947-.06 2.933-1.764-.003-.186-.03-.364-.07-.538.98.19 1.966-1.067 1.054-1.898" mask="url(#prefix__f)"/>
            <mask id="prefix__h" fill="#fff">
                <use xlink:href="#prefix__g"/>
            </mask>
            <path fill="#CDE1F9" d="M105.352 118.812c-.315.834-.738 1.644-.977 2.492-.348 1.236-.498 2.57-.444 3.853.108 2.587.942 5.026 2.032 7.35 2.669 5.697 6.348 11.03 9.52 16.46.371.631.716 1.268 1.036 1.902.552 6.05.383 12.154-.252 18.224-.204-.129-.422-.235-.643-.333.707 2.166.794 4.403 1.01 6.761.202 2.225.71 4.718 1.816 6.753 1.229 2.257 3.6 2.257 5.935 2.986.387.122.77.246 1.153.373l-.153-.188c3.393-12.63 6.934-25.51 5.585-38.65-.7-6.818-2.671-13.443-5.918-19.488-1.562-2.906-3.386-5.909-5.751-8.244-1.934-1.903-4.258-2.652-6.513-3.804-.674-.897-1.438-1.729-2.218-2.523-1.306-1.327-3.15-2.455-5.086-1.868-1.1.334-1.823 1.053-2.171 1.93-.226.272-.411.584-.54.934-.56 1.523.319 2.824 1.343 3.856.41.41.825.817 1.236 1.224" mask="url(#prefix__h)"/>
            <mask id="prefix__j" fill="#fff">
                <use xlink:href="#prefix__i"/>
            </mask>
            <path fill="#F5BC8E" d="M113.501 180.954L101.42 178.938 104.937 157.861 117.02 159.877z" mask="url(#prefix__j)"/>
            <mask id="prefix__l" fill="#fff">
                <use xlink:href="#prefix__k"/>
            </mask>
            <path fill="#4A4A4A" d="M109.686 145.327c3.165 1.891 3.01-4.884-.136-6.787-3.827-2.312-4.962-2.77-9.578-2.662-2.068.047-4.145.557-5.923 1.621-.785.472-1.58 1.384-2.566 1.419-1.207.05-3.322-1.222-4.363-1.666-4.088-1.736-8.697-3.604-13.175-2.175-4.63 1.478-6.452 6.703-11.893 6.531-2.088-.066-3.705-.103-5.516 1.107-1.757 1.172-3.07 2.97-3.808 4.931-1.556 4.133-.506 8.695 2.053 12.191 2.666 3.637 6.81 6.282 11.014 7.814 1.842.672 3.794.886 5.674.259 2.09-.696 3.383-2.465 5.267-3.48 2.751-1.48 5.075-.655 7.845.143 2.5.724 4.929.696 7.384-.2 5.321-1.938 9.426-6.439 15.37-3.378 3.28 1.69 6.186-3.26 2.896-4.96-.324-.168-.657-.316-.991-.464.606-.694 1.052-1.556 1.229-2.528.561-3.064-1.194-5.958-3.087-8.425-.24-.372-.494-.726-.757-1.055 1.074.568 2.103 1.19 3.061 1.764" mask="url(#prefix__l)"/>
            <mask id="prefix__n" fill="#fff">
                <use xlink:href="#prefix__m"/>
            </mask>
            <path fill="#F5BC8E" d="M121.725 150.226c.789-1.6 1.562-2.554 0-3.771-.769-.6-5.1-3.057-6.076-3.76-4.205-3.627-12.29-7.823-16.66-3.183-2.596 2.759-3.387 7.081-2.69 11.021-.272 1.173-.129 2.481.398 3.684.077.176.162.353.25.527-1.402-1.786-4.71 0-3.68 2.403 1.428 3.338 4.332 4.92 7.525 6.29 3.434 1.47 6.47 3.526 10.22 4.125 3.284.524.99.735 4.25.014 3.178-.705 10.083-6.46 10.024-9.6-.07-3.867-1.452-4.269-3.561-7.75" mask="url(#prefix__n)"/>
            <mask id="prefix__p" fill="#fff">
                <use xlink:href="#prefix__o"/>
            </mask>
            <path fill="#4A4A4A" d="M108.711 154.443c-5.345-4.063-1.562-8.923.367-10.608 1.148-.998 2.18-2.013 1.71-3.65-.982-3.415-7.734-3.02-10.307-2.202-.94.3-1.607.815-2.11 1.477-.958-.256-2.081.1-2.422 1.33l-1.771 6.419c-.494.192-.926.575-1.16 1.193-.934 2.458-1.869 4.915-2.801 7.375-.588 1.55-1.64 3.242-.595 4.798.6.892 1.753 1.292 2.733.716.378-.225.714-.475 1.017-.747.23.214.514.38.82.486-2.855 1.079-5.822.938-8.564-.98-2.119-1.48-4.083 1.97-2.016 3.45 2.026 1.451 4.413 1.715 6.722 2.264 2.88.689 5.47-.634 8.209-1.092 2.796-.468 5.265 2.258 7.8 1.785 1.948.132 3.667-.69 3.822-3.066.073-1.11-.14-2.3-.42-3.42.211-2.427-.078-4.8-1.034-5.528" mask="url(#prefix__p)"/>
            <mask id="prefix__r" fill="#fff">
                <use xlink:href="#prefix__q"/>
            </mask>
            <path fill="#CDE1F9" d="M132.936 199.563c-1.2-5.281-4.053-9.724-7.38-13.906-.056-.068-.11-.139-.166-.207.225-.84-4.887-6.564-6.452-9.712-.721-1.455-1.31-2.972-1.938-4.471-.36-.86.059-.052-.557-1.2-.228-.424-.465-.84-.702-1.255-1.203-.569-2.599-.682-3.921-.82-2.89-.303-5.792-.397-8.696-.374-1.264.012-1.905.978-1.933 1.957-.663.947-.74 2.213-.872 3.358-.157 1.353-4.43-14.123-7.873-22.778-2.27-5.704-4.987-11.232-8.474-16.295-3.117-4.53-6.595-8.113-11.728-7.629-1.271-1.315-2.617-2.803-4.144-3.787-2.162-1.393-5.117-1.17-6.731.952-2.79 3.667 1.118 7.522 4.402 9.402-.209.585-.42 1.142-.472 1.466-.197 1.245-.289 2.488-.202 3.745.19 2.716.895 5.274 1.988 7.76 2.398 5.462 6.658 9.696 10.173 14.423 3.3 4.435 5.894 9.285 7.776 14.395.517 1.658 1.04 3.31 1.579 4.957 1.034 3.81 2.077 8.507 1.933 12.499-.286 8.086-2.708 13.11-5.107 17.174-4.039 6.846-9.459 13.302-10.511 21.389.63.018 1.25.43 1.257 1.24.03 2.836.251 5.585 1.769 8.06 1.715 2.792 3.69 4.098 6.766 5.167 1.005.35 1.078 1.504.585 2.136 1.332.322 2.706.566 4.071.843 9.008 1.833 18.164 2.479 26.744-1.384 4.61-2.076 11.016-4.795 15.656-22.608.79-3.021 4.506-18.574 3.16-24.497" mask="url(#prefix__r)"/>
            <mask id="prefix__t" fill="#fff">
                <use xlink:href="#prefix__s"/>
            </mask>
            <path fill="#477BDE" d="M114.254 233.52c-2.765-2.174-4.755-5.174-7.527-7.357-5.592-4.405-14.738-4.492-21.027-1.461-1.964.944-3.712 2.21-5.777 2.965-1.852.674-3.767 1.149-5.594 1.891-.473.193-.933.406-1.384.634-.087.567-.153 1.14-.195 1.725-.261 3.803.65 7.81 2.941 10.899 2.82 3.803 7.288 4.35 11.65 5.236 9.006 1.833 18.164 2.48 26.742-1.383 2.807-1.264 6.28-2.775 9.613-7.775-2.659-2.638-6.545-3.098-9.442-5.375" mask="url(#prefix__t)"/>
            <mask id="prefix__v" fill="#fff">
                <use xlink:href="#prefix__u"/>
            </mask>
            <path fill="#F5BC8E" d="M111.627 249.506c1.85-.832 2.366 2.66 4.56.688.64-1.752 5.352-10.793 5.951-12.562-2.476-1.604-5.497-2.258-7.86-4.114-2.766-2.17-4.756-5.173-7.526-7.356-3.148-2.476-7.42-3.59-11.674-3.547-1.78 5.042-3.832 9.978-6.2 14.782-1.428 2.895-2.956 5.742-4.581 8.536-.261.444-.524.883-.787 1.327 1.264.296 2.563.531 3.855.792 9.008 1.832 15.685 5.319 24.262 1.454" mask="url(#prefix__v)"/>
            <g>
                <mask id="prefix__x" fill="#fff">
                    <use xlink:href="#prefix__w"/>
                </mask>
                <path fill="#B8B8B8" d="M148.693 308.615c-.72-8.954-10.168-19.735-16.563-25.092-5.953-4.988-11.45-10.868-16.537-18.532-4.33-6.526.742-11.176 3.127-18.39.787-2.374.087-2.853-1.65-3.739-2.805-1.426-9.446-4.99-12.656-6.86-3.592-2.096-7.353-3.834-11.213-5.364-.609-.244-1.161-.286-1.643-.183-.834.068-1.618.554-2.105 1.623-3.435 7.573-7.57 14.517-12 21.533-4.281 6.778-5.026 14.39-2.202 21.92 2.728 7.27 7.878 13.055 13.04 18.708 5.095 5.582 9.785 11.408 13.98 17.667.738 6.814-2.123 13.871-6.185 19.695-3.181 4.567-6.717 8.87-10.164 13.23-3.204 4.052-2.032 7.82 1.47 11.265 3.802 3.73 8.283 6.94 12.52 10.152 1.852 1.405 3.91 3.484 6.222 4.01 2.56.583 4.205-.968 5.674-2.843 3.139-4.008 4.567-9.207 6.606-13.812 1.657-3.738 3.06-7.278 4.253-10.654.914-.72 1.792-1.516 2.631-2.194 3.846-3.109 7.638-6.29 11.176-9.75 5.946-5.815 12.94-13.409 12.22-22.39" mask="url(#prefix__x)"/>
            </g>
            <g>
                <mask id="prefix__z" fill="#fff">
                    <use xlink:href="#prefix__y"/>
                </mask>
                <path fill="#C24058" d="M122.283 151.104c-.742.919-2.544 2.462-2.654 2.502-.32.118-.179.463.124.56 1.818.575 3.284.209 4.25-.623-.465-.695-1.048-1.426-1.72-2.439" mask="url(#prefix__z)"/>
            </g>
            <g>
                <mask id="prefix__B" fill="#fff">
                    <use xlink:href="#prefix__A"/>
                </mask>
                <path fill="#FFC39E" d="M109.534 147.348c.329.05.679-.28 1.036-.627.557-.54 1.064-1.12 1.358-1.863.223-.562.484-1.4-.146-1.783-.08-.05-.207-.047-.284.01-.522.375-3.287 4.07-1.964 4.263" mask="url(#prefix__B)"/>
            </g>
            <g>
                <mask id="prefix__D" fill="#fff">
                    <use xlink:href="#prefix__C"/>
                </mask>
                <path fill="#0D1D38" d="M114.25 146.089c-.093-.353-.627-.205-.544.148.185.806-.346 1.43-.982 1.837-.31.197-.024.69.289.493.848-.54 1.515-1.428 1.238-2.478" mask="url(#prefix__D)"/>
            </g>
            <g>
                <mask id="prefix__F" fill="#fff">
                    <use xlink:href="#prefix__E"/>
                </mask>
                <path fill="#F5BC8E" d="M110.816 157.499c-.28.232-.787.136-1.175-.043.299-.472 1.058-.333 1.175.043m2.2-.604c-.017-.054-.024-.11-.043-.165-.503-1.658-2.04-2.192-3.407-1.837.108-.202.195-.41.242-.648.19-.978-.216-1.835-.735-2.643-.787-1.231-2.751-.101-1.969 1.15.653 1.049.378 1.075-.19 1.99-.404.652-.71 1.418-.752 2.19-.08 1.398.597 2.735 1.896 3.318 1.168.526 2.74.338 3.855-.256.77-.411 1.14-1.166 1.203-1.976.017-.042.038-.078.054-.12.153-.423.059-.763-.155-1.003" mask="url(#prefix__F)"/>
            </g>
            <g>
                <mask id="prefix__H" fill="#fff">
                    <use xlink:href="#prefix__G"/>
                </mask>
                <path fill="#F5BC8E" d="M269.9 94.359c-2.766.7-5.714 2.906-7.147 5.342-.806 1.37-1.288 2.848-2.277 4.114-1.344 1.724-3.205 3.082-4.837 4.515-1.24 1.088-.205 2.688 1.09 2.834-.078.96.77 1.729 1.668 1.804.57.322 1.32.33 1.983-.265 1.02-.912 2.652-2.22 3.773-3.663 1.104-.897 2.276-1.72 3.533-2.47 1.424-.847 3.247-1.721 3.318-3.575.019-.515-.27-1.095-.705-1.393.53-.256.963-.465 1.118-.578.938-.689 1.798-1.628 2.131-2.77.714-2.448-1.158-4.527-3.649-3.895" mask="url(#prefix__H)"/>
            </g>
            <g>
                <mask id="prefix__J" fill="#fff">
                    <use xlink:href="#prefix__I"/>
                </mask>
                <path fill="#F5BC8E" d="M387.615 213.168c-1.694-2.295-4.852-4.189-7.65-4.593-1.574-.228-3.124-.115-4.67-.547-2.103-.592-4.067-1.804-6.01-2.772-1.476-.736-2.563.829-2.209 2.084-.918.288-1.308 1.367-1.04 2.224-.08.651.197 1.344.996 1.734 1.23.602 3.061 1.617 4.818 2.108 1.248.683 2.453 1.456 3.623 2.337 1.325.996 2.824 2.354 4.565 1.715.482-.176.912-.662 1.024-1.179.437.395.795.717.959.818.991.606 2.187 1.047 3.369.923 2.535-.266 3.75-2.784 2.225-4.852" mask="url(#prefix__J)"/>
            </g>
            <g>
                <mask id="prefix__L" fill="#fff">
                    <use xlink:href="#prefix__K"/>
                </mask>
                <path fill="#477BDE" d="M367.264 331.778c-3.524-7.508-8.94-17.446-12.743-24.819-3.813-7.4-8.291-14.366-12.518-21.527-6.012-10.185-13.624-32.48-17.18-46.958-2.143-8.709-1.575-13.502-1.8-14.19-1.293-3.954-5.606-3.033-8.855-3.094-4.22-.082-8.425-.503-12.621-.933-8.263-.846-16.552-1.703-24.817-.39-3.313.526-6.872 1.212-8.857 4.196-.637.961-1.067 2.028-1.367 3.146-.703.329-1.283.952-1.551 1.927-2.711 9.738-5.357 19.495-8.023 29.247-2.5 9.135-5.554 18.32-6.567 27.772-1.005 9.393 1.126 19.08 2.32 28.376 1.287 10.035 2.576 20.064 3.861 30.099.233 1.809 1.267 3 3.158 3.155 3.447.291 10.683 1.814 12.558-2.234.883-1.908.542-4.523.547-6.586.005-2.542-.038-5.084-.13-7.626-.197-5.443-.624-10.875-1.256-16.286-.613-5.227-1.548-10.654-.26-15.854 1.233-4.976 3.866-9.573 6.096-14.162 2.295-4.722 12.74-22.711 14.916-28.6 6.419 12.124 14.181 20.448 21.777 31.779 9.503 14.176 29.712 40.292 40.45 53.543 3.866 4.771 9.799.07 11.448-1.979 2.64-3.282 2.988-4.644 1.414-8.002" mask="url(#prefix__L)"/>
            </g>
            <g>
                <mask id="prefix__N" fill="#fff">
                    <use xlink:href="#prefix__M"/>
                </mask>
                <path fill="#B8B8B8" d="M367.945 196.92c-4.11-2.009-6.579 1.478-9.739-2.232-2.544-2.993-2.093-7.046-5.594-9.485-3.037-2.116-6.937-2.119-10.055-4.015-3.216-1.959-5.298-5.337-7.262-8.439-4.295-6.782-17.531-16.161-25.733-19.51.728-1.557 1.043-3.274-.03-4.764-1.678-2.323-5.538-3.14-8.075-3.963-3.513-1.135-7.192-2.443-10.883-2.822-1.057-.11-1.809.024-2.377.341-.8.068-1.21.745-1.57 1.433-.402.77-.792 1.548-1.177 2.326-5.643-1.085-6.588-.244-8.545-.663-1.167-.246-9.56-8.248-12.529-10.149-1.56-.998-6.961-4.523-7.37-4.743.327-1.48.48-3.029.667-4.568.273-2.253.884-4.071 2.744-5.49 1.429-1.09 2.845-1.856 3.405-3.696 1.214-4.01-3.125-7.118-6.017-9.01-3.374-2.21-6.247-2.201-8.496 1.405-2.199 3.534-5.998 4.88-9.48 6.853-3.646 2.068-7.064 5.052-8.07 9.302-.237 1.003-.317 2.027-.237 3.019-.18.376-.291.813-.308 1.31-.14 4.378.58 8.968 3.865 12.142 3.379 3.266 7.762 4.58 10.542 8.625 2.772 4.04 4.87 7.885 8.542 11.256 1.516 1.39 3.078 2.73 4.66 4.05.41.562.859 1.097 1.36 1.56-.51 3.275-.727 6.633-.884 9.814-.308 6.275.18 12.456.98 18.677.768 5.982-5.406 27.019-6.79 32.147-1.468 5.453-.167 11.254-1.764 16.608-1.427 4.774-4.854 8.733-5.888 13.671-.444 2.129-.597 4.42.268 6.428 1.886.482 3.787.881 5.728.999 4.762.291 9.651-.956 13.99-2.843 4.196-1.823 8.174-4.236 11.505-7.377 3.259-3.07 6.045-6.59 9.02-9.929 2.68-3.007 5.594-5.958 8.946-8.244 4.61-1.745 10.018.296 14.81-.143 3.078-.284 5.912-1.706 8.771-2.784 2.993-1.128 5.9-2.413 7.81-5.108 4.146-5.85-1.257-11.791-2.634-17.61-.09-.384-.238-.76-.247-1.152-.09-3.717-.496-10.652-.599-14.392 3.028 2.018 7.722 6.91 10.798 7.306 2.617.339 5.06-.035 7.666-.054 2.854-.019 4.26 1.227 5.9 3.414 2.774 3.698 5.2 7.565 9.956 8.852 4.727 1.28 10.965.045 15.03-2.66 3.84-2.555 1.95-12.486-4.61-15.693" mask="url(#prefix__N)"/>
            </g>
            <g>
                <mask id="prefix__P" fill="#fff">
                    <use xlink:href="#prefix__O"/>
                </mask>
                <path fill="#0D1D38" d="M322.771 118.504c-3.93-5.176-7.915-11.136-17.033-12.45-3.275-.47-8.653.889-11.625 2.174-1.546.667-3.115 1.419-4.807 1.637-1.59.205-3.07-.112-4.365 1.046-1.78 1.593-1.748 4.177-.712 6.179.675 1.301 1.75 2.276 2.573 3.47.916 1.325 1.412 2.845 3.005 3.522 4.384 1.858 8.664-3.374 8.773-7.61.359.059.72.103 1.07.134 2.07.19 6.074.169 8.362-1.28.162.709.724 1.268 1.673 1.122 1.682-.256 2.688-1.224 3.06-2.405 1.458 1.165 2.76 2.497 3.85 3.911 1.332 1.732 7.515 2.314 6.176.55" mask="url(#prefix__P)"/>
            </g>
            <g>
                <mask id="prefix__R" fill="#fff">
                    <use xlink:href="#prefix__Q"/>
                </mask>
                <path fill="#0D1D38" d="M324.6 122.288c-2.197-6.125-6.597-9.8-12.814-11.632-5.826-1.718-12.35-1.487-16.14 3.778-1.104 1.538.467 3.01 1.973 2.873.482.402 1.147.59 1.875.378.106 1.313 1.652 2.42 2.98 1.69-.292.277-.553.523-.746.723-1.616 1.66.353 3.947 2.167 3.259-.015.011-.026.025-.038.04-.43.458-.85.925-1.255 1.416-1.07 1.302-.24 2.98.95 3.4l-.31.385c-.83 1.03-.506 2.284.248 2.974-1.134 1.33-.223 3.015 1.067 3.341-.139.28-.202.562-.193.837-.848.054-1.684.089-2.49.115-2.584.089-2.6 4.092 0 4.029 3.623-.087 6.99 1.499 10.655 1.182 3.091-.266 5.683-1.92 8.225-3.84 4.696-3.55 5.624-9.989 3.846-14.948" mask="url(#prefix__R)"/>
            </g>
            <g>
                <mask id="prefix__T" fill="#fff">
                    <use xlink:href="#prefix__S"/>
                </mask>
                <path fill="#F5BC8E" d="M301.458 155.638L289.906 151.564 297.018 131.413 308.567 135.49z" mask="url(#prefix__T)"/>
            </g>
            <g>
                <mask id="prefix__V" fill="#fff">
                    <use xlink:href="#prefix__U"/>
                </mask>
                <path fill="#F5BC8E" d="M319.48 120.078c-1.942-3.254-9.323-10.904-15.387-10.342-3.616.331-5.92 2.814-8.113 5.51-.843 1.038-1.745 2.006-2.63 2.98-1.375.61-2.919.922-3.946 2.028-.744.804-.784 2.505-.124 3.552-.024.045-.05.09-.073.137-1.403 3.012-2.382 6.547-2.582 9.879-.195 3.247 1.47 4.79 4.504 5.594 6.465 1.717 14.14-.526 19.826-3.717 4.713-2.645 12.076-9.66 8.524-15.621" mask="url(#prefix__V)"/>
            </g>
            <g>
                <mask id="prefix__X" fill="#fff">
                    <use xlink:href="#prefix__W"/>
                </mask>
                <path fill="#0D1D38" d="M320.358 121.33c-.193-.742-.425-1.477-.733-2.196-.816-1.889-1.927-3.597-3.285-5.1-.05-.092-.098-.184-.145-.273-.332-.63-.797-1.006-1.309-1.177-.223-.2-.449-.397-.681-.59-.58-.472-1.203-.679-1.788-.681-.254-.498-.726-.89-1.422-.954-3.63-.334-5.243 2.927-5.687 6.029-.203 1.41-.219 2.828-1.227 3.993-.547.63-1.348 1.05-1.983 1.589-1.196 1.015-2.135 2.21-2.326 3.815-.188 1.584.388 2.56 1.311 3.233.287.411.632.801 1.032 1.16.72.651 1.62 1.081 2.35 1.716 1.122.975 1.496 1.9 1.919 3.268.467 1.515 1.153 2.784 2.567 3.594 3.924 2.253 8.395-1.057 9.06-4.934.681-.662 1.177-1.51 1.513-2.476 1.247.054 2.488-.794 2.624-2.48.207-2.538-.62-5.08-1.79-7.535" mask="url(#prefix__X)"/>
            </g>
            <g>
                <mask id="prefix__Z" fill="#fff">
                    <use xlink:href="#prefix__Y"/>
                </mask>
                <path fill="#FF8DAD" d="M294.479 153.841c-2.333-.688-5.028-1.21-6.893-2.802-.057.312-.125.697-.221 1.2-.888 4.72-1.405 9.51-1.589 14.308-.187 5.016-.014 10.041.44 15.038.437 4.81.73 10.166 2.53 14.686.627 1.577 2.723 1.678 3.32 0 3.522-9.898 6.855-19.864 9.98-29.89 1.534-4.928 2.41-6.704 3.5-10.294-3.864.527-7.35-1.146-11.067-2.246" mask="url(#prefix__Z)"/>
            </g>
            <g>
                <mask id="prefix__ab" fill="#fff">
                    <use xlink:href="#prefix__aa"/>
                </mask>
                <path fill="#F5BC8E" d="M306.573 152.369c-1.917-1.28-4.604-1.903-6.533-2.526-3.513-1.137-7.19-2.443-10.883-2.822-.315-.035-.594-.04-.86-.03-.707 3.552-.26 1.684-.932 5.248-.017.094-.03.188-.05.282 1.892 2.949 4.734 5.202 8.47 6.003 3.475.745 7.18-.186 9.729-2.33.326-1.072.672-2.296 1.06-3.825" mask="url(#prefix__ab)"/>
            </g>
            <g>
                <mask id="prefix__ad" fill="#fff">
                    <use xlink:href="#prefix__ac"/>
                </mask>
                <path fill="#0D1D38" d="M298.672 120.367c-.397.44-.959.578-1.253.313-.296-.266-.211-.841.186-1.278.397-.44.959-.578 1.252-.313.296.266.212.839-.185 1.278" mask="url(#prefix__ad)"/>
            </g>
            <g>
                <mask id="prefix__af" fill="#fff">
                    <use xlink:href="#prefix__ae"/>
                </mask>
                <path fill="#0D1D38" d="M297.906 116.18c.007.333.39.625.792.916.627.458 1.283.862 2.063 1.027.592.127 1.461.244 1.736-.442.033-.084.01-.211-.056-.277-.458-.454-4.565-2.559-4.535-1.224" mask="url(#prefix__af)"/>
            </g>
            <g>
                <mask id="prefix__ah" fill="#fff">
                    <use xlink:href="#prefix__ag"/>
                </mask>
                <path fill="#FFF" d="M292.008 129.152c.225-.068.453-.16.681-.275-.021-.019-.04-.037-.077-.05-1.13-.38-2.091-.984-3.064-1.435-.385-.178-.912-.474-1.417-.78-.169.482-.324.97-.467 1.464.331.254.7.472 1.078.655 1.048.506 2.016.703 2.974.499.097-.02.195-.045.292-.078" mask="url(#prefix__ah)"/>
            </g>
        </g>
    </g>
</svg>
