<svg xmlns="http://www.w3.org/2000/svg" width="34" height="32" viewBox="0 0 34 32">
    <path fill="#F5A623" d="M26.694 31.422c.35-.035.645-.202.863-.486.198-.286.29-.615.228-.963l-1.606-9.788 7.032-6.978c.347-.326.473-.823.318-1.285-.135-.45-.543-.786-1-.853l-9.812-1.494L18.284.703C18.069.27 17.639 0 17.16 0c-.48 0-.914.271-1.124.703l-4.444 8.872L1.79 11.07c-.467.067-.853.402-.999.853-.145.462-.03.959.307 1.285l7.043 6.978-1.606 9.788c-.08.479.114.959.5 1.223.386.287.9.32 1.33.095l8.795-4.557 8.794 4.557c.226.126.483.163.74.131z"/>
</svg>