<svg xmlns="http://www.w3.org/2000/svg" width="26" height="27" viewBox="0 0 26 27">
    <path fill="#212121" fill-rule="evenodd" d="M5.266 26.86c-.092 0-.185-.05-.277-.098a.47.47 0 0 1-.184-.482l1.427-8.79-6.077-6.23c-.138-.145-.184-.339-.138-.484.046-.193.184-.29.369-.338L8.81 9.134l3.774-8.017c.139-.338.69-.338.83 0l3.774 8.017 8.425 1.304c.185.049.322.145.369.338.046.194 0 .387-.138.483l-6.077 6.231 1.427 8.79a.47.47 0 0 1-.184.482c-.139.097-.323.146-.507.049L13 22.657l-7.504 4.154c-.092.048-.138.048-.23.048"/>
</svg>
