<svg xmlns="http://www.w3.org/2000/svg" width="34" height="32" viewBox="0 0 34 32">
    <path fill="#D7D7D7" d="M26.83 31.422c.349-.035.644-.202.863-.486.197-.285.289-.615.227-.963l-1.606-9.788 7.032-6.978c.347-.326.474-.823.318-1.285-.135-.45-.542-.786-1-.853l-9.812-1.494L18.419.703C18.204.27 17.774 0 17.295 0c-.48 0-.914.271-1.124.703l-4.444 8.872-9.802 1.494c-.467.067-.853.402-.998.853-.146.462-.03.959.306 1.285l7.043 6.978-1.606 9.788c-.08.479.114.959.5 1.223.386.287.9.32 1.33.095l8.795-4.557 8.794 4.557c.227.126.484.163.74.131zm-1.8-3.53l-7.156-3.695c-.356-.192-.801-.192-1.157 0l-7.155 3.695 1.314-7.935c.065-.413-.065-.828-.355-1.116l-5.728-5.667 7.947-1.203c.413-.052.754-.308.945-.676l3.61-7.207 3.622 7.206c.168.369.52.624.934.676l7.957 1.203-5.739 5.667c-.29.288-.42.703-.354 1.117l1.314 7.935z"/>
</svg>