<svg height="22" viewBox="0 0 22 22" width="22" xmlns="http://www.w3.org/2000/svg" xmlns:xlink="http://www.w3.org/1999/xlink"><mask id="a" fill="#fff"><path d="m0 .00002778v9.934h9.9325v-9.934z" fill="#fff" fill-rule="evenodd"/></mask><g fill="none" fill-rule="evenodd"><circle cx="11" cy="11" fill="#ff1744" r="11"/><path d="m9.60791667 1.11461111-.79166667-.79166667c-.43069444-.43055555-1.13888889-.43055555-1.56944444 0l-6.27777778 6.29166667c-.11111111.11097222-.18055556.26388889-.19458334.40277778l-.76388888 2.55541667c-.02777778.09736111 0 .20833333.06944444.27777777.05569444.05569445.12513889.08347223.19458333.08347223.02777778 0 .05541667 0 .08319445-.01402778l2.56944444-.76388889c.15291667-.01375.29180556-.08319445.40291667-.19430556l6.29166667-6.29166666c.41666664-.41666667.41666664-1.11111111-.01388889-1.55555556" fill="#fff" mask="url(#a)" transform="translate(6 6)"/></g></svg>