<svg xmlns="http://www.w3.org/2000/svg" width="31" height="23" viewBox="0 0 31 23">
    <g fill="none" fill-rule="evenodd">
        <path stroke="#4A4A4A" d="M30.172 15.074H24.15c-1.101 0-2.004-.972-2.004-2.16v-2.858c0-1.187.903-2.16 2.004-2.16h6.023"/>
        <path fill="#4A4A4A" d="M21.661 12.101c.457 0 .827-.329.827-.734 0-.405-.37-.735-.827-.735H13.3c-.457 0-.827.33-.827.735 0 .405.37.734.827.734h8.362z"/>
        <path stroke="#4A4A4A" d="M26.159 11.485c0-.596-.447-1.08-1-1.08-.554 0-1.001.484-1.001 1.08 0 .596.447 1.08 1 1.08.554 0 1-.484 1-1.08z"/>
        <path fill="#4A4A4A" d="M1.006 12.101h1.976c.372 0 .672-.329.672-.734 0-.405-.3-.735-.672-.735H1.006c-.37 0-.673.33-.673.735 0 .405.302.734.673.734"/>
        <path fill="#FF1744" d="M9.432 11.1v-.026c0-.51-.119-.92-.356-1.227-.237-.308-.559-.461-.97-.461-.409 0-.73.153-.963.46-.233.308-.35.717-.35 1.228v.026h2.639zM5.98 14.372c-.525-.554-.804-1.341-.837-2.363l-.012-.325c0-1.082.264-1.935.79-2.558.526-.624 1.254-.935 2.185-.935.957 0 1.693.311 2.212.935.518.623.776 1.454.776 2.494v.271c0 .087-.028.161-.084.222a.28.28 0 0 1-.217.09h-4v.104c.017.485.14.886.368 1.202.23.315.544.474.945.474.458 0 .832-.2 1.121-.598a.67.67 0 0 1 .169-.174.461.461 0 0 1 .205-.033h1.059c.072 0 .135.022.187.065a.221.221 0 0 1 .079.181c0 .209-.115.453-.344.734-.228.282-.555.526-.98.734-.427.208-.922.311-1.483.311-.9 0-1.612-.277-2.139-.83z"/>
        <path stroke="#4A4A4A" d="M28.17 21.97H2.743c-1.101 0-2.004-.972-2.004-2.16V3.16C.74 1.973 1.643 1 2.744 1H28.17c1.102 0 2.003.972 2.003 2.16v16.65c0 1.188-.901 2.16-2.003 2.16z"/>
    </g>
</svg>
