<svg height="50" viewBox="0 0 50 50" width="50" xmlns="http://www.w3.org/2000/svg"><path d="m46.9427767 23.105446c1.1357825 0 2.0572233.8486511 2.0572233 1.8947119s-.9214408 1.8947119-2.0572233 1.8947119h-38.92114641l7.46010411 6.8707895c.8040481.7405319.8040481 1.9387256 0 2.6792575-.390424.3595824-.913225.5550832-1.4545301.5550832-.541305 0-1.064106-.1955008-1.4545301-.5550832l-10.97185742-10.1051301c-.18905133-.1741172-.33943528-.3830718-.44495265-.6155563-.20797195-.4627378-.20797195-.9835125.00092018-1.4501824.10459719-.2304472.25498114-.4394017.44403247-.6135189l10.97185742-10.1051302c.8040481-.7405319 2.1050121-.7405319 2.9090602 0s.8040481 1.9387256 0 2.6792576l-7.46010411 6.8707895z" fill="#fff" transform="matrix(-1 0 0 1 50 0)"/></svg>