<svg xmlns="http://www.w3.org/2000/svg" width="32" height="32" viewBox="0 0 32 32">
    <g fill="none" fill-rule="evenodd">
        <g fill="#499B1F">
            <g>
                <g>
                    <g>
                        <g>
                            <path d="M91.412 29.635L83.318 35.8c-.447.34-1.073.236-1.398-.232-.188-.272-.24-.622-.142-.94l3.093-9.974c.134-.432-.013-.905-.363-1.172l-8.095-6.163c-.447-.34-.547-.996-.222-1.465.188-.271.49-.432.81-.432l10.005.001c.433 0 .818-.293.952-.725l3.09-9.973c.171-.55.736-.852 1.261-.673.305.103.544.354.643.673l3.09 9.973c.134.432.519.725.952.725L107 15.422c.553 0 1.001.47 1.001 1.049 0 .335-.153.65-.413.848l-8.094 6.163c-.351.267-.498.74-.364 1.172l3.093 9.973c.17.55-.117 1.143-.643 1.322-.304.103-.638.048-.897-.15l-8.094-6.164c-.35-.267-.825-.267-1.176 0z" transform="translate(-262 -341) translate(0 236) translate(116 68) translate(0 32) translate(70 1)"/>
                        </g>
                    </g>
                </g>
            </g>
        </g>
    </g>
</svg>
