<?xml version="1.0" encoding="UTF-8"?>
<svg width="90px" height="90px" viewBox="0 0 90 90" version="1.1" xmlns="http://www.w3.org/2000/svg" xmlns:xlink="http://www.w3.org/1999/xlink">
    <title>Fragrance Notes Placeholder</title>
    <defs>
        <circle id="path-1" cx="44.9438202" cy="44.9438202" r="44.9438202"></circle>
        <circle id="path-3" cx="44.9438202" cy="44.9438202" r="44.9438202"></circle>
    </defs>
    <g id="Fragrance-Notes-Placeholder" stroke="none" stroke-width="1" fill="none" fill-rule="evenodd">
        <g id="Jojoba-Plant-Hand-Drawing-01">
            <mask id="mask-2" fill="white">
                <use xlink:href="#path-1"></use>
            </mask>
            <use id="Mask" fill="#FFFFFF" xlink:href="#path-1"></use>
        </g>
        <mask id="mask-4" fill="white">
            <use xlink:href="#path-3"></use>
        </mask>
        <use id="Mask" fill="#FFFFFF" xlink:href="#path-3"></use>
        <g id="Group-123" mask="url(#mask-4)">
            <g transform="translate(14.000000, 6.000000)">
                <path d="M51.4116828,24.7727103 C51.5874069,26.0135379 50.9526483,27.1306414 49.9924414,27.2669172 C49.033131,27.4031931 48.1114759,26.5075379 47.9357517,25.2667103 C47.7600276,24.0258828 48.3947862,22.9087793 49.3540966,22.7725034 C50.3143034,22.6362276 51.2350621,23.5318828 51.4116828,24.7727103" id="Fill-1" stroke="none" fill="#FFA3A9" fill-rule="evenodd"></path>
                <path d="M50.6595655,24.8795793 C50.8352897,26.1204069 49.9719103,27.2697862 48.7319793,27.4464069 C47.4902552,27.622131 46.3417724,26.7596483 46.1651517,25.5179241 C45.988531,24.2770966 46.8519103,23.1277172 48.0936345,22.9519931 C49.3335655,22.7753724 50.4829448,23.6387517 50.6595655,24.8795793 Z" id="Stroke-3" stroke="#444B55" stroke-width="1.2202069" fill="none" stroke-linecap="round"></path>
                <path d="M16.4969103,67.6045724 C16.6726345,68.8454 16.0378759,69.9625034 15.0785655,70.0987793 C14.1183586,70.2350552 13.1967034,69.3394 13.0209793,68.0985724 C12.8452552,66.8577448 13.4800138,65.7406414 14.4393241,65.6043655 C15.399531,65.4680897 16.3211862,66.3637448 16.4969103,67.6045724" id="Fill-5" stroke="none" fill="#FFA3A9" fill-rule="evenodd"></path>
                <path d="M15.7447931,67.7113517 C15.9205172,68.9521793 15.0571379,70.1015586 13.8172069,70.2781793 C12.5754828,70.4539034 11.427,69.5914207 11.2503793,68.3496966 C11.0737586,67.108869 11.9371379,65.9594897 13.1788621,65.7837655 C14.4187931,65.6071448 15.569069,66.4705241 15.7447931,67.7113517 Z" id="Stroke-7" stroke="#444B55" stroke-width="1.2202069" fill="none" stroke-linecap="round"></path>
                <path d="M37.0011379,0.609655172 L31.6953448,0.609655172 C31.9176897,0.934206897 32.0952069,1.30448276 32.2108621,1.71958621 C32.5874138,3.06262069 32.4000345,4.42 32.2655517,5.77917241 C32.1068621,7.37772414 31.9212759,9.41917241 32.2933448,11.2113793 L36.4488621,11.2113793 L38.0366552,1.83524138 C38.1442414,1.1942069 37.6520345,0.609655172 37.0011379,0.609655172" id="Fill-9" stroke="none" fill="#F6CE7F" fill-rule="evenodd"></path>
                <path d="M36.0257793,29.6998 C36.0257793,29.7051793 36.3117793,28.4643517 36.0876414,28.0268345 C36.0526759,27.9586966 36.0392276,27.8869724 36.0472966,27.8107655 C36.1907448,26.5744207 36.9456414,17.3731103 36.0257793,17.1480759 C35.6850897,17.0646966 35.4815724,17.2655241 35.1292276,17.1480759 C35.0548138,18.8174552 34.5132966,31.0240069 34.5132966,31.0240069 C35.1095034,31.7887655 41.7906069,37.7606966 42.4181931,38.4904897 C43.2977103,39.5125586 44.0678483,40.611731 44.7061931,41.8444897 C46.7306069,45.7561448 47.8118483,51.3676621 45.5659862,55.4532483 C43.6939862,58.8574552 40.188469,60.6146966 36.9564,61.8384897 C35.3013655,62.4660759 33.6068828,62.9475241 31.9778483,63.6647655 C30.6859172,64.2340759 29.4567448,65.0149724 28.7090207,66.3840069 C28.2069517,67.3029724 27.9048138,68.3644897 27.6968138,69.4493172 C29.5562621,70.1190414 31.5385379,70.4938 33.6050897,70.4938 C44.0050897,70.4938 52.4362621,61.3122138 52.4362621,49.9851793 C52.4362621,40.7166276 43.7773655,32.239731 36.0257793,29.6998" id="Fill-11" stroke="none" fill="#A5DECD" fill-rule="evenodd"></path>
                <path d="M27.6968138,4.87132414 C27.6968138,4.06084138 28.3539862,3.40366897 29.1653655,3.40366897 C29.9758483,3.40366897 30.6321241,4.06084138 30.6321241,4.87132414 C30.6321241,5.6818069 29.9758483,6.33987586 29.1653655,6.33987586 C28.3539862,6.33987586 27.6968138,5.6818069 27.6968138,4.87132414" id="Fill-13" stroke="none" fill="#444B55" fill-rule="evenodd"></path>
                <path d="M31.4283517,7.80744138 C31.4283517,6.99695862 32.0855241,6.33978621 32.8969034,6.33978621 C33.7073862,6.33978621 34.3645586,6.99695862 34.3645586,7.80744138 C34.3645586,8.61792414 33.7073862,9.2759931 32.8969034,9.2759931 C32.0855241,9.2759931 31.4283517,8.61792414 31.4283517,7.80744138" id="Fill-15" stroke="none" fill="#444B55" fill-rule="evenodd"></path>
                <line x1="26.5594483" y1="18.2259103" x2="26.5594483" y2="29.4767379" id="Stroke-17" stroke="#444B55" stroke-width="1.2202069" fill="none" stroke-linecap="round"></line>
                <line x1="36.2831793" y1="18.2259103" x2="36.2831793" y2="29.4767379" id="Stroke-19" stroke="#444B55" stroke-width="1.2202069" fill="none" stroke-linecap="round"></line>
                <path d="M36.626469,30.1669034 C45.7291586,32.5006276 52.4362621,40.4898 52.4362621,49.9851793 C52.4362621,61.3122138 42.8951586,70.4938 31.1252276,70.4938 C19.3561931,70.4938 9.81598621,61.3122138 9.81598621,49.9851793 C9.81598621,40.1670414 16.9848138,31.9609034 26.5590897,29.9490414" id="Stroke-21" stroke="#444B55" stroke-width="1.2202069" fill="none" stroke-linecap="round"></path>
                <path d="M38.8485724,16.9415103 L24.0079517,16.9415103 C23.8609172,16.9415103 23.7407793,16.822269 23.7407793,16.6743379 L23.7407793,12.0839931 C23.7407793,11.9360621 23.8609172,11.8168207 24.0079517,11.8168207 L38.8485724,11.8168207 C38.9965034,11.8168207 39.1157448,11.9360621 39.1157448,12.0839931 L39.1157448,16.6743379 C39.1157448,16.822269 38.9965034,16.9415103 38.8485724,16.9415103 Z" id="Stroke-23" stroke="#444B55" stroke-width="1.2202069" fill="none" stroke-linecap="round"></path>
                <path d="M25.8476759,11.2111103 L24.8121586,1.77490345 C24.7440207,1.15269655 25.2308483,0.610282759 25.8557448,0.610282759 L37.0007793,0.610282759 C37.6516759,0.610282759 38.1456759,1.19483448 38.0371931,1.83497241 L36.4485034,11.2111103" id="Stroke-25" stroke="#444B55" stroke-width="1.2202069" fill="none" stroke-linecap="round"></path>
                <path d="M16.4881241,54.5878966 C16.4881241,54.5878966 20.0142621,66.3479655 35.440331,63.8161034 C47.478331,61.8401034 46.7530207,44.1439655 44.2059172,44.1959655 C42.2281241,44.1188621 40.9101931,44.2174828 38.9306069,44.2174828" id="Stroke-27" stroke="#444B55" stroke-width="1.2202069" fill="none" stroke-linecap="round"></path>
                <path d="M19.7617931,39.1088414 C19.7617931,39.1088414 18.5245517,40.3460828 17.3895172,42.4619448 C16.7287586,43.6911172 16.4705517,45.133669 16.4346897,46.5278069" id="Stroke-29" stroke="#444B55" stroke-width="1.2202069" fill="none" stroke-linecap="round"></path>
                <polyline id="Stroke-31" stroke="#444B55" stroke-width="1.2202069" fill="none" stroke-linecap="round" points="23.0319655 69.9580207 22.5254138 74.5250552 40.1480345 74.5250552 39.6352069 70.4941586"></polyline>
                <path d="M18.5527034,9.62286897 C17.8605655,8.13190345 16.9308414,6.80321379 15.9401517,5.49693793 C15.9383586,8.42238621 15.7204966,11.582731 14.4707034,14.2383172 C15.1000828,14.4256966 15.7823586,14.432869 16.4404276,14.2096276 C18.2030483,13.610731 19.4286345,11.5056276 18.5527034,9.62286897" id="Fill-33" stroke="none" fill="#A5E4FC" fill-rule="evenodd"></path>
                <path d="M15.1625724,4.94968276 C15.2585034,4.83402759 15.4378138,4.83582069 15.5292621,4.95416552 C16.6741586,6.43616552 17.763469,7.92533793 18.5524345,9.62251034 C19.4283655,11.505269 18.2036759,13.6103724 16.4401586,14.209269 C14.627331,14.8252 12.615469,13.7098897 12.0918828,11.8100966 C11.8928483,11.0856828 11.9645724,10.3980276 12.2335379,9.70768276 C12.6567103,8.62733793 14.2167103,6.08651034 15.1625724,4.94968276 Z" id="Stroke-35" stroke="#434343" stroke-width="1.18703448" fill="none" stroke-linecap="round"></path>
                <path d="M42.6326483,53.8892138 C43.5327862,52.3740414 43.8008552,50.7055586 42.5842345,50.0600414 C40.2370621,48.8156276 38.0656138,52.5919034 37.4550621,54.3025241 C37.2318207,54.9274207 37.1269241,55.7630069 37.6164414,56.3018345 C38.1561655,56.8944552 39.1737517,56.8550069 39.8497517,56.5690069 C41.0072,56.0812828 42.0041655,54.9471448 42.6326483,53.8892138" id="Fill-37" stroke="none" fill="#FFFFFF" fill-rule="evenodd"></path>
                <path d="M35.1406138,60.811669 C35.7888207,60.9569103 36.6297862,60.9596 37.1040621,60.4073241 C37.6267517,59.8003586 37.4635793,58.7944276 37.0977862,58.1578759 C36.4719931,57.0694621 35.2248897,56.2177379 34.0988207,55.7228414 C32.484131,55.0154621 30.7950276,54.9527034 30.3037172,56.2374621 C29.3551655,58.7200138 33.3672345,60.4144966 35.1406138,60.811669" id="Fill-39" stroke="none" fill="#FFFFFF" fill-rule="evenodd"></path>
                <path d="M30.2813931,57.2233103 C30.2410483,57.2295862 30.2060828,57.2233103 30.1702207,57.2197241 C30.0509793,59.3526207 33.5179448,60.796069 35.1353241,61.1582759 C35.7826345,61.3035172 36.6236,61.3062069 37.0987724,60.753931 C37.4224276,60.3791724 37.4816,59.852 37.395531,59.3544138 C35.175669,58.1978621 32.8473241,56.8001379 30.2813931,57.2233103" id="Fill-41" stroke="none" fill="#D2B3D6" fill-rule="evenodd"></path>
                <path d="M38.6288276,68.0203931 C39.0708276,67.3515655 38.7821379,66.3752207 38.3392414,65.7897724 C37.5816552,64.7883241 36.235931,64.100669 35.0569655,63.7528069 C33.366069,63.2534276 31.6832414,63.4049448 31.3577931,64.7417034 C30.7275172,67.3228759 34.9224828,68.4982552 36.7317241,68.6694966 C37.3924828,68.7313586 38.228069,68.6273586 38.6288276,68.0203931" id="Fill-43" stroke="none" fill="#FFFFFF" fill-rule="evenodd"></path>
                <path d="M35.2833448,65.9169034 C34.1886552,65.6578 32.9021034,65.3287655 31.7975517,65.6963517 C31.7347931,65.717869 31.6783103,65.7169724 31.6272069,65.7080069 C31.5447241,65.7340069 31.4631379,65.7626966 31.3797586,65.7869034 C31.9212759,67.6436621 35.1892069,68.5240759 36.7312759,68.6693172 C37.392931,68.7311793 38.2276207,68.6271793 38.6283793,68.0202138 C38.7798966,67.7915931 38.8417586,67.5253172 38.8444483,67.2527655 C37.7596207,66.5902138 36.5125172,66.2073862 35.2833448,65.9169034" id="Fill-45" stroke="none" fill="#D2B3D6" fill-rule="evenodd"></path>
                <path d="M38.9842207,63.5708966 C38.8909793,64.228069 38.9573241,65.0672414 39.5445655,65.4957931 C40.1927724,65.9682759 41.1807724,65.7244138 41.7859448,65.3084138 C42.8214621,64.5983448 43.5700828,63.2857931 43.9717379,62.1229655 C44.5482207,60.4571724 44.4747034,58.7698621 43.1540828,58.3825517 C40.6042897,57.6357241 39.2370483,61.7724138 38.9842207,63.5708966" id="Fill-47" stroke="none" fill="#FFFFFF" fill-rule="evenodd"></path>
                <path d="M39.6890897,65.6599517 C40.2440552,65.7558828 40.8779172,65.5747793 41.3199172,65.2941586 C42.3805379,64.6208483 43.1757793,63.3369862 43.6195724,62.1894 C44.1108828,60.9198828 44.2121931,59.6261586 43.6321241,58.9008483 C41.7870207,60.8329172 40.6394345,63.1702276 39.6890897,65.6599517" id="Fill-49" stroke="none" fill="#D2B3D6" fill-rule="evenodd"></path>
                <path d="M42.9031379,50.9850138 C42.7408621,50.8684621 42.5767931,50.788669 42.4100345,50.7250138 C40.1256207,52.0904621 38.900931,54.6034966 38.1783103,57.1039793 C38.5620345,57.1748069 38.9699655,57.1523931 39.3079655,57.0618414 C40.521,56.7354966 41.6632069,55.7474966 42.4297586,54.7846 C43.5271379,53.4057034 44.0193448,51.7892207 42.9031379,50.9850138" id="Fill-51" stroke="none" fill="#D2B3D6" fill-rule="evenodd"></path>
                <path d="M34.7957103,40.5088069 C34.3967448,40.6271517 34.0919172,40.8333586 33.8480552,41.0915655 C34.4675724,42.2499103 34.9965379,43.456669 35.3058483,44.7396345 C35.6008138,45.9643241 35.6931586,47.2230828 35.6770207,48.484531 C36.4139862,48.4119103 37.0541241,47.7332207 37.3320552,47.1029448 C37.848469,45.9329448 37.7937793,44.4132897 37.5176414,43.2119103 C37.1231586,41.4896345 36.1512966,40.1062552 34.7957103,40.5088069" id="Fill-53" stroke="none" fill="#D2B3D6" fill-rule="evenodd"></path>
                <path d="M33.8264483,55.7107379 C32.140931,55.1970138 30.4563103,55.3341862 30.1192069,56.6673586 C29.4683103,59.2440483 33.6534138,60.4552897 35.459069,60.6417724 C36.1207241,60.7099103 36.9563103,60.6130828 37.3624483,60.0088069 C37.8107241,59.3444621 37.5301034,58.3654276 37.0925862,57.7763931 C36.343069,56.768669 35.0036207,56.0693586 33.8264483,55.7107379 Z" id="Stroke-55" stroke="#444B55" stroke-width="1.2202069" fill="none" stroke-linecap="round"></path>
                <path d="M34.832469,63.7683172 C33.1021241,63.4348 31.4417103,63.7485931 31.2471586,65.1113517 C30.8715034,67.7409379 35.1597103,68.5048 36.9770207,68.4994489 C37.640469,68.4976276 38.4617103,68.3129379 38.8024,67.6701103 C39.1780552,66.9618345 38.7952276,66.0177655 38.2967448,65.4780414 C37.4459172,64.5545931 36.0410207,64.0005241 34.832469,63.7683172 Z" id="Stroke-57" stroke="#444B55" stroke-width="1.2202069" fill="none" stroke-linecap="round"></path>
                <path d="M43.9196483,62.5627241 C44.8027517,61.0376897 45.0528897,59.3665172 43.8299931,58.7344483 C41.470269,57.5151379 39.3391655,61.3138276 38.7456483,63.0316207 C38.5295793,63.6592069 38.4345448,64.4956897 38.9303379,65.0291379 C39.4745448,65.6163793 40.492131,65.5652759 41.1654414,65.2721034 C42.3175103,64.7727241 43.3028207,63.626931 43.9196483,62.5627241 Z" id="Stroke-59" stroke="#444B55" stroke-width="1.2202069" fill="none" stroke-linecap="round"></path>
                <path d="M42.6378483,53.8016207 C43.5379862,52.2864483 43.8060552,50.6179655 42.5894345,49.9724483 C40.2422621,48.7280345 38.0708138,52.5043103 37.4602621,54.214931 C37.2370207,54.8407241 37.1321241,55.6754138 37.6216414,56.2142414 C38.1613655,56.8077586 39.1789517,56.7674138 39.8549517,56.4823103 C41.0124,55.9936897 42.0093655,54.8595517 42.6378483,53.8016207 Z" id="Stroke-61" stroke="#444B55" stroke-width="1.2202069" fill="none" stroke-linecap="round"></path>
                <path d="M33.2897724,45.7169655 C33.7864621,47.4078621 34.8255655,48.7410345 36.1255655,48.2891724 C37.7411517,47.7288276 37.8012207,45.7546207 37.5295655,44.3443448 C37.3000483,43.1456552 36.5155655,40.4192414 34.9394276,40.401233 C34.1379103,40.3923448 33.4744621,41.1642759 33.222531,41.8537241 C32.7912897,43.0335862 32.9428069,44.5362069 33.2897724,45.7169655 Z" id="Stroke-63" stroke="#444B55" stroke-width="1.2202069" fill="none" stroke-linecap="round"></path>
                <line x1="36.205269" y1="49.2890966" x2="40.1518897" y2="75.098131" id="Stroke-65" stroke="#444B55" stroke-width="1.2202069" fill="none" stroke-linecap="round"></line>
                <path d="M60.2116966,54.3611586 C60.0736276,54.0751586 58.8157655,51.3352966 58.4105241,51.8024 C57.4897655,52.8630207 56.3493517,53.9415724 55.6491448,55.1052966 C56.8514207,55.1985379 57.5740414,56.5846069 58.2464552,57.7133655 C58.798731,58.6404 59.2290759,59.9968828 59.0981793,60.0049517 C59.4550069,62.3440552 59.7266621,63.4889517 59.3303862,65.8701931 C59.1932138,66.6959172 59.1591448,67.6077103 58.3943862,67.9457103 C58.0635586,68.0918483 57.4422483,69.0780552 57.1033517,69.204469 C55.9485931,69.6357103 55.4662483,70.9626069 54.768731,71.9784 C53.4606621,73.8808828 51.4676276,74.2054345 49.4593517,74.960331 C48.6497655,75.2642621 47.8348,75.5699862 46.9893517,75.7537793 C45.4436966,76.0881931 43.8424552,76.0066069 42.262731,75.9232276 C46.4048,78.902469 51.7921793,78.0740552 55.8732828,75.4328138 C58.7942483,73.5437793 60.8876966,70.088469 61.778869,66.3014345 C62.7812138,62.038331 62.0334897,58.1311586 60.2116966,54.3611586" id="Fill-67" stroke="none" fill="#FFFFFF" fill-rule="evenodd"></path>
                <path d="M36.5835241,73.0867172 C36.3109724,72.8643724 36.2975241,72.449269 36.5503517,72.2045103 L57.667731,51.8025793 C58.151869,51.3345793 59.6535931,54.0744414 59.8194552,54.3613379 C61.9962828,58.1304414 62.8892483,62.0385103 61.6914552,66.3016138 C60.6263517,70.0886483 58.1249724,73.5430621 54.6364897,75.4329931 C50.7060069,77.5614069 44.0939379,79.2128552 36.5835241,73.0867172" id="Fill-69" stroke="none" fill="#FFFFFF" fill-rule="evenodd"></path>
                <path d="M60.2116966,54.3611586 C60.0736276,54.0751586 58.8157655,51.3352966 58.4105241,51.8024 C57.4897655,52.8630207 56.3493517,53.9415724 55.6491448,55.1052966 C56.8514207,55.1985379 57.5740414,56.5846069 58.2464552,57.7133655 C58.798731,58.6404 59.2290759,59.9968828 59.0981793,60.0049517 C59.4550069,62.3440552 59.7266621,63.4889517 59.3303862,65.8701931 C59.1932138,66.6959172 59.1591448,67.6077103 58.3943862,67.9457103 C58.0635586,68.0918483 57.4422483,69.0780552 57.1033517,69.204469 C55.9485931,69.6357103 55.4662483,70.9626069 54.768731,71.9784 C53.4606621,73.8808828 51.4676276,74.2054345 49.4593517,74.960331 C48.6497655,75.2642621 47.8348,75.5699862 46.9893517,75.7537793 C45.4436966,76.0881931 43.8424552,76.0066069 42.262731,75.9232276 C46.4048,78.902469 51.7921793,78.0740552 55.8732828,75.4328138 C58.7942483,73.5437793 60.8876966,70.088469 61.778869,66.3014345 C62.7812138,62.038331 62.0334897,58.1311586 60.2116966,54.3611586" id="Fill-71" stroke="none" fill="#F6CE7F" fill-rule="evenodd"></path>
                <path d="M36.5835241,73.0867172 C36.3109724,72.8643724 36.2975241,72.449269 36.5503517,72.2045103 L57.667731,51.8025793 C58.151869,51.3345793 59.6535931,54.0744414 59.8194552,54.3613379 C61.9962828,58.1304414 62.8892483,62.0385103 61.6914552,66.3016138 C60.6263517,70.0886483 58.1249724,73.5430621 54.6364897,75.4329931 C50.7060069,77.5614069 44.0939379,79.2128552 36.5835241,73.0867172 Z" id="Stroke-73" stroke="#444B55" stroke-width="1.2202069" fill="none" stroke-linecap="round"></path>
                <path d="M55.6072759,55.0375172 C55.6072759,55.0375172 56.7297586,56.5410345 57.5859655,58.803931 C60.2666552,65.8875862 54.3655517,73.5091724 47.3796207,73.2446897 C45.0100345,73.1550345 42.3257586,72.5866207 39.3375517,70.2564828" id="Stroke-75" stroke="#444B55" stroke-width="1.2202069" fill="none" stroke-linecap="round"></path>
                <line x1="46.7774069" y1="63.2399793" x2="46.2681655" y2="72.6519793" id="Stroke-77" stroke="#444B55" stroke-width="1.2202069" fill="none" stroke-linecap="round"></line>
                <line x1="47.2326759" y1="62.4239379" x2="57.4354345" y2="62.2266966" id="Stroke-79" stroke="#444B55" stroke-width="1.2202069" fill="none" stroke-linecap="round"></line>
                <line x1="47.6520828" y1="62.7335172" x2="54.6971862" y2="70.3210345" id="Stroke-81" stroke="#444B55" stroke-width="1.2202069" fill="none" stroke-linecap="round"></line>
                <path d="M5.99308966,38.4262966 C3.90771034,40.4444345 3.22453793,44.3802966 3.50246897,46.363469 C3.64502069,47.3846414 4.22957241,49.4996069 5.21757241,50.4427793 C5.47488276,50.689331 5.90343448,50.5252621 5.92495172,50.1684345 C5.97784828,49.2638138 6.14102069,47.7845034 6.19391724,47.5765034 C6.47095172,46.4728483 6.99095172,45.2723655 7.74136552,44.4089862 C9.27536552,42.6463655 11.926469,42.3056759 13.3573655,40.4829862" id="Fill-83" stroke="none" fill="#FFFFFF" fill-rule="evenodd"></path>
                <path d="M0.802862069,34.6050138 C0.670172414,34.9116345 0.40837931,35.3491517 0.786724138,35.5329448 C1.16237931,35.7140483 2.0132069,35.4083241 2.41306897,35.4379103 C4.12189655,35.5589448 5.79127586,35.9650828 7.48844828,36.1874276 C9.1632069,36.4070828 10.872931,36.160531 12.4723793,35.6396345 C12.8803103,35.5069448 15.3915517,34.7000483 14.4098276,33.9388759 C11.5973448,31.7584621 7.83093103,30.5821862 4.64637931,31.4007379" id="Fill-85" stroke="none" fill="#FFFFFF" fill-rule="evenodd"></path>
                <path d="M12.4326621,37.7320069 C12.4021793,36.7592483 13.0934207,35.9155931 13.8330759,35.281731 C14.5718345,34.6487655 15.420869,34.0946966 15.9121793,33.253731 C16.132731,32.8762828 16.2752828,32.4486276 16.5585931,32.1151103 C16.9781793,31.6193172 17.6380414,31.4086276 18.2602483,31.2212483 C18.5193517,31.1432483 18.7945931,31.0643517 19.0581793,31.1262138 C19.4822483,31.2248345 19.7404552,31.6444207 19.9475586,32.0281448 C21.4053517,34.7455931 22.6434897,37.5813862 23.6458345,40.497869 C24.3281103,42.483731 25.4434207,44.4525586 26.1113517,46.4429034 C26.2485241,46.8544207 26.2924552,47.4542138 25.8755586,47.5788345 C25.7061103,47.6299379 25.5250069,47.5662828 25.3582483,47.5026276 C22.7277655,46.5110414 19.9224552,45.6942828 17.4730759,44.2786276 C15.1859724,42.9562138 12.5214207,40.5938 12.4326621,37.7320069" id="Fill-87" stroke="none" fill="#FFFFFF" fill-rule="evenodd"></path>
                <path d="M21.6039379,34.7871931 C22.8160759,34.7441586 23.1540759,34.0484345 24.0300069,33.2092621 C24.9050414,32.3691931 25.7522828,31.4305034 26.8873172,31.0010552 C27.923731,30.6083655 29.0946276,30.695331 30.1525586,31.0252621 C30.8581448,31.2458138 31.5242828,31.5676759 32.1751793,31.9227103 C32.4575931,32.0769172 32.7579379,31.7541586 32.5893862,31.4798138 C31.3360069,29.447331 29.4756621,27.7259517 27.1526966,27.3431241 C25.0529724,26.9970552 22.193869,28.1267103 20.2124897,28.9040207" id="Fill-89" stroke="none" fill="#FFFFFF" fill-rule="evenodd"></path>
                <path d="M14.565469,22.7126138 C15.4620207,21.564131 16.6096069,20.6119931 17.9158828,19.9655793 C18.2736069,19.7889586 18.6205724,19.5926138 18.9720207,19.4034414 C19.1495379,19.3066138 19.3575379,19.4796483 19.2885034,19.6697172 C19.2149862,19.8714414 19.177331,20.0884069 19.1728483,20.3017862 C19.1611931,20.8128207 19.3109172,21.3122 19.437331,21.8079931 C19.6534,22.6588207 19.8049172,23.5257862 19.8891931,24.3999241 C20.0855379,26.4082 19.9205724,28.4855103 19.1199517,30.3377862" id="Fill-91" stroke="none" fill="#FFFFFF" fill-rule="evenodd"></path>
                <path d="M10.946,39.9247931 C9.90510345,40.4761724 8.92248276,41.1602414 8.0617931,41.9644483 C7.26565517,42.7085862 6.72413793,43.5531379 6.27765517,44.542931 C5.72268966,45.7721034 5.16324138,46.4481034 4.9642069,47.783069 C4.83958621,48.6204483 4.79565517,49.4918966 4.91937931,50.3346552 C5.02068966,50.4682414 5.12558621,50.5928621 5.23675862,50.6995517 C5.49496552,50.9461034 5.92351724,50.7820345 5.94503448,50.4252069 C5.99703448,49.5205862 6.1602069,48.0421724 6.21310345,47.8332759 C6.49013793,46.7296207 7.01103448,45.5291379 7.76144828,44.6666552 C9.29455172,42.9031379 11.9456552,42.5624483 13.3765517,40.7397586 L12.2567586,38.9215517 C12.0191724,39.0318276 11.1701379,39.8055517 10.946,39.9247931" id="Fill-93" stroke="none" fill="#D2B3D6" fill-rule="evenodd"></path>
                <path d="M1.33344138,35.8268345 C1.32447586,35.8142828 1.31730345,35.8008345 1.30923448,35.7891793 C4.36557931,36.8264897 6.77102759,35.4431103 10.358131,35.7273172 C11.8033724,35.8420759 13.8519931,35.1355931 14.3962,34.0310414 C14.4490966,33.9261448 14.4912345,33.8355931 14.5253034,33.7549034 C13.4906828,34.3421448 11.7504759,33.8185586 10.608269,34.1493862 C9.03302759,34.605731 6.38461379,33.7934552 4.80668276,34.0086276 C3.40626897,34.1986966 2.61551034,34.3385586 1.65082069,34.6586276 C1.58088966,34.6819379 1.50916552,34.6254552 1.43744138,34.6111103 C1.2124069,34.7294552 0.983786207,34.8495931 0.749786207,34.9733172 C0.539096552,35.0835931 0.477234483,35.2485586 0.529234483,35.3866276 C0.790131034,35.541731 1.05551034,35.6914552 1.33344138,35.8268345" id="Fill-95" stroke="none" fill="#D2B3D6" fill-rule="evenodd"></path>
                <path d="M0.818641379,35.7909724 C0.995262069,35.8250414 1.28574483,35.7981448 1.70802069,35.7560069 C3.8731931,35.5372483 5.76043448,35.6636621 7.86733103,36.0787655 C7.96953793,36.0993862 8.07084828,36.1200069 8.17305517,36.1415241 C9.99126207,36.5189724 11.4167793,36.1630414 12.9427103,35.5847655" id="Fill-97" stroke="none" fill="#F6CE7F" fill-rule="evenodd"></path>
                <path d="M19.0009793,19.6560897 L18.9902207,19.661469 C18.977669,19.6865724 18.9678069,19.7116759 18.9462897,19.7340897 C17.4149793,21.4258828 17.7574621,23.6529172 17.7547724,25.9238828 C17.7529793,27.903469 17.3172552,29.9762966 17.0742897,31.9406414 C16.9568414,32.8811241 16.1920828,33.373331 16.9344276,34.2134 C17.6211862,34.9898138 18.7580138,36.0567103 19.5792552,36.6520207 C20.6084966,37.3988483 21.2683586,38.5966414 21.8502207,39.7155379 C22.5244276,41.0128483 23.0614621,42.3765034 23.7428414,43.6702276 C24.4708414,45.0518138 25.2589103,46.3948483 26.0227724,47.751331 C26.0514621,47.7495379 26.0801517,47.7486414 26.1079448,47.7405724 C26.5069103,47.6240207 26.4549103,47.0278138 26.3159448,46.6162966 C25.6399448,44.6295379 24.5336,42.6580207 23.8441517,40.6748483 C22.8310483,37.7628483 21.5920138,34.9279517 20.1413931,32.2069172 C19.9369793,31.8222966 19.6814621,31.4018138 19.2708414,31.2960207 C19.0153241,31.231469 18.7526345,31.3049862 18.5024966,31.3785034 C18.3196,31.4322966 18.1349103,31.4923655 17.9529103,31.5587103 L19.3174621,30.5151241 C20.0598069,28.6888483 20.1871172,26.6276759 19.965669,24.6310552 C19.8697379,23.7622966 19.7092552,22.8989172 19.4869103,22.0507793 C19.3578069,21.5567793 19.2062897,21.0582966 19.2080828,20.5508483 C19.2089793,20.3401586 19.2421517,20.1240897 19.3102897,19.9259517 C19.3739448,19.7376759 19.1704276,19.5628483 19.0009793,19.6560897" id="Fill-99" stroke="none" fill="#D2B3D6" fill-rule="evenodd"></path>
                <path d="M11.5431034,28.8448483 C11.7367586,28.7605724 11.9115862,28.6494 12.038,28.4799517 L11.5431034,28.8448483 Z" id="Fill-101" stroke="none" fill="#F6CE7F" fill-rule="evenodd"></path>
                <path d="M27.4253379,29.8670966 C26.2060276,29.9558552 25.1436138,30.4937862 24.1349931,31.1554414 C23.1183034,31.8233724 22.1769241,32.5944069 21.2212,33.3448207 L21.6228552,35.0437862 C22.8358897,35.0016483 23.1738897,34.3059241 24.0489241,33.4658552 C24.9248552,32.6266828 25.7720966,31.6870966 26.9062345,31.2576483 C27.9435448,30.8649586 29.1135448,30.9519241 30.1714759,31.2827517 C30.8779586,31.5024069 31.5440966,31.8251655 32.1940966,32.1793034 C32.4783034,32.3335103 32.7786483,32.0107517 32.6083034,31.7364069 C32.4003034,31.3975103 32.1680966,31.0729586 31.9269241,30.7564759 C30.4834759,30.1844759 28.9557517,29.7550276 27.4253379,29.8670966" id="Fill-103" stroke="none" fill="#D2B3D6" fill-rule="evenodd"></path>
                <path d="M6.01236552,38.6833379 C3.92698621,40.7014759 3.24471034,44.6373379 3.52174483,46.6196138 C3.66429655,47.6407862 4.24884828,49.7566483 5.23684828,50.6998207 C5.49505517,50.9463724 5.9236069,50.7823034 5.94512414,50.4254759 C5.99712414,49.5208552 6.16029655,48.0415448 6.2131931,47.8335448 C6.49022759,46.7298897 7.01112414,45.5294069 7.76153793,44.6660276 C9.29464138,42.9034069 11.9457448,42.5627172 13.3766414,40.7400276" id="Stroke-105" stroke="#444B55" stroke-width="1.2202069" fill="none" stroke-linecap="round"></path>
                <path d="M0.823034483,34.8616069 C0.689448276,35.1682276 0.427655172,35.6057448 0.806896552,35.7895379 C1.18165517,35.9715379 2.03248276,35.6658138 2.43234483,35.6945034 C4.14117241,35.8155379 5.81144828,36.2216759 7.50772414,36.4440207 C9.18248276,36.6636759 10.8922069,36.4171241 12.4916552,35.8971241 C12.9004828,35.7635379 15.4108276,34.9566414 14.43,34.195469 C11.6166207,32.0150552 7.85110345,30.8387793 4.66655172,31.657331" id="Stroke-107" stroke="#444B55" stroke-width="1.2202069" fill="none" stroke-linecap="round"></path>
                <path d="M12.4519379,37.9889586 C12.4223517,37.0162 13.1126966,36.1725448 13.8523517,35.5386828 C14.5920069,34.9057172 15.4401448,34.3516483 15.9314552,33.5106828 C16.1529034,33.1332345 16.2945586,32.7055793 16.577869,32.3720621 C16.9983517,31.876269 17.6573172,31.6655793 18.2795241,31.4782 C18.5395241,31.4002 18.813869,31.3213034 19.0783517,31.382269 C19.5024207,31.4817862 19.759731,31.9004759 19.9668345,32.2850966 C21.4246276,35.0025448 22.6636621,37.8383379 23.6651103,40.7548207 C24.3482828,42.7406828 25.4626966,44.7095103 26.1306276,46.6989586 C26.2686966,47.1113724 26.311731,47.7111655 25.895731,47.8348897 C25.7253862,47.8859931 25.5451793,47.8223379 25.3784207,47.7595793 C22.7470414,46.7679931 19.941731,45.9512345 17.4932483,44.5355793 C15.2052483,43.2131655 12.5415931,40.8507517 12.4519379,37.9889586 Z" id="Stroke-109" stroke="#444B55" stroke-width="1.2202069" fill="none" stroke-linecap="round"></path>
                <path d="M8.69063448,30.9434966 C9.06628966,30.2728759 11.3363586,28.8276345 12.1988414,28.8401862" id="Stroke-111" stroke="#444B55" stroke-width="1.2202069" fill="none" stroke-linecap="round"></path>
                <path d="M21.6232138,35.0441448 C22.8362483,35.0011103 23.1733517,34.3053862 24.0492828,33.4662138 C24.9252138,32.6261448 25.7724552,31.6874552 26.9065931,31.2580069 C27.9439034,30.8653172 29.1139034,30.9522828 30.1718345,31.2822138 C30.8774207,31.5027655 31.5435586,31.8246276 32.1944552,32.1796621 C32.4777655,32.333869 32.7781103,32.0111103 32.6086621,31.7367655 C31.3552828,29.7042828 29.4949379,27.9829034 27.1719724,27.6000759 C25.0722483,27.2540069 22.2131448,28.3836621 20.2317655,29.1609724" id="Stroke-113" stroke="#444B55" stroke-width="1.2202069" fill="none" stroke-linecap="round"></path>
                <path d="M14.5847448,22.9695655 C15.4821931,21.8210828 16.6288828,20.8689448 17.9351586,20.222531 C18.2937793,20.0459103 18.6398483,19.8495655 18.9912966,19.6603931 C19.1697103,19.5635655 19.3768138,19.7366 19.3077793,19.926669 C19.2342621,20.1283931 19.1966069,20.3453586 19.1921241,20.5587379 C19.1813655,21.0697724 19.3301931,21.5691517 19.4566069,22.0649448 C19.6726759,22.9148759 19.8241931,23.7827379 19.9093655,24.6568759 C20.1057103,26.6651517 19.9398483,28.7424621 19.1392276,30.5947379" id="Stroke-115" stroke="#444B55" stroke-width="1.2202069" fill="none" stroke-linecap="round"></path>
                <path d="M14.1434621,34.3389172 C12.8084966,32.3306414 12.2714621,29.8140207 12.6363586,27.4336759" id="Stroke-117" stroke="#444B55" stroke-width="1.2202069" fill="none" stroke-linecap="round"></path>
                <path d="M16.1230483,31.7976414 C15.6371172,30.7800552 15.3950483,29.6495034 15.4111862,28.5216414" id="Stroke-119" stroke="#444B55" stroke-width="1.2202069" fill="none" stroke-linecap="round"></path>
                <path d="M1.77212414,33.1954552 C1.58115862,32.7678 1.77302069,32.265731 2.20067586,32.0747655 C2.62833103,31.8838 3.1304,32.0756621 3.32136552,32.5033172 C3.51143448,32.9309724 3.32046897,33.4321448 2.89281379,33.6240069 C2.46515862,33.8140759 1.96398621,33.6231103 1.77212414,33.1954552" id="Fill-121" stroke="none" fill="#444B55" fill-rule="evenodd"></path>
            </g>
        </g>
    </g>
</svg>