<?xml version="1.0" encoding="UTF-8"?>
<svg width="38px" height="38px" viewBox="0 0 38 38" version="1.1" xmlns="http://www.w3.org/2000/svg" xmlns:xlink="http://www.w3.org/1999/xlink">
    <title>Short story Placeholder</title>
    <defs>
        <rect id="path-1" x="0" y="0" width="38" height="38"></rect>
        <polygon id="path-3" points="0.344725611 0.0436041543 28.8291031 0.0436041543 28.8291031 15.8161765 0.344725611 15.8161765"></polygon>
        <polygon id="path-5" points="0 0.0869877866 1.59826223 0.0869877866 1.59826223 1.68601219 0 1.68601219"></polygon>
    </defs>
    <g id="Short-story-Placeholder" stroke="none" stroke-width="1" fill="none" fill-rule="evenodd">
        <g id="Group-10">
            <mask id="mask-2" fill="white">
                <use xlink:href="#path-1"></use>
            </mask>
            <g id="Mask"></g>
        </g>
        <g id="Group-2" transform="translate(5.000000, 1.000000)">
            <g id="Group-27" transform="translate(0.000000, 19.058824)">
                <path d="M27.73755,2.65007647 C27.7173,2.50720147 27.8073,1.80295147 27.736425,1.62070147 C27.311175,2.02120147 26.890425,2.42507647 26.476425,2.83570147 C25.612425,3.69070147 24.76305,4.55807647 23.897925,5.41082647 C23.173425,6.12520147 22.415175,6.80020147 21.6963,7.52020147 C20.644425,8.57320147 19.21905,10.3822015 17.728425,10.8367015 C17.710425,10.8457015 14.846175,11.3722015 12.5613,11.2855765 C12.526425,11.3024515 12.48705,11.3137015 12.438675,11.3137015 C11.43855,11.3125765 10.43505,11.2709515 9.434925,11.3350765 C8.5068,11.3924515 7.612425,11.5420765 6.8238,12.0618265 C6.0948,12.5422015 5.5818,13.2498265 5.060925,13.9338265 C4.790925,14.2915765 4.379175,15.1792015 4.136175,15.5628265 C4.24755,15.5718265 4.3623,15.5392015 4.44555,15.4503265 C4.84605,15.0284515 5.16105,14.7145765 5.434425,14.3669515 C5.857425,13.8325765 6.3783,13.7009515 7.04205,13.7077015 C10.20555,13.7380765 13.370175,13.7099515 16.533675,13.7268265 C18.135675,13.7358265 19.65555,13.0338265 20.7063,11.8244515 C22.820175,9.39107647 24.95205,6.97232647 27.0693,4.54120147 C27.5193,4.02482647 27.830925,3.34757647 27.73755,2.65007647" id="Fill-3" fill="#FFA3A9"></path>
                <g id="Group-7" transform="translate(0.000000, 0.518513)">
                    <mask id="mask-4" fill="white">
                        <use xlink:href="#path-3"></use>
                    </mask>
                    <g id="Clip-6"></g>
                    <path d="M4.4794125,15.816289 C4.1767875,15.816289 3.8797875,15.693664 3.6626625,15.479914 C3.3814125,15.200914 3.0911625,14.942164 2.8009125,14.684539 C2.3970375,14.325664 1.9785375,13.953289 1.5802875,13.526914 C1.2911625,13.216414 1.3080375,12.733789 1.6162875,12.444664 C1.9279125,12.157789 2.4094125,12.174664 2.6985375,12.480664 C3.0562875,12.865414 3.4376625,13.202914 3.8190375,13.541539 C4.0361625,13.735039 4.2521625,13.927414 4.4636625,14.128789 C4.7257875,13.855414 4.9462875,13.624789 5.1431625,13.375039 C5.8204125,12.517789 6.6799125,12.435664 7.3605375,12.423289 C9.1549125,12.442414 10.9481625,12.443539 12.7470375,12.437914 C14.1127875,12.436789 15.4774125,12.434539 16.8476625,12.442414 L16.8735375,12.442414 C18.2359125,12.442414 19.5330375,11.847289 20.4386625,10.804414 C21.5929125,9.47578897 22.7516625,8.15053897 23.9126625,6.82753897 C24.8767875,5.72503897 25.8409125,4.62366397 26.8027875,3.52003897 C27.1650375,3.10266397 27.3416625,2.63353897 27.2887875,2.23303897 C27.2539125,1.97203897 27.0964125,1.63003897 26.9985375,1.55578897 L26.9895375,1.55578897 C26.7780375,1.55578897 26.0917875,2.10028897 25.8645375,2.28253897 C25.7599125,2.36466397 25.6642875,2.44003897 25.5810375,2.50303897 C24.3885375,3.38728897 23.2759125,4.38628897 22.2499125,5.33353897 L21.8179125,5.72728897 C21.3071625,6.19191397 20.7784125,6.67116397 20.3430375,7.17516397 L20.2147875,7.29441397 C19.6556625,7.70166397 15.7744125,7.55203897 14.1510375,7.34616397 C14.0790375,7.34616397 14.0081625,7.34503897 13.9361625,7.34503897 L13.9361625,7.31578897 C13.6796625,7.27753897 13.5064125,7.23816397 13.4557875,7.19991397 L13.0035375,6.87141397 L13.3534125,5.81053897 L13.9485375,5.81278897 C15.1005375,5.82403897 16.2536625,5.82628897 17.4067875,5.81166397 C17.8725375,5.80716397 18.2752875,5.65641397 18.5396625,5.38416397 C18.7567875,5.16028897 18.8692875,4.86553897 18.8636625,4.53253897 C18.8501625,3.79903897 18.2786625,3.32203897 17.4056625,3.31753897 L17.0366625,3.31641397 C15.6506625,3.30853897 14.2590375,3.29953897 12.8707875,3.32091397 C11.7221625,3.36253897 10.6860375,3.18928897 9.6746625,2.85741397 C8.2335375,2.38378897 6.1185375,2.13853897 4.2375375,3.65166397 C3.2790375,4.42341397 2.6929125,5.76328897 2.1270375,7.05928897 L1.8075375,7.78153897 C1.6331625,8.16966397 1.1775375,8.33616397 0.7950375,8.16403897 C0.4091625,7.98966397 0.2392875,7.53628897 0.4125375,7.15153897 L0.7241625,6.44616397 C1.3654125,4.98141397 2.0269125,3.46603897 3.2779125,2.45916397 C5.1622875,0.941538971 7.6035375,0.568038971 10.1527875,1.40278897 C11.0111625,1.68403897 11.8785375,1.78303897 12.8449125,1.79203897 C14.2455375,1.76841397 15.6450375,1.77741397 17.0467875,1.78416397 L17.4146625,1.78641397 C19.1145375,1.79766397 20.3666625,2.94066397 20.3936625,4.50553897 C20.3970375,4.66866397 20.3857875,4.82728897 20.3621625,4.98478897 C20.5039125,4.85316397 20.6467875,4.72378897 20.7885375,4.59441397 L21.2104125,4.20853897 C22.2690375,3.23316397 23.4187875,2.20153897 24.6686625,1.27341397 L24.9127875,1.08328897 C25.5765375,0.554538971 26.5811625,-0.240836029 27.5857875,0.146163971 C28.3935375,0.458913971 28.7377875,1.51528897 28.8052875,2.02941397 C28.9200375,2.87878897 28.6174125,3.76528897 27.9559125,4.52466397 C26.9940375,5.62941397 26.0287875,6.73303897 25.0635375,7.83553897 C23.9047875,9.15853897 22.7460375,10.481539 21.5940375,11.807914 C20.3970375,13.184914 18.6791625,13.973539 16.8735375,13.973539 L16.8386625,13.973539 C15.4751625,13.965664 14.1082875,13.966789 12.7481625,13.967914 C10.9436625,13.972414 9.1459125,13.972414 7.3447875,13.955539 C6.7732875,13.912789 6.5370375,14.079289 6.3435375,14.324539 C6.1072875,14.622664 5.8429125,14.901664 5.5211625,15.238039 L5.3096625,15.458539 C5.0981625,15.683539 4.8101625,15.810664 4.4996625,15.816289 L4.4794125,15.816289 Z" id="Fill-5" fill="#444B55" mask="url(#mask-4)"></path>
                </g>
                <g id="Group-20" transform="translate(0.000000, 10.709689)">
                    <mask id="mask-6" fill="white">
                        <use xlink:href="#path-5"></use>
                    </mask>
                    <g id="Clip-19"></g>
                    <path d="M0.766125,1.68525 C0.324,1.666125 -0.018,1.29375 -2.16840434e-19,0.85275 C0.019125,0.41175 0.3915,0.068625 0.833625,0.08775 C1.2735,0.106875 1.616625,0.47925 1.5975,0.919125 C1.580625,1.36125 1.207125,1.704375 0.766125,1.68525" id="Fill-18" fill="#444B55" mask="url(#mask-6)"></path>
                </g>
            </g>
            <g id="Group" transform="translate(5.625000, 0.000000)">
                <path d="M16.3016066,6.78843478 C16.4422316,6.65568478 16.3691066,6.41830978 16.1778566,6.38793478 L11.2019816,5.58468478 C11.1254816,5.57118478 11.0602316,5.52280978 11.0276066,5.45305978 L9.10610663,1.40080978 C9.10498163,2.25918478 7.47373163,3.12543478 7.59860663,3.97480978 C7.72573163,4.84105978 8.01823163,5.63418478 8.35348163,6.43743478 C8.86985663,7.67043478 9.08585663,8.91805978 8.70898163,10.2253098 C8.38048163,11.3626848 7.72123163,12.3729348 6.97085663,13.2785598 L12.9963566,15.6770598 C13.1673566,15.7704348 13.3709816,15.6275598 13.3406066,15.4363098 L12.5666066,10.4559348 C12.5542316,10.3783098 12.5801066,10.3018098 12.6363566,10.2489348 L16.3016066,6.78843478 Z" id="Fill-3" fill="#F6CE7F"></path>
                <path d="M13.1102066,16.4734473 C12.9448316,16.4734473 12.7805816,16.4306973 12.6287066,16.3485723 L8.45045663,14.0681973 L4.20245663,16.2169473 C3.86045663,16.3890723 3.45770663,16.3553223 3.15058163,16.1235723 C2.84345663,15.8929473 2.69833163,15.5149473 2.76920663,15.1380723 L3.64783163,10.4614473 L0.290831627,7.08532228 C0.0208316265,6.81194728 -0.0691683735,6.41707228 0.0545816265,6.05594728 C0.178331627,5.69369728 0.491081627,5.43944728 0.869081627,5.38882228 L1.98170663,5.24482228 C2.40245663,5.18182228 2.78495663,5.48557228 2.83895663,5.90519728 C2.89408163,6.32482228 2.59820663,6.70844728 2.17858163,6.76357228 L2.13470663,6.76919728 L4.93033163,9.58057228 C5.16208163,9.81457228 5.26445663,10.1464473 5.20370663,10.4704473 L4.47245663,14.3651973 L8.00945663,12.5753223 C8.30983163,12.4279473 8.65633163,12.4335723 8.94320663,12.5921973 L12.4194566,14.4900723 L11.8108316,10.5728223 C11.7590816,10.2488223 11.8704566,9.91807228 12.1123316,9.69194728 L14.9923316,6.97057228 L11.0795816,6.34057228 C10.7499566,6.28319728 10.4754566,6.07394728 10.3359566,5.78257228 L8.63720663,2.19944728 L6.82820663,5.72632228 C6.67633163,6.01994728 6.39170663,6.21794728 6.06658163,6.26069728 L5.36345663,6.35182228 C4.94270663,6.40357228 4.56020663,6.11219728 4.50508163,5.69257228 C4.45108163,5.27182228 4.74695663,4.88932228 5.16658163,4.83419728 L5.59408163,4.77907228 L7.76645663,0.542322285 C7.94420663,0.201447285 8.28958163,-0.00442771501 8.67320663,7.10542736e-14 C9.05570663,0.00569728499 9.39545663,0.223947285 9.55970663,0.570447285 L11.5993316,4.87357228 L16.2995816,5.63182228 C16.6787066,5.69369728 16.9835816,5.95919728 17.0960816,6.32594728 C17.2074566,6.69269728 17.1039566,7.08419728 16.8249566,7.34632228 L13.3644566,10.6144473 L14.0968316,15.3180723 C14.1564566,15.6983223 13.9967066,16.0706973 13.6828316,16.2900723 C13.5095816,16.4115723 13.3115816,16.4734473 13.1102066,16.4734473 L13.1102066,16.4734473 Z" id="Fill-16" fill="#444B55"></path>
            </g>
        </g>
    </g>
</svg>