<svg xmlns="http://www.w3.org/2000/svg" width="24" height="24" viewBox="0 0 24 24">
    <g fill="none" fill-rule="evenodd">
        <g>
            <g>
                <g>
                    <path fill="#F7F5F6" d="M0 0H24V24H0z" transform="translate(-22 -429) translate(16 314) translate(6 115)"/>
                    <g>
                        <path fill="#2D2D2D" d="M11.907 12.157l-.09 1.913c0 .198-.045.373-.134.527l-1.077 1.935c-.045.066-.067.154-.067.22v1.473h-5V17.19c0-.088-.023-.175-.09-.263L1.86 11.652c-.09-.132-.112-.287-.09-.44.023-.066.068-.22.225-.308.09-.044.269-.154.785.242l.83.703c.134.132.223.308.223.484v.308c0 .263.225.483.494.483s.493-.22.493-.483V5.386c0-.132.067-.264.157-.374.112-.088.247-.154.381-.132.27.022.494.264.494.55V10.442c0 .264.224.484.493.484s.493-.22.493-.484V8.244c0-.132.067-.264.157-.374.09-.088.247-.154.381-.132.27.022.494.264.494.55v2.176c0 .264.224.484.493.484.27 0 .493-.22.493-.484v-1.67c0-.132.068-.264.157-.374.112-.088.247-.132.381-.132.27.022.494.264.494.55v2.242c0 .264.224.484.493.484.27 0 .493-.22.493-.484V9.65c0-.132.068-.264.157-.374.112-.088.247-.132.382-.132.269.022.493.264.493.55v2.462zm-.516-3.935c-.247-.022-.47.022-.673.11-.201-.55-.695-.967-1.323-.99-.291-.021-.56.045-.807.176-.246-.417-.695-.703-1.188-.747-.202-.022-.404.022-.583.088v-1.43c0-.812-.628-1.472-1.413-1.516-.404-.022-.807.11-1.099.396-.291.264-.47.66-.47 1.055v5.408l-.427-.374c-.695-.55-1.323-.66-1.883-.352-.337.199-.583.528-.673.924-.09.395-.022.835.224 1.187l3.498 5.166v1.363c0 .264.225.484.494.484h5.987c.269 0 .493-.22.493-.484v-1.825l1.01-1.824c.179-.308.246-.638.246-.99v-4.33c0-.791-.628-1.451-1.413-1.495z" transform="translate(-22 -429) translate(16 314) translate(6 115) translate(5 2)"/>
                        <path fill="#FF1744" d="M5.27 2.792c.246 0 .448-.198.448-.418V.44c0-.242-.202-.44-.448-.44-.247 0-.449.198-.449.44v1.912c0 .242.202.44.449.44M7.265 3.385c.112 0 .224-.043.314-.131L8.97 1.89c.18-.176.18-.44 0-.616-.179-.176-.448-.176-.627 0l-1.39 1.363c-.18.176-.18.44 0 .616.089.088.201.131.313.131M2.96 3.254c.09.087.202.132.314.132.112 0 .224-.045.314-.132.18-.176.18-.44 0-.616l-1.39-1.363c-.18-.176-.449-.176-.628 0-.18.176-.18.44 0 .616l1.39 1.363zM2.87 4.683c0-.242-.202-.44-.448-.44H.449c-.247 0-.449.198-.449.44 0 .241.202.44.449.44h1.973c.246 0 .448-.199.448-.44M7.624 4.683c0 .241.202.44.449.44h1.973c.246 0 .448-.199.448-.44 0-.242-.202-.44-.448-.44H8.073c-.247 0-.449.198-.449.44" transform="translate(-22 -429) translate(16 314) translate(6 115) translate(5 2)"/>
                    </g>
                </g>
            </g>
        </g>
    </g>
</svg>
