<svg xmlns="http://www.w3.org/2000/svg" width="24" height="24" viewBox="0 0 24 24">
    <g fill="none" fill-rule="evenodd">
        <g>
            <g>
                <g>
                    <path fill="#F7F5F6" d="M0 0H24V24H0z" transform="translate(-22 -589) translate(16 314) translate(6 275)"/>
                    <g>
                        <g fill="#2D2D2D" fill-rule="nonzero" transform="translate(-22 -589) translate(16 314) translate(6 275) translate(4 3) translate(0 4.571)">
                            <path d="M14.4.203h-2.35v.89h2.35c.393 0 .71.318.711.71v6.311c0 .393-.318.711-.711.711H1.6c-.393 0-.71-.318-.711-.71V1.802c0-.392.318-.71.711-.71h2.35v-.89H1.6C.717.204.001.92 0 1.803v6.311c.001.884.717 1.6 1.6 1.6h12.8c.883 0 1.599-.716 1.6-1.6v-6.31c-.001-.884-.717-1.6-1.6-1.6z"/>
                            <rect width="11.378" height="1" x="2.311" y="3.492" rx=".444"/>
                        </g>
                        <g transform="translate(-22 -589) translate(16 314) translate(6 275) translate(4 3) translate(4.571)">
                            <circle cx="3.429" cy="3.429" r="3.095" stroke="#FF1744" stroke-width=".667"/>
                            <path fill="#FF1744" fill-rule="nonzero" d="M4.315 5.486L3.31 4.108c-.116-.164-.198-.261-.256-.302.261-.046.469-.149.633-.308.135-.133.218-.302.242-.507h.55l.083-.256h-.628c-.025-.271-.13-.486-.315-.65h.87l.082-.256H2.373l-.082.256h.444c.251 0 .45.066.595.2.115.112.183.26.207.45h-1.17l-.081.256h1.246c-.029.16-.101.287-.227.384-.164.128-.406.195-.725.195h-.26v.292c.125 0 .236.036.333.102.077.057.164.149.256.282l.87 1.24h.536z"/>
                        </g>
                    </g>
                </g>
            </g>
        </g>
    </g>
</svg>
