<svg xmlns="http://www.w3.org/2000/svg" xmlns:xlink="http://www.w3.org/1999/xlink" width="24" height="24" viewBox="0 0 24 24">
    <defs>
        <path id="kshy2tm5qa" d="M0.024 0.022L12.17 0.022 12.17 2.441 0.024 2.441z"/>
    </defs>
    <g fill="none" fill-rule="evenodd">
        <g>
            <g>
                <path fill="#F7F5F6" d="M0 0H24V24H0z" transform="translate(-22 -507) translate(22 507)"/>
                <g>
                    <g transform="translate(-22 -507) translate(22 507) translate(4 2) translate(1.913 16.23)">
                        <mask id="lndd6ex2eb" fill="#fff">
                            <use xlink:href="#kshy2tm5qa"/>
                        </mask>
                        <path fill="#5C5456" stroke="#FFF" stroke-width=".1" d="M8.197.053c.046.015.092.033.136.05l3.309 1.347c.151.061.308.127.418.248.258.286.029.716-.335.726-.174.005-.341-.063-.502-.13L8.568 1.195c-.059-.024-.12-.048-.183-.038-.094.017-.154.106-.208.185-.462.673-1.265 1.097-2.081 1.1-.816.001-1.621-.42-2.085-1.09-.052-.076-.106-.158-.193-.187-.089-.029-.184.008-.27.045-.835.357-1.672.706-2.512 1.048-.178.073-.362.146-.554.139C.291 2.39.09 2.28.037 2.096c-.046-.16.034-.335.156-.45.122-.113.28-.178.435-.24L3.799.117c.187-.076.41-.15.58-.043.148.092.195.279.258.44.226.584.828 1 1.454 1.007.625.006 1.236-.398 1.474-.976.08-.196.148-.436.348-.505.092-.032.19-.017.284.012" mask="url(#lndd6ex2eb)"/>
                    </g>
                    <path fill="#5C5456" d="M12.033 8.495l-.058.484c-.02-.01-.043-.018-.066-.023-5.018-1.119-8.04-3.045-7.812-3.71.62-1.803 2.614-2.633 4.484-2.29 1.87.342 3.4 2.055 3.535 3.956.038.528-.021 1.057-.083 1.583M8.286 2.02C6.13 1.82 3.803 3.077 3.04 5.11c-.471 1.259.99 2.13 4.225 3.51C10.5 10 11.834 9.81 11.86 9.805c-.096.611-.22 1.216-.408 1.804-.323 1.007-.847 1.972-1.641 2.668-.557.488-1.264.838-2.003.84-1.182.005-2.207-.868-2.833-1.874-.121-.196-.24-.405-.432-.529-.193-.123-.49-.122-.617.069-.139.207-.007.484.13.693.845 1.281 2.102 2.472 3.633 2.522 1.052.035 2.08-.474 2.817-1.227 2.935-2.999 2.56-7.881 2.36-8.738-.497-2.113-2.426-3.809-4.581-4.012z" transform="translate(-22 -507) translate(22 507) translate(4 2)"/>
                    <path fill="#DA1C5C" stroke="#FFF" stroke-width=".1" d="M2.194 7.216c.052-.011.082.004.092.062.022.132.05.263.074.396.043.234.085.469.126.704l.11.648.12.655.11.616.124.696c.022.127.04.255.065.38.017.082-.02.115-.091.12-.094.008-.184.035-.276.048-.171.025-.34.055-.51.09-.214.042-.482-.115-.572-.32-.044-.099-.062-.204-.08-.308-.074-.396-.134-.795-.207-1.191-.064-.345-.127-.69-.184-1.036-.04-.238-.088-.475-.13-.712-.009-.046-.01-.093-.013-.14-.002-.315.2-.535.514-.578.22-.03.437-.079.655-.119.024-.004.049-.006.073-.011M3.48 8.372l-.07-.133c.03.044.05.089.07.133m12.438-.91c-.105-.398-.4-.74-.778-.903-.092-.04-.192-.072-.26-.147-.079-.089-.092-.217-.105-.336-.234-2.195-1.609-4.238-3.555-5.282C9.274-.25 6.813-.266 4.854.753 2.894 1.77 1.494 3.796 1.23 5.988c-.02.162-.039.338-.153.455-.085.088-.21.125-.322.176-.347.157-.616.477-.71.846-.089.346-.029.71.031 1.062l.392 2.296c.078.455.168.936.477 1.278.298.328.758.471 1.2.48.444.007.88-.106 1.308-.218.214-.056.457-.136.54-.341.049-.122.027-.26.004-.39L3.396 8.19l-.25-1.43c-.028-.161-.062-.333-.176-.451-.199-.205-.534-.152-.811-.084.193-1.911 1.39-3.692 3.085-4.594 1.696-.902 3.841-.9 5.534.008 1.693.908 2.883 2.692 3.07 4.604.042.264.065.594.07.968.163.024.326.05.489.08.217.04.453.099.58.278.136.192.1.45.057.681l-.005.027-.379 2.076c-.053.293-.049.748-.185 1.01-.118.23-.462.29-.699.28-.125-.005-.247-.027-.368-.058-.076.324-.16.64-.254.941.508.129 1.061.075 1.536-.145.254-.118.463-.22.537-.498.1-.372.19-.747.274-1.124.167-.745.305-1.497.414-2.253.05-.346.093-.705.003-1.044" transform="translate(-22 -507) translate(22 507) translate(4 2)"/>
                </g>
            </g>
        </g>
    </g>
</svg>