<svg xmlns="http://www.w3.org/2000/svg" width="24" height="24" viewBox="0 0 24 24">
    <g fill="none" fill-rule="evenodd">
        <g>
            <g>
                <g>
                    <path fill="#F7F5F6" d="M0 0H24V24H0z" transform="translate(-22 -364) translate(16 314) translate(6 50)"/>
                    <path fill="#FF1744" d="M18.87 5.046c2.191 0 3.967 1.776 3.967 3.967s-1.776 3.968-3.967 3.968-3.967-1.777-3.967-3.968c0-2.19 1.776-3.967 3.967-3.967zm0 .782c-1.775 0-3.214 1.426-3.214 3.185 0 1.76 1.439 3.186 3.214 3.186s3.214-1.426 3.214-3.186c0-1.759-1.439-3.185-3.214-3.185z" transform="translate(-22 -364) translate(16 314) translate(6 50) rotate(6 18.87 9.013)"/>
                    <path fill="#FFF" d="M12.876 4.858L18.998 11.389 16.141 17.919 12.876 17.919z" transform="translate(-22 -364) translate(16 314) translate(6 50) rotate(-18 15.937 11.389)"/>
                    <path fill="#FF1744" d="M14.545 7.365L16.549 8.618 14.617 9.416z" transform="translate(-22 -364) translate(16 314) translate(6 50) rotate(-14 15.547 8.39)"/>
                    <g stroke="#2D2D2D" stroke-linecap="round" stroke-linejoin="round" stroke-width=".827">
                        <path d="M13.515 13.875L8.974 13.875M13.65 15.742H8.84c-.241 0-.436-.195-.436-.436V6.824c0-.241.195-.436.436-.436H13.649c.241 0 .436.195.436.436v8.482c0 .24-.195.436-.436.436z" transform="translate(-22 -364) translate(16 314) translate(6 50) translate(3 4.463)"/>
                        <path d="M11.396 14.817c0-.084-.068-.152-.152-.152-.083 0-.151.068-.151.152 0 .083.068.151.151.151.084 0 .152-.068.152-.151zM10.681 7.334L11.244 7.334 11.807 7.334M9.428 6.326l-1.58-2.125H3.375L1.13 7.22C.414 8.182-.003 9.346 0 10.546c.004 1.855.976 4.081 5.611 4.081 1.863 0 2.622-.036 2.622-.036M7.931 2.997h-4.64c-.214 0-.39.233-.39.519v.162c0 .285.176.519.39.519h4.64c.215 0 .39-.234.39-.52v-.161c0-.286-.175-.52-.39-.52z" transform="translate(-22 -364) translate(16 314) translate(6 50) translate(3 4.463)"/>
                        <path d="M7.168 1.04l-.436.436-.19-.192c-.5-.5-1.31-.5-1.81 0l-.19.192-.436-.436C3.7.636 3.046.636 2.64 1.04l-.539.54 1.503 1.456h4.064L9.172 1.58l-.54-.54c-.404-.404-1.06-.404-1.464 0z" transform="translate(-22 -364) translate(16 314) translate(6 50) translate(3 4.463)"/>
                    </g>
                </g>
            </g>
        </g>
    </g>
</svg>
