<svg xmlns="http://www.w3.org/2000/svg" width="24" height="24" viewBox="0 0 24 24">
    <g fill="none" fill-rule="evenodd">
        <g>
            <g>
                <g>
                    <path fill="#F7F5F6" d="M0 0H24V24H0z" transform="translate(-906 -440) translate(902 394) translate(4 46)"/>
                    <g fill-rule="nonzero">
                        <g stroke="#DA1C5C" stroke-linejoin="round" stroke-width=".606">
                            <path d="M11.089 6.956V1.643h0L6.16 3.286v6.57l3.735-1.244c.713-.238 1.194-.905 1.194-1.656z" transform="translate(-906 -440) translate(902 394) translate(4 46) translate(3 3) translate(3.422 3.993)"/>
                            <path fill="#FFF" d="M12.048 3.234l-.94-1.591h0L6.26 3.286l1.032 1.748c.105.178.32.258.516.191l4.004-1.356c.228-.078.35-.325.273-.554-.01-.028-.022-.056-.037-.081z" transform="translate(-906 -440) translate(902 394) translate(4 46) translate(3 3) translate(3.422 3.993)"/>
                            <path d="M6.16 6.956V1.643h0L1.232 3.286v6.57l3.735-1.244c.713-.238 1.193-.905 1.193-1.656z" transform="translate(-906 -440) translate(902 394) translate(4 46) translate(3 3) translate(3.422 3.993) matrix(-1 0 0 1 7.393 0)"/>
                            <path fill="#FFF" d="M5.787 3.234l-.939-1.591h0L0 3.286l1.032 1.748c.105.178.32.258.516.191L5.552 3.87c.228-.078.35-.325.273-.554-.01-.028-.022-.056-.038-.081z" transform="translate(-906 -440) translate(902 394) translate(4 46) translate(3 3) translate(3.422 3.993) matrix(-1 0 0 1 6.06 0)"/>
                            <path d="M1.232 1.643L5.057.368c.716-.239 1.49-.239 2.207 0l3.825 1.275h0L6.16 3.286 1.232 1.643z" transform="translate(-906 -440) translate(902 394) translate(4 46) translate(3 3) translate(3.422 3.993)"/>
                        </g>
                        <path fill="#5C5456" d="M1.325 9.508l.075.044 1.264.946c.175.13.21.378.08.552-.114.152-.318.199-.484.12l-.068-.04-.329-.245c.934 3.448 4.12 5.934 7.838 5.934 3.768 0 7.014-2.558 7.887-6.125.052-.211.265-.34.476-.29.212.053.341.266.29.478-.96 3.919-4.522 6.725-8.653 6.725-4.152 0-7.7-2.829-8.653-6.726l-.31.557c-.106.19-.346.258-.536.152-.166-.093-.24-.288-.184-.463l.032-.073.77-1.379c.102-.182.324-.249.505-.167zM9.701 0c4.184 0 7.752 2.872 8.673 6.81l.282-.504c.106-.19.346-.258.536-.152.166.093.24.288.184.463l-.032.073-.77 1.379c-.102.182-.324.249-.505.167l-.075-.044-1.264-.946c-.175-.13-.21-.378-.08-.552.114-.152.318-.199.484-.12l.068.04.383.285C16.714 3.362 13.485.79 9.7.79c-3.793 0-7.054 2.59-7.903 6.189-.05.212-.262.343-.474.293-.212-.05-.343-.262-.293-.474C1.963 2.843 5.542 0 9.701 0z" transform="translate(-906 -440) translate(902 394) translate(4 46) translate(3 3)"/>
                    </g>
                </g>
            </g>
        </g>
    </g>
</svg>
