<svg xmlns="http://www.w3.org/2000/svg" xmlns:xlink="http://www.w3.org/1999/xlink" width="22" height="22" viewBox="0 0 22 22">
    <defs>
        <path id="a" d="M0 .08h15.918v12.582H0z"/>
    </defs>
    <g fill="none" fill-rule="evenodd">
        <path fill="#FFF" d="M0 0h21.224v21.224H0z"/>
        <g transform="translate(2.653 5.851)">
            <mask id="b" fill="#fff">
                <use xlink:href="#a"/>
            </mask>
            <path fill="#212121" d="M12.033 5.732a.368.368 0 0 0-.337.367v.639a.37.37 0 0 0 .373.367.371.371 0 0 0 .385-.357V6.1a.37.37 0 0 0-.42-.367zM11.3 5.46h3.86v1.917h-3.854-.006c-.003-.004-.006-.018-.006-.051v-1.82c0-.054.022-.046.006-.046zM1.925.808H3.352l-1.155 1h-.48c-.276 0-.524-.07-.687-.169-.162-.098-.23-.21-.242-.3v-.005a.652.652 0 0 1 .26-.294c.206-.135.519-.234.877-.232zM13.063.803l1.493.005c.227.001.349.07.444.176a.71.71 0 0 1 .16.48v3.273h-3.861a.77.77 0 0 0-.764.769v1.82c0 .4.324.774.764.774h3.86v2.397c0 .233-.074.334-.218.43a1.016 1.016 0 0 1-.367.13V8.964a.37.37 0 0 0-.374-.367.371.371 0 0 0-.384.357V11.328c0 .378-.307.61-.61.61H1.866c-.341 0-.642-.093-.836-.22-.193-.127-.266-.267-.266-.396L.758 2.323c.278.138.607.21.96.21l11.642-.006c.154 0 .232.052.313.158a.775.775 0 0 1 .143.452v.577a.37.37 0 0 0 .373.367.371.371 0 0 0 .385-.357v-.587c0-.311-.091-.624-.29-.882a1.18 1.18 0 0 0-.693-.423l-.528-1.03zM4.181.085H1.93C1.43.08.97.213.615.446.26.68 0 1.041 0 1.464l.006 9.864c.001.41.256.759.598.983.342.225.781.351 1.261.351h11.34c.561 0 1.078-.346 1.28-.86.317-.024.627-.109.888-.282.32-.212.545-.587.545-1.023V1.464c0-.35-.108-.693-.344-.955-.235-.263-.604-.423-1.018-.424L12.691.079 4.18.085z" mask="url(#b)"/>
        </g>
        <path fill="#FF1744" d="M4.85 7.66l5.586-4.865a.589.589 0 0 1 .79.02l5.018 4.868L4.85 7.66z"/>
        <path fill="#FF1744" d="M4.85 7.66l8.705-4.002a.582.582 0 0 1 .76.251l1.929 3.774L4.85 7.66z"/>
    </g>
</svg>
