<svg xmlns="http://www.w3.org/2000/svg" width="22" height="22" viewBox="0 0 22 22">
    <g fill="none" fill-rule="evenodd">
        <path fill="#FFF" d="M0 0h21.224v21.224H0z"/>
        <g fill-rule="nonzero">
            <path fill="#FF1744" d="M12.701 8.243a.402.402 0 0 0-.401-.402H7.427a.402.402 0 0 0 0 .804H9.4c.578 0 1.066.391 1.215.923h-3.19a.402.402 0 0 0 0 .804h3.148c-.185.468-.64.8-1.173.8H7.427a.402.402 0 0 0-.277.693l3.269 3.104a.4.4 0 0 0 .568-.014.402.402 0 0 0-.015-.568l-2.539-2.411h.968c.98 0 1.8-.687 2.012-1.604h.887a.402.402 0 0 0 0-.803h-.863a2.055 2.055 0 0 0-.404-.924H12.3c.221 0 .401-.18.401-.402z"/>
            <path fill="#4A4A4A" d="M16.694 7.543a.402.402 0 0 0-.402.402v7.836a1.61 1.61 0 0 1-1.607 1.607H5.443a1.61 1.61 0 0 1-1.607-1.607V6.137A1.61 1.61 0 0 1 5.443 4.53h7.233a.402.402 0 0 0 0-.804H5.443a2.414 2.414 0 0 0-2.411 2.411v9.644a2.414 2.414 0 0 0 2.41 2.41h9.243a2.414 2.414 0 0 0 2.411-2.41V7.945a.402.402 0 0 0-.402-.402z"/>
            <path fill="#FF1744" d="M19.105 3.726h-2.009V1.918a.402.402 0 0 0-.804 0v1.808h-1.984a.402.402 0 0 0 0 .804h1.984v1.808a.402.402 0 0 0 .804 0V4.53h2.01a.402.402 0 0 0 0-.804z"/>
        </g>
    </g>
</svg>
