<svg xmlns="http://www.w3.org/2000/svg" width="16" height="16" viewBox="0 0 16 16">
    <g fill="#FFF">
        <path d="M14.302 8.584c.115.2.23.402.346.601.075.132.152.262.227.393.043.077.091.152.126.233l-.05-.12c.022.057.037.114.045.174l-.018-.133c.006.058.006.116-.002.174l.018-.133c-.008.058-.023.113-.045.168l.05-.12c-.005.014-.058.137-.073.135-.005-.001.075-.09.045-.056l-.03.033c-.018.018-.098.085-.025.028.072-.055-.007.002-.03.015l-.025.014-.263.151-.746.43c-.11.063-.211.126-.31.211-.25.215-.384.55-.389.876-.003.21 0 .421 0 .63v.492c0 .093.005.188-.007.28l.019-.133c-.009.058-.024.114-.045.17l.05-.12c-.017.04-.039.076-.06.114-.039.065.073-.08.033-.041l-.043.046-.04.037c-.06.057.105-.067.033-.027-.038.022-.073.044-.115.06l.12-.05c-.055.022-.112.037-.17.045l.133-.018c-.211.025-.434.007-.647.007-.247 0-.491-.002-.738 0-.46.001-.842.248-1.069.64l-.406.705c-.067.115-.131.23-.198.343-.015.025-.028.051-.045.076-.055.087.078-.086.008-.01-.02.022-.043.042-.065.062-.031.03.057-.05.057-.045 0 .003-.04.027-.047.03-.028.017-.058.032-.088.043l.12-.05c-.055.022-.11.037-.168.045l.133-.018c-.058.007-.117.007-.175.002l.133.018c-.06-.008-.116-.023-.173-.045l.12.05c-.18-.077-.35-.195-.52-.291l-.654-.377c-.156-.09-.318-.151-.497-.176-.265-.035-.525.023-.758.155-.198.113-.395.226-.591.34-.203.116-.405.256-.62.349l.12-.05c-.056.022-.113.037-.173.045l.133-.018c-.058.006-.116.006-.174-.002l.133.018c-.058-.008-.113-.023-.168-.045l.12.05c-.014-.005-.137-.058-.135-.073.001-.005.09.075.056.045l-.033-.03c-.018-.018-.085-.098-.028-.025.055.072-.002-.007-.015-.03l-.014-.025-.151-.263-.43-.744c-.063-.11-.126-.212-.211-.31-.215-.25-.55-.384-.876-.39-.21-.003-.421 0-.63 0h-.492c-.093 0-.188.006-.28-.006l.133.018c-.058-.008-.114-.023-.17-.045l.12.05c-.04-.016-.076-.038-.114-.06-.065-.038.08.074.041.034l-.046-.044c-.014-.013-.024-.026-.037-.04-.057-.06.067.105.027.034-.022-.039-.044-.074-.06-.115l.05.12c-.022-.055-.037-.112-.045-.17l.018.133c-.025-.211-.007-.434-.007-.648 0-.246.002-.49 0-.737-.001-.46-.248-.843-.64-1.069l-.705-.406L1.147 10c-.025-.015-.051-.029-.076-.045-.087-.055.086.078.01.008-.022-.02-.042-.043-.062-.065-.03-.032.05.057.045.057-.003 0-.027-.04-.03-.047-.017-.028-.032-.058-.043-.088l.05.12c-.022-.055-.037-.11-.045-.169l.018.134c-.007-.059-.007-.117-.002-.175l-.018.133c.008-.06.023-.116.045-.173l-.05.12c.077-.18.195-.35.291-.52l.377-.654c.09-.156.151-.318.176-.498.035-.265-.023-.524-.155-.757-.113-.198-.226-.395-.34-.591-.116-.204-.256-.405-.349-.62l.05.12c-.022-.056-.037-.113-.045-.173l.018.133c-.006-.058-.006-.116.002-.175l-.018.134c.008-.059.023-.114.045-.169l-.05.12c.005-.013.058-.136.073-.135.005.002-.075.09-.045.057l.03-.033c.018-.019.098-.085.025-.029-.072.055.007-.001.03-.015.008-.005.016-.01.025-.013.088-.052.176-.101.263-.151l.744-.43c.11-.063.212-.127.31-.211.25-.215.384-.55.39-.876.003-.21 0-.421 0-.631v-.491c0-.094-.006-.188.006-.28l-.018.133c.008-.058.023-.115.045-.17l-.05.12c.016-.04.038-.076.06-.115.038-.065-.074.08-.034.042l.044-.047.04-.036c.06-.057-.105.066-.034.026.039-.021.074-.043.115-.06l-.12.05c.055-.021.112-.036.17-.045l-.133.019c.211-.025.434-.007.648-.007.246 0 .49.002.737 0 .46-.002.843-.248 1.07-.64.134-.236.269-.47.405-.705l.198-.343c.015-.025.029-.052.045-.077.055-.086-.078.087-.008.01.02-.021.043-.041.065-.061.032-.03-.057.05-.057.045 0-.004.04-.027.047-.03.028-.017.058-.032.088-.044l-.12.05c.055-.021.11-.036.169-.045l-.134.019c.059-.007.117-.007.175-.002L6.122.99c.06.008.117.023.173.045l-.12-.05c.18.076.35.194.52.291l.654.376c.157.09.318.152.498.177.265.035.524-.024.757-.155l.591-.34c.204-.116.405-.256.62-.35l-.12.05c.057-.021.113-.036.173-.044l-.133.018c.058-.007.116-.007.175.002L9.776.992c.059.009.114.024.169.045l-.12-.05c.013.005.136.059.135.074-.002.005-.09-.075-.057-.045l.033.03c.019.018.085.098.029.025-.055-.072.001.006.015.03.005.008.01.016.013.024l.151.264.43.744c.063.11.127.211.211.31.215.25.55.384.876.389.21.003.421 0 .631 0h.491c.094 0 .188-.005.28.007l-.133-.019c.058.009.115.024.17.045l-.12-.05c.04.017.076.039.115.06.065.039-.08-.073-.042-.033l.047.043.036.04c.057.06-.066-.105-.026-.033.021.038.043.073.06.115l-.05-.12c.021.055.036.112.045.17l-.019-.133c.025.211.007.434.007.647 0 .247-.002.491 0 .738.002.46.248.842.641 1.069l.704.406.343.198c.025.015.052.028.077.045.086.055-.087-.078-.01-.008.021.02.041.043.061.065.03.031-.05-.057-.045-.057.004 0 .027.04.03.047.017.028.032.058.044.088l-.05-.12c.021.055.036.11.045.168l-.019-.133c.007.058.007.117.002.175l.018-.133c-.008.06-.023.116-.045.173l.05-.12c-.088.208-.224.403-.336.598-.12.208-.243.416-.36.626-.208.374-.208.812-.001 1.188.126.23.461.323.682.18.233-.15.313-.438.18-.682-.013-.025-.025-.049-.036-.075l.05.12c-.024-.06-.04-.12-.049-.185l.019.133c-.005-.055-.005-.108 0-.163l-.019.133c.009-.065.025-.125.049-.185l-.05.12c.096-.216.236-.42.353-.624.113-.198.23-.395.34-.593.319-.571.126-1.29-.44-1.622-.225-.131-.452-.26-.676-.39-.132-.074-.262-.15-.393-.226l-.067-.038c-.02-.012-.1-.07-.03-.015.073.057-.02-.025-.036-.042-.027-.026-.035-.068.033.047-.008-.013-.018-.027-.027-.038-.021-.034-.038-.069-.053-.105l.05.12c-.02-.052-.035-.105-.043-.16l.018.133c-.028-.221-.007-.456-.007-.678 0-.24.002-.48 0-.72-.003-.299-.108-.56-.296-.788-.207-.25-.523-.38-.84-.4-.217-.015-.44-.001-.66-.001h-.495c-.098 0-.2.005-.298-.007l.133.018c-.054-.008-.108-.023-.16-.043l.12.05c-.028-.012-.056-.025-.084-.042-.02-.011-.102-.071-.027-.013.072.055-.003-.007-.02-.023-.002-.002-.032-.028-.032-.035.002.013.077.108.029.033-.015-.023-.029-.046-.042-.071l-.178-.31-.431-.748c-.105-.181-.238-.333-.413-.45-.275-.184-.646-.236-.963-.142-.263.078-.509.253-.745.39L8.28.715c-.09.052-.178.108-.273.151l.12-.05c-.06.024-.12.04-.185.049l.133-.019c-.055.005-.108.005-.163 0l.133.019C7.98.857 7.92.84 7.86.817l.12.05C7.764.771 7.56.631 7.356.513 7.156.39 6.959.273 6.76.16 6.189-.157 5.468.037 5.138.603c-.132.224-.26.45-.39.676l-.226.393-.038.066c-.012.02-.07.1-.015.03.056-.073-.025.02-.042.037-.027.026-.068.035.047-.034l-.039.027c-.033.022-.068.038-.105.053l.12-.05c-.051.02-.105.035-.16.044l.134-.019c-.222.029-.456.007-.678.007-.24 0-.481-.002-.72 0-.299.003-.56.108-.788.296-.25.207-.38.523-.4.84-.015.218-.002.44-.002.66v.495c0 .098.005.2-.006.298l.018-.133c-.008.055-.023.108-.043.16l.05-.12c-.012.028-.025.056-.042.085-.012.02-.071.101-.013.026.055-.071-.007.004-.024.02-.001.002-.028.032-.034.032.013-.002.108-.077.033-.028-.023.015-.047.028-.072.041l-.31.178-.747.432c-.181.105-.333.238-.451.413-.183.274-.235.646-.142.962.079.263.253.51.39.746l.27.468c.051.09.108.178.151.273l-.05-.12c.023.06.04.12.048.185l-.018-.134c.005.055.005.109 0 .164l.018-.134c-.008.065-.025.125-.048.185l.05-.12c-.096.217-.236.42-.355.625-.12.2-.236.396-.348.596-.318.57-.124 1.292.442 1.621.224.132.45.26.676.39l.393.226c.021.014.045.025.066.039.02.011.1.07.03.015-.073-.057.02.025.037.041.026.027.035.069-.034-.046l.027.038c.022.033.038.068.053.105l-.05-.12c.02.052.035.105.044.16l-.019-.133c.029.221.007.456.007.677 0 .24-.002.481 0 .721.003.298.108.56.296.788.207.25.523.38.84.4.218.014.44 0 .66 0h.495c.098 0 .2-.004.298.008l-.133-.019c.055.009.108.024.16.044l-.12-.05c.028.011.056.025.085.041.02.012.101.072.026.014-.071-.055.004.006.02.023.002.002.032.028.032.035-.002-.013-.077-.108-.028-.033.015.023.028.046.041.071l.178.31.432.747c.105.182.238.333.413.452.274.183.646.234.962.141.263-.078.51-.253.746-.39l.468-.27c.09-.05.178-.107.273-.15l-.12.05c.06-.024.12-.04.185-.05-.045.008-.089.013-.134.02.055-.006.109-.006.164 0-.045-.007-.089-.012-.134-.02.065.01.125.026.185.05l-.12-.05c.217.096.42.236.625.354.198.113.394.231.592.341.571.318 1.292.125 1.622-.441.132-.225.26-.451.39-.676l.226-.393.038-.066c.012-.02.07-.1.015-.03-.056.073.025-.02.042-.037.027-.027.068-.035-.047.033.014-.008.027-.018.039-.026.033-.022.068-.039.105-.054l-.12.05c.051-.02.105-.035.16-.043l-.134.018c.222-.028.456-.006.678-.006h.72c.299-.004.56-.109.788-.297.25-.206.38-.523.4-.839.015-.218.002-.441.002-.66v-.495c0-.099-.005-.2.006-.298l-.018.133c.008-.055.023-.108.043-.16l-.05.12c.012-.028.025-.057.042-.085.012-.018.072-.102.013-.027-.055.072.007-.003.024-.02.006-.005.035-.026.035-.031-.002.008-.102.07-.044.035.027-.017.053-.034.082-.049l.303-.174c.25-.144.5-.288.747-.432.175-.101.318-.226.438-.39.198-.269.248-.635.17-.957-.063-.263-.248-.517-.381-.749l-.4-.694c-.13-.227-.458-.325-.682-.18-.22.153-.31.446-.17.69z"/>
        <path d="M10.3 4.978l-.53.53-1.27 1.27-1.537 1.537-1.329 1.328c-.215.215-.436.428-.648.648l-.01.01c-.184.185-.198.524 0 .706.2.183.51.198.706 0l.53-.53 1.27-1.27L9.02 7.67l1.329-1.328c.214-.215.436-.428.647-.648l.01-.01c.185-.185.198-.524 0-.706-.198-.183-.508-.198-.706 0zM6.372 6.372l-.072.065c-.063.056.112-.077.007-.007-.052.035-.107.063-.163.088l.12-.05c-.092.039-.187.065-.285.079l.133-.019c-.09.01-.18.01-.271 0l.133.019c-.098-.014-.193-.04-.285-.079l.12.05c-.057-.025-.112-.053-.163-.088-.105-.07.068.063.006.007-.023-.022-.048-.042-.071-.065L5.516 6.3c-.057-.063.077.112.007.007-.035-.052-.064-.107-.089-.163l.05.12c-.038-.092-.065-.187-.078-.285l.018.133c-.01-.09-.01-.18 0-.271l-.018.133c.013-.098.04-.193.078-.285l-.05.12c.025-.057.054-.112.089-.163.07-.105-.064.068-.007.006.022-.023.042-.048.065-.071.023-.023.046-.043.071-.065.064-.057-.111.077-.006.007.051-.035.106-.064.163-.089l-.12.05c.092-.038.187-.065.285-.078l-.133.018c.09-.01.18-.01.271 0l-.133-.018c.098.013.193.04.284.078l-.12-.05c.057.025.112.054.164.089.105.07-.068-.064-.007-.007l.072.065c.023.023.043.046.065.071.056.064-.077-.111-.007-.006.035.051.063.106.088.163l-.05-.12c.039.092.065.187.079.285l-.019-.133c.01.09.01.18 0 .271l.019-.133c-.014.098-.04.193-.079.284l.05-.12c-.025.057-.053.112-.088.164-.07.105.063-.068.007-.007l-.065.072c-.183.186-.2.522 0 .706.198.181.51.2.706 0 .211-.217.378-.502.426-.803.056-.348.016-.674-.133-.995-.26-.553-.901-.923-1.51-.861-.35.035-.65.16-.92.386-.233.195-.406.484-.479.778-.163.656.11 1.326.666 1.701.604.408 1.438.291 1.95-.208.186-.183.196-.526 0-.706-.202-.183-.507-.193-.706.002zM10.41 10.404l-.072.065c-.064.057.111-.076.006-.007-.051.035-.106.064-.163.089l.12-.05c-.092.038-.187.065-.285.078l.133-.018c-.09.01-.18.01-.271 0l.133.018c-.098-.013-.193-.04-.284-.078l.12.05c-.057-.025-.112-.054-.164-.089-.105-.07.069.064.007.007l-.072-.065c-.023-.023-.043-.046-.065-.071-.056-.064.077.111.007.006-.035-.051-.063-.106-.088-.163l.05.12c-.039-.092-.065-.187-.079-.285l.019.133c-.01-.09-.01-.18 0-.271l-.019.133c.014-.098.04-.193.079-.284l-.05.12c.025-.057.053-.112.088-.164.07-.105-.063.069-.007.007l.065-.072.072-.065c.063-.056-.112.077-.007.007.052-.035.107-.063.163-.088l-.12.05c.092-.039.187-.065.285-.078l-.133.018c.09-.01.18-.01.271 0l-.133-.018c.098.013.193.04.285.078l-.12-.05c.057.025.112.053.163.088.105.07-.068-.063-.006-.007.023.022.048.042.071.065l.065.072c.057.063-.076-.112-.007-.007.035.052.064.107.089.163l-.05-.12c.038.092.065.187.078.285l-.018-.133c.01.09.01.18 0 .271l.018-.133c-.013.098-.04.193-.078.285l.05-.12c-.025.057-.054.112-.089.163-.07.105.064-.068.007-.006l-.065.071c-.183.187-.2.523 0 .706.198.182.511.2.706 0 .212-.216.378-.501.426-.802.057-.348.017-.675-.133-.996-.26-.553-.9-.922-1.51-.86-.35.034-.65.159-.919.385-.233.195-.406.485-.48.778-.163.656.11 1.327.666 1.702.605.407 1.439.29 1.95-.209.187-.183.197-.526 0-.706-.201-.183-.508-.193-.706.002z"/>
    </g>
</svg>
