<svg height="30" viewBox="0 0 30 30" width="30" xmlns="http://www.w3.org/2000/svg" xmlns:xlink="http://www.w3.org/1999/xlink"><mask id="a" fill="#fff"><path d="m0 .01862709v28.55280151h28.9622623v-28.55280151z" fill="#fff" fill-rule="evenodd"/></mask><g fill="#fff" fill-rule="evenodd"><path d="m5.55511948 5.49172542c2.44805195-2.41187384 5.68738962-3.63636364 8.92597402-3.63636364 3.238961 0 6.4779221 1.2244898 8.925974 3.63636364 4.9337663 4.86085338 4.9337663 12.72727268 0 17.58812618-4.9337662 4.8608534-12.9178052 4.8608534-17.85194802 0-4.93376623-4.8608535-4.93376623-12.7272728 0-17.58812618m8.92597402 23.07977738c3.7289481 0 7.4194805-1.4100186 10.2441559-4.1929499 5.6493506-5.5658627 5.6493506-14.61966607 0-20.18552878-5.6493507-5.56586271-14.83896109-5.56586271-20.48831174 0s-5.64935065 14.61966608 0 20.18552878c2.82467533 2.7829313 6.51558444 4.1929499 10.24415584 4.1929499" mask="url(#a)"/><path d="m9.49761576 20.1680672c.26443405 0 .49109181-.1061477.67997324-.2830606l4.9109181-4.9889429c.1511052-.1769129.2644341-.3892083.2644341-.6015038v-6.68730647c0-.49535604-.4155392-.88456435-.9444073-.88456435-.5288682 0-.9444074.38920831-.9444074.88456435v6.36886337l-4.68426031 4.7058823c-.33998664.3538258-.33998664.9199469.03777629 1.2383901.18888147.1769129.45331552.247678.67997328.247678"/></g></svg>