<?xml version="1.0" encoding="UTF-8"?>
<svg width="24px" height="24px" viewBox="0 0 24 24" version="1.1" xmlns="http://www.w3.org/2000/svg" xmlns:xlink="http://www.w3.org/1999/xlink">
    <title>Account_Gender Unknown</title>
    <g id="Account_Gender-Unknown" stroke="none" stroke-width="1" fill="none" fill-rule="evenodd">
        <g id="Group-11">
            <path d="M3.657,19.2650667 C3.657,19.2650667 11.439,20.1797333 14.4436667,19.2650667 C17.4483333,18.3497333 16.8323333,16.7390667 18.989,16.2264 C21.1463333,15.7144 20.0676667,20.1797333 20.0676667,20.1797333 C20.0676667,20.1797333 19.297,21.0217333 13.5956667,20.6924 C7.89433333,20.3624 4.04233333,21.1317333 3.96566667,20.5830667 C3.88833333,20.0330667 3.08633333,19.2030667 3.657,19.2650667" id="Fill-1" fill="#F6CE7F"></path>
            <path d="M8.73773333,9.87506667 C8.73773333,9.87506667 14.0170667,10.8444 13.8017333,6.10373333 C13.5857333,1.3624 15.7790667,6.10373333 15.7790667,6.10373333 C15.7790667,6.10373333 17.7230667,11.2364 12.0370667,12.4430667 C12.0370667,12.4430667 6.36706667,11.3837333 8.73773333,9.87506667" id="Fill-3" fill="#F6CE7F"></path>
            <path d="M10.0248667,3.92846667 C10.6302,3.62446667 11.3142,3.45313333 12.0375333,3.45313333 C14.5202,3.45313333 16.5328667,5.46646667 16.5328667,7.9478 C16.5328667,10.4311333 14.5202,12.4424667 12.0375333,12.4424667 C9.55553333,12.4424667 7.54286667,10.4311333 7.54286667,7.9478 C7.54286667,7.3958 7.64286667,6.86646667 7.82553333,6.37713333" id="Stroke-5" stroke="#444B55" stroke-width="0.8" stroke-linecap="round"></path>
            <path d="M8.39726667,5.6316 C8.12726667,5.6196 7.91793333,5.39226667 7.92926667,5.12226667 C7.93993333,4.85293333 8.16793333,4.6436 8.4386,4.65426667 C8.70793333,4.66626667 8.91726667,4.89426667 8.9066,5.1636 C8.8946,5.43293333 8.6666,5.64293333 8.39726667,5.6316" id="Fill-7" fill="#444B55"></path>
            <path d="M16.3953333,13.4246 C15.6593333,14.1606 13.7493333,15.0772667 11.8746667,15.0552667 C10.1086667,15.0346 8.374,14.1179333 7.68066667,13.4246 C6.09933333,11.8426 1.314,20.7866 4.556,20.7866 L11.954,20.7866 L12.122,20.7866 L19.52,20.7866 C22.762,20.7866 17.9773333,11.8426 16.3953333,13.4246 Z" id="Stroke-9" stroke="#444B55" stroke-width="0.8" stroke-linecap="round" stroke-linejoin="round"></path>
            <rect id="Rectangle" x="0" y="0" width="24" height="24"></rect>
        </g>
    </g>
</svg>