<svg xmlns="http://www.w3.org/2000/svg" width="24" height="24" viewBox="0 0 24 24">
    <g fill="none" fill-rule="evenodd">
        <g>
            <g>
                <g>
                    <path fill="#499B1F" d="M2.4 0H24v24H2.4C1.075 24 0 22.925 0 21.6V2.4C0 1.075 1.075 0 2.4 0z" transform="translate(-219 -1415) translate(114 1209) translate(105 206)"/>
                    <path fill="#5EAF29" d="M2.4 0h9.08v24H2.4C1.075 24 0 22.925 0 21.6V2.4C0 1.075 1.075 0 2.4 0z" transform="translate(-219 -1415) translate(114 1209) translate(105 206)"/>
                    <path fill="#F3FFEB" fill-rule="nonzero" d="M19 12c0-.71-1.385-1.188-1.592-1.836-.206-.664.649-1.914.25-2.47-.397-.57-1.782-.092-2.327-.508-.531-.402-.546-1.945-1.18-2.16-.618-.217-1.473 1.018-2.166 1.018-.678 0-1.547-1.235-2.166-1.019-.634.216-.648 1.744-1.179 2.16-.545.417-1.93-.061-2.328.51-.384.555.456 1.805.25 2.469C6.385 10.812 5 11.29 5 12c0 .71 1.385 1.188 1.592 1.836.206.664-.649 1.914-.25 2.47.397.57 1.782.092 2.327.508.531.402.546 1.945 1.18 2.16.618.217 1.473-1.018 2.166-1.018.678 0 1.547 1.235 2.166 1.019.634-.216.648-1.744 1.179-2.16.545-.417 1.93.061 2.328-.51.384-.555-.456-1.805-.25-2.469C17.615 13.188 19 12.71 19 12zm-8.813-2.932c.546 0 .988.463.988 1.034s-.442 1.034-.988 1.034c-.545 0-.987-.463-.987-1.034 0-.57.442-1.034.987-1.034zm3.626 5.864c-.546 0-.988-.463-.988-1.034s.442-1.034.988-1.034c.545 0 .987.463.987 1.034 0 .57-.442 1.034-.987 1.034zm.825-4.722l-4.347 4.552c-.133.139-.295.2-.472.2-.162 0-.339-.061-.472-.2-.25-.262-.25-.71 0-.972l4.348-4.552c.25-.262.678-.262.928 0 .265.278.265.71.015.972z" transform="translate(-219 -1415) translate(114 1209) translate(105 206)"/>
                </g>
            </g>
        </g>
    </g>
</svg>
