<svg xmlns="http://www.w3.org/2000/svg" width="12" height="12" viewBox="0 0 12 12">
    <g fill="none" fill-rule="evenodd">
        <g fill="#979797" fill-rule="nonzero">
            <g>
                <g>
                    <g>
                        <path d="M10.622.483c-.645-.644-1.69-.644-2.335 0l-.584.588L1.48 7.29l-.014.012c-.003.004-.003.007-.006.007-.007.01-.017.02-.023.03 0 .003-.004.003-.004.006l-.016.027-.007.01-.01.026c0 .003-.003.003-.003.007l-1.38 4.151c-.04.119-.01.25.079.337.062.062.147.096.234.096.036 0 .072-.006.106-.017L4.585 10.6c.003 0 .003 0 .007-.004.01-.003.02-.007.03-.013l.006-.003.033-.02c.01-.007.02-.017.03-.023.003-.004.006-.004.006-.007.004-.003.01-.006.014-.013l6.806-6.807c.644-.645.644-1.69 0-2.335l-.895-.892zM4.48 9.823L2.181 7.525 7.934 1.77l2.298 2.299L4.48 9.823zM1.857 8.136l2.008 2.008L.85 11.148l1.007-3.012zm9.194-4.889l-.35.354-2.298-2.299.353-.353c.387-.387 1.014-.387 1.4 0l.899.898c.383.388.382 1.014-.004 1.4z" transform="translate(-303 -290) translate(0 273) translate(10) translate(293 16) translate(0 1)"/>
                    </g>
                </g>
            </g>
        </g>
    </g>
</svg>
