<svg xmlns="http://www.w3.org/2000/svg" width="315" height="23" viewBox="0 0 315 23">
    <g fill="none" fill-rule="evenodd">
        <g>
            <g>
                <g>
                    <path stroke="#D5D5D5" stroke-linecap="round" stroke-width=".717" d="M9 16L306 16" transform="translate(-30 -576) translate(10 176) translate(20 397)"/>
                    <g>
                        <g>
                            <path d="M0 0H16V16H0z" transform="translate(-30 -576) translate(10 176) translate(20 397) translate(0 6)"/>
                        </g>
                        <path fill="#D5D5D5" d="M7.706 12.818L3.659 15.9c-.223.17-.536.118-.699-.116-.094-.136-.12-.31-.07-.47l1.546-4.987c.067-.216-.007-.453-.182-.586L.206 6.66c-.223-.17-.273-.499-.11-.733.094-.136.244-.216.404-.216h5.003c.217 0 .409-.146.476-.362L7.524.362c.086-.275.368-.426.63-.336.153.052.272.177.322.336L10.02 5.35c.067.216.26.363.476.362H15.5c.276 0 .5.235.5.524 0 .168-.077.326-.206.425l-4.048 3.08c-.175.134-.248.371-.181.587l1.546 4.987c.085.275-.059.57-.321.66-.153.052-.32.024-.449-.074l-4.047-3.082c-.175-.134-.413-.134-.588 0z" transform="translate(-30 -576) translate(10 176) translate(20 397) translate(0 6)"/>
                    </g>
                    <g>
                        <g>
                            <path d="M0 0H16V16H0z" transform="translate(-30 -576) translate(10 176) translate(20 397) translate(67.75 5)"/>
                        </g>
                        <path fill="#D5D5D5" d="M8.67 14.42l-4.554 3.467c-.251.192-.603.133-.786-.13-.106-.153-.135-.35-.08-.53l1.74-5.609c.075-.243-.007-.51-.205-.66L.232 7.493c-.251-.192-.307-.56-.125-.824.106-.153.276-.243.456-.243H6.19c.244 0 .46-.164.535-.407L8.465.408c.096-.31.413-.48.709-.379.171.058.306.2.361.379l1.739 5.61c.075.243.291.407.535.407h5.628c.311 0 .563.264.563.59 0 .189-.086.366-.232.477l-4.553 3.467c-.198.15-.28.416-.205.66l1.74 5.609c.096.31-.066.642-.362.743-.17.058-.359.027-.504-.084L9.33 14.42c-.197-.15-.465-.15-.662 0z" transform="translate(-30 -576) translate(10 176) translate(20 397) translate(67.75 5)"/>
                    </g>
                    <g>
                        <g>
                            <path d="M0 0H22V22H0z" transform="translate(-30 -576) translate(10 176) translate(20 397) translate(137.5 2)"/>
                        </g>
                        <path fill="#D5D5D5" d="M10.596 17.624L5.03 21.862c-.307.234-.737.163-.96-.16-.13-.186-.166-.426-.098-.646L6.099 14.2c.092-.297-.009-.623-.25-.806L.284 9.157C-.024 8.923-.092 8.472.13 8.15c.13-.187.337-.297.557-.297h6.879c.298 0 .562-.2.654-.498L10.346.498c.117-.378.505-.586.867-.463.209.072.373.244.441.463l2.125 6.857c.092.297.356.498.654.498h6.88c.379 0 .687.322.687.72 0 .231-.105.448-.284.584l-5.565 4.237c-.241.183-.342.509-.25.806l2.126 6.856c.118.379-.08.786-.441.909-.21.071-.439.033-.617-.103l-5.565-4.238c-.24-.184-.567-.184-.808 0z" transform="translate(-30 -576) translate(10 176) translate(20 397) translate(137.5 2)"/>
                    </g>
                    <g>
                        <g>
                            <path d="M0 0H24V24H0z" transform="translate(-30 -576) translate(10 176) translate(20 397) translate(211.25 1)"/>
                        </g>
                        <path fill="#D5D5D5" d="M11.559 19.226l-6.07 4.624c-.336.255-.805.177-1.049-.174-.14-.204-.18-.466-.106-.706l2.32-7.48c.1-.323-.01-.678-.273-.879L.309 9.99c-.335-.255-.41-.747-.166-1.098.142-.204.367-.325.608-.325l7.503.001c.326 0 .614-.22.714-.543l2.318-7.48c.128-.413.552-.64.946-.505.228.077.407.265.482.505l2.318 7.48c.1.324.388.543.714.543h7.504c.414 0 .75.352.75.786 0 .252-.115.488-.31.636l-6.07 4.622c-.264.2-.374.556-.273.88l2.32 7.48c.127.412-.088.856-.482.99-.229.078-.48.037-.673-.111l-6.07-4.624c-.264-.2-.62-.2-.883 0z" transform="translate(-30 -576) translate(10 176) translate(20 397) translate(211.25 1)"/>
                    </g>
                    <g>
                        <path d="M0 0H26V26H0z" transform="translate(-30 -576) translate(10 176) translate(20 397) translate(288.929 .929)"/>
                        <path fill="#D5D5D5" d="M12.522 20.829l-6.576 5.008c-.363.277-.872.192-1.136-.188-.153-.22-.196-.505-.115-.764l2.513-8.103c.109-.351-.01-.736-.296-.953L.335 10.822c-.363-.277-.444-.81-.18-1.19.153-.221.398-.352.658-.352l8.13.001c.352 0 .664-.238.773-.589L12.226.59c.14-.448.598-.692 1.025-.547.248.084.442.288.522.547l2.512 8.103c.108.351.42.59.773.59l8.129-.002c.449 0 .813.382.813.852 0 .273-.125.53-.335.69l-6.577 5.007c-.285.217-.405.602-.296.953l2.513 8.103c.139.447-.095.928-.522 1.073-.247.085-.518.04-.729-.12l-6.576-5.01c-.285-.217-.67-.217-.956 0z" transform="translate(-30 -576) translate(10 176) translate(20 397) translate(288.929 .929)"/>
                    </g>
                </g>
            </g>
        </g>
    </g>
</svg>
