<svg xmlns="http://www.w3.org/2000/svg" width="21" height="17" viewBox="0 0 21 17">
    <g fill="none" fill-rule="evenodd">
        <path fill="#E20041" d="M2.195 12.128V3.19l8.178 2.725v10.74s-.39.044-1.348-.285l-4.966-1.656c-1.113-.371-1.864-1.412-1.864-2.586" transform="translate(.333 -.356)"/>
        <path d="M2.536 3.663v8.465c0 1.029.655 1.938 1.631 2.263l4.966 1.656c.408.14.703.207.899.24V6.16L2.536 3.663zm7.78 13.335c-.186 0-.623-.038-1.402-.306l-4.963-1.655c-1.254-.417-2.097-1.587-2.097-2.909V3.19c0-.11.053-.212.142-.277.089-.063.203-.082.307-.046l8.177 2.725c.14.047.233.177.233.323v10.74c0 .173-.13.32-.302.339-.016.001-.047.004-.095.004z" transform="translate(.333 -.356)"/>
        <path fill="#BA0635" d="M2.534 7.896V3.19l8.189 1.414-1.76 5.217c0 .176-.33.755-1.143.563L3.605 8.942c-.944-.216-1.071-.365-1.071-1.046" transform="translate(.333 -.356)"/>
        <path fill="#FF1744" d="M.588 5.868L2.195 3.19l7.89 2.63L8.45 8.796c-.165.274-.497.396-.8.295L.957 6.865C.6 6.747.407 6.361.526 6.003c.016-.047.036-.092.062-.135" transform="translate(.333 -.356)"/>
        <path d="M.88 6.043c-.013.022-.023.045-.03.068-.06.178.037.372.215.432l6.692 2.226c.153.053.318-.01.4-.148L9.59 6.013 2.346 3.599.881 6.043zm6.987 3.426c-.107 0-.217-.017-.325-.053L.849 7.189C.315 7.011.025 6.431.202 5.896c.024-.07.055-.138.094-.203l1.607-2.678c.082-.137.248-.2.4-.148l7.889 2.629c.095.032.172.105.21.199.036.094.03.2-.02.288L8.75 8.96c-.195.325-.53.509-.882.509z" transform="translate(.333 -.356)"/>
        <path fill="#FF1744" d="M18.55 12.128V3.19l-8.177 2.725v10.74s.39.044 1.348-.285l4.965-1.656c1.113-.371 1.864-1.412 1.864-2.586" transform="translate(.333 -.356)"/>
        <path d="M10.713 6.161v10.126c.196-.032.49-.1.896-.24l4.97-1.656c.975-.325 1.63-1.234 1.63-2.263V3.662l-7.496 2.5zm-.283 10.837c-.048 0-.08-.002-.096-.004-.172-.02-.302-.165-.302-.34V5.917c0-.147.094-.278.233-.323l8.177-2.726c.103-.035.218-.018.307.046.09.064.142.167.142.277v8.938c0 1.322-.842 2.491-2.097 2.91l-4.966 1.655c-.776.267-1.213.305-1.398.305z" transform="translate(.333 -.356)"/>
        <path fill="#BA0635" d="M18.205 6.01l.345-2.82-7.866 2.622.003 3.132.539 1.1c.216.398.757.607 1.218.462l5.761-1.798V6.01z" transform="translate(.333 -.356)"/>
        <path fill="#FF1744" d="M20.158 5.868L18.55 3.19l-7.866 2.622L12.3 8.799c.165.274.497.397.8.296l6.688-2.23c.357-.118.55-.504.432-.862-.016-.047-.037-.092-.062-.135" transform="translate(.333 -.356)"/>
        <path d="M11.177 6.007l1.423 2.63c.075.124.241.187.393.134l6.688-2.229c.178-.059.275-.252.215-.431-.007-.022-.018-.046-.03-.067l-1.467-2.445-7.222 2.408zM12.88 9.47c-.35 0-.683-.181-.873-.497l-1.624-3c-.047-.089-.054-.194-.017-.288.037-.093.114-.166.21-.197l7.866-2.622c.152-.05.317.01.4.147l1.606 2.68h.001c.038.062.068.13.092.2.179.537-.111 1.117-.646 1.294l-6.688 2.23c-.108.036-.218.053-.327.053z" transform="translate(.333 -.356)"/>
        <path fill="#BA0635" d="M2.195 3.19L8.65 1.038c1.119-.372 2.329-.372 3.448 0L18.55 3.19l-8.177 2.726L2.195 3.19z" transform="translate(.333 -.356)"/>
        <path d="M3.273 3.19l7.1 2.366 7.1-2.366-5.484-1.829c-1.042-.346-2.19-.346-3.233 0L3.273 3.19zm7.1 3.066c-.036 0-.073-.006-.108-.017L2.088 3.513c-.14-.047-.233-.177-.233-.323 0-.147.094-.277.233-.323L8.54.715c1.18-.393 2.482-.393 3.663 0l6.454 2.152c.139.046.233.176.233.323 0 .146-.094.276-.233.323L10.48 6.239c-.034.011-.071.017-.107.017z" transform="translate(.333 -.356)"/>
    </g>
</svg>
