<svg xmlns="http://www.w3.org/2000/svg" width="45" height="39" viewBox="0 0 45 39">
    <g fill="none" fill-rule="evenodd">
        <path fill="#FFF" fill-opacity="0" d="M0-3h45v45H0z"/>
        <path fill="#D5D5D5" d="M39.632 26.26a.917.917 0 0 1-.869-1.215c.044-.13.087-.261.129-.392a.918.918 0 1 1 1.751.551c-.045.145-.093.29-.142.434a.918.918 0 0 1-.869.622"/>
        <path fill="#6C6C6C" d="M37.856 30.006a.918.918 0 0 1-.779-1.403c.217-.35.42-.706.613-1.07a.92.92 0 0 1 1.625.856c-.213.403-.439.798-.678 1.183a.916.916 0 0 1-.781.434"/>
        <path fill="#212121" d="M36.704 30.772a.919.919 0 0 0-1.296.089 17.452 17.452 0 0 1-13.164 5.995c-9.621 0-17.449-7.827-17.449-17.449a.919.919 0 0 0-1.836 0c0 10.635 8.65 19.286 19.285 19.286 5.58 0 10.882-2.415 14.549-6.625a.918.918 0 0 0-.09-1.296"/>
        <path fill="#6C6C6C" d="M4.716 14.822a.921.921 0 0 1-.877-1.193c.104-.33.215-.653.335-.974a.918.918 0 0 1 1.72.644c-.108.29-.209.583-.302.88a.92.92 0 0 1-.876.643"/>
        <path fill="#212121" d="M22.244.122c-6.716 0-12.843 3.41-16.393 9.121a.919.919 0 0 0 1.561.969c3.211-5.168 8.755-8.253 14.832-8.253 9.622 0 17.449 7.827 17.449 17.449a.919.919 0 0 0 1.837 0C41.53 8.773 32.879.122 22.244.122M7.281 21.513l-2.755-2.755a.917.917 0 0 0-1.298 0L.472 21.513a.917.917 0 1 0 1.299 1.299l2.106-2.106 2.106 2.106a.916.916 0 0 0 1.298 0c.36-.36.36-.94 0-1.299"/>
        <path fill="#212121" d="M44.016 16.003a.917.917 0 0 0-1.299 0l-2.106 2.106-2.105-2.106a.917.917 0 1 0-1.299 1.299l2.755 2.755a.916.916 0 0 0 1.299 0l2.755-2.755c.359-.36.359-.94 0-1.299"/>
        <g>
            <path fill="#E20041" d="M11.224 24.017V11.97l11.02 3.673v14.474s-.525.06-1.816-.385l-6.693-2.23a3.674 3.674 0 0 1-2.511-3.486"/>
            <path fill="#231F20" d="M11.683 12.608v11.409c0 1.386.883 2.61 2.198 3.05l6.693 2.23c.549.189.946.28 1.21.324V15.976l-10.101-3.368zM22.168 30.58c-.25 0-.84-.052-1.89-.413l-6.688-2.23a4.127 4.127 0 0 1-2.826-3.92V11.971a.46.46 0 0 1 .605-.436l11.02 3.674a.46.46 0 0 1 .314.435v14.474a.46.46 0 0 1-.408.456c-.02.002-.063.006-.127.006z"/>
            <path fill="#BA0635" d="M11.68 18.313V11.97l11.036 1.906-2.372 7.03c0 .237-.445 1.018-1.54.76l-5.68-1.944c-1.273-.29-1.444-.492-1.444-1.41"/>
            <path fill="#E20041" d="M9.058 15.58l2.165-3.61 10.632 3.545-2.202 4.012a.919.919 0 0 1-1.078.399l-9.02-3.002a.917.917 0 0 1-.497-1.343"/>
            <path fill="#231F20" d="M9.452 15.816a.46.46 0 0 0 .248.673l9.02 3a.453.453 0 0 0 .54-.199l1.928-3.514-9.76-3.253-1.976 3.293zm9.416 4.617c-.145 0-.293-.023-.439-.072l-9.02-3a1.38 1.38 0 0 1-.745-2.016l2.165-3.61a.459.459 0 0 1 .54-.2L22 15.08a.46.46 0 0 1 .258.656l-2.203 4.013a1.382 1.382 0 0 1-1.187.685z"/>
            <path fill="#FF1744" d="M15.01 13.73l6.15 2.06-1.226 2.263c-.558 1.026-2.025.415-2.791.139l-3.333-1.113c-2-.78-1.646-2.032-1.364-2.62.346-.725 1.566-1.054 2.564-.728M33.264 24.017V11.97l-11.02 3.673v14.474s.525.06 1.817-.385l6.692-2.23a3.674 3.674 0 0 0 2.511-3.486"/>
            <path fill="#231F20" d="M22.703 15.975v13.646c.264-.043.66-.134 1.208-.322l6.697-2.233a3.209 3.209 0 0 0 2.197-3.05V12.609l-10.102 3.367zm-.382 14.605a1.07 1.07 0 0 1-.128-.006.459.459 0 0 1-.408-.457V15.645c0-.199.127-.374.314-.436l11.02-3.673a.458.458 0 0 1 .604.435v12.046a4.126 4.126 0 0 1-2.825 3.92l-6.692 2.232c-1.046.36-1.635.411-1.885.411z"/>
            <path fill="#E20041" d="M23.94 9.488c-1.567-.446-1.25 11.56-1.25 12.594 0 3.5 1.62 3.81 4.569 2.965 1.617-.462 2.997-1.231 3.762-1.695.805-.487.904-1.42.914-2.174.028-2.174-.055-8.052-.055-8.052 0-.525.703-1.183.118-1.348l-8.058-2.29z"/>
            <path fill="#BA0635" d="M32.8 15.773l.465-3.802-10.601 3.533.004 4.221.726 1.484c.291.535 1.02.818 1.641.622l7.765-2.423v-3.635z"/>
            <path fill="#FF1744" d="M35.43 15.58l-2.166-3.61-10.6 3.535 2.178 4.025c.221.37.67.535 1.078.4l9.013-3.006a.918.918 0 0 0 .498-1.343"/>
            <path fill="#231F20" d="M23.328 15.767l1.918 3.544a.45.45 0 0 0 .53.182l9.012-3.004a.459.459 0 0 0 .25-.672l-1.977-3.294-9.733 3.244zm2.297 4.67a1.37 1.37 0 0 1-1.177-.671l-2.188-4.043a.459.459 0 0 1 .259-.654l10.6-3.534a.46.46 0 0 1 .54.2l2.165 3.61h.001a1.378 1.378 0 0 1-.747 2.015l-9.013 3.005a1.383 1.383 0 0 1-.44.071z"/>
            <path fill="#BA0635" d="M11.224 11.97l8.697-2.898a7.353 7.353 0 0 1 4.647 0l8.696 2.899-11.02 3.673-11.02-3.673z"/>
            <path fill="#231F20" d="M12.676 11.97l9.568 3.19 9.569-3.19-7.39-2.463a6.943 6.943 0 0 0-4.357 0l-7.39 2.464zm9.568 4.134a.462.462 0 0 1-.145-.024l-11.02-3.674a.46.46 0 0 1 0-.87l8.697-2.9a7.852 7.852 0 0 1 4.937 0l8.697 2.9a.46.46 0 0 1 0 .87L22.39 16.08a.462.462 0 0 1-.146.024z"/>
        </g>
    </g>
</svg>
