<svg xmlns="http://www.w3.org/2000/svg" width="32" height="28" viewBox="0 0 32 28">
    <g fill="none" fill-rule="evenodd">
        <path fill="#FFF" fill-opacity="0" d="M0-2h32v32H0z"/>
        <path fill="#D5D5D5" d="M28.183 18.807a.652.652 0 0 1-.618-.864l.091-.278a.653.653 0 1 1 1.246.391 9.997 9.997 0 0 1-.101.309.653.653 0 0 1-.618.442"/>
        <path fill="#6C6C6C" d="M26.92 21.47a.653.653 0 0 1-.554-.998c.154-.247.3-.5.436-.76a.654.654 0 0 1 1.155.61c-.151.286-.312.567-.482.84a.652.652 0 0 1-.555.309"/>
        <path fill="#212121" d="M26.1 22.016a.653.653 0 0 0-.92.063 12.41 12.41 0 0 1-9.362 4.263c-6.842 0-12.408-5.566-12.408-12.408a.653.653 0 0 0-1.306 0c0 7.562 6.152 13.714 13.714 13.714 3.967 0 7.738-1.717 10.346-4.71a.653.653 0 0 0-.063-.922"/>
        <path fill="#6C6C6C" d="M3.354 10.674a.655.655 0 0 1-.624-.85c.074-.233.153-.464.238-.691a.653.653 0 0 1 1.223.458c-.076.206-.148.414-.214.625a.654.654 0 0 1-.623.458"/>
        <path fill="#212121" d="M15.818.22c-4.776 0-9.133 2.425-11.657 6.486a.653.653 0 0 0 1.11.69 12.344 12.344 0 0 1 10.547-5.87c6.842 0 12.408 5.566 12.408 12.408a.653.653 0 0 0 1.306 0C29.532 6.372 23.38.22 15.818.22M5.178 15.432l-1.96-1.96a.652.652 0 0 0-.923 0l-1.96 1.96a.652.652 0 1 0 .924.923l1.498-1.497 1.497 1.497a.651.651 0 0 0 .924 0 .652.652 0 0 0 0-.923"/>
        <path fill="#212121" d="M31.3 11.513a.652.652 0 0 0-.923 0l-1.498 1.498-1.497-1.498a.652.652 0 1 0-.924.924l1.96 1.959a.651.651 0 0 0 .923 0l1.96-1.96a.652.652 0 0 0 0-.923"/>
        <g>
            <path fill="#E20041" d="M7.981 17.212V8.646l7.837 2.612V21.55s-.374.043-1.292-.273L9.767 19.69a2.613 2.613 0 0 1-1.786-2.478"/>
            <path fill="#231F20" d="M8.308 9.1v8.112c0 .986.628 1.857 1.563 2.169l4.76 1.586c.39.134.672.2.86.23v-9.703L8.308 9.099zm7.456 12.779c-.178 0-.597-.037-1.344-.293L9.664 20a2.935 2.935 0 0 1-2.01-2.788V8.646a.328.328 0 0 1 .43-.31l7.837 2.613c.133.044.224.169.224.31V21.55a.327.327 0 0 1-.29.325c-.015.001-.045.004-.091.004z"/>
            <path fill="#BA0635" d="M8.306 13.156v-4.51l7.847 1.356L14.467 15c0 .168-.317.723-1.096.54l-4.039-1.383c-.904-.206-1.026-.35-1.026-1.002"/>
            <path fill="#E20041" d="M6.441 11.213l1.54-2.567 7.56 2.52-1.566 2.853a.653.653 0 0 1-.766.284l-6.415-2.135a.652.652 0 0 1-.353-.955"/>
            <path fill="#231F20" d="M6.721 11.38a.328.328 0 0 0 .176.479l6.414 2.134c.147.05.305-.01.384-.142l1.372-2.5-6.94-2.313L6.72 11.38zm6.696 3.283a.985.985 0 0 1-.312-.05l-6.414-2.134a.982.982 0 0 1-.53-1.434l1.54-2.567a.326.326 0 0 1 .383-.142l7.56 2.52a.327.327 0 0 1 .184.467l-1.566 2.853a.983.983 0 0 1-.845.487z"/>
            <path fill="#FF1744" d="M10.674 9.897l4.373 1.464-.872 1.61c-.396.73-1.44.295-1.985.099l-2.37-.792c-1.422-.554-1.17-1.444-.97-1.862.247-.516 1.114-.75 1.824-.519M23.655 17.212V8.646l-7.837 2.612V21.55s.374.043 1.292-.273l4.759-1.587a2.613 2.613 0 0 0 1.786-2.478"/>
            <path fill="#231F20" d="M16.145 11.494v9.703a5.36 5.36 0 0 0 .858-.229l4.762-1.587a2.282 2.282 0 0 0 1.563-2.17V9.1l-7.183 2.395zm-.272 10.385a.76.76 0 0 1-.092-.004.326.326 0 0 1-.29-.325V11.258c0-.14.09-.265.224-.31l7.837-2.611a.326.326 0 0 1 .43.31v8.565A2.934 2.934 0 0 1 21.971 20l-4.76 1.587c-.743.256-1.162.292-1.34.292z"/>
            <path fill="#E20041" d="M17.024 6.88c-1.114-.317-.889 8.221-.889 8.956 0 2.49 1.152 2.71 3.25 2.109 1.15-.33 2.13-.876 2.674-1.206.573-.346.643-1.01.65-1.545.02-1.547-.039-5.727-.039-5.727 0-.373.5-.84.084-.958l-5.73-1.629z"/>
            <path fill="#BA0635" d="M23.324 11.35l.33-2.704-7.537 2.513.002 3.001.517 1.056c.207.38.725.58 1.167.442l5.521-1.724V11.35z"/>
            <path fill="#FF1744" d="M25.195 11.213l-1.54-2.567-7.539 2.513 1.55 2.862c.157.263.476.38.766.284l6.41-2.137a.653.653 0 0 0 .353-.955"/>
            <path fill="#231F20" d="M16.589 11.346l1.364 2.52c.072.12.23.18.376.13l6.41-2.137a.326.326 0 0 0 .176-.478L23.51 9.038l-6.921 2.308zm1.633 3.32a.974.974 0 0 1-.837-.477l-1.556-2.875a.326.326 0 0 1 .184-.465l7.539-2.513a.327.327 0 0 1 .383.142l1.54 2.567a.98.98 0 0 1-.53 1.433l-6.41 2.137a.983.983 0 0 1-.313.05z"/>
            <path fill="#BA0635" d="M7.981 8.646l6.185-2.062a5.229 5.229 0 0 1 3.304 0l6.185 2.062-7.837 2.612-7.837-2.612z"/>
            <path fill="#231F20" d="M9.014 8.646l6.804 2.268 6.804-2.268-5.255-1.752a4.937 4.937 0 0 0-3.098 0L9.014 8.646zm6.804 2.939a.329.329 0 0 1-.103-.017L7.878 8.956a.327.327 0 0 1 0-.62l6.185-2.061a5.584 5.584 0 0 1 3.51 0l6.185 2.061a.327.327 0 0 1 0 .62l-7.837 2.612a.329.329 0 0 1-.103.017z"/>
        </g>
    </g>
</svg>
