<svg xmlns="http://www.w3.org/2000/svg" width="45" height="39" viewBox="0 0 45 39">
    <g fill="none" fill-rule="evenodd">
        <path fill="#D5D5D5" d="M39.632 26.853c-.098 0-.198-.016-.297-.05-.48-.163-.736-.684-.572-1.165.044-.13.087-.261.129-.392.152-.484.667-.753 1.151-.6.484.152.753.667.6 1.151-.045.145-.093.29-.142.434-.13.382-.487.622-.869.622" transform="translate(0 -.593)"/>
        <path fill="#6C6C6C" d="M37.856 30.599c-.165 0-.333-.045-.484-.14-.43-.267-.563-.834-.295-1.264.217-.349.42-.705.613-1.07.237-.448.791-.62 1.24-.383.45.236.621.791.385 1.24-.213.403-.439.798-.678 1.183-.174.28-.474.434-.781.434" transform="translate(0 -.593)"/>
        <path fill="#212121" d="M36.704 31.365c-.383-.333-.964-.293-1.296.09-3.318 3.81-8.116 5.994-13.164 5.994-9.621 0-17.449-7.827-17.449-17.449 0-.507-.411-.918-.918-.918-.507 0-.918.411-.918.918 0 10.635 8.65 19.286 19.285 19.286 5.58 0 10.882-2.414 14.549-6.625.333-.383.294-.964-.09-1.296" transform="translate(0 -.593)"/>
        <path fill="#6C6C6C" d="M4.716 15.416c-.092 0-.184-.014-.275-.043-.484-.152-.753-.667-.602-1.151.104-.33.215-.653.335-.974.179-.475.71-.715 1.182-.538.475.178.717.707.538 1.182-.108.29-.209.583-.302.88-.124.393-.486.644-.876.644" transform="translate(0 -.593)"/>
        <path fill="#212121" d="M22.244.715c-6.716 0-12.843 3.41-16.393 9.121-.267.43-.135.997.296 1.265.43.267.996.135 1.265-.296 3.211-5.168 8.755-8.253 14.832-8.253 9.622 0 17.449 7.827 17.449 17.449 0 .507.411.918.918.918.507 0 .919-.411.919-.918C41.53 9.366 32.879.715 22.244.715M7.281 22.106l-2.755-2.755c-.359-.359-.94-.359-1.298 0L.472 22.106c-.359.36-.359.94 0 1.299.36.359.94.359 1.299 0l2.106-2.106 2.106 2.106c.179.179.414.269.649.269.235 0 .47-.09.65-.269.358-.36.358-.94 0-1.299" transform="translate(0 -.593)"/>
        <path fill="#212121" d="M44.016 16.596c-.36-.359-.94-.359-1.299 0l-2.106 2.106-2.105-2.106c-.36-.359-.94-.359-1.299 0-.359.36-.359.94 0 1.299l2.755 2.755c.18.179.414.269.65.269.235 0 .47-.09.649-.27l2.755-2.754c.359-.36.359-.94 0-1.299" transform="translate(0 -.593)"/>
    </g>
</svg>
