<svg xmlns="http://www.w3.org/2000/svg" width="31" height="25" viewBox="0 0 31 25">
    <g fill="none">
        <path fill="#DA1C5C" d="M26.25 15.956V3.302L12.5 6.25V22.5l10.789-2.737c1.741-.442 2.961-2.01 2.961-3.807z" transform="translate(.5 1.25)"/>
        <path fill="#E8497F" d="M28.71 7.029l-2.46-3.904L12.5 6.25c.92 1.47 1.839 2.942 2.758 4.413.22.352.638.528 1.043.438l11.789-2.59c.53-.116.864-.64.748-1.17-.025-.11-.068-.216-.128-.312z" transform="translate(.5 1.25)"/>
        <path fill="#B7184D" d="M3.095 15.657l-.15-12.355L12.5 5.625V22.5l-7.139-3.331c-1.367-.638-2.248-2.003-2.266-3.512z" transform="translate(.5 1.25)"/>
        <path fill="#DA1C5C" d="M.656 7.051l2.29-3.749L12.5 6.25l-2.126 4.253c-.216.43-.712.641-1.171.498L1.2 8.5C.683 8.338.395 7.787.556 7.27c.024-.077.058-.151.1-.22z" transform="translate(.5 1.25)"/>
        <path fill="#B7184D" d="M2.945 3.302L14.7.516c1.422-.337 2.91-.271 4.296.19l7.254 2.419L12.5 6.25 2.945 3.302z" transform="translate(.5 1.25)"/>
        <path fill="#98123F" d="M16.25.625c0-.833 3.333 0 10 2.5l-10 2.25V.625z" transform="translate(.5 1.25)"/>
    </g>
</svg>
