<svg xmlns="http://www.w3.org/2000/svg" xmlns:xlink="http://www.w3.org/1999/xlink" width="139" height="127" viewBox="0 0 139 127">
    <defs>
        <path id="tua2gi1ica" d="M65.904 8.68c-15.76 5.465-30.365 10.929-40.713 7.588C11.16 11.737.243 24.556.15 40.515v.42c.07 11.908 6.16 25.481 21.442 34.88C40.53 87.465 57.77 92.228 72.837 92.266h.35c40.516-.09 65.29-34.37 65.437-60.574v-.463c-.05-8.918-2.98-16.864-9.146-22.152C121.783 2.475 113.008.07 103.79.07c-12.337 0-25.47 4.305-37.886 8.61z"/>
    </defs>
    <g fill="none" fill-rule="evenodd">
        <g>
            <g>
                <g>
                    <g transform="translate(-1171 -208) translate(902 162) matrix(-1 0 0 1 408 46.667) translate(0 17.671)">
                        <mask id="7no31r24db" fill="#fff">
                            <use xlink:href="#tua2gi1ica"/>
                        </mask>
                        <path fill="#FFF" d="M-4.473 96.888L143.245 96.888 143.245 -4.551 -4.473 -4.551z" mask="url(#7no31r24db)"/>
                    </g>
                    <g>
                        <path fill="#477BDE" d="M46.9 96.219H16.675c-.86 0-1.557-.697-1.557-1.557v-68.1c0-.86.697-1.557 1.557-1.557H46.9c.86 0 1.557.697 1.557 1.557v68.1c0 .86-.697 1.557-1.557 1.557" transform="translate(-1171 -208) translate(902 162) matrix(-1 0 0 1 408 46.667) translate(32.43 .338)"/>
                        <path stroke="#477BDE" stroke-linecap="round" stroke-width="1.677" d="M7.299 43.142L7.299 47.691M7.299 13.084L7.299 37.439M64.361 55.063L64.361 59.612M64.361 25.005L64.361 49.361M19.631 14.408L19.631 17.804M19.631.501L19.631 8.179M56.094 43.978L56.094 47.691M56.094 17.804L56.094 31.655 56.094 37.439M70.088 7.276L70.088 37.162" transform="translate(-1171 -208) translate(902 162) matrix(-1 0 0 1 408 46.667) translate(32.43 .338)"/>
                        <path fill="#CDE1F9" d="M46.94 88.3V33.58c-3.817 0-6.912-3.096-6.912-6.913H22.912c0 3.817-3.094 6.912-6.912 6.912V88.3c3.818 0 6.912 3.095 6.912 6.913h17.116c0-3.818 3.095-6.912 6.913-6.912" transform="translate(-1171 -208) translate(902 162) matrix(-1 0 0 1 408 46.667) translate(32.43 .338)"/>
                        <path fill="#477BDE" d="M37.105 56.065h-4.613c.81.643 1.398 1.566 1.566 2.852h3.047v1.398h-3.02c-.279 2.852-2.544 4.67-6.124 4.781 2.182 2.265 4.559 5.118 6.908 7.998h-2.685c-2.18-2.628-4.223-5.062-6.85-7.858v-1.733h1.537c3.02 0 4.642-1.258 4.838-3.188h-6.376v-1.398h6.292c-.392-1.622-1.873-2.433-4.306-2.433h-1.986v-1.817h11.772v1.398z" transform="translate(-1171 -208) translate(902 162) matrix(-1 0 0 1 408 46.667) translate(32.43 .338) matrix(-1 0 0 1 62.439 0)"/>
                        <path fill="#477BDE" d="M80.418 84.86c-4.547 6.25-13.299 7.63-19.549 3.085-6.25-4.547-7.63-13.3-3.084-19.549 4.546-6.25 13.299-7.63 19.548-3.084 6.25 4.547 7.631 13.298 3.085 19.548" transform="translate(-1171 -208) translate(902 162) matrix(-1 0 0 1 408 46.667) translate(32.43 .338)"/>
                        <path fill="#CDE1F9" d="M79.37 84.1c-4.125 5.671-12.068 6.924-17.74 2.798-5.67-4.126-6.924-12.069-2.798-17.74 4.126-5.672 12.068-6.925 17.74-2.8 5.672 4.127 6.925 12.07 2.799 17.741" transform="translate(-1171 -208) translate(902 162) matrix(-1 0 0 1 408 46.667) translate(32.43 .338)"/>
                        <path fill="#477BDE" d="M73.021 75.737l-2.36-1.718c.176.632.132 1.322-.26 2.042l1.559 1.134-.52.716-1.546-1.124c-1.203 1.354-3.039 1.442-4.911.167.273 1.97.428 4.314.557 6.66l-1.373-.998c-.138-2.156-.277-4.16-.58-6.569l.644-.886.787.572c1.544 1.124 2.843 1.084 3.66.17l-3.26-2.373.52-.715 3.218 2.341c.403-.975-.053-1.942-1.297-2.847l-1.016-.739.677-.93 6.022 4.381-.52.716z" transform="translate(-1171 -208) translate(902 162) matrix(-1 0 0 1 408 46.667) translate(32.43 .338) matrix(-1 0 0 1 137.128 0)"/>
                        <path fill="#CDE1F9" d="M56.995 65.213s.383-1.001-.224-2.051c-.606-1.05-1.664-1.22-1.664-1.22s1.368.17 2.133-.271c.766-.442 1.138-1.618 1.138-1.618s-.433.914.224 2.052c.657 1.139 1.665 1.22 1.665 1.22s-1.336-.177-1.987.199c-.65.375-1.285 1.69-1.285 1.69" transform="translate(-1171 -208) translate(902 162) matrix(-1 0 0 1 408 46.667) translate(32.43 .338)"/>
                        <path fill="#FFC693" d="M4.717 106.472s12.298-4.199 12.597-6.299c.3-2.1 6.3-9.598 16.197-8.398 9.898 1.2 6.599 2.7 14.098 2.7 7.498 0 5.998 4.584 5.998 4.584l-13.197 2.614 11.398.3 8.397-2.914s8.1-12.083 10.799-11.183c2.7.9 3.299 3 1.8 5.7-1.5 2.698-9.599 12.896-9.599 12.896L48.808 116.67H22.113l-5.698 3s-12.297-3.6-11.698-13.198" transform="translate(-1171 -208) translate(902 162) matrix(-1 0 0 1 408 46.667) translate(32.43 .338)"/>
                        <path fill="#DA1C5C" d="M7.473 122.384l-6.55-11.346c-1.272-2.203-.518-5.02 1.686-6.293l1.414-.816c2.203-1.272 5.021-.517 6.292 1.686l6.551 11.346c1.272 2.203.518 5.02-1.686 6.293l-1.414.816c-2.203 1.272-5.02.517-6.293-1.686" transform="translate(-1171 -208) translate(902 162) matrix(-1 0 0 1 408 46.667) translate(32.43 .338)"/>
                    </g>
                </g>
            </g>
        </g>
    </g>
</svg>
