<svg xmlns="http://www.w3.org/2000/svg" width="28" height="24" viewBox="0 0 28 24">
    <g fill="none" fill-rule="evenodd">
        <path fill="#E20041" d="M3.087 17.055V4.485l11.5 3.833V23.421s-.549.063-1.896-.401l-6.983-2.328c-1.565-.522-2.621-1.987-2.621-3.637" transform="translate(-.5 -.25)"/>
        <path d="M3.566 5.15v11.905c0 1.446.922 2.725 2.294 3.183l6.983 2.328c.573.196.988.292 1.264.337V8.665L3.567 5.15zm10.941 18.753c-.262 0-.876-.053-1.971-.43l-6.98-2.327c-1.763-.587-2.948-2.232-2.948-4.09V4.485c0-.154.074-.299.2-.39.124-.089.284-.115.43-.065l11.5 3.833c.195.066.328.249.328.455V23.42c0 .244-.183.449-.426.477-.022.002-.066.005-.133.005z" transform="translate(-.5 -.25)"/>
        <path fill="#BA0635" d="M3.563 11.103V4.485l11.516 1.99-2.475 7.335c0 .248-.464 1.062-1.608.793L5.07 12.574c-1.327-.303-1.506-.512-1.506-1.47" transform="translate(-.5 -.25)"/>
        <path fill="#FF1744" d="M.827 8.252l2.26-3.767L14.18 8.183l-2.298 4.187c-.232.385-.699.558-1.125.416L1.345 9.654C.843 9.488.572 8.945.74 8.442c.022-.066.05-.13.087-.19" transform="translate(-.5 -.25)"/>
        <path d="M1.238 8.498c-.019.032-.033.063-.044.096-.083.25.053.523.303.606l9.411 3.131c.215.075.448-.013.564-.208l2.012-3.667L3.3 5.062 1.238 8.498zm9.826 4.817c-.152 0-.306-.024-.458-.074L1.194 10.11C.443 9.859.034 9.043.284 8.29c.033-.098.077-.194.132-.285l2.26-3.767c.116-.192.35-.28.562-.208l11.094 3.697c.135.046.243.148.295.28.051.133.042.281-.026.406L12.303 12.6c-.274.458-.745.715-1.24.715z" transform="translate(-.5 -.25)"/>
        <path fill="#FF1744" d="M26.086 17.055V4.485l-11.5 3.833V23.421s.549.063 1.896-.401l6.983-2.328c1.565-.522 2.621-1.987 2.621-3.637" transform="translate(-.5 -.25)"/>
        <path d="M15.066 8.664v14.24c.275-.046.688-.14 1.26-.337l6.988-2.33c1.372-.457 2.293-1.735 2.293-3.182V5.15L15.066 8.664zm-.399 15.24c-.067 0-.111-.004-.134-.007-.243-.027-.426-.232-.426-.476V8.319c0-.207.133-.39.328-.454l11.5-3.833c.144-.05.305-.025.43.065.126.09.2.235.2.389v12.569c0 1.859-1.184 3.503-2.948 4.09l-6.984 2.33c-1.091.375-1.705.429-1.966.429z" transform="translate(-.5 -.25)"/>
        <path fill="#BA0635" d="M25.601 8.453l.485-3.968-11.061 3.688.003 4.404.758 1.549c.304.557 1.065.853 1.713.648l8.102-2.529V8.453z" transform="translate(-.5 -.25)"/>
        <path fill="#FF1744" d="M28.347 8.252l-2.261-3.767-11.062 3.688 2.273 4.2c.231.386.699.559 1.125.417l9.405-3.136c.502-.166.775-.709.607-1.212-.022-.066-.051-.13-.087-.19" transform="translate(-.5 -.25)"/>
        <path d="M15.717 8.447l2.002 3.698c.106.175.339.264.552.19L27.676 9.2c.251-.083.387-.355.303-.606-.01-.032-.025-.066-.043-.095L25.874 5.06 15.717 8.447zm2.397 4.872c-.493 0-.96-.255-1.227-.7l-2.284-4.218c-.067-.125-.077-.273-.024-.404.052-.132.16-.234.294-.278L25.935 4.03c.214-.07.446.016.562.208l2.26 3.767.001.001c.053.087.096.182.13.28.25.756-.157 1.572-.91 1.822l-9.405 3.135c-.151.051-.306.075-.459.075z" transform="translate(-.5 -.25)"/>
        <path fill="#BA0635" d="M3.087 4.486l9.075-3.026c1.574-.524 3.275-.524 4.849 0l9.075 3.026-11.5 3.833L3.088 4.486z" transform="translate(-.5 -.25)"/>
        <path d="M4.602 4.486l9.985 3.328 9.984-3.328-7.711-2.572c-1.466-.487-3.08-.487-4.546 0L4.602 4.486zm9.985 4.312c-.051 0-.103-.009-.152-.025L2.935 4.94c-.195-.065-.327-.248-.327-.454 0-.206.132-.39.328-.455l9.075-3.025c1.66-.554 3.49-.554 5.152 0l9.075 3.025c.195.066.327.249.327.455 0 .206-.132.389-.327.454l-11.5 3.833c-.049.016-.1.025-.151.025z" transform="translate(-.5 -.25)"/>
    </g>
</svg>
