<svg xmlns="http://www.w3.org/2000/svg" width="45" height="38" viewBox="0 0 45 38">
    <g fill="none" fill-rule="evenodd">
        <path stroke="#212121" stroke-width="1.897" d="M38.043 10.227A17.655 17.655 0 0 0 22.497.949c-8.845 0-16.24 6.528-17.475 15.115l33.021-5.837zM5.888 24.61a17.665 17.665 0 0 0 16.609 11.65c9.634 0 17.466-7.717 17.653-17.307L5.888 24.611z"/>
        <path fill="#FFF" d="M.698 17.97l42.257-7.452 1.153 6.54-42.257 7.45z"/>
        <path stroke="#212121" stroke-linecap="round" stroke-linejoin="round" stroke-width=".949" d="M35.764 10.06l3.419 1.804 1.333-3.628M8.358 25.18l-3.42-1.803-1.333 3.628"/>
        <g stroke="#212121" stroke-linecap="round" stroke-linejoin="round" stroke-width=".618">
            <path fill="#FF4569" d="M12.028 26.365l10.821 3.401V15.853l-10.82-3.71z"/>
            <path fill="#FF1744" d="M33.67 26.056V12.143l-10.82 3.71v13.913zM12.028 12.143l10.821 3.71-3.4 4.638-9.894-3.71z"/>
            <path fill="#FF4569" d="M22.85 15.853l10.82-3.71 2.474 4.947-9.894 3.71z"/>
            <path fill="#CC1236" d="M12.028 12.143L22.85 9.051l10.512 3.092-10.512 3.71z"/>
            <path d="M13.574 22.964v1.855l2.783.928M17.594 26.365l.927.31"/>
        </g>
    </g>
</svg>
