<?xml version="1.0" encoding="UTF-8"?>
<svg width="24px" height="24px" viewBox="0 0 24 24" version="1.1" xmlns="http://www.w3.org/2000/svg" xmlns:xlink="http://www.w3.org/1999/xlink">
    <title>Account_Female</title>
    <g id="Account_Female" stroke="none" stroke-width="1" fill="none" fill-rule="evenodd">
        <rect id="Rectangle" x="0" y="0" width="24" height="24"></rect>
        <g id="Group-17" transform="translate(0.000000, 4.000000)">
            <path d="M7.19614737,11.2120421 C7.25109474,11.9370947 6.92709474,12.6608842 6.41867368,13.1813053 C5.90962105,13.7010947 5.23256842,14.0326737 4.53088421,14.2246737 C5.01593684,14.2922526 5.50035789,14.3592 5.98541053,14.4274105 C6.34856842,14.4779368 6.71804211,14.5284632 7.0812,14.4779368 C7.60351579,14.4053053 8.07214737,14.1299368 8.52498947,13.8602526 C8.89004211,13.6442526 9.26141053,13.4219368 9.53930526,13.1010947 C9.8172,12.7802526 9.99025263,12.3387789 9.88667368,11.9276211 C9.81530526,11.6459368 9.62709474,11.4116211 9.44330526,11.1874105 C9.08962105,10.7541474 8.73593684,10.3215158 8.38162105,9.88825263 C8.16246316,9.61983158 7.78098947,8.90551579 7.39951579,8.88404211 C6.38267368,8.8272 7.16267368,10.7749895 7.19614737,11.2120421" id="Fill-1" fill="#A5DECD"></path>
            <path d="M9.30088421,1.39787368 C10.1648842,1.40482105 11.1760421,1.79008421 11.2455158,2.50755789 C11.2518316,2.57134737 11.2505684,2.63829474 11.2840421,2.6964 C11.3655158,2.83597895 11.5916211,2.8524 11.7779368,2.85618947 C14.2695158,2.90166316 16.7933053,2.9604 18.9665684,4.10166316 C20.1861474,4.74271579 20.7343579,5.79429474 20.2947789,6.97597895 C19.9695158,7.85450526 19.2185684,8.57513684 18.4417263,9.22818947 C16.7314105,10.6656632 14.7899368,11.9130316 12.6867789,12.9279789 C16.8078316,12.1574526 20.5082526,9.66903158 23.1299368,6.99429474 C23.3093053,6.81176842 23.6579368,5.89408421 23.6970947,5.66103158 C23.7450947,5.37303158 23.5594105,5.09703158 23.3800421,4.84755789 C23.0200421,4.34545263 22.6499368,3.83261053 22.1105684,3.45871579 C21.6469895,3.13724211 21.0810947,2.93387368 20.5076211,2.77913684 C18.2225684,2.16018947 17.2676211,1.87597895 14.8669895,1.97134737 C14.3667789,1.02334737 12.5055158,0.107557895 10.4648842,0.602715789 C9.69372632,0.790294737 8.84235789,1.39408421 9.30088421,1.39787368" id="Fill-3" fill="#A5DECD"></path>
            <path d="M7.64766316,8.40941053 C8.36766316,8.42456842 9.10471579,8.14351579 9.73882105,7.77341053 C10.5845053,7.27951579 11.3386105,6.62646316 12.2310316,6.22162105 C13.5504,5.62351579 15.1312421,5.63109474 16.4455579,6.2412" id="Stroke-5" stroke="#444B55" stroke-width="0.859578947" stroke-linecap="round"></path>
            <path d="M9.44772632,1.21717895 C9.76351579,0.999284211 10.1007789,0.821178947 10.4550947,0.689810526 C12.2481474,0.0222315789 14.4068842,0.663284211 15.5633053,2.33570526" id="Stroke-7" stroke="#444B55" stroke-width="0.8" stroke-linecap="round"></path>
            <path d="M2.73132632,7.73772632 C2.06437895,8.27962105 1.41574737,8.86762105 0.967957895,9.60151579 C0.5208,10.3347789 0.291536842,11.2392 0.518273684,12.0678316 C0.750063158,12.9154105 1.43469474,13.5899368 2.22985263,13.9632 C3.02501053,14.3370947 3.92122105,14.4413053 4.79974737,14.4375158 C6.15448421,14.4324632 7.50732632,14.1798316 8.77301053,13.6979368 C9.24922105,13.5160421 9.75574737,13.2602526 9.94395789,12.7865684 C10.1530105,12.2617263 9.88585263,11.6592 9.50690526,11.2398316 C9.0168,10.6979368 8.33722105,10.3196211 7.96837895,9.66972632 C7.76943158,9.3192 7.68543158,8.91309474 7.65701053,8.51141053" id="Stroke-9" stroke="#444B55" stroke-width="0.8" stroke-linecap="round"></path>
            <path d="M15.6450947,6.11684211 C15.8282526,7.30231579 15.4890947,8.77831579 15.1600421,9.91452632 C14.8853053,10.8644211 14.4324632,11.7833684 13.7238316,12.4724211 C13.6019368,12.5917895 13.4617263,12.7256842 13.4629895,12.8974737 C13.4712,13.6421053 17.0655158,11.7890526 17.4179368,11.604 C19.2634105,10.632 21.0766737,9.52736842 22.5166737,7.99768421 C23.0187789,7.464 23.4829895,6.85705263 23.6453053,6.14273684 C23.9516211,4.79242105 23.0333053,3.52673684 21.8768842,2.928 C20.8840421,2.41326316 19.7352,2.29642105 18.6166737,2.26863158 C14.8846737,2.17515789 11.1463579,2.99747368 7.76614737,4.58273684 C7.41625263,4.74757895 7.06951579,4.91936842 6.72783158,5.10063158" id="Stroke-11" stroke="#444B55" stroke-width="0.8" stroke-linecap="round"></path>
            <path d="M12.2864211,9.90877895 L12.2782105,9.90877895 L12.2706316,9.90877895 C11.8253684,9.94477895 11.5171579,10.0534105 11.1704211,10.4614105 C11.3245263,10.6812 11.7047368,11.0525684 12.1878947,11.1068842 C12.2188421,11.1106737 12.2478947,11.1087789 12.2782105,11.1106737 C12.3091579,11.1087789 12.3382105,11.1106737 12.3691579,11.1068842 C12.8523158,11.0525684 13.2325263,10.6812 13.3866316,10.4614105 C13.0398947,10.0534105 12.7316842,9.94477895 12.2864211,9.90877895" id="Fill-13" fill="#FFA3A9"></path>
            <path d="M8.48431579,2.87507368 C8.30052632,2.86749474 8.15778947,2.71212632 8.166,2.52833684 C8.17357895,2.34454737 8.32831579,2.20244211 8.51210526,2.21002105 C8.69589474,2.2176 8.83863158,2.37296842 8.83105263,2.55612632 C8.82347368,2.73991579 8.66810526,2.88328421 8.48431579,2.87507368" id="Fill-15" fill="#444B55"></path>
        </g>
    </g>
</svg>