<svg xmlns="http://www.w3.org/2000/svg" width="24" height="24" viewBox="0 0 24 24">
    <g fill="none" fill-rule="evenodd">
        <path fill="#FFF" d="M0 0h24v24H0z"/>
        <path fill="#FF1744" d="M19.285 5.068a3.967 3.967 0 1 1-.83 7.89 3.967 3.967 0 0 1 .83-7.89zm-.082.777c-1.766-.185-3.346 1.083-3.53 2.832-.184 1.75 1.098 3.319 2.864 3.504 1.765.186 3.346-1.082 3.53-2.832.184-1.75-1.099-3.318-2.864-3.504z"/>
        <path fill="#FFF" d="M11.008 6.124l7.84 4.319-.699 7.094-3.105 1.009z"/>
        <path fill="#FF1744" d="M14.327 7.638l2.248.73-1.683 1.242z"/>
        <g stroke="#2D2D2D" stroke-linecap="round" stroke-linejoin="round" stroke-width=".827">
            <path d="M16.515 18.338h-4.541M16.65 20.205h-4.81a.436.436 0 0 1-.436-.436v-8.482c0-.24.195-.436.436-.436H16.649c.241 0 .436.195.436.436v8.482c0 .241-.195.436-.436.436z"/>
            <path d="M14.396 19.28a.152.152 0 1 0-.303 0 .152.152 0 0 0 .303 0zM13.681 11.797h1.126M12.428 10.79l-1.58-2.126H6.375L4.13 11.683c-.716.963-1.133 2.126-1.13 3.326.004 1.855.976 4.082 5.611 4.082 1.863 0 2.622-.037 2.622-.037M10.931 7.46h-4.64c-.214 0-.39.234-.39.52v.16c0 .286.176.52.39.52h4.64c.215 0 .39-.234.39-.52v-.16c0-.286-.175-.52-.39-.52z"/>
            <path d="M10.168 5.503l-.436.436-.19-.192c-.5-.5-1.31-.5-1.81 0l-.19.192-.436-.436a1.035 1.035 0 0 0-1.465 0l-.539.54 1.503 1.456h4.064l1.503-1.456-.54-.54a1.035 1.035 0 0 0-1.464 0z"/>
        </g>
    </g>
</svg>
