<svg xmlns="http://www.w3.org/2000/svg" width="24" height="24" viewBox="0 0 24 24">
    <g fill="none" fill-rule="evenodd">
        <path fill="#FFF" d="M0 0h24v24H0z"/>
        <path fill="#2D2D2D" d="M16.907 14.157l-.09 1.913c0 .198-.045.373-.134.527l-1.077 1.935a.42.42 0 0 0-.067.22v1.473h-5V19.19a.417.417 0 0 0-.09-.263L6.86 13.652c-.09-.132-.112-.287-.09-.44.023-.066.068-.22.225-.308.09-.044.269-.154.785.242l.83.703a.7.7 0 0 1 .223.484v.308a.493.493 0 0 0 .987 0V7.386c0-.132.067-.264.157-.374.112-.088.247-.154.381-.132.27.022.494.264.494.55V12.442a.493.493 0 0 0 .986 0v-2.198c0-.132.067-.264.157-.374a.48.48 0 0 1 .381-.132c.27.022.494.264.494.55v2.176a.493.493 0 0 0 .986 0v-1.67c0-.132.068-.264.157-.374a.617.617 0 0 1 .381-.132c.27.022.494.264.494.55v2.242a.493.493 0 0 0 .986 0V11.65c0-.132.068-.264.157-.374a.618.618 0 0 1 .382-.132c.269.022.493.264.493.55v2.462zm-.516-3.935a1.359 1.359 0 0 0-.673.11c-.201-.55-.695-.967-1.323-.99a1.454 1.454 0 0 0-.807.176 1.552 1.552 0 0 0-1.188-.747 1.3 1.3 0 0 0-.583.088v-1.43a1.51 1.51 0 0 0-1.413-1.516 1.448 1.448 0 0 0-1.099.396c-.291.264-.47.66-.47 1.055v5.408l-.427-.374c-.695-.55-1.323-.66-1.883-.352a1.437 1.437 0 0 0-.673.924 1.5 1.5 0 0 0 .224 1.187l3.498 5.166v1.363c0 .264.225.484.494.484h5.987c.269 0 .493-.22.493-.484v-1.825l1.01-1.824a1.91 1.91 0 0 0 .246-.99v-4.33c0-.791-.628-1.451-1.413-1.495z"/>
        <path fill="#FF1744" d="M10.27 4.792c.246 0 .448-.198.448-.418V2.44A.445.445 0 0 0 10.27 2a.445.445 0 0 0-.449.44v1.912c0 .242.202.44.449.44M12.265 5.385a.447.447 0 0 0 .314-.131l1.39-1.363a.42.42 0 0 0 0-.616.44.44 0 0 0-.627 0l-1.39 1.363a.419.419 0 0 0 0 .616c.089.088.201.131.313.131M7.96 5.254c.09.087.202.132.314.132a.449.449 0 0 0 .314-.132.42.42 0 0 0 0-.616l-1.39-1.363a.44.44 0 0 0-.628 0 .419.419 0 0 0 0 .616l1.39 1.363zM7.87 6.683a.445.445 0 0 0-.448-.44H5.449a.445.445 0 0 0-.449.44c0 .241.202.44.449.44h1.973a.445.445 0 0 0 .448-.44M12.624 6.683c0 .241.202.44.449.44h1.973a.446.446 0 0 0 .448-.44.445.445 0 0 0-.448-.44h-1.973a.445.445 0 0 0-.449.44"/>
    </g>
</svg>
