<svg xmlns="http://www.w3.org/2000/svg" width="24" height="24" viewBox="0 0 24 24">
    <g fill="none" fill-rule="evenodd">
        <path fill="#FFF" d="M0 0h24v24H0z"/>
        <g fill="#2D2D2D" fill-rule="nonzero" transform="matrix(1 0 0 -1 4 16.429)">
            <path d="M14.4.203h-2.35v.89h2.35c.393 0 .71.318.711.71v7.311c0 .393-.318.711-.711.711H1.6a.712.712 0 0 1-.711-.71V1.802c0-.392.318-.71.711-.71h4.35v-.89H1.6a1.602 1.602 0 0 0-1.6 1.6v7.311a1.602 1.602 0 0 0 1.6 1.6h12.8a1.602 1.602 0 0 0 1.6-1.6v-7.31a1.602 1.602 0 0 0-1.6-1.6z"/>
            <rect width="16" height="1" y="6.429" rx=".444"/>
        </g>
        <path fill="#2D2D2D" d="M7.544 13.115c.34-.185.655-.146.868.11a.641.641 0 0 1-.009.818c-.209.246-.527.283-.857.1-.311.19-.643.162-.878-.116a.632.632 0 0 1-.003-.796c.21-.26.525-.302.879-.116"/>
        <g fill="#FF1744">
            <path d="M15.273 18.935a.413.413 0 0 1-.335-.172l-2.44-3.368a.414.414 0 1 1 .672-.486l2.438 3.369a.414.414 0 0 1-.335.657"/>
            <path d="M10.78 12.03l4.566 2.914a.182.182 0 0 1 .011.298l-3.234 2.43a.182.182 0 0 1-.285-.102l-1.332-5.344a.182.182 0 0 1 .274-.197"/>
        </g>
    </g>
</svg>
