<svg xmlns="http://www.w3.org/2000/svg" width="24" height="24" viewBox="0 0 24 24">
    <g fill="none" fill-rule="evenodd">
        <path fill="#FFF" d="M0 0h24v24H0z"/>
        <g fill="#2D2D2D" fill-rule="nonzero" transform="translate(4 7.571)">
            <path d="M14.4.203h-2.35v.89h2.35c.393 0 .71.318.711.71v6.311c0 .393-.318.711-.711.711H1.6a.712.712 0 0 1-.711-.71V1.802c0-.392.318-.71.711-.71h2.35v-.89H1.6a1.602 1.602 0 0 0-1.6 1.6v6.311a1.602 1.602 0 0 0 1.6 1.6h12.8a1.602 1.602 0 0 0 1.6-1.6v-6.31a1.602 1.602 0 0 0-1.6-1.6z"/>
            <rect width="11.378" height="1" x="2.311" y="3.492" rx=".444"/>
        </g>
        <g transform="translate(8.571 3)">
            <circle cx="3.429" cy="3.429" r="3.095" stroke="#FF1744" stroke-width=".667"/>
            <path fill="#FF1744" fill-rule="nonzero" d="M4.315 5.486L3.31 4.108c-.116-.164-.198-.261-.256-.302.261-.046.469-.149.633-.308a.826.826 0 0 0 .242-.507h.55l.083-.256h-.628a.949.949 0 0 0-.315-.65h.87l.082-.256H2.373l-.082.256h.444c.251 0 .45.066.595.2a.73.73 0 0 1 .207.45h-1.17l-.081.256h1.246a.601.601 0 0 1-.227.384c-.164.128-.406.195-.725.195h-.26v.292c.125 0 .236.036.333.102.077.057.164.149.256.282l.87 1.24h.536z"/>
        </g>
    </g>
</svg>
