<svg xmlns="http://www.w3.org/2000/svg" width="10" height="10" viewBox="0 0 10 10">
    <g fill="none" fill-rule="evenodd">
        <g fill-rule="nonzero">
            <g>
                <g>
                    <g>
                        <path stroke="#8D8D8D" stroke-width=".578" d="M9.996 4.916C9.901 2.196 7.733.054 5 .001 2.24-.052.053 2.32 0 5c-.052 2.76 2.32 4.946 5 4.998 2.731.053 4.9-2.27 4.996-4.914C10 5.057 10 5.029 10 5c0-.029-.001-.057-.004-.084z" transform="translate(-1115 -278) translate(979 274) translate(136 4)"/>
                        <path fill="#8D8D8D" d="M4.933 7.521c.026.03.054.045.083.045.052 0 .102-.023.15-.067.137-.111.299-.311.484-.6l.155.09c-.451.784-.931 1.177-1.438 1.177-.193 0-.347-.055-.461-.164-.115-.11-.172-.248-.172-.414 0-.111.025-.252.077-.422l.622-2.138c.06-.204.09-.358.09-.461 0-.067-.03-.126-.087-.178-.057-.052-.134-.078-.23-.078-.048 0-.102.002-.161.006l.055-.178 1.517-.244h.266l-.916 3.177c-.049.181-.073.301-.073.36 0 .03.013.06.04.09zM6.072 2.96c-.13.127-.285.19-.467.19-.177 0-.33-.063-.458-.19-.128-.129-.192-.283-.192-.465 0-.18.063-.336.19-.466.125-.13.279-.194.46-.194.185 0 .342.064.47.194.127.13.191.285.191.466 0 .182-.065.336-.194.464z" transform="translate(-1115 -278) translate(979 274) translate(136 4)"/>
                    </g>
                </g>
            </g>
        </g>
    </g>
</svg>
