<svg id="Layer_1" data-name="Layer 1" xmlns="http://www.w3.org/2000/svg" xmlns:xlink="http://www.w3.org/1999/xlink" viewBox="0 0 130 130">
    <defs>
        <style>.cls-1{fill:url(#radial-gradient);}.cls-2{fill:#1b1519;}.cls-3{fill:#efefef;}</style>
        <radialGradient id="radial-gradient" cx="-1249.44" cy="-377.27" fx="-1298.0907950673522" r="77.64" gradientTransform="translate(-1212.91 -298.11) rotate(175.59) scale(1 1.22)" gradientUnits="userSpaceOnUse">
            <stop offset="0.11" stop-color="#f2f2f2"/>
            <stop offset="0.3" stop-color="#d3d3d3"/>
            <stop offset="0.49" stop-color="#bcbcbc"/>
            <stop offset="0.61" stop-color="#b3b3b3"/>
        </radialGradient>
    </defs>
    <rect class="cls-1" x="1.29" y="26.46" width="125.29" height="75.65" rx="37.83" transform="translate(-22.08 35.63) rotate(-26.74)"/>
    <path class="cls-2" d="M63.93,74.6c-4.3,0-7.34-.73-8.25-1.2a1.05,1.05,0,0,1,1-1.87,21.54,21.54,0,0,0,7.29,1,25.6,25.6,0,0,0,7.46-1,1,1,0,0,1,1.31.68A1.05,1.05,0,0,1,72,73.47,27.61,27.61,0,0,1,63.93,74.6Z"/>
    <ellipse class="cls-3" cx="41.69" cy="69.6" rx="5.28" ry="3.46"/>
    <ellipse class="cls-3" cx="86.18" cy="69.6" rx="5.28" ry="3.46"/>
    <path class="cls-2" d="M47.13,56.8a6.67,6.67,0,0,1-13.34,0c0-3.68,3-5.61,6.67-5.61S47.13,53.12,47.13,56.8Z"/>
    <path class="cls-2" d="M94.07,56.8a6.67,6.67,0,0,1-13.34,0c0-3.68,3-5.61,6.67-5.61S94.07,53.12,94.07,56.8Z"/>
</svg>
