<?xml version="1.0" encoding="UTF-8"?>
<svg width="24px" height="24px" viewBox="0 0 24 24" version="1.1" xmlns="http://www.w3.org/2000/svg" xmlns:xlink="http://www.w3.org/1999/xlink">
    <title>Account_Male</title>
    <g id="Account_Male" stroke="none" stroke-width="1" fill="none" fill-rule="evenodd">
        <rect id="Rectangle" x="0" y="0" width="24" height="24"></rect>
        <g id="Group-17" transform="translate(2.000000, 4.000000)">
            <path d="M9.55135294,1.78447059 C10.3042941,1.54152941 11.1784118,1.71741176 11.7784118,2.23388235 C12.3784118,2.74976471 12.6825294,3.58741176 12.5542941,4.36858824 C13.1631176,4.48917647 13.8872353,4.61329412 14.3925294,4.99623529 C15.3307647,5.70741176 16.1919412,6.69329412 16.4007647,7.89211765 C16.6054706,9.06917647 15.9078235,9.68388235 14.8948824,10.0468235 C15.2025294,10.3727059 14.2695882,12.5462353 14.5784118,12.8721176 C14.7519412,13.0556471 15.9884118,12.308 16.239,12.3450588 C16.5331176,12.3891765 17.0054706,11.2991765 17.2448824,11.1232941 C17.7625294,10.7427059 18.3031176,10.3350588 18.5548824,9.74447059 C18.7178235,9.36094118 19.0425294,9.54388235 19.1095882,9.13270588 C19.1848824,8.67564706 19.4984118,7.92976471 19.5119412,7.46741176 C19.5248824,7.00447059 19.7654706,6.07152941 19.4166471,5.76682353 C19.2342941,5.60623529 18.2119412,4.43917647 17.9878235,4.34388235 C16.9937059,3.92211765 15.9648824,4.64564706 15.0184118,4.12623529 C14.8466471,4.03270588 14.6684118,3.92976471 14.5672353,3.76270588 C14.4884118,3.63211765 14.4654706,3.47564706 14.4395882,3.32505882 C14.3260588,2.66329412 14.1266471,2.01623529 13.8478235,1.40505882 C13.6907647,1.06152941 13.5037059,0.723882353 13.2272353,0.466823529 C12.9501765,0.209764706 12.5701765,0.0427058824 12.1966471,0.0962352941 C11.6572353,0.172705882 11.2842941,0.639764706 10.8319412,0.896235294 C10.6260588,1.01270588 10.4037059,1.09152941 10.2019412,1.21741176 C10.0054706,1.33976471 9.74252941,1.72270588 9.55135294,1.78447059" id="Fill-1" fill="#FFA3A9"></path>
            <path d="M10.5331176,13.5445882 C10.4807647,13.4945882 10.4142941,13.4569412 10.349,13.4310588 C10.1254706,13.344 9.89370588,13.2887059 9.65311765,13.2810588 C9.32664706,13.2698824 9.02194118,13.3622353 8.75252941,13.5428235 C8.27252941,13.864 7.95370588,14.1469412 7.33841176,14.1057647 C7.26841176,14.1010588 8.16370588,14.5092941 8.70135294,14.5998824 C9.30017647,14.7016471 10.1737059,14.5198824 10.5442941,13.9892941 C10.5848824,13.9310588 10.6184118,13.8663529 10.6284118,13.7963529 C10.6431176,13.6934118 10.6007647,13.6087059 10.5331176,13.5445882" id="Fill-3" fill="#444B55"></path>
            <path d="M10.6014706,13.5445882 C10.6532353,13.4945882 10.7197059,13.4569412 10.7855882,13.4310588 C11.0091176,13.344 11.2408824,13.2887059 11.4814706,13.2810588 C11.8079412,13.2698824 12.1120588,13.3622353 12.3820588,13.5428235 C12.8620588,13.864 13.1808824,14.1469412 13.7961765,14.1057647 C13.8661765,14.1010588 12.9702941,14.5092941 12.4332353,14.5998824 C11.8344118,14.7016471 10.9608824,14.5198824 10.5897059,13.9892941 C10.5497059,13.9310588 10.5155882,13.8663529 10.5061765,13.7963529 C10.4908824,13.6934118 10.5338235,13.6087059 10.6014706,13.5445882" id="Fill-5" fill="#444B55"></path>
            <path d="M0.885235294,10.0605294 C0.492882353,10.6152353 0.289941176,11.2664118 0.461117647,12.0434706 C0.848764706,13.8093529 5.96935294,14.3034706 5.96935294,14.3034706 C6.00229412,14.1905294 6.00876471,14.0699412 5.99111765,13.9534706 C5.38758824,12.9181765 5.05288235,11.4140588 5.07405882,10.2328824" id="Stroke-7" stroke="#444B55" stroke-width="0.8" stroke-linecap="round"></path>
            <path d="M4.19288235,5.76652941 C4.10582353,5.15358824 3.98464706,3.60770588 4.09817647,2.99888235 C4.26464706,2.10594118 4.52876471,1.09358824 5.34288235,0.690647059 C6.02405882,0.354176471 6.83935294,0.580647059 7.54994118,0.849470588 C8.33582353,1.14652941 9.10405882,1.49123529 9.84876471,1.88064706" id="Stroke-9" stroke="#444B55" stroke-width="0.8" stroke-linecap="round"></path>
            <path d="M10.567,0.960117647 C11.0340588,0.616 11.3958235,0.632470588 11.9281765,0.498941176 C12.4611176,0.365411765 13.077,0.322470588 13.5093529,0.660117647 C13.8711176,0.942470588 14.0117059,1.41717647 14.1322941,1.86011765 C14.3011176,2.48423529 14.3011176,3.36070588 14.4699412,3.98482353" id="Stroke-11" stroke="#444B55" stroke-width="0.8" stroke-linecap="round"></path>
            <path d="M4.46405882,9.937 C4.65405882,10.2058235 5.03876471,10.2293529 5.36641176,10.207 C7.63347059,10.0505294 9.73758824,8.38111765 11.9928824,8.10876471 C12.5434706,8.04170588 13.1217059,8.02935294 13.6328824,8.24464706 C14.1440588,8.45935294 14.5864118,9.067 14.5781765,9.62170588 C14.5699412,10.1799412 14.6111176,10.7381765 14.5822941,11.297 C14.5552353,11.8299412 14.4081765,12.3434706 14.2646471,12.8540588 C16.7158235,12.6217059 19.2346471,10.5234706 19.6881765,8.04405882 C20.8775882,1.54170588 11.0375882,4.60935294 8.26935294,5.65464706 C6.76817647,6.22111765 5.31523529,6.91288235 3.92994118,7.72170588 C3.67876471,7.86817647 3.42994118,8.01876471 3.18288235,8.17288235" id="Stroke-13" stroke="#444B55" stroke-width="0.8" stroke-linecap="round"></path>
            <path d="M1.76929412,9.06441176 C1.76929412,8.86852941 1.92811765,8.70911765 2.12458824,8.70911765 C2.32047059,8.70911765 2.47929412,8.86852941 2.47929412,9.06441176 C2.47929412,9.26088235 2.32047059,9.41970588 2.12458824,9.41970588 C1.92811765,9.41970588 1.76929412,9.26088235 1.76929412,9.06441176" id="Fill-15" fill="#444B55"></path>
        </g>
    </g>
</svg>