<svg xmlns="http://www.w3.org/2000/svg" width="22" height="22" viewBox="0 0 22 22">
    <g fill="none" fill-rule="evenodd">
        <path fill="#FFF" d="M0 0h21.224v21.224H0z"/>
        <path fill="#2C2C2C" d="M16.78 11.855c-.083.033-.142.055-.199.08-1.993.885-3.985 1.772-5.98 2.653-.115.051-.154.113-.154.243.004 1.305.002 2.61.002 3.916 0 .048.007.096.012.162.07-.028.13-.048.187-.074 1.988-.882 3.975-1.767 5.964-2.646.124-.055.173-.117.172-.266-.007-1.288-.004-2.575-.004-3.862v-.206zm-13.398-.007v.3c0 1.256.002 2.513-.003 3.77-.001.144.038.212.167.269 1.695.747 3.388 1.501 5.082 2.254l1.085.48v-.205c0-1.294-.003-2.587.002-3.88 0-.14-.045-.201-.164-.254-1.835-.81-3.666-1.627-5.499-2.441-.212-.094-.425-.186-.67-.293zm6.594 8.05c-.268-.127-.535-.258-.806-.378-2.051-.914-4.104-1.825-6.156-2.737-.32-.142-.358-.203-.358-.562 0-1.624.001-3.25-.003-4.874 0-.213.061-.368.254-.454L7.7 8.755l.286.707-4.029 1.8 1.322.589c1.555.69 3.11 1.382 4.667 2.068.075.033.185.04.258.007 1.953-.861 3.903-1.729 5.853-2.596.036-.016.07-.037.136-.072l-4.015-1.795.282-.708 1.126.5c1.202.537 2.402 1.076 3.606 1.607.222.098.319.243.318.503-.007 1.606-.003 3.213-.003 4.819 0 .412-.024.45-.39.613l-6.735 2.991c-.068.03-.131.073-.196.11h-.21z"/>
        <path fill="#FF1744" d="M10.113 1.327c.866.006 1.615.339 2.266.883.722.603 1.203 1.357 1.364 2.292.008.045.015.09.019.136l.028.395c-.007.957-.379 1.775-.98 2.5-.468.563-.962 1.103-1.429 1.666a5.113 5.113 0 0 0-.935 1.715c-.069.213-.187.313-.362.317-.174.004-.306-.095-.37-.304-.31-.998-.953-1.782-1.632-2.55-.422-.479-.852-.963-1.184-1.502-.914-1.484-.62-3.3.671-4.485.719-.66 1.546-1.07 2.544-1.063zm-.032 2.2c-.765-.004-1.493.709-1.492 1.463 0 .752.712 1.458 1.471 1.46.777.001 1.485-.69 1.49-1.457.007-.744-.712-1.46-1.47-1.466zm.002.72c.463.004.742.299.733.774-.009.447-.298.718-.758.712-.465-.007-.739-.29-.732-.754.007-.462.29-.735.757-.731z"/>
    </g>
</svg>
