<?xml version="1.0" encoding="UTF-8"?>
<svg width="134px" height="40px" viewBox="0 0 134 40" version="1.1" xmlns="http://www.w3.org/2000/svg" xmlns:xlink="http://www.w3.org/1999/xlink">
    <!-- Generator: Sketch 52.6 (67491) - http://www.bohemiancoding.com/sketch -->
    <title>Group 23</title>
    <desc>Created with Sketch.</desc>
    <g id="PLP" stroke="none" stroke-width="1" fill="none" fill-rule="evenodd">
        <g id="Ratings-&amp;-Reviews-Pagination" transform="translate(-649.000000, -1538.000000)">
            <g id="Group" transform="translate(484.000000, 1538.000000)">
                <g id="Group-25" transform="translate(165.000000, 0.000000)">
                    <g id="Group-23">
                        <g id="Group-21" transform="translate(23.000000, 12.000000)" fill="#212121" fill-opacity="0.93">
                            <text id="PREVIOUS" font-family="Rubik-Medium, Rubik" font-size="14" font-weight="400">
                                <tspan x="19.154" y="13">PREVIOUS</tspan>
                            </text>
                            <path d="M6.69491336,9.7209458 L1.57185375,14.7359549 C1.2122083,15.088015 0.62937954,15.088015 0.269734089,14.7359549 C-0.0899113629,14.3838947 -0.0899113629,13.8133584 0.269734089,13.4612982 L4.82715292,9 L0.269734089,4.53870176 C-0.0899113629,4.1866416 -0.0899113629,3.61610529 0.269734089,3.26404512 C0.62937954,2.91198496 1.2122083,2.91198496 1.57185375,3.26404512 L6.69491336,8.2790542 C7.10169555,8.67725694 7.10169555,9.32274306 6.69491336,9.7209458 Z" id="Shape" fill-rule="nonzero" transform="translate(3.500000, 9.000000) rotate(180.000000) translate(-3.500000, -9.000000) "></path>
                        </g>
                        <rect id="Rectangle" stroke="#6C6C6C" fill-rule="nonzero" x="0.5" y="0.5" width="133" height="39" rx="19.5"></rect>
                    </g>
                </g>
            </g>
        </g>
    </g>
</svg>