<svg xmlns="http://www.w3.org/2000/svg" width="16" height="16" viewBox="0 0 16 16">
    <g fill="none" fill-rule="evenodd">
        <g>
            <g>
                <g>
                    <g>
                        <g>
                            <path d="M0 0H16V16H0z" transform="translate(-547 -575) translate(456 117) translate(54 457) translate(37 1)"/>
                        </g>
                        <path fill="#F5D727" d="M7.706 12.818L3.659 15.9c-.223.17-.536.118-.699-.116-.094-.136-.12-.31-.07-.47l1.546-4.987c.067-.216-.007-.453-.182-.586L.206 6.66c-.223-.17-.273-.499-.11-.733.094-.136.244-.216.404-.216h5.003c.217 0 .409-.146.476-.362L7.524.362c.086-.275.368-.426.63-.336.153.052.272.177.322.336L10.02 5.35c.067.216.26.363.476.362H15.5c.276 0 .5.235.5.524 0 .168-.077.326-.206.425l-4.048 3.08c-.175.134-.248.371-.181.587l1.546 4.987c.085.275-.059.57-.321.66-.153.052-.32.024-.449-.074l-4.047-3.082c-.175-.134-.413-.134-.588 0z" transform="translate(-547 -575) translate(456 117) translate(54 457) translate(37 1)"/>
                    </g>
                </g>
            </g>
        </g>
    </g>
</svg>
