<svg enable-background="new 0 0 50 50" height="50" viewBox="0 0 50 50" width="50" xmlns="http://www.w3.org/2000/svg" xmlns:xlink="http://www.w3.org/1999/xlink"><mask id="a" height="39.863" maskUnits="userSpaceOnUse" width="34" x="8" y="-.507"><path d="m42 19.42v-19.926h-34v19.926 19.936h34z" fill="#fff"/></mask><g><path d="m25 27.888c-.417 0-.845-.135-1.181-.401l-6.902-5.458c-.797-.63-.912-1.76-.252-2.523.65-.765 1.829-.879 2.625-.249l5.71 4.514 5.882-4.662c.795-.619 1.982-.517 2.624.249.661.764.555 1.893-.242 2.523l-7.081 5.605c-.339.267-.766.402-1.183.402"/><path d="m25 25.915c-1.03 0-1.873-.799-1.873-1.793v-14.348c0-.993.843-1.793 1.873-1.793 1.029 0 1.863.8 1.863 1.793v14.348c-.001.993-.835 1.793-1.863 1.793"/><path d="m11.734 24.761 13.266 10.48 13.277-10.48v-21.681h-26.543zm13.266 14.595c-.417 0-.845-.133-1.181-.401l-15.138-11.956c-.431-.355-.681-.859-.681-1.392v-24.321c0-.994.833-1.793 1.862-1.793h30.277c1.028 0 1.861.8 1.861 1.793v24.321c0 .533-.261 1.037-.692 1.392l-15.125 11.956c-.339.268-.766.401-1.183.401z" mask="url(#a)" transform="translate(0 .685818)"/><path d="m40.138 49.831h-30.094c-1.03 0-1.862-.82-1.862-1.794 0-.993.833-1.793 1.862-1.793h30.094c1.029 0 1.861.8 1.861 1.793 0 .974-.832 1.794-1.861 1.794"/></g></svg>