<svg xmlns="http://www.w3.org/2000/svg" width="20" height="16" viewBox="0 0 20 16">
    <path fill="#1DA1F2" d="M6.181 15.992c7.417 0 11.473-6.145 11.473-11.473 0-.174-.004-.348-.012-.521.788-.57 1.472-1.28 2.012-2.088-.723.321-1.5.537-2.316.635.833-.5 1.472-1.29 1.773-2.23-.779.461-1.642.797-2.56.978C15.815.51 14.767.02 13.607.02c-2.226 0-4.032 1.806-4.032 4.032 0 .317.035.624.104.92C6.33 4.8 3.356 3.196 1.368.756 1.02 1.353.822 2.046.822 2.784c0 1.4.712 2.634 1.794 3.357-.661-.02-1.283-.202-1.826-.505v.052C.79 7.64 2.18 9.27 4.023 9.64c-.338.092-.695.142-1.063.142-.26 0-.512-.026-.758-.073.514 1.602 2.002 2.768 3.767 2.8-1.38 1.082-3.119 1.727-5.008 1.727-.325 0-.646-.019-.962-.056 1.785 1.144 3.904 1.811 6.181 1.811"/>
</svg>
