<svg xmlns="http://www.w3.org/2000/svg" width="16" height="16" viewBox="0 0 16 16">
    <g fill="#212121">
        <path d="M6.633 12.195L4.748 14.08c-.782.782-2.048.782-2.829 0-.78-.78-.78-2.047 0-2.828l3.772-3.77c.78-.782 2.046-.782 2.827 0 .26.26.683.26.943 0 .26-.261.26-.683 0-.944-1.301-1.301-3.412-1.301-4.713 0L.976 10.31c-1.301 1.301-1.301 3.411 0 4.713 1.302 1.303 3.412 1.303 4.715 0l1.885-1.885c.26-.26.26-.683 0-.943-.26-.26-.683-.26-.943 0z"/>
        <path d="M15.023.976c-1.301-1.301-3.412-1.301-4.714 0L8.047 3.238c-.26.26-.26.683 0 .943.26.26.683.26.943 0l2.262-2.262c.781-.78 2.048-.78 2.829 0 .78.781.78 2.047 0 2.828L9.933 8.895c-.781.78-2.047.78-2.828 0-.26-.26-.683-.26-.943 0-.26.26-.26.682 0 .943 1.302 1.301 3.412 1.301 4.713 0l4.148-4.148c1.302-1.302 1.302-3.412 0-4.714z"/>
    </g>
</svg>
