<svg height="18" viewBox="0 0 32 18" width="32" xmlns="http://www.w3.org/2000/svg"><g fill="#212121"><path d="m11.3898305 1.08474576c-6.07294914 0-10.30508474 2.00081356-10.30508474 3.79661017s4.2321356 3.79661017 10.30508474 3.79661017c6.0729492 0 10.3050848-2.00081356 10.3050848-3.79661017s-4.2321356-3.79661017-10.3050848-3.79661017m0 8.6779661c-6.38698304 0-11.3898305-2.144-11.3898305-4.88135593s5.00284746-4.88135593 11.3898305-4.88135593c6.3869831 0 11.3898305 2.144 11.3898305 4.88135593s-5.0028474 4.88135593-11.3898305 4.88135593"/><path d="m1.08474576 6.99574237v5.47905083c0 1.7952543 4.2321356 3.7966102 10.30508474 3.7966102 6.0729492 0 10.3050848-2.0013559 10.3050848-3.7966102v-5.47905083c-1.8077289 1.65044068-5.696 2.76718644-10.3050848 2.76718644-4.60908474 0-8.49735592-1.11674576-10.30508474-2.76718644m10.30508474 10.36040683c-6.38698304 0-11.3898305-2.1445424-11.3898305-4.881356v-7.59322032h1.08474576c0 1.79525424 4.2321356 3.79661017 10.30508474 3.79661017 6.0729492 0 10.3050848-2.00135593 10.3050848-3.79661017h1.0847457v7.59322032c0 2.7368136-5.0028474 4.881356-11.3898305 4.881356"/><path d="m31.2031458 16.2711864h-3.5422373c-3.345356 0-5.9661017-1.6677966-5.9661017-3.7966101h1.0847457c0 1.4698305 2.2356611 2.7118644 4.881356 2.7118644h3.2542373v-5.96610172h-3.2542373c-3.345356 0-5.9661017-1.66779661-5.9661017-3.79661017h1.0847457c0 1.46983051 2.2356611 2.71186441 4.881356 2.71186441h3.5422373c.439322 0 .7967457.35742373.7967457.79728814v6.54101694c0 .4398644-.3574237.7972881-.7967457.7972881"/><path d="m11.3898305 3.79661017c-2.01871186 0-3.25423728.70237288-3.25423728 1.08474576s1.23552542 1.08474576 3.25423728 1.08474576c2.0187119 0 3.2542373-.70237288 3.2542373-1.08474576s-1.2355254-1.08474576-3.2542373-1.08474576m0 3.25423729c-2.15647457 0-4.33898304-.74522034-4.33898304-2.16949153 0-1.42427118 2.18250847-2.16949152 4.33898304-2.16949152 2.1564746 0 4.3389831.74522034 4.3389831 2.16949152 0 1.42427119-2.1825085 2.16949153-4.3389831 2.16949153"/><path d="m3.25423729 10.8474576c-.29938983 0-.54237288-.2424407-.54237288-.5423729v-2.16949148c0-.2999322.24298305-.54237288.54237288-.54237288s.54237288.24244068.54237288.54237288v2.16949148c0 .2999322-.24298305.5423729-.54237288.5423729"/><path d="m5.96610169 10.8474576c-.29938983 0-.54237288-.2424407-.54237288-.5423729v-1.6271186c0-.2999322.24298305-.54237288.54237288-.54237288.29938984 0 .54237289.24244068.54237289.54237288v1.6271186c0 .2999322-.24298305.5423729-.54237289.5423729"/><path d="m8.6779661 11.9322034c-.29938983 0-.54237288-.2424407-.54237288-.5423729v-2.16949152c0-.2999322.24298305-.54237288.54237288-.54237288s.54237288.24244068.54237288.54237288v2.16949152c0 .2999322-.24298305.5423729-.54237288.5423729"/><path d="m11.3898305 11.3898305c-.2993898 0-.5423729-.2424407-.5423729-.5423729v-1.62711862c0-.2999322.2429831-.54237288.5423729-.54237288s.5423729.24244068.5423729.54237288v1.62711862c0 .2999322-.2429831.5423729-.5423729.5423729"/><path d="m11.3898305 17.3559322c-.2993898 0-.5423729-.2424407-.5423729-.5423729v-1.6271186c0-.2999322.2429831-.5423729.5423729-.5423729s.5423729.2424407.5423729.5423729v1.6271186c0 .2999322-.2429831.5423729-.5423729.5423729"/><path d="m14.1016949 16.8135593c-.2993898 0-.5423729-.2424407-.5423729-.5423729v-1.6271186c0-.2999322.2429831-.5423729.5423729-.5423729s.5423729.2424407.5423729.5423729v1.6271186c0 .2999322-.2429831.5423729-.5423729.5423729"/><path d="m16.8135593 16.2711864c-.2993898 0-.5423729-.2424406-.5423729-.5423728v-1.6271187c0-.2999322.2429831-.5423729.5423729-.5423729.2993899 0 .5423729.2424407.5423729.5423729v1.6271187c0 .2999322-.242983.5423728-.5423729.5423728"/><path d="m19.5254237 15.7288136c-.2993898 0-.5423729-.2424407-.5423729-.5423729v-1.6271187c0-.2999322.2429831-.5423728.5423729-.5423728.2993899 0 .5423729.2424406.5423729.5423728v1.6271187c0 .2999322-.242983.5423729-.5423729.5423729"/><path d="m14.1016949 11.9322034c-.2993898 0-.5423729-.2424407-.5423729-.5423729v-2.16949152c0-.2999322.2429831-.54237288.5423729-.54237288s.5423729.24244068.5423729.54237288v2.16949152c0 .2999322-.2429831.5423729-.5423729.5423729"/><path d="m16.8135593 10.8474576c-.2993898 0-.5423729-.2424407-.5423729-.5423729v-1.6271186c0-.2999322.2429831-.54237288.5423729-.54237288.2993899 0 .5423729.24244068.5423729.54237288v1.6271186c0 .2999322-.242983.5423729-.5423729.5423729"/><path d="m24.4067797 10.8474576c-.2993899 0-.5423729-.2424407-.5423729-.5423729v-2.16949148c0-.2999322.242983-.54237288.5423729-.54237288.2993898 0 .5423728.24244068.5423728.54237288v2.16949148c0 .2999322-.242983.5423729-.5423728.5423729"/><path d="m25.4915254 15.7288136c-.2993898 0-.5423729-.2424407-.5423729-.5423729v-2.1694915c0-.2999323.2429831-.5423729.5423729-.5423729.2993899 0 .5423729.2424406.5423729.5423729v2.1694915c0 .2999322-.242983.5423729-.5423729.5423729"/><path d="m26.5762712 10.8474576c-.2993898 0-.5423729-.2424407-.5423729-.5423729v-1.6271186c0-.2999322.2429831-.54237288.5423729-.54237288s.5423729.24244068.5423729.54237288v1.6271186c0 .2999322-.2429831.5423729-.5423729.5423729"/><path d="m19.5254237 10.8474576c-.2993898 0-.5423729-.2424407-.5423729-.5423729v-2.16949148c0-.2999322.2429831-.54237288.5423729-.54237288.2993899 0 .5423729.24244068.5423729.54237288v2.16949148c0 .2999322-.242983.5423729-.5423729.5423729"/><path d="m8.6779661 16.8135593c-.29938983 0-.54237288-.2424407-.54237288-.5423729v-1.6271186c0-.2999322.24298305-.5423729.54237288-.5423729s.54237288.2424407.54237288.5423729v1.6271186c0 .2999322-.24298305.5423729-.54237288.5423729"/><path d="m5.96610169 16.2711864c-.29938983 0-.54237288-.2424406-.54237288-.5423728v-1.6271187c0-.2999322.24298305-.5423729.54237288-.5423729.29938984 0 .54237289.2424407.54237289.5423729v1.6271187c0 .2999322-.24298305.5423728-.54237289.5423728"/><path d="m3.25423729 15.7288136c-.29938983 0-.54237288-.2424407-.54237288-.5423729v-1.6271187c0-.2999322.24298305-.5423728.54237288-.5423728s.54237288.2424406.54237288.5423728v1.6271187c0 .2999322-.24298305.5423729-.54237288.5423729"/><path d="m29.2881356 15.1864407h1.6271186v-5.96610172h-1.6271186zm1.7854915 1.0847457h-2.8702373v-8.13559318h2.8702373c.5103729 0 .9263729.416.9263729.92637288v6.2828475c0 .5103728-.416.9263728-.9263729.9263728z"/></g></svg>