<svg xmlns="http://www.w3.org/2000/svg" width="12" height="12" viewBox="0 0 12 12">
    <g fill="#4A4A4A">
        <path d="M1.336 5.867c.146 0 .264.118.264.266 0 .148-.12.267-.264.267H.264C.118 6.4 0 6.282 0 6.133c0-.147.12-.266.264-.266h1.072zm10.4 0c.146 0 .264.118.264.266 0 .148-.12.267-.264.267h-1.072c-.146 0-.264-.118-.264-.267 0-.147.12-.266.264-.266h1.072zM6.4 1.336c0 .146-.118.264-.267.264-.147 0-.266-.12-.266-.264V.264c0-.146.118-.264.266-.264.148 0 .267.12.267.264v1.072zM2.709 2.598c.103.103.103.27-.002.376-.104.104-.274.103-.376.001l-.757-.757c-.103-.104-.103-.271.001-.376.105-.104.274-.103.376-.002l.758.758zm7.226.377c-.103.103-.27.103-.375-.001-.104-.105-.104-.274-.002-.376l.758-.758c.103-.103.27-.103.375.002.104.104.104.274.002.376l-.758.757zM6.933 8.64C8.021 8.257 8.8 7.22 8.8 6c0-1.546-1.254-2.8-2.8-2.8-1.546 0-2.8 1.254-2.8 2.8 0 1.22.78 2.256 1.867 2.64v2.827h1.866V8.64zM2.667 6.134c0-1.974 1.492-3.466 3.466-3.466 1.708 0 3.2 1.492 3.2 3.466 0 1.17-.755 2.334-1.866 2.934v2.4c0 .291-.257.533-.527.533H5.067c-.243 0-.534-.258-.534-.533v-2.4c-1.11-.6-1.866-1.763-1.866-2.934zm2.4 3.2h1.866v.534H5.067v-.534zm0 1.067h1.866v.533H5.067V10.4z"/>
    </g>
</svg>
