<svg height="18" viewBox="0 0 30 18" width="30" xmlns="http://www.w3.org/2000/svg"><g fill="none" fill-rule="evenodd"><path d="m29.0322656.02080078h-22.25806639v.48386719c0 .26748047-.2164453.48386719-.48386718.48386719-.26748047 0-.48386718-.21644532-.48386718-.48386719v-.48386719h-4.83873048c-.53443359 0-.96773437.43324219-.96773437.96773438v4.25958984c0 .24392579.11994141.47572265.32736328.60404297.96439453.59648438 1.60810546 1.66095703 1.60810546 2.87830077 0 1.21728517-.64371093 2.28181646-1.60810546 2.87830076-.20742187.1283203-.32736328.3601758-.32736328.604043v4.2595898c0 .5344336.43330078.9677344.96773437.9677344h4.83873048v-.4838672c0-.2674804.2164453-.4838672.48386718-.4838672.26748047 0 .48386718.2164454.48386718.4838672v.4838672h22.25806639c.5344336 0 .9677344-.4333008.9677344-.9677344v-15.48386714c0-.53449219-.4333008-.96773438-.9677344-.96773438zm-22.22580076 15.00000002c0 .2674804-.2236619.4838672-.5.4838672-.27639864 0-.49999999-.2164453-.49999999-.4838672v-.9677344c0-.2674805.22366189-.4838672.49999999-.4838672.27639865 0 .5.2164453.5.4838672zm0-2.9032617c0 .2674804-.2236619.4838671-.5.4838671-.27639864 0-.49999999-.2164453-.49999999-.4838671v-.9677344c0-.2674805.22366189-.4838672.49999999-.4838672.27639865 0 .5.2164453.5.4838672zm0-2.90320316c0 .26748047-.2236619.48386718-.5.48386718-.27639864 0-.49999999-.2164453-.49999999-.48386718v-.96773438c0-.26748047.22366189-.48386718.49999999-.48386718.27639865 0 .5.2164453.5.48386718zm0-2.90320312c0 .26748047-.2236619.48386718-.5.48386718-.27639864 0-.49999999-.21644532-.49999999-.48386718v-.96773438c0-.26748047.22366189-.4838672.49999999-.4838672.27639865 0 .5.21644532.5.4838672zm0-2.90326173c0 .26748047-.2236619.4838672-.5.4838672-.27639864 0-.49999999-.21644532-.49999999-.4838672v-.96773438c0-.26748047.22366189-.48386718.49999999-.48386718.27639865 0 .5.21644532.5.48386718z" fill="#ffc350" fill-rule="nonzero"/><path d="m28.5483985 16.4724023h-20.32259771c-.26724611 0-.4838672-.2166211-.4838672-.4838671v-14.51613285c0-.2672461.21662109-.48386719.4838672-.48386719h20.32259771c.267246 0 .4838671.21662109.4838671.48386719v14.51613285c0 .267246-.2166211.4838671-.4838671.4838671z" fill="#ffd164"/><path d="m17.9867579 12.0742969-2.508047 1.5745313c-.5527148.3469921-1.2463476-.1569141-1.0871483-.7898438l.7224609-2.87185549-2.2725001-1.89873047c-.5008593-.41847656-.2358984-1.23386718.4152539-1.27798829l2.9545313-.20033203 1.1035547-2.74804688c.2432226-.605625 1.1005664-.605625 1.343789 0l1.1035547 2.74804688 2.9545313.20033203c.6511523.0441797.9161132.85957032.4152538 1.27798829l-2.2725 1.89873047.7224611 2.87185549c.1591991.6329297-.534375 1.1368945-1.0871485.7898438z" fill="#fff"/><path d="m21.2671874 11.6080664c-3.1354101-.1916602-5.7936913-2.13251952-7.0083983-4.8655664l-1.0020118.06791015c-.6511523.0441797-.9161132.85957032-.4152539 1.27798829l2.2725001 1.89873047-.7225196 2.87185549c-.1591992.6329297.534375 1.1368359 1.0871484.7898438l2.5080469-1.5745313 2.5079882 1.5745313c.5527149.3469921 1.2463478-.1569141 1.0870899-.7898438z" fill="#fff6d8"/></g></svg>