<svg height="25" viewBox="0 0 25 25" width="25" xmlns="http://www.w3.org/2000/svg"><g fill="none" fill-rule="evenodd" transform="translate(1 6)"><path d="m22.2580703.01594727h-17.06451757v.37096484c0 .20506836-.1659414.37096484-.37096484.37096484-.20506836 0-.37096484-.1659414-.37096484-.37096484v-.37096484h-3.70969336c-.40973242 0-.74192969.33215234-.74192969.74192968v3.26568555c0 .18700977.09195508.3647207.25097852.46309961.73936914.45730469 1.23288085 1.27340039 1.23288085 2.20669726 0 .93325196-.49351171 1.74939258-1.23288085 2.20669727-.15902344.09837891-.25097852.27613477-.25097852.46309961v3.26568555c0 .4097324.33219727.7419297.74192969.7419297h3.70969336v-.3709649c0-.2050683.1659414-.3709648.37096484-.3709648.20506836 0 .37096484.1659414.37096484.3709648v.3709649h17.06451757c.4097324 0 .7419297-.3321973.7419297-.7419297v-11.87096485c0-.40977734-.3321973-.74192968-.7419297-.74192968zm-17.03978059 11.50000003c0 .2050683-.17147412.3709648-.38333333.3709648-.21190563 0-.38333333-.1659414-.38333333-.3709648v-.7419297c0-.2050684.17147412-.3709649.38333333-.3709649.21190563 0 .38333333.1659414.38333333.3709649zm0-2.22583402c0 .20506836-.17147412.37096484-.38333333.37096484-.21190563 0-.38333333-.1659414-.38333333-.37096484v-.74192969c0-.20506836.17147412-.37096484.38333333-.37096484.21190563 0 .38333333.16594141.38333333.37096484zm0-2.22578906c0 .20506836-.17147412.37096484-.38333333.37096484-.21190563 0-.38333333-.1659414-.38333333-.37096484v-.74192969c0-.20506836.17147412-.37096484.38333333-.37096484.21190563 0 .38333333.1659414.38333333.37096484zm0-2.22578906c0 .20506836-.17147412.37096484-.38333333.37096484-.21190563 0-.38333333-.16594141-.38333333-.37096484v-.74192969c0-.20506836.17147412-.37096485.38333333-.37096485.21190563 0 .38333333.16594141.38333333.37096485zm0-2.22583399c0 .20506836-.17147412.37096485-.38333333.37096485-.21190563 0-.38333333-.16594141-.38333333-.37096485v-.74192969c0-.20506836.17147412-.37096484.38333333-.37096484.21190563 0 .38333333.16594141.38333333.37096484z" fill="#ffc350" fill-rule="nonzero"/><path d="m21.8871055 12.6288418h-15.58065823c-.20488868 0-.37096485-.1660762-.37096485-.3709648v-11.1290352c0-.20488867.16607617-.37096485.37096485-.37096485h15.58065823c.2048886 0 .3709648.16607618.3709648.37096485v11.1290352c0 .2048886-.1660762.3709648-.3709648.3709648z" fill="#ffd164"/><path d="m13.7898477 9.25696094-1.922836 1.20714066c-.423748.2660273-.9555332-.1203008-.8334804-.60554691l.5538867-2.20175586-1.74225003-1.45569336c-.38399219-.32083203-.18085547-.94596484.31836133-.97979102l2.2651406-.15358789.8460586-2.10683594c.1864707-.4643125.8437676-.4643125 1.0302383 0l.8460586 2.10683594 2.2651406.15358789c.4992168.0338711.7023535.65900391.3183613.97979102l-1.74225 1.45569336.5538868 2.20175586c.1220527.48524611-.4096875.87161911-.8334805.60554691z" fill="#fff"/><path d="m16.3048437 8.89951758c-2.4038144-.14693946-4.44183-1.63493164-5.3731054-3.73026758l-.768209.05206445c-.4992168.0338711-.70235352.65900391-.31836133.97979102l1.74225003 1.45569336-.5539317 2.20175586c-.1220527.48524611.4096875.87157421.8334805.60554691l1.9228359-1.20714066 1.922791 1.20714066c.4237481.2660273.9555333-.1203008.8334356-.60554691z" fill="#fff6d8"/></g></svg>