<svg height="15" viewBox="0 0 18 15" width="18" xmlns="http://www.w3.org/2000/svg"><path d="m6.10567515 1.03540233c1.3866484.42753892 2.39530332 1.722248 2.39530332 3.25031196 0 1.52886692-1.00922648 2.82285908-2.39530332 3.250277v8.74972301c0 .5522847-.44683909 1-.99804306 1-.55120396 0-.99804305-.4477153-.99804305-1v-8.74968805c-1.3866484-.42753892-2.39530333-1.722248-2.39530333-3.25031196 0-1.52886692 1.00922649-2.82285908 2.39530333-3.250277v-.749723c0-.55228476.44683909-1 .99804305-1 .55120397 0 .99804306.44771524.99804306 1zm-2.39530333 3.25031196c0 .77160668.62667714 1.4 1.39726027 1.4.77009669 0 1.39726028-.62790592 1.39726028-1.4 0-.77160668-.62667714-1.4-1.39726028-1.4-.77009668 0-1.39726027.62790592-1.39726027 1.4zm10.18003918 2.74968804c1.3866484.42753892 2.3953033 1.722248 2.3953033 3.25031197 0 1.5288669-1.0092265 2.8228591-2.3953033 3.250277v2.749723c0 .5522847-.4468391 1-.9980431 1s-.998043-.4477153-.998043-1v-2.7496881c-1.3866484-.4275389-2.39530337-1.722248-2.39530337-3.2503119 0-1.52886693 1.00922647-2.82285909 2.39530337-3.25027701v-6.749723c0-.55228476.446839-1 .998043-1s.9980431.44771524.9980431 1zm-2.3953034 3.25031197c0 .7716067.6266772 1.4 1.3972603 1.4.7700967 0 1.3972603-.6279059 1.3972603-1.4 0-.77160669-.6266772-1.40000001-1.3972603-1.40000001-.7700967 0-1.3972603.62790592-1.3972603 1.40000001z" fill="#ff1744" transform="matrix(0 1 -1 0 17.285714 -1.714286)"/></svg>