<svg height="12" viewBox="0 0 12 12" width="12" xmlns="http://www.w3.org/2000/svg"><g fill="#6c6c6c"><path d="m11.5928136 1.4239322h-3.81600004c-.18549153-.80562711-.90732203-1.40888135-1.76847458-1.40888135-.86115254 0-1.58298305.60325424-1.76847457 1.40888135h-3.81579661c-.22454238 0-.40677966.18223729-.40677966.40677966 0 .22454238.18223728.40677967.40677966.40677967h3.816c.18549152.80603389.90711864 1.40928813 1.76827118 1.40928813.86115255 0 1.58277966-.60325424 1.76827119-1.40928813h3.81620343c.2245423 0 .4067796-.18223729.4067796-.40677967 0-.22454237-.1820339-.40677966-.4067796-.40677966zm-5.58447462 1.40928814c-.55281356 0-1.00250847-.44989831-1.00250847-1.00291526 0-.55240677.44969491-1.00169491 1.00250847-1.00169491.53572882 0 .97057627.42284746.99742373.95186441-.00223729.01667796-.00508474.03294915-.00508474.05023728 0 .01708475.00305084.03335594.00488135.0500339-.02664407.52922034-.46169491.95247458-.99722034.95247458z"/><path d="m11.5928136 9.15254237h-.8495594c-.1852881-.80562712-.90711861-1.40908474-1.76847454-1.40908474s-1.58318644.60345762-1.76847458 1.40908474h-6.78223728c-.22454238 0-.40677966.18223729-.40677966.40677966 0 .22454238.18223728.40677966.40677966.40677966h6.78244067c.18569492.80583051.90732204 1.40908471 1.76827119 1.40908471s1.58257624-.6032542 1.76827114-1.40908471h.8497628c.2245423 0 .4067796-.18223728.4067796-.40677966 0-.22454237-.1820339-.40677966-.4067796-.40677966zm-2.61803394 1.40908473c-.55281356 0-1.00250847-.4498983-1.00250847-1.00291524 0-.55240678.44969491-1.00169491 1.00250847-1.00169491s1.00250848.44928813 1.00250848 1.00169491c0 .55301694-.44969492 1.00291524-1.00250848 1.00291524z"/><path d="m11.5928136 5.28833898h-6.78223733c-.18528813-.80562712-.90711864-1.40908474-1.76847458-1.40908474-.86135593 0-1.58318644.60345762-1.76847457 1.40908474h-.84955932c-.22454238 0-.40677966.18223729-.40677966.40677966 0 .22454238.18223728.40677967.40677966.40677967h.84976271c.18569491.8058305.90732203 1.40908474 1.76827118 1.40908474.86094916 0 1.58257628-.60325424 1.76827119-1.40908474h6.78244072c.2245423 0 .4067796-.18223729.4067796-.40677967 0-.22454237-.1820339-.40677966-.4067796-.40677966zm-8.55071191 1.40908475c-.55281355 0-1.00250847-.44989831-1.00250847-1.00291526 0-.55240678.44969492-1.00169491 1.00250847-1.00169491.55281356 0 1.00250848.44928813 1.00250848 1.00169491 0 .55301695-.44969492 1.00291526-1.00250848 1.00291526z"/></g></svg>