<svg height="40" viewBox="0 0 40 40" width="40" xmlns="http://www.w3.org/2000/svg"><path d="m13.6438356 3.88819564c3.0451887.95008649 5.260274 3.82721778 5.260274 7.22291546 0 3.3974821-2.2163405 6.2730202-5.260274 7.2228378v19.4438289c0 1.2272994-.9812937 2.2222222-2.1917808 2.2222222-1.2104872 0-2.19178083-.9949228-2.19178083-2.2222222v-19.4437512c-3.04518864-.9500865-5.26027397-3.8272178-5.26027397-7.2229155 0-3.39748203 2.21634052-6.27302017 5.26027397-7.22283777v-1.66605111c0-1.22729946.98129363-2.22222222 2.19178083-2.22222222 1.2104871 0 2.1917808.99492276 2.1917808 2.22222222zm-5.26027396 7.22291546c0 1.7146815 1.37623216 3.1111111 3.06849316 3.1111111 1.6911927 0 3.0684931-1.3953465 3.0684931-3.1111111 0-1.7146815-1.3762321-3.1111111-3.0684931-3.1111111-1.69119273 0-3.06849316 1.39534649-3.06849316 3.1111111zm22.35616436 6.1104179c3.0451887.9500865 5.260274 3.8272178 5.260274 7.2229154 0 3.3974821-2.2163405 6.2730202-5.260274 7.2228378v6.1104956c0 1.2272994-.9812936 2.2222222-2.1917808 2.2222222-1.2104871 0-2.1917808-.9949228-2.1917808-2.2222222v-6.1104179c-3.0451887-.9500865-5.260274-3.8272178-5.260274-7.2229155 0-3.397482 2.2163405-6.2730201 5.260274-7.2228377v-14.99938448c0-1.22729946.9812937-2.22222222 2.1917808-2.22222222 1.2104872 0 2.1917808.99492276 2.1917808 2.22222222zm-5.2602739 7.2229154c0 1.7146816 1.3762321 3.1111112 3.0684931 3.1111112 1.6911927 0 3.0684932-1.3953465 3.0684932-3.1111112 0-1.7146815-1.3762322-3.1111111-3.0684932-3.1111111-1.6911927 0-3.0684931 1.3953465-3.0684931 3.1111111z" fill="#8d8d8d" transform="matrix(0 1 -1 0 40 0)"/></svg>