<svg height="8" viewBox="0 0 13 8" width="13" xmlns="http://www.w3.org/2000/svg"><path d="m2.078106 4c-.24961726 0-.45053099.19679705-.45053099.44128356v6.01877494l-.87849835-.72201649c-.084614-.06954006-.18704156-.10391595-.28906388-.10477221-.13117101-.00110165-.26170135.0532704-.35298633.1598236-.16228463.18942792-.13721693.4698775.0561862.6288265l.69823632.5738719v.0000496l.49303032.4051803.37966601.3120386c.00026153.0002233.00053067.0004144.00079219.0006303l.34822556.2861605.00010156.0001489.00010157-.0001489.34847363-.286403.18368365-.1509067.68960758-.5666997-.00005078-.0000496.69823634-.5738719c.19340318-.158949.21847084-.43939863.05618615-.62882655-.16228443-.18942792-.44859724-.21400038-.64200016-.05505139l-.87849861.72201654v-6.01877499c0-.24448651-.20096349-.44128356-.4505805-.44128356h-.01031494zm3.36254365.0886348c-.28132584 0-.50780843.22132212-.50780843.49623794 0 .27491557.22648259.49623794.50780843.49623794h7.05154215c.2813256 0 .5078082-.22132237.5078082-.49623794 0-.27491582-.2264826-.49623794-.5078082-.49623794zm0 2.26626633c-.28132584 0-.50780843.22132212-.50780843.49623794s.22648259.49623794.50780843.49623794h5.50014805c.2813259 0 .5078082-.22132212.5078082-.49623794s-.2264823-.49623794-.5078082-.49623794zm0 2.2662177c-.28132584 0-.50780843.22132212-.50780843.49623794s.22648259.49623794.50780843.49623794h3.94880378c.28132583 0 .50780817-.22132212.50780817-.49623794s-.22648234-.49623794-.50780817-.49623794zm0 2.26626637c-.28132584 0-.50780843.2213221-.50780843.4962379s.22648259.4962379.50780843.4962379h2.39740995c.28132583 0 .50780843-.2213221.50780843-.4962379s-.2264826-.4962379-.50780843-.4962379z" fill="#6c6c6c" fill-rule="evenodd" transform="translate(0 -4)"/></svg>