<svg height="9" viewBox="0 0 5 9" width="5" xmlns="http://www.w3.org/2000/svg"><path d="m1.64324991.45592511v6.21847815l-.886959-.74597307c-.0854289-.0718474-.1888429-.10736388-.2918478-.10824855-.1324343-.0011382-.2642218.05503791-.3563859.16512656-.1638476.19571314-.1385384.48546808.0567273.649691l.7049609.59291298.4977786.41867543.3833225.32239209c.000176.00015381.1176357.09892264.3523791.29630654l.3520348-.29590586.1854526-.1559138.6962491-.58550288.7049097-.59296424c.1952658-.16422292.2205748-.45397787.0567272-.64969101-.1638473-.19571314-.4529176-.22110092-.6481831-.056878l-.8869593.74597306v-6.21847815c0-.25259858-.2028989-.45592536-.4549199-.45592536-.2624381-.00000026-.4652868.20332652-.4652868.45592511z" fill="#ff1744" transform="matrix(-1 0 0 -1 4.206656 8.265286)"/></svg>