<svg clip-rule="evenodd" fill-rule="evenodd" height="50" image-rendering="optimizeQuality" shape-rendering="geometricPrecision" text-rendering="geometricPrecision" viewBox="0 0 340881 340883" width="50" xmlns="http://www.w3.org/2000/svg"><path d="m0 1h340881v340881h-340881z" fill="none"/><path d="m170440 85525c47073 0 85217 38011 85217 84916 0 46896-38144 84917-85217 84917-47062 0-85220-38025-85220-84917 0-46905 38158-84916 85220-84916z" fill="#fff"/><path d="m143666 124831h59542v124c-3508 5342-5485 8188-5933 8559h-15911c2178 2526 3674 5601 4459 9219h16950c213 48 313 123 313 245-3801 5622-5730 8437-5811 8437h-11025c-246 2886-1656 6370-4202 10448-3387 4114-6626 6783-9722 7999-5777 2728-11308 4089-16591 4089v122c0 413 11943 14399 35845 41977h-15791c-23272-26762-34906-40203-34906-40327v-8124l122-313c2066 291 4479 434 7243 434 13039 0 21152-4180 24323-12524 503-1216 748-2480 748-3788h-35410c-157 0-244-89-244-246 3923-5620 5920-8437 6001-8437h28099v-122c-1610-3218-4725-5722-9342-7510-3306-1059-6279-1586-8915-1586h-15721v-314c3801-5573 5755-8369 5879-8369z"/></svg>