<svg xmlns="http://www.w3.org/2000/svg" xmlns:xlink="http://www.w3.org/1999/xlink" width="256" height="99" viewBox="0 0 256 99">
    <defs>
        <filter id="prefix__b" width="110.5%" height="127.4%" x="-5.3%" y="-13.7%" filterUnits="objectBoundingBox">
            <feMorphology in="SourceAlpha" operator="dilate" radius="1.5" result="shadowSpreadOuter1"/>
            <feOffset in="shadowSpreadOuter1" result="shadowOffsetOuter1"/>
            <feGaussianBlur in="shadowOffsetOuter1" result="shadowBlurOuter1" stdDeviation="3"/>
            <feColorMatrix in="shadowBlurOuter1" values="0 0 0 0 0.305961277 0 0 0 0 0.305961277 0 0 0 0 0.305961277 0 0 0 0.1 0"/>
        </filter>
        <filter id="prefix__d" width="108.1%" height="108.1%" x="-4%" y="-4%" filterUnits="objectBoundingBox">
            <feGaussianBlur in="SourceAlpha" result="shadowBlurInner1" stdDeviation="1.5"/>
            <feOffset dy="2" in="shadowBlurInner1" result="shadowOffsetInner1"/>
            <feComposite in="shadowOffsetInner1" in2="SourceAlpha" k2="-1" k3="1" operator="arithmetic" result="shadowInnerInner1"/>
            <feColorMatrix in="shadowInnerInner1" values="0 0 0 0 0 0 0 0 0 0 0 0 0 0 0 0 0 0 0.1 0"/>
        </filter>
        <rect id="prefix__a" width="256" height="98.6" x="0" y="0" rx="6"/>
        <path id="prefix__c" d="M62 31c0 17.123-13.88 31-31 31C13.88 62 0 48.123 0 31 0 13.877 13.88 0 31 0c17.12 0 31 13.877 31 31z"/>
    </defs>
    <g fill="none" fill-rule="evenodd">
        <g opacity=".1">
            <use fill="#000" filter="url(#prefix__b)" xlink:href="#prefix__a"/>
            <use fill="#DA1C5C" xlink:href="#prefix__a"/>
        </g>
        <g opacity=".3" transform="translate(16 16)">
            <use fill="#FFF" xlink:href="#prefix__c"/>
            <use fill="#000" filter="url(#prefix__d)" xlink:href="#prefix__c"/>
            <path fill="#DA1C5C" d="M40.83 28.985c0 5.409-5.847 9.684-12.558 8.67-4.794-.72-8.613-5.046-8.613-9.104v-2.664c0-4.058 3.82-8.383 8.613-9.104 6.711-1.01 12.557 3.262 12.557 8.673v3.529zM9.073 53.943c3.468-7.533 11.635-11.602 21.2-11.602 9.564 0 17.674 4.169 21.142 11.701-6.23 5.417-13.276 8.068-21.138 7.954-8.472-.122-15.54-2.807-21.204-8.053z"/>
        </g>
    </g>
</svg>
