<svg xmlns="http://www.w3.org/2000/svg" width="55" height="57" viewBox="0 0 55 57">
    <g fill="none" fill-rule="evenodd">
        <g>
            <g>
                <g>
                    <g>
                        <path fill="#FBA5C1" d="M29.354 30.439l25.01-15.029c.095-.057.218-.026.275.068.018.032.028.067.028.103v24.19c0 .07-.037.135-.097.172L29.56 54.972c-.094.057-.217.026-.274-.069-.019-.03-.029-.067-.029-.103V30.61c0-.07.037-.135.097-.171z" transform="translate(-354 -208) translate(316 172) translate(38 36)"/>
                        <path fill="#FBA5C1" d="M2.07 30.54l25.794-13.99c.097-.052.219-.016.271.081.016.03.025.062.025.096v23.925c0 .074-.04.141-.106.176l-25.702 13.8c-.098.052-.219.016-.271-.081-.016-.03-.024-.062-.024-.094l-.091-23.736c0-.074.04-.142.104-.177z" transform="translate(-354 -208) translate(316 172) translate(38 36) matrix(-1 0 0 1 30.125 0)"/>
                        <path fill="#FBA5C1" d="M2.396 14.6L26.968.546c.057-.033.127-.036.187-.007l27.097 13.224c.099.049.14.168.092.268-.017.035-.044.064-.078.084L28.67 29.33c-.061.036-.137.037-.199.003L2.4 14.949c-.097-.053-.132-.175-.079-.271.018-.032.044-.059.076-.077z" transform="translate(-354 -208) translate(316 172) translate(38 36)"/>
                        <path fill="#FFF" d="M9.786 18.937L25.777 9.413 33.698 13.575 17.894 23.402zM8.563 31.849L8.537 20.061 16.645 24.45 16.702 36.276z" transform="translate(-354 -208) translate(316 172) translate(38 36)"/>
                    </g>
                </g>
            </g>
        </g>
    </g>
</svg>
