<svg id="Layer_1" data-name="Layer 1" xmlns="http://www.w3.org/2000/svg" viewBox="0 0 148 148"><defs><style>.cls-1{fill:none;}.cls-2{fill:#ffd9e0;}.cls-3{fill:#ff4065;}.cls-3,.cls-4,.cls-5,.cls-6{fill-rule:evenodd;}.cls-4{fill:#fff;}.cls-5,.cls-6{fill:#ff1744;opacity:0.5;isolation:isolate;}.cls-5{fill-opacity:0.3;}</style></defs><rect id="prefix_b" data-name="prefix  b" class="cls-1" width="148" height="148" rx="6"/><rect id="prefix_b-2" data-name="prefix  b" class="cls-2" width="148" height="148" rx="6"/><path class="cls-3" d="M74.5,26.5h0a48,48,0,0,1,48,48h0a48,48,0,0,1-48,48h0a48,48,0,0,1-48-48h0A48,48,0,0,1,74.5,26.5Z" transform="translate(-0.5 -0.5)"/><path class="cls-4" d="M19.54,27.23c-2.45.09-4.23-1.53-6.41-2.62,1.24,1.88,2.76,3.38,3,5.52a5.25,5.25,0,0,1-.79,3.75c-.48.95-1.07,1.84-1.75,3,1.4-.82,2.44-1.67,3.64-2.29a5.52,5.52,0,0,1,5.12-.13,25.57,25.57,0,0,1,3.39,1.9c.37-.21-.08-.35-.05-.53-.46-.63-.95-1.23-1.36-1.89a6.11,6.11,0,0,1-1.3-3.62c-.08-2.33,1.53-4,2.57-6.1-2,1.28-3.7,2.91-6.11,3Z" transform="translate(-0.5 -0.5)"/><path class="cls-5" d="M126.12,105.1c.26,1.82-.81,3.19-1.45,4.83,1.3-1,2.3-2.13,3.87-2.41a4.09,4.09,0,0,1,2.85.48c.73.34,1.44.74,2.36,1.22-.72-1-1.43-1.76-2-2.64a4.18,4.18,0,0,1-.49-3.8,17.43,17.43,0,0,1,1.16-2.57c-.18-.26-.26.07-.4.05-.43.36-.84.74-1.29,1.06a4.26,4.26,0,0,1-2.59,1.07c-1.73.12-3.09-1-4.73-1.74C124.54,102.14,125.87,103.32,126.12,105.1Z" transform="translate(-0.5 -0.5)"/><path class="cls-6" d="M32.71,14.6c-1,.76-2.15.57-3.33.73A6.23,6.23,0,0,1,32,16.86a2.81,2.81,0,0,1,.58,1.88c0,.55,0,1.11,0,1.82.39-.77.62-1.44,1-2.07a2.91,2.91,0,0,1,2.12-1.55,11,11,0,0,1,1.89-.15c.1-.2-.12-.14-.15-.22-.35-.15-.7-.27-1-.44A2.69,2.69,0,0,1,35,14.93c-.61-1-.34-2.2-.41-3.43-.55,1.16-.85,2.36-1.84,3.1Z" transform="translate(-0.5 -0.5)"/></svg>