<svg xmlns="http://www.w3.org/2000/svg" width="42" height="46" viewBox="0 0 42 46">
    <g fill="none" fill-rule="evenodd">
        <g>
            <g>
                <g>
                    <g>
                        <g>
                            <g>
                                <g>
                                    <path stroke="#EE9AB5" stroke-linecap="round" stroke-linejoin="round" d="M0 3.757h7.866l3.085 27.487c.118.983.964 1.73 1.947 1.73h22.458c.826 0 1.573-.51 1.848-1.297l4.47-21.888" transform="translate(-493 -982) translate(448 939) translate(16 16) translate(29 27)"/>
                                    <path fill="#EE9AB5" d="M7.834 11.739L42 11.834 36.63 32.637 11.503 32.403z" transform="translate(-493 -982) translate(448 939) translate(16 16) translate(29 27)"/>
                                    <path fill="#EE9AB5" stroke="#FFF" stroke-linecap="round" stroke-linejoin="round" d="M37.183 41.192c0 2.171-1.762 3.933-3.933 3.933s-3.933-1.762-3.933-3.933 1.762-3.933 3.933-3.933 3.933 1.762 3.933 3.933zM18.817 41.192c0 2.171-1.762 3.933-3.933 3.933s-3.933-1.762-3.933-3.933 1.762-3.933 3.933-3.933c2.17 0 3.933 1.762 3.933 3.933z" transform="translate(-493 -982) translate(448 939) translate(16 16) translate(29 27)"/>
                                    <path fill="#EE9AB5" stroke="#FFF" stroke-linejoin="round" d="M17.952 3.5l.346 12.344 4.423-3.397 5.119 6.496c.54.492 1.241.414 2.101-.234.86-.648.966-1.402.318-2.263l-4.625-6.104 4.112-3.267L17.952 3.5z" transform="translate(-493 -982) translate(448 939) translate(16 16) translate(29 27) rotate(-143 24.314 11.38)"/>
                                </g>
                            </g>
                        </g>
                    </g>
                </g>
            </g>
        </g>
    </g>
</svg>
