<svg xmlns="http://www.w3.org/2000/svg" width="20" height="19" viewBox="0 0 20 19">
    <g fill="none" fill-rule="evenodd">
        <path fill="#212121" d="M17.362 12.895c-.785-.72-1.504-1.506-2.224-2.226-.784-.785-1.896-.785-2.747 0l-.13.066c-.393.392-.785.72-1.178 1.178-.065-.066-.13-.066-.196-.066-.13-.065-.392-.13-.523-.262-1.178-.72-2.224-1.701-3.336-3.01-.523-.59-.85-1.179-1.112-1.702l.981-.982.262-.262c.85-.85.85-1.964 0-2.814l-.785-.786-.196-.327-.327-.327-.785-.786c-.785-.785-1.897-.785-2.747 0l-.589.59-.785.785C.422 2.487.095 3.142.03 3.862c-.131 1.178.196 2.225.523 3.01.654 1.768 1.7 3.404 3.074 5.172 1.766 2.094 3.859 3.73 6.279 4.909 1.373.654 2.485.982 3.597 1.047h.262c.981 0 1.766-.327 2.355-1.047l.784-.786c.131-.13.262-.262.458-.392.85-.917.85-2.03 0-2.88zm-.85 2.029c-.13.13-.262.261-.458.392-.261.262-.589.59-.85.917-.458.458-.916.654-1.7.589-.916-.066-1.963-.393-3.14-.917-2.224-1.112-4.252-2.683-5.952-4.647-1.308-1.57-2.224-3.142-2.878-4.778-.262-.982-.458-1.702-.393-2.487.066-.458.197-.786.524-1.113.327-.262.588-.59.85-.85l.523-.525c.262-.196.458-.327.654-.327.197 0 .393.131.589.327l.785.786.327.327.327.327.785.786c.458.458.458.785 0 1.178l-.327.262c-.327.327-.72.72-1.112 1.047-.196.197-.393.524-.196.982.261.72.72 1.375 1.308 2.16 1.112 1.375 2.289 2.487 3.597 3.273.196.13.393.262.589.327.13.065.196.065.327.13.392.197.785.132 1.112-.13.458-.393.85-.85 1.242-1.244l.131-.065c.393-.393.785-.393 1.178 0l2.223 2.225c.327.197.327.655-.065 1.048z" transform="translate(0 1)"/>
        <g stroke="#DA1C5C" stroke-linecap="round" stroke-linejoin="round" stroke-width="1.5">
            <path d="M0 2.078L4.438 2.078 4.438 6.595" transform="translate(0 1) translate(11.25) rotate(180 2.22 4.337)"/>
            <path d="M0 6.595L6.595 0" transform="translate(0 1) translate(11.25)"/>
        </g>
    </g>
</svg>
