<svg xmlns="http://www.w3.org/2000/svg" width="34" height="34" viewBox="0 0 34 34">
    <g fill="none" fill-rule="evenodd">
        <path d="M0 0H34V34H0z"/>
        <g stroke="#4A4A4A" stroke-linecap="round" stroke-linejoin="round">
            <path d="M.609.609h4.87l2.3 18.407c.073.608.597 1.071 1.205 1.071h13.903c.511 0 .974-.317 1.144-.804l1.498-4.102M16.435 6.696L6.696 6.696M24.957 26.174c0 1.344-1.091 2.435-2.435 2.435s-2.435-1.091-2.435-2.435 1.09-2.435 2.435-2.435c1.344 0 2.435 1.09 2.435 2.435zM11.565 26.174c0 1.344-1.09 2.435-2.435 2.435-1.344 0-2.434-1.091-2.434-2.435s1.09-2.435 2.434-2.435 2.435 1.09 2.435 2.435zM27.539 2.435L18.261 11.713M27.539 11.713L18.261 2.435" transform="translate(3 2)"/>
        </g>
    </g>
</svg>
