<svg xmlns="http://www.w3.org/2000/svg" width="34" height="34" viewBox="0 0 34 34">
    <g fill="none" fill-rule="evenodd">
        <path d="M0 0H34V34H0z"/>
        <g stroke="#DA1C5C" stroke-linecap="round" stroke-linejoin="round">
            <path d="M0 0h4.87l2.3 18.407c.073.609.597 1.071 1.206 1.071h13.902c.512 0 .974-.316 1.145-.803l1.497-4.103M15.826 6.087L6.087 6.087M24.348 25.565c0 1.344-1.091 2.435-2.435 2.435s-2.435-1.09-2.435-2.435c0-1.344 1.091-2.435 2.435-2.435s2.435 1.091 2.435 2.435zM10.957 25.565C10.957 26.91 9.866 28 8.522 28s-2.435-1.09-2.435-2.435c0-1.344 1.09-2.435 2.435-2.435 1.344 0 2.435 1.091 2.435 2.435zM26.93 1.826L17.652 11.104M26.93 11.104L17.652 1.826" transform="translate(3.609 2.609)"/>
        </g>
    </g>
</svg>
