<svg xmlns="http://www.w3.org/2000/svg" width="42" height="42" viewBox="0 0 42 42">
    <g fill="none" fill-rule="evenodd">
        <g>
            <g>
                <g>
                    <g>
                        <path d="M0 0H42V42H0z" transform="translate(-453 -740) translate(428 655) translate(25 84) translate(0 1)"/>
                        <g>
                            <g transform="translate(-453 -740) translate(428 655) translate(25 84) translate(0 1) translate(1.556 21.467) translate(0 1.61)">
                                <path stroke="#4A4A4A" stroke-width=".7" d="M1.399.162h6.157c.552 0 1 .447 1 1V11.7c0 .552-.448 1-1 1H1.399c-.552 0-1-.448-1-1V1.16c0-.552.448-1 1-1z"/>
                                <circle cx="3.125" cy="9.414" r="1" fill="#4A4A4A"/>
                            </g>
                            <path stroke="#4A4A4A" stroke-width=".7" d="M10.706 2.077C12.654.954 14.21.379 15.373.352c1.163-.027 2.726.5 4.687 1.583 1.165.608 2.112 1.122 2.84 1.542.729.42 1.825 1.082 3.287 1.988.284.514.298 1.008.041 1.481-.257.474-.724.67-1.4.589L20.506 5.08c-.324-.068-.554.04-.69.324-.135.284-.094.541.122.771l4.18 2.435c.893.284 1.704.217 2.435-.203.73-.419 1.116-1.217 1.156-2.394l8.38-2.881c1.258-.23 2.11.156 2.556 1.156.447 1.001.25 1.914-.588 2.74-4.103 2.309-7.194 4.02-9.272 5.133-2.079 1.113-3.824 1.992-5.235 2.638-1.096.446-1.948.67-2.557.67-.608 0-1.393-.224-2.353-.67l-3.734-2.658c-.387-.206-.773-.342-1.156-.406-.384-.065-.803-.065-1.258 0l-1.44.223c.015-5.224.015-8.065 0-8.522-.017-.456-.132-.91-.346-1.36z" transform="translate(-453 -740) translate(428 655) translate(25 84) translate(0 1) translate(1.556 21.467)"/>
                        </g>
                        <g>
                            <path fill="#DA1C5C" fill-rule="nonzero" d="M13.457 6.11c.196 0 .362-.063.497-.189s.203-.338.203-.637c0-.15-.026-.296-.077-.44-.051-.145-.1-.255-.147-.33h-5.88c-.196 0-.362.063-.497.19-.135.125-.203.333-.203.622 0 .159.023.308.07.448.047.14.098.252.154.336h5.88zm-1.946 7.112c.42 0 .735-.135.945-.406.21-.27.315-.616.315-1.036l-2.03-1.372c.579-.158 1.022-.417 1.33-.777.308-.36.485-.781.532-1.267h.854c.196 0 .362-.063.497-.189s.203-.333.203-.623c0-.158-.026-.308-.077-.448-.051-.14-.1-.252-.147-.336h-5.88c-.196 0-.362.063-.497.19-.135.125-.203.338-.203.636 0 .159.023.308.07.448.047.14.098.248.154.322h2.604c-.075.224-.198.404-.37.54-.174.135-.41.202-.708.202h-.826c-.299.187-.448.467-.448.84 0 .187.033.35.098.49l2.338 2.142c.187.168.38.318.581.448.2.13.422.196.665.196z" transform="translate(-453 -740) translate(428 655) translate(25 84) translate(0 1) translate(16.489 4.667)"/>
                            <g stroke="#4A4A4A" stroke-linecap="round">
                                <path stroke-width=".7" d="M17.872 11.486c.3-.885.463-1.835.463-2.824 0-.816-.11-1.606-.319-2.355C17.006 2.667 13.71 0 9.8 0 6.6 0 3.812 1.787 2.35 4.43M1.728 6.16c-.3.885-.463 1.835-.463 2.823 0 .817.11 1.607.319 2.356 1.01 3.64 4.307 6.307 8.216 6.307 3.112 0 5.836-1.69 7.327-4.217" transform="translate(-453 -740) translate(428 655) translate(25 84) translate(0 1) translate(16.489 4.667) translate(.622)"/>
                                <path stroke-linejoin="round" stroke-width=".8" d="M17.067 11.548L18.023 10.262 18.967 11.539" transform="translate(-453 -740) translate(428 655) translate(25 84) translate(0 1) translate(16.489 4.667) translate(.622) scale(1 -1) rotate(-19 -47.15 0)"/>
                                <path stroke-linejoin="round" stroke-width=".8" d="M0.633 7.055L1.578 5.776 2.532 7.062" transform="translate(-453 -740) translate(428 655) translate(25 84) translate(0 1) translate(16.489 4.667) translate(.622) rotate(14 1.582 6.419)"/>
                            </g>
                        </g>
                    </g>
                </g>
            </g>
        </g>
    </g>
</svg>
