<svg xmlns="http://www.w3.org/2000/svg" width="20" height="20" viewBox="0 0 20 20">
    <g fill="none" fill-rule="evenodd">
        <path d="M0 0H20V20H0z"/>
        <g fill="#DA1C5C" transform="translate(1 1)">
            <path fill-rule="nonzero" d="M2.039 14.74l-.434 2.086c-.065.27.043.538.238.695.13.113.282.157.434.157.109 0 .195-.022.282-.067l2.668-1.301c.563.112 1.127.18 1.713.18 3.817 0 6.94-2.693 6.94-6.013s-3.123-6.013-6.94-6.013S0 7.18 0 10.5c0 1.616.716 3.119 2.039 4.24zm4.9-9.356c3.34 0 6.073 2.289 6.073 5.115 0 2.827-2.732 5.115-6.072 5.115-.542 0-1.063-.067-1.583-.179-.152-.022-.304-.022-.434.045l-2.386 1.166.369-1.817c.043-.269-.043-.538-.239-.695-1.17-.987-1.8-2.266-1.8-3.635 0-2.826 2.733-5.115 6.073-5.115z"/>
            <circle cx="3.904" cy="10.499" r="1"/>
            <circle cx="6.94" cy="10.499" r="1"/>
            <circle cx="9.976" cy="10.499" r="1"/>
            <path fill-rule="nonzero" d="M11.06 0C8.241 0 5.704 1.458 4.641 3.724c-.108.224-.022.494.195.606.217.112.477.022.586-.202.932-1.952 3.144-3.23 5.638-3.23 3.34 0 6.073 2.288 6.073 5.114 0 1.369-.63 2.648-1.8 3.612-.196.18-.304.427-.239.696l.369 1.817-.976-.471c-.217-.112-.477 0-.586.224-.108.225 0 .494.217.606l1.323.628c.087.045.195.068.282.068.152 0 .304-.045.434-.158.195-.157.303-.426.238-.695l-.434-2.086C17.263 9.108 18 7.605 18 6.013 18 2.692 14.877 0 11.06 0z"/>
        </g>
    </g>
</svg>
