<svg xmlns="http://www.w3.org/2000/svg" xmlns:xlink="http://www.w3.org/1999/xlink" width="34" height="34" viewBox="0 0 34 34">
    <defs>
        <path id="prefix__a" d="M0 20L30 20 30 0 0 0z"/>
    </defs>
    <g fill="none" fill-rule="evenodd">
        <path d="M0 0H34V34H0z"/>
        <g transform="translate(2 7)">
            <path stroke="#DA1C5C" stroke-linecap="round" stroke-linejoin="round" d="M28.125 19.375H1.875c-.691 0-1.25-.559-1.25-1.25V1.875c0-.691.559-1.25 1.25-1.25h26.25c.691 0 1.25.559 1.25 1.25v16.25c0 .691-.559 1.25-1.25 1.25z"/>
            <mask id="prefix__b" fill="#fff">
                <use xlink:href="#prefix__a"/>
            </mask>
            <path stroke="#DA1C5C" stroke-linecap="round" stroke-linejoin="round" d="M0.625 6.875L29.375 6.875 29.375 3.125 0.625 3.125z" mask="url(#prefix__b)"/>
            <g fill="#DA1C5C">
                <path d="M0 4.084C0 1.677 1.094.504 3.002.504c1.153 0 1.909.486 2.307 1.092.08.121.1.223.1.343 0 .305-.24.546-.518.546-.139 0-.278-.061-.397-.202-.399-.464-.815-.708-1.511-.708-1.273 0-1.85.83-1.85 2.51 0 1.778.577 2.507 1.85 2.507.715 0 1.093-.183 1.55-.668.16-.162.279-.223.418-.223.278 0 .516.243.516.546 0 .122-.039.223-.098.304-.458.647-1.372 1.092-2.386 1.092C1.094 7.663 0 6.592 0 4.084M9.813 6.301c.32 0 .538.243.538.546 0 .302-.218.545-.538.545H6.966c-.319 0-.538-.243-.538-.566V1.131c0-.322.258-.585.557-.585.3 0 .558.263.558.585v5.19h2.27v-.02zM12.313 6.807c0 .323-.254.584-.585.584-.311 0-.584-.261-.584-.584V3.063c0-.323.253-.584.584-.584.312 0 .585.261.585.584v3.744zM16.687 1.533c-.12 0-.24 0-.379.021-.2.04-.42.1-.598.18-.12.06-.22.1-.34.182-.28.181-.52.403-.7.665-.2.26-.339.563-.418.885-.08.323-.101.665-.061.986.061.344.16.665.34.947.16.284.38.524.639.726.439.341.938.503 1.477.503.12 0 .24 0 .38-.02.2-.041.399-.08.58-.16.419-.183.757-.483 1.017-.848.18-.26.32-.563.4-.884.079-.343.1-.686.04-1.008-.1-.685-.44-1.27-.96-1.67-.398-.344-.877-.505-1.417-.505m3.096 6.404c-.16 0-.3-.06-.4-.18l-.76-.786-.218.14c-.06.041-.1.06-.14.082h-.02c-.08.039-.18.08-.26.121-.26.12-.54.2-.819.24-.16.021-.339.042-.519.042-.28 0-.558-.042-.839-.102-.419-.12-.819-.322-1.177-.584-.36-.282-.66-.604-.879-.987-.06-.1-.12-.201-.16-.302-.14-.303-.219-.604-.28-.926v-.14c-.02-.163-.039-.323-.039-.464 0-.223.02-.443.06-.665.02-.08.02-.141.04-.201.12-.443.299-.847.58-1.23.259-.361.598-.684.977-.924.14-.102.3-.183.46-.243.259-.1.518-.182.799-.242.16-.02.339-.04.498-.04.3 0 .58.04.86.121.038.021.06.021.1.04h.019c.698.221 1.317.705 1.737 1.33.06.08.1.14.14.221.18.302.3.624.379.946.04.142.061.282.08.424.04.442.02.886-.08 1.308-.08.323-.2.664-.38.967l-.14.222.76.785c.22.242.22.604 0 .826-.08.141-.22.201-.379.201M12.44.898c.22.223.22.609 0 .852-.221.242-.582.242-.803 0l-.703-.73c-.221-.224-.221-.61 0-.853.222-.223.582-.223.803 0l.702.731z" transform="translate(5 9)"/>
            </g>
        </g>
    </g>
</svg>
