<svg xmlns="http://www.w3.org/2000/svg" width="196" height="160" viewBox="0 0 196 160">
    <defs>
        <radialGradient id="3jmu03jmia" cx="50%" cy="50%" r="66.998%" fx="50%" fy="50%" gradientTransform="matrix(0 1 -.73333 0 .867 0)">
            <stop offset="0%" stop-color="#E8F2FD"/>
            <stop offset="100%" stop-color="#8CB9F0"/>
            <stop offset="100%" stop-color="#8CB9F0"/>
        </radialGradient>
    </defs>
    <g fill="none" fill-rule="evenodd">
        <g>
            <g>
                <path fill="url(#3jmu03jmia)" d="M136.128 153.826c39.078-10.3 72.304-77.441 53.64-120.35-18.663-42.909-94.404 11.782-108.133 9.812-29.917-4.292-38.586-2.01-56.63 5.366-26.513 10.84-35.957 57.093-7.769 84.033 41.239 39.41 100.358 26.023 118.892 21.139z" opacity=".3" transform="translate(-1037 -157) translate(1037 157) matrix(1 0 0 -1 0 177)"/>
                <g>
                    <g>
                        <g>
                            <g>
                                <path fill="#DA1C5C" d="M10.185 43.516c.714-5.613 1.67-11.227 2.87-16.842 2.177-12.317 4.817-18.246 7.922-17.789 3.104.458 5.669 6.024 7.693 16.698.39 6.417.255 12.716-.405 18.897-.99 9.272-19.15 7.455-18.08-.964z" transform="translate(-1037 -157) translate(1037 157) translate(8.11) translate(0 69) translate(21.509) translate(31.81) scale(-1 1) rotate(-34 0 93.591)"/>
                                <path fill="#FFB8CE" d="M24.77 26.212l9.011 38.68-.959 7.393 30.55-.684c.396-5.5.853-10.84 1.37-16.018.519-5.179 1.113-10.335 1.782-15.47.81-4.972 1.632-9.125 2.466-12.458.834-3.334 1.884-6.665 3.15-9.994.759-1.588 1.5-2.774 2.224-3.56.724-.786 1.638-1.242 2.74-1.369-3.484-2.392-6.737-4.628-9.758-6.708C64.324 3.944 61.219 1.936 58.03 0c-2.01 3.012-4.521 4.7-7.535 5.065-3.014.366-5.982-.456-8.905-2.464l-13.152 8.762c.513 2.406.706 4.46.58 6.16-.19 2.552-.698 3.094-1.402 4.93-.469 1.223-1.245 2.363-2.328 3.422l-.517.337z" transform="translate(-1037 -157) translate(1037 157) translate(8.11) translate(0 69) translate(21.509) translate(31.81)"/>
                                <path fill="#DA1C5C" d="M27.48 77.077l2.054-4.792 33.565-.684c.928-11.09 1.75-19.442 2.466-25.054.716-5.612 1.675-11.225 2.877-16.839 2.74-11.774 5.662-17.432 8.768-16.976 3.105.456 5.388 5.75 6.85 15.88.387 6.416.25 12.713-.412 18.894-.992 9.27-5.896 30.57-7.671 33.952-1.184 2.254-3.239 3.532-6.165 3.833-2.649.182-6.348.182-11.097 0-4.75-.183-15.161-2.92-31.236-8.214z" transform="translate(-1037 -157) translate(1037 157) translate(8.11) translate(0 69) translate(21.509) translate(31.81)"/>
                            </g>
                            <path fill="#F0A077" d="M6.713 18.896C5.3 17.526 3.976 15.52 2.74 12.873 1.504 10.227.591 7.443 0 4.522c.02-1.623.613-2.673 1.781-3.15 1.168-.476 2.812-.339 4.932.411L13.7 6.164c1.096-2.281 2.1-3.468 3.014-3.56 1.37-.136 1.526 3.307 1.233 7.667-.196 2.907-.972 5.782-2.33 8.625H6.714z" transform="translate(-1037 -157) translate(1037 157) translate(8.11) translate(0 69) translate(21.509)"/>
                        </g>
                        <g>
                            <g transform="translate(-1037 -157) translate(1037 157) translate(8.11) translate(0 69) translate(0 16.84)">
                                <path fill="#F0F7FC" d="M0 1.917L76.308 0 88.911 54.898 11.371 55.446z"/>
                                <ellipse cx="43.665" cy="31.216" fill="#8DC6FF" rx="8.541" ry="8.535"/>
                                <path fill="#8DC6FF" d="M44.661 21.905c.183-3.286 2.1-5.34 5.754-6.161.27.87.361 1.51.274 1.917-.143.667-.41 1.642-1.918 2.464-1.005.547-2.374 1.14-4.11 1.78z"/>
                            </g>
                        </g>
                    </g>
                    <g>
                        <g>
                            <path fill="#EBA48B" d="M1.096 27.84C.379 34 1.201 39.978 3.562 45.773c2.36 5.795 5.74 10.13 10.138 13.005l2.603 12.87c2.922 2.13 6.028 2.906 9.316 2.327 3.287-.58 5.662-2.223 7.123-4.929.188.07-.452-1.435-1.918-4.518-1.466-3.082-3.018-6.185-4.657-9.31l4.246-7.392 8.631-19.988-19.59-11.363-12.467-.547-5.891 11.91z" transform="translate(-1037 -157) translate(1037 157) translate(8.11) translate(78.637)"/>
                            <path fill="#2D2D2D" d="M.822 27.428c1.23-1.046 2.417-2.278 3.562-3.696 1.144-1.418 2.24-3.015 3.288-4.792 1.465 3.979 3.885 7.31 7.26 9.994 3.376 2.685 7.44 4.51 12.194 5.477-1.206 2.407-1.571 4.643-1.096 6.708.475 2.065 1.753 3.799 3.835 5.202 1.378 1.957 2.017 4.193 1.918 6.708-.098 2.516-.92 4.935-2.466 7.257 1.96.016 3.467-1.08 4.521-3.286 1.055-2.208 1.466-5.128 1.233-8.762 4.293 1.186 7.718-.593 10.275-5.34 1.827-4.745 2.055-10.678.685-17.797 2.724.65 4.734.513 6.028-.41 3.151-1.78 6.439-14.102-2.877-21.631C44.524.23 40.871-.637 38.222.458c-1.04.608-1.77 1.52-2.192 2.739-.422 1.217-.513 2.678-.274 4.38-5.881-2.63-10.95-3.68-15.206-3.148-4.257.531-7.955 2.676-11.097 6.434-2.617.442-4.58 1.172-5.891 2.19-1.31 1.019-2.315 2.434-3.014 4.245C.183 18.575 0 20.127 0 21.952c0 1.826.274 3.651.822 5.476z" transform="translate(-1037 -157) translate(1037 157) translate(8.11) translate(78.637)"/>
                        </g>
                        <g>
                            <g transform="translate(-1037 -157) translate(1037 157) translate(8.11) translate(78.637) translate(.548 11.814) translate(26.03 16.847)">
                                <ellipse cx="8.014" cy="8.009" fill="#8DC6FF" rx="8.014" ry="8.009"/>
                                <ellipse cx="8.151" cy="7.872" fill="#477BDE" rx="5.411" ry="5.408"/>
                            </g>
                            <path fill="#8DC6FF" d="M28.085 19.585C23.153 10.549 18.358 5.027 13.7 3.019 9.042 1.011 4.475 1.833 0 5.484 4.791.407 9.997-1.146 15.618.829c5.62 1.974 11.328 7.359 17.124 16.155l-4.657 2.6z" transform="translate(-1037 -157) translate(1037 157) translate(8.11) translate(78.637) translate(.548 11.814)"/>
                        </g>
                    </g>
                </g>
            </g>
        </g>
    </g>
</svg>
