<svg xmlns="http://www.w3.org/2000/svg" width="34" height="34" viewBox="0 0 34 34">
    <g fill="none" fill-rule="evenodd">
        <path d="M0 0H34V34H0z"/>
        <g stroke="#DA1C5C" stroke-linecap="round" stroke-linejoin="round">
            <path d="M5.09 16.545h1.274V8.91H5.09c-2.109 0-3.818 1.71-3.818 3.818 0 2.11 1.709 3.818 3.818 3.818zM24.182 16.545h-1.273V8.91h1.273C26.29 8.91 28 10.62 28 12.727c0 2.11-1.71 3.818-3.818 3.818zM6.364 8.91V6.681C6.364 2.992 10.72 0 14.636 0c3.916 0 8.273 2.992 8.273 6.682v2.227M22.91 15.273c0 2.8-2.546 5.09-5.092 5.09M24.182 20.364c.338.292.648.607.93.946 1.024 1.204 1.615 2.624 1.615 4.145M0 26.727c0-3.47 3.69-6.436 8.91-7.636M16.545 21.636H14c-.703 0-1.273-.569-1.273-1.272 0-.704.57-1.273 1.273-1.273h2.545c.703 0 1.273.569 1.273 1.273 0 .703-.57 1.272-1.273 1.272z" transform="translate(3 4)"/>
        </g>
    </g>
</svg>
