<svg xmlns="http://www.w3.org/2000/svg" width="34" height="32" viewBox="0 0 34 32">
    <g fill="none" fill-rule="evenodd">
        <path d="M0 0H34V34H0z" transform="translate(0 -1)"/>
        <g stroke="#4A4A4A" stroke-linecap="round" stroke-linejoin="round">
            <path d="M5.818 18.91h1.455v-8.728H5.818c-2.41 0-4.363 1.953-4.363 4.363s1.953 4.364 4.363 4.364zM27.636 18.91h-1.454v-8.728h1.454c2.41 0 4.364 1.953 4.364 4.363s-1.953 4.364-4.364 4.364zM7.273 10.182V7.636C7.273 3.42 12.253 0 16.727 0c4.475 0 9.455 3.42 9.455 7.636v2.546M26.182 17.455c0 3.2-2.91 5.818-5.818 5.818M27.636 23.273c.387.334.741.694 1.063 1.081 1.17 1.376 1.846 3 1.846 4.737M0 30.545c0-3.966 4.217-7.355 10.182-8.727" transform="translate(0 -1) translate(1 2)"/>
            <path d="M18.91 24.727H16c-.803 0-1.455-.65-1.455-1.454 0-.805.652-1.455 1.455-1.455h2.91c.802 0 1.454.65 1.454 1.455 0 .804-.652 1.454-1.455 1.454z" transform="translate(0 -1) translate(1 2)"/>
        </g>
    </g>
</svg>
