<svg xmlns="http://www.w3.org/2000/svg" width="19" height="19" viewBox="0 0 19 19">
<g fill="none" fill-rule="evenodd" opacity=".5">
<g fill="#212121" fill-rule="nonzero">
<g>
<g>
<path d="M7.394 2.375c.437 0 .792.354.792.792 0 .437-.355.791-.792.791H3.167c-.438 0-.792.355-.792.792v11.083c0 .438.354.792.792.792H14.25c.437 0 .792-.354.792-.792v-4.227c0-.437.354-.792.791-.792.438 0 .792.355.792.792v4.227c0 1.312-1.063 2.375-2.375 2.375H3.167c-1.312 0-2.375-1.063-2.375-2.375V4.75c0-1.312 1.063-2.375 2.375-2.375zm7.416-1.351l3.166 3.166c.31.31.31.81 0 1.12l-7.916 7.916c-.149.149-.35.232-.56.232H6.333c-.437 0-.791-.354-.791-.791V9.5c0-.21.083-.411.232-.56l7.916-7.916c.31-.31.81-.31 1.12 0zm-.56 1.679L7.125 9.828v2.047h2.047l7.125-7.125-2.047-2.047z" transform="translate(-308 -330) translate(32 306) translate(276 24)"/>
</g>
</g>
</g>
</g>
</svg>