<svg xmlns="http://www.w3.org/2000/svg" width="24" height="24" viewBox="0 0 24 24">
    <g fill="#FFF">
        <path d="M22.096 15.039c-.33 0-.596.268-.596.599v5.32c-.001.993-.801 1.797-1.789 1.798H2.981c-.987 0-1.787-.805-1.789-1.798V5.343c.002-.992.802-1.796 1.79-1.797h5.293c.33 0 .596-.269.596-.6 0-.33-.267-.599-.596-.599H2.981C1.335 2.35.001 3.69 0 5.343V20.96c.002 1.654 1.335 2.994 2.981 2.996h16.73c1.646-.002 2.98-1.342 2.981-2.996v-5.321c0-.331-.267-.6-.596-.6z"/>
        <path d="M22.456.805c-1.048-1.053-2.747-1.053-3.794 0L8.024 11.495c-.073.074-.125.165-.153.265l-1.399 5.075c-.057.208.001.43.153.584.152.152.374.211.581.154l5.05-1.407c.1-.027.19-.08.263-.153L23.156 5.322c1.046-1.054 1.046-2.76 0-3.813l-.7-.704zM9.323 11.885l8.706-8.75 2.808 2.823-8.706 8.75-2.808-2.823zm-.56 1.131l2.243 2.255-3.103.864.86-3.119zm13.55-8.541l-.633.635-2.808-2.822.633-.635c.582-.585 1.526-.585 2.108 0l.7.703c.58.586.58 1.533 0 2.119z"/>
    </g>
</svg>
