<svg xmlns="http://www.w3.org/2000/svg" xmlns:xlink="http://www.w3.org/1999/xlink" width="256" height="99" viewBox="0 0 256 99">
    <defs>
        <filter id="prefix__b" width="110.5%" height="127.4%" x="-5.3%" y="-13.7%" filterUnits="objectBoundingBox">
            <feMorphology in="SourceAlpha" operator="dilate" radius="1.5" result="shadowSpreadOuter1"/>
            <feOffset in="shadowSpreadOuter1" result="shadowOffsetOuter1"/>
            <feGaussianBlur in="shadowOffsetOuter1" result="shadowBlurOuter1" stdDeviation="3"/>
            <feColorMatrix in="shadowBlurOuter1" values="0 0 0 0 0.305961277 0 0 0 0 0.305961277 0 0 0 0 0.305961277 0 0 0 0.1 0"/>
        </filter>
        <filter id="prefix__d" width="108.1%" height="108.1%" x="-4%" y="-4%" filterUnits="objectBoundingBox">
            <feGaussianBlur in="SourceAlpha" result="shadowBlurInner1" stdDeviation="1.5"/>
            <feOffset dy="2" in="shadowBlurInner1" result="shadowOffsetInner1"/>
            <feComposite in="shadowOffsetInner1" in2="SourceAlpha" k2="-1" k3="1" operator="arithmetic" result="shadowInnerInner1"/>
            <feColorMatrix in="shadowInnerInner1" values="0 0 0 0 0 0 0 0 0 0 0 0 0 0 0 0 0 0 0.1 0"/>
        </filter>
        <path id="prefix__c" d="M62 31c0 17.123-13.88 31-31 31C13.88 62 0 48.123 0 31 0 13.877 13.88 0 31 0c17.12 0 31 13.877 31 31z"/>
        <path id="prefix__e" d="M0 25.333L38 25.333 38 0 0 0z"/>
        <rect id="prefix__a" width="256" height="98.6" x="0" y="0" rx="6"/>
    </defs>
    <g fill="none" fill-rule="evenodd">
        <g opacity=".1">
            <use fill="#000" filter="url(#prefix__b)" xlink:href="#prefix__a"/>
            <use fill="#DA1C5C" xlink:href="#prefix__a"/>
        </g>
        <g opacity=".3" transform="translate(16 16)">
            <use fill="#FFF" xlink:href="#prefix__c"/>
            <use fill="#000" filter="url(#prefix__d)" xlink:href="#prefix__c"/>
        </g>
        <g transform="translate(28 34)">
            <path fill="#FBA5C1" d="M35.625 24.542H2.375c-.876 0-1.583-.708-1.583-1.584V2.375c0-.876.707-1.583 1.583-1.583h33.25c.876 0 1.583.707 1.583 1.583v20.583c0 .876-.707 1.584-1.583 1.584z"/>
            <mask id="prefix__f" fill="#fff">
                <use xlink:href="#prefix__e"/>
            </mask>
            <path stroke="#FDECF1" stroke-linecap="round" stroke-linejoin="round" d="M0.792 7.758L37.208 7.758 37.208 3.958 0.792 3.958z" mask="url(#prefix__f)"/>
            <g fill="#FFEBF1">
                <path d="M0 5.173C0 2.124 1.386.638 3.803.638c1.46 0 2.417.616 2.922 1.384.1.153.126.282.126.435 0 .385-.304.691-.656.691-.176 0-.351-.078-.503-.256-.505-.588-1.032-.897-1.914-.897-1.613 0-2.343 1.052-2.343 3.178 0 2.254.73 3.177 2.343 3.177.906 0 1.385-.232 1.964-.846.202-.205.353-.283.529-.283.352 0 .654.308.654.692 0 .154-.049.283-.125.385-.58.82-1.737 1.384-3.022 1.384C1.386 9.706 0 8.35 0 5.173M12.43 7.981c.405 0 .681.308.681.692 0 .382-.276.69-.68.69H8.822c-.403 0-.68-.308-.68-.717V1.433c0-.409.326-.741.705-.741.38 0 .707.332.707.741v6.575h2.875V7.98zM15.596 8.623c0 .408-.32.74-.74.74-.395 0-.74-.332-.74-.74V3.879c0-.408.32-.74.74-.74.395 0 .74.332.74.74v4.744zM21.137 1.942c-.151 0-.304 0-.48.026-.253.05-.531.128-.758.229-.153.076-.28.127-.43.23-.354.23-.658.51-.887.842-.253.33-.43.713-.53 1.122-.101.408-.128.842-.077 1.249.078.435.203.842.431 1.199.202.36.48.663.81.92.555.432 1.188.637 1.87.637.153 0 .304 0 .482-.025.253-.053.505-.103.733-.203.531-.232.96-.613 1.29-1.074.228-.331.404-.713.506-1.12.1-.435.126-.869.05-1.277-.126-.867-.557-1.609-1.214-2.116-.505-.436-1.112-.639-1.796-.639m3.922 8.112c-.204 0-.38-.077-.507-.229l-.962-.996-.278.179c-.075.051-.126.076-.177.103h-.025c-.1.05-.227.102-.329.153-.329.153-.684.254-1.037.305-.202.026-.43.053-.658.053-.353 0-.707-.053-1.062-.13-.531-.151-1.037-.408-1.491-.739-.456-.357-.836-.766-1.113-1.25-.076-.128-.153-.255-.203-.383-.177-.384-.278-.766-.355-1.173V5.77c-.024-.206-.05-.409-.05-.588 0-.28.026-.56.076-.842.025-.1.025-.178.051-.255.152-.56.379-1.072.734-1.556.329-.459.758-.867 1.238-1.172.177-.129.38-.231.582-.307.329-.128.658-.23 1.013-.306.202-.025.429-.052.631-.052.38 0 .733.052 1.089.154.049.027.075.027.126.05h.025c.884.281 1.669.893 2.2 1.686.075.1.126.177.177.28.227.381.38.79.48 1.197.051.18.078.357.102.538.05.559.025 1.121-.101 1.656-.1.41-.254.842-.48 1.226l-.178.28.962.995c.278.306.278.765 0 1.046-.102.178-.278.255-.48.255M15.756 1.137c.28.283.28.771 0 1.08-.28.307-.736.307-1.016 0l-.89-.926c-.28-.283-.28-.77 0-1.08.28-.281.737-.281 1.017 0l.89.926z" transform="translate(6.333 11.4)"/>
            </g>
        </g>
    </g>
</svg>
