<svg xmlns="http://www.w3.org/2000/svg" xmlns:xlink="http://www.w3.org/1999/xlink" width="42" height="30" viewBox="0 0 42 30">
    <defs>
        <path id="n4tjfx0c3a" d="M0 27.717L41.576 27.717 41.576 0 0 0z"/>
    </defs>
    <g fill="none" fill-rule="evenodd">
        <g>
            <g>
                <g>
                    <g>
                        <g>
                            <g>
                                <g transform="translate(-493 -250) translate(448 199) translate(16 16) translate(29 35)">
                                    <path fill="#FBA5C1" d="M38.977 26.851H2.598c-.957 0-1.732-.774-1.732-1.732V2.599c0-.958.775-1.733 1.732-1.733h36.38c.957 0 1.732.775 1.732 1.732v22.52c0 .959-.775 1.733-1.733 1.733z"/>
                                    <mask id="m115ifkl3b" fill="#fff">
                                        <use xlink:href="#n4tjfx0c3a"/>
                                    </mask>
                                    <path stroke="#FFF" stroke-linejoin="round" d="M40.71 4.33H.866m0 4.158H40.71" mask="url(#m115ifkl3b)"/>
                                </g>
                                <g fill="#FFF">
                                    <path d="M0 5.66C0 2.324 1.516.699 4.16.699c1.598 0 2.645.673 3.198 1.513.11.168.138.31.138.476 0 .422-.333.756-.718.756-.192 0-.385-.085-.55-.28-.552-.643-1.13-.981-2.094-.981-1.765 0-2.564 1.151-2.564 3.477 0 2.465.8 3.475 2.564 3.475.991 0 1.515-.253 2.148-.925.221-.224.387-.31.58-.31.384 0 .715.338.715.758 0 .168-.054.31-.137.421-.635.896-1.901 1.514-3.306 1.514C1.516 10.62 0 9.135 0 5.66M13.6 8.732c.443 0 .745.337.745.757 0 .418-.302.755-.745.755H9.653c-.44 0-.745-.337-.745-.784V1.568c0-.447.358-.811.772-.811.416 0 .774.364.774.81v7.194H13.6v-.029zM17.064 9.434c0 .447-.351.81-.81.81-.432 0-.81-.363-.81-.81v-5.19c0-.447.351-.809.81-.809.432 0 .81.362.81.81v5.19zM23.126 2.125c-.165 0-.333 0-.525.029-.277.054-.581.139-.83.25-.167.083-.305.139-.47.251-.388.252-.72.56-.97.921-.277.362-.47.78-.58 1.228-.111.447-.14.921-.084 1.366.084.476.221.922.471 1.313.221.392.525.725.885 1.006.608.472 1.3.697 2.047.697.168 0 .333 0 .527-.027.277-.058.553-.112.803-.223.58-.253 1.05-.67 1.41-1.175.25-.362.443-.78.554-1.225.11-.476.139-.95.056-1.397-.139-.949-.61-1.76-1.33-2.316-.552-.476-1.216-.698-1.964-.698M27.416 11c-.223 0-.415-.084-.554-.25L25.81 9.66l-.304.196c-.083.056-.138.083-.194.112h-.027c-.11.054-.248.112-.36.168-.36.167-.748.277-1.135.333-.221.03-.47.058-.72.058-.386 0-.773-.058-1.162-.141-.58-.167-1.135-.447-1.631-.81-.499-.39-.914-.837-1.218-1.368-.083-.139-.168-.278-.222-.418-.194-.42-.304-.838-.388-1.283v-.196c-.027-.224-.054-.447-.054-.642 0-.308.027-.614.083-.921.027-.11.027-.196.055-.28.166-.613.414-1.172.803-1.703.36-.5.83-.948 1.354-1.281.195-.141.416-.253.637-.337.36-.14.72-.251 1.108-.335.222-.027.47-.056.691-.056.416 0 .802.056 1.191.169.054.029.083.029.139.054h.027c.967.308 1.825.977 2.406 1.844.083.11.139.194.195.306.248.418.415.866.525 1.31.056.198.085.392.112.59.054.61.027 1.226-.112 1.811-.11.449-.277.921-.525 1.341l-.195.308 1.053 1.088c.304.335.304.836 0 1.144-.112.195-.304.279-.525.279M17.24 1.244c.305.31.305.844 0 1.18-.307.337-.807.337-1.113 0l-.975-1.011c-.305-.31-.305-.844 0-1.182.308-.308.808-.308 1.114 0l.973 1.013z" transform="translate(-493 -250) translate(448 199) translate(16 16) translate(29 35) translate(6.93 12.473)"/>
                                </g>
                            </g>
                        </g>
                    </g>
                </g>
            </g>
        </g>
    </g>
</svg>
