<svg xmlns="http://www.w3.org/2000/svg" xmlns:xlink="http://www.w3.org/1999/xlink" width="166" height="166" viewBox="0 0 166 166">
    <defs>
        <filter id="prefix__a" width="118.2%" height="118.2%" x="-9.1%" y="-9.1%" filterUnits="objectBoundingBox">
            <feMorphology in="SourceAlpha" operator="dilate" radius="1" result="shadowSpreadOuter1"/>
            <feOffset in="shadowSpreadOuter1" result="shadowOffsetOuter1"/>
            <feGaussianBlur in="shadowOffsetOuter1" result="shadowBlurOuter1" stdDeviation="3.5"/>
            <feColorMatrix in="shadowBlurOuter1" values="0 0 0 0 0 0 0 0 0 0 0 0 0 0 0 0 0 0 0.1 0"/>
        </filter>
        <rect id="prefix__b" width="148" height="148" x="0" y="0" rx="6"/>
        <path id="prefix__c" d="M0 62.271L79.785 62.271 79.785 0.001 0 0.001z"/>
    </defs>
    <g fill="none" fill-rule="evenodd" transform="translate(9 9)">
        <use fill="#000" filter="url(#prefix__a)" xlink:href="#prefix__b"/>
        <use fill="#FFF" xlink:href="#prefix__b"/>
        <g opacity=".827" transform="translate(34 24)">
            <path fill="#E5E5E5" d="M3.327 62.271L77.639 62.271 77.639 28.911 3.327 28.911z"/>
            <path fill="#FFF" d="M5.123 28.846H3.01v1.772c.11.022.223.034.339.034.98 0 1.774-.809 1.774-1.806M21.571 30.652c.98 0 1.774-.809 1.774-1.806h-3.548c0 .997.794 1.806 1.774 1.806M39.793 30.652c.98 0 1.774-.809 1.774-1.806h-3.548c0 .997.794 1.806 1.774 1.806M58.015 30.652c.98 0 1.774-.809 1.774-1.806h-3.548c0 .997.795 1.806 1.774 1.806M76.237 30.652c.265 0 .515-.06.74-.166v-1.64h-2.513c0 .997.794 1.806 1.773 1.806M12.54 35.396c-.98 0-1.773.808-1.773 1.806s.794 1.806 1.774 1.806 1.773-.808 1.773-1.806-.794-1.806-1.773-1.806M30.763 35.396c-.98 0-1.774.808-1.774 1.806s.794 1.806 1.774 1.806 1.774-.808 1.774-1.806-.795-1.806-1.774-1.806M48.985 35.396c-.98 0-1.774.808-1.774 1.806s.794 1.806 1.774 1.806 1.774-.808 1.774-1.806-.794-1.806-1.774-1.806M67.207 35.396c-.98 0-1.774.808-1.774 1.806s.794 1.806 1.774 1.806 1.774-.808 1.774-1.806-.794-1.806-1.774-1.806M5.123 45.558c0-.998-.794-1.806-1.774-1.806-.116 0-.229.012-.339.033v3.546c.11.021.223.033.339.033.98 0 1.774-.808 1.774-1.806M21.571 43.752c-.98 0-1.774.808-1.774 1.806s.794 1.806 1.774 1.806 1.774-.808 1.774-1.806-.794-1.806-1.774-1.806M39.793 43.752c-.98 0-1.774.808-1.774 1.806s.794 1.806 1.774 1.806 1.774-.808 1.774-1.806-.794-1.806-1.774-1.806M58.015 43.752c-.98 0-1.774.808-1.774 1.806s.795 1.806 1.774 1.806c.98 0 1.774-.808 1.774-1.806s-.794-1.806-1.774-1.806M74.464 45.558c0 .998.794 1.806 1.773 1.806.265 0 .515-.06.74-.166v-3.28c-.225-.106-.475-.166-.74-.166-.98 0-1.773.808-1.773 1.806M12.54 52.108c-.98 0-1.773.809-1.773 1.806 0 .998.794 1.807 1.774 1.807s1.773-.809 1.773-1.807c0-.997-.794-1.806-1.773-1.806M30.763 52.108c-.98 0-1.774.809-1.774 1.806 0 .998.794 1.807 1.774 1.807s1.774-.809 1.774-1.807c0-.997-.795-1.806-1.774-1.806M48.985 52.108c-.98 0-1.774.809-1.774 1.806 0 .998.794 1.807 1.774 1.807s1.774-.809 1.774-1.807c0-.997-.794-1.806-1.774-1.806M67.207 52.108c-.98 0-1.774.809-1.774 1.806 0 .998.794 1.807 1.774 1.807s1.774-.809 1.774-1.807c0-.997-.794-1.806-1.774-1.806M3.349 60.464c-.116 0-.229.012-.339.034v1.773h2.113c0-.998-.794-1.807-1.774-1.807M21.571 60.464c-.98 0-1.774.809-1.774 1.807h3.548c0-.998-.794-1.807-1.774-1.807M39.793 60.464c-.98 0-1.774.809-1.774 1.807h3.548c0-.998-.794-1.807-1.774-1.807M58.015 60.464c-.98 0-1.774.809-1.774 1.807h3.548c0-.998-.794-1.807-1.774-1.807M76.978 60.63c-.226-.105-.476-.166-.74-.166-.98 0-1.775.809-1.775 1.806h2.515v-1.64z"/>
            <mask id="prefix__d" fill="#fff">
                <use xlink:href="#prefix__c"/>
            </mask>
            <path fill="#D5D5D5" d="M0 31.177L79.785 31.177 79.785 20.192 0 20.192z" mask="url(#prefix__d)"/>
            <path fill="#FFF" d="M2.634 25.684c0 .593-.472 1.073-1.054 1.073-.581 0-1.053-.48-1.053-1.073 0-.592.472-1.072 1.053-1.072.582 0 1.054.48 1.054 1.072M21.747 25.684c0 .593-.472 1.073-1.054 1.073-.582 0-1.054-.48-1.054-1.073 0-.592.472-1.072 1.054-1.072.582 0 1.054.48 1.054 1.072M40.86 25.684c0 .593-.472 1.073-1.054 1.073-.582 0-1.054-.48-1.054-1.073 0-.592.472-1.072 1.054-1.072.582 0 1.053.48 1.053 1.072M59.972 25.684c0 .593-.472 1.073-1.054 1.073-.582 0-1.053-.48-1.053-1.073 0-.592.471-1.072 1.053-1.072s1.054.48 1.054 1.072M79.085 25.684c0 .593-.472 1.073-1.054 1.073-.582 0-1.053-.48-1.053-1.073 0-.592.471-1.072 1.053-1.072s1.054.48 1.054 1.072" mask="url(#prefix__d)"/>
            <path fill="#8D8D8D" d="M57.988 16.916c-.486 1.26-1.014 2.49-2.116 3.31-1.017.756-2.312 1.057-3.555 1.032-1.345-.028-2.648-.573-3.875-1.083-.699-.29-1.396-.583-2.116-.817-.659-.214-1.357-.27-2.001-.532.06-.468.055-.957.055-1.414 0-.238-.012-.498-.058-.75.06.012.124-.007.165-.073.701-1.126 2.184-1.662 3.263-2.332 1.344-.834 2.652-1.734 4.07-2.438.839-.417 1.677-.831 2.552-1.166.935-.358 1.999-.694 3.007-.532 1.251.202 1.528 1.501 1.55 2.608.03 1.433-.433 2.87-.941 4.187m-23.047.63c-1.53-.496-2.983-1.189-4.437-1.876-1.534-.726-3.042-1.51-4.498-2.388-.944-.57-2.303-1.24-2.433-2.495-.124-1.2.71-2.475 1.338-3.424.694-1.046 1.723-2.31 3.043-2.454 1.407-.153 2.094 1.298 2.724 2.309.81 1.298 1.99 2.372 3 3.504 1.873 2.096 3.323 4.54 5.21 6.622.016.018.033.03.05.038-.201.576-.363 1.181-.635 1.69-.937-.813-2.213-1.155-3.362-1.527m27.917-6.113c-.29-1.784-1.642-3.276-3.168-4.104-1.55-.842-3.408-.966-5.072-.433-1.024.328-1.96.96-2.868 1.523-1.112.69-2.185 1.444-3.219 2.25-.913.712-1.774 1.49-2.66 2.236-.874.734-1.743 1.52-2.307 2.533-.008.015-.013.029-.017.042-.935-.513-2.26.158-3.284.11-.295-.615-.43-1.278-.609-1.936-.205-.76-.582-1.392-1-2.047-.879-1.376-1.886-2.651-2.996-3.839-1.883-2.014-3.713-4.1-5.937-5.739-1.072-.79-2.258-1.45-3.526-1.848-1.159-.364-2.354-.145-3.42.395-1.109.561-2.04 1.459-2.95 2.295-.872.801-1.703 1.646-2.421 2.594-1.162 1.533-1.935 3.504-1.052 5.364.955 2.01 3.318 3.134 5.227 3.953 2.477 1.063 5.086 1.848 7.613 2.78 2.466.911 5 1.648 7.38 2.783-.624.427-1.162 1.016-1.632 1.576-.89 1.061-1.626 2.251-2.345 3.436-.932 1.537-1.802 3.078-2.564 4.71-.83 1.781-1.596 3.592-2.504 5.334-.059.113.041.302.182.242.86-.369 1.499-1.114 2.356-1.473.172.608.479 1.175.45 1.825-.007.158.232.232.3.083 1.145-2.482 2.352-4.934 3.584-7.372.79-1.562 1.775-3.008 2.76-4.453V62.27h6.37V23.629c.529.533.928 1.211 1.264 1.883.591 1.181.987 2.46 1.351 3.729.949 3.297 1.998 6.563 2.94 9.862.05.175.326.146.317-.043-.075-1.689-.129-3.542.406-5.17.594.6 1.288 1.028 2.114 1.24.098.026.208-.049.204-.158-.06-1.468-1.407-2.455-2.11-3.618-.48-.795-.67-1.82-.96-2.697-.276-.84-.684-1.59-1.083-2.372-.42-.826-.849-1.648-1.351-2.426-.394-.61-.872-1.16-1.302-1.743-.122-.165-.256-.361-.402-.567.27.18.533.369.8.572 1.07.815 2.226 1.493 3.504 1.906 2.377.767 5.236.728 7.544-.253 2.264-.963 3.722-2.88 4.723-5.092.996-2.202 1.767-4.808 1.37-7.25" mask="url(#prefix__d)"/>
        </g>
    </g>
</svg>
