<svg id="Layer_1" data-name="Layer 1" xmlns="http://www.w3.org/2000/svg" viewBox="0 0 79.74 62.26"><defs><style>.cls-1{opacity:0.83;}.cls-2{fill:#ffd0d9;}.cls-2,.cls-3,.cls-4,.cls-5{fill-rule:evenodd;}.cls-3{fill:#fff;}.cls-4{fill:#ff9db0;}.cls-5{fill:#ff1744;}</style></defs><g class="cls-1"><path class="cls-2" d="M3.38,62.92H77.69V29.56H3.38Z" transform="translate(-0.1 -0.66)"/><path class="cls-3" d="M5.18,29.49H3.1v1.77a1,1,0,0,0,.34,0,1.79,1.79,0,0,0,1.78-1.81m16.45,1.81a1.8,1.8,0,0,0,1.78-1.81h-3.6a1.79,1.79,0,0,0,1.77,1.81h0m18.23,0a1.8,1.8,0,0,0,1.78-1.81H38.1a1.8,1.8,0,0,0,1.78,1.81m18.22,0a1.8,1.8,0,0,0,1.78-1.81H56.29A1.81,1.81,0,0,0,58,31.3h.06m18.23,0a1.7,1.7,0,0,0,.73-.17V29.49H74.52a1.79,1.79,0,0,0,1.77,1.81h0m-63.7,4.78a1.81,1.81,0,1,0,1.78,1.84v0a1.78,1.78,0,0,0-1.76-1.81h0m18.23,0a1.81,1.81,0,1,0,1.77,1.85v0a1.8,1.8,0,0,0-1.77-1.81m18.22,0a1.81,1.81,0,1,0,1.77,1.85v0A1.8,1.8,0,0,0,49,36.08m18.22,0A1.81,1.81,0,1,0,69,37.93v0a1.78,1.78,0,0,0-1.76-1.81h0M5.18,46.2a1.79,1.79,0,0,0-1.77-1.8H3.06V48a1.93,1.93,0,0,0,.34,0,1.79,1.79,0,0,0,1.78-1.81m16.44-1.8a1.81,1.81,0,1,0,1.78,1.84s0,0,0,0a1.8,1.8,0,0,0-1.78-1.8h0m18.23,0a1.81,1.81,0,1,0,1.77,1.85s0,0,0,0a1.79,1.79,0,0,0-1.77-1.8m18.23,0a1.81,1.81,0,1,0,1.76,1.85.43.43,0,0,0,0,0A1.8,1.8,0,0,0,58.1,44.4m16.45,1.8A1.79,1.79,0,0,0,76.32,48h0a1.71,1.71,0,0,0,.74-.17V44.56a1.86,1.86,0,0,0-.74-.16,1.8,1.8,0,0,0-1.77,1.8m-62,6.55a1.81,1.81,0,1,0,1.78,1.84v0a1.78,1.78,0,0,0-1.76-1.81h0m18.23,0a1.81,1.81,0,1,0,1.77,1.85v0a1.8,1.8,0,0,0-1.77-1.81m18.22,0a1.81,1.81,0,1,0,1.77,1.85v0A1.8,1.8,0,0,0,49,52.75m18.22,0A1.81,1.81,0,1,0,69,54.6v0a1.78,1.78,0,0,0-1.76-1.81h0M3.4,61.08H3.06v1.78H5.18A1.8,1.8,0,0,0,3.4,61.08m18.22,0a1.79,1.79,0,0,0-1.77,1.81H23.4a1.79,1.79,0,0,0-1.78-1.81m18.23,0a1.8,1.8,0,0,0-1.75,1.84h3.55a1.79,1.79,0,0,0-1.73-1.84h-.07m18.25,0a1.79,1.79,0,0,0-1.77,1.81h3.55a1.79,1.79,0,0,0-1.77-1.81h0m19,.17a1.7,1.7,0,0,0-.73-.17,1.78,1.78,0,0,0-1.77,1.81h2.51Z" transform="translate(-0.1 -0.66)"/><path class="cls-4" d="M.1,31.82H79.84v-11H.1Z" transform="translate(-0.1 -0.66)"/><path class="cls-3" d="M2.69,26.33a1.06,1.06,0,1,1-1.06-1.07,1.07,1.07,0,0,1,1.06,1.07m19.12,0a1.06,1.06,0,0,1-1.07,1.05,1,1,0,0,1-1-1.07,1.06,1.06,0,0,1,1.07-1,1.07,1.07,0,0,1,1,1.07h0m19.11,0a1.06,1.06,0,0,1-1.07,1.05,1,1,0,0,1-1.05-1.07,1.06,1.06,0,0,1,1.07-1,1.07,1.07,0,0,1,1.05,1.07h0m19.11,0a1.06,1.06,0,0,1-1.07,1,1.05,1.05,0,0,1,0-2.1A1.07,1.07,0,0,1,60,26.33h0m19.12,0a1.06,1.06,0,0,1-1.08,1.05,1,1,0,0,1-1-1.07,1.06,1.06,0,0,1,1.07-1h0a1.06,1.06,0,0,1,1,1.07" transform="translate(-0.1 -0.66)"/><path class="cls-5" d="M58,17.56a6.8,6.8,0,0,1-2.12,3.31,5.64,5.64,0,0,1-3.54,1,10.81,10.81,0,0,1-3.89-1.08c-.68-.29-1.39-.58-2.11-.82s-1.36-.27-2-.53a11.06,11.06,0,0,0,0-1.41,3.17,3.17,0,0,0-.06-.75.16.16,0,0,0,.17-.07c.7-1.13,2.18-1.67,3.26-2.34,1.35-.83,2.65-1.73,4.07-2.43.83-.43,1.69-.82,2.55-1.17a6.09,6.09,0,0,1,3-.53c1.25.2,1.53,1.5,1.55,2.61A11,11,0,0,1,58,17.53m-23,.63a36.48,36.48,0,0,1-4.43-1.87q-2.28-1.06-4.45-2.36c-1-.57-2.29-1.24-2.43-2.5S24.38,9,25,8s1.73-2.31,3.05-2.45,2.05,1.29,2.68,2.3a27.24,27.24,0,0,0,3,3.51c1.87,2.09,3.32,4.54,5.21,6.62h0a10.09,10.09,0,0,1-.63,1.69,9.63,9.63,0,0,0-3.37-1.53m28-6.07A6,6,0,0,0,59.74,8a6.58,6.58,0,0,0-5.07-.43,14.08,14.08,0,0,0-2.86,1.54,38,38,0,0,0-3.23,2.25c-1,.8-1.77,1.49-2.66,2.24a9.49,9.49,0,0,0-2.3,2.51v.05c-.93-.52-2.25.15-3.27.11a9.94,9.94,0,0,1-.61-1.94,8.12,8.12,0,0,0-1-2.05,28.52,28.52,0,0,0-3-3.84A45.39,45.39,0,0,0,29.8,2.67,11.88,11.88,0,0,0,26.25.83a4.49,4.49,0,0,0-3.42.39,14,14,0,0,0-2.95,2.3,19.43,19.43,0,0,0-2.41,2.56c-1.17,1.53-1.95,3.5-1.06,5.36s3.32,3.14,5.23,4c2.47,1.06,5.09,1.85,7.61,2.78s5,1.65,7.37,2.78A9.75,9.75,0,0,0,35,22.58,29.63,29.63,0,0,0,32.65,26c-.92,1.53-1.78,3.09-2.55,4.7-.83,1.78-1.59,3.59-2.5,5.34-.05.11,0,.3.18.24.87-.37,1.5-1.12,2.37-1.47a6.07,6.07,0,0,1,.45,1.82.16.16,0,0,0,.15.17.19.19,0,0,0,.15-.09c1.13-2.48,2.34-4.93,3.58-7.37a40.14,40.14,0,0,1,2.76-4.45v38H43.6V24.28a7.53,7.53,0,0,1,1.28,1.88,21.55,21.55,0,0,1,1.34,3.73c1,3.29,2,6.56,2.94,9.86a.17.17,0,0,0,.2.12.15.15,0,0,0,.11-.12,14.78,14.78,0,0,1,.41-5.17A4.54,4.54,0,0,0,52,35.82a.16.16,0,0,0,.21-.12v0c-.1-1.51-1.43-2.5-2.1-3.66a13.46,13.46,0,0,1-1-2.7A16.34,16.34,0,0,0,48,26.93a24.79,24.79,0,0,0-1.34-2.42c-.39-.61-.87-1.16-1.3-1.75-.12-.16-.25-.36-.4-.56.27.18.52.36.79.57a11.91,11.91,0,0,0,3.5,1.9,11.13,11.13,0,0,0,7.55-.25,9.34,9.34,0,0,0,4.72-5.09,12.92,12.92,0,0,0,1.39-7.25" transform="translate(-0.1 -0.66)"/></g></svg>