<svg id="Layer_1" data-name="Layer 1" xmlns="http://www.w3.org/2000/svg" xmlns:xlink="http://www.w3.org/1999/xlink" viewBox="0 0 79.79 62.27"><defs><style>.cls-1{fill:#fff;}.cls-1,.cls-3,.cls-5,.cls-6{fill-rule:evenodd;}.cls-2{opacity:0.83;}.cls-3{fill:#e5e5e5;}.cls-4{mask:url(#mask);}.cls-5{fill:#d5d5d5;}.cls-6{fill:#8d8d8d;}</style><mask id="mask" x="0" y="0" width="79.79" height="62.27" maskUnits="userSpaceOnUse"><g id="prefix_d" data-name="prefix  d"><path id="prefix_c" data-name="prefix  c" class="cls-1" d="M0,62.27H79.79V0H0Z"/></g></mask></defs><g class="cls-2"><path class="cls-3" d="M3.33,62.27H77.64V28.91H3.33Z"/><path class="cls-1" d="M5.12,28.85H3v1.77a1.87,1.87,0,0,0,.34,0,1.79,1.79,0,0,0,1.77-1.8m16.45,1.8a1.79,1.79,0,0,0,1.77-1.8H19.8a1.79,1.79,0,0,0,1.77,1.8m18.22,0a1.79,1.79,0,0,0,1.78-1.8H38a1.79,1.79,0,0,0,1.77,1.8m18.22,0a1.79,1.79,0,0,0,1.78-1.8H56.24A1.79,1.79,0,0,0,58,30.65m18.23,0a1.86,1.86,0,0,0,.74-.16V28.85H74.46a1.79,1.79,0,0,0,1.78,1.8M12.54,35.4a1.81,1.81,0,1,0,1.77,1.8,1.78,1.78,0,0,0-1.77-1.8m18.22,0a1.81,1.81,0,1,0,1.78,1.8,1.78,1.78,0,0,0-1.78-1.8M49,35.4a1.81,1.81,0,1,0,1.77,1.8A1.79,1.79,0,0,0,49,35.4m18.22,0A1.81,1.81,0,1,0,69,37.2a1.79,1.79,0,0,0-1.77-1.8M5.12,45.56a1.79,1.79,0,0,0-1.77-1.81,1.87,1.87,0,0,0-.34,0v3.55a1.87,1.87,0,0,0,.34,0,1.78,1.78,0,0,0,1.77-1.8m16.45-1.81a1.81,1.81,0,1,0,1.77,1.81,1.79,1.79,0,0,0-1.77-1.81m18.22,0a1.81,1.81,0,1,0,1.78,1.81,1.79,1.79,0,0,0-1.78-1.81m18.22,0a1.81,1.81,0,1,0,1.78,1.81A1.79,1.79,0,0,0,58,43.75m16.45,1.81a1.79,1.79,0,0,0,1.78,1.8A1.86,1.86,0,0,0,77,47.2V43.92a1.71,1.71,0,0,0-.74-.17,1.8,1.8,0,0,0-1.78,1.81M12.54,52.11a1.81,1.81,0,1,0,1.77,1.8,1.79,1.79,0,0,0-1.77-1.8m18.22,0a1.81,1.81,0,1,0,1.78,1.8,1.79,1.79,0,0,0-1.78-1.8m18.23,0a1.81,1.81,0,1,0,1.77,1.8A1.79,1.79,0,0,0,49,52.11m18.22,0A1.81,1.81,0,1,0,69,53.91a1.79,1.79,0,0,0-1.77-1.8M3.35,60.46a1.86,1.86,0,0,0-.34,0v1.77H5.12a1.79,1.79,0,0,0-1.77-1.81m18.22,0a1.79,1.79,0,0,0-1.77,1.81h3.54a1.79,1.79,0,0,0-1.77-1.81m18.22,0A1.79,1.79,0,0,0,38,62.27h3.55a1.8,1.8,0,0,0-1.78-1.81m18.22,0a1.79,1.79,0,0,0-1.77,1.81h3.55A1.79,1.79,0,0,0,58,60.46m19,.17a1.71,1.71,0,0,0-.74-.17,1.8,1.8,0,0,0-1.78,1.81H77Z"/><g class="cls-4"><path class="cls-5" d="M0,31.18H79.79v-11H0Z"/></g><g class="cls-4"><path class="cls-1" d="M2.63,25.68a1.06,1.06,0,0,1-1,1.08,1.08,1.08,0,0,1,0-2.15,1.06,1.06,0,0,1,1,1.07m19.12,0a1.06,1.06,0,1,1-2.11,0,1.06,1.06,0,1,1,2.11,0m19.11,0a1.06,1.06,0,1,1-1-1.07,1.06,1.06,0,0,1,1,1.07m19.11,0a1.06,1.06,0,1,1-1-1.07,1.06,1.06,0,0,1,1,1.07m19.11,0a1.05,1.05,0,1,1-1-1.07,1.06,1.06,0,0,1,1,1.07"/></g><g class="cls-4"><path class="cls-6" d="M58,16.92a7,7,0,0,1-2.12,3.31,5.84,5.84,0,0,1-3.55,1,11,11,0,0,1-3.88-1.09c-.7-.29-1.39-.58-2.11-.81s-1.36-.27-2-.53a11.32,11.32,0,0,0,.06-1.42,3.86,3.86,0,0,0-.06-.75.17.17,0,0,0,.17-.07c.7-1.13,2.18-1.66,3.26-2.33a46.59,46.59,0,0,1,4.07-2.44c.84-.42,1.68-.83,2.55-1.17a6,6,0,0,1,3-.53c1.25.2,1.53,1.5,1.55,2.61A11.26,11.26,0,0,1,58,16.92m-23.05.63a38.35,38.35,0,0,1-4.44-1.88A50.76,50.76,0,0,1,26,13.28c-1-.57-2.31-1.24-2.44-2.49s.71-2.48,1.34-3.43,1.72-2.31,3-2.45,2.1,1.3,2.73,2.31a27,27,0,0,0,3,3.5c1.87,2.1,3.32,4.54,5.21,6.62a.1.1,0,0,0,0,0,12.07,12.07,0,0,1-.64,1.69,9.51,9.51,0,0,0-3.36-1.53m27.92-6.11a6,6,0,0,0-3.17-4.1,6.54,6.54,0,0,0-5.07-.44,13.2,13.2,0,0,0-2.87,1.53,35.7,35.7,0,0,0-3.22,2.25c-.91.71-1.77,1.49-2.66,2.23a9.65,9.65,0,0,0-2.31,2.54v0c-.94-.51-2.26.16-3.29.11a11.81,11.81,0,0,1-.61-1.94,7,7,0,0,0-1-2,26,26,0,0,0-3-3.84A45.35,45.35,0,0,0,29.72,2,12.16,12.16,0,0,0,26.19.18a4.54,4.54,0,0,0-3.42.39,14.21,14.21,0,0,0-2.95,2.3A20.45,20.45,0,0,0,17.4,5.46C16.24,7,15.47,9,16.35,10.83c1,2,3.32,3.13,5.23,3.95,2.48,1.06,5.08,1.85,7.61,2.78s5,1.65,7.38,2.78a8.72,8.72,0,0,0-1.63,1.58,27.11,27.11,0,0,0-2.35,3.44A47.48,47.48,0,0,0,30,30.07c-.83,1.78-1.6,3.59-2.5,5.33-.06.11,0,.3.18.24.86-.37,1.5-1.11,2.35-1.47A5.53,5.53,0,0,1,30.51,36c0,.16.24.24.3.09,1.15-2.49,2.36-4.94,3.59-7.38a40.14,40.14,0,0,1,2.76-4.45v38h6.37V23.63a7,7,0,0,1,1.26,1.88,21.29,21.29,0,0,1,1.35,3.73c1,3.3,2,6.56,2.94,9.86a.16.16,0,0,0,.32,0,14.74,14.74,0,0,1,.41-5.17,4.45,4.45,0,0,0,2.11,1.24.16.16,0,0,0,.2-.16c-.06-1.47-1.4-2.45-2.11-3.62a13.25,13.25,0,0,1-1-2.69A16.4,16.4,0,0,0,48,26.28c-.42-.82-.85-1.64-1.35-2.42-.39-.61-.87-1.16-1.3-1.74l-.4-.57c.27.18.53.37.8.57A11.82,11.82,0,0,0,49.22,24a11.22,11.22,0,0,0,7.54-.26,9.37,9.37,0,0,0,4.73-5.09,13.22,13.22,0,0,0,1.37-7.25"/></g></g></svg>