<svg id="Layer_1" data-name="Layer 1" xmlns="http://www.w3.org/2000/svg" xmlns:xlink="http://www.w3.org/1999/xlink" viewBox="0 0 79.79 63"><defs><style>.cls-1,.cls-7{fill:#fff;}.cls-1,.cls-10,.cls-11,.cls-3,.cls-5,.cls-6,.cls-8{fill-rule:evenodd;}.cls-2{opacity:0.83;}.cls-3{fill:#e9effb;}.cls-4{mask:url(#mask);}.cls-5{fill:#d4e2ff;}.cls-6{fill:#84aeff;}.cls-8{fill:#ffd0d9;}.cls-9{mask:url(#mask-4);}.cls-10{fill:#ff9db0;}.cls-11{fill:#ff1744;}</style><mask id="mask" x="0" y="0.37" width="79.79" height="62.27" maskUnits="userSpaceOnUse"><g id="prefix_d" data-name="prefix  d"><path id="prefix_c" data-name="prefix  c" class="cls-1" d="M0,62.64H79.79V.37H0Z"/></g></mask><mask id="mask-4" x="-0.05" y="0.57" width="79.79" height="62.27" maskUnits="userSpaceOnUse"><g id="prefix_d-4" data-name="prefix  d"><path id="prefix_c-4" data-name="prefix  c" class="cls-1" d="M0,62.84H79.74V.57H0Z"/></g></mask></defs><g class="cls-2"><path class="cls-3" d="M3.33,62.64H77.64V29.28H3.33Z"/><path class="cls-1" d="M5.12,29.21H3V31a1.86,1.86,0,0,0,.34,0,1.79,1.79,0,0,0,1.77-1.81M21.57,31a1.79,1.79,0,0,0,1.77-1.81H19.8A1.79,1.79,0,0,0,21.57,31m18.22,0a1.8,1.8,0,0,0,1.78-1.81H38A1.79,1.79,0,0,0,39.79,31M58,31a1.8,1.8,0,0,0,1.78-1.81H56.24A1.79,1.79,0,0,0,58,31m18.23,0a1.71,1.71,0,0,0,.74-.17V29.21H74.46A1.8,1.8,0,0,0,76.24,31m-63.7,4.74a1.81,1.81,0,1,0,1.77,1.81,1.79,1.79,0,0,0-1.77-1.81m18.22,0a1.81,1.81,0,1,0,1.78,1.81,1.79,1.79,0,0,0-1.78-1.81m18.23,0a1.81,1.81,0,1,0,1.77,1.81A1.8,1.8,0,0,0,49,35.76m18.22,0A1.81,1.81,0,1,0,69,37.57a1.8,1.8,0,0,0-1.77-1.81M5.12,45.92a1.78,1.78,0,0,0-1.77-1.8,1.87,1.87,0,0,0-.34,0V47.7a1.87,1.87,0,0,0,.34,0,1.79,1.79,0,0,0,1.77-1.81m16.45-1.8a1.81,1.81,0,1,0,1.77,1.8,1.78,1.78,0,0,0-1.77-1.8m18.22,0a1.81,1.81,0,1,0,1.78,1.8,1.78,1.78,0,0,0-1.78-1.8m18.22,0a1.81,1.81,0,1,0,1.78,1.8A1.78,1.78,0,0,0,58,44.12m16.45,1.8a1.8,1.8,0,0,0,1.78,1.81,1.71,1.71,0,0,0,.74-.17V44.28a1.86,1.86,0,0,0-.74-.16,1.79,1.79,0,0,0-1.78,1.8M12.54,52.47a1.81,1.81,0,1,0,1.77,1.81,1.79,1.79,0,0,0-1.77-1.81m18.22,0a1.81,1.81,0,1,0,1.78,1.81,1.79,1.79,0,0,0-1.78-1.81m18.23,0a1.81,1.81,0,1,0,1.77,1.81A1.8,1.8,0,0,0,49,52.47m18.22,0A1.81,1.81,0,1,0,69,54.28a1.8,1.8,0,0,0-1.77-1.81M3.35,60.83a1.87,1.87,0,0,0-.34,0v1.78H5.12a1.79,1.79,0,0,0-1.77-1.81m18.22,0a1.79,1.79,0,0,0-1.77,1.81h3.54a1.79,1.79,0,0,0-1.77-1.81m18.22,0A1.79,1.79,0,0,0,38,62.64h3.55a1.8,1.8,0,0,0-1.78-1.81m18.22,0a1.79,1.79,0,0,0-1.77,1.81h3.55A1.79,1.79,0,0,0,58,60.83M77,61a1.86,1.86,0,0,0-.74-.16,1.79,1.79,0,0,0-1.78,1.8H77Z"/><g class="cls-4"><path class="cls-5" d="M0,31.54H79.79v-11H0Z"/></g><g class="cls-4"><path class="cls-1" d="M2.63,26.05a1.06,1.06,0,0,1-1,1.07,1.07,1.07,0,0,1,0-2.14,1.06,1.06,0,0,1,1,1.07m19.12,0A1.06,1.06,0,1,1,20.69,25a1.07,1.07,0,0,1,1.06,1.07m19.11,0a1.06,1.06,0,1,1-1-1.07,1.06,1.06,0,0,1,1,1.07m19.11,0a1.06,1.06,0,1,1-1-1.07,1.06,1.06,0,0,1,1,1.07m19.11,0A1.05,1.05,0,1,1,78,25a1.06,1.06,0,0,1,1,1.07"/></g><g class="cls-4"><path class="cls-6" d="M58,17.28a7,7,0,0,1-2.12,3.31,5.71,5.71,0,0,1-3.55,1,11,11,0,0,1-3.88-1.08c-.7-.29-1.39-.58-2.11-.82s-1.36-.27-2-.53a11.24,11.24,0,0,0,.06-1.41,3.86,3.86,0,0,0-.06-.75.16.16,0,0,0,.17-.08c.7-1.12,2.18-1.66,3.26-2.33,1.34-.83,2.65-1.73,4.07-2.44.84-.41,1.68-.83,2.55-1.16a5.93,5.93,0,0,1,3-.53c1.25.2,1.53,1.5,1.55,2.6A11.22,11.22,0,0,1,58,17.28m-23.05.63A38.35,38.35,0,0,1,30.5,16,50.67,50.67,0,0,1,26,13.65c-1-.57-2.31-1.24-2.44-2.5s.71-2.47,1.34-3.42,1.72-2.31,3-2.46,2.1,1.3,2.73,2.31a27.81,27.81,0,0,0,3,3.51c1.87,2.09,3.32,4.54,5.21,6.62a.1.1,0,0,0,0,0,12.57,12.57,0,0,1-.64,1.69,9.17,9.17,0,0,0-3.36-1.53M62.86,11.8a6,6,0,0,0-3.17-4.11,6.54,6.54,0,0,0-5.07-.43,13.6,13.6,0,0,0-2.87,1.52A37.85,37.85,0,0,0,48.53,11c-.91.71-1.77,1.49-2.66,2.24a9.61,9.61,0,0,0-2.31,2.53s0,0,0,0c-.94-.51-2.26.16-3.29.11A11.41,11.41,0,0,1,39.65,14a7.22,7.22,0,0,0-1-2,26.53,26.53,0,0,0-3-3.84,46,46,0,0,0-5.94-5.74A12.16,12.16,0,0,0,26.19.54a4.54,4.54,0,0,0-3.42.4,14.16,14.16,0,0,0-2.95,2.29,20.53,20.53,0,0,0-2.42,2.6c-1.16,1.53-1.93,3.5-1,5.36,1,2,3.32,3.14,5.23,4,2.48,1.06,5.08,1.84,7.61,2.78s5,1.64,7.38,2.78a8.67,8.67,0,0,0-1.63,1.57,28.62,28.62,0,0,0-2.35,3.44A49.84,49.84,0,0,0,30,30.43c-.83,1.78-1.6,3.59-2.5,5.33-.06.12,0,.31.18.25.86-.37,1.5-1.12,2.35-1.48a5.59,5.59,0,0,1,.45,1.83c0,.16.24.23.3.08C32,34,33.17,31.51,34.4,29.07a39.24,39.24,0,0,1,2.76-4.45v38h6.37V24a7.09,7.09,0,0,1,1.26,1.89,21.29,21.29,0,0,1,1.35,3.73c1,3.29,2,6.56,2.94,9.86a.16.16,0,0,0,.32,0,14.76,14.76,0,0,1,.41-5.17,4.45,4.45,0,0,0,2.11,1.24.15.15,0,0,0,.2-.15c-.06-1.47-1.4-2.46-2.11-3.62a13.34,13.34,0,0,1-1-2.7A15.82,15.82,0,0,0,48,26.65a27.36,27.36,0,0,0-1.35-2.43c-.39-.61-.87-1.16-1.3-1.74-.12-.16-.26-.36-.4-.57.27.18.53.37.8.58a11.79,11.79,0,0,0,3.5,1.9,11.16,11.16,0,0,0,7.54-.25,9.37,9.37,0,0,0,4.73-5.09,13.24,13.24,0,0,0,1.37-7.25"/></g></g><rect id="prefix_b" data-name="prefix  b" x="-34.05" y="-23.43" width="148" height="148" rx="6"/><rect id="prefix_b-2" data-name="prefix  b" class="cls-7" x="-34.05" y="-23.43" width="148" height="148" rx="6"/><g class="cls-2"><path class="cls-8" d="M3.28,62.84H77.59V29.48H3.28Z"/><path class="cls-1" d="M5.08,29.41H3v1.77a1.32,1.32,0,0,0,.34,0,1.8,1.8,0,0,0,1.78-1.81m16.44,1.81a1.8,1.8,0,0,0,1.78-1.81H19.75a1.79,1.79,0,0,0,1.77,1.81m18.23,0a1.79,1.79,0,0,0,1.77-1.81H38a1.8,1.8,0,0,0,1.78,1.81m18.22,0a1.79,1.79,0,0,0,1.77-1.81H56.19A1.8,1.8,0,0,0,58,31.22m18.22,0a1.71,1.71,0,0,0,.74-.17V29.41H74.42a1.79,1.79,0,0,0,1.77,1.81M12.49,36a1.81,1.81,0,1,0,1.78,1.81A1.79,1.79,0,0,0,12.49,36m18.23,0a1.81,1.81,0,1,0,1.77,1.81A1.8,1.8,0,0,0,30.72,36m18.22,0a1.81,1.81,0,1,0,1.77,1.81A1.8,1.8,0,0,0,48.94,36m18.22,0a1.81,1.81,0,1,0,1.77,1.81A1.79,1.79,0,0,0,67.16,36M5.08,46.12a1.79,1.79,0,0,0-1.78-1.8,2,2,0,0,0-.34,0V47.9a2,2,0,0,0,.34,0,1.8,1.8,0,0,0,1.78-1.81m16.44-1.8a1.81,1.81,0,1,0,1.78,1.8,1.79,1.79,0,0,0-1.78-1.8m18.23,0a1.81,1.81,0,1,0,1.77,1.8,1.79,1.79,0,0,0-1.77-1.8m18.22,0a1.81,1.81,0,1,0,1.77,1.8A1.79,1.79,0,0,0,58,44.32m16.45,1.8a1.79,1.79,0,0,0,1.77,1.81,1.71,1.71,0,0,0,.74-.17V44.48a1.86,1.86,0,0,0-.74-.16,1.79,1.79,0,0,0-1.77,1.8M12.49,52.67a1.81,1.81,0,1,0,1.78,1.81,1.79,1.79,0,0,0-1.78-1.81m18.23,0a1.81,1.81,0,1,0,1.77,1.81,1.8,1.8,0,0,0-1.77-1.81m18.22,0a1.81,1.81,0,1,0,1.77,1.81,1.8,1.8,0,0,0-1.77-1.81m18.22,0a1.81,1.81,0,1,0,1.77,1.81,1.79,1.79,0,0,0-1.77-1.81M3.3,61a2,2,0,0,0-.34,0v1.78H5.08A1.8,1.8,0,0,0,3.3,61m18.22,0a1.79,1.79,0,0,0-1.77,1.81H23.3A1.8,1.8,0,0,0,21.52,61m18.23,0A1.8,1.8,0,0,0,38,62.84h3.55A1.79,1.79,0,0,0,39.75,61M58,61a1.8,1.8,0,0,0-1.78,1.81h3.55A1.79,1.79,0,0,0,58,61m19,.17a1.71,1.71,0,0,0-.74-.17,1.79,1.79,0,0,0-1.77,1.81h2.51Z"/><g class="cls-9"><path class="cls-10" d="M0,31.74H79.74v-11H0Z"/></g><g class="cls-9"><path class="cls-1" d="M2.59,26.25a1.07,1.07,0,0,1-1.06,1.07,1.07,1.07,0,0,1,0-2.14,1.07,1.07,0,0,1,1.06,1.07m19.11,0a1.06,1.06,0,1,1-1.05-1.07,1.06,1.06,0,0,1,1.05,1.07m19.11,0a1.06,1.06,0,1,1-1.05-1.07,1.06,1.06,0,0,1,1.05,1.07m19.11,0a1.05,1.05,0,1,1-1.05-1.07,1.06,1.06,0,0,1,1.05,1.07m19.12,0A1.06,1.06,0,1,1,78,25.18,1.06,1.06,0,0,1,79,26.25"/></g><g class="cls-9"><path class="cls-11" d="M57.94,17.48a6.92,6.92,0,0,1-2.12,3.31,5.69,5.69,0,0,1-3.55,1,10.82,10.82,0,0,1-3.88-1.08c-.69-.29-1.39-.58-2.11-.82s-1.36-.27-2-.53a11.14,11.14,0,0,0,0-1.41,3.86,3.86,0,0,0-.06-.75.17.17,0,0,0,.17-.07c.7-1.13,2.18-1.67,3.26-2.34,1.35-.83,2.65-1.73,4.07-2.43a27.84,27.84,0,0,1,2.55-1.17,6,6,0,0,1,3-.53c1.25.2,1.53,1.5,1.55,2.61a11.16,11.16,0,0,1-.94,4.18m-23,.63a37.42,37.42,0,0,1-4.43-1.87A49.57,49.57,0,0,1,26,13.85c-.95-.57-2.3-1.24-2.43-2.5s.71-2.47,1.33-3.42,1.73-2.31,3.05-2.45S30,6.77,30.63,7.78a27.12,27.12,0,0,0,3,3.51c1.87,2.09,3.32,4.54,5.21,6.62l0,0a12.54,12.54,0,0,1-.63,1.69,9.46,9.46,0,0,0-3.37-1.53M62.81,12a6,6,0,0,0-3.17-4.11,6.54,6.54,0,0,0-5.07-.43A13.85,13.85,0,0,0,51.7,9c-1.11.69-2.18,1.45-3.22,2.25s-1.77,1.49-2.66,2.24A9.41,9.41,0,0,0,43.52,16s0,0,0,.05c-.94-.52-2.26.15-3.28.11a10.92,10.92,0,0,1-.61-1.94,7.8,7.8,0,0,0-1-2.05,27.16,27.16,0,0,0-3-3.84,44.75,44.75,0,0,0-5.94-5.74A11.84,11.84,0,0,0,26.15.75a4.49,4.49,0,0,0-3.42.39,13.63,13.63,0,0,0-2.95,2.3A19.14,19.14,0,0,0,17.36,6c-1.17,1.53-1.94,3.5-1.06,5.36s3.32,3.14,5.23,4c2.48,1.06,5.09,1.85,7.61,2.78s5,1.65,7.38,2.78a8.72,8.72,0,0,0-1.63,1.58,27.66,27.66,0,0,0-2.34,3.43A52.31,52.31,0,0,0,30,30.63c-.83,1.78-1.59,3.59-2.5,5.34-.06.11,0,.3.18.24.86-.37,1.5-1.12,2.36-1.47a5.72,5.72,0,0,1,.45,1.82.16.16,0,0,0,.3.08c1.14-2.48,2.35-4.93,3.58-7.37a40.72,40.72,0,0,1,2.76-4.45v38h6.37V24.2a7.32,7.32,0,0,1,1.27,1.88,22.13,22.13,0,0,1,1.35,3.73c.95,3.29,2,6.56,2.94,9.86a.16.16,0,0,0,.31,0,14.73,14.73,0,0,1,.41-5.17,4.58,4.58,0,0,0,2.11,1.24.17.17,0,0,0,.21-.16C52,34.07,50.67,33.08,50,31.92a13.12,13.12,0,0,1-1-2.7,16.94,16.94,0,0,0-1.09-2.37,24.88,24.88,0,0,0-1.35-2.42c-.39-.61-.87-1.16-1.3-1.75-.12-.16-.25-.36-.4-.56.27.18.53.36.8.57a11.91,11.91,0,0,0,3.5,1.9,11.19,11.19,0,0,0,7.55-.25,9.39,9.39,0,0,0,4.72-5.09A13,13,0,0,0,62.81,12"/></g></g></svg>