<svg height="27" viewBox="0 0 28 27" width="28" xmlns="http://www.w3.org/2000/svg"><path d="m14.311 18.202c-.687 0-1.244.534-1.244 1.194 0 .659.557 1.193 1.244 1.193s1.245-.534 1.245-1.193c0-.66-.558-1.194-1.245-1.194m0-11.935c-2.713 0-4.978 2.033-4.978 4.578-.007.494.405.901.92.908.516.007.94-.388.947-.882v-.026c0-1.527 1.357-2.788 3.111-2.788s3.111 1.261 3.111 2.788c0 1.074-.583 1.638-1.478 2.368-.894.731-2.142 1.5-2.537 2.975-.13.479.171.967.67 1.091.5.124 1.01-.164 1.138-.643.18-.67.951-1.257 1.935-2.061s2.139-1.958 2.139-3.73c0-2.545-2.265-4.578-4.978-4.578m-.408-6.266c-.516.026-.912.448-.885.942s.466.874.982.848c6.712 0 12.133 5.2 12.133 11.637s-5.421 11.637-12.133 11.637-12.133-5.2-12.133-11.637c0-5.476 3.93-10.053 9.226-11.301.502-.116.811-.6.69-1.082-.12-.481-.625-.777-1.127-.662-6.117 1.441-10.656 6.747-10.656 13.045 0 7.405 6.28 13.427 14 13.427s14-6.022 14-13.427-6.28-13.427-14-13.427a1.053 1.053 0 0 0 -.097 0" fill="#ff1744" fill-rule="evenodd"/></svg>