<svg xmlns="http://www.w3.org/2000/svg" xmlns:xlink="http://www.w3.org/1999/xlink" width="34" height="34" viewBox="0 0 34 34">
    <defs>
        <path id="prefix__a" d="M0 0L9.391 0 9.391 15.261 0 15.261z"/>
    </defs>
    <g fill="none" fill-rule="evenodd">
        <path d="M0 0H34V34H0z"/>
        <g>
            <g transform="translate(4 3) translate(8.217 7.043)">
                <mask id="prefix__b" fill="#fff">
                    <use xlink:href="#prefix__a"/>
                </mask>
                <path fill="#4A4A4A" d="M3.897 14.787v-.817c0-.14.043-.259.131-.354.088-.093.204-.14.35-.14h.832c.147 0 .266.047.361.14.096.095.142.213.142.354v.817c0 .144-.046.259-.142.345-.095.086-.214.129-.36.129h-.832c-.147 0-.263-.043-.35-.129-.089-.086-.132-.201-.132-.345zm.394-2.729c-.088-.086-.131-.2-.131-.343V10.68c0-.586.101-1.116.307-1.589.203-.474.452-.884.743-1.236.292-.351.679-.77 1.16-1.257.599-.617 1.034-1.121 1.303-1.517.27-.393.405-.84.405-1.343 0-.758-.328-1.364-.986-1.817-.655-.451-1.414-.675-2.275-.675-.92 0-1.687.236-2.3.709-.612.472-1.007 1.231-1.18 2.278-.06.317-.234.473-.527.473H.46c-.131 0-.24-.04-.329-.118C.043 4.509 0 4.407 0 4.276c.014-.787.235-1.507.657-2.16C1.08 1.466 1.652.95 2.376.57 3.098.19 3.911 0 4.816 0c.979 0 1.814.171 2.506.517.693.342 1.211.8 1.556 1.375.342.573.513 1.19.513 1.847 0 .747-.174 1.39-.524 1.936-.35.544-.869 1.166-1.555 1.87-.613.63-1.07 1.169-1.367 1.612-.301.444-.45.953-.45 1.524v1.034c0 .143-.044.257-.132.343-.086.085-.204.13-.349.13h-.373c-.145 0-.262-.045-.35-.13" mask="url(#prefix__b)"/>
            </g>
            <path stroke="#4A4A4A" stroke-linecap="round" stroke-linejoin="round" d="M27 13.5C27 20.957 20.956 27 13.5 27S0 20.957 0 13.5 6.044 0 13.5 0 27 6.043 27 13.5z" transform="translate(4 3)"/>
        </g>
    </g>
</svg>
