<svg xmlns="http://www.w3.org/2000/svg" width="88.693" height="74.978" viewBox="0 0 88.693 74.978"><g transform="translate(-42.166 -209.365)"><g transform="translate(42.166 209.365)"><path d="M102.777,273.014s-47.146,4.071-51.587-4.81.518-49.811,7.327-54.1,59.654-7.549,67.2.888,2.22,50.18-3.849,56.546S93.9,284.709,93.9,284.709Z" transform="translate(-44.572 -209.731)" fill="#da1c5c"/><path d="M44.936,266.133s-2.147,21.02,2.887,23.536c0,0-5.255-.962-5.625-6.217S44.936,266.133,44.936,266.133Z" transform="translate(-42.166 -228.236)" fill="#da1c5c"/><path d="M170.03,232.187s1.555-17.319-5.329-20.205c0,0,4.885-.667,6,4.885S170.03,232.187,170.03,232.187Z" transform="translate(-82.368 -210.461)" fill="#da1c5c"/></g><path d="M10.092-8.4V0H9.24V-6.72L5.94-1.068H5.52L2.22-6.684V0H1.368V-8.4H2.1L5.748-2.172,9.36-8.4Zm4.764,2.04a2.672,2.672,0,0,1,1.9.618,2.388,2.388,0,0,1,.66,1.83V0H16.6V-.984a1.954,1.954,0,0,1-.846.768A2.961,2.961,0,0,1,14.424.06a2.6,2.6,0,0,1-1.68-.5,1.628,1.628,0,0,1-.624-1.332,1.614,1.614,0,0,1,.582-1.3,2.848,2.848,0,0,1,1.854-.492h2v-.384A1.618,1.618,0,0,0,16.1-5.19a1.883,1.883,0,0,0-1.332-.426,3.386,3.386,0,0,0-1.152.2,2.9,2.9,0,0,0-.948.546l-.384-.636a3.405,3.405,0,0,1,1.152-.63A4.485,4.485,0,0,1,14.856-6.36Zm-.3,5.748a2.245,2.245,0,0,0,1.236-.33A1.971,1.971,0,0,0,16.56-1.9V-2.928H14.58q-1.62,0-1.62,1.128a1.032,1.032,0,0,0,.42.87A1.912,1.912,0,0,0,14.556-.612Zm10.356-5.7L21.756.756a3.017,3.017,0,0,1-.888,1.26,1.984,1.984,0,0,1-1.212.372,2.474,2.474,0,0,1-.852-.144,1.846,1.846,0,0,1-.684-.432l.4-.636a1.571,1.571,0,0,0,1.152.48,1.159,1.159,0,0,0,.738-.24A2.178,2.178,0,0,0,20.976.6l.276-.612-2.82-6.3h.888L21.7-.948l2.376-5.364ZM29.436-8.4h.888V0h-.888ZM12.7,7.1V19H8.687V14.614H4.981V19H.969V7.1H4.981v4.216H8.687V7.1Zm11.832,8.874V19H14.637V7.1H24.31v3.026H18.581V11.52h5.032v2.89H18.581v1.564ZM26.078,7.1H30.09v8.789h5.372V19H26.078ZM42.3,7.1a7.024,7.024,0,0,1,2.873.544,4.117,4.117,0,0,1,2.55,3.944,4.117,4.117,0,0,1-2.55,3.944,7.024,7.024,0,0,1-2.873.544H40.579V19H36.567V7.1Zm-.255,5.882a1.785,1.785,0,0,0,1.224-.366,1.309,1.309,0,0,0,.408-1.028,1.309,1.309,0,0,0-.408-1.028,1.785,1.785,0,0,0-1.224-.365H40.579v2.788Zm9.707,1.462a2.355,2.355,0,0,1,.357-1.335,7.074,7.074,0,0,1,1.02-1.165,6.408,6.408,0,0,0,.62-.663.878.878,0,0,0,.2-.544.666.666,0,0,0-.323-.587,1.456,1.456,0,0,0-.816-.213,1.817,1.817,0,0,0-1.02.315,2.195,2.195,0,0,0-.748.841L48.008,9.582a4.848,4.848,0,0,1,2.014-2.023,6.771,6.771,0,0,1,3.29-.731,6.025,6.025,0,0,1,3.366.85,2.709,2.709,0,0,1,1.292,2.4,2.962,2.962,0,0,1-.246,1.249,3.393,3.393,0,0,1-.587.9,9.768,9.768,0,0,1-.867.807,7.272,7.272,0,0,0-.782.765.991.991,0,0,0-.238.646ZM53.5,19.17a2.255,2.255,0,0,1-1.615-.595,1.915,1.915,0,0,1-.629-1.445,1.855,1.855,0,0,1,.629-1.436,2.575,2.575,0,0,1,3.23,0,1.855,1.855,0,0,1,.629,1.436,1.915,1.915,0,0,1-.629,1.445A2.255,2.255,0,0,1,53.5,19.17Z" transform="translate(59.664 236.365)" fill="#fff"/></g></svg>