<svg xmlns="http://www.w3.org/2000/svg" width="23" height="17" viewBox="0 0 23 17">
    <g>
        <path d="M21.955 0H.732C.328 0 0 .328 0 .732v14.636c0 .404.328.732.732.732h21.223c.404 0 .731-.328.731-.732V.732c0-.404-.327-.732-.731-.732zm0 .732v12.29L14.163 5.23c-.143-.143-.374-.143-.517 0l-3.4 3.4-1.937-1.936c-.143-.143-.375-.143-.518 0l-7.06 7.06V.731h21.224zM.732 15.368v-.58L8.05 7.47l4.132 4.132c.144.139.372.137.513-.005.141-.14.143-.369.005-.513l-1.937-1.936 3.142-3.142 8.05 8.05v1.312H.732z"/>
        <path d="M13.431 11.816c-.143-.138-.371-.136-.513.005-.14.14-.143.37-.004.513l.366.366c.144.138.372.136.513-.005.141-.141.143-.37.004-.513l-.366-.366zM8.05 5.489c1.01 0 1.83-.82 1.83-1.83 0-1.01-.82-1.83-1.83-1.83-1.01 0-1.83.82-1.83 1.83.002 1.01.82 1.828 1.83 1.83zm0-2.928c.606 0 1.098.492 1.098 1.098 0 .606-.492 1.098-1.098 1.098-.606 0-1.098-.492-1.098-1.098 0-.606.492-1.098 1.098-1.098zM16.1 2.195h.366c.202 0 .366-.163.366-.365 0-.203-.164-.366-.366-.366H16.1c-.202 0-.366.163-.366.366 0 .202.164.365.366.365zM17.564 2.195h3.293c.202 0 .366-.163.366-.365 0-.203-.164-.366-.366-.366h-3.293c-.202 0-.366.163-.366.366 0 .202.164.365.366.365z"/>
    </g>
</svg>
