<svg xmlns="http://www.w3.org/2000/svg" width="14" height="14" viewBox="0 0 14 14">
    <g fill="none" fill-rule="evenodd">
        <g fill="#9C6C00" fill-rule="nonzero">
            <g>
                <path d="M15 8c-3.866 0-7 3.134-7 7s3.134 7 7 7 7-3.133 7-7c0-3.866-3.134-7-7-7zm0 12.687c-3.141 0-5.687-2.546-5.687-5.687 0-3.141 2.546-5.687 5.687-5.687 3.141 0 5.687 2.546 5.687 5.687 0 3.141-2.546 5.687-5.687 5.687zm0-9.617c-.5 0-.88.262-.88.684v3.876c0 .423.379.684.88.684.49 0 .881-.271.881-.684v-3.876c0-.412-.391-.684-.88-.684zm0 6.118c-.481 0-.873.392-.873.874 0 .48.392.873.873.873.482 0 .874-.392.874-.873 0-.483-.392-.874-.874-.874z" transform="translate(-570 -451) translate(562 443)"/>
            </g>
        </g>
    </g>
</svg>
