<svg xmlns="http://www.w3.org/2000/svg" width="34" height="34" viewBox="0 0 34 34">
    <g fill="none" fill-rule="evenodd">
        <path d="M0 0H34V34H0z"/>
        <g stroke="#DA1C5C">
            <path d="M15.179 0.818L15.193 23.208" transform="translate(1.69 5.695)"/>
            <path stroke-linecap="round" stroke-linejoin="round" d="M15.156 1.389C9.644 0 8.266 0 0 0v22.226c8.059.075 11.022-.004 15.156 1.385 4.133-1.389 6.888-1.389 15.155-1.385V0c-8.267 0-9.644 0-15.155 1.389zM4.133 6.771L11.022 6.771M4.133 10.938L11.022 10.938M4.133 15.104L11.022 15.104" transform="translate(1.69 5.695)"/>
            <path stroke-linecap="round" stroke-linejoin="round" d="M22.09 9.549v7.218c0 .7.562 1.265 1.255 1.265.693 0 1.255-.565 1.255-1.265V9.549c1.105-.493 1.883-1.607 1.883-2.903 0-1.297-.778-2.411-1.883-2.904v2.27c0 .696-.564 1.266-1.255 1.266-.69 0-1.255-.57-1.255-1.265V3.742c-1.105.493-1.882 1.607-1.882 2.904 0 1.296.777 2.41 1.882 2.903z" transform="translate(1.69 5.695)"/>
        </g>
    </g>
</svg>
