<svg xmlns="http://www.w3.org/2000/svg" width="34" height="34" viewBox="0 0 34 34">
    <g fill="none" fill-rule="evenodd">
        <path d="M0 0H34V34H0z"/>
        <g stroke="#DA1C5C" stroke-linecap="round" stroke-linejoin="round" stroke-width="1.1">
            <path d="M23.222 0H3.666C1.639 0 0 1.73 0 3.875v25.833l2.444-2.583 2.445 2.583 2.444-2.583 2.396 2.583 2.493-2.583 2.445 2.583 2.444-2.583 2.445 2.583V3.875" transform="translate(4.171 2.086)"/>
            <path d="M26.889 3.875v2.583h-7.333V3.875c0-1.15.464-2.183 1.222-2.88C21.426.375 22.28 0 23.222 0c2.03 0 3.667 1.73 3.667 3.875zM5.297 8.199L10.102 8.199 14.904 8.199M5.297 11.972L10.102 11.972 14.904 11.972M9.778 8.2s3.273.456 3.273 3.733-2.517 3.477-2.517 3.477H7.402l4.3 6.997" transform="translate(4.171 2.086)"/>
        </g>
    </g>
</svg>
