<svg xmlns="http://www.w3.org/2000/svg" width="31" height="32" viewBox="0 0 31 32">
    <g fill="none" fill-rule="evenodd">
        <path d="M0 0H34V34H0z" transform="translate(-2 -1)"/>
        <g stroke="#4A4A4A" stroke-linecap="round" stroke-linejoin="round" stroke-width="1.1">
            <path d="M25.536.655H4.583C2.41.655.655 2.41.655 4.583v26.19l2.619-2.618 2.619 2.619 2.619-2.62 2.567 2.62 2.671-2.62 2.619 2.62 2.62-2.62 2.618 2.62V4.583" transform="translate(-2 -1) translate(2 1)"/>
            <path d="M29.464 4.583v2.62h-7.857v-2.62c0-1.165.498-2.213 1.31-2.92.694-.628 1.61-1.008 2.619-1.008 2.174 0 3.928 1.755 3.928 3.928zM6.33 8.967L11.478 8.967 16.623 8.967M6.33 12.792L11.478 12.792 16.623 12.792M11.131 8.967s3.507.464 3.507 3.786-2.696 3.525-2.696 3.525H8.585l4.607 7.094" transform="translate(-2 -1) translate(2 1)"/>
        </g>
    </g>
</svg>
