<svg xmlns="http://www.w3.org/2000/svg" xmlns:xlink="http://www.w3.org/1999/xlink" width="279" height="181" viewBox="0 0 279 181">
    <defs>
        <path id="prefix__a" d="M128.24 18.255c-30.721 10.65-59.19 21.304-79.36 14.79C21.43 24.18.098 49.38.064 80.641v.161c.029 23.29 11.874 49.91 41.798 68.315 36.886 22.688 70.455 31.977 99.81 32.067h.852c78.913-.232 127.17-67.012 127.466-118.066v-.927c-.099-17.375-5.812-32.86-17.826-43.167-15-12.868-32.104-17.553-50.072-17.555-24.05 0-49.648 8.393-73.852 16.785z"/>
        <path id="prefix__c" d="M.694.31C.6.31.524.389.524.483v6.895c0 .094.076.171.17.171h.866c.093 0 .17-.077.17-.17V.481c0-.094-.077-.171-.17-.171H.694z"/>
        <path id="prefix__e" d="M7.816 1.127C3.817 1.127.548 4.396.548 8.39v93.79c0 3.995 3.27 7.264 7.268 7.264h37.999c4 0 7.27-3.27 7.27-7.265V8.39c0-3.994-3.27-7.263-7.27-7.263h-38z"/>
        <path id="prefix__g" d="M1.58 2.484c0 .848.692 1.54 1.542 1.54.846 0 1.538-.692 1.538-1.54 0-.849-.692-1.54-1.538-1.54-.85 0-1.542.691-1.542 1.54z"/>
        <path id="prefix__i" d="M.347 2.484c0 .537.438.976.977.976.536 0 .975-.439.975-.976 0-.538-.439-.976-.975-.976-.539 0-.977.438-.977.976z"/>
        <path id="prefix__k" d="M2.31 1.227c-.567 0-1.029.462-1.029 1.027v.352c0 .564.462 1.028 1.028 1.028h9.478c.563 0 1.025-.464 1.025-1.028v-.352c0-.565-.462-1.027-1.025-1.027H2.31z"/>
        <path id="prefix__m" d="M.688 1.792c-.352 0-.638.287-.638.638 0 .352.286.64.638.64h9.124c.35 0 .638-.288.638-.64 0-.35-.287-.638-.638-.638H.688z"/>
        <path id="prefix__o" d="M.987 5.411c0 2.347 1.915 4.261 4.262 4.261 2.35 0 4.265-1.914 4.265-4.26 0-2.348-1.916-4.262-4.265-4.262C2.902 1.15.987 3.064.987 5.411z"/>
        <path id="prefix__q" d="M.097 3.612c0 1.848 1.508 3.354 3.355 3.354 1.848 0 3.356-1.506 3.356-3.354C6.808 1.768 5.3.261 3.452.261 1.605.26.097 1.768.097 3.612z"/>
        <path id="prefix__s" d="M1.483 0.988L48.697 0.988 48.697 84.274 1.483 84.274z"/>
        <path id="prefix__u" d="M.694.31C.6.31.524.389.524.483v6.895c0 .094.076.171.17.171h.866c.093 0 .17-.077.17-.17V.481c0-.094-.077-.171-.17-.171H.694z"/>
        <path id="prefix__w" d="M7.816 1.127C3.817 1.127.548 4.396.548 8.39v93.79c0 3.995 3.27 7.264 7.268 7.264h37.999c4 0 7.27-3.27 7.27-7.265V8.39c0-3.994-3.27-7.263-7.27-7.263h-38z"/>
        <path id="prefix__y" d="M1.58 2.484c0 .848.692 1.54 1.542 1.54.846 0 1.538-.692 1.538-1.54 0-.849-.692-1.54-1.538-1.54-.85 0-1.542.691-1.542 1.54z"/>
        <path id="prefix__A" d="M.347 2.484c0 .537.438.976.977.976.536 0 .975-.439.975-.976 0-.538-.439-.976-.975-.976-.539 0-.977.438-.977.976z"/>
        <path id="prefix__C" d="M2.31 1.227c-.567 0-1.029.462-1.029 1.027v.352c0 .564.462 1.028 1.028 1.028h9.478c.563 0 1.025-.464 1.025-1.028v-.352c0-.565-.462-1.027-1.025-1.027H2.31z"/>
        <path id="prefix__E" d="M.688 1.792c-.352 0-.638.287-.638.638 0 .352.286.64.638.64h9.124c.35 0 .638-.288.638-.64 0-.35-.287-.638-.638-.638H.688z"/>
        <path id="prefix__G" d="M1.483 0.988L48.697 0.988 48.697 84.274 1.483 84.274z"/>
        <path id="prefix__I" d="M35.418.205C26.984.219 18.008 3.159 9.521 6.1 6.78 7.05 4.09 8 1.483 8.853V61.72c20.927 5.095 37.303-2.58 47.214-13.964V3.336C44.593 1.1 40.16.216 35.564.205h-.146z"/>
        <path id="prefix__K" d="M1.736 1.262s.1.023.235.066v-.08c-.136.012-.235.014-.235.014z"/>
        <path id="prefix__M" d="M.987 5.411c0 2.347 1.915 4.261 4.262 4.261 2.35 0 4.265-1.914 4.265-4.26 0-2.348-1.916-4.262-4.265-4.262C2.902 1.15.987 3.064.987 5.411z"/>
        <path id="prefix__O" d="M.097 3.612c0 1.848 1.508 3.354 3.355 3.354 1.848 0 3.356-1.506 3.356-3.354C6.808 1.768 5.3.261 3.452.261 1.605.26.097 1.768.097 3.612z"/>
    </defs>
    <g fill="none" fill-rule="evenodd">
        <g transform="translate(-1 -2) translate(9.423 .823)">
            <mask id="prefix__b" fill="#fff">
                <use xlink:href="#prefix__a"/>
            </mask>
            <path fill="#FFF8FB" d="M-8.944 190.194L278.995 190.194 278.995 -7.537 -8.944 -7.537z" mask="url(#prefix__b)"/>
        </g>
        <g>
            <g>
                <path fill="#477BDE" d="M4.834 26.86c-.474-.538-.708-1.338-.374-1.965.184-.34.509-.593.685-.937.307-.604.077-1.351-.34-1.892-.417-.543-.995-.944-1.495-1.416-1.236-1.167-1.98-2.807-2.029-4.472-.02-.668.241-1.518.933-1.574.253-.021.5.077.751.094 1.084.068 1.603-1.262 1.645-2.308.068-1.723-.23-3.483.2-5.156.434-1.671 1.938-3.285 3.715-3.078 1.276.149 2.38 1.187 3.658 1.058 1.168-.119 1.959-1.154 2.67-2.052.744-.937 1.596-1.846 2.712-2.331 1.118-.487 2.552-.458 3.456.345.994.884 1.06 2.374.814 3.652-.244 1.277-.731 2.544-.59 3.838.173 1.557 1.225 2.881 2.306 4.05 1.082 1.168 2.268 2.32 2.82 3.791.552 1.472.245 3.386-1.155 4.168-.626.347-1.433.465-1.853 1.028-.701.934.17 2.17.544 3.267.58 1.704-.196 3.654-1.6 4.82-2.53 2.1-7.607-1.738-9.375 1.105-1.768 2.845-6.488-2.198-8.098-4.034" transform="translate(-1 -2) translate(0 79.333) translate(244.85 18.536)"/>
                <path fill="#5E94FF" d="M16.944 23.378h.027c1.328-.1 2.597-.557 3.67-1.316.16-.113.195-.334.084-.492-.113-.16-.334-.198-.492-.085-.955.676-2.132 1.099-3.316 1.187-.194.016-.34.185-.325.379.014.185.169.327.352.327" transform="translate(-1 -2) translate(0 79.333) translate(244.85 18.536)"/>
                <path fill="#5E94FF" d="M13.438 49.28c.192 0 .35-.156.352-.348l.166-15.06c.04-3.87.07-6.927 2.71-9.922 1.08-1.226 2.236-2.678 2.246-4.387 0-.196-.156-.354-.35-.356-.192-.002-.356.156-.358.35-.009 1.467-1.026 2.743-2.068 3.927-2.813 3.192-2.847 6.522-2.887 10.38l-.165 15.059c-.002.196.155.356.35.357h.004z" transform="translate(-1 -2) translate(0 79.333) translate(244.85 18.536)"/>
                <path fill="#5E94FF" d="M14.998 26.306c.064 0 .127-.016.186-.052.166-.102.216-.322.114-.487-.424-.688-.88-1.37-1.323-2.027-.6-.895-1.22-1.82-1.763-2.762-1.08-1.882-1.664-3.557-1.783-5.12.07-.015.137-.049.187-.107.135-.142.126-.364-.016-.497-.144-.137-.342-.167-.516-.085-.25.119-.38.446-.365.692.12 1.686.735 3.474 1.88 5.467.554.965 1.183 1.901 1.788 2.805.439.653.892 1.328 1.31 2.006.067.108.184.167.3.167" transform="translate(-1 -2) translate(0 79.333) translate(244.85 18.536)"/>
                <path fill="#5E94FF" d="M12.206 21.537c.18 0 .334-.137.352-.318.06-.618.44-1.185.843-1.785.518-.773 1.051-1.57.913-2.541-.027-.194-.207-.329-.4-.3-.193.027-.326.207-.299.399.1.703-.338 1.357-.802 2.049-.433.647-.88 1.315-.96 2.108-.017.194.125.366.317.386.013.002.025.002.036.002M10.805 19.464c.072 0 .142-.021.212-.068.056-.036.23-.174.163-.462-.043-.19-.233-.31-.424-.266l-.023.007c-.095-.068-.218-.16-.316-.233-.491-.369-1.1-.827-1.609-.903-.082-.012-.165-.021-.25-.032-.231-.027-.453-.052-.625-.14-.097-.049-.183-.146-.21-.234-.016-.052-.004-.073.002-.08.095-.171.034-.387-.137-.482-.169-.095-.385-.036-.48.135-.106.186-.128.411-.061.63.084.277.295.523.568.662.284.143.591.18.863.21.075.009.15.018.226.029.332.05.908.481 1.287.769.382.286.61.458.814.458" transform="translate(-1 -2) translate(0 79.333) translate(244.85 18.536)"/>
            </g>
            <g>
                <path fill="#87AFFF" d="M3.748 17.872c-.297-.341-.446-.85-.245-1.254.112-.22.311-.385.417-.608.185-.388.038-.864-.223-1.207-.26-.342-.621-.595-.932-.892-.771-.736-1.242-1.779-1.283-2.845-.018-.427.138-.972.564-1.015.156-.016.309.045.465.052.669.034.98-.821.998-1.491.029-1.104-.167-2.227.09-3.302.255-1.074 1.171-2.12 2.27-2.004.788.083 1.477.737 2.264.642.72-.086 1.2-.755 1.633-1.337.453-.608.974-1.197 1.66-1.517.684-.322 1.57-.316 2.132.189.62.557.673 1.51.529 2.33-.142.82-.433 1.636-.336 2.463.117.994.774 1.833 1.45 2.57.676.738 1.416 1.464 1.767 2.403.35.936.174 2.163-.685 2.675-.383.23-.88.313-1.136.676-.426.606.12 1.388.36 2.087.37 1.085-.096 2.34-.955 3.1-1.547 1.366-4.707-1.043-5.778.794-1.07 1.835-4.018-1.348-5.026-2.509" transform="translate(-1 -2) translate(0 79.333) translate(29.192 36.507)"/>
                <path fill="#2F75FF" d="M9.211 32.295c-.208 0-.377-.169-.377-.377l-.004-9.64c-.002-2.498-.005-4.655 1.743-6.766.619-.744 1.22-1.548 1.217-2.437-.002-.209.167-.378.376-.38.2.002.377.168.379.376.005 1.143-.714 2.108-1.39 2.924-1.574 1.9-1.572 3.833-1.568 6.281l.002 9.642c0 .208-.17.377-.378.377" transform="translate(-1 -2) translate(0 79.333) translate(29.192 36.507)"/>
                <path fill="#2F75FF" d="M10.014 17.576c-.126 0-.252-.065-.322-.182-.262-.426-.544-.852-.82-1.265-.382-.575-.775-1.172-1.128-1.788-.731-1.285-1.13-2.444-1.216-3.542-.017-.21.088-.49.312-.599.167-.077.363-.046.498.081.153.144.16.383.016.536-.02.02-.04.036-.06.052.098.947.461 1.962 1.108 3.098.338.593.726 1.177 1.102 1.743.276.419.564.852.832 1.29.11.179.054.41-.124.52-.061.038-.13.056-.198.056" transform="translate(-1 -2) translate(0 79.333) translate(29.192 36.507)"/>
                <path fill="#2F75FF" d="M8.26 14.55c-.012 0-.022 0-.033-.003-.209-.018-.363-.2-.345-.408.045-.544.327-.992.6-1.425.277-.44.518-.823.458-1.218-.03-.207.112-.4.318-.43.205-.032.4.112.43.318.1.673-.254 1.237-.568 1.735-.234.372-.455.722-.485 1.083-.016.198-.182.347-.376.347M11.195 15.684c-.192 0-.357-.147-.375-.343-.02-.209.133-.392.34-.412.7-.065 1.392-.334 1.953-.758.167-.126.404-.094.53.073.126.168.093.405-.074.53-.68.515-1.49.829-2.338.908-.012.002-.025.002-.036.002M7.38 13.237c-.18 0-.363-.138-.604-.322-.196-.147-.56-.424-.722-.447l-.135-.016c-.181-.02-.388-.042-.591-.144-.203-.103-.365-.29-.431-.502-.058-.18-.042-.364.04-.523.098-.185.328-.255.511-.158.171.09.245.293.178.47.01.012.025.03.043.039.081.04.202.052.33.066.053.006.107.011.16.018.357.05.756.353 1.074.595l.138.104c.183-.014.352.108.396.292.05.222-.054.382-.171.458-.074.048-.144.07-.216.07z" transform="translate(-1 -2) translate(0 79.333) translate(29.192 36.507)"/>
            </g>
            <g>
                <path fill="#477BDE" d="M31.659 38.354c.667-.76.996-1.883.525-2.765-.257-.478-.716-.836-.962-1.32-.433-.848-.11-1.9.476-2.661.588-.762 1.402-1.326 2.105-1.991 1.74-1.643 2.786-3.949 2.854-6.29.029-.942-.34-2.135-1.312-2.216-.354-.029-.703.11-1.059.133-1.522.095-2.253-1.776-2.31-3.248-.096-2.422.323-4.899-.285-7.251-.609-2.353-2.728-4.62-5.226-4.331-1.795.208-3.348 1.671-5.143 1.488-1.645-.167-2.755-1.623-3.758-2.887-1.046-1.319-2.247-2.596-3.815-3.28-1.571-.684-3.59-.643-4.86.488-1.398 1.242-1.493 3.339-1.148 5.136.345 1.797 1.031 3.582.83 5.4-.24 2.188-1.72 4.053-3.242 5.696-1.522 1.644-3.19 3.265-3.966 5.335-.779 2.07-.345 4.763 1.624 5.86.879.491 2.015.657 2.608 1.45.983 1.313-.243 3.05-.768 4.595-.815 2.395.275 5.14 2.25 6.778 3.56 2.955 10.703-2.444 13.19 1.557 2.485 4 9.126-3.091 11.392-5.676" transform="translate(-1 -2) translate(0 79.333) translate(.437 .564)"/>
                <path fill="#5E94FF" d="M14.623 33.454c-.013 0-.025 0-.038-.002-1.869-.14-3.653-.78-5.161-1.849-.225-.16-.277-.469-.119-.693.158-.225.47-.277.694-.117 1.34.95 2.996 1.543 4.662 1.67.273.019.478.258.456.531-.018.263-.237.46-.494.46" transform="translate(-1 -2) translate(0 79.333) translate(.437 .564)"/>
                <path fill="#5E94FF" d="M19.555 69.893c-.271 0-.494-.22-.496-.492l-.233-21.185c-.056-5.444-.1-9.742-3.812-13.957-1.52-1.725-3.143-3.768-3.16-6.171-.001-.275.22-.5.495-.502.27-.001.498.221.5.495.012 2.061 1.444 3.858 2.91 5.52 3.958 4.493 4.007 9.178 4.06 14.606l.232 21.183c.004.275-.215.5-.49.503h-.006" transform="translate(-1 -2) translate(0 79.333) translate(.437 .564)"/>
                <path fill="#5E94FF" d="M17.36 37.573c-.09 0-.18-.023-.26-.073-.234-.146-.305-.451-.162-.685.599-.967 1.24-1.925 1.862-2.852.845-1.258 1.716-2.561 2.478-3.886 1.52-2.647 2.342-5.005 2.511-7.203-.099-.02-.192-.068-.266-.147-.187-.201-.176-.516.023-.703.203-.19.482-.235.728-.116.35.165.536.625.51.974-.166 2.37-1.03 4.884-2.643 7.69-.778 1.355-1.662 2.672-2.516 3.944-.616.92-1.253 1.871-1.842 2.822-.093.153-.255.235-.422.235" transform="translate(-1 -2) translate(0 79.333) translate(.437 .564)"/>
                <path fill="#5E94FF" d="M21.288 30.865c-.254 0-.47-.19-.495-.45-.086-.866-.62-1.664-1.186-2.508-.728-1.088-1.48-2.21-1.285-3.577.04-.271.293-.46.563-.42.271.038.46.29.42.562-.142.989.477 1.907 1.127 2.881.61.91 1.24 1.85 1.35 2.965.029.274-.17.516-.446.545-.016.002-.032.002-.048.002M23.26 27.949c-.102 0-.2-.03-.3-.095-.077-.05-.322-.247-.228-.653.06-.266.329-.433.595-.372l.034.01c.135-.096.305-.225.445-.33.689-.517 1.546-1.162 2.263-1.268.115-.018.232-.031.349-.045.329-.038.64-.074.88-.198.137-.068.26-.203.297-.329.021-.074.005-.104 0-.113-.137-.24-.05-.543.189-.678.239-.134.54-.05.677.189.15.266.18.582.085.89-.117.388-.416.735-.798.929-.401.203-.832.253-1.215.296-.106.013-.212.025-.317.042-.469.07-1.277.677-1.813 1.08-.537.404-.857.645-1.143.645" transform="translate(-1 -2) translate(0 79.333) translate(.437 .564)"/>
            </g>
            <path fill="#FAFAFA" d="M128.827 51.34c-.95-.007-1.344.327-1.229 1.254.01.081.005.162 0 .243-.239 4.319 1.616 6.12 6.774 6.556.481.04.974-.036 1.455.016 2.735.302 4.995.22 5.154-3.519.07-1.63 1.542-2.93 3.086-4.534-5.4 0-10.32.018-15.24-.016m29.646 8c-.02-4.413-3.627-7.993-8.039-7.977-4.4.017-8.024 3.649-8.008 8.03.015 4.403 3.623 7.958 8.062 7.947 4.443-.01 8.003-3.578 7.985-8m61.02.019c-.028-4.382-3.677-7.997-8.063-7.992-4.421.005-7.981 3.576-7.987 8.015-.005 4.428 3.557 7.969 8.012 7.958 4.423-.009 8.067-3.628 8.038-7.981m-28.355-10.127c1.693.01 2.394-.232 2.367-2.185-.119-9.036-.103-18.078-.007-27.116.02-1.73-.471-2.093-2.146-2.088-20.536.061-41.072.068-61.61-.01-1.873-.008-2.234.502-2.214 2.26.095 8.957.097 17.916-.002 26.873-.02 1.788.385 2.296 2.247 2.279 10.227-.101 20.455-.047 30.682-.047 10.23 0 20.455-.036 30.683.034" transform="translate(-1 -2) translate(0 79.333)"/>
            <path fill="#B3D9FF" d="M217.773 31.793c-.297-.793-.744-1.149-1.578-1.2-2.985-.179-5.972-.342-8.946-.626-1.307-.124-1.454.45-1.43 1.511.053 2.572.05 5.145 0 7.717-.022 1.015.156 1.679 1.342 1.815 4.8.552 9.595 1.15 14.848 1.787-1.54-3.988-2.919-7.486-4.236-11.004zm7.264 26.328c-2.241 1.995-3.012 1.804-3.673-.928-.84-3.463-2.92-5.912-6.217-7.23-5.88-2.35-12.184 1.135-13.653 7.432-.21.902.05 2.057-1.673 2.047-12.58-.074-25.16-.042-37.738-.034-.773 0-1.391.021-1.495-1.054-.256-2.64-1.546-4.827-3.767-7h2.79c11.932 0 23.863-.052 35.793.053 1.973.016 2.37-.568 2.343-2.403-.106-7.099.016-14.201-.086-21.302-.025-1.709.38-2.183 2.128-2.013 5.65.554 11.313 1.014 16.981 1.34 1.542.09 2.245.62 2.798 2.001 1.758 4.393 3.32 8.87 5.469 13.102V58.12z" transform="translate(-1 -2) translate(0 79.333)"/>
            <path fill="#CDE1F9" d="M160.456 49.197c10.227 0 20.455-.036 30.682.036 1.693.01 2.394-.232 2.367-2.185-.119-9.038-.102-18.078-.007-27.116.018-1.732-.471-2.095-2.146-2.09-20.536.061-41.074.069-61.61-.009-1.872-.009-2.234.502-2.214 2.26.094 8.958.097 17.915-.002 26.874-.02 1.786.385 2.297 2.247 2.277 10.227-.1 20.455-.047 30.683-.047" transform="translate(-1 -2) translate(0 79.333)"/>
            <path fill="#DBDAD9" d="M211.454 67.34c4.423-.008 8.07-3.63 8.04-7.98-.028-4.382-3.677-7.998-8.065-7.993-4.421.004-7.98 3.577-7.987 8.014-.005 4.43 3.557 7.969 8.012 7.96" transform="translate(-1 -2) translate(0 79.333)"/>
            <path fill="#8C8C8C" d="M150.488 67.34c4.442-.011 8.004-3.578 7.985-8.001-.018-4.412-3.627-7.992-8.04-7.976-4.4.016-8.023 3.65-8.007 8.03.014 4.403 3.623 7.958 8.062 7.947" transform="translate(-1 -2) translate(0 79.333)"/>
            <path fill="#8FC2FF" d="M144.067 51.356c-5.4 0-10.32.018-15.24-.016-.95-.008-1.344.327-1.229 1.254.01.08.005.162 0 .243-.239 4.32 1.616 6.119 6.774 6.556.481.041.974-.036 1.455.016 2.735.302 4.995.22 5.154-3.519.07-1.63 1.542-2.931 3.086-4.534" transform="translate(-1 -2) translate(0 79.333)"/>
            <path fill="#FFF8FB" d="M222.01 42.796c-1.542-3.986-2.92-7.484-4.236-11.004-.297-.791-.744-1.147-1.58-1.197-2.983-.18-5.972-.343-8.946-.627-1.305-.126-1.452.45-1.43 1.511.055 2.57.051 5.143 0 7.715-.02 1.016.157 1.68 1.344 1.815 4.8.552 9.595 1.15 14.848 1.787" transform="translate(-1 -2) translate(0 79.333)"/>
            <path fill="#B9D4FC" d="M78.056 79.231L100.176 79.231 100.176 52.069 78.056 52.069z" transform="translate(-1 -2) translate(0 79.333)"/>
            <path fill="#71A2EA" d="M100.219 79.231L110.152 79.231 110.152 52.069 100.219 52.069zM80.03 62.187L87.486 62.187 87.486 54.308 80.03 54.308z" transform="translate(-1 -2) translate(0 79.333)"/>
            <path fill="#3785E2" d="M80.664 56.017L86.74 56.017 86.74 55.482 80.664 55.482zM80.664 57.354L86.74 57.354 86.74 56.819 80.664 56.819zM80.664 58.691L86.74 58.691 86.74 58.156 80.664 58.156zM80.664 60.028L86.74 60.028 86.74 59.493 80.664 59.493z" transform="translate(-1 -2) translate(0 79.333)"/>
            <path fill="#B9D4FC" d="M164 72.028L177.246 72.028 177.246 55.158 164 55.158z" transform="translate(-1 -2) translate(0 79.333)"/>
            <path fill="#71A2EA" d="M177.271 72.028L183.22 72.028 183.22 55.158 177.271 55.158zM165.182 61.443L169.648 61.443 169.648 56.549 165.182 56.549z" transform="translate(-1 -2) translate(0 79.333)"/>
            <path fill="#3785E2" d="M165.563 57.61L169.2 57.61 169.2 57.277 165.563 57.277zM165.563 58.442L169.2 58.442 169.2 58.109 165.563 58.109zM165.563 59.272L169.2 59.272 169.2 58.939 165.563 58.939zM165.563 60.102L169.2 60.102 169.2 59.77 165.563 59.77z" transform="translate(-1 -2) translate(0 79.333)"/>
            <path fill="#B9D4FC" d="M179.653 76.821L189.278 76.821 189.278 64.563 179.653 64.563z" transform="translate(-1 -2) translate(0 79.333)"/>
            <path fill="#71A2EA" d="M189.296 76.821L193.618 76.821 193.618 64.563 189.296 64.563zM180.51 69.129L183.756 69.129 183.756 65.573 180.51 65.573z" transform="translate(-1 -2) translate(0 79.333)"/>
            <path fill="#3785E2" d="M180.787 66.345L183.43 66.345 183.43 66.103 180.787 66.103zM180.787 66.947L183.43 66.947 183.43 66.707 180.787 66.707zM180.787 67.551L183.43 67.551 183.43 67.311 180.787 67.311zM180.787 68.155L183.43 68.155 183.43 67.914 180.787 67.914z" transform="translate(-1 -2) translate(0 79.333)"/>
        </g>
        <g transform="translate(-1 -2) translate(169.37 76.304)">
            <mask id="prefix__d" fill="#fff">
                <use xlink:href="#prefix__c"/>
            </mask>
            <path fill="#1F252B" d="M-6.283 14.354L8.536 14.354 8.536 -6.495 -6.283 -6.495z" mask="url(#prefix__d)"/>
        </g>
        <g transform="translate(-1 -2) translate(117.252 54.738)">
            <mask id="prefix__f" fill="#fff">
                <use xlink:href="#prefix__e"/>
            </mask>
            <path fill="#2E3F4E" d="M-6.259 116.25L59.892 116.25 59.892 -5.679 -6.259 -5.679z" mask="url(#prefix__f)"/>
        </g>
        <g transform="translate(-1 -2) translate(131.63 60.13)">
            <mask id="prefix__h" fill="#fff">
                <use xlink:href="#prefix__g"/>
            </mask>
            <path fill="#67737E" d="M-5.226 10.83L11.468 10.83 11.468 -5.862 -5.226 -5.862z" mask="url(#prefix__h)"/>
        </g>
        <g transform="translate(-1 -2) translate(133.426 60.13)">
            <mask id="prefix__j" fill="#fff">
                <use xlink:href="#prefix__i"/>
            </mask>
            <path fill="#E2E5E5" d="M-6.459 10.265L9.104 10.265 9.104 -5.298 -6.459 -5.298z" mask="url(#prefix__j)"/>
        </g>
        <g transform="translate(-1 -2) translate(137.02 60.13)">
            <mask id="prefix__l" fill="#fff">
                <use xlink:href="#prefix__k"/>
            </mask>
            <path fill="#67737E" d="M-5.524 10.44L19.618 10.44 19.618 -5.578 -5.524 -5.578z" mask="url(#prefix__l)"/>
        </g>
        <g transform="translate(-1 -2) translate(138.818 60.13)">
            <mask id="prefix__n" fill="#fff">
                <use xlink:href="#prefix__m"/>
            </mask>
            <path fill="#E2E5E5" d="M-6.755 9.875L17.256 9.875 17.256 -5.014 -6.755 -5.014z" mask="url(#prefix__n)"/>
        </g>
        <g transform="translate(-1 -2) translate(138.818 151.784)">
            <mask id="prefix__p" fill="#fff">
                <use xlink:href="#prefix__o"/>
            </mask>
            <path fill="#67737E" d="M-5.819 16.478L16.32 16.478 16.32 -5.656 -5.819 -5.656z" mask="url(#prefix__p)"/>
        </g>
        <g transform="translate(-1 -2) translate(140.615 153.581)">
            <mask id="prefix__r" fill="#fff">
                <use xlink:href="#prefix__q"/>
            </mask>
            <path fill="#E2E5E5" d="M-6.709 13.772L13.615 13.772 13.615 -6.545 -6.709 -6.545z" mask="url(#prefix__r)"/>
        </g>
        <g transform="translate(-1 -2) translate(119.05 67.318)">
            <mask id="prefix__t" fill="#fff">
                <use xlink:href="#prefix__s"/>
            </mask>
            <path fill="#FFC6D6" d="M-5.323 91.079L55.503 91.079 55.503 -5.817 -5.323 -5.817z" mask="url(#prefix__t)"/>
        </g>
        <g transform="translate(-1 -2) translate(169.37 76.304)">
            <mask id="prefix__v" fill="#fff">
                <use xlink:href="#prefix__u"/>
            </mask>
            <path fill="#1F252B" d="M-6.283 14.354L8.536 14.354 8.536 -6.495 -6.283 -6.495z" mask="url(#prefix__v)"/>
        </g>
        <g transform="translate(-1 -2) translate(117.252 54.738)">
            <mask id="prefix__x" fill="#fff">
                <use xlink:href="#prefix__w"/>
            </mask>
            <path fill="#2E3F4E" d="M-6.259 116.25L59.892 116.25 59.892 -5.679 -6.259 -5.679z" mask="url(#prefix__x)"/>
        </g>
        <g transform="translate(-1 -2) translate(131.63 60.13)">
            <mask id="prefix__z" fill="#fff">
                <use xlink:href="#prefix__y"/>
            </mask>
            <path fill="#67737E" d="M-5.226 10.83L11.468 10.83 11.468 -5.862 -5.226 -5.862z" mask="url(#prefix__z)"/>
        </g>
        <g transform="translate(-1 -2) translate(133.426 60.13)">
            <mask id="prefix__B" fill="#fff">
                <use xlink:href="#prefix__A"/>
            </mask>
            <path fill="#E2E5E5" d="M-6.459 10.265L9.104 10.265 9.104 -5.298 -6.459 -5.298z" mask="url(#prefix__B)"/>
        </g>
        <g transform="translate(-1 -2) translate(137.02 60.13)">
            <mask id="prefix__D" fill="#fff">
                <use xlink:href="#prefix__C"/>
            </mask>
            <path fill="#67737E" d="M-5.524 10.44L19.618 10.44 19.618 -5.578 -5.524 -5.578z" mask="url(#prefix__D)"/>
        </g>
        <g transform="translate(-1 -2) translate(138.818 60.13)">
            <mask id="prefix__F" fill="#fff">
                <use xlink:href="#prefix__E"/>
            </mask>
            <path fill="#E2E5E5" d="M-6.755 9.875L17.256 9.875 17.256 -5.014 -6.755 -5.014z" mask="url(#prefix__F)"/>
        </g>
        <g transform="translate(-1 -2) translate(119.05 67.318)">
            <mask id="prefix__H" fill="#fff">
                <use xlink:href="#prefix__G"/>
            </mask>
            <path fill="#FFF" d="M-5.323 91.079L55.503 91.079 55.503 -5.817 -5.323 -5.817z" mask="url(#prefix__H)"/>
        </g>
        <g transform="translate(-1 -2) translate(119.05 70.912)">
            <mask id="prefix__J" fill="#fff">
                <use xlink:href="#prefix__I"/>
            </mask>
            <path fill="#FFF3F8" d="M-42.341 70.134L66.155 70.134 66.155 -6.601 -42.341 -6.601z" mask="url(#prefix__J)"/>
        </g>
        <g transform="translate(-1 -2) translate(165.775 110.45)">
            <mask id="prefix__L" fill="#fff">
                <use xlink:href="#prefix__K"/>
            </mask>
            <path fill="#1564DD" d="M-5.07 9.347L10.849 9.347 10.849 -6.57 -5.07 -6.57z" mask="url(#prefix__L)"/>
        </g>
        <g transform="translate(-1 -2) translate(138.818 151.784)">
            <mask id="prefix__N" fill="#fff">
                <use xlink:href="#prefix__M"/>
            </mask>
            <path fill="#67737E" d="M-5.819 16.478L16.32 16.478 16.32 -5.656 -5.819 -5.656z" mask="url(#prefix__N)"/>
        </g>
        <g transform="translate(-1 -2) translate(140.615 153.581)">
            <mask id="prefix__P" fill="#fff">
                <use xlink:href="#prefix__O"/>
            </mask>
            <path fill="#E2E5E5" d="M-6.709 13.772L13.615 13.772 13.615 -6.545 -6.709 -6.545z" mask="url(#prefix__P)"/>
        </g>
        <g>
            <path fill="#DA1C5C" d="M65.236 22.061c-.537 0-1.083.041-1.619.124-.907.142-1.793.388-2.625.735-.513.214-1 .462-1.454.735l-.033.02c-1.242.792-2.239 1.71-3.053 2.809-.847 1.103-1.456 2.36-1.804 3.736-.381 1.37-.46 2.807-.232 4.153.223 1.46.699 2.753 1.455 3.956.714 1.17 1.684 2.217 2.806 3.026 1.887 1.397 4.113 2.137 6.435 2.137.536 0 1.08-.04 1.621-.12.863-.13 1.708-.365 2.51-.7 1.793-.745 3.346-1.984 4.496-3.574.803-1.073 1.39-2.32 1.743-3.711.34-1.418.41-2.829.212-4.2-.462-2.852-1.943-5.347-4.168-7.023-1.822-1.375-3.995-2.103-6.29-2.103m13.515 26.851c-.66 0-1.276-.257-1.741-.717l-3.325-3.326-.965.584c-.221.134-.42.251-.604.348l-.081.04c-.376.194-.762.372-1.148.535-1.133.471-2.324.81-3.539 1.003-.73.115-1.483.176-2.234.176-1.207 0-2.451-.152-3.69-.454-1.852-.487-3.583-1.309-5.145-2.45-1.57-1.143-2.87-2.546-3.86-4.171-.264-.426-.508-.86-.724-1.298-.588-1.223-1.001-2.534-1.233-3.9l-.023-.138c-.013-.064-.022-.111-.027-.161l-.033-.241c-.086-.663-.133-1.323-.133-1.952 0-.92.09-1.853.266-2.775.067-.33.124-.596.19-.844.483-1.834 1.322-3.555 2.499-5.12 1.173-1.559 2.6-2.85 4.243-3.843.634-.399 1.32-.751 2.036-1.05 1.098-.458 2.277-.788 3.505-.984.722-.106 1.464-.16 2.2-.16 1.277 0 2.546.167 3.773.49l.043.011c.153.045.3.083.44.13l.05.014c3.054.954 5.766 2.933 7.639 5.575.23.323.42.62.582.898.764 1.262 1.334 2.606 1.691 4.004.144.563.26 1.165.336 1.794.205 1.864.096 3.697-.325 5.449-.341 1.387-.906 2.748-1.677 4.038l-.578.963 3.332 3.332c.975.978.975 2.505 0 3.483-.466.46-1.08.717-1.74.717" transform="translate(-1 -2) translate(78.715 75.506)"/>
            <path fill="#F5BC8E" d="M110.722 54.526c.262.22.052.515.589.57.187.017.347.02.51.037-.073-.057-.156-.106-.208-.122-.085-.027-.178-.02-.262-.042-.115-.032-.191-.073-.275-.158-.087-.084-.04-.215.064-.251.392-.139.798-.045 1.122.21.192.151.636.557.557.837-.022.072-.11.135-.185.105l-.027-.011c-.02-.007-.038-.018-.052-.03l.113.26c.029.065.007.146-.038.194l.108.115c.108.108-.13-.063-.277-.088-.97-.17-2.074-.1-2.167-1.21-.018-.217.133-.664.428-.416M117.809 79.107L116.963 79.168 116.657 75.098 118.106 75.098z" transform="translate(-1 -2) translate(78.715 75.506)"/>
            <path fill="#2D304D" d="M117.843 79.205c.002-.087.006-.148-.079-.155-.273-.023-.553-.045-.82.034-.285.087-.499.18-.804.274-.227.07-.561.192-.653.434-.046.124-.02.248.076.35.16.172.539.098.737.093.35-.01.713.007 1.062-.031.607-.067.47-.55.481-1" transform="translate(-1 -2) translate(78.715 75.506)"/>
            <path fill="#F5BC8E" d="M121.382 79.225L120.543 79.351 119.928 75.314 121.373 75.205z" transform="translate(-1 -2) translate(78.715 75.506)"/>
            <path fill="#2D304D" d="M121.405 79.355c.002-.086.006-.148-.079-.155-.273-.023-.553-.045-.82.034-.285.087-.499.18-.804.274-.227.07-.561.192-.655.434-.045.124-.018.248.078.35.16.172.539.098.736.093.35-.01.714.007 1.063-.031.607-.066.47-.55.481-1" transform="translate(-1 -2) translate(78.715 75.506)"/>
            <path fill="#2E3F4E" d="M119.964 69.097c.065-.108.184-.173.306-.185.007-.39.677-.477.74-.067l.022.144c.178-.263.69-.194.686.205-.014 1.813.194 6.895.229 8.709.003.203-.177.377-.376.375-.383-.001-.748.043-1.118.14-.18.047-.431-.07-.462-.273-.278-1.844-.643-6.958-.686-8.824-.01-.395.454-.46.66-.224M115.928 68.576c-.02-.164.692-1.122.798-.653.014.058.025.117.034.174.167-.088.41-.02.52.144.024.004.05.01.076.016.027.011.054.02.083.03l.007.003c.234-.1.532.05.521.375v.006c.21-.228.698-.1.655.29-.218 1.917-.133 6.99-.115 8.917.001.194-.236.366-.417.33-.374-.072-.732-.084-1.107-.029-.21.033-.387-.113-.43-.314-.235-1.09-.6-8.873-.625-9.29" transform="translate(-1 -2) translate(78.715 75.506)"/>
            <path fill="#2D304D" d="M114.482 45.916c.276-.582.607-1.103 1.225-1.358.619-.255 1.406-.408 2.04-.139 1.52.653.49 2.642.715 3.853.07.376-.505.538-.578.159-.02-.106-.033-.213-.043-.319-.04.008-.081.006-.12-.001-.163.099-.418.06-.463-.164-.08-.402-.183-.796-.305-1.186-.135.016-.284-.041-.343-.201-.085-.229-.146-.459-.187-.692-.185-.077-.387-.133-.552-.29-.027-.025-.047-.052-.061-.08-.317.253-.595.587-.917.83-.264.203-.525-.173-.411-.412" transform="translate(-1 -2) translate(78.715 75.506)"/>
            <path fill="#F5BC8E" d="M114.557 45.389c.259-.455.854-.563 1.328-.466.528.11.97.48 1.246.933.273.451.5 1.195.454 1.846.18.045.318.23.178.419-.314.424-.713.96-1.235 1.139-.544.187-1.033-.128-1.358-.548-.36-.47-.602-1.046-.708-1.625-.096-.514-.175-1.22.095-1.698" transform="translate(-1 -2) translate(78.715 75.506)"/>
            <path fill="#F5BC8E" d="M117.671 50.712L119.257 50.031 118.119 47.378 116.532 48.057z" transform="translate(-1 -2) translate(78.715 75.506)"/>
            <path fill="#2D304D" d="M116.812 44.395c.446.043.893.18.845.496-.081-.016-.162-.02-.237-.004-.126-.251-.345-.408-.608-.492m-2.904 2.246c.117.083.244.083.381.045.131-.034.293-.208.426-.198.13.008.246.142.394.155.163.014.32-.041.452-.131.274-.182.358-.586.561-.836 0 .291.056.579.176.852.06.138.131.295.246.395.148.13.272.052.423.131.181.096.097.374.122.563.022.15.068.284.169.399.226.259.606.385.927.474.176.049.31-.113.277-.276-.05-.268-.135-.513-.25-.757-.102-.22-.823-1.853-.719-2.077.058-.002.117-.002.176-.002.107.063.245.023.308-.083.577-.945-.786-1.407-1.485-1.395-.798.013-1.624.407-2.074 1.095-.163.253-.345.532-.501.776-.156.248-.31.654-.009.87" transform="translate(-1 -2) translate(78.715 75.506)"/>
            <path fill="#001733" d="M112.3 55.916c.088-.319.182-.637.272-.955.037-.133.208-.219.332-.135.888.602 1.831 1.097 2.827 1.49.214-1.109.465-2.235.882-3.283.21-.62.414-1.544.746-2.11.268-.458.6-.906 1.06-1.278.115-.091.532-.361.638-.262 1.38 1.296 2.709 3.402 2.696 5.372-.003.564-.092 1.135-.203 1.701.005.038.002.08-.007.123-.76 3.105.866 6.078 1.889 8.917.262.728.494 1.467.652 2.225.07.341.122.685.162 1.03.032.282.1.622-.076.87-.178.253-.53.29-.807.36l-1.21.308c-.808.203-1.615.412-2.423.611-.619.155-3.473.165-3.81-.275-.186-.242-.207-.584-.26-.871-.06-.333-.114-.665-.163-1-.102-.699-.183-1.4-.24-2.102-.117-1.443-.135-2.892-.053-4.337.042-.722.108-1.443.2-2.16.057-.45.145-.9.197-1.353-.783-.49-1.567-.983-2.348-1.478-.32-.204-.947-.436-1.032-.86-.036-.185.03-.372.08-.548" transform="translate(-1 -2) translate(78.715 75.506)"/>
            <path fill="#2D304D" d="M109.928 54.59l1.614.754c.248.117.545.01.66-.239.116-.25.01-.544-.24-.661l-1.613-.755c-.248-.117-.543-.009-.66.24-.117.249-.009.544.24.66" transform="translate(-1 -2) translate(78.715 75.506)"/>
            <path fill="#F5BC8E" d="M110.945 55.065c.79.279 1.025.3 1.104.029-.21-.122-.406-.207-.64-.302-.14-.057-.315-.093-.212-.237.115-.162.341-.103.5-.052.276.084.605.287.853.532.002.005-.147.099-.226.086.016.04.032.08.045.124.021.086-.078.173-.153.14-.033.088-.1.15-.187.192-.111.072-.25.106-.4.087-.105-.013-.137-.13-.085-.189-.234-.016-.473-.084-.669-.15-.138-.044-.068-.308.07-.26" transform="translate(-1 -2) translate(78.715 75.506)"/>
            <path fill="#B8B8B8" d="M117.425 58.31c.667 1.03 1.626 1.803 2.75 2.248-.026-.713.147-1.44.318-2.13.275-1.11.463-2.211.424-3.362-.018-.564-.115-1.123-.131-1.687-.002-.047.001-.158.016-.297-.631-1.166-1.806-1.993-3.201-2.133-.286-.029-.29-.478 0-.451 1.39.133 2.59.868 3.336 1.945.071-.195.177-.346.33-.364.4-.05.775.274 1.043.534.314.304 1.842 1.844 2.176 3.765.08.466.415 1.992-.53 4.166-.335.767-.838 1.729-1.643 2.081-.85.372-1.624-.246-1.93-1.02-.072-.179-.119-.356-.153-.538-1.312-.456-2.442-1.355-3.195-2.529-.158-.246.234-.472.39-.228" transform="translate(-1 -2) translate(78.715 75.506)"/>
            <path fill="#38595E" d="M116.347 58.703c.83-.65 1.533-1.45 2.047-2.374.28-.505.509-1.04.719-1.58.217-.56.417-1.184.138-1.76-.06-.128.13-.243.194-.114.232.475.193.976.047 1.47-.174.595-.444 1.19-.719 1.744-.539 1.085-1.313 2.027-2.268 2.774-.111.088-.271-.07-.158-.16" transform="translate(-1 -2) translate(78.715 75.506)"/>
            <path fill="#A1A1A1" d="M122.072 55.056c.273 1.068 1.405 1.852 2.496 1.846.008.072.015.148.022.23-1.193.018-2.44-.85-2.735-2.016-.034-.14.181-.2.217-.06" transform="translate(-1 -2) translate(78.715 75.506)"/>
            <path fill="#F5BC8E" d="M121.103 29.375L120.366 29.303 121.182 23.349 122.8 23.414z" transform="translate(-1 -2) translate(78.715 75.506)"/>
            <path fill="#2D304D" d="M121.113 29.394c.016-.068.029-.113-.038-.133-.208-.062-.424-.124-.647-.104-.237.02-.418.061-.672.085-.189.018-.47.06-.582.235-.056.092-.054.192.003.288.1.158.407.161.563.188.277.049.557.12.837.146.486.045.457-.354.536-.705" transform="translate(-1 -2) translate(78.715 75.506)"/>
            <path fill="#F5BC8E" d="M130.154 26.071L129.717 26.67 125.012 22.928 125.891 21.571z" transform="translate(-1 -2) translate(78.715 75.506)"/>
            <path fill="#2D304D" d="M130.176 26.073c-.05-.048-.083-.083-.133-.038-.162.15-.323.304-.42.505-.103.214-.162.392-.27.622-.081.17-.187.437-.094.62.049.095.135.146.248.144.186-.004.346-.268.448-.386.183-.214.388-.42.553-.646.288-.395-.071-.573-.332-.82" transform="translate(-1 -2) translate(78.715 75.506)"/>
            <path fill="#F5BC8E" d="M116.916 7.976c.057-.217.127-.43.206-.638.038-.37.376-1.003.47-1.116.088-.108.27-.25.44-.262.153-.058.341.003.309.208-.016.1-.074.198-.11.291-.04.103-.059.205-.082.311-.013.047-.026.092-.044.133.108.189.229-.041.279-.099.032-.036.104-.02.113.03.047.247-.11.418-.312.495-.144.138-.317.286-.491.349-.056.127-.122.251-.178.372-.018.04-.065.04-.095.02-.036.005-.074-.02-.081-.058-.034.025-.086.016-.104-.018-.04.049-.128.022-.119-.047-.016.013-.036.016-.054.013l-.016.052c-.022.084-.155.049-.131-.036" transform="translate(-1 -2) translate(78.715 75.506)"/>
            <path fill="#2D304D" d="M129.435 15.656l-.14.133c-.047-.255-.023-.532.056-.75.19-.531.672-.544 1.078-.343-.33.32-.661.642-.994.96m-.546 2.788c.44.463.863.988 1.373 1.378.458.347.897.462 1.34.052.526-.487.987-1.053 1.431-1.612.345-.435.865-.935.967-1.497.104-.568-.368-1.078-.695-1.488-.405-.507-.863-.965-1.366-1.373-.016-.013-.033-.022-.049-.029l-.046-.047c-.22-.212-.401-.084-.593.092-.225.207-.446.419-.667.63-.466-.261-1.039-.296-1.352.249-.185.325-.22.77-.108 1.152-.181.17-.363.341-.537.517-.18.18-.352.38-.422.63-.164.585.366.972.724 1.346" transform="translate(-1 -2) translate(78.715 75.506)"/>
            <path fill="#F5BC8E" d="M128.329 12.746l.01.015c.031-.022.072-.03.107-.008.021-.048.075-.082.127-.06.016-.067.11-.109.165-.058.04-.034.103-.043.142.002.14.158.257.325.354.506.133.159.218.33.257.538.004.014.004.028 0 .04.34.254.54.634.558 1.067.066.086-.39.534-.408.523-.216-.069-.714-.61-.757-.75-.036-.111-.016-.219-.018-.332-.005-.255-.077-.439-.187-.672-.003-.007-.007-.016-.009-.025-.18-.223-.352-.452-.517-.685-.076-.106.1-.207.176-.1" transform="translate(-1 -2) translate(78.715 75.506)"/>
            <path fill="#2D304D" d="M121.713.848c.306-.043.965-.185 1.222.047.225.203.123.45-.048.632.136.078.332.108.415.265.054.098.02.219.083.29.1.116.275.168.38.297.168.201.23.48.132.726-.05.122-.131.214-.237.29-.076.052-.096.04-.106.116-.006.045.059.151.062.203.053.58-.851.97-1.312.766-.393-.176-.496-.686-.45-1.154 0-.002-.002-.003-.002-.007-.07-.19-.14-.385-.212-.577l-.002-.002c-.209-.188-.47-.303-.753-.305-.137-.002-.297.061-.44.041-.08.17-.385.14-.385-.086 0-.911.84-1.425 1.653-1.542M120.188 27.717c.232-1.073.385-3.176.554-4.261.163-1.059.354-2.121.69-3.142l.036-.104c-.1-.209-.175-.428-.22-.66-.102-.542-.055-1.105-.045-1.651l.026-1.375c-.063-.897-.027-1.812-.035-2.663-.005-.426.457-.552.734-.38.142-.129.332-.203.559-.181.25.023.449.167.58.367.595-.175 1.188-.36 1.776-.563.293-.1.492.075.553.306.221-.05.475.035.559.314.714 2.369.167 4.527-.748 6.626.728.512 1.418 1.06 2.017 1.73.758.85 1.456 1.76 2.174 2.643.088.11.148.282.054.411-.228.315-.298.35-.526.665-.096.133-.308.24-.464.12-1.44-1.112-2.902-2.485-4.342-3.597-.913 1.772-1.968 4.083-2.345 5.945-.03.156-1.688-.085-1.587-.55" transform="translate(-1 -2) translate(78.715 75.506)"/>
            <path fill="#FFF" d="M116.147 9.933c.063-.63.119-1.263.442-1.819l.015-.11c.023-.177.258-.285.417-.237l.578.184c.104.034.18.108.218.197.037.067.057.144.054.22-.002.106-.038.219-.074.327.029.077.1.152.15.217.066.086.127.176.179.272.034-.036.068-.07.106-.101.21-.173.374-.369.602-.467.122-.166.187-.342.242-.556.067-.246.139-.48.275-.672.184-.415.56-.737.97-1.026.333-.235.722-.39 1.11-.509.4-.122 2.287-.26 3.116.045 1.116.41 2.061 1.51 2.737 2.497.327.231.604.52.767.909.108.253.178.521.265.782.012.023.025.041.036.057.219.326.411.64.553.992.11.14.22.279.315.428.093.092.168.196.213.302.063.15.088.32.044.48-.038.14-.2.278-.245.417.049.09.095.178.142.27.052.1.112.206.085.323-.053.21-.389.363-.572.424-.253.084-.393-.054-.5-.26l-.125-.11c-.19-.07-.412-.069-.593-.19-.178-.118-.297-.303-.383-.493-.115-.254-.166-.529-.3-.775-.175-.072-1.195-1.21-1.188-1.184.163.57.676.79.526 2.038-.03.26-.185.49-.251.744-.083.325-.058-.007-.029.323.045.498-.153.784-.652.843-.67.077-1.343.142-2.013.214-.493.052-1.477.235-1.84.049-.184-.096-.214-.222-.306-.665-.117-.568-.717-3.086-.793-3.927-.47.489-1.283 1.24-2.785 1.837-.25.098-.563.106-.809-.031-.239-.131-.357-.388-.445-.636-.22-.62-.319-.989-.254-1.623" transform="translate(-1 -2) translate(78.715 75.506)"/>
            <path fill="#F5BC8E" d="M121.252 1.763c.917.212 1.341 1.345 1.01 2.177.097.422.265.826.425 1.229.161.408.152.634-.261.848-.39.201-.715.347-.997-.066-.177-.26-.293-.552-.389-.85-.5.003-.842-.414-.986-.868-.27-.858-.158-2.782 1.198-2.47" transform="translate(-1 -2) translate(78.715 75.506)"/>
            <path fill="#B6BEF0" d="M126.124 6.973c.571 2.126 1.171 4.243 1.804 6.351.077.02.156.034.232.054-.606-2.024-1.186-4.054-1.74-6.094-.097-.106-.194-.21-.296-.311m-2.294-1.222c.728 2.579 1.485 5.149 2.27 7.708.034-.102.081-.203.122-.306-.749-2.45-1.475-4.908-2.174-7.373-.07-.011-.142-.02-.218-.029m-2.327.084c.857 3.03 1.828 6.028 2.908 8.986.07-.007.14-.014.21-.023-1.08-2.962-2.054-5.965-2.917-9-.079.012-.147.025-.2.037m-2.928 2.946c-.058.047-.114.097-.17.15.238.844.5 1.681.752 2.522l.178-.12c-.255-.85-.521-1.698-.76-2.552m-2.25-.018c.357 1.179.742 2.349 1.157 3.51.06-.013.117-.029.172-.05l.024-.01c-.446-1.252-.86-2.514-1.242-3.788-.045.112-.08.223-.111.338m3.646-2.137c-.06.049-.117.099-.17.153.35 1.36.85 2.696 1.234 4.038.404 1.41.798 2.823 1.191 4.238.069-.004.139-.007.209-.015-.397-1.426-.794-2.853-1.202-4.277-.396-1.376-.91-2.742-1.262-4.137" transform="translate(-1 -2) translate(78.715 75.506)"/>
            <path fill="#DE2844" d="M121.662 6.309c.115-.115.385-.104.53-.086.027.003.054.016.074.037.063-.001.126.047.103.123l-.108.332c-.018.052-.03.115-.056.165.25.451.794.701 1.238.917.453.22.92.408 1.364.649.743.404 1.584 1.065 1.51 2.007-.005.06-.063.124-.128.097-.404-.156-.674-.487-.988-.77-.428-.382-.89-.72-1.378-1.02-.73-.446-1.53-.902-1.798-1.761-.1-.007-.185-.11-.23-.2-.05-.095-.104-.192-.149-.29-.03-.067-.043-.143.016-.2" transform="translate(-1 -2) translate(78.715 75.506)"/>
            <path fill="#2D304D" d="M120.293 1.78c.165-.05.336-.073.506-.071-.027-.144.132-.316.306-.226.307.16.553.359.757.59.048.04.095.08.14.123.115.113.197.253.305.372.106.119.214.21.288.356.138.271.145.586.043.868-.038.099-.133.15-.223.144.047.08.093.133.115.088.113-.234.458-.03.347.201-.117.25-.404.298-.627.146-.268-.182-.372-.527-.34-.834.025-.24.1-.353-.138-.52-.148-.104-.223-.176-.33-.332-.244-.36-.589-.588-1.042-.514-.253.041-.364-.316-.107-.392" transform="translate(-1 -2) translate(78.715 75.506)"/>
            <path fill="#F9EBDB" d="M121.367 6.389c-.036.01-.07.02-.106.025.025-.069.046-.137.066-.209v.047c0 .036.013.061.034.077 0 .02.004.04.006.06m-.26.246c.103 0 .204-.018.304-.047.011.03.024.063.038.094.016.032.056.05.088.05.203 0 .405-.27.55-.422l.029.021c.063.147.29.259.39.336.079.06.165-.04.15-.117-.003-.018-.004-.037-.006-.055.23-.063.4-.3.356-.536.075.014.16-.063.107-.145-.091-.14-.188-.275-.29-.407-.028-.032-.092-.04-.125-.016-.169.122-.505.381-.602.642l-.165-.117c-.126-.088-.3-.279-.471-.282-.11 0-.185.072-.235.16-.114.208-.126.487-.216.71-.023.064.04.129.099.13" transform="translate(-1 -2) translate(78.715 75.506)"/>
            <path fill="#DB7D8F" d="M4.384 33.716c-.02-.44-.333-.866-.77-.95-.11-.103-.24-.178-.384-.21-.534-.123-1.014.161-1.188.673-.537 1.585-.994 3.205-1.326 4.847-.184.9-.252 1.833.215 2.665.388.692 1.068 1.154 1.725 1.564.62.384 1.368-.088 1.447-.753.158-.17.254-.4.279-.662.214-2.386.11-4.784.002-7.174" transform="translate(-1 -2) translate(78.715 75.506)"/>
            <path fill="#2E3F4E" d="M9.047 21.385c-1.215-.252-2.612.005-3.683.623-1.19.685-2.018 1.941-2.023 3.332-.002.636.52 1.096 1.13 1.13.277.015.528-.064.739-.208.273.113.586.14.878.08.39-.078.694-.43.795-.822.15-.088.304-.175.456-.26.01.059.018.118.03.175.127.653.576 1.28 1.234 1.465 1.56.439 2.485-1.47 2.616-2.72.142-1.356-.878-2.528-2.172-2.795" transform="translate(-1 -2) translate(78.715 75.506)"/>
            <path fill="#F5BC8E" d="M6.542 49.027c-.077-.246-1.319.505-1.328.63-.023.337.99 4.902 1.082 5.223.072.256.167.653.512.624.333-.025.295-.36.322-.627.034-.345-.349-5.1-.588-5.85M8.776 50.226c-.037.312-.05 3.511-.064 3.826-.013.147-.022.295-.026.442-.001.079.02.142.058.189.025.063.667.172.676.1.379-3.01.683-4.656.733-4.998.036-.242-1.359.286-1.377.44" transform="translate(-1 -2) translate(78.715 75.506)"/>
            <path fill="#2D304D" d="M7.4 55.268c.005-.196.016-.636-.148-.77-.074-.057-.983.107-1.031.234-.133.36-.478 1.17-.353 1.555.153.467.565.571.841.259.295-.333.678-.825.69-1.278M9.726 54.418c-.045-.138-.176-.26-.33-.25-.294.019-.648-.238-.741-.04-.09.192-.15.592-.128.758-.005.13.61 1.41.838 1.45.415.072.641-.138.652-.345.025-.545-.126-1.06-.291-1.573" transform="translate(-1 -2) translate(78.715 75.506)"/>
            <path fill="#F5BC8E" d="M8.974 34.173c-.03-.005-.06-.007-.09-.007-.189-.226-.586-.228-.726.146l-.043.117c-.203-.13-.541-.069-.66.19-.154-.063-.341-.052-.46.056-.106-.08-.255-.095-.388-.058-.128-.13-.347-.156-.518-.072-.226-.16-.61-.115-.67.216l-.029.158c-.161-.08-.382-.043-.52.1-.25-.078-.569.051-.556.39.029.815.06 1.63.093 2.447.006.113.04.203.094.27.02.226.206.362.424.386.652.066 1.306.055 1.96.012.328-.02.655-.046.982-.079.264-.025.846.058.924-.203.199-.676.34-3.125.382-3.806.018-.27.033-.268-.2-.263" transform="translate(-1 -2) translate(78.715 75.506)"/>
            <path fill="#001733" d="M8.342 26.02c-.05.195-.106.39-.164.584-.054.005-.107.018-.161.043-.17.079-.26.228-.311.406-.052.048-.09.11-.103.185-.041.279-.068.559-.07.841-.154-.056-.314-.095-.49-.093-.157.001-.302.032-.443.075.008-.11-.005-.22-.032-.332-.012-.049-.03-.092-.054-.13.056-.165.1-.336.139-.503.102-.478.172-.967-.166-1.368-.025-.03-.057-.053-.093-.073.016-.1.034-.202.052-.304.072-.415-.36-.642-.638-.474-.009-.024-.02-.047-.032-.069.023-.25.084-.48.262-.68.108-.121.31-.31.516-.425.095.052.208.072.323.049.35-.076.653.239.866.47.256.277.522.532.786.797-.004.337-.104.68-.187 1m1.306 1.977c-.075-.433-.4-.722-.31-1.184.086-.446.287-.859.282-1.319-.002-.155-.027-.298-.072-.433.06-.426.063-.86-.133-1.255-.232-.467-.708-.726-1.168-.918-.358-.15-.928-.257-1.576-.111-.665.147-1.345.713-1.587 1.283-.16.374-.166.78-.18 1.179-.005.124-.013.235-.032.338-.209.293-.62.445-.92.711-.482.43-.764 1.09-.522 1.718.212.554.703.894 1.255 1.034.1.047.208.079.321.088.083.005.164 0 .24-.013.18.002.362-.016.537-.06.27.15.658-.06.954-.154.196-.06.367-.084.564-.014.216.076.414.192.635.26.408.125.871.125 1.238-.12.343-.228.545-.614.474-1.03" transform="translate(-1 -2) translate(78.715 75.506)"/>
            <path fill="#F5BC8E" d="M8.048 23.505c-.419-.366-1.211-.415-1.69-.136-.09.032-.176.09-.251.176-.67.77-.566 2.1-.266 3.003.144.426.358 1.414 1.427 1.38.77-.027 1.089-.933 1.172-1.121.224-.51.294-1.075.273-1.628-.023-.612-.187-1.258-.665-1.674" transform="translate(-1 -2) translate(78.715 75.506)"/>
            <path fill="#F5BC8E" d="M7.765 26.799c-.044-.334-.477-.408-.707-.216-.086-.12-.246-.2-.39-.189-.25.018-.388.225-.393.455-.008.302-.011.604-.013.906-.063.602.004 1.233.02 1.824.009.336.329.442.575.35.038.008.077.011.117.01.01.055.023.11.038.165.044.205.301.309.487.27.217-.046.336-.229.337-.445l.036-2.871c0-.11-.041-.196-.107-.26" transform="translate(-1 -2) translate(78.715 75.506)"/>
            <path fill="#001733" d="M9.197 24.94c-.058-.453-.293-.853-.414-1.29-.048-.173-.255-.21-.38-.099-.017.014-.031.03-.046.047-.034-.175-.167-.318-.399-.304-.059.004-.115.013-.172.022-.054-.159-.228-.317-.404-.293-.256.032-.502.102-.727.203-.043-.002-.086.003-.13.018-.07 0-.14.005-.207.016-.322.054-.552.318-.57.641 0 .015 0 .03.002.042-.293.32-.59.735-.667 1.168-.074.406.386.722.712.413.169-.16.312-.325.542-.217.277.13.58.088.8-.133.284-.29.236-.81.604-.978.217-.025.37.27.406.45.045.224.007.46.065.684.074.299.336.593.674.471.338-.119.348-.564.31-.86" transform="translate(-1 -2) translate(78.715 75.506)"/>
            <path fill="#DBDAD9" d="M9.662 38.696c-.088-.426-.588-1.33-.653-1.614-.01-.054-.986.394-2.262.394-1.45 0-2.274-.236-2.353-.207-.303.112-1.227 2.383-1.053 3.31.022.11 1.943 12.165 1.977 12.25.12.302.843.066 1.152.014.306-.052.7-.143.66-.481-.011-.094-.737-9.676-.252-10.001.381.708 1.788 4.54 1.835 4.958.054.92-.23 4.784-.17 4.946.15.39 1.361.47 1.751.167.096-.074.495-3.435.37-5.812-.165-3.143-.765-6.96-1.002-7.924" transform="translate(-1 -2) translate(78.715 75.506)"/>
            <path fill="#F5BC8E" d="M4.25 38.929c-.031-.243-.376-.529-.491-.744-.022-.166.001-.05-.178-.101-.205-.056-.485.07-.525.297-.045.266-.049.524.022.787.073.276.294.763.571.58.541-.361.638-.507.6-.82M9.968 37.828c-.133-.143-.22-.188-.412-.134-.192.052-.717.815-.69.965.042.222.344.643.586.643.349 0 .489-.257.602-.548.112-.288.137-.683-.086-.926" transform="translate(-1 -2) translate(78.715 75.506)"/>
            <path fill="#DBDAD9" d="M10.21 29.85c-.354-.43-.866-.901-1.804-1.119-.865-.201-2.033-.205-2.73-.021-.55.143-1.301.445-2.011 1.213-.857.925-1.706 3.646-1.955 4.618-.238.924.907 3.28 1.096 3.882.124.394 1.046.085 1.07-.115.015-.127-.783-2.6-.777-3.463l-.002-.007c.029-.09.764-1.22.764-1.22-.015.697-.22 3.123.054 3.46.368.452.993-.13 1.362-.353.338-.205.75-.372 1.15-.284.417.093.757.349 1.192.419.702.111 1.59.244 1.797-.085.747-1.202.46-3.693.476-3.652.097.283.717 1.483.688 1.647-.034.19-1.046 2.108-1.109 2.857-.018.23.674.751.795.624.454-.473 1.83-2.389 1.648-4.031-.153-1.375-1.373-3.965-1.704-4.37" transform="translate(-1 -2) translate(78.715 75.506)"/>
            <path fill="#F5BC8E" d="M8.406 28.731c-.412-.131-.884-.275-1.352-.278-.485-.006-.968.134-1.38.257.317.35.95.49 1.357.523.536.043 1.062-.1 1.375-.502" transform="translate(-1 -2) translate(78.715 75.506)"/>
            <path fill="#DB7D8F" d="M4.312 29.394c.333 1.973-.568 3.937-.796 5.878-.052.435.234 1.28.318.855.42-2.099 1.56-4.981 1.091-7.145-.003-.018-.629.316-.613.412" transform="translate(-1 -2) translate(78.715 75.506)"/>
            <path fill="#2D304D" d="M8.67 25.288c-.055-.083-.155-.101-.247-.08-.03-.017-.061-.032-.093-.044-.05-.018-.101-.027-.148-.03-.03-.005-.06-.006-.09-.006-.217 0-.41.107-.524.285-.193-.091-.405-.11-.61-.054-.133-.194-.356-.298-.591-.27-.03.005-.06.01-.088.017-.045.01-.09.023-.137.045l-.02-.007c-.1-.027-.222.007-.274.104-.043.08-.04.176.014.246-.022.074-.025.151-.01.229.037.188.163.323.325.395.032.02.188.063.35.06.144-.013.284-.067.388-.17.117-.115.158-.282.13-.44.149-.034.301-.01.438.06-.029.175.029.366.174.477.115.088.261.126.407.12.16-.014.309-.077.34-.1.15-.09.262-.239.276-.431.004-.063-.005-.126-.022-.184.045-.066.063-.142.011-.222" transform="translate(-1 -2) translate(78.715 75.506)"/>
        </g>
    </g>
</svg>
