<svg xmlns="http://www.w3.org/2000/svg" width="26" height="32" viewBox="0 0 26 32">
    <g fill="none" fill-rule="evenodd">
        <path d="M0 0H34V34H0z" transform="translate(-5 -1)"/>
        <g stroke="#4A4A4A" stroke-linecap="round" stroke-linejoin="round">
            <path stroke-width="1.083" d="M13.327 28.287L5.417 28.287 0.602 28.287 0.602 23.523 0.602 3.009 5.417 3.009" transform="translate(-5 -1) translate(5 1)"/>
            <path stroke-width=".963" d="M16.25 3.009L21.065 3.009 21.065 19.861" transform="translate(-5 -1) translate(5 1)"/>
            <g stroke-width="1.083">
                <path d="M13.843 2.586V3.79H3.01V2.585c0-1.33 1.078-2.408 2.407-2.408h6.018c1.33 0 2.408 1.079 2.408 2.408zM.753 12.215L15.648 12.215M.753 19.438L15.648 19.438M18.464 22.161l-.34-.954h-1.483l-.34.954c-.294.079-.573.196-.835.343l-.91-.433-1.053 1.052.433.911c-.146.26-.263.54-.343.836l-.954.339v1.483l.954.34c.08.294.197.575.343.835l-.433.911 1.052 1.053.911-.433c.262.146.54.262.836.342l.34.954h1.482l.34-.954c.295-.08.576-.196.835-.342l.911.433 1.053-1.053-.433-.911c.146-.26.264-.54.342-.836l.954-.339v-1.483l-.954-.34c-.078-.294-.196-.575-.342-.835l.433-.911-1.053-1.052-.911.433c-.259-.147-.54-.264-.835-.343z" transform="translate(-5 -1) translate(5 1) translate(2.407 .423)"/>
                <path d="M19.24 25.951c0 1.026-.831 1.856-1.857 1.856s-1.857-.83-1.857-1.856c0-1.027.83-1.857 1.857-1.857 1.026 0 1.857.83 1.857 1.857z" transform="translate(-5 -1) translate(5 1) translate(2.407 .423)"/>
            </g>
        </g>
    </g>
</svg>
