<svg xmlns="http://www.w3.org/2000/svg" width="34" height="34" viewBox="0 0 34 34">
    <g fill="none" fill-rule="evenodd">
        <path d="M0 0H34V34H0z"/>
        <g stroke="#DA1C5C" stroke-linecap="round" stroke-linejoin="round">
            <path stroke-width="1.083" d="M12.724 28.111L4.815 28.111 0 28.111 0 23.274 0 2.444 4.815 2.444" transform="translate(5.602 1.611)"/>
            <path stroke-width=".963" d="M15.648 2.444L20.463 2.444 20.463 19.556" transform="translate(5.602 1.611)"/>
            <path stroke-width="1.083" d="M15.648 2.444v1.223H4.814V2.444C4.814 1.095 5.893 0 7.222 0h6.018c1.33 0 2.408 1.095 2.408 2.444zM2.558 12.222L17.453 12.222M2.558 19.556L17.453 19.556M20.269 22.321l-.34-.97h-1.483l-.34.97c-.294.08-.573.2-.835.348l-.91-.44-1.053 1.069.433.925c-.146.264-.263.549-.343.848l-.954.345v1.506l.954.344c.08.3.197.584.343.848l-.433.926 1.052 1.07.911-.44c.262.147.54.266.836.346l.34.97h1.482l.34-.97c.294-.08.576-.199.835-.347l.911.44 1.053-1.07-.433-.925c.146-.264.264-.548.342-.848l.954-.344v-1.506l-.954-.345c-.078-.3-.196-.584-.342-.848l.433-.925-1.053-1.069-.911.44c-.259-.149-.54-.268-.835-.348z" transform="translate(5.602 1.611)"/>
            <path stroke-width="1.083" d="M21.044 26.17c0 1.04-.83 1.884-1.856 1.884-1.026 0-1.857-.844-1.857-1.885 0-1.042.83-1.886 1.857-1.886 1.026 0 1.856.844 1.856 1.886z" transform="translate(5.602 1.611)"/>
        </g>
    </g>
</svg>
