<svg xmlns="http://www.w3.org/2000/svg" xmlns:xlink="http://www.w3.org/1999/xlink" width="195" height="130" viewBox="0 0 195 130">
    <defs>
        <path id="lz3cf6ejpa" d="M90.44 12.903C68.773 20.43 48.696 27.96 34.472 23.356 15.113 17.09.068 34.902.044 56.998v.114c.02 16.461 8.374 35.277 29.478 48.285 26.014 16.036 49.688 22.601 70.39 22.665h.6c55.653-.164 89.686-47.364 89.895-83.449v-.655c-.07-12.281-4.099-23.227-12.571-30.511-10.58-9.095-22.641-12.407-35.313-12.408-16.96 0-35.014 5.932-52.084 11.864z"/>
        <path id="y6sl3n0s4e" d="M5.512.796C2.692.796.387 3.107.387 5.931v66.29c0 2.824 2.305 5.135 5.125 5.135H32.31c2.822 0 5.127-2.31 5.127-5.135V5.931c0-2.824-2.305-5.135-5.127-5.135H5.512z"/>
        <path id="m7ofp9e0sg" d="M0 1.755c0 .6.488 1.089 1.087 1.089.597 0 1.085-.489 1.085-1.089S1.684.667 1.087.667C.487.667 0 1.156 0 1.755z"/>
        <path id="o3fh2u9rkh" d="M.245 1.755c0 .38.309.69.69.69.377 0 .686-.31.686-.69 0-.38-.31-.69-.687-.69-.38 0-.69.31-.69.69z"/>
        <path id="33xv4851qj" d="M1.629.868c-.4 0-.725.326-.725.725v.249c0 .399.325.726.725.726h6.684c.397 0 .722-.327.722-.726v-.25c0-.398-.325-.724-.722-.724H1.629z"/>
        <path id="qhdc8wvzkk" d="M.485 1.266c-.248 0-.45.204-.45.451 0 .25.202.453.45.453H6.92c.247 0 .45-.204.45-.453 0-.247-.203-.45-.45-.45H.485z"/>
        <path id="r96687vukm" d="M.696 3.825c0 1.659 1.35 3.011 3.006 3.011 1.657 0 3.008-1.352 3.008-3.011 0-1.66-1.351-3.012-3.008-3.012C2.047.813.696 2.166.696 3.825z"/>
        <path id="7xojb348tn" d="M.068 2.553c0 1.306 1.064 2.37 2.367 2.37S4.8 3.86 4.8 2.553C4.801 1.25 3.738.184 2.435.184 1.132.184.068 1.25.068 2.554z"/>
        <path id="cxzk9z61ao" d="M1.046 0.699L34.343 0.699 34.343 59.565 1.046 59.565z"/>
        <path id="05zkpnxjdq" d="M.49.22C.422.22.37.274.37.34v4.874c0 .066.053.121.12.121h.61c.066 0 .12-.055.12-.12V.34c0-.066-.054-.12-.12-.12H.49z"/>
        <path id="icn9aspbqr" d="M.485 1.266c-.248 0-.45.204-.45.451 0 .25.202.453.45.453H6.92c.247 0 .45-.204.45-.453 0-.247-.203-.45-.45-.45H.485z"/>
        <path id="5fvvnspvus" d="M1.046 0.699L34.343 0.699 34.343 59.565 1.046 59.565z"/>
        <path id="2ejoowqs3u" d="M23.978.145C18.03.155 11.7 2.233 5.715 4.31 3.78 4.983 1.883 5.654.045 6.257v37.368c14.76 3.6 26.308-1.824 33.298-9.87V2.358C30.45.778 27.322.152 24.081.145h-.103z"/>
        <path id="3l3om26ddx" d="M1.224.892s.071.016.166.047V.882c-.096.008-.166.01-.166.01z"/>
        <path id="klv1gxwr4z" d="M3.585 5.648c1.514 0 2.75-1.235 2.75-2.75 0-1.513-1.236-2.75-2.75-2.75-1.515 0-2.75 1.237-2.75 2.75 0 1.515 1.235 2.75 2.75 2.75z"/>
        <linearGradient id="axj6j6bwbb" x1="50%" x2="50%" y1="0%" y2="100%">
            <stop offset="0%" stop-color="#F9FCFE"/>
            <stop offset="100%" stop-color="#DDE8FF" stop-opacity=".9"/>
        </linearGradient>
        <linearGradient id="78tn8a40mc" x1="50%" x2="50%" y1="0%" y2="100%">
            <stop offset="0%" stop-color="#F9FCFE"/>
            <stop offset="100%" stop-color="#DDE8FF" stop-opacity=".9"/>
        </linearGradient>
        <linearGradient id="7icdrhrflv" x1="-2.468%" x2="63.821%" y1="78.739%" y2="50%">
            <stop offset="0%" stop-color="#FFCAD6"/>
            <stop offset="100%" stop-color="#FFF"/>
        </linearGradient>
    </defs>
    <g fill="none" fill-rule="evenodd">
        <g>
            <g>
                <g>
                    <g transform="translate(-771 -383) translate(771 383) translate(.661) translate(2.483 .735)">
                        <mask id="tjpj6sasid" fill="#fff">
                            <use xlink:href="#lz3cf6ejpa"/>
                        </mask>
                        <use fill="url(#axj6j6bwbb)" xlink:href="#lz3cf6ejpa"/>
                        <path fill="url(#78tn8a40mc)" d="M-6.308 134.43L196.758 134.43 196.758 -5.327 -6.308 -5.327z" mask="url(#tjpj6sasid)"/>
                    </g>
                    <g>
                        <g>
                            <path fill="#87AFFF" d="M2.643 12.632c-.209-.241-.314-.6-.172-.886.078-.155.219-.272.294-.43.13-.274.026-.61-.157-.853-.184-.242-.439-.42-.658-.63-.544-.521-.876-1.258-.905-2.011-.013-.302.097-.687.398-.718.11-.011.218.032.328.037.472.024.69-.58.704-1.054.02-.78-.118-1.574.063-2.334.18-.76.826-1.499 1.6-1.416.557.058 1.042.52 1.598.453.508-.06.846-.533 1.152-.945.32-.429.687-.846 1.17-1.072C8.54.546 9.165.55 9.562.907c.437.393.474 1.067.373 1.647-.1.58-.306 1.156-.237 1.74.082.703.546 1.296 1.022 1.817.477.522 1 1.035 1.246 1.698.247.662.123 1.53-.483 1.891-.27.163-.62.222-.8.478-.301.428.084.98.253 1.475.26.767-.067 1.654-.673 2.191-1.091.965-3.32-.737-4.075.561-.755 1.297-2.834-.952-3.545-1.773" transform="translate(-771 -383) translate(771 383) translate(.661) translate(0 67.573) translate(167.43 25.165)"/>
                            <path fill="#2F75FF" d="M6.496 22.826c-.147 0-.266-.12-.266-.266l-.003-6.814c0-1.766-.003-3.29 1.23-4.782.436-.526.86-1.094.858-1.723-.001-.147.118-.267.265-.268.142.001.266.118.267.266.004.807-.503 1.49-.98 2.066-1.11 1.343-1.109 2.71-1.106 4.44l.001 6.815c0 .147-.119.266-.266.266" transform="translate(-771 -383) translate(771 383) translate(.661) translate(0 67.573) translate(167.43 25.165)"/>
                            <path fill="#2F75FF" d="M7.062 12.423c-.088 0-.177-.046-.227-.129-.185-.3-.384-.602-.577-.894-.27-.406-.548-.828-.796-1.264-.516-.908-.798-1.727-.858-2.503-.012-.15.062-.346.22-.423.118-.055.256-.033.351.057.108.101.113.27.012.378-.014.014-.028.026-.044.037.07.67.326 1.387.782 2.19.239.42.512.832.777 1.232.196.296.398.602.587.912.078.126.038.29-.087.367-.043.027-.092.04-.14.04" transform="translate(-771 -383) translate(771 383) translate(.661) translate(0 67.573) translate(167.43 25.165)"/>
                            <path fill="#2F75FF" d="M5.825 10.283h-.023c-.147-.014-.256-.142-.243-.29.031-.384.23-.7.423-1.007.195-.31.365-.581.323-.86-.022-.147.079-.283.224-.304.145-.023.282.078.303.225.071.475-.178.873-.4 1.225-.165.263-.32.51-.342.766-.012.14-.128.245-.265.245M7.895 11.085c-.135 0-.252-.104-.265-.242-.014-.148.094-.277.24-.291.494-.046.982-.236 1.378-.536.117-.089.285-.066.374.052.088.118.065.286-.052.375-.48.363-1.051.585-1.65.641l-.025.001M5.205 9.356c-.127 0-.256-.098-.426-.227-.138-.105-.395-.3-.51-.317l-.095-.011c-.128-.014-.273-.03-.417-.102-.143-.072-.257-.204-.304-.354-.04-.127-.029-.258.03-.37.068-.13.23-.18.36-.112.12.064.172.207.125.332.006.009.018.021.03.028.057.028.142.037.232.047.038.004.076.007.113.013.252.035.534.248.758.42l.097.074c.13-.01.249.076.28.205.035.158-.039.271-.121.324-.052.035-.102.05-.152.05z" transform="translate(-771 -383) translate(771 383) translate(.661) translate(0 67.573) translate(167.43 25.165)"/>
                        </g>
                        <g>
                            <path fill="#477BDE" d="M3.41 18.985c-.335-.38-.5-.946-.264-1.39.129-.24.358-.419.483-.661.216-.427.054-.955-.24-1.338-.294-.383-.702-.667-1.055-1-.872-.825-1.396-1.985-1.43-3.161-.014-.473.17-1.073.657-1.113.179-.015.353.055.53.066.764.049 1.13-.891 1.16-1.63.048-1.219-.162-2.462.142-3.645.305-1.181 1.366-2.322 2.62-2.176.9.106 1.678.84 2.579.748.824-.084 1.381-.815 1.883-1.45C11 1.573 11.601.93 12.388.587c.788-.344 1.8-.324 2.437.244.7.625.748 1.678.574 2.581-.172.903-.516 1.799-.416 2.713.122 1.1.863 2.037 1.626 2.862.763.826 1.6 1.64 1.989 2.68.39 1.04.172 2.394-.815 2.946-.441.245-1.01.33-1.307.727-.494.66.12 1.533.384 2.309.41 1.204-.138 2.582-1.128 3.407-1.784 1.483-5.365-1.229-6.612.78-1.247 2.012-4.575-1.553-5.71-2.85" transform="translate(-771 -383) translate(771 383) translate(.661) translate(0 67.573) translate(157.814 13.652)"/>
                            <path fill="#5E94FF" d="M11.95 16.524h.019c.936-.072 1.83-.394 2.588-.93.112-.08.138-.237.06-.348-.08-.113-.237-.14-.348-.06-.673.478-1.503.776-2.339.838-.136.012-.239.131-.229.268.01.131.12.232.249.232" transform="translate(-771 -383) translate(771 383) translate(.661) translate(0 67.573) translate(157.814 13.652)"/>
                            <path fill="#5E94FF" d="M9.477 34.831c.136 0 .247-.11.249-.246l.116-10.644c.028-2.735.05-4.896 1.911-7.013.762-.867 1.577-1.893 1.585-3.101 0-.138-.11-.25-.247-.252-.136 0-.251.111-.253.248-.006 1.037-.723 1.939-1.458 2.776-1.984 2.256-2.008 4.61-2.036 7.336L9.227 34.58c0 .138.11.251.248.252h.002z" transform="translate(-771 -383) translate(771 383) translate(.661) translate(0 67.573) translate(157.814 13.652)"/>
                            <path fill="#5E94FF" d="M10.577 18.593c.046 0 .09-.011.132-.037.116-.072.152-.227.08-.344-.3-.486-.621-.968-.933-1.433-.424-.632-.86-1.286-1.244-1.952-.761-1.33-1.173-2.514-1.257-3.619.05-.01.096-.034.132-.075.095-.1.089-.258-.011-.352-.102-.096-.241-.118-.364-.06-.176.084-.269.316-.258.49.085 1.191.519 2.455 1.326 3.864.39.682.834 1.344 1.261 1.983.31.46.629.938.924 1.417.047.076.13.118.212.118" transform="translate(-771 -383) translate(771 383) translate(.661) translate(0 67.573) translate(157.814 13.652)"/>
                            <path fill="#5E94FF" d="M8.608 15.222c.127 0 .236-.096.249-.225.041-.436.31-.837.594-1.26.365-.547.741-1.111.644-1.797-.02-.137-.146-.232-.283-.212-.135.019-.23.146-.21.282.07.497-.238.959-.565 1.448-.306.457-.621.93-.677 1.49-.013.137.087.26.223.273l.025.001M7.62 13.757c.05 0 .1-.015.15-.048.039-.025.162-.123.115-.326-.03-.135-.165-.219-.3-.188-.004 0-.01.002-.016.005l-.223-.165c-.346-.26-.775-.585-1.134-.638-.058-.009-.117-.015-.176-.023-.164-.019-.32-.037-.441-.099-.069-.034-.13-.103-.149-.165-.011-.037-.002-.052.002-.057.067-.121.024-.273-.097-.34-.119-.068-.27-.026-.338.095-.075.132-.09.29-.043.445.06.196.208.37.4.468.2.101.417.127.609.148l.16.02c.234.036.64.341.907.544.27.202.43.324.574.324" transform="translate(-771 -383) translate(771 383) translate(.661) translate(0 67.573) translate(157.814 13.652)"/>
                        </g>
                        <g>
                            <path fill="#477BDE" d="M22.327 27.109c.47-.537.702-1.331.37-1.955-.181-.338-.504-.59-.678-.932-.305-.6-.077-1.343.336-1.881.414-.539.989-.938 1.484-1.408 1.227-1.16 1.965-2.79 2.013-4.446.02-.665-.24-1.509-.925-1.566-.25-.02-.496.078-.747.094-1.073.067-1.59-1.255-1.63-2.295-.067-1.712.228-3.463-.2-5.126-.43-1.662-1.924-3.265-3.686-3.06-1.266.147-2.36 1.18-3.627 1.05-1.16-.117-1.943-1.146-2.65-2.039-.738-.932-1.585-1.836-2.691-2.318C8.588.743 7.165.772 6.269 1.57c-.986.878-1.053 2.36-.81 3.63.243 1.27.728 2.532.586 3.817-.17 1.546-1.213 2.865-2.287 4.026-1.073 1.162-2.25 2.308-2.797 3.771-.549 1.463-.243 3.366 1.146 4.142.62.347 1.42.464 1.839 1.024.693.929-.171 2.156-.541 3.248-.576 1.693.193 3.633 1.586 4.791 2.511 2.089 7.548-1.727 9.302 1.1 1.753 2.828 6.436-2.184 8.034-4.011" transform="translate(-771 -383) translate(771 383) translate(.661) translate(0 67.573) translate(.902 .95)"/>
                            <path fill="#5E94FF" d="M10.313 23.646c-.01 0-.018 0-.027-.002-1.318-.099-2.577-.551-3.64-1.307-.158-.113-.195-.331-.084-.49.112-.159.331-.196.49-.083.945.672 2.112 1.091 3.287 1.18.193.014.337.183.322.376-.013.186-.167.326-.348.326" transform="translate(-771 -383) translate(771 383) translate(.661) translate(0 67.573) translate(.902 .95)"/>
                            <path fill="#5E94FF" d="M13.791 49.4c-.191 0-.348-.154-.35-.347l-.164-14.974c-.04-3.847-.07-6.886-2.689-9.864-1.072-1.22-2.216-2.664-2.228-4.362-.001-.195.155-.354.349-.355.19-.001.35.156.352.35.009 1.456 1.02 2.727 2.053 3.902 2.791 3.175 2.825 6.487 2.864 10.323l.163 14.972c.003.194-.152.353-.346.356h-.004" transform="translate(-771 -383) translate(771 383) translate(.661) translate(0 67.573) translate(.902 .95)"/>
                            <path fill="#5E94FF" d="M12.243 26.557c-.063 0-.126-.017-.183-.052-.165-.103-.216-.319-.114-.484.422-.683.874-1.36 1.313-2.016.595-.89 1.21-1.81 1.747-2.746 1.073-1.871 1.652-3.538 1.771-5.091-.07-.014-.136-.049-.188-.104-.131-.143-.124-.365.017-.497.143-.135.34-.166.513-.083.247.117.378.442.36.689-.118 1.675-.727 3.452-1.864 5.435-.549.958-1.173 1.889-1.775 2.788-.434.65-.883 1.323-1.299 1.995-.066.108-.18.166-.298.166" transform="translate(-771 -383) translate(771 383) translate(.661) translate(0 67.573) translate(.902 .95)"/>
                            <path fill="#5E94FF" d="M15.013 21.815c-.179 0-.33-.134-.349-.317-.06-.613-.437-1.176-.836-1.773-.513-.769-1.045-1.563-.906-2.528.027-.192.206-.325.396-.297.192.026.325.205.297.397-.1.699.336 1.348.795 2.036.43.643.874 1.307.951 2.096.02.193-.12.365-.314.385l-.034.001M16.404 19.754c-.072 0-.14-.021-.212-.067-.054-.036-.227-.174-.16-.461.042-.188.231-.306.419-.263l.024.006c.095-.067.215-.158.314-.232.486-.366 1.09-.822 1.596-.897.081-.013.163-.021.246-.032.232-.026.451-.052.62-.14.097-.048.183-.143.21-.232.015-.052.004-.073 0-.08-.096-.169-.035-.383.133-.479.169-.095.382-.035.478.134.105.188.127.411.06.628-.083.275-.293.52-.563.657-.283.144-.587.18-.857.21-.075.009-.15.018-.223.029-.33.05-.901.479-1.279.763-.379.286-.604.456-.806.456" transform="translate(-771 -383) translate(771 383) translate(.661) translate(0 67.573) translate(.902 .95)"/>
                        </g>
                        <g>
                            <path fill="#87AFFF" d="M2.643 12.632c-.209-.241-.314-.6-.172-.886.078-.155.219-.272.294-.43.13-.274.026-.61-.157-.853-.184-.242-.439-.42-.658-.63-.544-.521-.876-1.258-.905-2.011-.013-.302.097-.687.398-.718.11-.011.218.032.328.037.472.024.69-.58.704-1.054.02-.78-.118-1.574.063-2.334.18-.76.826-1.499 1.6-1.416.557.058 1.042.52 1.598.453.508-.06.846-.533 1.152-.945.32-.429.687-.846 1.17-1.072C8.54.546 9.165.55 9.562.907c.437.393.474 1.067.373 1.647-.1.58-.306 1.156-.237 1.74.082.703.546 1.296 1.022 1.817.477.522 1 1.035 1.246 1.698.247.662.123 1.53-.483 1.891-.27.163-.62.222-.8.478-.301.428.084.98.253 1.475.26.767-.067 1.654-.673 2.191-1.091.965-3.32-.737-4.075.561-.755 1.297-2.834-.952-3.545-1.773" transform="translate(-771 -383) translate(771 383) translate(.661) translate(0 67.573) translate(16.424 26.355)"/>
                            <path fill="#2F75FF" d="M6.496 22.826c-.147 0-.266-.12-.266-.266l-.003-6.814c0-1.766-.003-3.29 1.23-4.782.436-.526.86-1.094.858-1.723-.001-.147.118-.267.265-.268.142.001.266.118.267.266.004.807-.503 1.49-.98 2.066-1.11 1.343-1.109 2.71-1.106 4.44l.001 6.815c0 .147-.119.266-.266.266" transform="translate(-771 -383) translate(771 383) translate(.661) translate(0 67.573) translate(16.424 26.355)"/>
                            <path fill="#2F75FF" d="M7.062 12.423c-.088 0-.177-.046-.227-.129-.185-.3-.384-.602-.577-.894-.27-.406-.548-.828-.796-1.264-.516-.908-.798-1.727-.858-2.503-.012-.15.062-.346.22-.423.118-.055.256-.033.351.057.108.101.113.27.012.378-.014.014-.028.026-.044.037.07.67.326 1.387.782 2.19.239.42.512.832.777 1.232.196.296.398.602.587.912.078.126.038.29-.087.367-.043.027-.092.04-.14.04" transform="translate(-771 -383) translate(771 383) translate(.661) translate(0 67.573) translate(16.424 26.355)"/>
                            <path fill="#2F75FF" d="M5.825 10.283h-.023c-.147-.014-.256-.142-.243-.29.031-.384.23-.7.423-1.007.195-.31.365-.581.323-.86-.022-.147.079-.283.224-.304.145-.023.282.078.303.225.071.475-.178.873-.4 1.225-.165.263-.32.51-.342.766-.012.14-.128.245-.265.245M7.895 11.085c-.135 0-.252-.104-.265-.242-.014-.148.094-.277.24-.291.494-.046.982-.236 1.378-.536.117-.089.285-.066.374.052.088.118.065.286-.052.375-.48.363-1.051.585-1.65.641l-.025.001M5.205 9.356c-.127 0-.256-.098-.426-.227-.138-.105-.395-.3-.51-.317l-.095-.011c-.128-.014-.273-.03-.417-.102-.143-.072-.257-.204-.304-.354-.04-.127-.029-.258.03-.37.068-.13.23-.18.36-.112.12.064.172.207.125.332.006.009.018.021.03.028.057.028.142.037.232.047.038.004.076.007.113.013.252.035.534.248.758.42l.097.074c.13-.01.249.076.28.205.035.158-.039.271-.121.324-.052.035-.102.05-.152.05z" transform="translate(-771 -383) translate(771 383) translate(.661) translate(0 67.573) translate(16.424 26.355)"/>
                        </g>
                        <path fill="#FAFAFA" d="M86.691 36.838c-.67-.005-.948.232-.867.887.008.057.004.114 0 .172-.168 3.052 1.14 4.325 4.777 4.633.34.028.687-.025 1.027.012 1.929.213 3.522.155 3.635-2.487.05-1.152 1.087-2.072 2.176-3.205-3.809 0-7.279.013-10.748-.012m20.908 5.654c-.014-3.118-2.558-5.649-5.67-5.637-3.103.011-5.659 2.578-5.647 5.675.01 3.112 2.555 5.625 5.685 5.617 3.134-.007 5.644-2.529 5.632-5.655m43.034.014c-.02-3.097-2.594-5.652-5.687-5.649-3.118.004-5.629 2.528-5.633 5.666-.004 3.13 2.509 5.632 5.65 5.624 3.12-.006 5.69-2.564 5.67-5.64m-19.998-7.159c1.194.008 1.688-.163 1.67-1.544-.084-6.387-.073-12.777-.006-19.165.014-1.224-.332-1.48-1.513-1.476-14.483.043-28.966.048-43.45-.008-1.32-.005-1.575.356-1.561 1.598.067 6.33.068 12.663-.001 18.994-.014 1.264.27 1.623 1.584 1.61 7.213-.07 14.426-.033 21.639-.033 7.214 0 14.425-.025 21.638.024" transform="translate(-771 -383) translate(771 383) translate(.661) translate(0 67.573)"/>
                        <path fill="#B3D9FF" d="M149.42 23.022c-.21-.56-.526-.811-1.114-.847-2.105-.127-4.211-.243-6.309-.443-.921-.088-1.025.319-1.009 1.068.038 1.818.036 3.637 0 5.454-.015.718.11 1.187.947 1.283 3.385.39 6.767.813 10.472 1.263-1.087-2.819-2.059-5.29-2.988-7.778zm5.122 18.61c-1.58 1.41-2.124 1.274-2.59-.656-.592-2.448-2.06-4.18-4.385-5.11-4.147-1.662-8.593.801-9.628 5.252-.148.638.035 1.454-1.18 1.447-8.872-.052-17.744-.03-26.615-.024-.545 0-.98.015-1.054-.745-.18-1.866-1.09-3.412-2.657-4.947h1.969c8.414 0 16.828-.037 25.242.037 1.391.011 1.671-.402 1.652-1.699-.074-5.017.012-10.037-.06-15.056-.018-1.208.267-1.543 1.5-1.422 3.985.39 7.979.716 11.976.946 1.087.063 1.583.438 1.973 1.415 1.24 3.104 2.341 6.268 3.857 9.26V41.63z" transform="translate(-771 -383) translate(771 383) translate(.661) translate(0 67.573)"/>
                        <path fill="#CDE1F9" d="M108.997 35.324c7.213 0 14.425-.026 21.638.025 1.194.008 1.689-.164 1.67-1.544-.084-6.388-.073-12.778-.005-19.166.012-1.224-.333-1.48-1.514-1.477-14.483.043-28.967.048-43.45-.006-1.32-.007-1.575.354-1.561 1.596.066 6.333.068 12.663-.001 18.995-.014 1.263.271 1.624 1.584 1.61 7.213-.07 14.426-.033 21.639-.033" transform="translate(-771 -383) translate(771 383) translate(.661) translate(0 67.573)"/>
                        <path fill="#A7D4F3" d="M144.963 48.148c3.119-.007 5.69-2.566 5.67-5.641-.02-3.097-2.593-5.653-5.688-5.65-3.118.003-5.627 2.529-5.632 5.665-.004 3.13 2.508 5.632 5.65 5.626" transform="translate(-771 -383) translate(771 383) translate(.661) translate(0 67.573)"/>
                        <path fill="#8C8C8C" d="M101.967 48.147c3.133-.007 5.645-2.529 5.631-5.655-.012-3.118-2.557-5.649-5.669-5.637-3.104.011-5.659 2.58-5.648 5.675.01 3.112 2.556 5.625 5.686 5.617" transform="translate(-771 -383) translate(771 383) translate(.661) translate(0 67.573)"/>
                        <path fill="#8FC2FF" d="M97.439 36.85c-3.809 0-7.279.012-10.748-.012-.67-.005-.948.231-.867.887.008.057.004.114 0 .171-.168 3.054 1.14 4.325 4.777 4.634.34.03.687-.025 1.027.011 1.929.214 3.522.155 3.635-2.487.05-1.152 1.087-2.071 2.176-3.204" transform="translate(-771 -383) translate(771 383) translate(.661) translate(0 67.573)"/>
                        <path fill="#FFF8FB" d="M152.407 30.8c-1.087-2.818-2.06-5.29-2.987-7.778-.21-.56-.525-.81-1.114-.846-2.104-.127-4.212-.243-6.31-.444-.92-.089-1.024.32-1.008 1.069.039 1.816.036 3.635 0 5.453-.014.717.111 1.187.948 1.283 3.385.39 6.766.813 10.471 1.262" transform="translate(-771 -383) translate(771 383) translate(.661) translate(0 67.573)"/>
                        <path fill="#B9D4FC" d="M50.885 56.552L66.485 56.552 66.485 37.354 50.885 37.354z" transform="translate(-771 -383) translate(771 383) translate(.661) translate(0 67.573)"/>
                        <path fill="#71A2EA" d="M66.515 56.552L73.52 56.552 73.52 37.354 66.515 37.354zM52.277 44.505L57.536 44.505 57.536 38.936 52.277 38.936z" transform="translate(-771 -383) translate(771 383) translate(.661) translate(0 67.573)"/>
                        <path fill="#3785E2" d="M52.724 40.144L57.01 40.144 57.01 39.766 52.724 39.766zM52.724 41.089L57.01 41.089 57.01 40.711 52.724 40.711zM52.724 42.034L57.01 42.034 57.01 41.656 52.724 41.656zM52.724 42.979L57.01 42.979 57.01 42.601 52.724 42.601z" transform="translate(-771 -383) translate(771 383) translate(.661) translate(0 67.573)"/>
                        <path fill="#B9D4FC" d="M111.496 51.461L120.838 51.461 120.838 39.537 111.496 39.537z" transform="translate(-771 -383) translate(771 383) translate(.661) translate(0 67.573)"/>
                        <path fill="#71A2EA" d="M120.856 51.461L125.051 51.461 125.051 39.537 120.856 39.537zM112.33 43.979L115.48 43.979 115.48 40.52 112.33 40.52z" transform="translate(-771 -383) translate(771 383) translate(.661) translate(0 67.573)"/>
                        <path fill="#3785E2" d="M112.599 41.27L115.164 41.27 115.164 41.035 112.599 41.035zM112.599 41.858L115.164 41.858 115.164 41.623 112.599 41.623zM112.599 42.445L115.164 42.445 115.164 42.21 112.599 42.21zM112.599 43.032L115.164 43.032 115.164 42.797 112.599 42.797z" transform="translate(-771 -383) translate(771 383) translate(.661) translate(0 67.573)"/>
                        <path fill="#B9D4FC" d="M122.535 54.848L129.324 54.848 129.324 46.184 122.535 46.184z" transform="translate(-771 -383) translate(771 383) translate(.661) translate(0 67.573)"/>
                        <path fill="#71A2EA" d="M129.336 54.848L132.384 54.848 132.384 46.184 129.336 46.184zM123.14 49.412L125.429 49.412 125.429 46.898 123.14 46.898z" transform="translate(-771 -383) translate(771 383) translate(.661) translate(0 67.573)"/>
                        <path fill="#3785E2" d="M123.335 47.444L125.199 47.444 125.199 47.273 123.335 47.273zM123.335 47.87L125.199 47.87 125.199 47.7 123.335 47.7zM123.335 48.297L125.199 48.297 125.199 48.126 123.335 48.126zM123.335 51.103L125.199 51.103 125.199 50.933 123.335 50.933z" transform="translate(-771 -383) translate(771 383) translate(.661) translate(0 67.573)"/>
                    </g>
                    <g transform="translate(-771 -383) translate(771 383) translate(.661) translate(78.528 50.74)">
                        <mask id="mg4leu067f" fill="#fff">
                            <use xlink:href="#y6sl3n0s4e"/>
                        </mask>
                        <path fill="#DA1C5C" d="M-4.414 82.166L42.238 82.166 42.238 -4.014 -4.414 -4.014z" mask="url(#mg4leu067f)"/>
                    </g>
                    <g transform="translate(-771 -383) translate(771 383) translate(.661) translate(89.782 54.55)"/>
                    <g transform="translate(-771 -383) translate(771 383) translate(.661) translate(89.935 54.55)">
                        <mask id="t1xy2tnnmi" fill="#fff">
                            <use xlink:href="#o3fh2u9rkh"/>
                        </mask>
                        <path fill="#E2E5E5" d="M-4.555 7.256L6.421 7.256 6.421 -3.745 -4.555 -3.745z" mask="url(#t1xy2tnnmi)"/>
                    </g>
                    <g transform="translate(-771 -383) translate(771 383) translate(.661) translate(92.47 54.55)"/>
                    <g transform="translate(-771 -383) translate(771 383) translate(.661) translate(93.737 54.55)">
                        <mask id="dra8j38b5l" fill="#fff">
                            <use xlink:href="#qhdc8wvzkk"/>
                        </mask>
                        <path fill="#E2E5E5" d="M-4.764 6.98L12.17 6.98 12.17 -3.544 -4.764 -3.544z" mask="url(#dra8j38b5l)"/>
                    </g>
                    <g transform="translate(-771 -383) translate(771 383) translate(.661) translate(93.737 119.332)"/>
                    <g transform="translate(-771 -383) translate(771 383) translate(.661) translate(95.004 120.603)"/>
                    <g transform="translate(-771 -383) translate(771 383) translate(.661) translate(79.795 59.632)">
                        <mask id="khds1mq6fp" fill="#fff">
                            <use xlink:href="#cxzk9z61ao"/>
                        </mask>
                        <path fill="#FFC6D6" d="M-3.754 64.375L39.143 64.375 39.143 -4.112 -3.754 -4.112z" mask="url(#khds1mq6fp)"/>
                    </g>
                    <g transform="translate(-771 -383) translate(771 383) translate(.661) translate(114.283 65.983)"/>
                    <g transform="translate(-771 -383) translate(771 383) translate(.661) translate(93.737 54.55)"/>
                    <g transform="translate(-771 -383) translate(771 383) translate(.661) translate(79.795 59.632)">
                        <mask id="v1z4vcwl2t" fill="#fff">
                            <use xlink:href="#5fvvnspvus"/>
                        </mask>
                        <path fill="#FFF" d="M-3.754 64.375L39.143 64.375 39.143 -4.112 -3.754 -4.112z" mask="url(#v1z4vcwl2t)"/>
                    </g>
                    <g transform="translate(-771 -383) translate(771 383) translate(.661) translate(80.795 67.743)">
                        <mask id="oaa69qp30w" fill="#fff">
                            <use xlink:href="#2ejoowqs3u"/>
                        </mask>
                        <path fill="url(#7icdrhrflv)" d="M-8.575 46.999L67.941 46.999 67.941 -7.237 -8.575 -7.237z" mask="url(#oaa69qp30w)"/>
                    </g>
                    <g transform="translate(-771 -383) translate(771 383) translate(.661) translate(112.748 90.117)">
                        <mask id="tt8yvn8yfy" fill="#fff">
                            <use xlink:href="#3l3om26ddx"/>
                        </mask>
                        <path fill="#1564DD" d="M-3.575 6.606L7.651 6.606 7.651 -4.644 -3.575 -4.644z" mask="url(#tt8yvn8yfy)"/>
                    </g>
                    <g transform="translate(-771 -383) translate(771 383) translate(.661) translate(94.004 120.603)">
                        <mask id="r3u3pim2yA" fill="#fff">
                            <use xlink:href="#klv1gxwr4z"/>
                        </mask>
                        <use fill="#DA1C5C" xlink:href="#klv1gxwr4z"/>
                        <path fill="#FBE8EE" d="M-3.731 8.734L10.602 8.734 10.602 -5.626 -3.731 -5.626z" mask="url(#r3u3pim2yA)"/>
                    </g>
                    <g>
                        <path fill="#DA1C5C" d="M44.598 16.11c-.379 0-.764.029-1.142.087-.64.1-1.265.275-1.851.52-.362.151-.705.326-1.026.52l-.022.013c-.876.56-1.58 1.21-2.154 1.986-.597.78-1.026 1.668-1.272 2.64-.269.969-.325 1.985-.164 2.936.157 1.032.493 1.946 1.027 2.796.503.827 1.187 1.567 1.978 2.139 1.331.987 2.901 1.51 4.539 1.51.378 0 .762-.028 1.143-.085.608-.091 1.204-.258 1.77-.494 1.264-.527 2.36-1.402 3.17-2.526.567-.759.981-1.64 1.23-2.623.24-1.003.289-2 .15-2.969-.326-2.016-1.37-3.779-2.94-4.964-1.285-.972-2.817-1.486-4.436-1.486m9.531 18.978c-.465 0-.9-.181-1.228-.507l-2.345-2.35-.68.412c-.156.095-.297.178-.426.246l-.057.028c-.265.138-.537.263-.81.379-.798.333-1.639.572-2.495.709-.515.081-1.046.124-1.576.124-.852 0-1.729-.108-2.602-.321-1.307-.344-2.527-.925-3.629-1.731-1.107-.808-2.024-1.8-2.722-2.949-.186-.3-.359-.608-.51-.917-.415-.865-.707-1.79-.87-2.756l-.017-.098c-.009-.046-.015-.079-.019-.114l-.022-.17c-.061-.47-.094-.935-.094-1.38 0-.65.063-1.31.187-1.961.047-.234.088-.422.135-.597.34-1.296.931-2.513 1.761-3.62.828-1.1 1.834-2.014 2.993-2.715.447-.282.93-.53 1.436-.742.774-.324 1.606-.557 2.471-.696.51-.075 1.033-.113 1.552-.113.9 0 1.795.118 2.661.347l.03.008c.108.031.212.058.311.091l.034.01c2.155.675 4.067 2.073 5.388 3.94.162.23.297.439.41.636.54.891.941 1.841 1.193 2.83.102.397.183.823.237 1.267.145 1.318.068 2.613-.229 3.852-.24.98-.639 1.942-1.183 2.854l-.408.68 2.35 2.356c.688.69.688 1.77 0 2.461-.328.326-.762.507-1.227.507" transform="translate(-771 -383) translate(771 383) translate(.661) translate(51.759 65.902)"/>
                        <path fill="#F5BC8E" d="M77.676 38.056c.185.156.037.364.416.402.132.013.245.014.36.027-.052-.04-.11-.075-.147-.086-.06-.02-.126-.014-.185-.03-.081-.022-.135-.052-.194-.111-.06-.06-.028-.153.046-.178.276-.098.562-.032.79.149.136.106.45.393.393.591-.015.051-.077.096-.13.074l-.02-.007c-.013-.006-.026-.013-.036-.022l.08.184c.02.046.005.103-.027.137l.076.082c.076.076-.091-.045-.195-.063-.684-.12-1.462-.07-1.528-.854-.013-.154.093-.47.301-.295M82.675 55.43L82.078 55.473 81.862 52.596 82.884 52.596z" transform="translate(-771 -383) translate(771 383) translate(.661) translate(51.759 65.902)"/>
                        <path fill="#2D304D" d="M82.699 55.5c.001-.062.004-.105-.056-.11-.193-.017-.39-.032-.578.024-.201.061-.352.127-.568.193-.16.05-.395.136-.46.307-.033.088-.014.176.054.248.112.12.38.069.52.065.246-.006.502.005.748-.022.429-.047.332-.388.34-.706" transform="translate(-771 -383) translate(771 383) translate(.661) translate(51.759 65.902)"/>
                        <path fill="#F5BC8E" d="M85.195 55.513L84.603 55.602 84.169 52.749 85.188 52.672z" transform="translate(-771 -383) translate(771 383) translate(.661) translate(51.759 65.902)"/>
                        <path fill="#2D304D" d="M85.21 55.605c.002-.06.005-.104-.055-.11-.193-.016-.39-.03-.578.025-.201.061-.352.127-.568.193-.16.05-.395.136-.461.308-.032.087-.013.175.054.247.113.12.38.069.52.065.247-.006.503.005.75-.022.428-.047.331-.388.339-.706" transform="translate(-771 -383) translate(771 383) translate(.661) translate(51.759 65.902)"/>
                        <path fill="#2E3F4E" d="M84.195 48.355c.045-.077.129-.122.215-.131.005-.276.478-.337.522-.047l.015.101c.126-.185.487-.137.485.145-.01 1.282.136 4.874.16 6.156.003.143-.124.267-.264.265-.27-.001-.528.03-.789.1-.126.032-.304-.05-.325-.194-.197-1.303-.454-4.918-.485-6.237-.006-.279.321-.325.466-.158M81.348 47.986c-.014-.115.488-.792.563-.46.01.04.017.082.024.122.118-.062.289-.014.366.102.018.003.035.006.054.012l.059.02.005.002c.165-.07.375.036.367.266v.004c.149-.162.492-.071.462.205-.154 1.355-.094 4.94-.081 6.302 0 .137-.166.26-.294.234-.264-.051-.516-.06-.781-.02-.148.022-.273-.08-.303-.223-.166-.77-.423-6.271-.441-6.566" transform="translate(-771 -383) translate(771 383) translate(.661) translate(51.759 65.902)"/>
                        <path fill="#2D304D" d="M80.328 31.97c.195-.41.428-.78.864-.96.436-.18.992-.288 1.439-.097 1.072.46.346 1.867.504 2.723.05.266-.356.38-.408.112-.014-.075-.023-.15-.03-.225-.028.005-.057.004-.085-.001-.114.07-.294.043-.326-.116-.057-.284-.129-.563-.215-.838-.095.011-.2-.03-.242-.142-.06-.162-.103-.324-.132-.49-.13-.054-.273-.094-.39-.204-.018-.018-.032-.037-.042-.057-.223.179-.42.415-.647.587-.186.143-.37-.122-.29-.291" transform="translate(-771 -383) translate(771 383) translate(.661) translate(51.759 65.902)"/>
                        <path fill="#F5BC8E" d="M80.381 31.598c.183-.321.602-.398.937-.329.372.077.684.34.878.66.193.318.354.844.32 1.304.128.032.225.162.126.296-.222.3-.503.678-.87.805-.384.132-.73-.09-.959-.387-.253-.332-.424-.74-.499-1.149-.067-.363-.123-.862.067-1.2" transform="translate(-771 -383) translate(771 383) translate(.661) translate(51.759 65.902)"/>
                        <path fill="#F5BC8E" d="M82.578 35.36L83.695 34.879 82.893 33.004 81.774 33.484z" transform="translate(-771 -383) translate(771 383) translate(.661) translate(51.759 65.902)"/>
                        <path fill="#2D304D" d="M81.972 30.895c.314.03.63.127.595.35-.057-.01-.114-.013-.167-.002-.089-.178-.243-.288-.428-.348m-2.048 1.588c.082.058.172.058.268.032.093-.024.207-.148.3-.14.092.005.174.1.278.11.115.01.226-.03.32-.093.192-.129.252-.414.395-.591 0 .206.04.409.124.602.042.098.093.208.174.28.104.09.191.036.298.092.128.068.068.264.086.398.015.105.048.2.119.282.16.183.427.272.654.335.124.034.218-.08.195-.195-.035-.19-.095-.363-.176-.535-.072-.155-.58-1.31-.507-1.469h.124c.075.044.173.016.217-.06.407-.667-.554-.994-1.047-.985-.563.009-1.146.287-1.463.774l-.353.548c-.11.176-.218.463-.006.615" transform="translate(-771 -383) translate(771 383) translate(.661) translate(51.759 65.902)"/>
                        <path fill="#001733" d="M78.79 39.038c.062-.225.128-.45.19-.674.028-.094.148-.155.235-.096.627.426 1.292.775 1.994 1.053.15-.783.328-1.58.622-2.32.149-.438.292-1.091.526-1.491.19-.324.424-.64.748-.904.081-.064.375-.255.45-.185.973.916 1.91 2.404 1.901 3.797-.002.398-.064.802-.143 1.203.004.026.001.055-.005.086-.536 2.195.61 4.296 1.332 6.303.185.514.348 1.036.46 1.572.05.242.086.484.114.728.023.2.071.44-.053.615-.126.18-.374.206-.57.255l-.853.218c-.57.143-1.139.29-1.709.431-.436.11-2.449.117-2.687-.194-.13-.171-.146-.413-.182-.616-.043-.235-.081-.47-.116-.706-.072-.494-.129-.99-.17-1.486-.082-1.02-.095-2.044-.036-3.066.029-.51.076-1.02.14-1.526.04-.318.103-.637.14-.957-.553-.347-1.105-.695-1.657-1.044-.225-.145-.668-.309-.727-.608-.026-.131.021-.263.056-.388" transform="translate(-771 -383) translate(771 383) translate(.661) translate(51.759 65.902)"/>
                        <path fill="#2D304D" d="M77.117 38.101l1.138.534c.175.082.384.006.465-.17.082-.176.008-.384-.168-.467l-1.139-.533c-.175-.083-.382-.007-.465.169-.082.176-.006.384.169.467" transform="translate(-771 -383) translate(771 383) translate(.661) translate(51.759 65.902)"/>
                        <path fill="#F5BC8E" d="M77.834 38.437c.556.197.722.212.778.02-.148-.086-.286-.145-.451-.213-.099-.04-.222-.066-.15-.167.082-.115.241-.073.353-.037.195.06.427.203.602.376.001.003-.104.07-.16.06.012.029.023.058.032.088.015.061-.055.122-.108.1-.023.062-.07.105-.132.135-.078.051-.176.075-.282.061-.074-.009-.097-.091-.06-.133-.165-.012-.333-.06-.471-.106-.098-.031-.049-.218.049-.184" transform="translate(-771 -383) translate(771 383) translate(.661) translate(51.759 65.902)"/>
                        <path fill="#B8B8B8" d="M82.404 40.73c.47.729 1.147 1.275 1.939 1.59-.018-.504.104-1.019.224-1.505.194-.785.327-1.564.3-2.377-.013-.399-.082-.794-.093-1.193-.001-.033.001-.112.011-.21-.445-.824-1.274-1.408-2.257-1.507-.202-.02-.204-.338 0-.319.98.094 1.826.614 2.352 1.374.051-.137.126-.243.233-.256.282-.036.547.193.736.377.221.215 1.299 1.303 1.534 2.661.057.33.293 1.408-.373 2.945-.236.542-.591 1.222-1.159 1.47-.6.264-1.146-.173-1.361-.72-.05-.127-.084-.252-.108-.38-.925-.323-1.722-.958-2.253-1.788-.112-.174.164-.334.275-.161" transform="translate(-771 -383) translate(771 383) translate(.661) translate(51.759 65.902)"/>
                        <path fill="#38595E" d="M81.644 41.009c.585-.46 1.08-1.025 1.443-1.678.198-.357.359-.736.507-1.117.154-.396.294-.837.098-1.245-.043-.09.091-.171.137-.08.163.336.135.69.033 1.04-.123.42-.313.84-.507 1.232-.38.767-.927 1.432-1.6 1.96-.078.063-.191-.049-.111-.112" transform="translate(-771 -383) translate(771 383) translate(.661) translate(51.759 65.902)"/>
                        <path fill="#A1A1A1" d="M85.681 38.431c.193.755.991 1.308 1.76 1.305.006.05.01.104.016.162-.842.013-1.721-.6-1.93-1.425-.023-.1.129-.141.154-.042" transform="translate(-771 -383) translate(771 383) translate(.661) translate(51.759 65.902)"/>
                        <path fill="#F5BC8E" d="M84.998 20.279L84.478 20.229 85.054 16.02 86.194 16.066z" transform="translate(-771 -383) translate(771 383) translate(.661) translate(51.759 65.902)"/>
                        <path fill="#2D304D" d="M85.005 20.293c.011-.048.02-.08-.027-.094-.147-.044-.299-.088-.456-.074-.167.014-.295.044-.474.06-.133.013-.332.043-.41.166-.04.065-.039.136.002.204.07.111.286.114.396.133.196.034.393.085.591.103.342.032.322-.25.378-.498" transform="translate(-771 -383) translate(771 383) translate(.661) translate(51.759 65.902)"/>
                        <path fill="#F5BC8E" d="M91.381 17.944L91.073 18.367 87.755 15.723 88.375 14.764z" transform="translate(-771 -383) translate(771 383) translate(.661) translate(51.759 65.902)"/>
                        <path fill="#2D304D" d="M91.396 17.946c-.035-.035-.058-.059-.093-.027-.115.105-.229.215-.297.357-.072.151-.114.277-.19.44-.057.12-.132.308-.066.438.034.067.095.102.175.101.13-.002.243-.19.315-.273.13-.151.274-.296.39-.456.204-.28-.05-.405-.234-.58" transform="translate(-771 -383) translate(771 383) translate(.661) translate(51.759 65.902)"/>
                        <path fill="#F5BC8E" d="M82.045 5.154c.04-.153.09-.303.145-.45.027-.262.265-.71.331-.79.062-.076.192-.176.31-.185.108-.04.242.003.219.148-.012.07-.052.14-.078.205-.027.073-.041.145-.058.22-.009.033-.018.065-.03.094.076.134.16-.03.196-.07.023-.025.074-.014.08.022.033.174-.077.295-.22.35-.102.097-.224.201-.347.246-.039.09-.086.177-.125.263-.013.027-.046.027-.067.014-.026.003-.052-.014-.057-.041-.024.018-.061.011-.074-.013-.028.034-.09.015-.083-.033-.012.009-.026.012-.038.009l-.012.037c-.015.06-.109.034-.092-.026" transform="translate(-771 -383) translate(771 383) translate(.661) translate(51.759 65.902)"/>
                        <path fill="#2D304D" d="M90.874 10.583l-.099.094c-.033-.18-.016-.376.04-.53.134-.376.473-.385.76-.243-.233.227-.466.454-.701.679m-.385 1.97c.31.328.608.699.968.974.323.245.632.327.946.037.37-.344.695-.744 1.008-1.14.244-.307.61-.66.682-1.057.074-.402-.26-.763-.49-1.052-.285-.358-.609-.682-.963-.97-.012-.01-.023-.016-.035-.021-.011-.011-.021-.023-.033-.033-.154-.15-.282-.06-.418.065-.158.146-.314.296-.47.446-.328-.186-.733-.21-.953.175-.13.23-.156.544-.076.814-.128.12-.256.241-.38.366-.126.127-.248.268-.297.445-.115.414.259.687.51.95" transform="translate(-771 -383) translate(771 383) translate(.661) translate(51.759 65.902)"/>
                        <path fill="#F5BC8E" d="M90.094 8.526l.007.01c.022-.015.05-.02.075-.005.015-.034.053-.058.09-.043.011-.047.077-.076.117-.04.027-.025.072-.031.1 0 .099.112.18.23.25.359.093.112.153.232.18.38.003.01.003.02 0 .027.24.18.38.449.393.755.047.061-.275.377-.287.37-.152-.049-.503-.431-.534-.53-.025-.079-.011-.155-.012-.235-.004-.18-.055-.31-.132-.475l-.007-.018c-.126-.157-.248-.319-.365-.484-.053-.075.071-.146.125-.071" transform="translate(-771 -383) translate(771 383) translate(.661) translate(51.759 65.902)"/>
                        <path fill="#2D304D" d="M85.428.116c.216-.03.68-.13.862.033.158.144.086.32-.034.447.096.055.234.077.292.187.038.07.014.155.059.206.07.081.194.118.268.21.118.142.163.339.093.513-.036.086-.093.15-.167.204-.054.037-.068.028-.075.083-.004.032.042.107.044.143.037.41-.6.686-.925.541-.278-.124-.35-.485-.318-.815l-.001-.005-.15-.408-.001-.001c-.147-.133-.331-.215-.531-.216-.097-.001-.21.043-.31.03-.057.119-.272.098-.272-.062 0-.644.592-1.007 1.166-1.09M84.352 19.107c.164-.758.272-2.244.39-3.012.116-.748.25-1.498.487-2.22.01-.025.018-.05.026-.074-.07-.147-.123-.302-.155-.466-.072-.383-.04-.78-.032-1.167l.018-.972c-.044-.634-.019-1.28-.024-1.882-.004-.301.322-.39.517-.268.1-.092.235-.144.394-.129.177.017.317.119.41.26.42-.124.838-.255 1.252-.398.207-.071.347.053.39.216.156-.036.335.025.395.222.503 1.674.117 3.2-.528 4.683.514.363 1 .75 1.422 1.224.535.6 1.027 1.243 1.534 1.867.062.077.104.2.038.29-.161.223-.21.249-.371.47-.068.095-.217.171-.327.086-1.016-.786-2.047-1.757-3.062-2.543-.644 1.252-1.388 2.886-1.654 4.202-.022.11-1.19-.06-1.12-.389" transform="translate(-771 -383) translate(771 383) translate(.661) translate(51.759 65.902)"/>
                        <path fill="#FFF" d="M81.503 6.538c.044-.445.083-.893.311-1.286l.01-.077c.017-.126.183-.202.295-.168l.408.13c.073.024.126.076.153.14.027.046.04.1.038.154-.001.075-.027.155-.052.231.02.055.071.108.105.154.047.061.09.125.127.192.024-.025.048-.05.075-.071.148-.122.263-.26.424-.33.087-.117.132-.242.171-.393.047-.174.098-.34.194-.475.13-.293.395-.52.685-.725.234-.167.508-.276.782-.36.282-.086 1.613-.184 2.198.032.787.29 1.453 1.067 1.93 1.764.23.164.426.369.541.643.076.18.125.368.186.553l.026.04c.154.23.29.452.39.701.077.1.155.197.222.303.066.064.119.138.15.213.045.107.063.226.031.34-.027.098-.14.196-.172.294l.1.19c.037.072.078.147.06.23-.037.148-.274.256-.404.299-.178.06-.277-.038-.352-.184-.03-.026-.06-.051-.089-.078-.134-.05-.29-.048-.418-.133-.125-.084-.21-.215-.27-.35-.081-.179-.117-.373-.212-.547-.123-.05-.842-.855-.837-.837.115.403.476.559.371 1.44-.022.185-.13.347-.177.526-.059.23-.041-.005-.02.229.031.352-.108.554-.46.596-.474.054-.948.1-1.42.15-.348.038-1.042.167-1.298.035-.13-.067-.151-.156-.216-.47-.082-.401-.505-2.18-.559-2.775-.332.345-.904.876-1.964 1.298-.176.07-.397.075-.57-.022-.169-.092-.253-.274-.315-.45-.154-.438-.224-.698-.178-1.146" transform="translate(-771 -383) translate(771 383) translate(.661) translate(51.759 65.902)"/>
                        <path fill="#F5BC8E" d="M85.103.763c.646.15.946.95.712 1.539.069.298.187.584.3.868.114.289.107.449-.184.6-.275.142-.505.245-.704-.047-.124-.183-.206-.39-.273-.6-.353.002-.595-.293-.696-.614-.19-.606-.112-1.967.845-1.746" transform="translate(-771 -383) translate(771 383) translate(.661) translate(51.759 65.902)"/>
                        <path fill="#B6BEF0" d="M88.538 4.446c.403 1.502.827 2.999 1.273 4.489.054.014.11.024.163.038-.427-1.43-.836-2.866-1.226-4.308-.069-.075-.137-.148-.21-.22m-1.617-.863c.514 1.823 1.047 3.639 1.601 5.448.024-.073.057-.144.086-.216-.528-1.731-1.04-3.47-1.533-5.212-.05-.008-.1-.014-.154-.02m-1.641.06c.604 2.141 1.289 4.26 2.05 6.35.05-.004.1-.01.149-.016-.762-2.093-1.449-4.216-2.057-6.361-.056.009-.104.018-.142.026m-2.065 2.082c-.04.033-.08.069-.119.106.167.597.352 1.189.53 1.783.043-.028.085-.057.125-.085-.18-.6-.367-1.2-.536-1.804m-1.587-.012c.253.833.524 1.66.817 2.48.041-.008.082-.02.121-.035.005-.003.012-.005.017-.006-.315-.886-.606-1.778-.876-2.678-.032.079-.057.157-.079.239M84.2 4.2c-.042.034-.082.07-.12.107.247.962.6 1.906.87 2.855.286.997.563 1.995.84 2.995.049-.003.098-.005.148-.01-.28-1.009-.56-2.018-.848-3.024-.28-.973-.642-1.938-.89-2.924" transform="translate(-771 -383) translate(771 383) translate(.661) translate(51.759 65.902)"/>
                        <path fill="#DE2844" d="M85.392 3.976c.081-.081.271-.074.374-.06.02.002.038.01.052.026.044-.002.089.033.072.086-.025.079-.05.158-.076.235-.012.037-.021.081-.04.117.177.319.561.495.874.648.32.155.65.288.962.458.524.286 1.117.754 1.065 1.42-.004.041-.045.087-.09.068-.285-.11-.475-.344-.697-.544-.302-.27-.628-.51-.972-.721-.515-.315-1.079-.638-1.268-1.245-.07-.005-.13-.078-.162-.141-.036-.067-.074-.136-.105-.206-.022-.047-.03-.1.011-.14" transform="translate(-771 -383) translate(771 383) translate(.661) translate(51.759 65.902)"/>
                        <path fill="#2D304D" d="M84.426.774c.117-.034.237-.05.358-.05-.02-.1.092-.223.215-.16.217.114.39.255.534.419.034.028.067.056.098.086.082.08.14.18.216.263.075.084.15.149.203.252.097.191.102.414.03.613-.026.07-.094.107-.157.102.033.057.066.094.081.062.08-.165.323-.022.245.142-.083.177-.285.211-.443.103-.188-.128-.262-.372-.24-.59.019-.168.072-.248-.097-.366-.104-.074-.157-.125-.232-.235-.172-.254-.415-.416-.735-.364-.179.03-.257-.223-.076-.277" transform="translate(-771 -383) translate(771 383) translate(.661) translate(51.759 65.902)"/>
                        <path fill="#F9EBDB" d="M85.184 4.032c-.026.008-.05.014-.075.018.018-.048.033-.096.047-.147v.033c0 .025.009.043.024.055 0 .014.002.027.004.041M85 4.206c.072 0 .143-.012.214-.033.008.022.017.045.027.067.011.022.04.035.062.035.143 0 .285-.19.388-.298l.02.015c.044.104.204.183.275.237.056.042.117-.028.107-.082-.003-.013-.004-.027-.005-.04.162-.044.282-.212.25-.378.054.01.113-.045.076-.103-.064-.1-.133-.194-.205-.287-.019-.023-.064-.028-.087-.012-.12.087-.356.27-.425.454l-.116-.083c-.09-.062-.212-.196-.333-.199-.077 0-.13.05-.166.113-.08.147-.088.344-.152.502-.016.045.028.091.07.092" transform="translate(-771 -383) translate(771 383) translate(.661) translate(51.759 65.902)"/>
                        <path fill="#DB7D8F" d="M2.682 23.348c-.014-.312-.234-.613-.542-.672-.077-.073-.17-.126-.271-.149-.377-.086-.715.114-.838.476-.379 1.12-.7 2.265-.935 3.426-.13.637-.178 1.296.152 1.884.273.49.753.816 1.216 1.105.438.272.965-.062 1.02-.532.112-.12.18-.282.197-.468.151-1.686.077-3.38.001-5.07" transform="translate(-771 -383) translate(771 383) translate(.661) translate(51.759 65.902)"/>
                        <path fill="#2E3F4E" d="M5.971 14.632c-.857-.178-1.842.003-2.597.44-.839.484-1.423 1.372-1.427 2.355-.001.45.367.775.797.8.195.01.373-.046.521-.148.193.08.413.1.62.057.275-.056.489-.305.56-.582.106-.062.214-.123.322-.184l.02.125c.09.46.407.904.87 1.035 1.101.31 1.754-1.04 1.846-1.923.1-.958-.62-1.786-1.532-1.975" transform="translate(-771 -383) translate(771 383) translate(.661) translate(51.759 65.902)"/>
                        <path fill="#F5BC8E" d="M4.205 34.17c-.055-.175-.93.356-.937.445-.016.238.698 3.464.763 3.692.05.18.118.46.361.44.235-.017.208-.254.227-.443.024-.244-.246-3.605-.414-4.135M5.78 35.017c-.026.22-.035 2.482-.045 2.704-.01.104-.015.208-.018.312-.001.056.014.1.04.134.018.044.47.122.477.071.268-2.128.482-3.291.517-3.533.026-.171-.958.202-.97.312" transform="translate(-771 -383) translate(771 383) translate(.661) translate(51.759 65.902)"/>
                        <path fill="#2D304D" d="M4.81 38.58c.003-.138.01-.45-.105-.543-.052-.04-.693.075-.727.165-.094.254-.337.827-.248 1.099.107.33.398.404.593.183.208-.235.478-.583.486-.903M6.45 37.98c-.032-.098-.124-.184-.232-.176-.208.012-.458-.17-.523-.03-.064.136-.106.42-.09.536-.004.093.43.997.59 1.025.293.051.453-.097.46-.243.018-.385-.088-.75-.205-1.112" transform="translate(-771 -383) translate(771 383) translate(.661) translate(51.759 65.902)"/>
                        <path fill="#F5BC8E" d="M5.92 23.67c-.022-.003-.042-.004-.064-.004-.133-.16-.413-.162-.512.103l-.03.082c-.143-.091-.382-.048-.465.135-.11-.045-.241-.037-.325.04-.075-.057-.18-.068-.274-.041-.09-.092-.244-.11-.365-.051-.16-.113-.43-.082-.472.152l-.02.112c-.115-.057-.27-.03-.367.071-.177-.056-.402.036-.393.274.02.577.042 1.154.066 1.73.004.08.028.144.066.191.014.16.146.257.3.273.46.047.92.04 1.382.01.23-.015.461-.034.692-.057.186-.018.597.04.651-.143.141-.478.24-2.21.27-2.69.013-.191.023-.19-.14-.186" transform="translate(-771 -383) translate(771 383) translate(.661) translate(51.759 65.902)"/>
                        <path fill="#001733" d="M5.474 17.908c-.035.138-.075.275-.115.413-.038.003-.076.012-.114.03-.12.056-.184.161-.22.287-.036.034-.063.078-.072.13-.029.198-.048.396-.05.595-.108-.039-.221-.067-.345-.066-.11.002-.213.023-.312.054.005-.078-.004-.155-.023-.235-.009-.035-.021-.065-.038-.092.04-.117.071-.237.098-.355.072-.338.121-.684-.117-.967-.018-.022-.04-.038-.066-.052l.037-.215c.05-.293-.254-.453-.45-.335-.006-.017-.014-.033-.023-.048.017-.177.06-.34.185-.482.076-.085.218-.218.364-.3.067.037.147.051.228.035.247-.054.46.169.611.332.18.196.368.376.554.563-.003.239-.074.482-.132.708m.921 1.397c-.053-.306-.282-.51-.219-.837.061-.315.203-.607.2-.932-.002-.11-.02-.211-.052-.307.042-.3.045-.608-.093-.886-.164-.33-.5-.513-.824-.65-.252-.106-.654-.181-1.112-.078-.469.104-.948.504-1.119.907-.113.264-.116.551-.127.833-.003.088-.008.167-.022.239-.147.207-.438.315-.65.503-.339.304-.538.77-.367 1.214.15.392.496.632.885.73.07.034.147.057.227.063.058.004.115 0 .168-.009.127.001.256-.011.38-.043.19.107.463-.042.672-.108.138-.043.259-.06.398-.01.152.053.292.136.448.184.287.088.614.088.873-.085.242-.162.384-.435.334-.728" transform="translate(-771 -383) translate(771 383) translate(.661) translate(51.759 65.902)"/>
                        <path fill="#F5BC8E" d="M5.267 16.13c-.296-.258-.855-.293-1.192-.096-.063.023-.124.064-.177.125-.473.545-.4 1.484-.188 2.122.102.301.252 1 1.007.976.542-.02.768-.66.826-.793.158-.36.208-.76.193-1.15-.017-.433-.132-.89-.47-1.183" transform="translate(-771 -383) translate(771 383) translate(.661) translate(51.759 65.902)"/>
                        <path fill="#F5BC8E" d="M5.067 18.458c-.03-.236-.336-.288-.498-.152-.061-.085-.174-.141-.275-.133-.176.012-.274.158-.278.321-.005.213-.007.427-.009.64-.044.426.003.872.014 1.29.007.237.232.312.406.247.026.005.054.008.082.007.008.039.017.077.027.116.031.145.213.219.343.19.154-.03.237-.16.238-.313l.026-2.03c0-.077-.03-.138-.076-.183" transform="translate(-771 -383) translate(771 383) translate(.661) translate(51.759 65.902)"/>
                        <path fill="#001733" d="M6.077 17.145c-.04-.32-.207-.604-.292-.912-.034-.122-.18-.149-.268-.07-.012.01-.022.021-.032.033-.024-.123-.118-.225-.281-.215-.042.003-.082.01-.122.016-.038-.112-.161-.224-.285-.208-.18.023-.354.073-.512.144-.03-.001-.061.003-.093.013-.05 0-.097.004-.146.011-.226.038-.389.225-.401.454v.029c-.206.226-.415.52-.47.825-.051.288.273.511.503.293.119-.113.22-.23.382-.154.196.091.408.062.564-.094.2-.205.166-.573.426-.691.154-.018.261.19.287.317.031.16.005.326.045.484.052.211.237.42.476.333.238-.084.245-.399.219-.608" transform="translate(-771 -383) translate(771 383) translate(.661) translate(51.759 65.902)"/>
                        <path fill="#DBDAD9" d="M6.405 26.868c-.062-.302-.415-.94-.46-1.141-.008-.038-.696.278-1.596.278-1.023 0-1.603-.166-1.659-.146-.214.079-.866 1.684-.743 2.34.016.077 1.37 8.598 1.394 8.658.085.213.595.047.813.01.215-.037.493-.102.465-.34-.008-.067-.52-6.84-.177-7.07.268.501 1.26 3.21 1.294 3.505.038.65-.163 3.381-.12 3.496.106.275.96.333 1.235.118.067-.052.348-2.428.261-4.108-.117-2.222-.54-4.92-.707-5.6" transform="translate(-771 -383) translate(771 383) translate(.661) translate(51.759 65.902)"/>
                        <path fill="#F5BC8E" d="M2.588 27.032c-.022-.172-.265-.374-.346-.526-.015-.117.001-.036-.126-.071-.144-.04-.342.05-.37.21-.032.187-.034.37.015.556.052.195.208.54.403.41.382-.255.45-.358.424-.58M6.62 26.254c-.093-.102-.154-.133-.29-.095-.135.037-.505.577-.486.682.029.157.242.455.413.455.246 0 .345-.182.425-.388.078-.203.096-.482-.061-.654" transform="translate(-771 -383) translate(771 383) translate(.661) translate(51.759 65.902)"/>
                        <path fill="#DBDAD9" d="M6.792 20.616c-.25-.305-.611-.638-1.273-.792-.61-.142-1.433-.145-1.925-.015-.388.102-.918.315-1.418.857-.605.655-1.203 2.578-1.38 3.265-.167.653.64 2.318.774 2.744.087.278.737.06.755-.082.01-.09-.552-1.838-.549-2.447v-.006c.02-.063.538-.862.538-.862-.01.493-.155 2.208.038 2.445.26.32.7-.091.96-.249.239-.145.529-.263.812-.2.294.066.533.246.84.295.495.08 1.122.173 1.267-.06.528-.849.325-2.61.336-2.58.069.2.506 1.048.486 1.163-.024.135-.738 1.49-.782 2.02-.013.162.475.53.56.44.32-.333 1.29-1.688 1.162-2.849-.108-.971-.968-2.802-1.201-3.087" transform="translate(-771 -383) translate(771 383) translate(.661) translate(51.759 65.902)"/>
                        <path fill="#F5BC8E" d="M5.52 19.824c-.291-.093-.624-.194-.954-.197-.342-.003-.683.096-.973.182.223.248.669.347.957.37.377.03.749-.07.97-.355" transform="translate(-771 -383) translate(771 383) translate(.661) translate(51.759 65.902)"/>
                        <path fill="#DB7D8F" d="M2.632 20.292c.235 1.395-.4 2.783-.561 4.155-.037.308.165.905.224.605.295-1.484 1.1-3.521.77-5.05-.003-.013-.444.223-.433.29" transform="translate(-771 -383) translate(771 383) translate(.661) translate(51.759 65.902)"/>
                        <path fill="#2D304D" d="M5.705 17.39c-.038-.058-.11-.07-.174-.056-.021-.012-.043-.022-.066-.031-.035-.013-.07-.02-.104-.02-.021-.004-.041-.006-.063-.006-.153 0-.289.076-.37.202-.136-.065-.285-.077-.43-.038-.094-.137-.25-.21-.417-.19-.021.002-.042.006-.062.011-.032.006-.063.017-.096.032l-.014-.005c-.071-.02-.157.005-.194.073-.03.056-.028.125.01.174-.015.052-.018.107-.007.162.026.133.115.228.229.28.023.013.133.044.247.041.101-.009.2-.047.274-.12.082-.08.111-.199.091-.31.105-.025.213-.008.31.041-.021.125.02.26.122.338.081.063.184.09.287.085.113-.01.218-.054.24-.07.106-.064.184-.17.194-.306.003-.044-.003-.089-.015-.13.032-.046.045-.1.008-.157" transform="translate(-771 -383) translate(771 383) translate(.661) translate(51.759 65.902)"/>
                    </g>
                </g>
            </g>
        </g>
    </g>
</svg>
