<svg height="16" viewBox="0 0 18 16" width="18" xmlns="http://www.w3.org/2000/svg"><g fill="none"><rect height="10.365741" rx="2" stroke="#212121" width="16.261574" x="1.168981" y=".5"/><path d="m3.305556 2.8h9.5" stroke="#212121" stroke-linecap="round"/><g transform="matrix(.93969262 -.34202014 .34202014 .93969262 3.42613 6.246614)"><path d="m1.77030666 6.05008573c.0644796.68558347-.3229238 1.53646833-1.12858209 2.61079931 1.53249029.380365 2.92048112.56975469 4.1630558.56975469 1.25424589 0 2.68493211-.19294663 4.29059998-.58050966.0000051-.00000363.00000364.0000051-.00001451-.00002035-.69719909-.97766881-1.09930957-1.79709529-1.19822526-2.48170535-.02038437-.14108318-.02166335-.23660794-.01642754-.53885004.01457768-.84150889-.05949535-1.42671091-.40191436-2.36951749-.45187729-1.24418586-1.41693264-1.78697287-2.67401831-1.78697287-1.26742002 0-2.3672919.63795928-2.76158791 1.88989285-.27813258.88310181-.3416715 1.7512447-.28697434 2.52062319.004298.0604564.00811146.10391809.01408854.16650572z" fill="#fff" stroke="#ff1744"/><g stroke="#212121"><path d="m1.77030666 6.05008573c.0644796.68558347-.3229238 1.53646833-1.12858209 2.61079931 1.53249029.380365 2.92048112.56975469 4.1630558.56975469 1.25424589 0 2.68493211-.19294663 4.29059998-.58050966.0000051-.00000363.00000364.0000051-.00001451-.00002035-.69719909-.97766881-1.09930957-1.79709529-1.19822526-2.48170535-.02038437-.14108318-.02166335-.23660794-.01642754-.53885004.01457768-.84150889-.05949535-1.42671091-.40191436-2.36951749-.45187729-1.24418586-1.41693264-1.78697287-2.67401831-1.78697287-1.26742002 0-2.3672919.63795928-2.76158791 1.88989285-.27813258.88310181-.3416715 1.7512447-.28697434 2.52062319.004298.0604564.00811146.10391809.01408854.16650572z"/><path d="m5.83838384 1.94612795c0-.64489008 0-1.94612795-.97306397-1.94612795-.97306398 0-.97306398 1.30123787-.97306398 1.94612795"/><path d="m6.81144781 11.1047087c0-.4256706-.53852425-1.56868176-1.94612794-1.56868176-1.4076037 0-1.94612795 1.14301116-1.94612795 1.56868176" transform="matrix(1 0 0 -1 0 20.640736)"/></g></g></g></svg>