<svg xmlns="http://www.w3.org/2000/svg" width="18" height="16" viewBox="0 0 18 16">
    <g fill="none" fill-rule="nonzero" stroke="#FF1744">
        <rect width="16.262" height="10.366" x="1.169" y=".5" rx="2"/>
        <path stroke-linecap="round" d="M3.306 2.8h9.5"/>
        <path fill="#FFF" d="M7.159 11.326c.295.623.222 1.555-.168 2.84 1.57-.167 2.94-.464 4.107-.889 1.179-.429 2.457-1.1 3.834-2.013-.99-.68-1.648-1.312-1.975-1.922-.068-.126-.102-.215-.2-.5-.274-.796-.544-1.321-1.188-2.09-.85-1.014-1.943-1.194-3.124-.764-1.191.433-2.006 1.409-1.949 2.72a6.796 6.796 0 0 0 .663 2.618z"/>
        <path d="M7.159 11.326c.295.623.222 1.555-.168 2.84 1.57-.167 2.94-.464 4.107-.889 1.179-.429 2.457-1.1 3.834-2.013-.99-.68-1.648-1.312-1.975-1.922-.068-.126-.102-.215-.2-.5-.274-.796-.544-1.321-1.188-2.09-.85-1.014-1.943-1.194-3.124-.764-1.191.433-2.006 1.409-1.949 2.72a6.796 6.796 0 0 0 .663 2.618z"/>
        <path d="M9.578 6.079c-.22-.606-.666-1.83-1.58-1.496-.914.332-.47 1.555-.249 2.161M13.088 12.878c.146.4.03 1.658-1.292 2.14-1.323.481-2.22-.409-2.365-.809"/>
    </g>
</svg>
