<svg xmlns="http://www.w3.org/2000/svg" width="34" height="34" viewBox="0 0 34 34">
    <g fill="none" fill-rule="evenodd">
        <path d="M0 0H34V34H0z"/>
        <g stroke="#4A4A4A" stroke-linecap="round" stroke-linejoin="round">
            <path d="M11.875 11.875c0 1.38-1.12 2.5-2.5 2.5s-2.5-1.12-2.5-2.5 1.12-2.5 2.5-2.5 2.5 1.12 2.5 2.5zM21.875 19.375c0 1.38-1.12 2.5-2.5 2.5s-2.5-1.12-2.5-2.5 1.12-2.5 2.5-2.5 2.5 1.12 2.5 2.5zM20.625 8.125L9.375 21.875" transform="translate(2 2)"/>
            <path d="M29.375 15c0 7.94-6.436 14.375-14.375 14.375S.625 22.94.625 15 7.061.625 15 .625 29.375 7.06 29.375 15z" transform="translate(2 2)"/>
        </g>
    </g>
</svg>
