<svg xmlns="http://www.w3.org/2000/svg" xmlns:xlink="http://www.w3.org/1999/xlink" width="155" height="135" viewBox="0 0 155 135">
    <defs>
        <path id="8pv3e2gobb" d="M73.556 9.96c-17.63 6.113-33.967 12.227-45.541 8.489C14.888 14.21 4.2 23.544.989 37.154c-3.518 14.91 1.94 34.954 22.998 47.905 98.275 60.447 155.443-44.837 120.685-74.656C136.064 3.018 126.249.33 115.938.33c-13.801 0-28.492 4.815-42.382 9.63"/>
        <path id="2nqtxx4vad" d="M28.015 18.449C12.138 21.846 3.13 28.08.989 37.154c-3.518 14.91 1.94 34.954 22.998 47.905 98.275 60.447 155.443-44.837 120.685-74.656C136.064 3.018 126.249.33 115.938.33c-13.801 0-28.492 4.815-42.382 9.63-11.753 4.076-26.934 6.905-45.541 8.489z"/>
        <linearGradient id="o2n4trrsva" x1="50%" x2="50%" y1="0%" y2="100%">
            <stop offset="0%" stop-color="#F9FCFE"/>
            <stop offset="100%" stop-color="#DDE8FF" stop-opacity=".9"/>
        </linearGradient>
    </defs>
    <g fill="none" fill-rule="evenodd">
        <g>
            <g transform="translate(-791 -383) translate(791 383)">
                <ellipse cx="90.5" cy="127.5" fill="#D8D8D8" rx="26.5" ry="1.5"/>
                <path fill="#D8D8D8" d="M107.5 133.5c7.456 0 13.5-.948 13.5-1.5s-6.044-1-13.5-1-13.5.448-13.5 1 6.044 1.5 13.5 1.5zM113.5 125.5c7.456 0 13.5-.948 13.5-1.5s-6.044-1-13.5-1-13.5.448-13.5 1 6.044 1.5 13.5 1.5zM59.5 121.5c7.456 0 13.5-.948 13.5-1.5s-6.044-1-13.5-1-13.5.448-13.5 1 6.044 1.5 13.5 1.5zM56.5 125.5c4.694 0 8.5-.948 8.5-1.5s-3.806-1-8.5-1-8.5.448-8.5 1 3.806 1.5 8.5 1.5zM107.5 103.5c7.456 0 13.5-.948 13.5-1.5s-6.044-1-13.5-1-13.5.448-13.5 1 6.044 1.5 13.5 1.5zM107.5 93.5c7.456 0 13.5-.948 13.5-1.5s-6.044-1-13.5-1-13.5.448-13.5 1 6.044 1.5 13.5 1.5z"/>
                <path fill="url(#o2n4trrsva)" d="M28.014 19.59C17.5 18.5 4.2 24.686.99 38.295c-3.517 14.91 1.94 34.954 22.998 47.906 98.274 60.446 155.443-44.838 120.685-74.657-34.757-29.817-92.296 10.571-116.658 8.046z"/>
                <g>
                    <g transform="translate(0 1.141)">
                        <mask id="v9c16tu6ac" fill="#fff">
                            <use xlink:href="#8pv3e2gobb"/>
                        </mask>
                        <path fill="#F0F7FC" d="M122.343 143.026c-.592-1.246-1.08-2.543-1.656-3.796-.999-2.172-2.156-5.107-4.245-6.447-.422-.27-1.171.078-.89.648l.396.798c-.358-.125-.774.143-.755.591.017.42.187.837.416 1.239-.257-.114-.527-.193-.813-.215-.326-.024-.548.16-.615.4-.467-.03-1.136-1.126-.679-.74 2.205 1.855 8.08 10.024 8.42 10.284.56.428 1.031.36 1.278-.336.301-.845-.528-1.733-.857-2.426" mask="url(#v9c16tu6ac)"/>
                    </g>
                    <g transform="translate(0 1.141)">
                        <mask id="2taw1nlw2e" fill="#fff">
                            <use xlink:href="#2nqtxx4vad"/>
                        </mask>
                        <path fill="#F0F7FC" d="M153.975 121.167c-1.917-1.427-4.34-3.449-6.815-3.624-.5-.035-.99.63-.47.995.242.171.486.34.729.511-.373.062-.61.496-.38.88.218.36.566.646.96.889-.281.023-.555.083-.816.2-.299.135-.405.404-.35.646-.423.197-1.536-.443-.95-.324 2.825.572 11.896 4.926 12.32 4.992.696.106 1.076-.18.96-.908-.141-.885-1.295-1.268-1.915-1.719-1.117-.81-2.166-1.714-3.273-2.538z" mask="url(#2taw1nlw2e)"/>
                    </g>
                </g>
                <g>
                    <path fill="#1C2A67" d="M68.983 35.98c-.104 0-.21-.036-.295-.11-3.254-2.854-8.937-7.292-10.37-7.115-.136.207-.45.277-.656.141-.207-.136-.299-.403-.163-.61.107-.162.314-.367.698-.42 2.253-.284 9.626 6.051 11.083 7.328.185.164.203.447.041.634-.089.1-.213.152-.338.152" transform="translate(35.108 10.078)"/>
                    <path fill="#F5A388" d="M32.738 94.448s.933 4.668.776 9.002c-.296 8.205.057 11.49-4.797 12.96-3.235.981-.357 1.755 1.432 1.28 3.937-1.047 5.742-.12 6.026-1.829.283-1.709-.945-3.397 2.087-12.463 2.235-6.684 1.092-9.35-.396-9.556-1.488-.206-5.242-1.117-5.128.606M47.992 95.456s1.93 4.475 2.404 8.785c.898 8.162 1.724 11.36-2.865 13.52-3.06 1.44-.1 1.787 1.602 1.057 3.743-1.606 5.664-.95 5.696-2.682.033-1.733-1.427-3.225.257-12.635 1.243-6.937-.606-9.399-2.108-9.387-1.502.011-5.349-.346-4.986 1.342" transform="translate(35.108 10.078)"/>
                    <path fill="#E8957A" d="M41.98 19.364c-.598.868-1.504-.682-.384-3.295 1.025-2.392-1.444-1.694-2.24 3.205-1.008 6.197-15.77-1.519-16.166 5.882-.397 7.401 15.427 11.226 16.728 9.514 1.301-1.712 2.984-2.63-5.144-5.759-3.987-1.535-7.969-2.543-5.988-3.192 2.594-.85 8.052.81 13.759-5.853 1.092-1.274.854-2.557-.564-.502" transform="translate(35.108 10.078)"/>
                    <path fill="#FF8DAD" d="M36.766 34.973c.05 1.3.346 2.347-.825 5.139-1.171 2.79.79 2.429 2.005 5.4 1.215 2.973-10.522 32.358-7.85 57.617 0 0 10.934 2.132 11.43.508.495-1.624 3.244-36.571 3.244-36.571s-.32 35.354 1.922 36.5c2.242 1.148 11.957 1.43 12.043-.512.086-1.942-1.292-33.256-4.422-49.22-1.397-7.124-2.894-9.265-2.513-11.97 1.326-9.421.417-10.679-1.233-10.98-1.77-.322-6.974.088-10.872.03-1.518-.023-2.785 1.16-2.883 2.675-.036.556-.057 1.065-.046 1.384" transform="translate(35.108 10.078)"/>
                    <path fill="#F5A388" d="M48.506 22.095c-.117.736-.216 1.4-.297 1.983-.591 4.27-.287 5.014-.17 6.682 0 .027-5.426.153-5.426.153.17-.126.968-.772.995-2.162.036-1.534-2.619-.96-3.023-2.197-.098-.306-.072-.647-.098-1.014-.019-.341-.072-.691-.323-1.041-.126-.18-.305-.35-.548-.52-.502-.35-.143-.735.234-1.525.296-.583.61-1.39.583-2.565v-.126c-.027-1.57.125-2.834 1.202-3.785.502-.449 1.21-.834 2.197-1.14 3.149-.986 5.651 1.167 4.674 7.257" transform="translate(35.108 10.078)"/>
                    <path fill="#1C2A67" d="M39.195 19.493s-.898-1.66.123-2.763c1.02-1.105 1.812-.806 2.29-2.306s1.702-1.557 3.028-.937c1.326.62 2.544-.486 3.883.434 1.339.92.583 1.947 1.702 2.844 1.12.897 1.553 2.103.28 3.978-.944 1.39-.647 2.852-1.51 3.225-.865.373-2.377-.105-2.575-1.536-.199-1.43-1.869-.178-2.471-1.644-1.176-2.857-3.889-.06-4.75-1.295" transform="translate(35.108 10.078)"/>
                    <path fill="#F5A388" d="M49.807 17.873c.519.917 1.558-.546.675-3.248-.81-2.474 1.588-1.56 1.947 3.39.454 6.263 16 1.731 15.739 9.139-.262 7.407-15.852 9.888-17.475 8.478-1.354-1.176-1.455-4.763-.126-4.748 5.179.062 13.275-3.208 11.485-4.274-2.562-1.527-7.759-1.144-12.852-8.287-.974-1.366-.624-2.623.607-.45" transform="translate(35.108 10.078)"/>
                    <path fill="#1C2A67" d="M36.22 115.12s-2.11.708-3.635 1.026c-1.524.318-1.34-.99-1.976-.578-.634.411-3.562 1.021-3.419 1.737.168.842 2.425.66 5.578-.027 2.508-.546 3.56.084 3.452-2.158M54.803 115.53s-1.993.99-3.46 1.512c-1.467.522-1.463-.8-2.036-.305-.573.495-3.391 1.497-3.152 2.188.281.81 2.492.322 5.523-.787 2.41-.883 3.538-.402 3.125-2.609" transform="translate(35.108 10.078)"/>
                    <path fill="#DA1C5C" d="M48.498 10.197c-.07 0-.14-.016-.205-.05-.221-.114-.307-.385-.193-.604.877-1.692 1.816-3.374 2.794-4.998.127-.212.404-.28.615-.153.212.128.28.404.154.616-.968 1.607-1.899 3.272-2.766 4.947-.08.154-.236.242-.399.242M45.211 8.96c-.258-.005-.454-.21-.449-.458.058-2.625.244-5.283.552-7.898.027-.246.245-.426.497-.393.246.029.422.252.393.498-.305 2.587-.488 5.215-.545 7.814-.005.243-.204.438-.448.438M42.298 9.795c-.197 0-.378-.13-.432-.33l-1.591-5.814c-.065-.238.075-.485.314-.55.243-.063.486.076.551.314l1.591 5.813c.066.24-.075.486-.315.552-.039.01-.079.015-.118.015" transform="translate(35.108 10.078)"/>
                    <path fill="#1C2A67" d="M68.772 86.038h8.553V83.94c0-1.729-1.407-3.135-3.135-3.135h-2.283c-1.729 0-3.135 1.406-3.135 3.135v2.098zm9.45.897H67.875V83.94c0-2.223 1.808-4.032 4.032-4.032h2.283c2.223 0 4.032 1.809 4.032 4.032v2.995z" transform="translate(35.108 10.078)"/>
                    <path fill="#477BDE" d="M85.189 115.451H60.907c-.292 0-.53-.237-.53-.529V86.38c0-.292.238-.53.53-.53h24.282c.292 0 .529.238.529.53v28.542c0 .292-.237.53-.53.53" transform="translate(35.108 10.078)"/>
                    <path fill="#1C2A67" d="M8.805 81.55h8.552v-2.097c0-1.728-1.406-3.134-3.134-3.134H11.94c-1.728 0-3.135 1.406-3.135 3.134v2.098zm9.45.897H7.907v-2.994c0-2.223 1.809-4.031 4.032-4.031h2.283c2.223 0 4.031 1.808 4.031 4.03v2.995z" transform="translate(35.108 10.078)"/>
                    <path fill="#1C2A67" d="M25.222 110.964H.94c-.293 0-.53-.237-.53-.529V81.893c0-.292.237-.53.53-.53h24.28c.293 0 .53.238.53.53v28.542c0 .292-.237.53-.53.53" transform="translate(35.108 10.078)"/>
                    <path fill="#DA1C5C" d="M59.251 99.154h8.552v-2.098c0-1.728-1.407-3.134-3.135-3.134h-2.283c-1.728 0-3.134 1.406-3.134 3.134v2.098zm9.45.897H58.353v-2.995c0-2.223 1.808-4.031 4.031-4.031h2.283c2.223 0 4.032 1.808 4.032 4.031v2.995z" transform="translate(35.108 10.078)"/>
                    <path fill="#DA1C5C" d="M73.95 123.372H53.104c-.306 0-.553-.246-.553-.552V99.482c0-.305.247-.553.553-.553H73.95c.305 0 .552.248.552.553v23.338c0 .306-.247.552-.552.552" transform="translate(35.108 10.078)"/>
                    <path fill="#1C2A67" d="M16.655 91.007h3.828v-3.32c0-1.055-.86-1.913-1.915-1.913-1.055 0-1.913.858-1.913 1.913v3.32zm4.725.897h-5.622v-4.217c0-1.55 1.26-2.81 2.81-2.81s2.812 1.26 2.812 2.81v4.217z" transform="translate(35.108 10.078)"/>
                    <path fill="#8DC6FF" d="M23.666 115.225H13.471c-.215 0-.39-.175-.39-.39V91.172c0-.215.175-.39.39-.39h10.195c.216 0 .39.175.39.39v23.663c0 .215-.174.39-.39.39" transform="translate(35.108 10.078)"/>
                    <path fill="#1C2A67" d="M62.915 40.79c-.15 0-.298-.075-.382-.213-1.486-2.419-6.238-10.453-5.034-12.29.135-.208.413-.266.621-.13.207.137.265.414.129.621-.609.93 2.146 6.604 5.048 11.33.13.21.064.487-.147.616-.074.045-.154.067-.235.067" transform="translate(35.108 10.078)"/>
                    <path fill="#477BDE" d="M65.176 53.007l-8.172-10.08c-.136-.168-.11-.415.057-.55l14.251-11.554c.168-.136.414-.11.55.058l8.173 10.08c.136.168.11.414-.058.55l-14.25 11.554c-.169.136-.415.11-.551-.058" transform="translate(35.108 10.078)"/>
                    <path fill="#FFF" d="M41.635 24.365c-.036.313-.216 1.13-1.148 1.175-.018-.341-.073-.69-.323-1.04.403-.019.896-.072 1.363-.216.054-.018.108.018.108.08" transform="translate(35.108 10.078)"/>
                </g>
            </g>
        </g>
    </g>
</svg>
