<svg xmlns="http://www.w3.org/2000/svg" xmlns:xlink="http://www.w3.org/1999/xlink" width="256" height="99" viewBox="0 0 256 99">
    <defs>
        <path id="prefix__a" d="M2.83 4.232c.07.854-.356 1.535-.82 2.188-.372.526-.8 1.014-1.315 1.655.904-.374 1.6-.801 2.365-1.074 1.088-.387 2.086-.276 3.041.345.65.423 1.247.91 1.82 1.427.236-.095-.014-.219.022-.325-.21-.414-.446-.82-.624-1.246-.302-.726-.612-1.458-.426-2.282.17-1.41 1.276-2.28 2.091-3.453-1.331.6-2.463 1.44-3.893 1.296C3.636 2.615 2.735 1.495 1.55.659c.555 1.235 1.308 2.262 1.28 3.573z"/>
    </defs>
    <g fill="none" fill-rule="evenodd" transform="translate(-23 -29)">
        <path fill="#AF1045" d="M277.844 70.452c-23.687-5.468-6.884-4.215 10.867-22.322 17.75-18.107-36.637-51.675-77.782-26.075-39.879 24.81-29.748 50.967-8.183 63.41 25.155 11.721-87.667 58.823 14.178 57.988 101.844-.835 84.607-67.532 60.92-73z" opacity=".05"/>
        <g opacity=".5" transform="rotate(17 -209.269 810.15)">
            <mask id="prefix__b" fill="#fff">
                <use xlink:href="#prefix__a"/>
            </mask>
            <path fill="#CC1150" d="M5.921 -4.559L14.05 5.646 3.633 13.944 -4.497 3.74z" mask="url(#prefix__b)"/>
        </g>
        <path fill="#FFF" d="M229.863 37.994c1.117 1.267 2.399 2.224 2.841 3.783.392.986.127 1.938-.196 2.87-.26.75-.6 1.472-.987 2.406.956-.753 1.64-1.494 2.463-2.079 1.172-.83 2.418-1.042 3.793-.635.936.276 1.833.648 2.714 1.064.25-.195-.096-.255-.092-.393-.404-.419-.835-.816-1.206-1.26-.629-.753-1.266-1.513-1.342-2.551-.306-1.727.713-3.133 1.269-4.799-1.388 1.164-2.446 2.548-4.224 2.866-1.808.323-3.3-.692-5.033-1.272z"/>
        <circle cx="52" cy="41" r="4" fill="#FFECF3"/>
        <path fill="#E04278" fill-opacity=".25" d="M235.076 60.12c1.42 2.155 3.156 3.875 3.493 6.326.383 1.576-.22 2.959-.906 4.298-.552 1.08-1.22 2.1-2.004 3.431 1.605-.937 2.796-1.911 4.166-2.62 1.949-1.009 3.879-1.063 5.872-.156 1.357.617 2.635 1.37 3.878 2.186.42-.241-.091-.405-.055-.614-.523-.719-1.09-1.412-1.556-2.162-.791-1.271-1.594-2.557-1.488-4.143-.096-2.676 1.745-4.587 2.939-6.988-2.347 1.465-4.241 3.334-6.998 3.437-2.802.104-4.844-1.748-7.341-2.994z" opacity=".4"/>
        <path fill="#FFBDD4" d="M19.834 81.374c1.394 2.117 3.1 3.806 3.431 6.213.377 1.547-.217 2.906-.89 4.221-.542 1.06-1.198 2.062-1.968 3.37 1.576-.92 2.746-1.877 4.092-2.574 1.914-.99 3.81-1.044 5.766-.152 1.333.606 2.588 1.345 3.81 2.146.412-.237-.09-.398-.055-.602-.513-.706-1.07-1.387-1.528-2.124-.777-1.249-1.566-2.512-1.462-4.07-.093-2.627 1.714-4.504 2.887-6.862-2.305 1.44-4.165 3.274-6.873 3.375-2.752.103-4.758-1.717-7.21-2.94z"/>
        <circle cx="29.5" cy="57.5" r="2.5" fill="#DA1C5C" opacity=".3"/>
        <circle cx="48.5" cy="38.5" r="1.5" fill="#DA1C5C"/>
    </g>
</svg>
