<svg xmlns="http://www.w3.org/2000/svg" width="32" height="26" viewBox="0 0 32 26">
    <g fill="none" fill-rule="evenodd">
        <path d="M0 0H34V34H0z" transform="translate(-2 -4)"/>
        <g stroke="#4A4A4A" stroke-linecap="round" stroke-linejoin="round" stroke-width=".98">
            <path d="M29.412 17.647v6.536c0 .719-.588 1.307-1.307 1.307H3.268M3.268 5.882h24.837c.719 0 1.307.589 1.307 1.308v5.228M.654 5.882L.654 7.19.654 22.876M3.268.654C1.83.654.654 1.83.654 3.268S1.83 5.882 3.268 5.882M.654 7.19L.654 3.268M25.49 5.882V1.961c0-.723-.584-1.307-1.307-1.307H3.268M.654 22.876c0 1.438 1.176 2.614 2.614 2.614M21.569 17.647c-1.438 0-2.615-1.176-2.615-2.614s1.177-2.615 2.615-2.615" transform="translate(-2 -4) translate(2 4)"/>
            <path d="M21.569 17.647h7.843c.723 0 1.307-.584 1.307-1.307v-2.615c0-.722-.584-1.307-1.307-1.307h-7.843" transform="translate(-2 -4) translate(2 4)"/>
        </g>
    </g>
</svg>
