<svg xmlns="http://www.w3.org/2000/svg" width="34" height="34" viewBox="0 0 34 34">
    <g fill="none" fill-rule="evenodd">
        <path d="M0 0H34V34H0z"/>
        <g stroke="#DA1C5C" stroke-linecap="round" stroke-linejoin="round" stroke-width=".98">
            <path d="M28.493 16.462v6.332c0 .697-.57 1.266-1.267 1.266H3.166M3.166 5.065h24.06c.697 0 1.267.57 1.267 1.267v5.065M.633 5.065L.633 6.332.633 21.528M3.166 0C1.773 0 .633 1.14.633 2.533s1.14 2.532 2.533 2.532M.633 6.332L.633 2.533M24.694 5.065V1.266c0-.7-.566-1.266-1.267-1.266H3.166M.633 21.528c0 1.393 1.14 2.532 2.533 2.532M20.895 16.462c-1.393 0-2.533-1.14-2.533-2.532 0-1.393 1.14-2.533 2.533-2.533" transform="translate(2.28 4.113)"/>
            <path d="M20.895 16.462h7.598c.7 0 1.266-.566 1.266-1.266v-2.533c0-.7-.566-1.266-1.266-1.266h-7.598" transform="translate(2.28 4.113)"/>
        </g>
    </g>
</svg>
