<?xml version="1.0" encoding="UTF-8"?>
<svg width="28px" height="26px" viewBox="0 0 28 26" version="1.1" xmlns="http://www.w3.org/2000/svg" xmlns:xlink="http://www.w3.org/1999/xlink">
    <!-- Generator: Sketch 55.2 (78181) - https://sketchapp.com -->
    <title>noun_Alert_1014403</title>
    <desc>Created with Sketch.</desc>
    <g id="Retry-payment" stroke="none" stroke-width="1" fill="none" fill-rule="evenodd">
        <g id="Order-history-Payment-Time-out-" transform="translate(-30.000000, -582.000000)" fill="#FF1744" fill-rule="nonzero">
            <g id="Group-10" transform="translate(10.000000, 489.000000)">
                <g id="Group-7" transform="translate(20.000000, 88.000000)">
                    <g id="Group-2">
                        <g id="noun_Alert_1014403" transform="translate(0.000000, 5.000000)">
                            <path d="M4.12631579,25.2730435 L23.8368421,25.2730435 C25.2736842,25.2730435 26.5263158,24.5426087 27.2631579,23.3373913 C27.9631579,22.132174 28,20.6713044 27.2631579,19.4295653 L17.3894736,2.26434782 C16.6894736,1.0226087 15.4,0.292173913 13.9631579,0.292173913 C12.5263158,0.292173913 11.2368421,1.0226087 10.5368421,2.26434782 L0.663157895,19.4295653 C-0.0368421053,20.6713044 -0.0368421053,22.0956522 0.663157895,23.3373913 C1.43684211,24.5426087 2.72631579,25.2730435 4.12631579,25.2730435 Z M1.65789474,19.9773913 L11.531579,2.81217391 C12.0473684,1.93565218 12.968421,1.38782609 14,1.38782609 C15.0315789,1.38782609 15.9526315,1.93565218 16.4684211,2.81217391 L26.3421053,19.9773913 C26.8578947,20.8539131 26.8578947,21.9130435 26.3421053,22.7895653 C25.8263158,23.6660869 24.9052632,24.1773913 23.8736842,24.1773913 L4.12631579,24.1773913 C3.09473685,24.1773913 2.17368421,23.6660869 1.65789474,22.7895653 C1.14210526,21.9130435 1.14210526,20.8539131 1.65789474,19.9773913 Z" id="Shape"></path>
                            <path d="M13.8157895,16.252174 C14.1105264,16.252174 14.3684211,15.9965218 14.3684211,15.7043478 L14.3684211,8.7652174 C14.3684211,8.47304347 14.1105264,8.21739131 13.8157895,8.21739131 C13.5210526,8.21739131 13.2631579,8.47304347 13.2631579,8.7652174 L13.2631579,15.7043478 C13.2631579,15.9965218 13.5210526,16.252174 13.8157895,16.252174 Z" id="Shape"></path>
                            <path d="M13.8157895,20.2695653 C14.1105264,20.2695653 14.3684211,20.0139131 14.3684211,19.7217391 L14.3684211,18.6260869 C14.3684211,18.3339131 14.1105264,18.0782609 13.8157895,18.0782609 C13.5210526,18.0782609 13.2631579,18.3339131 13.2631579,18.6260869 L13.2631579,19.7217391 C13.2631579,20.0139131 13.5210526,20.2695653 13.8157895,20.2695653 Z" id="Shape"></path>
                        </g>
                    </g>
                </g>
            </g>
        </g>
    </g>
</svg>