<svg xmlns="http://www.w3.org/2000/svg" width="22" height="23" viewBox="0 0 22 23">
    <g>
        <path d="M21.16 8.855c0-1.456-.568-2.825-1.597-3.854l-3.405-3.405C15.13.566 13.76 0 12.305 0H6.163c-.185 0-.335.15-.335.335 0 .185.15.335.335.335h5.388c1.4 0 2.537 1.138 2.537 2.537v1.748c0 1.167.95 2.116 2.116 2.116h1.748c1.396 0 2.533 1.133 2.537 2.528v11.15c0 .797-.648 1.446-1.445 1.446H4.414c-.66 0-1.23-.44-1.398-1.073l-.014-2.066h10.863c1.475 0 2.674-1.2 2.674-2.674v-.724c0-.185-.15-.335-.335-.335-.185 0-.335.15-.335.335v.724c0 1.105-.899 2.004-2.004 2.004H1.858c-.65 0-1.18-.53-1.18-1.18v-7.25c.321.267.732.427 1.18.427h12.007c1.105 0 2.004.9 2.004 2.004v1.93c0 .186.15.336.335.336.185 0 .335-.15.335-.335v-1.93c0-1.475-1.2-2.675-2.674-2.675H2.968V2.116c0-.797.648-1.446 1.446-1.446h.41c.184 0 .334-.15.334-.335C5.158.15 5.008 0 4.823 0h-.41C3.248 0 2.299.95 2.299 2.116v4.568h-.44c-1.02 0-1.85.83-1.85 1.85v8.672c0 1.02.83 1.85 1.85 1.85h.474l.015 2.11c0 .026.003.052.009.076.228.956 1.074 1.623 2.058 1.623h14.63c1.166 0 2.115-.95 2.115-2.116V8.855zM1.857 7.353h.44v2.36h-.44c-.65 0-1.18-.53-1.18-1.18 0-.65.53-1.18 1.18-1.18zm16.094-.952h-1.748c-.797 0-1.446-.649-1.446-1.446V3.207c0-.905-.377-1.724-.982-2.307.712.229 1.364.626 1.909 1.17l3.404 3.405c.545.544.941 1.196 1.17 1.908-.583-.605-1.402-.982-2.307-.982z"/>
        <path d="M13.498 12.583c.185 0 .335-.15.335-.334 0-.185-.15-.335-.335-.335h-1.727c-.185 0-.335.15-.335.335v4.26c0 .185.15.335.335.335.185 0 .335-.15.335-.335v-1.836h1.255c.185 0 .335-.15.335-.334 0-.185-.15-.335-.335-.335h-1.255v-1.42h1.392zM7.38 11.914c-.09 0-.175.035-.237.098-.063.063-.099.148-.098.237v4.191c0 .026.003.051.009.076.001.087.037.17.098.23.063.063.148.098.236.098h.001c.037 0 .896-.003 1.238-.01.595-.01 1.124-.279 1.49-.757.339-.442.525-1.044.525-1.698 0-1.475-.826-2.465-2.056-2.465H7.38zm2.592 2.465c0 1.038-.558 1.772-1.356 1.786-.204.003-.605.006-.894.008l-.004-1.799-.003-1.79h.871c.67 0 1.386.471 1.386 1.795zM3.733 11.882c-.09 0-.175.036-.238.099-.062.062-.097.147-.097.235v4.293c0 .185.15.335.335.335.185 0 .335-.15.335-.335v-1.531l.86-.004c.865 0 1.57-.693 1.57-1.546 0-.852-.705-1.546-1.57-1.546H3.733zm2.095 1.546c0 .475-.412.877-.9.877l-.854.003c-.002-.285-.003-.68-.003-.88l-.002-.876h.859c.488 0 .9.401.9.876z"/>
    </g>
</svg>
