<svg xmlns="http://www.w3.org/2000/svg" width="42" height="44" viewBox="0 0 42 44">
    <g fill="none" fill-rule="evenodd">
        <g>
            <g>
                <g>
                    <g>
                        <g>
                            <g>
                                <g>
                                    <path fill="#FBA5C1" d="M22.439 23.278l19.004-11.443c.094-.057.217-.027.274.068.019.031.029.067.029.103v18.4c0 .07-.037.135-.097.171L22.645 42.02c-.095.057-.217.027-.274-.068-.02-.031-.03-.067-.03-.103v-18.4c0-.07.038-.135.098-.171z" transform="translate(-493 -539) translate(448 495) translate(16 16) translate(29 28)"/>
                                    <path fill="#FBA5C1" d="M1.606 23.355l19.602-10.653c.097-.052.219-.016.271.08.016.03.025.063.025.096v18.2c0 .074-.04.142-.106.176L1.865 41.764c-.097.051-.218.015-.27-.082-.016-.03-.024-.061-.024-.094L1.5 23.532c0-.074.04-.142.105-.177z" transform="translate(-493 -539) translate(448 495) translate(16 16) translate(29 28) matrix(-1 0 0 1 23.005 0)"/>
                                    <path fill="#FBA5C1" d="M1.902 11.13L20.572.43c.057-.034.127-.036.187-.007l20.592 10.07c.099.048.14.168.091.267-.017.035-.043.064-.077.084L21.917 22.429c-.061.037-.137.038-.2.004L1.906 11.479c-.097-.053-.132-.175-.079-.271.018-.032.044-.059.076-.077z" transform="translate(-493 -539) translate(448 495) translate(16 16) translate(29 28)"/>
                                    <path fill="#FFF" d="M7.473 14.49L19.684 7.203 25.733 10.387 13.664 17.907zM6.539 24.37L6.519 15.35 12.711 18.709 12.755 27.758z" transform="translate(-493 -539) translate(448 495) translate(16 16) translate(29 28)"/>
                                </g>
                            </g>
                        </g>
                    </g>
                </g>
            </g>
        </g>
    </g>
</svg>
