<svg xmlns="http://www.w3.org/2000/svg" xmlns:xlink="http://www.w3.org/1999/xlink" width="256" height="99" viewBox="0 0 256 99">
    <defs>
        <filter id="prefix__b" width="110.5%" height="127.4%" x="-5.3%" y="-13.7%" filterUnits="objectBoundingBox">
            <feMorphology in="SourceAlpha" operator="dilate" radius="1.5" result="shadowSpreadOuter1"/>
            <feOffset in="shadowSpreadOuter1" result="shadowOffsetOuter1"/>
            <feGaussianBlur in="shadowOffsetOuter1" result="shadowBlurOuter1" stdDeviation="3"/>
            <feColorMatrix in="shadowBlurOuter1" values="0 0 0 0 0.305961277 0 0 0 0 0.305961277 0 0 0 0 0.305961277 0 0 0 0.1 0"/>
        </filter>
        <filter id="prefix__e" width="108.1%" height="108.1%" x="-4%" y="-4%" filterUnits="objectBoundingBox">
            <feGaussianBlur in="SourceAlpha" result="shadowBlurInner1" stdDeviation="1.5"/>
            <feOffset dy="2" in="shadowBlurInner1" result="shadowOffsetInner1"/>
            <feComposite in="shadowOffsetInner1" in2="SourceAlpha" k2="-1" k3="1" operator="arithmetic" result="shadowInnerInner1"/>
            <feColorMatrix in="shadowInnerInner1" values="0 0 0 0 0 0 0 0 0 0 0 0 0 0 0 0 0 0 0.1 0"/>
        </filter>
        <rect id="prefix__a" width="256" height="98.6" x="0" y="0" rx="6"/>
        <path id="prefix__d" d="M62 31c0 17.123-13.88 31-31 31C13.88 62 0 48.123 0 31 0 13.877 13.88 0 31 0c17.12 0 31 13.877 31 31z"/>
    </defs>
    <g fill="none" fill-rule="evenodd">
        <mask id="prefix__c" fill="#fff">
            <use xlink:href="#prefix__a"/>
        </mask>
        <g opacity=".1">
            <use fill="#000" filter="url(#prefix__b)" xlink:href="#prefix__a"/>
            <use fill="#DA1C5C" xlink:href="#prefix__a"/>
        </g>
        <g mask="url(#prefix__c)">
            <g>
                <g opacity=".3" transform="translate(16 16)">
                    <use fill="#FFF" xlink:href="#prefix__d"/>
                    <use fill="#000" filter="url(#prefix__e)" xlink:href="#prefix__d"/>
                </g>
                <g opacity=".4">
                    <path fill="#DA1C5C" d="M21.225 22.01l17.95-10.808c.094-.057.217-.027.274.068.019.031.029.067.029.103v17.375c0 .07-.037.135-.097.171l-17.95 10.808c-.094.057-.217.027-.274-.068-.019-.031-.029-.067-.029-.103V22.181c0-.07.037-.135.097-.171zM20.23 22.083L1.716 12.021c-.097-.053-.219-.017-.271.08-.016.03-.025.063-.025.096v17.186c0 .074.04.142.106.176l18.45 9.927c.097.052.218.016.27-.082.016-.029.024-.06.025-.094l.065-17.05c0-.074-.04-.141-.104-.177zM1.815 10.517L19.45.409c.058-.033.128-.035.187-.006l19.45 9.51c.1.05.14.169.092.268-.017.035-.044.064-.077.084L20.73 21.208c-.06.036-.136.037-.199.003L1.818 10.865c-.097-.053-.132-.175-.078-.272.017-.032.044-.058.075-.076z" transform="translate(16 16) translate(10.585 10.585)"/>
                    <path fill="#FFF" d="M7.067 13.703L18.615 6.812 24.335 9.823 12.922 16.934zM6.184 23.046L6.165 14.516 12.02 17.693 12.062 26.25z" transform="translate(16 16) translate(10.585 10.585)"/>
                </g>
            </g>
        </g>
    </g>
</svg>
