<svg xmlns="http://www.w3.org/2000/svg" xmlns:xlink="http://www.w3.org/1999/xlink" width="584" height="189" viewBox="0 0 584 189">
    <defs>
        <path id="prefix__e" d="M3.673 5.493c.09 1.108-.462 1.991-1.064 2.84-.483.681-1.04 1.315-1.707 2.147 1.174-.486 2.075-1.04 3.07-1.394 1.41-.502 2.707-.358 3.946.448.842.548 1.618 1.18 2.362 1.852.306-.124-.018-.284.028-.422-.272-.538-.578-1.064-.81-1.618-.392-.942-.794-1.892-.552-2.961.22-1.83 1.656-2.958 2.713-4.481-1.727.777-3.197 1.87-5.052 1.681C4.719 3.393 3.549 1.94 2.012.855c.72 1.602 1.697 2.936 1.661 4.638z"/>
        <path id="prefix__g" d="M4.33 6.582c.205 1.586-.523 2.9-1.329 4.161-.65 1.018-1.403 1.968-2.303 3.214 1.655-.786 2.913-1.644 4.317-2.226 1.993-.826 3.87-.71 5.707.358 1.253.726 2.413 1.582 3.533 2.494.434-.202-.044-.408.01-.61-.43-.756-.908-1.488-1.282-2.27-.634-1.323-1.28-2.663-1.01-4.219.186-2.647 2.17-4.375 3.58-6.64-2.43 1.241-4.461 2.921-7.147 2.785C5.681 3.487 3.891 1.481 1.6.034c1.153 2.251 2.657 4.1 2.73 6.548z"/>
        <path id="prefix__i" d="M5.452 4c-1.758.735-3.486.01-5.363-.208C1.491 4.86 2.993 5.568 3.776 7.087c.608.936.545 1.982.418 3.018-.1.834-.289 1.66-.48 2.713.804-.99 1.335-1.91 2.044-2.699 1.006-1.118 2.22-1.612 3.698-1.494 1.006.08 1.993.269 2.972.506.212-.257-.152-.244-.177-.388-.499-.344-1.02-.662-1.49-1.04-.797-.643-1.606-1.29-1.906-2.35-.68-1.722.048-3.405.252-5.254C7.954 1.61 7.182 3.279 5.452 4z"/>
        <rect id="prefix__a" width="584" height="185" x="0" y="0" rx="8"/>
        <rect id="prefix__c" width="147.294" height="170.775" x="0" y="0" rx="14.106"/>
    </defs>
    <g fill="none" fill-rule="evenodd">
        <g>
            <mask id="prefix__b" fill="#fff">
                <use xlink:href="#prefix__a"/>
            </mask>
            <use fill="#FFD9E0" xlink:href="#prefix__a"/>
            <g fill="#FFEEF3" mask="url(#prefix__b)" opacity=".468">
                <path d="M462.52 97.896c-39.437 0-12.42-4.152 9.03-39.25S394.783-9.663 339.09 45.815c-53.98 53.77-28.422 91.416 10.206 103.214 9.737 2.067 8.182 13.69-4.665 34.871l145.078.699c-.33-57.802-9.394-86.703-27.189-86.703z"/>
            </g>
            <g mask="url(#prefix__b)">
                <g transform="matrix(-1 0 0 1 536.556 13.156)">
                    <mask id="prefix__d" fill="#fff">
                        <use xlink:href="#prefix__c"/>
                    </mask>
                    <g mask="url(#prefix__d)">
                        <g>
                            <g>
                                <path fill="#DA1C5C" d="M49.473 20.493c2.46 13.555-6.542 26.527-20.09 28.981C15.838 51.928 2.859 42.94.404 29.384-2.05 15.838 6.946 2.859 20.493.405c13.546-2.455 26.525 6.535 28.98 20.09" transform="rotate(18 15.685 149.003) scale(-1 1) rotate(30 -128.706 -84.897)"/>
                                <path fill="#FFF" d="M31.591 18.065c-.017.007-.04.013-.058.013l-3.129.614c-.445-.77-.867-1.485-1.313-2.263l3.401-.664c.203-.044.37-.082.52-.125.059 0 .11-.007.169-.02.763-.15 1.255-.97 1.116-1.836-.145-.858-.88-1.441-1.637-1.29l-.029.005h-.006L17.641 15.05l-.012.013c-.682.207-1.116.984-.977 1.799.139.859.873 1.441 1.63 1.291.047-.006.093-.019.134-.038.208.007.434-.025.67-.087.897-.245 1.817-.408 2.736-.546 1.44-.219 2.597.383 3.58 1.78-.098.025-.184.05-.26.07L18.63 20.61v.006c-.723.182-1.192.978-1.053 1.818.139.808.793 1.373 1.498 1.31.26.038.579 0 1.007-.082 1.908-.376 3.817-.752 5.951-1.165-.3.639-.474 1.16-.752 1.592-.526.827-1.272 1.316-2.151 1.516-.735.163-1.47.32-2.21.427-.752.112-1.318.45-1.498 1.341-.173.896.214 2.024.862 2.5 2.33 1.718 4.667 3.423 6.998 5.134.931.677 1.851 1.36 2.782 2.031.833.602 1.69.458 2.129-.339.45-.82.214-1.748-.608-2.356-2.388-1.755-4.771-3.498-7.16-5.24-.133-.094-.3-.132-.422-.276 2.961-1.134 4.575-3.385 4.905-6.895.82-.162 1.654-.325 2.487-.488.514-.107.856-.207 1.098-.395.538-.301.85-.984.735-1.686-.145-.865-.88-1.442-1.637-1.298" transform="rotate(18 15.685 149.003) scale(-1 1) rotate(30 -128.706 -84.897)"/>
                            </g>
                            <path fill="#FFD9E0" stroke="#DA1C5C" stroke-width="4.702" d="M26.513 104.579V140.602c0 6.345 1.648 12.288 4.535 17.469 6.14 11.064 17.938 18.553 31.492 18.553 19.896 0 36.019-16.13 36.019-36.022v-36.023H26.513z" transform="rotate(18 15.685 149.003)"/>
                            <path stroke="#DA1C5C" stroke-width="4.702" d="M99.09 104.136h15.376c5.477 0 9.918 4.44 9.918 9.918 0 .71-.076 1.42-.228 2.114-4.143 18.996-12.507 28.493-25.093 28.493 0-4.502.028-10.816.028-17.025v-23.5z" transform="rotate(18 15.685 149.003)"/>
                            <path fill="#CA1B56" d="M56.99 151.46c.669 0 1.312.323 1.71.882l4.056 5.696 4.056-5.696c.457-.653 1.262-.966 2.049-.856l6.901 1.161-1.16-6.9c-.135-.796.203-1.593.855-2.059l5.69-4.06-5.69-4.06c-.652-.466-.99-1.263-.855-2.06l1.16-6.9-6.901 1.162c-.796.127-1.592-.195-2.05-.856l-4.055-5.696-4.056 5.696c-.474.661-1.245.983-2.057.856l-6.893-1.161 1.152 6.9c.135.796-.195 1.593-.847 2.059l-5.699 4.06 5.699 4.06c.652.466.982 1.263.847 2.06l-1.152 6.9 6.893-1.162c.118-.017.228-.026.347-.026m4.198 9.483l-4.587-6.441-7.793 1.305c-.621.093-1.234-.101-1.677-.536-.442-.435-.644-1.065-.535-1.679l1.311-7.808-6.442-4.584c-.505-.365-.807-.948-.807-1.57 0-.621.302-1.204.807-1.561l6.442-4.592-1.311-7.801c-.11-.614.093-1.243.535-1.686.443-.435 1.063-.637 1.677-.536l7.793 1.313 4.587-6.441c.722-1.018 2.414-1.018 3.128 0l4.587 6.44 7.793-1.312c.62-.101 1.242.1 1.676.536.443.443.645 1.072.544 1.686l-1.312 7.8 6.435 4.593c.504.357.807.94.807 1.561 0 .622-.303 1.205-.807 1.57l-6.435 4.584 1.312 7.808c.1.614-.101 1.244-.544 1.679-.434.435-1.055.63-1.676.536l-7.793-1.305-4.587 6.44c-.357.506-.94.809-1.56.809-.621 0-1.211-.303-1.568-.808z" transform="rotate(18 15.685 149.003)"/>
                            <path stroke="#DA1C5C" stroke-width="4.702" d="M26.99 104.136H11.615c-5.478 0-9.919 4.44-9.919 9.918 0 .71.077 1.42.228 2.114 4.143 18.996 12.508 28.493 25.093 28.493 0-4.502-.027-10.816-.027-17.025v-23.5z" transform="rotate(18 15.685 149.003)"/>
                            <g>
                                <path fill="#DA1C5C" d="M37.343 25.523c-3.49 10.015-14.435 15.301-24.45 11.82-10.015-3.49-15.308-14.435-11.82-24.45 3.49-10.015 14.435-15.308 24.45-11.82 10.015 3.49 15.308 14.435 11.82 24.45" transform="rotate(18 15.685 149.003) scale(-1 1) rotate(5 -318.131 -1172.954)"/>
                                <path fill="#FFF" d="M26.623 16.528c-.022 0-.036-.007-.057-.014l-2.798-.98c-.042-.782-.077-1.508-.113-2.298 1.036.36 2.044.712 3.052 1.065.176.056.331.105.472.148l.148.056c.677.24 1.431-.148 1.678-.86.254-.719-.099-1.487-.775-1.727-.008 0-.022 0-.029-.007h-.007L16.558 7.86s-.007.007-.014.007c-.641-.155-1.325.218-1.558.895-.246.712.1 1.48.783 1.72.042.014.084.028.127.035.162.099.359.176.578.24.831.225 1.649.528 2.452.845 1.262.5 1.953 1.48 2.157 2.989-.092-.029-.17-.05-.24-.078l-5.835-2.03v.007c-.663-.197-1.382.184-1.629.881-.232.67.064 1.389.663 1.67.197.149.472.268.853.402 1.712.592 3.418 1.192 5.328 1.854-.507.345-.874.655-1.283.853-.775.38-1.585.402-2.389.14-.67-.21-1.332-.43-1.98-.69-.656-.26-1.27-.268-1.784.317-.521.6-.683 1.621-.359 2.277 1.163 2.354 2.34 4.708 3.51 7.062.465.937.93 1.875 1.402 2.798.423.839 1.177 1.12 1.875.726.712-.409.916-1.212.5-2.051-1.19-2.404-2.389-4.807-3.594-7.21-.07-.134-.19-.24-.225-.409 2.882.514 5.152-.43 6.907-2.91.74.253 1.48.514 2.227.774.458.163.782.233 1.064.205.564.021 1.107-.338 1.31-.923.248-.72-.105-1.488-.781-1.727" transform="rotate(18 15.685 149.003) scale(-1 1) rotate(5 -318.131 -1172.954)"/>
                            </g>
                            <g>
                                <path fill="#DA1C5C" d="M29.816 14.908c0 8.23-6.678 14.908-14.908 14.908S0 23.138 0 14.908C0 6.672 6.678 0 14.908 0s14.908 6.672 14.908 14.908" transform="rotate(18 15.685 149.003) scale(-1 1) rotate(31 -22.142 -77.066)"/>
                                <path fill="#FFF" d="M19.658 11.052h-2.346c-.228-.566-.444-1.092-.672-1.658h2.51c.146 0 .275-.006.385-.017.041.005.082.011.123.011.56 0 1.01-.478 1.01-1.062 0-.584-.45-1.062-1.01-1.062h-9.59l-.006.005c-.514.047-.917.502-.917 1.057 0 .584.45 1.062 1.01 1.062.035 0 .07 0 .105-.006.146.03.31.035.485.024.671-.041 1.348-.03 2.014 0 1.056.04 1.81.584 2.346 1.634-.076.006-.14.012-.198.012h-4.793c-.542.023-.969.49-.969 1.062 0 .549.403 1.004.911 1.057.181.058.415.076.724.076h4.383c-.286.385-.472.7-.723.951-.473.479-1.063.706-1.716.718-.543.012-1.086.023-1.629 0-.549-.023-.992.128-1.22.683-.233.572-.093 1.366.31 1.763 1.459 1.43 2.918 2.854 4.377 4.278.584.566 1.162 1.139 1.746 1.699.525.502 1.15.52 1.558.052.42-.478.362-1.126-.152-1.634-1.494-1.46-2.988-2.913-4.483-4.372-.081-.076-.192-.123-.268-.233 2.247-.368 3.666-1.635 4.32-3.905h1.832c.38 0 .636-.024.835-.117.414-.129.718-.537.718-1.016 0-.583-.45-1.062-1.01-1.062" transform="rotate(18 15.685 149.003) scale(-1 1) rotate(31 -22.142 -77.066)"/>
                            </g>
                        </g>
                    </g>
                </g>
            </g>
        </g>
        <g transform="translate(186.556 89.222)">
            <mask id="prefix__f" fill="#fff">
                <use xlink:href="#prefix__e"/>
            </mask>
            <path fill="#FFF" d="M7.684 -5.917L18.233 7.327 4.714 18.096 -5.836 4.853z" mask="url(#prefix__f)"/>
        </g>
        <path fill="#FFF" d="M311.938 96.78c-4.545.168-7.858-2.837-11.909-4.858 2.303 3.495 5.12 6.285 5.668 10.261.621 2.556-.359 4.8-1.47 6.972-.896 1.752-1.98 3.406-3.252 5.566 2.604-1.52 4.537-3.1 6.759-4.251 3.161-1.635 6.292-1.724 9.525-.252 2.202 1.001 4.275 2.222 6.292 3.546.68-.391-.148-.658-.09-.995-.848-1.167-1.768-2.291-2.524-3.508-1.283-2.062-2.586-4.149-2.414-6.722-.155-4.34 2.83-7.44 4.768-11.335-3.807 2.377-6.88 5.408-11.353 5.576z"/>
        <path fill="#DA1C5C" d="M518.437 21.443c-2.209 1.987-5.016 1.794-7.816 2.425 2.49.872 4.966 1.16 6.76 3.016 1.289 1.08 1.657 2.666 1.931 4.27.222 1.293.313 2.613.503 4.277.721-1.884 1.083-3.52 1.755-5.052.956-2.178 2.489-3.532 4.669-4.11 1.484-.394 2.988-.62 4.503-.767.192-.49-.325-.283-.425-.484-.87-.258-1.76-.464-2.604-.786-1.431-.546-2.881-1.096-3.779-2.518-1.738-2.211-1.43-5.084-1.95-7.936-.995 2.837-1.374 5.71-3.547 7.665z"/>
        <path fill="#FF1744" fill-opacity=".3" d="M129.341 179.318c3.171-2.366 5.592-5.222 9.432-5.861 2.438-.678 4.75.237 7.006 1.285 1.82.843 3.565 1.876 5.827 3.082-1.784-2.54-3.552-4.415-4.931-6.586-1.96-3.09-2.399-6.187-1.318-9.423.735-2.204 1.7-4.286 2.772-6.315-.46-.665-.628.163-.966.113-1.05.868-2.05 1.806-3.158 2.585-1.88 1.32-3.78 2.661-6.324 2.553-4.242.26-7.619-2.62-11.658-4.443 2.76 3.711 6.079 6.68 6.746 11.102.677 4.495-1.9 7.848-3.428 11.908zM498.68 100.766c.677 4.495-1.9 7.848-3.428 11.907 3.171-2.365 5.592-5.221 9.432-5.86 2.438-.678 4.75.237 7.007 1.284 1.819.844 3.564 1.877 5.826 3.083-1.784-2.54-3.552-4.415-4.93-6.587-1.96-3.09-2.4-6.187-1.318-9.423.734-2.204 1.7-4.285 2.772-6.314-.461-.665-.63.162-.967.113-1.05.867-2.05 1.805-3.158 2.584-1.88 1.32-3.78 2.662-6.324 2.554-4.242.26-7.619-2.62-11.658-4.443 2.76 3.71 6.079 6.679 6.746 11.102z" opacity=".5"/>
        <g transform="translate(215.875 9.111)">
            <mask id="prefix__h" fill="#fff">
                <use xlink:href="#prefix__g"/>
            </mask>
            <path fill="#FFF" d="M9.27 -10.117L25.403 8.169 6.735 24.637 -9.398 6.351z" mask="url(#prefix__h)"/>
        </g>
        <g transform="translate(546.69 149.244)">
            <mask id="prefix__j" fill="#fff">
                <use xlink:href="#prefix__i"/>
            </mask>
            <path fill="#FF1744" d="M1.855 -4.904L17.508 1.741 10.725 17.719 -4.927 11.075z" mask="url(#prefix__j)"/>
        </g>
    </g>
</svg>
