<svg xmlns="http://www.w3.org/2000/svg" width="42" height="42" viewBox="0 0 42 42">
    <g fill="none" fill-rule="evenodd">
        <g>
            <g>
                <g>
                    <g>
                        <g>
                            <g>
                                <g>
                                    <g>
                                        <path fill="#FC95B6" d="M22.785-.22L27.8 4.975h7.224c1.105 0 2 .896 2 2v7.55l5.245 5.432c.767.794.745 2.06-.05 2.828L37.025 27.8v7.223c0 1.105-.895 2-2 2h-7.55l-5.43 5.245c-.795.767-2.062.745-2.829-.05l-5.017-5.195H6.976c-1.105 0-2-.895-2-2l-.001-7.551-5.244-5.43c-.767-.794-.745-2.06.05-2.828L4.974 14.2V6.976c0-1.105.896-2 2-2l7.551-.001 5.43-5.244c.795-.767 2.062-.745 2.829.05z" transform="translate(-493 -392) translate(448 347) translate(16 16) translate(29 29)"/>
                                        <g>
                                            <path fill="#FFF" d="M8.077 4.038c0 2.23-1.81 4.039-4.039 4.039C1.81 8.077 0 6.267 0 4.038 0 1.81 1.81 0 4.038 0c2.23 0 4.039 1.81 4.039 4.038zM20.192 13.73c0 2.23-1.809 4.04-4.038 4.04-2.23 0-4.039-1.81-4.039-4.04 0-2.228 1.81-4.038 4.039-4.038 2.23 0 4.038 1.81 4.038 4.039z" transform="translate(-493 -392) translate(448 347) translate(16 16) translate(29 29) translate(11.308 12.923)"/>
                                            <path stroke="#FFF" stroke-linecap="round" stroke-width="1.5" d="M17.769 1.615L1.615 17.769" transform="translate(-493 -392) translate(448 347) translate(16 16) translate(29 29) translate(11.308 12.923)"/>
                                        </g>
                                    </g>
                                </g>
                            </g>
                        </g>
                    </g>
                </g>
            </g>
        </g>
    </g>
</svg>
