<svg xmlns="http://www.w3.org/2000/svg" xmlns:xlink="http://www.w3.org/1999/xlink" width="211" height="163" viewBox="0 0 211 163">
    <defs>
        <path id="prefix__a" d="M0 0.681L210.722 0.681 210.722 163 0 163z"/>
        <path id="prefix__c" d="M2.61 92.544C.835 97.491.017 101.247 0 104.097v.18c.053 8.962 8.212 8.778 19.456 8.594 10.882-.177 24.651-.354 36.759 7.756 12.195 8.171 9.703 40.429 29.906 52.809 50.497 30.95 89.9-3.66 110.34-38.272 17.72-30.006 21.187-60.013 5.27-47.296-67.713 54.112 25.61-41.765 10.19-73.164C207.336 5.368 189.864.373 166.726.373 112.052.369 25.693 28.238 2.61 92.544"/>
        <path id="prefix__e" d="M2.61 92.544C.835 97.491.017 101.247 0 104.097v.18c.053 8.962 8.212 8.778 19.456 8.594 10.882-.177 24.651-.354 36.759 7.756 12.195 8.171 9.703 40.429 29.906 52.809 50.497 30.95 89.9-3.66 110.34-38.272 17.72-30.006 21.187-60.013 5.27-47.296-67.713 54.112 25.61-41.765 10.19-73.164C207.336 5.368 189.864.373 166.726.373 112.052.369 25.693 28.238 2.61 92.544"/>
        <path id="prefix__g" d="M2.61 92.544C.835 97.491.017 101.247 0 104.097v.18c.053 8.962 8.212 8.778 19.456 8.594 10.882-.177 24.651-.354 36.759 7.756 12.195 8.171 9.703 40.429 29.906 52.809 50.497 30.95 89.9-3.66 110.34-38.272 17.72-30.006 21.187-60.013 5.27-47.296-67.713 54.112 25.61-41.765 10.19-73.164C207.336 5.368 189.864.373 166.726.373 112.052.369 25.693 28.238 2.61 92.544"/>
        <path id="prefix__i" d="M2.61 92.544C.835 97.491.017 101.247 0 104.097v.18c.053 8.962 8.212 8.778 19.456 8.594 10.882-.177 24.651-.354 36.759 7.756 12.195 8.171 9.703 40.429 29.906 52.809 50.497 30.95 89.9-3.66 110.34-38.272 17.72-30.006 21.187-60.013 5.27-47.296-67.713 54.112 25.61-41.765 10.19-73.164C207.336 5.368 189.864.373 166.726.373 112.052.369 25.693 28.238 2.61 92.544z"/>
        <path id="prefix__k" d="M2.61 92.544C.835 97.491.017 101.247 0 104.097v.18c.053 8.962 8.212 8.778 19.456 8.594 10.882-.177 24.651-.354 36.759 7.756 12.195 8.171 9.703 40.429 29.906 52.809 50.497 30.95 89.9-3.66 110.34-38.272 17.72-30.006 21.187-60.013 5.27-47.296-67.713 54.112 25.61-41.765 10.19-73.164C207.336 5.368 189.864.373 166.726.373 112.052.369 25.693 28.238 2.61 92.544z"/>
        <path id="prefix__m" d="M2.61 92.544C.835 97.491.017 101.247 0 104.097v.18c.053 8.962 8.212 8.778 19.456 8.594 10.882-.177 24.651-.354 36.759 7.756 12.195 8.171 9.703 40.429 29.906 52.809 50.497 30.95 89.9-3.66 110.34-38.272 17.72-30.006 21.187-60.013 5.27-47.296-67.713 54.112 25.61-41.765 10.19-73.164C207.336 5.368 189.864.373 166.726.373 112.052.369 25.693 28.238 2.61 92.544"/>
        <path id="prefix__o" d="M2.61 92.544C.835 97.491.017 101.247 0 104.097v.18c.053 8.962 8.212 8.778 19.456 8.594 10.882-.177 24.651-.354 36.759 7.756 12.195 8.171 9.703 40.429 29.906 52.809 50.497 30.95 89.9-3.66 110.34-38.272 17.72-30.006 21.187-60.013 5.27-47.296-67.713 54.112 25.61-41.765 10.19-73.164C207.336 5.368 189.864.373 166.726.373 112.052.369 25.693 28.238 2.61 92.544"/>
        <path id="prefix__q" d="M2.61 92.544C.835 97.491.017 101.247 0 104.097v.18c.053 8.962 8.212 8.778 19.456 8.594 10.882-.177 24.651-.354 36.759 7.756 12.195 8.171 9.703 40.429 29.906 52.809 50.497 30.95 89.9-3.66 110.34-38.272 17.72-30.006 21.187-60.013 5.27-47.296-67.713 54.112 25.61-41.765 10.19-73.164C207.336 5.368 189.864.373 166.726.373 112.052.369 25.693 28.238 2.61 92.544z"/>
        <path id="prefix__s" d="M2.61 92.544C.835 97.491.017 101.247 0 104.097v.18c.053 8.962 8.212 8.778 19.456 8.594 10.882-.177 24.651-.354 36.759 7.756 12.195 8.171 9.703 40.429 29.906 52.809 50.497 30.95 89.9-3.66 110.34-38.272 17.72-30.006 21.187-60.013 5.27-47.296-67.713 54.112 25.61-41.765 10.19-73.164C207.336 5.368 189.864.373 166.726.373 112.052.369 25.693 28.238 2.61 92.544z"/>
        <path id="prefix__u" d="M2.61 92.544C.835 97.491.017 101.247 0 104.097v.18c.053 8.962 8.212 8.778 19.456 8.594 10.882-.177 24.651-.354 36.759 7.756 12.195 8.171 9.703 40.429 29.906 52.809 50.497 30.95 89.9-3.66 110.34-38.272 17.72-30.006 21.187-60.013 5.27-47.296-67.713 54.112 25.61-41.765 10.19-73.164C207.336 5.368 189.864.373 166.726.373 112.052.369 25.693 28.238 2.61 92.544z"/>
        <path id="prefix__w" d="M2.61 92.544C.835 97.491.017 101.247 0 104.097v.18c.053 8.962 8.212 8.778 19.456 8.594 10.882-.177 24.651-.354 36.759 7.756 12.195 8.171 9.703 40.429 29.906 52.809 50.497 30.95 89.9-3.66 110.34-38.272 17.72-30.006 21.187-60.013 5.27-47.296-67.713 54.112 25.61-41.765 10.19-73.164C207.336 5.368 189.864.373 166.726.373 112.052.369 25.693 28.238 2.61 92.544z"/>
        <path id="prefix__y" d="M2.61 92.544C.835 97.491.017 101.247 0 104.097v.18c.053 8.962 8.212 8.778 19.456 8.594 10.882-.177 24.651-.354 36.759 7.756 12.195 8.171 9.703 40.429 29.906 52.809 50.497 30.95 89.9-3.66 110.34-38.272 17.72-30.006 21.187-60.013 5.27-47.296-67.713 54.112 25.61-41.765 10.19-73.164C207.336 5.368 189.864.373 166.726.373 112.052.369 25.693 28.238 2.61 92.544"/>
        <path id="prefix__A" d="M2.61 92.544C.835 97.491.017 101.247 0 104.097v.18c.053 8.962 8.212 8.778 19.456 8.594 10.882-.177 24.651-.354 36.759 7.756 12.195 8.171 9.703 40.429 29.906 52.809 50.497 30.95 89.9-3.66 110.34-38.272 17.72-30.006 21.187-60.013 5.27-47.296-67.713 54.112 25.61-41.765 10.19-73.164C207.336 5.368 189.864.373 166.726.373 112.052.369 25.693 28.238 2.61 92.544"/>
        <path id="prefix__C" d="M2.61 92.544C.835 97.491.017 101.247 0 104.097v.18c.053 8.962 8.212 8.778 19.456 8.594 10.882-.177 24.651-.354 36.759 7.756 12.195 8.171 9.703 40.429 29.906 52.809 50.497 30.95 89.9-3.66 110.34-38.272 17.72-30.006 21.187-60.013 5.27-47.296-67.713 54.112 25.61-41.765 10.19-73.164C207.336 5.368 189.864.373 166.726.373 112.052.369 25.693 28.238 2.61 92.544"/>
        <path id="prefix__E" d="M2.61 92.544C.835 97.491.017 101.247 0 104.097v.18c.053 8.962 8.212 8.778 19.456 8.594 10.882-.177 24.651-.354 36.759 7.756 12.195 8.171 9.703 40.429 29.906 52.809 50.497 30.95 89.9-3.66 110.34-38.272 17.72-30.006 21.187-60.013 5.27-47.296-67.713 54.112 25.61-41.765 10.19-73.164C207.336 5.368 189.864.373 166.726.373 112.052.369 25.693 28.238 2.61 92.544"/>
        <path id="prefix__G" d="M2.61 92.544C.835 97.491.017 101.247 0 104.097v.18c.053 8.962 8.212 8.778 19.456 8.594 10.882-.177 24.651-.354 36.759 7.756 12.195 8.171 9.703 40.429 29.906 52.809 50.497 30.95 89.9-3.66 110.34-38.272 17.72-30.006 21.187-60.013 5.27-47.296-67.713 54.112 25.61-41.765 10.19-73.164C207.336 5.368 189.864.373 166.726.373 112.052.369 25.693 28.238 2.61 92.544z"/>
        <path id="prefix__I" d="M2.61 92.544C.835 97.491.017 101.247 0 104.097v.18c.053 8.962 8.212 8.778 19.456 8.594 10.882-.177 24.651-.354 36.759 7.756 12.195 8.171 9.703 40.429 29.906 52.809 50.497 30.95 89.9-3.66 110.34-38.272 17.72-30.006 21.187-60.013 5.27-47.296-67.713 54.112 25.61-41.765 10.19-73.164C207.336 5.368 189.864.373 166.726.373 112.052.369 25.693 28.238 2.61 92.544z"/>
        <path id="prefix__K" d="M2.61 92.544C.835 97.491.017 101.247 0 104.097v.18c.053 8.962 8.212 8.778 19.456 8.594 10.882-.177 24.651-.354 36.759 7.756 12.195 8.171 9.703 40.429 29.906 52.809 50.497 30.95 89.9-3.66 110.34-38.272 17.72-30.006 21.187-60.013 5.27-47.296-67.713 54.112 25.61-41.765 10.19-73.164C207.336 5.368 189.864.373 166.726.373 112.052.369 25.693 28.238 2.61 92.544"/>
        <path id="prefix__M" d="M2.61 92.544C.835 97.491.017 101.247 0 104.097v.18c.053 8.962 8.212 8.778 19.456 8.594 10.882-.177 24.651-.354 36.759 7.756 12.195 8.171 9.703 40.429 29.906 52.809 50.497 30.95 89.9-3.66 110.34-38.272 17.72-30.006 21.187-60.013 5.27-47.296-67.713 54.112 25.61-41.765 10.19-73.164C207.336 5.368 189.864.373 166.726.373 112.052.369 25.693 28.238 2.61 92.544z"/>
        <path id="prefix__O" d="M2.61 92.544C.835 97.491.017 101.247 0 104.097v.18c.053 8.962 8.212 8.778 19.456 8.594 10.882-.177 24.651-.354 36.759 7.756 12.195 8.171 9.703 40.429 29.906 52.809 50.497 30.95 89.9-3.66 110.34-38.272 17.72-30.006 21.187-60.013 5.27-47.296-67.713 54.112 25.61-41.765 10.19-73.164C207.336 5.368 189.864.373 166.726.373 112.052.369 25.693 28.238 2.61 92.544z"/>
        <path id="prefix__Q" d="M2.61 92.544C.835 97.491.017 101.247 0 104.097v.18c.053 8.962 8.212 8.778 19.456 8.594 10.882-.177 24.651-.354 36.759 7.756 12.195 8.171 9.703 40.429 29.906 52.809 50.497 30.95 89.9-3.66 110.34-38.272 17.72-30.006 21.187-60.013 5.27-47.296-67.713 54.112 25.61-41.765 10.19-73.164C207.336 5.368 189.864.373 166.726.373 112.052.369 25.693 28.238 2.61 92.544z"/>
        <path id="prefix__S" d="M2.61 92.544C.835 97.491.017 101.247 0 104.097v.18c.053 8.962 8.212 8.778 19.456 8.594 10.882-.177 24.651-.354 36.759 7.756 12.195 8.171 9.703 40.429 29.906 52.809 50.497 30.95 89.9-3.66 110.34-38.272 17.72-30.006 21.187-60.013 5.27-47.296-67.713 54.112 25.61-41.765 10.19-73.164C207.336 5.368 189.864.373 166.726.373 112.052.369 25.693 28.238 2.61 92.544z"/>
        <path id="prefix__U" d="M2.61 92.544C.835 97.491.017 101.247 0 104.097v.18c.053 8.962 8.212 8.778 19.456 8.594 10.882-.177 24.651-.354 36.759 7.756 12.195 8.171 9.703 40.429 29.906 52.809 50.497 30.95 89.9-3.66 110.34-38.272 17.72-30.006 21.187-60.013 5.27-47.296-67.713 54.112 25.61-41.765 10.19-73.164C207.336 5.368 189.864.373 166.726.373 112.052.369 25.693 28.238 2.61 92.544z"/>
        <path id="prefix__W" d="M2.61 92.544C.835 97.491.017 101.247 0 104.097v.18c.053 8.962 8.212 8.778 19.456 8.594 10.882-.177 24.651-.354 36.759 7.756 12.195 8.171 9.703 40.429 29.906 52.809 50.497 30.95 89.9-3.66 110.34-38.272 17.72-30.006 21.187-60.013 5.27-47.296-67.713 54.112 25.61-41.765 10.19-73.164C207.336 5.368 189.864.373 166.726.373 112.052.369 25.693 28.238 2.61 92.544z"/>
        <path id="prefix__Y" d="M2.61 92.544C.835 97.491.017 101.247 0 104.097v.18c.053 8.962 8.212 8.778 19.456 8.594 10.882-.177 24.651-.354 36.759 7.756 12.195 8.171 9.703 40.429 29.906 52.809 50.497 30.95 89.9-3.66 110.34-38.272 17.72-30.006 21.187-60.013 5.27-47.296-67.713 54.112 25.61-41.765 10.19-73.164C207.336 5.368 189.864.373 166.726.373 112.052.369 25.693 28.238 2.61 92.544z"/>
        <path id="prefix__aa" d="M2.61 92.544C.835 97.491.017 101.247 0 104.097v.18c.053 8.962 8.212 8.778 19.456 8.594 10.882-.177 24.651-.354 36.759 7.756 12.195 8.171 9.703 40.429 29.906 52.809 50.497 30.95 89.9-3.66 110.34-38.272 17.72-30.006 21.187-60.013 5.27-47.296-67.713 54.112 25.61-41.765 10.19-73.164C207.336 5.368 189.864.373 166.726.373 112.052.369 25.693 28.238 2.61 92.544z"/>
        <path id="prefix__ac" d="M2.61 92.544C.835 97.491.017 101.247 0 104.097v.18c.053 8.962 8.212 8.778 19.456 8.594 10.882-.177 24.651-.354 36.759 7.756 12.195 8.171 9.703 40.429 29.906 52.809 50.497 30.95 89.9-3.66 110.34-38.272 17.72-30.006 21.187-60.013 5.27-47.296-67.713 54.112 25.61-41.765 10.19-73.164C207.336 5.368 189.864.373 166.726.373 112.052.369 25.693 28.238 2.61 92.544"/>
        <path id="prefix__ae" d="M2.61 92.544C.835 97.491.017 101.247 0 104.097v.18c.053 8.962 8.212 8.778 19.456 8.594 10.882-.177 24.651-.354 36.759 7.756 12.195 8.171 9.703 40.429 29.906 52.809 50.497 30.95 89.9-3.66 110.34-38.272 17.72-30.006 21.187-60.013 5.27-47.296-67.713 54.112 25.61-41.765 10.19-73.164C207.336 5.368 189.864.373 166.726.373 112.052.369 25.693 28.238 2.61 92.544"/>
        <path id="prefix__ag" d="M2.61 92.544C.835 97.491.017 101.247 0 104.097v.18c.053 8.962 8.212 8.778 19.456 8.594 10.882-.177 24.651-.354 36.759 7.756 12.195 8.171 9.703 40.429 29.906 52.809 50.497 30.95 89.9-3.66 110.34-38.272 17.72-30.006 21.187-60.013 5.27-47.296-67.713 54.112 25.61-41.765 10.19-73.164C207.336 5.368 189.864.373 166.726.373 112.052.369 25.693 28.238 2.61 92.544"/>
        <path id="prefix__ai" d="M2.61 92.544C.835 97.491.017 101.247 0 104.097v.18c.053 8.962 8.212 8.778 19.456 8.594 10.882-.177 24.651-.354 36.759 7.756 12.195 8.171 9.703 40.429 29.906 52.809 50.497 30.95 89.9-3.66 110.34-38.272 17.72-30.006 21.187-60.013 5.27-47.296-67.713 54.112 25.61-41.765 10.19-73.164C207.336 5.368 189.864.373 166.726.373 112.052.369 25.693 28.238 2.61 92.544"/>
        <path id="prefix__ak" d="M2.61 92.544C.835 97.491.017 101.247 0 104.097v.18c.053 8.962 8.212 8.778 19.456 8.594 10.882-.177 24.651-.354 36.759 7.756 12.195 8.171 9.703 40.429 29.906 52.809 50.497 30.95 89.9-3.66 110.34-38.272 17.72-30.006 21.187-60.013 5.27-47.296-67.713 54.112 25.61-41.765 10.19-73.164C207.336 5.368 189.864.373 166.726.373 112.052.369 25.693 28.238 2.61 92.544"/>
        <path id="prefix__am" d="M2.61 92.544C.835 97.491.017 101.247 0 104.097v.18c.053 8.962 8.212 8.778 19.456 8.594 10.882-.177 24.651-.354 36.759 7.756 12.195 8.171 9.703 40.429 29.906 52.809 50.497 30.95 89.9-3.66 110.34-38.272 17.72-30.006 21.187-60.013 5.27-47.296-67.713 54.112 25.61-41.765 10.19-73.164C207.336 5.368 189.864.373 166.726.373 112.052.369 25.693 28.238 2.61 92.544"/>
        <path id="prefix__ao" d="M2.61 92.544C.835 97.491.017 101.247 0 104.097v.18c.053 8.962 8.212 8.778 19.456 8.594 10.882-.177 24.651-.354 36.759 7.756 12.195 8.171 9.703 40.429 29.906 52.809 50.497 30.95 89.9-3.66 110.34-38.272 17.72-30.006 21.187-60.013 5.27-47.296-67.713 54.112 25.61-41.765 10.19-73.164C207.336 5.368 189.864.373 166.726.373 112.052.369 25.693 28.238 2.61 92.544"/>
        <path id="prefix__aq" d="M2.61 92.544C.835 97.491.017 101.247 0 104.097v.18c.053 8.962 8.212 8.778 19.456 8.594 10.882-.177 24.651-.354 36.759 7.756 12.195 8.171 9.703 40.429 29.906 52.809 50.497 30.95 89.9-3.66 110.34-38.272 17.72-30.006 21.187-60.013 5.27-47.296-67.713 54.112 25.61-41.765 10.19-73.164C207.336 5.368 189.864.373 166.726.373 112.052.369 25.693 28.238 2.61 92.544"/>
        <path id="prefix__as" d="M2.61 92.544C.835 97.491.017 101.247 0 104.097v.18c.053 8.962 8.212 8.778 19.456 8.594 10.882-.177 24.651-.354 36.759 7.756 12.195 8.171 9.703 40.429 29.906 52.809 50.497 30.95 89.9-3.66 110.34-38.272 17.72-30.006 21.187-60.013 5.27-47.296-67.713 54.112 25.61-41.765 10.19-73.164C207.336 5.368 189.864.373 166.726.373 112.052.369 25.693 28.238 2.61 92.544z"/>
        <path id="prefix__au" d="M2.61 92.544C.835 97.491.017 101.247 0 104.097v.18c.053 8.962 8.212 8.778 19.456 8.594 10.882-.177 24.651-.354 36.759 7.756 12.195 8.171 9.703 40.429 29.906 52.809 50.497 30.95 89.9-3.66 110.34-38.272 17.72-30.006 21.187-60.013 5.27-47.296-67.713 54.112 25.61-41.765 10.19-73.164C207.336 5.368 189.864.373 166.726.373 112.052.369 25.693 28.238 2.61 92.544z"/>
        <path id="prefix__aw" d="M2.61 92.544C.835 97.491.017 101.247 0 104.097v.18c.053 8.962 8.212 8.778 19.456 8.594 10.882-.177 24.651-.354 36.759 7.756 12.195 8.171 9.703 40.429 29.906 52.809 50.497 30.95 89.9-3.66 110.34-38.272 17.72-30.006 21.187-60.013 5.27-47.296-67.713 54.112 25.61-41.765 10.19-73.164C207.336 5.368 189.864.373 166.726.373 112.052.369 25.693 28.238 2.61 92.544z"/>
        <path id="prefix__ay" d="M0 104.097v.18c.053 8.962 8.212 8.778 19.456 8.594 10.882-.177 24.651-.354 36.759 7.756 12.195 8.171 9.703 40.429 29.906 52.809 50.497 30.95 89.9-3.66 110.34-38.272 17.72-30.006 21.187-60.013 5.27-47.296-67.713 54.112 25.61-41.765 10.19-73.164C207.336 5.368 189.864.373 166.726.373 112.052.369 25.693 28.238 2.61 92.544.835 97.491.017 101.247 0 104.097z"/>
    </defs>
    <g fill="none" fill-rule="evenodd" transform="translate(0 -23)">
        <g transform="translate(0 23)">
            <mask id="prefix__b" fill="#fff">
                <use xlink:href="#prefix__a"/>
            </mask>
            <path fill="#FFF8FB" d="M200.59 65.978c-67.331 53.795-27.999-10.626-43.332-41.841C141.925-7.078 35.262-20.36 2.596 70.627c-12.871 35.853 24.838 8.853 53.3 27.919 12.127 8.124 9.65 40.192 29.736 52.501C179.378 208.492 234.67 38.751 200.59 65.978" mask="url(#prefix__b)"/>
        </g>
        <mask id="prefix__d" fill="#fff">
            <use xlink:href="#prefix__c"/>
        </mask>
        <path fill="#FFC693" d="M157.584 96.173c-3.218.416-5.948.075-7.978-.71l-11.802-.734-18.105-4.125-12.107 10.43 16.838 13.95c.705-.597 1.793-1.364 3.264-1.833 1.963-.625 3.59-.393 4.435-.324 2.37.198 4.65-.667 9.21-2.396 3.365-1.277 6.023-2.843 11.34-5.976 6.025-3.552 8.265-5.296 9.774-6.574 3.033-2.568 6.425-6.13 6.13-6.492-.368-.456-5.306 4.05-10.999 4.784" mask="url(#prefix__d)"/>
        <mask id="prefix__f" fill="#fff">
            <use xlink:href="#prefix__e"/>
        </mask>
        <path fill="#F59D65" d="M165.655 93.38c-.978.569-1.948 1.133-2.66 1.494-1.746.886-3.484.847-4.304 1.026-1.056.229-2.112.885-3.79.789-1.357-.078-2.536-.373-3.101-.517-1.158-.294-1.233-.432-2.192-.633-.996-.208-1.613-.203-3.03-.267-1.174-.052-2.345-.154-3.517-.218 0 0-2.986-.164-5.396-.352-3.385-.262-4.854-.853-10.25-2.033-1.907-.417-5.833-1.896-7.5-2.242-.537-.112-.215 1.812.267 2.492 1.021 1.441 1.709 2.854 6.269 5.782 3.749 2.407 5.623 3.612 6.758 4.008 4.155 1.455 7.79.853 10.736.366 5.329-.882 9.953-3.18 14.162-5.27.716-.356 1.892-1.24 3.467-1.537.726-.137 1.437-.445 2.175-.425.313.009 1.12.064 1.303-.308l.006-.011s2.466-3.16 2.464-3.163c-.037-.058-1.144.597-1.867 1.019" mask="url(#prefix__f)"/>
        <mask id="prefix__h" fill="#fff">
            <use xlink:href="#prefix__g"/>
        </mask>
        <path fill="#FFC693" d="M180.435 39.268c-1.63-2.93-5.37-3.996-8.31-2.371l-17.77 9.82c-2.94 1.626-4.012 5.35-2.38 8.28 1.63 2.929 5.368 3.996 8.308 2.372l17.772-9.822c2.939-1.624 4.01-5.35 2.38-8.28" mask="url(#prefix__h)"/>
        <mask id="prefix__j" fill="#fff">
            <use xlink:href="#prefix__i"/>
        </mask>
        <path fill="#263D53" d="M155.176 46.783L157.278 48.004 158.442 46.015 156.339 44.793z" mask="url(#prefix__j)"/>
        <mask id="prefix__l" fill="#fff">
            <use xlink:href="#prefix__k"/>
        </mask>
        <path fill="#263D53" d="M153.074 45.564L155.176 46.783 156.339 44.794 154.237 43.573z" mask="url(#prefix__l)"/>
        <mask id="prefix__n" fill="#fff">
            <use xlink:href="#prefix__m"/>
        </mask>
        <path fill="#263D53" d="M160.206 43.02l-2.113-1.226-1.908 3.264 2.112 1.227c.762.44 1.653.33 1.992-.25l.682-1.166c.339-.58-.004-1.408-.765-1.85" mask="url(#prefix__n)"/>
        <mask id="prefix__p" fill="#fff">
            <use xlink:href="#prefix__o"/>
        </mask>
        <path fill="#33536D" d="M153.99 40.817l-.682 1.166c-.34.579.003 1.407.764 1.849l2.113 1.226 1.908-3.264-2.112-1.227c-.761-.442-1.653-.33-1.992.25" mask="url(#prefix__p)"/>
        <mask id="prefix__r" fill="#fff">
            <use xlink:href="#prefix__q"/>
        </mask>
        <path fill="#263D53" d="M137.043 40.814L137.741 45.146 141.239 44.587 140.541 40.255z" mask="url(#prefix__r)"/>
        <mask id="prefix__t" fill="#fff">
            <use xlink:href="#prefix__s"/>
        </mask>
        <path fill="#263D53" d="M133.545 41.374L134.241 45.705 137.741 45.146 137.043 40.814z" mask="url(#prefix__t)"/>
        <mask id="prefix__v" fill="#fff">
            <use xlink:href="#prefix__u"/>
        </mask>
        <path fill="#263D53" d="M142.168 35.638c-.203-1.261-1.395-2.12-2.66-1.919l-3.517.563 1.144 7.107 3.516-.561c1.267-.204 2.128-1.39 1.925-2.651l-.408-2.539z" mask="url(#prefix__v)"/>
        <mask id="prefix__x" fill="#fff">
            <use xlink:href="#prefix__w"/>
        </mask>
        <path fill="#33536D" d="M132.476 34.844c-1.266.202-2.128 1.39-1.925 2.651l.408 2.538c.204 1.262 1.395 2.12 2.66 1.918l3.516-.561-1.143-7.108-3.516.562z" mask="url(#prefix__x)"/>
        <mask id="prefix__z" fill="#fff">
            <use xlink:href="#prefix__y"/>
        </mask>
        <path fill="#33536D" d="M137.317 42.517c-16.039 2.563-26.956 17.598-24.383 33.58 2.573 15.982 17.661 26.86 33.7 24.296 16.04-2.564 26.956-17.598 24.384-33.58-2.573-15.982-17.662-26.86-33.7-24.296" mask="url(#prefix__z)"/>
        <mask id="prefix__B" fill="#fff">
            <use xlink:href="#prefix__A"/>
        </mask>
        <path fill="#263D53" d="M137.827 45.687c-14.282 2.283-24.004 15.67-21.712 29.902 2.29 14.231 15.727 23.917 30.009 21.634 14.283-2.282 24.004-15.67 21.713-29.902-2.291-14.23-15.726-23.918-30.01-21.634" mask="url(#prefix__B)"/>
        <g>
            <mask id="prefix__D" fill="#fff">
                <use xlink:href="#prefix__C"/>
            </mask>
            <path fill="#E6E6E6" d="M138.005 46.79c-13.672 2.184-22.977 15-20.784 28.621 2.194 13.623 15.053 22.895 28.726 20.71 13.672-2.185 22.976-15 20.783-28.623-2.193-13.623-15.054-22.894-28.725-20.709" mask="url(#prefix__D)"/>
        </g>
        <g>
            <mask id="prefix__F" fill="#fff">
                <use xlink:href="#prefix__E"/>
            </mask>
            <path fill="#DA1C5C" d="M143.206 69.751c-.946-.681-2.267-.47-2.95.472-.684.942-.473 2.258.473 2.94.945.682 2.267.47 2.95-.472.684-.942.473-2.258-.473-2.94" mask="url(#prefix__F)"/>
        </g>
        <g>
            <mask id="prefix__H" fill="#fff">
                <use xlink:href="#prefix__G"/>
            </mask>
            <path fill="#DA1C5C" d="M152.262 57.034L140.86 71.341 142.424 72.468 152.496 57.203 152.495 56.959z" mask="url(#prefix__H)"/>
        </g>
        <g>
            <mask id="prefix__J" fill="#fff">
                <use xlink:href="#prefix__I"/>
            </mask>
            <path fill="#DA1C5C" d="M137.236 76.734L138.421 77.589 142.424 72.468 140.861 71.341z" mask="url(#prefix__J)"/>
        </g>
        <g>
            <mask id="prefix__L" fill="#fff">
                <use xlink:href="#prefix__K"/>
            </mask>
            <path fill="#263D53" d="M142.682 70.473c-.545-.393-1.307-.271-1.702.273-.395.542-.273 1.302.273 1.696.545.393 1.308.271 1.702-.272.395-.545.273-1.304-.273-1.697" mask="url(#prefix__L)"/>
        </g>
        <g>
            <mask id="prefix__N" fill="#fff">
                <use xlink:href="#prefix__M"/>
            </mask>
            <path fill="#263D53" d="M137.781 49.793L138.351 53.331 139.73 53.111 139.16 49.573z" mask="url(#prefix__N)"/>
        </g>
        <g>
            <mask id="prefix__P" fill="#fff">
                <use xlink:href="#prefix__O"/>
            </mask>
            <path fill="#263D53" d="M144.222 89.8L144.791 93.338 146.17 93.117 145.601 89.579z" mask="url(#prefix__P)"/>
        </g>
        <g>
            <mask id="prefix__R" fill="#fff">
                <use xlink:href="#prefix__Q"/>
            </mask>
            <path fill="#263D53" d="M123.637 59.093L126.55 61.194 127.369 60.066 124.456 57.965z" mask="url(#prefix__R)"/>
        </g>
        <g>
            <mask id="prefix__T" fill="#fff">
                <use xlink:href="#prefix__S"/>
            </mask>
            <path fill="#263D53" d="M156.582 82.844L159.495 84.945 160.314 83.817 157.401 81.716z" mask="url(#prefix__T)"/>
        </g>
        <g>
            <mask id="prefix__V" fill="#fff">
                <use xlink:href="#prefix__U"/>
            </mask>
            <path fill="#263D53" d="M120.015 74.26L120.236 75.634 123.787 75.067 123.565 73.693z" mask="url(#prefix__V)"/>
        </g>
        <g>
            <mask id="prefix__X" fill="#fff">
                <use xlink:href="#prefix__W"/>
            </mask>
            <path fill="#263D53" d="M160.165 67.843L160.386 69.218 163.937 68.649 163.716 67.275z" mask="url(#prefix__X)"/>
        </g>
        <g>
            <mask id="prefix__Z" fill="#fff">
                <use xlink:href="#prefix__Y"/>
            </mask>
            <path fill="#263D53" d="M128.438 88.912L129.57 89.728 131.678 86.825 130.545 86.009z" mask="url(#prefix__Z)"/>
        </g>
        <g>
            <mask id="prefix__ab" fill="#fff">
                <use xlink:href="#prefix__aa"/>
            </mask>
            <path fill="#263D53" d="M152.274 56.086L153.406 56.901 155.514 53.998 154.382 53.183z" mask="url(#prefix__ab)"/>
        </g>
        <g>
            <mask id="prefix__ad" fill="#fff">
                <use xlink:href="#prefix__ac"/>
            </mask>
            <path fill="#FFC693" d="M114.85 56.919c1.28-3.108 2.364-3.735 4.3-6.932 2.107-3.481 3.453-5.704 3.319-8.703-.02-.447-.22-3.835-2.788-6.262-.545-.516-2.367-2.237-3.996-1.752-1.173.35-1.564 1.644-2.458 3.477-1.079 2.214-2.73 4.103-4.032 6.195-4.927 7.929-6.092 7.968-8.67 12.95-1.519 2.938-3.547 6.815-4.22 12.24-.401 3.243-.81 6.538-.128 10.737.358 2.206.975 4.402.332 7.348-.401 1.838-1.138 3.265-1.72 4.207l12.803 10.609 12.093-10.315c.717-5.826-.487-9.83-1.296-12.778-1.286-4.687-2.761-8.502-2.761-8.502-1.288-3.328-2.242-5.133-2.05-7.921.126-1.815.673-3.146 1.272-4.598" mask="url(#prefix__ad)"/>
        </g>
        <g>
            <mask id="prefix__af" fill="#fff">
                <use xlink:href="#prefix__ae"/>
            </mask>
            <path fill="#F9E8D8" d="M114.66 33.999c-.146.2-.263.382-.356.539-.046.076-.174.295-.443.865-.13.274-.21.456-.268.585 0 0-.241.532-.641 1.296-.167.317-.467.832-1.436 2.278-.395.59-.915 1.346-1.552 2.213.433.255 1.61.834 3.049.726.312-.023 2.242-.198 3.497-1.831.181-.237.704-.935.865-1.95.383-2.417-2.52-4.553-2.714-4.721" mask="url(#prefix__af)"/>
        </g>
        <g>
            <mask id="prefix__ah" fill="#fff">
                <use xlink:href="#prefix__ag"/>
            </mask>
            <path fill="#FFC693" d="M175.765 62.745c-.37-3.33-3.408-5.75-6.749-5.381l-7.584.838c-3.341.37-5.772 3.395-5.401 6.724.37 3.329 3.408 5.75 6.749 5.38l7.583-.837c3.342-.37 5.772-3.395 5.402-6.724" mask="url(#prefix__ah)"/>
        </g>
        <g>
            <mask id="prefix__aj" fill="#fff">
                <use xlink:href="#prefix__ai"/>
            </mask>
            <path fill="#FFC693" d="M169.603 89.088c-.3-3.336-3.284-5.82-6.632-5.522l-6.717.598c-3.349.299-5.843 3.272-5.544 6.609.3 3.336 3.284 5.82 6.633 5.522l6.716-.598c3.349-.298 5.843-3.272 5.544-6.609" mask="url(#prefix__aj)"/>
        </g>
        <g>
            <mask id="prefix__al" fill="#fff">
                <use xlink:href="#prefix__ak"/>
            </mask>
            <path fill="#FFC693" d="M173.896 76.353c-.191-3.344-3.095-5.923-6.451-5.732l-7.618.435c-3.357.192-5.945 3.084-5.753 6.428.193 3.344 3.095 5.923 6.452 5.732l7.618-.435c3.356-.192 5.945-3.085 5.752-6.428" mask="url(#prefix__al)"/>
        </g>
        <g>
            <mask id="prefix__an" fill="#fff">
                <use xlink:href="#prefix__am"/>
            </mask>
            <path fill="#F9E8D8" d="M161.26 59.986c-2.25.36-3.781 2.469-3.42 4.71.36 2.242 2.476 3.768 4.726 3.408 2.25-.36 3.781-2.468 3.42-4.71-.361-2.241-2.477-3.767-4.726-3.408" mask="url(#prefix__an)"/>
        </g>
        <g>
            <mask id="prefix__ap" fill="#fff">
                <use xlink:href="#prefix__ao"/>
            </mask>
            <path fill="#F9E8D8" d="M159.192 73.095c-2.25.36-3.781 2.469-3.42 4.71.36 2.242 2.477 3.768 4.727 3.409 2.25-.36 3.78-2.469 3.42-4.71-.362-2.242-2.478-3.768-4.727-3.409" mask="url(#prefix__ap)"/>
        </g>
        <g>
            <mask id="prefix__ar" fill="#fff">
                <use xlink:href="#prefix__aq"/>
            </mask>
            <path fill="#F9E8D8" d="M155.977 86.186c-2.25.36-3.781 2.469-3.42 4.71.36 2.242 2.477 3.768 4.727 3.408 2.25-.36 3.78-2.468 3.42-4.71-.362-2.241-2.478-3.767-4.727-3.408" mask="url(#prefix__ar)"/>
        </g>
        <g>
            <mask id="prefix__at" fill="#fff">
                <use xlink:href="#prefix__as"/>
            </mask>
            <path fill="#FFF" d="M87.971 94.11L122.277 122.395 126.952 116.764 92.647 88.48z" mask="url(#prefix__at)"/>
        </g>
        <g>
            <mask id="prefix__av" fill="#fff">
                <use xlink:href="#prefix__au"/>
            </mask>
            <path fill="#F3F3F3" d="M108.958 111.413L122.277 122.395 126.952 116.764 113.633 105.783z" mask="url(#prefix__av)"/>
        </g>
        <g>
            <mask id="prefix__ax" fill="#fff">
                <use xlink:href="#prefix__aw"/>
            </mask>
            <path fill="#CDE1F9" d="M84.965 91.631L49.963 133.781 49.963 174.462 84.101 174.462 125.282 124.873z" mask="url(#prefix__ax)"/>
        </g>
        <g>
            <mask id="prefix__az" fill="#fff">
                <use xlink:href="#prefix__ay"/>
            </mask>
            <path fill="#DBDAD9" d="M108.86 111.333L56.435 174.463 84.101 174.463 125.283 124.872z" mask="url(#prefix__az)"/>
        </g>
    </g>
</svg>
