<svg xmlns="http://www.w3.org/2000/svg" xmlns:xlink="http://www.w3.org/1999/xlink" width="232" height="158" viewBox="0 0 232 158">
    <defs>
        <path id="prefix__a" d="M109.288 15.105C83.092 24.185 58.82 33.27 41.622 27.716 22.12 21.418 6.24 35.287 1.47 55.507.522 59.521.013 63.782 0 68.187v.353c.06 19.83 10.17 42.479 35.638 58.144C181.652 216.494 266.591 60.065 214.95 15.76 202.16 4.789 187.579.795 172.26.795c-20.506 0-42.334 7.155-62.972 14.31"/>
        <path id="prefix__c" d="M109.288 15.105C83.092 24.185 58.82 33.27 41.622 27.716 22.12 21.418 6.24 35.287 1.47 55.507.522 59.521.013 63.782 0 68.187v.353c.06 19.83 10.17 42.479 35.638 58.144C181.652 216.494 266.591 60.065 214.95 15.76 202.16 4.789 187.579.795 172.26.795c-20.506 0-42.334 7.155-62.972 14.31"/>
        <path id="prefix__e" d="M109.288 15.105C83.092 24.185 58.82 33.27 41.622 27.716 22.12 21.418 6.24 35.287 1.47 55.507.522 59.521.013 63.782 0 68.187v.353c.06 19.83 10.17 42.479 35.638 58.144C181.652 216.494 266.591 60.065 214.95 15.76 202.16 4.789 187.579.795 172.26.795c-20.506 0-42.334 7.155-62.972 14.31"/>
        <path id="prefix__g" d="M109.288 15.105C83.092 24.185 58.82 33.27 41.622 27.716 22.12 21.418 6.24 35.287 1.47 55.507.522 59.521.013 63.782 0 68.187v.353c.06 19.83 10.17 42.479 35.638 58.144C181.652 216.494 266.591 60.065 214.95 15.76 202.16 4.789 187.579.795 172.26.795c-20.506 0-42.334 7.155-62.972 14.31"/>
        <path id="prefix__i" d="M109.288 15.105C83.092 24.185 58.82 33.27 41.622 27.716 22.12 21.418 6.24 35.287 1.47 55.507.522 59.521.013 63.782 0 68.187v.353c.06 19.83 10.17 42.479 35.638 58.144C181.652 216.494 266.591 60.065 214.95 15.76 202.16 4.789 187.579.795 172.26.795c-20.506 0-42.334 7.155-62.972 14.31"/>
        <path id="prefix__k" d="M109.288 15.105C83.092 24.185 58.82 33.27 41.622 27.716 22.12 21.418 6.24 35.287 1.47 55.507.522 59.521.013 63.782 0 68.187v.353c.06 19.83 10.17 42.479 35.638 58.144C181.652 216.494 266.591 60.065 214.95 15.76 202.16 4.789 187.579.795 172.26.795c-20.506 0-42.334 7.155-62.972 14.31"/>
        <path id="prefix__m" d="M109.288 15.105C83.092 24.185 58.82 33.27 41.622 27.716 22.12 21.418 6.24 35.287 1.47 55.507.522 59.521.013 63.782 0 68.187v.353c.06 19.83 10.17 42.479 35.638 58.144C181.652 216.494 266.591 60.065 214.95 15.76 202.16 4.789 187.579.795 172.26.795c-20.506 0-42.334 7.155-62.972 14.31"/>
        <path id="prefix__o" d="M109.288 15.105C83.092 24.185 58.82 33.27 41.622 27.716 22.12 21.418 6.24 35.287 1.47 55.507.522 59.521.013 63.782 0 68.187v.353c.06 19.83 10.17 42.479 35.638 58.144C181.652 216.494 266.591 60.065 214.95 15.76 202.16 4.789 187.579.795 172.26.795c-20.506 0-42.334 7.155-62.972 14.31"/>
    </defs>
    <g fill="none" fill-rule="evenodd">
        <g fill="#FFF8FB">
            <path d="M214.95 15.762C163.31-28.539 82.492 40.912 41.622 27.716 22.12 21.419 6.24 35.287 1.47 55.507c-5.226 22.153 2.883 51.933 34.17 71.176 146.013 89.81 230.952-66.62 179.31-110.92" transform="translate(0 .599)"/>
            <path d="M214.95 15.762C163.31-28.539 82.492 40.912 41.622 27.716 22.12 21.419 6.24 35.287 1.47 55.507c-5.226 22.153 2.883 51.933 34.17 71.176 146.013 89.81 230.952-66.62 179.31-110.92" transform="translate(0 .599)"/>
        </g>
        <g transform="translate(0 .599)">
            <mask id="prefix__b" fill="#fff">
                <use xlink:href="#prefix__a"/>
            </mask>
            <path fill="#B8B8B8" d="M147.581 252.238c-.931-15.81-1.74-31.636-2.911-47.433-1.31-17.652-3.28-35.287-7.17-52.577-.413-1.838-3.54-2.053-3.967-.159-.58-.398-1.32-.64-2.164-.66-3.487-.09-7.486 3.104-10.303 4.834-3.379 2.074-6.6 4.383-9.705 6.843-2.572-1.277-6.644-3.178-9.015-1.128-.556.48-.89 1.068-1.1 1.705-1.131-.11-2.417.652-2.446 2.024 0 .058.002.118 0 .178-.817-2.026-4.303-1.865-3.998.574 2.331 18.66 4.665 37.325 7.584 55.905 1.46 9.286 3.066 18.55 4.893 27.772.896 4.515 1.844 9.021 2.854 13.514.376 1.675.4 3.578 1.828 4.695 1.156.905 2.562 1.159 3.995.961 7.99-1.103 6.147-11.007 5.667-16.555-.839-9.708-.855-19.39-.673-29.128.176-9.294.354-18.589.532-27.883l.109-5.758c1.572 5.658 2.917 11.378 4.275 17.09 3.712 15.618 7.21 31.287 10.487 47.002.908 4.35 1.137 15.008 7.839 14.548 2.274-.156 3.708-1.956 3.977-4.115.485-3.907-.356-8.323-.588-12.249" mask="url(#prefix__b)"/>
            <mask id="prefix__d" fill="#fff">
                <use xlink:href="#prefix__c"/>
            </mask>
            <path fill="#CC997D" d="M155.617 112.659c-.19-1.104-.412-2.197-.68-3.28-.295-1.318-.625-2.627-1.003-3.922-.54-1.841-1.368-3.614-3.578-3.309-.597.082-1.262.323-1.931.68-.293.01-.557.15-.698.413-.653.426-1.291.951-1.856 1.539-.361.06-.663.338-.691.798-.77.996-1.295 2.1-1.354 3.17-.32.196-.54.566-.412 1.027 1.901 6.805 3.586 13.72 5.763 20.443.24.738.519 2.005.976 3.126.63 6.261.415 12.647 1.05 18.915.502 4.956 1.23 9.88 2.147 14.772-.826 2.47-3.14 4.434-4.141 6.84-.613 1.471-1.858 4.55-1.163 6.083.618 1.37 1.585 1.166 2.558.38-.159.716-.233 1.438.135 2.114.923 1.709 3.856 1.968 5.495 1.39 2.309-.816 2.462-3.74 2.608-5.83.233-3.293-.367-6.526-1.331-9.655 1.713-6.92 3.373-16.648 3.626-23.739.231-6.461-4.65-29.32-5.52-31.955" mask="url(#prefix__d)"/>
            <mask id="prefix__f" fill="#fff">
                <use xlink:href="#prefix__e"/>
            </mask>
            <path fill="#CC997D" d="M125.568 41.825c-.957-.954-1.939-1.45-2.93-1.624-1.489-.593-3.056-.78-4.651.04-1.059.544-1.851 1.486-2.724 2.263-.866.773-3.171 1.8-3.503 1.933-8.02 3.235-16.539 4.541-24.993 6.125-4.95.929-11.902 1.005-16.212 4.424-.983.78-1.599 2.661-1.499 4.122-.07.161-.076.358.017.582 5.556 13.266 14.192 24.925 25.333 34.03.669.546 1.559-.047 1.559-.681.149-.109.268-.26.326-.453.955-3.21 1.69-6.467 2.136-9.79.147-1.105.273-2.357-.485-3.02-.831-2.004-2.371-3.352-3.94-4.921-2.434-2.434-4.347-5.268-6.163-8.176-.508-.814-1.037-1.778-1.605-2.79 2.27-.538 4.528-1.499 5.95-2.045 3.213-1.232 17.665-8.84 18.25-9.328.012-.01.019-.021.029-.031 1.239-.934 2.478-1.869 3.718-2.802.334-.253.422-.625.355-.957l1.688-1.28c.242-.186.352-.432.371-.682.758-.48 1.535-.933 2.332-1.353 1.537-.678 3.074-1.358 4.612-2.038.232-.101.363-.28.413-.483.18.109.358.219.536.333.86.55 1.789-.69 1.08-1.398" mask="url(#prefix__f)"/>
            <g>
                <mask id="prefix__h" fill="#fff">
                    <use xlink:href="#prefix__g"/>
                </mask>
                <path fill="#DDA783" d="M133.56 50.48c-3.14-6.128-11.31-9.453-17.193-4.933-5.02 3.856-6.235 11.838-5.168 17.906.117 3.662 1.026 7.213 3.146 9.995.908 1.192 1.963 2.049 3.101 2.624-.437 2.296-.159 11.897.337 13.854.735 2.897 2.891-3.524 5.44-3.59.728.108 1.459.165 2.126.216 2.802.219 5.063 6.813 5.688 3.968.8-3.633.535-15.286.254-19.01 4.155-5.818 5.58-14.562 2.268-21.03" mask="url(#prefix__h)"/>
            </g>
            <g>
                <mask id="prefix__j" fill="#fff">
                    <use xlink:href="#prefix__i"/>
                </mask>
                <path fill="#DDA783" d="M131.617 84.857c-2.379-.279-11.432-.98-17.1-.926 1.131 4.718 5.692 7.605 10.684 7.368 4.33-.205 8.133-2.52 10.43-5.995-1.35-.164-2.701-.294-4.014-.447" mask="url(#prefix__j)"/>
            </g>
            <g>
                <mask id="prefix__l" fill="#fff">
                    <use xlink:href="#prefix__k"/>
                </mask>
                <path fill="#CDE1F9" d="M157.916 111.451l-4.971-10.717c-2.53-5.45-4.567-11.824-10.736-14.035-2.106-.756-4.383-1.128-6.657-1.404-2.3 3.45-6.09 5.75-10.403 5.953-4.974.237-9.518-2.629-10.668-7.316-1.83.018-3.306.115-4.08.334-2.205-.526-4.319-1.404-6.243-2.62-2.413-1.526-4.17-3.883-6.622-5.332-5.385-3.18-6.823 5.015-8.344 8.442-.564 1.27-1.188 2.518-1.922 3.699-.704 1.13-1.78 2.073-2.412 3.226-1.252 2.281.07 4.089 1.844 5.5 3.761 2.988 7.93 5.385 12.308 7.331-1.023 13.33-5.7 25.948-8.572 38.945-1.537 6.96-7.295 30.924 6.182 29.476 3.182-.343 6.239-1.78 9.379-2.425 3.54-.725 7.132-1.14 10.699-1.717 6.31-1.022 12.711-2.657 17.851-6.64 5.249-4.067 8.05-10.196 9.646-16.496 1.86-7.345 2.74-15.025 3.462-22.571 1.097-.136 2.19-.328 3.273-.59 2.509-.608 6.652-1.673 8.372-3.768 1.813-2.208-.411-5.175-1.386-7.275" mask="url(#prefix__l)"/>
            </g>
            <g>
                <mask id="prefix__n" fill="#fff">
                    <use xlink:href="#prefix__m"/>
                </mask>
                <path fill="#2D304D" d="M126.706 39.071c-3.67-.17-7.81.611-11.121 2.412-.273.107-4.387 2.778-4.373 3.438.066 3.41 4.512 4.529 7.44 5.057 2.152.388 4.272.282 6.444.261 2.08-.022 4.722.045 5.538 2.514.535 1.613-.695 2.544-1.09 3.919-.393 1.369.248 1.71.804 2.918 1.412 3.074-.468 5.527-1.422 8.38-.506 1.515-1.35 6.404 1.909 5.687 2.988-.656 5.414-5.72 6.65-7.998 2.131-3.925 3.883-8.247 3.776-12.73-.19-8.027-6.214-13.47-14.555-13.858" mask="url(#prefix__n)"/>
            </g>
            <g>
                <mask id="prefix__p" fill="#fff">
                    <use xlink:href="#prefix__o"/>
                </mask>
                <path fill="#0D1D38" d="M141.949 86.472c-10.528 15.213-26.799 25.749-44.89 29.33-.73-.026-1.474.113-2.196.403l-.043.006c.002.002.003.005.003.008-.095.04-.192.068-.285.111-1.31.619-.31 2.373.913 2.17.638-.105 1.273-.219 1.907-.341.545.125 1 .462 1.33.926-.306 1.639.108 3.668.463 5.024.563 2.157 1.83 4.082 4.016 4.84 2.634.913 5.768-.033 8.36-.684 2.745-.691 5.55-1.607 7.9-3.227 2.803-1.93 4.173-4.46 4.655-7.26 1.726-3.119.72-7.05-.258-10.236-.015-.054-.041-.1-.064-.15 7.89-5.184 14.802-11.865 20.238-19.722.87-1.257-1.185-2.445-2.05-1.198" mask="url(#prefix__p)"/>
            </g>
        </g>
    </g>
</svg>
