<svg xmlns="http://www.w3.org/2000/svg" width="53" height="50" viewBox="0 0 53 50">
    <g fill="#FFF">
        <path d="M51.416 18.538c-.258-.787-.935-1.324-1.767-1.4l-15.787-1.452-3.129-7.206c-.165-.38-.61-.556-.994-.392-.383.164-.56.605-.395.985l3.307 7.615c.11.252.35.425.625.45L49.51 18.63c.322.03.434.269.467.37.034.102.085.361-.158.573L37.57 30.244c-.208.18-.3.46-.238.728l3.584 15.77c.071.313-.124.493-.211.556-.087.063-.32.192-.598.028l-14.019-8.254c-.238-.14-.534-.14-.772 0l-14.018 8.254c-.279.164-.511.035-.599-.028-.087-.063-.282-.243-.21-.555l1.85-8.141c.091-.404-.165-.806-.572-.897-.408-.09-.812.163-.904.567l-1.85 8.14c-.184.809.122 1.613.797 2.1.676.486 1.542.526 2.26.103l13.632-8.026 13.632 8.026c.331.195.693.292 1.054.292.422 0 .841-.133 1.206-.395.676-.487.981-1.291.798-2.1l-3.486-15.335L50.817 20.7c.627-.546.857-1.375.599-2.163z" transform="translate(.64 .4)"/>
        <path d="M29.618 5.516l-1.761-4.081c-.332-.77-1.06-1.248-1.9-1.248-.84 0-1.567.478-1.9 1.248l-6.304 14.612-15.872 1.47c-.836.077-1.517.62-1.776 1.417-.26.797-.029 1.636.602 2.189l11.975 10.5-.911 4.038c-.093.409.165.815.574.907.057.012.113.019.168.019.348 0 .662-.24.741-.593l1.011-4.477c.061-.27-.03-.554-.24-.737L1.711 19.982c-.245-.214-.193-.476-.16-.579.034-.103.146-.345.47-.375l16.322-1.511c.277-.026.518-.2.628-.456l6.483-15.026c.13-.298.395-.33.503-.33.109 0 .374.032.503.33l1.761 4.081c.166.385.614.563 1 .397.385-.166.563-.612.397-.997z" transform="translate(.64 .4)"/>
    </g>
</svg>