<?xml version="1.0" encoding="UTF-8"?>
<svg width="28px" height="28px" viewBox="0 0 28 28" version="1.1" xmlns="http://www.w3.org/2000/svg" xmlns:xlink="http://www.w3.org/1999/xlink">
    <!-- Generator: Sketch 55.2 (78181) - https://sketchapp.com -->
    <title>Star filled</title>
    <desc>Created with Sketch.</desc>
    <g id="Lifestyle-Refund" stroke="none" stroke-width="1" fill="none" fill-rule="evenodd">
        <g id="2.3" transform="translate(-174.000000, -454.000000)" fill="#d7d7d7">
            <g id="Group-10-Copy-2" transform="translate(10.000000, 108.000000)">
                <g id="Group-5" transform="translate(20.000000, 346.000000)">
                    <g id="Group-3">
                        <g id="Star-filled" transform="translate(144.000000, 0.000000)">
                            <g id="Filled-Copy-4">
                                <path d="M13.4856194,22.2942286 L6.40729617,27.6039067 C6.01636691,27.8971553 5.46916006,27.8077466 5.18507546,27.4042067 C5.0203845,27.1702644 4.97416981,26.8690639 5.06076725,26.5940377 L7.76544265,18.004214 C7.88263691,17.6320149 7.75428649,17.2242505 7.44753791,16.9942422 L0.368218217,11.68598 C-0.0227660825,11.3928096 -0.109486816,10.8279682 0.17452204,10.4243715 C0.339169092,10.1903964 0.602394844,10.0519498 0.882546499,10.0519778 L9.63245097,10.0528528 C10.0115865,10.0528908 10.347612,9.80087848 10.4647364,9.42865587 L13.1677994,0.838291395 C13.317087,0.363853488 13.8106975,0.104171065 14.2703093,0.258274466 C14.5367577,0.347612079 14.7456549,0.563247837 14.8322006,0.838291395 L17.5352636,9.42865587 C17.652388,9.80087848 17.9884135,10.0528908 18.367549,10.0528528 L27.1174535,10.0519778 C27.6007027,10.0519295 27.9925383,10.4562782 27.9925383,10.9551161 C27.9925383,11.2443049 27.8584452,11.5160217 27.6317818,11.68598 L20.5524621,16.9942422 C20.2457135,17.2242505 20.1173631,17.6320149 20.2345573,18.004214 L22.9392327,26.5940377 C23.0886095,27.0684458 22.8371377,27.5780295 22.377555,27.7322248 C22.1111233,27.8216157 21.8193353,27.7739102 21.5927038,27.6039067 L14.5143806,22.2942286 C14.2076752,22.064159 13.7923248,22.064159 13.4856194,22.2942286 Z" id="Star-Copy"></path>
                            </g>
                        </g>
                    </g>
                </g>
            </g>
        </g>
    </g>
</svg>