<svg xmlns="http://www.w3.org/2000/svg" width="92" height="88" viewBox="0 0 92 88">
    <g fill="#FFF">
        <path d="M91.814 33.104c-.461-1.406-1.67-2.365-3.155-2.501L60.47 28.01 54.88 15.143c-.295-.679-1.09-.993-1.775-.7-.685.293-1.001 1.08-.706 1.76L58.305 29.8c.196.45.624.758 1.116.803L88.41 33.27c.575.053.776.481.835.662.06.182.151.645-.283 1.023L67.09 54.007c-.372.323-.535.822-.427 1.3l6.402 28.162c.127.559-.222.88-.377.992-.156.112-.571.342-1.069.049L46.586 69.77c-.425-.25-.954-.25-1.379 0L20.174 84.51c-.497.293-.912.063-1.068-.049-.156-.112-.504-.433-.377-.992l3.304-14.537c.164-.722-.293-1.438-1.02-1.6-.73-.163-1.451.29-1.615 1.011L16.094 82.88c-.328 1.443.218 2.879 1.424 3.748 1.207.869 2.753.94 4.035.185L45.897 72.48 70.24 86.813c.59.348 1.237.52 1.88.52.754 0 1.504-.236 2.155-.705 1.206-.87 1.752-2.305 1.424-3.748l-6.225-27.386 21.27-18.528c1.121-.976 1.53-2.455 1.07-3.862z"/>
        <path d="M52.889 9.85l-3.145-7.288C49.151 1.187 47.852.333 46.352.333s-2.8.854-3.392 2.229L31.7 28.656 3.36 31.279C1.866 31.417.65 32.387.187 33.811c-.463 1.423-.051 2.92 1.075 3.909l21.385 18.75-1.628 7.21c-.165.73.295 1.455 1.026 1.62.1.022.201.033.3.033.621 0 1.181-.427 1.323-1.057l1.806-7.995c.109-.484-.056-.99-.429-1.316L3.055 35.683c-.437-.383-.345-.851-.285-1.035.06-.183.261-.616.84-.67l29.145-2.698c.495-.045.925-.358 1.122-.813L45.454 3.634c.23-.532.705-.59.898-.59.194 0 .668.057.898.59l3.145 7.288c.297.687 1.095 1.005 1.784.709.689-.296 1.007-1.094.71-1.781z"/>
    </g>
</svg>
