<svg xmlns="http://www.w3.org/2000/svg" xmlns:xlink="http://www.w3.org/1999/xlink" width="612" height="164" viewBox="0 0 612 164">
    <defs>
        <path id="prefix__d" d="M3.844 5.756c.094 1.161-.483 2.087-1.113 2.976-.507.714-1.088 1.378-1.787 2.25 1.228-.509 2.172-1.09 3.212-1.46 1.477-.526 2.833-.375 4.13.469.882.574 1.693 1.236 2.472 1.94.32-.13-.019-.297.03-.442-.285-.563-.606-1.114-.848-1.695-.41-.987-.831-1.982-.578-3.103.23-1.918 1.733-3.1 2.84-4.696-1.808.815-3.346 1.96-5.288 1.762-1.976-.201-3.2-1.724-4.809-2.86.753 1.678 1.777 3.076 1.74 4.86z"/>
        <path id="prefix__f" d="M3.805 6.194c.118 1.45-.604 2.609-1.391 3.72-.633.892-1.36 1.723-2.234 2.812 1.535-.636 2.715-1.362 4.015-1.825 1.847-.658 3.541-.47 5.163.586 1.101.718 2.116 1.546 3.09 2.426.4-.162-.024-.372.036-.553-.356-.704-.756-1.393-1.06-2.119-.512-1.233-1.038-2.478-.721-3.879.287-2.397 2.166-3.874 3.55-5.87-2.26 1.02-4.183 2.45-6.61 2.203-2.47-.251-4-2.156-6.012-3.575.942 2.098 2.221 3.845 2.174 6.074z"/>
        <path id="prefix__j" d="M81.711 10.216c-2.302.96-4.566.013-7.025-.274 1.837 1.397 3.805 2.324 4.83 4.311.797 1.224.715 2.592.548 3.949-.132 1.09-.378 2.17-.63 3.548 1.055-1.296 1.75-2.498 2.679-3.53 1.317-1.463 2.908-2.11 4.844-1.955 1.317.106 2.61.352 3.893.662.278-.336-.199-.319-.231-.507-.654-.45-1.336-.866-1.952-1.36-1.045-.842-2.105-1.69-2.498-3.074-.89-2.254.063-4.455.33-6.874-1.51 1.978-2.52 4.161-4.788 5.104z"/>
        <rect id="prefix__a" width="584" height="136" x="0" y="0" rx="13.581"/>
        <rect id="prefix__h" width="117.14" height="136" x="0" y="0" rx="10.186"/>
        <filter id="prefix__b" width="107.2%" height="130.9%" x="-3.6%" y="-15.4%" filterUnits="objectBoundingBox">
            <feOffset in="SourceAlpha" result="shadowOffsetOuter1"/>
            <feGaussianBlur in="shadowOffsetOuter1" result="shadowBlurOuter1" stdDeviation="7"/>
            <feColorMatrix in="shadowBlurOuter1" values="0 0 0 0 0 0 0 0 0 0 0 0 0 0 0 0 0 0 0.1 0"/>
        </filter>
    </defs>
    <g fill="none" fill-rule="evenodd" transform="translate(14 14)">
        <mask id="prefix__c" fill="#fff">
            <use xlink:href="#prefix__a"/>
        </mask>
        <use fill="#000" filter="url(#prefix__b)" xlink:href="#prefix__a"/>
        <use fill="#FFF" xlink:href="#prefix__a"/>
        <g mask="url(#prefix__c)">
            <g transform="translate(-13.581 -51)">
                <path fill="#AF1045" d="M490.009 120.274c-40.213-9.297-11.686-7.167 18.449-37.949 30.135-30.78-62.198-87.846-132.05-44.327-67.7 42.178-50.501 86.644-13.89 107.796 42.704 19.928-148.831 100.001 24.068 98.581 172.9-1.42 143.636-114.805 103.423-124.101z" opacity=".05"/>
                <ellipse cx="166.372" cy="83.3" fill="#FFECF3" rx="6.791" ry="6.8"/>
                <path fill="#FFEEF3" d="M0 126.216c56.653-4.112 107.519 35.827 84.039 59.81-30.135 30.781-58.661 28.651-18.449 37.948 13.018 3.01 24.889 16.927 29.125 34.424L0 258.4z" opacity=".184"/>
                <g transform="translate(202.023 156.4)">
                    <mask id="prefix__e" fill="#fff">
                        <use xlink:href="#prefix__d"/>
                    </mask>
                    <path fill="#CC1150" d="M8.041 -6.2L19.081 7.678 4.933 18.964 -6.107 5.086z" mask="url(#prefix__e)"/>
                </g>
                <g transform="rotate(17 -352.41 1439.885)">
                    <mask id="prefix__g" fill="#fff">
                        <use xlink:href="#prefix__f"/>
                    </mask>
                    <path fill="#CC1150" d="M9.051 -8.752L22.852 8.596 5.167 22.704 -8.634 5.356z" mask="url(#prefix__g)"/>
                </g>
                <path fill="#E04278" fill-opacity=".25" d="M473.426 80.61c2.41 3.663 5.358 6.587 5.93 10.753.651 2.679-.374 5.03-1.538 7.307-.937 1.835-2.071 3.569-3.402 5.832 2.725-1.592 4.748-3.249 7.073-4.455 3.309-1.713 6.585-1.806 9.968-.263 2.304 1.049 4.474 2.328 6.584 3.716.713-.41-.155-.69-.094-1.044-.887-1.222-1.85-2.4-2.641-3.675-1.343-2.162-2.707-4.348-2.526-7.045-.162-4.548 2.962-7.796 4.99-11.878-3.985 2.49-7.201 5.667-11.881 5.842-4.756.177-8.224-2.972-12.463-5.09z"/>
                <path fill="#FFF" d="M423.832 65.094c1.896 2.155 4.073 3.782 4.824 6.431.666 1.678.215 3.296-.333 4.878-.44 1.276-1.018 2.504-1.675 4.093 1.622-1.282 2.783-2.54 4.18-3.534 1.99-1.413 4.106-1.773 6.44-1.08 1.59.469 3.112 1.1 4.607 1.808.425-.331-.163-.433-.156-.668-.686-.712-1.418-1.388-2.047-2.142-1.067-1.28-2.15-2.573-2.279-4.337-.519-2.935 1.211-5.326 2.154-8.157-2.356 1.978-4.153 4.33-7.171 4.872-3.068.549-5.603-1.177-8.544-2.164z"/>
                <path fill="#FF1744" d="M474.644 26.5c-2.312 2.082-5.25 1.88-8.179 2.542 2.605.913 5.196 1.214 7.074 3.16 1.349 1.132 1.734 2.794 2.021 4.475.233 1.354.327 2.738.526 4.482.755-1.975 1.134-3.69 1.837-5.295 1-2.282 2.604-3.7 4.886-4.306 1.553-.413 3.127-.65 4.713-.804.2-.514-.34-.297-.445-.508-.911-.27-1.843-.486-2.726-.823-1.497-.573-3.015-1.15-3.954-2.639-1.819-2.318-1.496-5.328-2.04-8.316-1.043 2.972-1.439 5.983-3.713 8.032z"/>
                <path fill="#FF1744" fill-opacity=".3" d="M549.038 192.297c.708 4.71-1.988 8.225-3.587 12.479 3.318-2.48 5.852-5.472 9.87-6.142 2.552-.71 4.97.248 7.333 1.346 1.903.884 3.73 1.966 6.097 3.23-1.866-2.662-3.717-4.626-5.16-6.902-2.051-3.238-2.51-6.484-1.379-9.875.769-2.31 1.779-4.49 2.901-6.617-.482-.697-.658.17-1.012.119-1.098.909-2.144 1.892-3.304 2.708-1.968 1.384-3.957 2.789-6.619 2.676-4.439.272-7.972-2.746-12.2-4.656 2.888 3.888 6.362 7 7.06 11.634z" opacity=".5"/>
            </g>
        </g>
        <mask id="prefix__i" fill="#fff">
            <use xlink:href="#prefix__h"/>
        </mask>
        <rect width="114.084" height="132.944" x="1.528" y="1.528" stroke="#FFF" stroke-width="3.056" rx="10.186"/>
        <g mask="url(#prefix__i)">
            <g>
                <g>
                    <path fill="#CA1B56" d="M32.787 13.6c1.631 8.995-4.336 17.604-13.314 19.233-8.978 1.629-17.58-4.337-19.206-13.332C-1.359 10.51 4.603 1.897 13.581.268c8.978-1.629 17.58 4.337 19.206 13.332" transform="rotate(18 -14.241 112.15) rotate(-15 221.396 -44.59)"/>
                    <path fill="#FFF" d="M20.936 11.989c-.011.004-.026.008-.038.008l-2.074.408c-.295-.512-.574-.986-.87-1.502.763-.15 1.51-.295 2.254-.44.134-.03.246-.055.345-.084.039 0 .073-.004.111-.012.506-.1.832-.645.74-1.22-.096-.569-.583-.956-1.085-.856l-.019.004h-.004l-8.605 1.693-.008.008c-.452.138-.74.653-.647 1.194.092.57.578.957 1.08.857.031-.004.062-.012.089-.025.138.004.287-.017.444-.058.595-.162 1.204-.27 1.813-.362.955-.146 1.721.254 2.373 1.181-.065.017-.123.034-.172.046l-4.316.849v.004c-.48.12-.79.649-.698 1.206.092.537.525.911.993.87.172.024.383 0 .667-.055 1.265-.25 2.53-.499 3.944-.773-.2.424-.314.77-.498 1.056-.35.55-.844.874-1.426 1.007-.487.108-.974.212-1.465.283-.498.075-.873.3-.992.89-.115.595.142 1.343.57 1.66 1.546 1.14 3.094 2.27 4.639 3.406.617.45 1.226.903 1.844 1.348.552.4 1.119.304 1.41-.225.3-.545.142-1.16-.402-1.564-1.583-1.164-3.163-2.32-4.746-3.477-.088-.063-.199-.088-.28-.183 1.963-.753 3.032-2.246 3.25-4.576l1.65-.324c.34-.07.566-.137.727-.262.357-.2.564-.653.487-1.12-.096-.573-.582-.956-1.085-.86" transform="rotate(18 -14.241 112.15) rotate(-15 221.396 -44.59)"/>
                </g>
                <path fill="#FFF" stroke="#CA1B56" stroke-width="2.547" d="M22.184 74.375V103.062c0 5.054 1.31 9.787 3.606 13.912 4.884 8.811 14.266 14.776 25.045 14.776 15.823 0 28.645-12.846 28.645-28.688V74.376H22.184z" transform="rotate(18 -14.241 112.15)"/>
                <path stroke="#CA1B56" stroke-width="2.547" d="M79.502 74.375h13.125c3.956 0 7.162 3.207 7.162 7.162 0 .48-.048.96-.144 1.43-3.218 15.788-9.94 23.681-20.165 23.681 0-3.585.022-8.614.022-13.558V74.375zM22.016 74.35H8.891c-3.956 0-7.162 3.206-7.162 7.162 0 .48.048.96.144 1.43 3.218 15.788 9.94 23.681 20.165 23.681 0-3.586-.022-8.614-.022-13.558V74.35z" transform="rotate(18 -14.241 112.15)"/>
                <path fill="#CA1B56" d="M46.552 112.616c.514 0 1.008.248 1.314.678l3.117 4.383 3.116-4.383c.352-.502.97-.743 1.575-.658l5.302.893-.891-5.309c-.104-.613.156-1.226.657-1.584l4.372-3.124-4.372-3.124c-.5-.359-.761-.972-.657-1.585l.891-5.309-5.302.894c-.612.097-1.223-.15-1.575-.66l-3.116-4.382-3.117 4.383c-.364.509-.956.756-1.58.659l-5.297-.894.885 5.309c.104.613-.15 1.226-.65 1.585l-4.38 3.124 4.38 3.124c.5.358.754.971.65 1.584l-.885 5.309 5.296-.893c.091-.014.176-.02.267-.02m3.226 7.296l-3.525-4.956-5.988 1.004c-.477.072-.948-.078-1.288-.412-.34-.335-.495-.82-.412-1.292l1.008-6.008-4.95-3.527c-.388-.281-.62-.73-.62-1.208s.232-.926.62-1.201l4.95-3.533-1.008-6.003c-.083-.472.072-.956.412-1.297.34-.335.817-.49 1.288-.412l5.988 1.01 3.525-4.956c.554-.783 1.855-.783 2.403 0l3.525 4.956 5.988-1.01c.477-.078.954.077 1.288.412.34.34.495.825.418 1.297l-1.008 6.003 4.944 3.533c.388.275.62.723.62 1.201 0 .479-.232.927-.62 1.208l-4.944 3.527 1.008 6.008c.077.473-.078.957-.418 1.292-.334.334-.811.484-1.288.412l-5.988-1.004-3.525 4.956c-.274.388-.721.622-1.199.622-.477 0-.93-.234-1.204-.622z" transform="rotate(18 -14.241 112.15)"/>
                <path stroke="#CA1B56" stroke-width="7.162" d="M21.884 0L21.884 14.344" transform="rotate(18 -14.241 112.15) translate(28.948 131.75)"/>
                <g>
                    <path fill="#CA1B56" d="M23.098 15.809c-2.158 6.203-8.928 9.477-15.123 7.32C1.78 20.97-1.494 14.19.665 7.987 2.821 1.783 9.591-1.496 15.786.666c6.195 2.16 9.47 8.94 7.311 15.143" transform="rotate(18 -14.241 112.15) rotate(-35 68.809 -60.631)"/>
                    <path fill="#FFF" d="M16.467 10.237c-.013 0-.021-.004-.034-.008l-1.731-.607c-.026-.485-.048-.934-.07-1.423.64.222 1.264.44 1.888.659.109.035.205.065.292.091l.091.035c.419.149.885-.091 1.038-.532.157-.445-.061-.921-.48-1.07-.004 0-.013 0-.017-.004h-.004l-7.198-2.51s-.004.004-.009.004c-.396-.096-.82.135-.963.554-.153.441.06.917.484 1.066.026.008.052.017.078.022.1.06.223.109.358.148.514.14 1.02.327 1.517.524.78.31 1.207.917 1.334 1.85-.057-.017-.105-.03-.148-.047L9.283 7.73v.005c-.41-.122-.855.113-1.007.546-.144.414.04.86.41 1.034.122.092.292.166.527.249 1.06.367 2.115.738 3.296 1.148-.314.214-.54.406-.793.528-.48.236-.981.25-1.478.088-.415-.131-.824-.267-1.225-.428-.406-.162-.785-.166-1.103.196-.323.371-.423 1.004-.223 1.41.72 1.458 1.448 2.916 2.171 4.375.288.58.576 1.16.868 1.733.261.52.728.694 1.16.45.44-.254.566-.752.31-1.271-.738-1.489-1.479-2.977-2.224-4.466-.044-.083-.118-.148-.14-.253 1.783.319 3.187-.266 4.273-1.803.457.157.915.319 1.377.48.284.1.484.144.658.127.35.013.685-.21.811-.572.153-.445-.065-.921-.484-1.07" transform="rotate(18 -14.241 112.15) rotate(-35 68.809 -60.631)"/>
                </g>
                <g>
                    <path fill="#CA1B56" d="M20.324 10.176c0 5.618-4.552 10.176-10.162 10.176C4.552 20.352 0 15.794 0 10.176 0 4.554 4.552 0 10.162 0c5.61 0 10.162 4.554 10.162 10.176" transform="rotate(18 -14.241 112.15) rotate(-31 26.807 -19.66)"/>
                    <path fill="#FFF" d="M13.4 7.544h-1.599c-.155-.386-.303-.745-.458-1.132h1.711c.1 0 .187-.004.263-.011.028.003.055.007.083.007.382 0 .689-.326.689-.725 0-.398-.307-.725-.689-.725H6.863l-.004.004c-.35.032-.625.343-.625.721 0 .399.307.725.689.725.023 0 .047 0 .071-.004.1.02.211.024.33.016.458-.027.92-.02 1.373 0 .72.028 1.234.399 1.6 1.116-.052.004-.096.008-.136.008H6.895c-.37.016-.66.335-.66.725 0 .375.274.685.62.721.123.04.282.052.493.052h2.988c-.195.263-.322.478-.493.65-.322.326-.724.482-1.17.49-.37.008-.74.016-1.11 0-.374-.016-.676.087-.831.466-.16.39-.064.932.21 1.203.995.976 1.99 1.948 2.985 2.92.398.387.791.778 1.19 1.16.357.343.783.355 1.062.036.286-.327.246-.769-.104-1.116-1.018-.996-2.037-1.988-3.056-2.984-.055-.052-.13-.084-.183-.16 1.532-.25 2.5-1.115 2.945-2.665h1.25c.258 0 .433-.016.568-.08.283-.087.49-.366.49-.693 0-.398-.307-.725-.689-.725" transform="rotate(18 -14.241 112.15) rotate(-31 26.807 -19.66)"/>
                </g>
            </g>
        </g>
        <path fill="#DA1C5C" d="M224.758 15.289c-1.752.065-3.03-1.095-4.59-1.875.887 1.349 1.973 2.426 2.184 3.96.24.987-.138 1.853-.567 2.691-.345.676-.763 1.315-1.253 2.148 1.004-.586 1.749-1.196 2.605-1.64 1.219-.632 2.425-.666 3.671-.098.85.387 1.648.858 2.425 1.369.263-.151-.057-.254-.034-.384-.327-.45-.681-.884-.973-1.354-.495-.796-.997-1.601-.93-2.594-.06-1.676 1.09-2.872 1.837-4.375-1.467.917-2.652 2.087-4.375 2.152z"/>
        <use fill="#FFE1EC" transform="rotate(87 82.812 13.43)" xlink:href="#prefix__j"/>
        <path fill="#FF8FB5" d="M23.824 40.352c-3.504.13-6.058-2.19-9.18-3.75 1.775 2.698 3.946 4.852 4.368 7.921.48 1.973-.276 3.705-1.133 5.382-.69 1.352-1.526 2.63-2.507 4.297 2.008-1.173 3.498-2.394 5.21-3.282 2.438-1.262 4.851-1.33 7.343-.194 1.697.773 3.295 1.715 4.85 2.737.525-.302-.114-.508-.07-.768-.653-.9-1.362-1.769-1.945-2.708-.99-1.592-1.993-3.203-1.86-5.189-.12-3.35 2.181-5.743 3.675-8.75-2.935 1.835-5.304 4.175-8.751 4.304z"/>
        <path fill="#FFBDD4" d="M123.648 75.436c2.368 3.598 5.262 6.47 5.825 10.562.64 2.63-.368 4.94-1.51 7.176-.92 1.802-2.035 3.505-3.342 5.728 2.676-1.564 4.663-3.19 6.946-4.375 3.25-1.683 6.468-1.774 9.79-.26 2.264 1.031 4.394 2.287 6.467 3.65.7-.403-.152-.677-.092-1.024-.871-1.2-1.817-2.358-2.595-3.61-1.318-2.123-2.658-4.27-2.48-6.919-.16-4.467 2.909-7.657 4.9-11.666-3.913 2.446-7.072 5.566-11.668 5.738-4.672.174-8.077-2.919-12.24-5z"/>
        <ellipse cx="146.849" cy="28.05" fill="#DA1C5C" rx="2.547" ry="2.55"/>
        <ellipse cx="102.709" cy="79.05" fill="#DA1C5C" rx="4.244" ry="4.25"/>
        <path stroke="#FFF" stroke-linecap="round" stroke-width="3.395" d="M539.86 51L556.837 68 539.86 85"/>
    </g>
</svg>
