<svg xmlns="http://www.w3.org/2000/svg" width="18" height="18" viewBox="0 0 18 18">
    <g fill="none" fill-rule="evenodd">
        <g fill="#D8D8D8" fill-rule="nonzero">
            <g>
                <g>
                    <path d="M13.15 8.499c-.235-1.914-1.745-3.42-3.66-3.65-.164-.018-.33-.028-.496-.028-1.691.003-3.215 1.025-3.858 2.59-.643 1.564-.28 3.362.92 4.554.64.611 1.005 1.454 1.015 2.338v.483h3.858V14.3c.002-.867.355-1.696.978-2.3.94-.907 1.4-2.203 1.242-3.5v-.001zM9 18c.409 0 .773-.258.91-.643H8.09c.137.385.501.643.91.643zM7.393 16.393c0 .177.144.321.321.321h2.572c.177 0 .32-.144.321-.321v-.964H7.393v.964zM9 2.893c.355 0 .643-.288.643-.643V.643C9.643.288 9.355 0 9 0c-.355 0-.643.288-.643.643V2.25c0 .355.288.643.643.643zM3.575 4.484c.254.243.654.243.909 0 .12-.12.188-.284.188-.455 0-.17-.068-.334-.188-.454L3.347 2.438c-.12-.12-.284-.188-.454-.188-.17 0-.334.068-.455.188-.12.12-.188.284-.188.455 0 .17.068.334.188.454l1.137 1.137zM2.893 9c0-.355-.288-.643-.643-.643H.643C.288 8.357 0 8.645 0 9c0 .355.288.643.643.643H2.25c.355 0 .643-.288.643-.643zM17.357 8.357H15.75c-.355 0-.643.288-.643.643 0 .355.288.643.643.643h1.607c.355 0 .643-.288.643-.643 0-.355-.288-.643-.643-.643zM14.425 4.484l1.137-1.137c.162-.162.225-.399.166-.62-.06-.222-.233-.396-.455-.455-.221-.06-.458.004-.62.166l-1.137 1.137c-.12.12-.188.284-.188.454 0 .17.068.334.188.455.255.243.655.243.91 0z" transform="translate(-472 -478) translate(464 470) translate(8 8)"/>
                </g>
            </g>
        </g>
    </g>
</svg>
