<svg height="22" viewBox="0 0 22 22" width="22" xmlns="http://www.w3.org/2000/svg"><path d="m.917 11.898c.506 0 .916-.41.916-.916 0-5.045 4.087-9.149 9.11-9.149 2.203 0 4.273.78 5.904 2.182h-.84a.917.917 0 0 0 0 1.833h3.009c.506 0 .916-.41.916-.917v-3.021a.917.917 0 0 0 -1.833 0v.764a10.83 10.83 0 0 0 -7.156-2.674c-6.034 0-10.943 4.927-10.943 10.982 0 .506.41.916.917.916zm20.166-1.796a.916.916 0 0 0 -.916.916c0 5.045-4.087 9.149-9.11 9.149a9.015 9.015 0 0 1 -5.848-2.132h.88a.917.917 0 0 0 0-1.833h-3.007l-.023.002c-.035.001-.07.006-.104.01-.026.005-.052.007-.077.013-.03.007-.06.018-.09.028-.027.01-.055.018-.082.03-.025.011-.049.026-.073.04-.03.016-.058.032-.085.05-.006.006-.014.009-.021.014-.016.012-.028.027-.042.04a.802.802 0 0 0 -.179.206.944.944 0 0 0 -.135.428c-.001.019-.005.037-.005.056v3.022a.917.917 0 0 0 1.833 0v-.73a10.832 10.832 0 0 0 7.059 2.589c6.032 0 10.942-4.927 10.942-10.982a.917.917 0 0 0 -.917-.916z" fill="#ff1744"/></svg>