<svg xmlns="http://www.w3.org/2000/svg" width="34" height="34" viewBox="0 0 34 34">
    <g fill="none" fill-rule="evenodd">
        <path d="M0 0H34V34H0z"/>
        <g stroke="#DA1C5C" stroke-linecap="round" stroke-linejoin="round">
            <path d="M14.286 25.134L14.286 18.562M21.661 20.912L21.661 13.813M6.376 21.16L14.286 25.631 21.661 20.931M21.661 13.623L13.751 9.152 6.376 13.852M6.376 14.091L14.286 18.562 21.661 13.852M10.111 16.135L17.486 11.435M18.662 0L20.161 4.48 15.681 6.171" transform="translate(3.478 1.477)"/>
            <path d="M26.906 22.402c-3.014 7.123-11.232 10.454-18.356 7.44C1.428 26.829-1.903 18.61 1.11 11.488 4.126 4.364 12.343 1.033 19.467 4.047l.141.061M27.937 15.438c.048.496.077 1.003.077 1.509 0 1.874-.377 3.729-1.108 5.455" transform="translate(3.478 1.477)"/>
        </g>
    </g>
</svg>
