<svg xmlns="http://www.w3.org/2000/svg" width="34" height="34" viewBox="0 0 34 34">
    <g fill="none" fill-rule="evenodd">
        <path d="M0 0H34V34H0z"/>
        <g stroke="#4A4A4A" stroke-linecap="round" stroke-linejoin="round">
            <path d="M14.764 25.612L14.764 19.039M22.139 21.389L22.139 14.291M6.854 21.638L14.764 26.108 22.139 21.408M22.139 14.1L14.229 9.629 6.854 14.329M6.854 14.568L14.764 19.04 22.139 14.329M10.589 16.613L17.964 11.913" transform="translate(3 1)"/>
            <g>
                <path d="M19.139 0.094L20.639 4.575 16.159 6.265" transform="translate(3 1) translate(0 .383)"/>
                <path d="M27.383 22.496C24.37 29.62 16.152 32.95 9.028 29.936c-7.122-3.013-10.453-11.231-7.44-18.354C4.604 4.458 12.82 1.127 19.945 4.142l.141.06M28.415 15.532c.048.497.077 1.003.077 1.51 0 1.874-.377 3.728-1.108 5.454" transform="translate(3 1) translate(0 .383)"/>
            </g>
        </g>
    </g>
</svg>
