<?xml version="1.0" encoding="UTF-8"?>
<svg width="19px" height="19px" viewBox="0 0 19 19" version="1.1" xmlns="http://www.w3.org/2000/svg" xmlns:xlink="http://www.w3.org/1999/xlink">
    <title>Group 16</title>
    <g id="V2.0" stroke="none" stroke-width="1" fill="none" fill-rule="evenodd">
        <g id="2" transform="translate(-200.000000, -571.000000)">
            <g id="Group-15" transform="translate(188.000000, 562.000000)">
                <g id="Group-16" transform="translate(12.000000, 10.000000)">
                    <path d="M15.4331427,13.4618182 C14.7354722,12.8218182 14.0959409,12.1236364 13.4564096,11.4836364 C12.7587391,10.7854545 11.7703725,10.7854545 11.0145628,11.4836364 L10.8982844,11.5418182 C10.5494492,11.8909091 10.2006139,12.1818182 9.85177865,12.5890909 C9.79363944,12.5309091 9.73550023,12.5309091 9.67736102,12.5309091 C9.5610826,12.4727273 9.32852577,12.4145455 9.21224735,12.2981818 C8.16574159,11.6581818 7.23551424,10.7854545 6.24714769,9.62181818 C5.78203402,9.09818182 5.49133797,8.57454545 5.25878114,8.10909091 C5.54947718,7.81818182 5.84017323,7.52727273 6.13086927,7.23636364 L6.36342611,7.00363636 C7.11923582,6.24727273 7.11923582,5.25818182 6.36342611,4.50181818 C6.13086927,4.26909091 5.89831244,4.03636364 5.6657556,3.80363636 L5.49133797,3.51272727 L5.49133797,3.51272727 C5.37505955,3.39636364 5.31692035,3.33818182 5.20064193,3.22181818 C4.96808509,2.98909091 4.73552826,2.75636364 4.50297142,2.52363636 C3.80530091,1.82545455 2.81693436,1.82545455 2.06112464,2.52363636 C1.88670701,2.69818182 1.71228939,2.87272727 1.53787176,3.04727273 C1.30531492,3.28 1.07275809,3.51272727 0.840201253,3.74545455 C0.375087581,4.21090909 0.0843915355,4.79272727 0.0262523265,5.43272727 C-0.0900260915,6.48 0.200669954,7.41090909 0.491365999,8.10909091 C1.07275809,9.68 2.00298543,11.1345455 3.22390882,12.7054545 C4.79366746,14.5672727 6.65412215,16.0218182 8.80527289,17.0690909 C10.0261963,17.6509091 11.0145628,17.9418182 12.0029294,18 C12.1192078,18 12.1192078,18 12.2354862,18 C13.1075744,18 13.8052449,17.7090909 14.3284977,17.0690909 C14.5610546,16.8363636 14.7936114,16.6036364 15.0261682,16.3709091 C15.1424467,16.2545455 15.2587251,16.1381818 15.4331427,16.0218182 C16.1889524,15.2072727 16.1889524,14.2181818 15.4331427,13.4618182 Z M14.677333,15.2654545 C14.5610546,15.3818182 14.4447762,15.4981818 14.2703585,15.6145455 C14.0378017,15.8472727 13.7471057,16.1381818 13.5145488,16.4290909 C13.1075744,16.8363636 12.7005999,17.0109091 12.0029294,16.9527273 C11.1889805,16.8945455 10.2587531,16.6036364 9.21224735,16.1381818 C7.23551424,15.1490909 5.43319876,13.7527273 3.92157933,12.0072727 C2.75879515,10.6109091 1.94484622,9.21454545 1.36345413,7.76 C1.1308973,6.88727273 0.956479671,6.24727273 1.01461888,5.54909091 C1.07275809,5.14181818 1.18903651,4.85090909 1.47973255,4.56 C1.7704286,4.32727273 2.00298543,4.03636364 2.23554227,3.80363636 C2.4099599,3.62909091 2.58437752,3.45454545 2.70065594,3.33818182 C2.93321278,3.16363636 3.1076304,3.04727273 3.28204803,3.04727273 C3.45646566,3.04727273 3.63088328,3.16363636 3.80530091,3.33818182 C4.03785775,3.57090909 4.27041458,3.80363636 4.50297142,4.03636364 C4.56111063,4.09454545 4.67738905,4.21090909 4.79366746,4.32727273 L5.08436351,4.61818182 C5.31692035,4.85090909 5.54947718,5.08363636 5.78203402,5.31636364 C6.18900848,5.72363636 6.18900848,6.01454545 5.78203402,6.36363636 L5.49133797,6.59636364 C5.20064193,6.88727273 4.85180667,7.23636364 4.50297142,7.52727273 C4.32855379,7.70181818 4.15413617,7.99272727 4.32855379,8.4 C4.56111063,9.04 4.96808509,9.62181818 5.49133797,10.32 C6.47970453,11.5418182 7.52621029,12.5309091 8.68899447,13.2290909 C8.86341209,13.3454545 9.03782972,13.4618182 9.21224735,13.52 C9.32852577,13.5781818 9.38666498,13.5781818 9.50294339,13.6363636 C9.85177865,13.8109091 10.2006139,13.7527273 10.4913099,13.52 C10.8982844,13.1709091 11.2471197,12.7636364 11.5959549,12.4145455 L11.7122333,12.3563636 C12.0610686,12.0072727 12.4099038,12.0072727 12.7587391,12.3563636 C13.3982704,12.9963636 14.0378017,13.6363636 14.7354722,14.3345455 C15.0261682,14.5090909 15.0261682,14.9163636 14.677333,15.2654545 Z" id="Shape" fill="#DA1C5C"></path>
                    <g id="Group-13" transform="translate(9.000000, 0.000000)" stroke="#DA1C5C" stroke-linecap="round" stroke-linejoin="round">
                        <g id="Group-14">
                            <circle id="Oval" cx="4.5" cy="4.5" r="4.5"></circle>
                            <g id="Group-12" transform="translate(4.000000, 1.000000)">
                                <line x1="0.5" y1="3.5" x2="0.5" y2="0.5" id="Line"></line>
                                <line x1="0.5" y1="3.5" x2="2.5" y2="3.5" id="Line-2"></line>
                            </g>
                        </g>
                    </g>
                </g>
            </g>
        </g>
    </g>
</svg>