<svg xmlns="http://www.w3.org/2000/svg" width="42" height="44" viewBox="0 0 42 44">
    <g fill="none" fill-rule="evenodd">
        <g>
            <g>
                <g>
                    <g>
                        <g>
                            <g>
                                <g>
                                    <g>
                                        <path stroke="#EE9AB5" stroke-linecap="round" stroke-linejoin="round" d="M0 1.23h7.866l3.085 27.488c.118.983.964 1.73 1.947 1.73h22.458c.826 0 1.573-.511 1.848-1.298l4.47-21.888" transform="translate(-493 -835) translate(448 791) translate(16 16) translate(29 28)"/>
                                        <path fill="#EE9AB5" d="M7.834 9.212L42 9.308 36.63 30.11 11.503 29.877z" transform="translate(-493 -835) translate(448 791) translate(16 16) translate(29 28)"/>
                                        <path fill="#EE9AB5" stroke="#FFF" stroke-linecap="round" stroke-linejoin="round" d="M37.183 38.666c0 2.17-1.762 3.933-3.933 3.933s-3.933-1.762-3.933-3.933c0-2.172 1.762-3.934 3.933-3.934s3.933 1.762 3.933 3.934zM18.817 38.666c0 2.17-1.762 3.933-3.933 3.933s-3.933-1.762-3.933-3.933c0-2.172 1.762-3.934 3.933-3.934 2.17 0 3.933 1.762 3.933 3.934z" transform="translate(-493 -835) translate(448 791) translate(16 16) translate(29 28)"/>
                                        <path fill="#EE9AB5" stroke="#FFF" stroke-linejoin="round" d="M17.952 2.973l.346 12.345 4.423-3.397 5.119 6.495c.54.492 1.241.414 2.101-.234.86-.648.966-1.402.318-2.262l-4.625-6.104 4.112-3.268-11.794-3.575z" transform="translate(-493 -835) translate(448 791) translate(16 16) translate(29 28) rotate(37 24.314 10.854)"/>
                                    </g>
                                </g>
                            </g>
                        </g>
                    </g>
                </g>
            </g>
        </g>
    </g>
</svg>
