<svg xmlns="http://www.w3.org/2000/svg" width="34" height="34" viewBox="0 0 34 34">
    <g fill="none" fill-rule="evenodd">
        <path d="M0 0H34V34H0z"/>
        <g stroke="#DA1C5C" stroke-linecap="round" stroke-linejoin="round">
            <path d="M7.807 16.916H19.52V1.301c0-.72-.583-1.301-1.302-1.301H1.301C.583 0 0 .582 0 1.301v14.314c0 .72.583 1.301 1.301 1.301h1.301" transform="translate(2 7)"/>
            <path d="M26.025 16.916h2.602c.718 0 1.301-.582 1.301-1.301V9.647c0-.344-.136-.675-.38-.92l-4.443-4.442c-.245-.245-.575-.381-.92-.381h-4.666v13.012h1.3M7.807 16.916c0 1.437-1.165 2.603-2.602 2.603-1.437 0-2.603-1.166-2.603-2.603 0-1.437 1.166-2.602 2.603-2.602 1.437 0 2.602 1.165 2.602 2.602z" transform="translate(2 7)"/>
            <path d="M26.025 16.916c0 1.437-1.166 2.603-2.603 2.603-1.436 0-2.602-1.166-2.602-2.603 0-1.437 1.166-2.602 2.602-2.602 1.437 0 2.603 1.165 2.603 2.602z" transform="translate(2 7)"/>
        </g>
    </g>
</svg>
