<svg xmlns="http://www.w3.org/2000/svg" width="25" height="32" viewBox="0 0 25 32">
    <g fill="none" fill-rule="evenodd">
        <path d="M0 0H34V34H0z" transform="translate(-4 -1)"/>
        <g stroke="#4A4A4A" stroke-linecap="round" stroke-linejoin="round">
            <path d="M0.658 0.658L4.605 4.605 8.553 0.658 12.5 4.605 16.447 0.658 20.395 4.605 24.342 0.658" transform="translate(-4 -1) translate(4 1)"/>
            <path d="M24.342.658v28.947c0 .728-.59 1.316-1.316 1.316H1.974c-.727 0-1.316-.588-1.316-1.316V.658" transform="translate(-4 -1) translate(4 1)"/>
            <path d="M17.763 8.553v2.631c0 2.907-2.356 5.263-5.263 5.263s-5.263-2.356-5.263-5.263V8.553" transform="translate(-4 -1) translate(4 1)"/>
        </g>
    </g>
</svg>
