<svg xmlns="http://www.w3.org/2000/svg" width="34" height="34" viewBox="0 0 34 34">
    <g fill="none" fill-rule="evenodd">
        <path d="M0 0H34V34H0z"/>
        <g stroke="#DA1C5C" stroke-linecap="round" stroke-linejoin="round">
            <path d="M0 0L3.84 3.84 7.68 0 11.52 3.84 15.36 0 19.2 3.84 23.04 0" transform="translate(5.48 2.6)"/>
            <path d="M23 0v27.74c0 .696-.572 1.26-1.278 1.26H1.278C.572 29 0 28.436 0 27.74V0" transform="translate(5.48 2.6)"/>
            <path d="M16.64 7.68v2.56c0 2.828-2.292 5.12-5.12 5.12-2.828 0-5.12-2.292-5.12-5.12V7.68" transform="translate(5.48 2.6)"/>
        </g>
    </g>
</svg>
