<svg xmlns="http://www.w3.org/2000/svg" width="21" height="20" viewBox="0 0 21 20">
    <g fill="#000" fill-rule="evenodd">
        <path fill-rule="nonzero" d="M16.47.013H3.5A3.505 3.505 0 0 0 0 3.514v8c0 1.93 1.57 3.5 3.501 3.5h8.26l3.955 3.955a.7.7 0 0 0 1.195-.495v-3.487a3.507 3.507 0 0 0 3.06-3.474V3.514c0-1.93-1.57-3.501-3.501-3.501zm2.1 11.5c0 1.159-.942 2.101-2.1 2.101h-.26a.7.7 0 0 0-.7.7v2.469l-2.963-2.964a.7.7 0 0 0-.495-.205h-8.55c-1.159 0-2.101-.942-2.101-2.1v-8c0-1.158.942-2.1 2.1-2.1H16.47c1.158 0 2.1.942 2.1 2.1v8z"/>
        <path d="M15.14 4.972H4.83a.7.7 0 0 0 0 1.4H15.14a.7.7 0 0 0 0-1.4zM15.14 8.893H4.83a.7.7 0 0 0 0 1.4H15.14a.7.7 0 0 0 0-1.4z"/>
    </g>
</svg>
