<svg xmlns="http://www.w3.org/2000/svg" xmlns:xlink="http://www.w3.org/1999/xlink" width="232" height="159" viewBox="0 0 232 159">
    <defs>
        <path id="vlq6wd0ffa" d="M0 1.035L230.981 1.035 230.981 155.274 0 155.274z"/>
        <path id="0uu823a83c" d="M172.721 1.034c-20.535.037-42.38 7.22-63.038 14.406-26.29 9.14-50.649 18.282-67.909 12.692-19.575-6.337-35.513 7.621-40.3 27.977-5.243 22.297 2.893 52.272 34.293 71.644C182.31 218.15 267.555 60.695 215.727 16.1c-12.783-10.998-27.35-15.032-42.655-15.066"/>
        <path id="vpyyx9abee" d="M172.721 1.034c-20.535.037-42.38 7.22-63.038 14.406-26.29 9.14-50.649 18.282-67.909 12.692-19.575-6.337-35.513 7.621-40.3 27.977-5.243 22.297 2.893 52.272 34.293 71.644C182.31 218.15 267.555 60.695 215.727 16.1c-12.783-10.998-27.35-15.032-42.655-15.066"/>
        <path id="x6behg8mpg" d="M172.721 1.034c-20.535.037-42.38 7.22-63.038 14.406-26.29 9.14-50.649 18.282-67.909 12.692-19.575-6.337-35.513 7.621-40.3 27.977-5.243 22.297 2.893 52.272 34.293 71.644C182.31 218.15 267.555 60.695 215.727 16.1c-12.783-10.998-27.35-15.032-42.655-15.066"/>
        <path id="5t80lpg9li" d="M172.721 1.034c-20.535.037-42.38 7.22-63.038 14.406-26.29 9.14-50.649 18.282-67.909 12.692-19.575-6.337-35.513 7.621-40.3 27.977-5.243 22.297 2.893 52.272 34.293 71.644C182.31 218.15 267.555 60.695 215.727 16.1c-12.783-10.998-27.35-15.032-42.655-15.066"/>
        <path id="5e978p26pk" d="M172.721 1.034c-20.535.037-42.38 7.22-63.038 14.406-26.29 9.14-50.649 18.282-67.909 12.692-19.575-6.337-35.513 7.621-40.3 27.977-5.243 22.297 2.893 52.272 34.293 71.644C182.31 218.15 267.555 60.695 215.727 16.1c-12.783-10.998-27.35-15.032-42.655-15.066"/>
        <path id="eq4pgo752m" d="M172.721 1.034c-20.535.037-42.38 7.22-63.038 14.406-26.29 9.14-50.649 18.282-67.909 12.692-19.575-6.337-35.513 7.621-40.3 27.977-5.243 22.297 2.893 52.272 34.293 71.644C182.31 218.15 267.555 60.695 215.727 16.1c-12.783-10.998-27.35-15.032-42.655-15.066"/>
        <path id="dip3evn41o" d="M172.721 1.034c-20.535.037-42.38 7.22-63.038 14.406-26.29 9.14-50.649 18.282-67.909 12.692-19.575-6.337-35.513 7.621-40.3 27.977-5.243 22.297 2.893 52.272 34.293 71.644C182.31 218.15 267.555 60.695 215.727 16.1c-12.783-10.998-27.35-15.032-42.655-15.066h-.35z"/>
        <path id="my29zusxuq" d="M172.721 1.034c-20.535.037-42.38 7.22-63.038 14.406-26.29 9.14-50.649 18.282-67.909 12.692-19.575-6.337-35.513 7.621-40.3 27.977-5.243 22.297 2.893 52.272 34.293 71.644C182.31 218.15 267.555 60.695 215.727 16.1c-12.783-10.998-27.35-15.032-42.655-15.066"/>
        <path id="z62wqri92s" d="M172.721 1.034c-20.535.037-42.38 7.22-63.038 14.406-26.29 9.14-50.649 18.282-67.909 12.692-19.575-6.337-35.513 7.621-40.3 27.977-5.243 22.297 2.893 52.272 34.293 71.644C182.31 218.15 267.555 60.695 215.727 16.1c-12.783-10.998-27.35-15.032-42.655-15.066"/>
        <path id="p5qzrzoqlu" d="M172.721 1.034c-20.535.037-42.38 7.22-63.038 14.406-26.29 9.14-50.649 18.282-67.909 12.692-19.575-6.337-35.513 7.621-40.3 27.977-5.243 22.297 2.893 52.272 34.293 71.644C182.31 218.15 267.555 60.695 215.727 16.1c-12.783-10.998-27.35-15.032-42.655-15.066"/>
        <path id="0cxbx5rnhw" d="M172.721 1.034c-20.535.037-42.38 7.22-63.038 14.406-26.29 9.14-50.649 18.282-67.909 12.692-19.575-6.337-35.513 7.621-40.3 27.977-5.243 22.297 2.893 52.272 34.293 71.644C182.31 218.15 267.555 60.695 215.727 16.1c-12.783-10.998-27.35-15.032-42.655-15.066"/>
        <path id="o55cpyuiqy" d="M172.721 1.034c-20.535.037-42.38 7.22-63.038 14.406-26.29 9.14-50.649 18.282-67.909 12.692-19.575-6.337-35.513 7.621-40.3 27.977-5.243 22.297 2.893 52.272 34.293 71.644C182.31 218.15 267.555 60.695 215.727 16.1c-12.783-10.998-27.35-15.032-42.655-15.066"/>
        <path id="u59927l9mA" d="M172.721 1.034c-20.535.037-42.38 7.22-63.038 14.406-26.29 9.14-50.649 18.282-67.909 12.692-19.575-6.337-35.513 7.621-40.3 27.977-5.243 22.297 2.893 52.272 34.293 71.644C182.31 218.15 267.555 60.695 215.727 16.1c-12.783-10.998-27.35-15.032-42.655-15.066"/>
        <path id="i304yfwyuC" d="M172.721 1.034c-20.535.037-42.38 7.22-63.038 14.406-26.29 9.14-50.649 18.282-67.909 12.692-19.575-6.337-35.513 7.621-40.3 27.977-5.243 22.297 2.893 52.272 34.293 71.644C182.31 218.15 267.555 60.695 215.727 16.1c-12.783-10.998-27.35-15.032-42.655-15.066"/>
        <path id="6kiv9pttkE" d="M172.721 1.034c-20.535.037-42.38 7.22-63.038 14.406-26.29 9.14-50.649 18.282-67.909 12.692-19.575-6.337-35.513 7.621-40.3 27.977-5.243 22.297 2.893 52.272 34.293 71.644C182.31 218.15 267.555 60.695 215.727 16.1c-12.783-10.998-27.35-15.032-42.655-15.066"/>
        <path id="s2ra7brktG" d="M172.721 1.034c-20.535.037-42.38 7.22-63.038 14.406-26.29 9.14-50.649 18.282-67.909 12.692-19.575-6.337-35.513 7.621-40.3 27.977-5.243 22.297 2.893 52.272 34.293 71.644C182.31 218.15 267.555 60.695 215.727 16.1c-12.783-10.998-27.35-15.032-42.655-15.066"/>
        <path id="lrc6d0nszI" d="M172.721 1.034c-20.535.037-42.38 7.22-63.038 14.406-26.29 9.14-50.649 18.282-67.909 12.692-19.575-6.337-35.513 7.621-40.3 27.977-5.243 22.297 2.893 52.272 34.293 71.644C182.31 218.15 267.555 60.695 215.727 16.1c-12.783-10.998-27.35-15.032-42.655-15.066"/>
        <path id="oh28oehmrK" d="M172.721 1.034c-20.535.037-42.38 7.22-63.038 14.406-26.29 9.14-50.649 18.282-67.909 12.692-19.575-6.337-35.513 7.621-40.3 27.977-5.243 22.297 2.893 52.272 34.293 71.644C182.31 218.15 267.555 60.695 215.727 16.1c-12.783-10.998-27.35-15.032-42.655-15.066h-.35z"/>
        <path id="77qd7eixoM" d="M172.721 1.034c-20.535.037-42.38 7.22-63.038 14.406-26.29 9.14-50.649 18.282-67.909 12.692-19.575-6.337-35.513 7.621-40.3 27.977-5.243 22.297 2.893 52.272 34.293 71.644C182.31 218.15 267.555 60.695 215.727 16.1c-12.783-10.998-27.35-15.032-42.655-15.066"/>
        <path id="zbpqxqn64O" d="M172.721 1.034c-20.535.037-42.38 7.22-63.038 14.406-26.29 9.14-50.649 18.282-67.909 12.692-19.575-6.337-35.513 7.621-40.3 27.977-5.243 22.297 2.893 52.272 34.293 71.644C182.31 218.15 267.555 60.695 215.727 16.1c-12.783-10.998-27.35-15.032-42.655-15.066"/>
        <path id="d2io0rjkqQ" d="M172.721 1.034c-20.535.037-42.38 7.22-63.038 14.406-26.29 9.14-50.649 18.282-67.909 12.692-19.575-6.337-35.513 7.621-40.3 27.977-5.243 22.297 2.893 52.272 34.293 71.644C182.31 218.15 267.555 60.695 215.727 16.1c-12.783-10.998-27.35-15.032-42.655-15.066"/>
        <path id="8hbodfrbyS" d="M172.721 1.034c-20.535.037-42.38 7.22-63.038 14.406-26.29 9.14-50.649 18.282-67.909 12.692-19.575-6.337-35.513 7.621-40.3 27.977-5.243 22.297 2.893 52.272 34.293 71.644C182.31 218.15 267.555 60.695 215.727 16.1c-12.783-10.998-27.35-15.032-42.655-15.066"/>
        <path id="iqub071rbU" d="M172.721 1.034c-20.535.037-42.38 7.22-63.038 14.406-26.29 9.14-50.649 18.282-67.909 12.692-19.575-6.337-35.513 7.621-40.3 27.977-5.243 22.297 2.893 52.272 34.293 71.644C182.31 218.15 267.555 60.695 215.727 16.1c-12.783-10.998-27.35-15.032-42.655-15.066"/>
        <path id="fnlzaxe8iW" d="M172.721 1.034c-20.535.037-42.38 7.22-63.038 14.406-26.29 9.14-50.649 18.282-67.909 12.692-19.575-6.337-35.513 7.621-40.3 27.977-5.243 22.297 2.893 52.272 34.293 71.644C182.31 218.15 267.555 60.695 215.727 16.1c-12.783-10.998-27.35-15.032-42.655-15.066"/>
        <path id="ps1bcymh8Y" d="M172.721 1.034c-20.535.037-42.38 7.22-63.038 14.406-26.29 9.14-50.649 18.282-67.909 12.692-19.575-6.337-35.513 7.621-40.3 27.977-5.243 22.297 2.893 52.272 34.293 71.644C182.31 218.15 267.555 60.695 215.727 16.1c-12.783-10.998-27.35-15.032-42.655-15.066"/>
        <path id="has7ehhzvaa" d="M172.72 0c-20.534.036-42.38 7.22-63.038 14.405-26.29 9.14-50.648 18.283-67.909 12.693C22.2 20.76 6.261 34.718 1.474 55.074c-5.244 22.297 2.893 52.273 34.293 71.644 146.541 90.399 231.787-67.057 179.959-111.652C202.944 4.068 188.376.034 173.072 0"/>
    </defs>
    <g fill="none" fill-rule="evenodd">
        <g>
            <g>
                <g transform="translate(-604 -384) translate(604 384) translate(0 .367)">
                    <mask id="0hvk0gy0yb" fill="#fff">
                        <use xlink:href="#vlq6wd0ffa"/>
                    </mask>
                    <path fill="#FBE8EE" d="M215.726 16.1C163.9-28.492 82.79 41.415 41.774 28.133c-19.575-6.339-35.511 7.62-40.3 27.975-5.245 22.298 2.893 52.274 34.293 71.644C182.31 218.15 267.555 60.694 215.727 16.1" mask="url(#0hvk0gy0yb)"/>
                </g>
                <g>
                    <g transform="translate(-604 -384) translate(604 384) translate(0 .367)">
                        <mask id="qhv61d7ued" fill="#fff">
                            <use xlink:href="#0uu823a83c"/>
                        </mask>
                        <path fill="#F5BC8E" d="M118.097 73.958c-1.324 1.065-2.375 2.992-2.548 4.67-.1.943.005 1.864-.217 2.796-.3 1.266-.974 2.467-1.502 3.65-.403.896.553 1.507 1.29 1.266.194.541.844.747 1.347.567.388.033.795-.15 1.008-.635.327-.748.887-1.862 1.137-2.923.378-.761.808-1.497 1.303-2.216.56-.813 1.332-1.738.912-2.763-.117-.283-.416-.527-.725-.582.224-.269.407-.49.461-.59.338-.605.572-1.329.47-2.03-.218-1.506-1.744-2.17-2.936-1.21" mask="url(#qhv61d7ued)"/>
                    </g>
                    <g transform="translate(-604 -384) translate(604 384) translate(0 .367)">
                        <mask id="m4m3dsvmqf" fill="#fff">
                            <use xlink:href="#vpyyx9abee"/>
                        </mask>
                        <path fill="#F5BC8E" d="M211.144 109.288c-1.484-.826-3.662-1.073-5.274-.599-.909.268-1.72.712-2.664.86-1.283.198-2.645.029-3.936-.015-.981-.035-1.182 1.084-.682 1.677-.425.384-.37 1.067-.012 1.465.117.374.438.682.967.695.814.02 2.054.119 3.127-.05.846.062 1.689.183 2.538.372.963.212 2.11.578 2.895-.2.218-.215.33-.585.263-.895.334.107.608.193.72.208.687.083 1.443.027 2.052-.334 1.307-.772 1.342-2.44.006-3.184" mask="url(#m4m3dsvmqf)"/>
                    </g>
                    <g transform="translate(-604 -384) translate(604 384) translate(0 .367)">
                        <mask id="4y1i45rv4h" fill="#fff">
                            <use xlink:href="#x6behg8mpg"/>
                        </mask>
                        <path fill="#477BDE" d="M229.423 178.708c-3.761-3.203-9.148-7.256-13.026-10.316-3.892-3.072-8.035-5.742-12.09-8.582-5.771-4.041-15.396-14.255-20.897-21.233-3.31-4.197-4.186-6.939-4.477-7.257-1.675-1.825-3.783-.256-5.557.513-2.304 1-4.684 1.815-7.06 2.621-4.682 1.587-9.378 3.174-13.528 5.934-1.661 1.107-3.42 2.36-3.756 4.474-.108.677-.077 1.361.036 2.045-.298.35-.458.833-.363 1.429.939 5.957 1.916 11.908 2.882 17.863.902 5.577 1.517 11.319 3.303 16.7 1.777 5.349 5.321 10.078 8.263 14.827 3.175 5.127 6.35 10.253 9.523 15.38.573.925 1.427 1.316 2.49.932 1.935-.697 6.228-1.661 6.244-4.323.007-1.255-.825-2.592-1.33-3.71-.625-1.383-1.277-2.75-1.955-4.108-1.45-2.905-3.023-5.75-4.701-8.529-1.623-2.686-3.469-5.4-4.056-8.54-.563-3.007-.272-6.155-.198-9.196.075-3.134 1.285-15.486 1.009-19.218 6.468 4.988 12.723 7.584 19.633 11.854 8.643 5.34 26.03 14.51 35.113 19.043 3.273 1.632 5.32-2.388 5.708-3.91.619-2.437.47-3.262-1.21-4.693" mask="url(#4y1i45rv4h)"/>
                    </g>
                    <g transform="translate(-604 -384) translate(604 384) translate(0 .367)">
                        <mask id="h3mnkn32ij" fill="#fff">
                            <use xlink:href="#5t80lpg9li"/>
                        </mask>
                        <path fill="#B8B8B8" d="M196.486 105.34c-2.72-.073-3.195 2.432-5.823 1.2-2.114-.993-2.872-3.305-5.37-3.761-2.165-.395-4.276.57-6.432.311-2.224-.268-4.185-1.584-6.014-2.782-3.999-2.617-13.48-4.43-18.743-4.215.008-1.026-.246-2.037-1.195-2.58-1.48-.845-3.772-.333-5.349-.15-2.181.254-4.494.455-6.587 1.163-.598.203-.972.46-1.202.773-.415.236-.47.707-.494 1.17-.028.517-.046 1.034-.063 1.553-3.322.808-3.627 1.498-4.788 1.756-.692.156-7.21-2.11-9.287-2.407-1.092-.154-4.885-.729-5.16-.748-.189-.885-.488-1.764-.767-2.644-.409-1.29-.526-2.43.13-3.66.503-.946 1.08-1.713.927-2.85-.33-2.478-3.447-3.087-5.48-3.4-2.371-.363-3.924.353-4.25 2.868-.318 2.463-2.043 4.134-3.438 6.067-1.461 2.026-2.577 4.49-2.07 7.05.118.601.328 1.176.616 1.693-.005.25.044.516.159.79 1.002 2.412 2.527 4.723 5.09 5.633 2.634.935 5.33.563 7.833 2.07 2.498 1.507 4.583 3.074 7.403 3.994 1.163.38 2.34.719 3.522 1.045.36.202.737.383 1.121.51.534 1.904 1.245 3.78 1.946 5.546 1.383 3.483 3.175 6.714 5.143 9.893 1.892 3.056 3.745 16.005 4.264 19.13.552 3.324 2.69 6.151 3.146 9.45.408 2.947-.47 5.945.191 8.88.285 1.268.768 2.547 1.732 3.425 1.14-.206 2.267-.461 3.347-.878 2.649-1.021 4.987-2.908 6.87-5.008 1.819-2.028 3.376-4.323 4.404-6.853 1.005-2.475 1.644-5.075 2.43-7.624.707-2.296 1.555-4.62 2.803-6.69 2.066-2.09 5.497-2.32 7.98-3.748 1.598-.915 2.78-2.389 4.06-3.681 1.342-1.355 2.598-2.773 2.966-4.707.798-4.202-3.593-6.09-5.775-8.908-.144-.185-.317-.353-.418-.562-.967-1.996-2.898-5.661-3.878-7.664 2.138.346 5.885 1.839 7.648 1.292 1.5-.465 2.729-1.274 4.135-1.929 1.539-.717 2.608-.388 4.036.391 2.414 1.32 4.682 2.818 7.574 2.34 2.876-.475 5.945-2.692 7.477-5.166 1.448-2.339-2.03-7.26-6.37-7.378" mask="url(#h3mnkn32ij)"/>
                    </g>
                    <g transform="translate(-604 -384) translate(604 384) translate(0 .367)">
                        <mask id="jbsp187egl" fill="#fff">
                            <use xlink:href="#5e978p26pk"/>
                        </mask>
                        <path fill="#0D1D38" d="M152.673 73.967c-3.406-1.836-7.032-4.084-12.292-2.538-1.89.556-4.464 2.625-5.755 4.06-.672.743-1.335 1.542-2.196 2.078-.81.506-1.69.7-2.104 1.648-.572 1.308.084 2.701 1.14 3.531.685.54 1.51.803 2.249 1.245.823.495 1.466 1.195 2.496 1.167 2.831-.075 3.856-3.976 2.868-6.303.21-.056.416-.122.613-.19 1.167-.41 3.328-1.415 4.209-2.766.262.343.705.506 1.182.195.847-.558 1.151-1.333 1.062-2.066 1.076.271 2.11.672 3.05 1.17 1.148.608 4.64-.606 3.478-1.23" mask="url(#jbsp187egl)"/>
                    </g>
                    <g transform="translate(-604 -384) translate(604 384) translate(0 .367)">
                        <mask id="xsuhpos60n" fill="#fff">
                            <use xlink:href="#eq4pgo752m"/>
                        </mask>
                        <path fill="#0D1D38" d="M154.597 75.567c-2.703-2.78-5.99-3.685-9.808-3.14-3.575.512-7.051 2.252-7.8 6.05-.22 1.108.996 1.518 1.776 1.07.36.098.767.035 1.11-.26.38.687 1.49.906 2.028.179-.09.222-.17.423-.225.578-.464 1.303 1.165 2.055 1.976 1.231l-.009.032c-.118.355-.232.714-.33 1.08-.258.972.607 1.676 1.355 1.612l-.074.283c-.193.767.292 1.365.87 1.553-.286 1.004.624 1.692 1.402 1.55-.005.185.03.356.102.502-.446.24-.89.465-1.319.678-1.377.69-.397 2.866.995 2.188 1.94-.946 4.152-.916 6.059-1.997 1.605-.91 2.602-2.45 3.502-4.12 1.666-3.092.579-6.816-1.61-9.069" mask="url(#xsuhpos60n)"/>
                    </g>
                    <g transform="translate(-604 -384) translate(604 384) translate(0 .367)">
                        <mask id="c9sbbshwrp" fill="#fff">
                            <use xlink:href="#dip3evn41o"/>
                        </mask>
                        <path fill="#F5BC8E" d="M150.309 99.402L143.052 100.051 141.924 87.353 149.181 86.704z" mask="url(#c9sbbshwrp)"/>
                    </g>
                    <g transform="translate(-604 -384) translate(604 384) translate(0 .367)">
                        <mask id="8fqdjbr04r" fill="#fff">
                            <use xlink:href="#my29zusxuq"/>
                        </mask>
                        <path fill="#F5BC8E" d="M151.28 75.637c-1.853-1.285-7.738-3.608-10.881-1.802-1.874 1.075-2.509 2.994-3.03 5-.2.772-.449 1.52-.686 2.267-.594.672-1.353 1.226-1.634 2.08-.206.62.191 1.554.808 1.959 0 .03-.005.06-.006.09-.015 1.984.328 4.146 1.043 6.003.697 1.812 1.979 2.236 3.82 1.92 3.922-.668 7.522-3.787 9.812-6.927 1.896-2.603 4.15-8.235.754-10.59" mask="url(#8fqdjbr04r)"/>
                    </g>
                    <g transform="translate(-604 -384) translate(604 384) translate(0 .367)">
                        <mask id="dc8aagewet" fill="#fff">
                            <use xlink:href="#z62wqri92s"/>
                        </mask>
                        <path fill="#0D1D38" d="M152.065 76.1c-.29-.356-.595-.698-.94-1.012-.908-.824-1.93-1.473-3.037-1.954-.048-.038-.098-.074-.146-.11-.334-.263-.679-.35-.998-.316-.17-.053-.34-.105-.514-.152-.43-.112-.819-.07-1.138.073-.258-.207-.612-.302-1.003-.166-2.048.717-2.115 2.888-1.59 4.68.238.816.58 1.59.322 2.472-.14.48-.47.903-.68 1.354-.396.847-.61 1.729-.318 2.645.291.909.845 1.296 1.51 1.433.257.15.54.276.844.373.552.174 1.143.185 1.695.347.849.253 1.279.663 1.845 1.3.628.708 1.312 1.226 2.278 1.316 2.68.25 4.282-2.655 3.684-4.921.206-.529.264-1.113.207-1.722.689-.279 1.15-1.045.808-1.994-.514-1.429-1.59-2.603-2.829-3.646" mask="url(#dc8aagewet)"/>
                    </g>
                    <g transform="translate(-604 -384) translate(604 384) translate(0 .367)">
                        <mask id="ko0xgnnn1v" fill="#fff">
                            <use xlink:href="#p5qzrzoqlu"/>
                        </mask>
                        <path fill="#FF8DAD" d="M146.089 100.156c-1.433.205-3.02.589-4.424.184.05.186.105.412.178.708.685 2.78 1.587 5.51 2.673 8.159 1.137 2.77 2.473 5.454 3.953 8.053 1.424 2.502 2.905 5.337 4.995 7.345.73.7 1.888.237 1.797-.823-.54-6.245-1.195-12.478-1.98-18.695-.388-3.054-.351-4.236-.649-6.455-1.96 1.244-4.261 1.199-6.543 1.524" mask="url(#ko0xgnnn1v)"/>
                    </g>
                    <g transform="translate(-604 -384) translate(604 384) translate(0 .367)">
                        <mask id="wetanni3ix" fill="#fff">
                            <use xlink:href="#0cxbx5rnhw"/>
                        </mask>
                        <path fill="#F5BC8E" d="M152.27 96.36c-1.354-.22-2.962.108-4.16.247-2.182.252-4.495.456-6.586 1.163-.178.06-.33.128-.472.197.493 2.102.274.98.791 3.08.014.057.03.111.042.167 1.753 1.132 3.848 1.65 6.066 1.16 2.064-.457 3.842-1.88 4.691-3.676-.088-.663-.204-1.413-.371-2.338" mask="url(#wetanni3ix)"/>
                    </g>
                    <g transform="translate(-604 -384) translate(604 384) translate(0 .367)">
                        <mask id="47spyfu8vz" fill="#fff">
                            <use xlink:href="#o55cpyuiqy"/>
                        </mask>
                        <path fill="#0D1D38" d="M140.09 80.947c-.105.336-.375.552-.6.48-.225-.072-.322-.403-.214-.74.106-.337.375-.55.6-.479.225.07.321.403.215.739" mask="url(#47spyfu8vz)"/>
                    </g>
                    <g transform="translate(-604 -384) translate(604 384) translate(0 .367)">
                        <mask id="idcbcxzp2B" fill="#fff">
                            <use xlink:href="#u59927l9mA"/>
                        </mask>
                        <path fill="#0D1D38" d="M138.643 78.865c.086.178.364.241.654.301.453.093.908.149 1.37.047.352-.079.852-.232.83-.67-.002-.057-.047-.118-.098-.138-.36-.132-3.104-.26-2.756.46" mask="url(#idcbcxzp2B)"/>
                    </g>
                    <g transform="translate(-604 -384) translate(604 384) translate(0 .367)">
                        <mask id="0jk3e1qbsD" fill="#fff">
                            <use xlink:href="#i304yfwyuC"/>
                        </mask>
                        <path fill="#FFF" d="M138.654 87.366c.106-.093.205-.2.3-.319-.015-.004-.03-.008-.053-.005-.706.071-1.375-.017-2.014-.021-.252-.003-.61-.034-.959-.073.028.303.065.607.108.911.243.056.497.083.748.087.691.015 1.263-.116 1.733-.465.047-.034.092-.075.137-.115" mask="url(#0jk3e1qbsD)"/>
                    </g>
                    <g transform="translate(-604 -384) translate(604 384) translate(0 .367)">
                        <mask id="5ry6rp60vF" fill="#fff">
                            <use xlink:href="#6kiv9pttkE"/>
                        </mask>
                        <path fill="#F5BC8E" d="M75.42 71.07c-.851-1.272-2.046-1.96-3.37-2.67-1.493-.801-2.848-2.081-4.493-2.55-.842-.242-1.882-.188-2.015.89-.16 1.293 1.723 2.134 2.562 2.698.887.597 1.784 1.183 2.62 1.851.618.497 1.167 1.245 1.837 1.654.733.449 1.709.385 1.942-.604.025-.108.037-.216.037-.322.54.25 1.288-.337.88-.948" mask="url(#5ry6rp60vF)"/>
                    </g>
                    <g transform="translate(-604 -384) translate(604 384) translate(0 .367)">
                        <mask id="ymru9hhvzH" fill="#fff">
                            <use xlink:href="#s2ra7brktG"/>
                        </mask>
                        <path fill="#F5BC8E" d="M118.038 80.89c-.023-1.533-.651-2.762-1.377-4.08-.817-1.488-1.256-3.3-2.381-4.593-.576-.663-1.476-1.187-2.174-.355-.837.997.286 2.731.682 3.662.42.985.856 1.966 1.193 2.985.248.753.302 1.681.641 2.39.37.777 1.226 1.256 1.957.555.08-.075.148-.16.207-.25.317.504 1.263.42 1.252-.315" mask="url(#ymru9hhvzH)"/>
                    </g>
                    <g transform="translate(-604 -384) translate(604 384) translate(0 .367)">
                        <mask id="70zwopc5iJ" fill="#fff">
                            <use xlink:href="#lrc6d0nszI"/>
                        </mask>
                        <path fill="#CDE1F9" d="M114.184 82.995c-.49.204-1.015.349-1.479.591-.677.354-1.317.833-1.853 1.38-1.079 1.101-1.797 2.46-2.363 3.882-1.386 3.486-2.205 7.263-3.272 10.86-.124.421-.26.83-.404 1.227-2.402 2.708-5.12 5.125-8.012 7.327-.028-.143-.07-.282-.118-.416-.652 1.191-1.587 2.14-2.524 3.197-.883.996-1.758 2.234-2.191 3.545-.48 1.456.484 2.488 1.117 3.803.106.217.208.434.307.653l.02-.142c6.86-3.676 13.892-7.391 19.047-13.338 2.675-3.087 4.748-6.649 6.05-10.527.627-1.866 1.19-3.886 1.239-5.868.04-1.617-.579-2.935-.997-4.387.115-.659.165-1.332.193-1.995.045-1.11-.216-2.371-1.259-2.975-.591-.343-1.2-.365-1.72-.159-.21.013-.421.06-.624.147-.891.377-1.098 1.29-1.129 2.159-.013.345-.02.691-.028 1.036" mask="url(#70zwopc5iJ)"/>
                    </g>
                    <g transform="translate(-604 -384) translate(604 384) translate(0 .367)">
                        <mask id="4ro1had9cL" fill="#fff">
                            <use xlink:href="#oh28oehmrK"/>
                        </mask>
                        <path fill="#F5BC8E" d="M94.199 111.277L87.509 108.384 92.54 96.677 99.232 99.57z" mask="url(#4ro1had9cL)"/>
                    </g>
                    <g transform="translate(-604 -384) translate(604 384) translate(0 .367)">
                        <mask id="w5zw2hu6kN" fill="#fff">
                            <use xlink:href="#77qd7eixoM"/>
                        </mask>
                        <path fill="#4A4A4A" d="M97.069 90.094c1.558 1.547 2.433-2.4.887-3.95-1.881-1.887-2.47-2.316-5.154-2.913-1.2-.266-2.473-.268-3.652.095-.52.161-1.107.576-1.683.457-.706-.146-1.744-1.183-2.284-1.588-2.113-1.59-4.51-3.33-7.3-3.143-2.884.194-4.68 2.96-7.8 2.085-1.194-.337-2.122-.589-3.342-.146-1.181.429-2.196 1.281-2.902 2.313-1.487 2.172-1.53 4.965-.549 7.353 1.023 2.49 3.04 4.612 5.248 6.102.969.652 2.066 1.054 3.241.959 1.305-.104 2.305-.945 3.539-1.263 1.799-.466 3.024.344 4.508 1.202 1.342.777 2.748 1.11 4.295.94 3.349-.364 6.362-2.385 9.359.236 1.653 1.448 4.037-1.003 2.378-2.458-.163-.143-.334-.278-.507-.411.45-.314.83-.751 1.07-1.288.76-1.693.16-3.622-.584-5.322-.085-.25-.181-.492-.285-.72.538.484 1.044.992 1.517 1.46" mask="url(#w5zw2hu6kN)"/>
                    </g>
                    <g transform="translate(-604 -384) translate(604 384) translate(0 .367)">
                        <mask id="wh8chsn1zP" fill="#fff">
                            <use xlink:href="#zbpqxqn64O"/>
                        </mask>
                        <path fill="#F5BC8E" d="M103.323 94.65c.685-.814 1.267-1.255.537-2.186-.358-.454-2.511-2.498-2.974-3.042-1.913-2.702-5.984-6.29-9.168-4.223-1.892 1.226-2.966 3.616-3.122 5.998-.326.642-.43 1.42-.297 2.192.02.114.044.227.07.34-.556-1.234-2.72-.672-2.468.867.35 2.137 1.802 3.47 3.45 4.718 1.776 1.343 3.236 2.966 5.317 3.85 1.821.771.468.568 2.452.614 1.937.045 6.744-2.303 7.158-4.129.509-2.251-.232-2.68-.955-4.998" mask="url(#wh8chsn1zP)"/>
                    </g>
                    <g transform="translate(-604 -384) translate(604 384) translate(0 .367)">
                        <mask id="8iu8mdy4yR" fill="#fff">
                            <use xlink:href="#d2io0rjkqQ"/>
                        </mask>
                        <path fill="#4A4A4A" d="M95.207 95.235c-2.509-3.117.367-5.392 1.722-6.093.806-.416 1.547-.854 1.508-1.871-.083-2.117-4.037-2.853-5.64-2.746-.587.039-1.045.24-1.43.555-.516-.286-1.215-.24-1.587.426l-1.937 3.462c-.313.043-.616.203-.84.526l-2.668 3.873c-.56.814-1.409 1.644-1.026 2.695.22.603.827 1 1.475.805.251-.076.48-.174.694-.288.102.157.243.293.405.398-1.802.218-3.495-.287-4.806-1.79-1.013-1.159-2.64.557-1.656 1.712.963 1.128 2.305 1.623 3.56 2.272 1.566.809 3.25.412 4.895.537 1.683.129 2.722 2.06 4.253 2.149 1.106.354 2.215.123 2.645-1.23.2-.633.244-1.352.244-2.042.466-1.375.637-2.792.189-3.35" mask="url(#8iu8mdy4yR)"/>
                    </g>
                    <g transform="translate(-604 -384) translate(604 384) translate(0 .367)">
                        <mask id="dkvq34hejT" fill="#fff">
                            <use xlink:href="#8hbodfrbyS"/>
                        </mask>
                        <path fill="#CDE1F9" d="M102.775 124.831c.059-3.23-.957-6.21-2.282-9.108-.023-.048-.047-.096-.067-.145.25-.455-1.889-4.5-2.343-6.546-.21-.946-.335-1.91-.483-2.866-.086-.55.04-.024-.153-.777-.07-.277-.146-.552-.226-.827-.614-.5-1.403-.765-2.148-1.034-1.626-.589-3.287-1.058-4.969-1.458-.73-.174-1.24.295-1.394.858-.519.451-.743 1.176-.983 1.82-.282.76-.548-8.813-1.305-14.319-.498-3.629-1.28-7.217-2.573-10.65-1.157-3.068-2.654-5.64-5.688-6.093-.547-.945-1.112-2-1.854-2.787-1.05-1.114-2.79-1.407-4.023-.41-2.134 1.726-.425 4.518 1.202 6.076-.203.31-.403.602-.48.782-.29.692-.521 1.399-.65 2.14-.278 1.601-.233 3.184.044 4.779.608 3.508 2.464 6.568 3.82 9.809 1.275 3.04 2.083 6.22 2.444 9.449.061 1.034.128 2.066.205 3.095.055 2.355-.011 5.225-.661 7.517-1.318 4.644-3.431 7.208-5.396 9.219-3.308 3.39-7.357 6.355-9.117 10.89.361.1.66.427.55.897-.387 1.648-.65 3.272-.126 4.923.593 1.861 1.548 2.901 3.172 3.958.53.346.409 1.026.034 1.323.724.375 1.483.714 2.232 1.068 4.942 2.348 10.138 4.03 15.643 3.018 2.959-.545 7.045-1.205 12.263-10.861.884-1.638 5.246-10.117 5.312-13.74" mask="url(#dkvq34hejT)"/>
                    </g>
                    <g transform="translate(-604 -384) translate(604 384) translate(0 .367)">
                        <mask id="miv347hgyV" fill="#fff">
                            <use xlink:href="#iqub071rbU"/>
                        </mask>
                        <path fill="#477BDE" d="M87.15 141.835c-1.288-1.656-2.01-3.677-3.3-5.338-2.605-3.349-7.872-4.705-11.936-3.849-1.27.27-2.461.751-3.76.893-1.165.126-2.34.129-3.5.298-.301.044-.598.101-.891.169-.13.316-.25.639-.356.971-.694 2.167-.737 4.616.146 6.734 1.088 2.606 3.59 3.56 5.983 4.697 4.942 2.346 10.139 4.03 15.642 3.016 1.802-.33 4.023-.71 6.66-3.13-1.16-1.909-3.34-2.73-4.688-4.461" mask="url(#miv347hgyV)"/>
                    </g>
                    <g transform="translate(-604 -384) translate(604 384) translate(0 .367)">
                        <mask id="rpk8ru930X" fill="#fff">
                            <use xlink:href="#fnlzaxe8iW"/>
                        </mask>
                        <path fill="#F5BC8E" d="M83.357 150.719c1.186-.218.988 1.88 2.536 1.051.618-.924 4.626-5.49 5.224-6.427-1.2-1.285-2.852-2.093-3.953-3.506-1.289-1.654-2.01-3.676-3.3-5.336-1.466-1.884-3.774-3.138-6.237-3.723-1.747 2.668-3.634 5.234-5.686 7.679-1.237 1.473-2.525 2.904-3.861 4.289-.213.22-.43.439-.645.657.69.352 1.406.673 2.115 1.011 4.942 2.347 8.302 5.32 13.807 4.305" mask="url(#rpk8ru930X)"/>
                    </g>
                    <g transform="translate(-604 -384) translate(604 384) translate(0 .367)">
                        <mask id="ifvjlfn85Z" fill="#fff">
                            <use xlink:href="#ps1bcymh8Y"/>
                        </mask>
                        <path fill="#B8B8B8" d="M96.35 190.254c.859-5.289-3.064-12.885-5.995-16.902-2.728-3.74-5.068-7.93-6.913-13.096-1.57-4.399 2.02-6.368 4.425-10.206.793-1.264.456-1.643-.422-2.402-1.416-1.227-4.745-4.24-6.332-5.782-1.777-1.726-3.7-3.27-5.712-4.709-.318-.225-.63-.33-.924-.339-.49-.08-1.013.09-1.447.64-3.062 3.897-6.438 7.327-9.997 10.76-3.436 3.315-4.951 7.617-4.39 12.383.539 4.602 2.69 8.688 4.866 12.7 2.148 3.96 4.026 8.006 5.56 12.232-.544 4.05-3.203 7.729-6.378 10.525-2.486 2.19-5.142 4.177-7.754 6.211-2.427 1.89-2.288 4.242-.753 6.735 1.664 2.706 3.794 5.205 5.786 7.67.87 1.077 1.76 2.577 3.021 3.212 1.397.704 2.568.04 3.682-.837 2.383-1.874 3.948-4.682 5.782-7.056 1.49-1.93 2.803-3.78 3.974-5.566.63-.288 1.251-.623 1.831-.897 2.664-1.25 5.308-2.551 7.843-4.05 4.264-2.522 9.384-5.92 10.246-11.226" mask="url(#ifvjlfn85Z)"/>
                    </g>
                    <g transform="translate(-604 -384) translate(604 384) translate(0 .367) translate(0 1.939)">
                        <mask id="3z4rsryuhab" fill="#fff">
                            <use xlink:href="#has7ehhzvaa"/>
                        </mask>
                        <path fill="#C24058" d="M103.521 93.3c-.559.426-1.82 1.063-1.89 1.071-.2.021-.168.243-.006.34.967.594 1.867.59 2.542.249-.17-.47-.402-.979-.646-1.66" mask="url(#3z4rsryuhab)"/>
                    </g>
                    <g fill="#FFC39E">
                        <path d="M.259 2.936c.183.074.432-.066.687-.216.399-.234.775-.497 1.05-.884.21-.295.478-.743.169-1.056-.04-.038-.113-.056-.164-.035C1.645.888-.478 2.635.26 2.936" transform="translate(-604 -384) translate(604 384) translate(0 .367) translate(96.434 88.307)"/>
                    </g>
                    <g fill="#0D1D38">
                        <path d="M1.765 1.477c-.003-.217-.334-.206-.337.01-.007.492-.402.778-.827.922-.207.07-.114.397.095.327.569-.191 1.079-.609 1.069-1.26" transform="translate(-604 -384) translate(604 384) translate(0 .367) translate(97.831 89.71)"/>
                    </g>
                    <g fill="#F5BC8E">
                        <path d="M3.747 4.794c-.195.094-.475-.034-.673-.192.24-.232.658-.042.673.192m1.354-.035c0-.035.003-.069.002-.104-.055-1.03-.867-1.559-1.707-1.55.09-.1.17-.21.231-.34.25-.54.137-1.094-.047-1.635-.28-.827-1.576-.453-1.302.385.228.7.066.674-.392 1.124-.326.321-.613.72-.748 1.162-.243.798-.042 1.668.625 2.191.6.471 1.533.587 2.262.404.503-.13.824-.513.976-.974.015-.02.033-.038.049-.062.148-.221.142-.432.051-.601" transform="translate(-604 -384) translate(604 384) translate(0 .367) translate(92.241 92.512)"/>
                    </g>
                </g>
            </g>
        </g>
    </g>
</svg>
