<svg height="22" viewBox="0 0 33 22" width="33" xmlns="http://www.w3.org/2000/svg"><g fill="#ff1744"><path d="m32.715 11.09-4.22-6.873a.76.76 0 0 0 -.647-.364h-5.943c-.071-.634-.315-1.734-1.136-2.587-.744-.771-1.767-1.163-3.041-1.163h-11.265a.766.766 0 0 0 -.762.77v1.894h-2.261a.766.766 0 0 0 -.762.77c0 .426.34.77.762.77h7.92c.42 0 .761-.344.761-.77 0-.425-.34-.77-.761-.77h-4.136v-1.123h10.504c.843 0 1.496.232 1.942.69.752.771.742 1.979.742 2.007v12.565s-5.585.01-5.644.024c-.528-1.4-1.867-2.398-3.436-2.398-1.559 0-2.891.987-3.427 2.374h-.68v-3.306c0-.425-.341-.77-.762-.77h-4.806a.766.766 0 0 0 -.762.77c0 .425.34.77.762.77h4.043v3.308c0 .425.34.77.762.77h1.2c.1 1.96 1.705 3.526 3.67 3.526 1.964 0 3.57-1.566 3.67-3.526h7.368c.101 1.96 1.706 3.526 3.67 3.526s3.568-1.566 3.669-3.526h2.358c.42 0 .761-.345.761-.77v-6.18a.779.779 0 0 0 -.114-.407zm-21.383 9.343c-1.189 0-2.156-.979-2.156-2.181s.967-2.18 2.156-2.18c1.19 0 2.158.978 2.158 2.18s-.968 2.18-2.158 2.18zm14.71 0c-1.19 0-2.157-.979-2.157-2.181s.968-2.18 2.157-2.18c1.188 0 2.155.978 2.155 2.18s-.967 2.18-2.155 2.18zm3.425-3.527c-.535-1.388-1.867-2.375-3.425-2.375-1.56 0-2.892.987-3.426 2.375h-.681v-11.513h5.49l3.061 4.987h-5.472v-2.24h1.26c.42 0 .761-.344.761-.77a.766.766 0 0 0 -.762-.77h-2.02a.765.765 0 0 0 -.762.77v3.78c0 .425.34.77.761.77h7.054v4.986z"/><path d="m6.463 5.436a.766.766 0 0 0 -.762.77v3.234h-2.8a.766.766 0 0 0 -.761.77c0 .426.34.77.761.77h6.193c.42 0 .762-.344.762-.77 0-.425-.34-.77-.762-.77h-1.87v-3.234c0-.424-.34-.77-.761-.77zm-4.806 1.541h2.233c.42 0 .761-.345.761-.77 0-.426-.34-.771-.761-.771h-2.233a.766.766 0 0 0 -.762.77c0 .426.341.77.762.77zm.025 3.233c0-.424-.34-.77-.761-.77h-.051a.766.766 0 0 0 -.762.77c0 .426.34.77.761.77h.051c.42 0 .761-.344.761-.77z"/></g></svg>