<svg xmlns="http://www.w3.org/2000/svg" width="19" height="24" viewBox="0 0 19 24">
    <g>
        <path d="M1.94 23.273h14.74c1.07 0 1.937-.869 1.939-1.94V5.044c0-.103-.041-.202-.114-.275L13.85.114C13.778.04 13.68 0 13.576 0H1.94C.87.001.001.869 0 1.94v19.394c.001 1.07.869 1.938 1.94 1.94zM13.963 1.324l3.33 3.33h-2.166c-.643 0-1.163-.52-1.164-1.163V1.324zM.776 1.94c0-.642.521-1.162 1.163-1.163h11.25V3.49c0 1.07.868 1.938 1.939 1.94h2.715v15.903c0 .642-.521 1.163-1.164 1.164H1.94c-.642-.001-1.162-.522-1.163-1.164V1.939z"/>
        <path d="M6.206 7.37c0 .214.174.388.388.388h9.31c.214 0 .387-.174.387-.388 0-.214-.173-.388-.388-.388H6.594c-.214 0-.388.174-.388.388zM2.715 10.085h7.758c.214 0 .388-.174.388-.388 0-.214-.174-.388-.388-.388H2.715c-.214 0-.388.174-.388.388 0 .214.174.388.388.388zM15.903 11.637H8.921c-.214 0-.387.173-.387.388 0 .214.173.387.387.387h6.982c.215 0 .388-.173.388-.387 0-.215-.173-.388-.388-.388zM2.715 14.74h9.31c.214 0 .387-.174.387-.388 0-.214-.173-.388-.387-.388h-9.31c-.214 0-.388.174-.388.388 0 .214.174.388.388.388zM2.715 7.758h2.328c.214 0 .387-.174.387-.388 0-.214-.173-.388-.387-.388H2.715c-.214 0-.388.174-.388.388 0 .214.174.388.388.388zM15.903 9.31h-3.878c-.215 0-.388.173-.388.387 0 .214.173.388.388.388h3.878c.215 0 .388-.174.388-.388 0-.214-.173-.388-.388-.388zM2.715 12.412H7.37c.214 0 .388-.173.388-.387 0-.215-.174-.388-.388-.388H2.715c-.214 0-.388.173-.388.388 0 .214.174.387.388.387zM15.903 13.964h-2.327c-.214 0-.388.174-.388.388 0 .214.174.388.388.388h2.327c.215 0 .388-.174.388-.388 0-.214-.173-.388-.388-.388zM12.8 18.619H8.921c-.214 0-.387.173-.387.388 0 .214.173.387.387.387h3.88c.214 0 .387-.173.387-.387 0-.215-.173-.388-.388-.388zM2.715 19.394H7.37c.214 0 .388-.173.388-.387 0-.215-.174-.388-.388-.388H2.715c-.214 0-.388.173-.388.388 0 .214.174.387.388.387zM2.715 17.067h3.103c.215 0 .388-.174.388-.388 0-.214-.173-.388-.388-.388H2.715c-.214 0-.388.174-.388.388 0 .214.174.388.388.388zM2.715 5.43H7.37c.214 0 .388-.173.388-.387 0-.215-.174-.388-.388-.388H2.715c-.214 0-.388.173-.388.388 0 .214.174.387.388.387zM11.637 16.68c0-.215-.174-.389-.388-.389h-3.88c-.213 0-.387.174-.387.388 0 .214.174.388.388.388h3.879c.214 0 .388-.174.388-.388zM15.903 16.291H12.8c-.214 0-.388.174-.388.388 0 .214.174.388.388.388h3.103c.215 0 .388-.174.388-.388 0-.214-.173-.388-.388-.388zM15.903 18.619h-1.551c-.214 0-.388.173-.388.388 0 .214.174.387.388.387h1.551c.215 0 .388-.173.388-.387 0-.215-.173-.388-.388-.388z"/>
    </g>
</svg>
