<svg xmlns="http://www.w3.org/2000/svg" xmlns:xlink="http://www.w3.org/1999/xlink" width="334" height="289" viewBox="0 0 334 289">
    <defs>
        <path id="prefix__a" d="M159.578 20.954C121.575 34.16 86.362 47.364 61.411 39.29 27.54 28.33 1.2 59.378 1.025 97.995v.785c.132 28.8 14.81 61.66 51.704 84.402C221.804 287.4 334.436 163.542 334.92 76.549v-1.1c-.114-21.556-7.18-40.754-22.05-53.539C294.313 5.958 273.155.15 250.931.15c-29.748 0-61.415 10.4-91.354 20.804z"/>
        <path id="prefix__c" d="M2.216.278C1.353.666.772 1.42.477 2.54.182 3.662.354 4.964.995 6.444c.261.603 1.026 2.103 2.297 4.5l13.726 25.72 1.591-.714L9.25 8.273C8.504 5.999 7.94 4.424 7.562 3.547 6.887 1.988 6.039.96 5.013.46 4.428.177 3.873.035 3.35.035c-.396 0-.774.082-1.135.243zm16.78 38.915c-1.086.488-1.845 1.302-2.283 2.442-.433 1.138-.412 2.26.066 3.365.466 1.079 1.258 1.855 2.377 2.329 1.115.474 2.23.462 3.34-.037 1.085-.487 1.85-1.302 2.301-2.448.445-1.145.426-2.282-.062-3.411-.479-1.105-1.276-1.878-2.397-2.32-.528-.21-1.055-.314-1.58-.314-.588 0-1.177.132-1.762.394z"/>
    </defs>
    <g fill="none" fill-rule="evenodd" transform="translate(-1)">
        <mask id="prefix__b" fill="#fff">
            <use xlink:href="#prefix__a"/>
        </mask>
        <path fill="#FFF8FB" d="M-10.118 234.101L346.063 234.101 346.063 -11.017 -10.118 -11.017z" mask="url(#prefix__b)"/>
        <g>
            <path fill="#DA1C5C" d="M40.895 81.79C18.309 81.79 0 63.48 0 40.894 0 18.309 18.31 0 40.895 0 63.48 0 81.789 18.31 81.789 40.895c0 22.585-18.309 40.894-40.894 40.894z" transform="translate(156.947 70.737)"/>
            <g transform="translate(156.947 70.737) rotate(20 -22.514 114.645)">
                <mask id="prefix__d" fill="#fff">
                    <use xlink:href="#prefix__c"/>
                </mask>
                <path fill="#FFF" d="M-22.816 -6.256L14.35 -22.923 47.528 53.826 10.362 70.493z" mask="url(#prefix__d)"/>
            </g>
        </g>
        <g>
            <path fill="#F5BC8E" d="M11.106 72.38c-.473-2.2.084-5.116.354-7.092.298-2.18 1.188-4.472.68-6.666-.159-.688-.883-.997-1.517-.898-.01-.927-1.057-1.376-1.818-1.129-.145-.679-.712-1.096-1.302-1.097.18-.326.36-.651.545-.973.824-1.43-1.41-2.715-2.236-1.287C3.606 57.056 1.076 61.78.724 66.234c-.37 4.663 4.183 7.018 7.45 9.479.626.47 1.268.2 1.621-.31.671.293 1.604-.1 1.843-.84.075-.232.15-.467.227-.7.238-.74-.188-1.276-.759-1.482" transform="translate(61.895 112.737)"/>
            <path fill="#4C4C4C" d="M34.42 5.507c-3.79-.556-7.674.674-10.126 3.533-1.196-.292-.645 5.23-.928 6.783-.504 2.765 3.116 8.857 9.584 10.837 2.136.653 3.133-1.969 1.608-3.251-1.087-.916-2.1-1.934-3.015-3.026.07-.048.135-.099.197-.152.758-.144 1.51-.784 1.735-1.59.923-.035 1.87-.765 1.906-1.731.008-.241.011-.48.017-.72.786.031 1.61-.568 1.949-1.315.93.746 2.502.214 2.873-.9.025-.074.042-.147.064-.22.324-.123.613-.346.82-.692 2.678-4.498-3.06-7.024-6.684-7.556" transform="translate(61.895 112.737)"/>
            <path fill="#F5BC8E" d="M32.201 35.891L24.845 33.198 29.397 21.151 36.752 23.844z" transform="translate(61.895 112.737)"/>
            <path fill="#F5BC8E" d="M42.92 18.423c.115-3.307-.418-6.59-1.535-9.707-.782-2.181-4.413-1.437-3.62.779.166.461.315.927.454 1.393-1.857-1.366-4.486-.39-5.878 1.254-1.842 2.177-2.139 5.31-1.904 8.026.22 2.549.976 5.53 3.182 7.142 2.21 1.614 5.098 1.087 6.911-.857 1.953-2.097 2.295-5.31 2.39-8.03" transform="translate(61.895 112.737)"/>
            <path fill="#4C4C4C" d="M41.944 10.681c-.162-1.396-2.333-.924-2.171.466.012.108.012.213.007.319-.087-.055-.186-.096-.299-.117-2.36-.448-4.781 1.041-6.81 2.511-.605.177-1.172.459-1.668.86-.51-.12-1.056.058-1.202.694-.157.682-.26 1.354-.313 2.023-.076.5.259 2.009.595 3.366-.087-.082-.168-.16-.232-.228-.233-.253-.548-.217-.753-.045-.211-.031-.47.018-.577.223-.2.381-.17.705-.01.982-.11.02-.216.05-.32.098-.163.08-.307.272-.3.458.004.128.031.25.066.37-.078.122-.114.27-.074.399.007.018.015.035.02.055-.051.126-.051.274.037.43.005.01.01.017.017.026.012.04.027.078.05.117l.048.084c.008.032.02.065.038.098.02.047.043.093.075.14.04.055.08.11.118.165.073.101.166.157.266.179.542.391 1.266.529 1.92.63.406.062 1.06.007 1.616-.005.693-.017 1.461-.25 2.017-1.202.639-1.094.39-2.35.79-3.503.564-1.617 2.14-2.66 3.437-3.672 1.937-1.513 3.92-3.28 3.612-5.92" transform="translate(61.895 112.737)"/>
            <path fill="#2D304D" d="M39.244 5.595c-2.632-3.438-6.928-5.97-11.157-4.27-4.274 1.716-5.39 6.646-5.102 11.109-.55.273-.947.799-.931 1.537.037 1.605.88 3.447 2.311 4.342 1.598 1 3.662-.422 5.142-1.043l6.487-2.72c1.763-.74 4.172-1.394 5.56-2.748 2.035-1.985.169-5.466-2.31-6.207" transform="translate(61.895 112.737)"/>
            <path fill="#4C4C4C" d="M41.7 21.919c-1.256.311-2.435.855-3.714 1.124-.782.164-1.466.378-2.187.59-.915.269-1.25 1.233-.911 1.742.555.836 1.124 2.056 1.92 2.877 1.372-.08 2.714-.72 3.723-1.803 1.162-1.247 1.75-2.89 2.06-4.59-.294-.037-.6-.012-.89.06" transform="translate(61.895 112.737)"/>
            <path fill="#F5BC8E" d="M61.657 36.604c-2.258-2.6-15.551-10.183-19.428-11.979-.585-2.657-2.673-2.933-4.836-5.335-.019-.02-.676-1.893-2.238-1.635-.914.151-2.76 1.126-2.458 1.87.704 1.735 1.286 3.6 2.621 5.023.941 1.001 2.082 1.737 3.347 2.187 3.805 3.042 6.296 5.3 8.925 7.632 3.047 2.702 6.178 5.31 9.491 7.69.826 1.202 3.591 4.54 3.92 4.12 3.091-3.943 2.086-7.926.656-9.573M2.754 170.42L6.663 171.168 10.803 157.018 5.043 154.457z" transform="translate(61.895 112.737)"/>
            <path fill="#2D304D" d="M2.806 169.412c.06-.365.091-.618.456-.583 1.177.113 2.382.243 3.45.784 1.143.58 1.975 1.14 3.194 1.767.903.464 2.227 1.244 2.424 2.324.1.557-.114 1.05-.604 1.405-.81.585-2.36-.021-3.19-.196-1.48-.313-3.034-.527-4.484-.959-2.519-.75-1.559-2.66-1.246-4.542" transform="translate(61.895 112.737)"/>
            <path fill="#F5BC8E" d="M57.858 163.253L61.566 161.826 57.368 147.693 51.11 148.564z" transform="translate(61.895 112.737)"/>
            <path fill="#2D304D" d="M57.354 162.375c-.147-.338-.259-.57.068-.733 1.056-.525 2.144-1.05 3.34-1.155 1.282-.114 2.29-.079 3.66-.192 1.015-.083 2.557-.123 3.31.687.388.417.476.946.256 1.504-.366.922-2.005 1.226-2.802 1.515-1.42.517-2.85 1.154-4.31 1.553-2.535.694-2.762-1.424-3.522-3.179" transform="translate(61.895 112.737)"/>
            <path fill="#CDE1F9" d="M41.033 71.292c.51-6.397 1.133-12.752 2.585-18.995 1.671-.005 6.313-1.286 9.688-2.261.77-.224 1.521-.543 2.204-.95.35.3.825.476 1.36.474 2.24-.01 5.322-2.582 4.475-4.92-.419-1.156-1.318-2.192-1.85-3.328-.628-1.34-1.522-2.806-2.667-3.79-1.55-1.335-3.242-.528-4.225.875-3.685-.86-5.884-2.887-14.496-5.348-3.603-1.03-12.395-1.08-15.345-.622-4.286.667-6.401 2.587-7.817 4.243-2.515 2.944-4.5 6.431-6.664 9.629-1.735 2.568-4.807 5.728-4.632 9.037.186 3.545 3.844 4.313 6.684 4.963.165.038.325.042.475.02-.36 1.951-.706 3.903-1.043 5.85-1.172 6.766-7.24 84.244-7.366 94.983-.024 2.032 9.04 3.098 9.207 2.37.247-1.074 10.315-50.504 12.428-58.607.673.976 30.164 52.912 30.84 54.222.59 1.146 6.718-1.925 7.03-3.436.315-1.537-22.176-68.022-20.87-84.41" transform="translate(61.895 112.737)"/>
        </g>
    </g>
</svg>
