<svg id="Layer_1" data-name="Layer 1" xmlns="http://www.w3.org/2000/svg" xmlns:xlink="http://www.w3.org/1999/xlink" viewBox="0 0 79.79 62.27"><defs><style>.cls-1{fill:#fff;}.cls-1,.cls-4,.cls-6,.cls-7{fill-rule:evenodd;}.cls-2{filter:url(#prefix__a);}.cls-3{opacity:0.83;}.cls-4{fill:#e9effb;}.cls-5{mask:url(#mask);}.cls-6{fill:#d4e2ff;}.cls-7{fill:#84aeff;}</style><filter id="prefix__a" x="-9.1%" y="-9.1%" width="118.2%" height="118.2%" name="prefix__a"><feMorphology result="shadowSpreadOuter1" operator="dilate" radius="1" in="SourceAlpha"/><feOffset result="shadowOffsetOuter1" in="shadowSpreadOuter1"/><feGaussianBlur result="shadowBlurOuter1" stdDeviation="3.5" in="shadowOffsetOuter1"/></filter><mask id="mask" x="0" y="0" width="79.79" height="62.27" maskUnits="userSpaceOnUse"><g transform="translate(0 -0.36)"><g id="prefix_d" data-name="prefix  d"><path id="prefix_c" data-name="prefix  c" class="cls-1" d="M0,62.64H79.79V.37H0Z"/></g></g></mask></defs><g class="cls-3"><path class="cls-4" d="M3.33,62.64H77.64V29.28H3.33Z" transform="translate(0 -0.36)"/><path class="cls-1" d="M5.12,29.21H3V31a1.86,1.86,0,0,0,.34,0,1.79,1.79,0,0,0,1.77-1.81M21.57,31a1.79,1.79,0,0,0,1.77-1.81H19.8A1.79,1.79,0,0,0,21.57,31m18.22,0a1.8,1.8,0,0,0,1.78-1.81H38A1.79,1.79,0,0,0,39.79,31M58,31a1.8,1.8,0,0,0,1.78-1.81H56.24A1.79,1.79,0,0,0,58,31m18.23,0a1.71,1.71,0,0,0,.74-.17V29.21H74.46A1.8,1.8,0,0,0,76.24,31m-63.7,4.74a1.81,1.81,0,1,0,1.77,1.81,1.79,1.79,0,0,0-1.77-1.81m18.22,0a1.81,1.81,0,1,0,1.78,1.81,1.79,1.79,0,0,0-1.78-1.81m18.23,0a1.81,1.81,0,1,0,1.77,1.81A1.8,1.8,0,0,0,49,35.76m18.22,0A1.81,1.81,0,1,0,69,37.57a1.8,1.8,0,0,0-1.77-1.81M5.12,45.92a1.78,1.78,0,0,0-1.77-1.8,1.87,1.87,0,0,0-.34,0V47.7a1.87,1.87,0,0,0,.34,0,1.79,1.79,0,0,0,1.77-1.81m16.45-1.8a1.81,1.81,0,1,0,1.77,1.8,1.78,1.78,0,0,0-1.77-1.8m18.22,0a1.81,1.81,0,1,0,1.78,1.8,1.78,1.78,0,0,0-1.78-1.8m18.22,0a1.81,1.81,0,1,0,1.78,1.8A1.78,1.78,0,0,0,58,44.12m16.45,1.8a1.8,1.8,0,0,0,1.78,1.81,1.71,1.71,0,0,0,.74-.17V44.28a1.86,1.86,0,0,0-.74-.16,1.79,1.79,0,0,0-1.78,1.8M12.54,52.47a1.81,1.81,0,1,0,1.77,1.81,1.79,1.79,0,0,0-1.77-1.81m18.22,0a1.81,1.81,0,1,0,1.78,1.81,1.79,1.79,0,0,0-1.78-1.81m18.23,0a1.81,1.81,0,1,0,1.77,1.81A1.8,1.8,0,0,0,49,52.47m18.22,0A1.81,1.81,0,1,0,69,54.28a1.8,1.8,0,0,0-1.77-1.81M3.35,60.83a1.87,1.87,0,0,0-.34,0v1.78H5.12a1.79,1.79,0,0,0-1.77-1.81m18.22,0a1.79,1.79,0,0,0-1.77,1.81h3.54a1.79,1.79,0,0,0-1.77-1.81m18.22,0A1.79,1.79,0,0,0,38,62.64h3.55a1.8,1.8,0,0,0-1.78-1.81m18.22,0a1.79,1.79,0,0,0-1.77,1.81h3.55A1.79,1.79,0,0,0,58,60.83M77,61a1.86,1.86,0,0,0-.74-.16,1.79,1.79,0,0,0-1.78,1.8H77Z" transform="translate(0 -0.36)"/><g class="cls-5"><path class="cls-6" d="M0,31.54H79.79v-11H0Z" transform="translate(0 -0.36)"/></g><g class="cls-5"><path class="cls-1" d="M2.63,26.05a1.06,1.06,0,0,1-1,1.07,1.07,1.07,0,0,1,0-2.14,1.06,1.06,0,0,1,1,1.07m19.12,0A1.06,1.06,0,1,1,20.69,25a1.07,1.07,0,0,1,1.06,1.07m19.11,0a1.06,1.06,0,1,1-1-1.07,1.06,1.06,0,0,1,1,1.07m19.11,0a1.06,1.06,0,1,1-1-1.07,1.06,1.06,0,0,1,1,1.07m19.11,0A1.05,1.05,0,1,1,78,25a1.06,1.06,0,0,1,1,1.07" transform="translate(0 -0.36)"/></g><g class="cls-5"><path class="cls-7" d="M58,17.28a7,7,0,0,1-2.12,3.31,5.71,5.71,0,0,1-3.55,1,11,11,0,0,1-3.88-1.08c-.7-.29-1.39-.58-2.11-.82s-1.36-.27-2-.53a11.24,11.24,0,0,0,.06-1.41,3.86,3.86,0,0,0-.06-.75.16.16,0,0,0,.17-.08c.7-1.12,2.18-1.66,3.26-2.33,1.34-.83,2.65-1.73,4.07-2.44.84-.41,1.68-.83,2.55-1.16a5.93,5.93,0,0,1,3-.53c1.25.2,1.53,1.5,1.55,2.6A11.22,11.22,0,0,1,58,17.28m-23.05.63A38.35,38.35,0,0,1,30.5,16,50.67,50.67,0,0,1,26,13.65c-1-.57-2.31-1.24-2.44-2.5s.71-2.47,1.34-3.42,1.72-2.31,3-2.46,2.1,1.3,2.73,2.31a27.81,27.81,0,0,0,3,3.51c1.87,2.09,3.32,4.54,5.21,6.62a.1.1,0,0,0,0,0,12.57,12.57,0,0,1-.64,1.69,9.17,9.17,0,0,0-3.36-1.53M62.86,11.8a6,6,0,0,0-3.17-4.11,6.54,6.54,0,0,0-5.07-.43,13.6,13.6,0,0,0-2.87,1.52A37.85,37.85,0,0,0,48.53,11c-.91.71-1.77,1.49-2.66,2.24a9.61,9.61,0,0,0-2.31,2.53s0,0,0,0c-.94-.51-2.26.16-3.29.11A11.41,11.41,0,0,1,39.65,14a7.22,7.22,0,0,0-1-2,26.53,26.53,0,0,0-3-3.84,46,46,0,0,0-5.94-5.74A12.16,12.16,0,0,0,26.19.54a4.54,4.54,0,0,0-3.42.4,14.16,14.16,0,0,0-2.95,2.29,20.53,20.53,0,0,0-2.42,2.6c-1.16,1.53-1.93,3.5-1,5.36,1,2,3.32,3.14,5.23,4,2.48,1.06,5.08,1.84,7.61,2.78s5,1.64,7.38,2.78a8.67,8.67,0,0,0-1.63,1.57,28.62,28.62,0,0,0-2.35,3.44A49.84,49.84,0,0,0,30,30.43c-.83,1.78-1.6,3.59-2.5,5.33-.06.12,0,.31.18.25.86-.37,1.5-1.12,2.35-1.48a5.59,5.59,0,0,1,.45,1.83c0,.16.24.23.3.08C32,34,33.17,31.51,34.4,29.07a39.24,39.24,0,0,1,2.76-4.45v38h6.37V24a7.09,7.09,0,0,1,1.26,1.89,21.29,21.29,0,0,1,1.35,3.73c1,3.29,2,6.56,2.94,9.86a.16.16,0,0,0,.32,0,14.76,14.76,0,0,1,.41-5.17,4.45,4.45,0,0,0,2.11,1.24.15.15,0,0,0,.2-.15c-.06-1.47-1.4-2.46-2.11-3.62a13.34,13.34,0,0,1-1-2.7A15.82,15.82,0,0,0,48,26.65a27.36,27.36,0,0,0-1.35-2.43c-.39-.61-.87-1.16-1.3-1.74-.12-.16-.26-.36-.4-.57.27.18.53.37.8.58a11.79,11.79,0,0,0,3.5,1.9,11.16,11.16,0,0,0,7.54-.25,9.37,9.37,0,0,0,4.73-5.09,13.24,13.24,0,0,0,1.37-7.25" transform="translate(0 -0.36)"/></g></g></svg>